<svg width="37" height="33" viewBox="0 0 37 33" fill="none" xmlns="http://www.w3.org/2000/svg">
<path id="Vector" d="M32.5054 1.47527C33.0461 2.16571 33.9698 2.22231 34.7921 2.22231C35.682 2.22231 36.1889 2.67506 36.6169 3.43342C37.4392 4.90485 36.8535 6.11595 35.6595 7.21387C34.9385 7.88167 33.8121 7.96089 33.125 8.54947C32.6631 8.94562 32.3928 9.54553 32.1337 10.1001C31.8746 10.6548 31.6606 11.0622 31.2551 11.515C30.9172 11.8885 30.6243 12.4205 30.2413 12.7261C29.802 13.077 29.205 13.3146 28.7431 13.6429C29.3739 14.3333 29.6556 14.7295 30.5905 14.82C31.0636 14.8653 31.4353 14.854 31.8859 14.9559C32.3027 15.0577 32.7195 15.2954 33.125 15.3747C34.0487 15.5558 34.8372 15.1709 35.6595 15.0012C36.5944 14.8087 37.1351 15.4199 36.2002 16.0425C35.4792 16.5179 34.5668 16.6424 33.7445 16.9932C34.2514 17.3441 34.9385 17.9893 35.5243 18.0572C35.4905 18.6231 36.9999 18.4986 36.5719 19.3588C36.4029 19.7097 35.2765 19.9021 34.9273 19.8342C34.4316 18.6231 33.6995 18.4194 32.6631 17.7403C32.2013 17.4347 31.8071 17.0951 31.2776 16.9027C30.6806 16.6876 30.3201 16.914 29.7344 16.8687C30.0047 17.3102 30.3539 17.7176 30.6243 18.1364C30.8608 18.5099 31.6606 19.0533 31.4015 19.5965C31.1762 20.0719 30.1962 20.0833 29.8583 19.7777C29.588 19.54 29.7006 19.2683 29.5767 18.974C29.4753 18.725 29.2726 18.5099 29.0811 18.2836C28.653 17.7742 28.1912 17.5252 27.6392 17.2309C25.9721 17.5479 24.4627 18.759 22.8969 19.2909C23.0321 20.4568 23.5052 21.9508 23.9558 23.0827C24.2036 23.7052 24.2937 24.3164 24.4514 24.9277C24.5979 25.5049 24.9696 26.0822 25.0597 26.6707C25.2287 27.9158 26.8395 26.3651 27.2112 26.0369C27.8983 25.4031 29.588 25.7313 28.8107 26.8405C28.5291 27.2367 27.8532 27.5536 27.4139 27.7347C27.8532 27.8026 28.3714 27.9724 28.7769 28.1648C29.1825 28.3572 29.5654 28.7873 29.9822 28.8439C30.4553 28.9119 30.9735 28.6176 31.4241 28.5383C31.976 28.4478 32.2914 28.5836 32.787 28.6628C33.2038 28.7308 33.722 28.5157 33.9135 29.025C34.0825 29.4552 33.6206 29.8513 33.2151 29.9532C32.7195 30.0777 32.3139 29.7721 31.8521 29.7155C31.3677 29.6476 30.8383 29.7947 30.3652 29.84C29.7795 29.8966 29.2838 29.7947 28.6981 29.7155C28.2024 29.6476 27.7406 29.3646 27.2788 29.342C28.1011 29.9419 27.9321 30.9605 28.9459 31.4359C29.2613 31.5831 29.9259 31.7642 29.8696 32.2622C29.8245 32.6244 28.9346 32.9753 28.5742 32.9979C27.887 33.0319 28.0448 32.647 27.6505 32.2169C27.3126 31.8434 26.8507 31.4925 26.479 31.1643C25.6342 30.4059 24.6767 29.9758 23.7643 29.3533C22.8519 28.7308 21.2073 28.0064 20.9257 26.8066C20.6215 25.5049 20.3737 24.3504 20.3061 22.9922C20.2498 21.7924 19.788 20.7963 20.3061 19.6758C19.8893 20.1285 18.808 20.253 18.1997 20.4228C17.5351 20.6039 16.8367 20.6605 16.1496 20.7624C14.6514 20.9774 13.1645 21.0793 11.7339 20.4794C11.0017 20.1738 10.2358 19.9248 9.57117 19.4947C9.57117 20.785 9.28957 22.7884 7.78014 23.1506C8.456 23.3091 9.48105 24.1919 8.64749 24.7013C7.88151 25.1654 7.0367 24.6334 6.42842 24.2033C6.41716 25.1767 7.05922 25.8105 7.40841 26.6594C7.81393 27.6668 6.3383 28.1195 6.05669 27.2367C6.05669 28.1422 6.54105 30.4172 4.8514 29.9079C3.72496 29.5683 4.58105 27.6215 4.56979 26.8066C4.56979 26.0935 4.3445 25.5389 4.19806 24.8824C4.11921 25.3012 3.69116 25.4257 3.45461 25.6521C3.21806 25.8784 3.17301 26.184 2.99278 26.3991C2.62106 26.8405 1.67485 26.9311 1.4045 26.2633C1.07783 25.4823 2.12542 25.1201 2.56473 24.7352C3.10542 24.2599 3.21806 23.5128 3.28565 22.8337C3.39829 21.8037 2.48588 21.6566 2.15921 20.785C1.48335 18.974 0.559669 17.2423 0.379439 15.386C0.210474 13.6882 -0.735739 11.6055 1.20173 10.6095C1.69737 10.3492 1.97899 10.3039 2.46336 10.5642C2.82382 10.7566 3.03784 11.2207 3.37577 11.2886C3.45462 11.0622 3.60105 11.0622 3.81508 11.0509C3.80381 9.99827 4.61484 9.44365 5.60611 9.80585C6.28197 9.2965 7.04794 8.94563 7.67875 8.34574C8.47852 7.57606 9.58243 6.93089 10.585 6.43287C12.4774 5.4821 14.2909 4.20309 16.4199 4.10122C17.2873 4.05594 18.4926 3.93143 19.3261 4.16913C20.1597 4.40682 20.8468 3.72769 21.6128 3.42209C22.2661 3.16176 22.9758 3.03726 23.6516 2.83353C24.8682 2.47133 26.096 2.07516 27.29 1.74692C27.9546 1.56582 28.0109 0.671649 28.6418 0.320769C29.1036 0.0604383 29.633 -0.041435 30.1624 0.0151586C30.8946 0.0830709 32.0887 0.931983 32.5392 1.50924L32.5054 1.47527Z" fill="white"/>
</svg>
