<svg width="39" height="38" viewBox="0 0 39 38" fill="none" xmlns="http://www.w3.org/2000/svg">
<path id="Vector" d="M34.3815 1.83955C33.8659 1.29401 33.4306 0.75984 32.6859 0.623456C31.9412 0.487071 30.6008 0.487071 29.8561 0.623456C27.7366 1.02124 25.6973 4.3172 25.2047 6.28341C24.9526 7.29492 24.9412 8.53375 24.5975 9.45434C23.5778 10.2386 22.3634 10.75 21.3323 11.5456C20.4616 12.2161 19.5222 13.2276 18.9723 14.171C17.7464 16.2849 15.879 18.0238 14.1719 19.8082C13.347 20.6606 12.7971 22.2404 11.8233 22.8655C11.1588 23.2974 10.2423 24.002 9.57778 24.468C8.7529 25.059 7.97385 25.6614 7.10314 26.1842C5.25862 27.3093 3.26515 28.4231 1.52374 29.7074C1.0311 30.0711 0.286417 30.5144 0 31.0258C0.744684 31.0258 1.31752 30.844 1.97055 30.5485C1.7987 30.8212 1.51228 30.9917 1.36334 31.2872C2.10803 31.1508 2.81834 30.5485 3.5974 30.6962C3.56303 30.8099 3.5974 30.9008 3.55157 31.0144C3.83799 31.0031 4.1244 30.8894 4.42228 30.9008C4.38791 30.9917 4.39936 31.1281 4.37645 31.219C5.25862 31.2531 6.50739 30.0938 7.25208 29.6506C8.07696 29.1619 8.78727 28.4913 9.80692 28.5254C9.68089 29.0482 9.26845 30.4575 10.3454 29.9006C10.9182 29.6051 11.7546 28.605 12.1899 28.0594C12.1899 28.1731 12.2472 28.264 12.2701 28.389C13.1294 28.7414 13.5762 28.2299 14.2636 27.7867C15.0082 27.3093 15.856 27.0593 16.6122 26.6501C17.586 26.116 19.442 26.9343 20.2439 27.798C20.897 28.4913 21.4469 29.7529 22.0426 30.3552C22.1228 31.0599 22.8217 31.5941 23.1654 32.2078C23.6122 33.0034 24.1392 33.8103 24.5631 34.6059C24.861 35.1742 23.8986 35.1173 23.6122 35.5833C23.3258 36.0493 23.7153 36.5607 23.9559 36.9017C25.0787 34.9241 26.1327 37.47 25.388 37.9132C25.7661 37.8564 26.568 38.3565 26.4878 37.4472C26.5451 37.4359 26.6139 37.4472 26.6711 37.4245C26.6368 37.2767 26.7284 37.0608 26.6941 36.9017C28.4813 36.8108 25.7775 34.7082 25.4567 34.3331C25.5598 33.4012 24.1278 32.1055 23.6466 31.3327C22.9363 30.2075 22.604 29.6506 22.604 28.264C23.7841 28.2981 24.5517 27.9799 25.5255 27.4571C26.2587 27.9003 27.1867 28.0367 28.0001 28.3322C28.8594 28.6504 29.1916 28.9118 29.5926 29.7529C30.1081 29.5938 30.807 29.3665 31.2309 29.8552C31.7694 30.4689 31.2882 30.969 30.681 31.0372C30.7383 31.344 31.2767 31.3099 31.5631 31.3099C32.1016 31.3099 32.0672 31.3554 32.2505 30.9349C32.3995 30.5939 32.2735 30.378 32.5026 30.0825C32.7317 29.787 33.1098 29.6961 33.1327 29.2869C33.1671 28.73 32.1818 27.9913 31.7006 27.9344C31.0132 27.8549 30.3373 28.0935 29.5582 27.9003C28.6073 27.673 27.1294 27.4912 26.3962 26.8547C27.3815 26.7638 28.1491 26.0137 28.8708 25.434C29.5926 24.8544 30.3602 24.2748 31.1163 23.7065C32.8119 22.4563 34.1409 20.9561 35.2293 19.2058C35.974 18.0125 36.6728 16.8759 37.3373 15.6485C37.7154 14.9552 37.7956 14.4892 37.9445 13.489C38.082 12.5798 38.0018 11.5797 37.8758 10.5568C37.7727 9.70438 37.5894 8.99973 37.429 8.12459C37.2686 7.24946 37.1311 7.12444 36.9249 6.14702C37.5435 6.14702 38.1851 6.43116 38.8152 6.40843C39.01 6.38569 39.0673 6.40843 38.9069 6.21521C38.1278 5.56739 36.5812 5.77197 35.8136 5.05595C35.0002 4.29447 35.2293 2.89653 35.7677 1.99866C36.2031 1.29401 36.8676 0.725744 37.2571 0.0210913C37.1311 0.00972597 36.9822 -0.0130048 36.8561 0.00972597C36.2948 0.112014 35.8823 0.46434 35.424 0.805301C35.0574 1.07807 34.7939 1.58951 34.4044 1.82818L34.3815 1.83955Z" fill="white"/>
</svg>
