<svg width="114" height="63" viewBox="0 0 114 63" fill="none" xmlns="http://www.w3.org/2000/svg">
<circle cx="28.5" cy="56.5" r="5.5" stroke="white" stroke-width="0.5"/>
<path d="M66.8068 53.4091V52.9545L70.4659 51.0909V51.8182L67.6591 53.1705L67.6818 53.125V53.2386L67.6591 53.1932L70.4659 54.5455V55.2727L66.8068 53.4091ZM73.9212 50.1818V56H73.2166V50.9205H73.1825L71.7621 51.8636V51.1477L73.2166 50.1818H73.9212ZM77.4126 56.0795C77.0793 56.0795 76.7791 56.0133 76.5121 55.8807C76.245 55.7481 76.031 55.5663 75.87 55.3352C75.709 55.1042 75.621 54.8409 75.6058 54.5455H76.2876C76.3142 54.8087 76.4335 55.0265 76.6456 55.1989C76.8596 55.3693 77.1153 55.4545 77.4126 55.4545C77.6513 55.4545 77.8634 55.3987 78.049 55.2869C78.2365 55.1752 78.3833 55.0218 78.4893 54.8267C78.5973 54.6297 78.6513 54.4072 78.6513 54.1591C78.6513 53.9053 78.5954 53.679 78.4837 53.4801C78.3738 53.2794 78.2223 53.1212 78.0291 53.0057C77.8359 52.8902 77.6153 52.8314 77.3672 52.8295C77.1892 52.8277 77.0064 52.8551 76.8189 52.9119C76.6314 52.9669 76.477 53.0379 76.3558 53.125L75.6967 53.0455L76.049 50.1818H79.0717V50.8068H76.6399L76.4354 52.5227H76.4695C76.5888 52.428 76.7384 52.3494 76.9183 52.2869C77.0982 52.2244 77.2857 52.1932 77.4808 52.1932C77.8369 52.1932 78.1541 52.2784 78.4325 52.4489C78.7128 52.6174 78.9325 52.8485 79.0916 53.142C79.2526 53.4356 79.3331 53.7708 79.3331 54.1477C79.3331 54.5189 79.2498 54.8504 79.0831 55.142C78.9183 55.4318 78.6911 55.661 78.4013 55.8295C78.1115 55.9962 77.782 56.0795 77.4126 56.0795ZM82.3594 56.0795C81.9313 56.0795 81.5668 55.9631 81.2656 55.7301C80.9645 55.4953 80.7344 55.1553 80.5753 54.7102C80.4162 54.2633 80.3366 53.7235 80.3366 53.0909C80.3366 52.4621 80.4162 51.9252 80.5753 51.4801C80.7363 51.0331 80.9673 50.6922 81.2685 50.4574C81.5715 50.2206 81.9351 50.1023 82.3594 50.1023C82.7836 50.1023 83.1463 50.2206 83.4474 50.4574C83.7505 50.6922 83.9815 51.0331 84.1406 51.4801C84.3016 51.9252 84.3821 52.4621 84.3821 53.0909C84.3821 53.7235 84.3026 54.2633 84.1435 54.7102C83.9844 55.1553 83.7543 55.4953 83.4531 55.7301C83.152 55.9631 82.7874 56.0795 82.3594 56.0795ZM82.3594 55.4545C82.7836 55.4545 83.1132 55.25 83.348 54.8409C83.5829 54.4318 83.7003 53.8485 83.7003 53.0909C83.7003 52.5871 83.6463 52.1581 83.5384 51.804C83.4323 51.4498 83.2789 51.1799 83.0781 50.9943C82.8793 50.8087 82.6397 50.7159 82.3594 50.7159C81.9389 50.7159 81.6103 50.9233 81.3736 51.3381C81.1368 51.7509 81.0185 52.3352 81.0185 53.0909C81.0185 53.5947 81.0715 54.0227 81.1776 54.375C81.2836 54.7273 81.4361 54.9953 81.6349 55.179C81.8357 55.3627 82.0772 55.4545 82.3594 55.4545Z" fill="white"/>
<path d="M68.6477 34.1818V40H67.9432V34.9205H67.9091L66.4886 35.8636V35.1477L67.9432 34.1818H68.6477ZM72.1392 40.0795C71.8059 40.0795 71.5057 40.0133 71.2386 39.8807C70.9716 39.7481 70.7576 39.5663 70.5966 39.3352C70.4356 39.1042 70.3475 38.8409 70.3324 38.5455H71.0142C71.0407 38.8087 71.16 39.0265 71.3722 39.1989C71.5862 39.3693 71.8419 39.4545 72.1392 39.4545C72.3778 39.4545 72.59 39.3987 72.7756 39.2869C72.9631 39.1752 73.1098 39.0218 73.2159 38.8267C73.3239 38.6297 73.3778 38.4072 73.3778 38.1591C73.3778 37.9053 73.322 37.679 73.2102 37.4801C73.1004 37.2794 72.9489 37.1212 72.7557 37.0057C72.5625 36.8902 72.3419 36.8314 72.0938 36.8295C71.9157 36.8277 71.733 36.8551 71.5455 36.9119C71.358 36.9669 71.2036 37.0379 71.0824 37.125L70.4233 37.0455L70.7756 34.1818H73.7983V34.8068H71.3665L71.1619 36.5227H71.196C71.3153 36.428 71.465 36.3494 71.6449 36.2869C71.8248 36.2244 72.0123 36.1932 72.2074 36.1932C72.5634 36.1932 72.8807 36.2784 73.1591 36.4489C73.4394 36.6174 73.6591 36.8485 73.8182 37.142C73.9792 37.4356 74.0597 37.7708 74.0597 38.1477C74.0597 38.5189 73.9763 38.8504 73.8097 39.142C73.6449 39.4318 73.4176 39.661 73.1278 39.8295C72.8381 39.9962 72.5085 40.0795 72.1392 40.0795ZM77.0859 40.0795C76.6579 40.0795 76.2933 39.9631 75.9922 39.7301C75.6911 39.4953 75.4609 39.1553 75.3018 38.7102C75.1428 38.2633 75.0632 37.7235 75.0632 37.0909C75.0632 36.4621 75.1428 35.9252 75.3018 35.4801C75.4628 35.0331 75.6939 34.6922 75.995 34.4574C76.2981 34.2206 76.6617 34.1023 77.0859 34.1023C77.5102 34.1023 77.8729 34.2206 78.174 34.4574C78.477 34.6922 78.7081 35.0331 78.8672 35.4801C79.0282 35.9252 79.1087 36.4621 79.1087 37.0909C79.1087 37.7235 79.0291 38.2633 78.87 38.7102C78.7109 39.1553 78.4808 39.4953 78.1797 39.7301C77.8786 39.9631 77.514 40.0795 77.0859 40.0795ZM77.0859 39.4545C77.5102 39.4545 77.8397 39.25 78.0746 38.8409C78.3094 38.4318 78.4268 37.8485 78.4268 37.0909C78.4268 36.5871 78.3729 36.1581 78.2649 35.804C78.1589 35.4498 78.0054 35.1799 77.8047 34.9943C77.6058 34.8087 77.3662 34.7159 77.0859 34.7159C76.6655 34.7159 76.3369 34.9233 76.1001 35.3381C75.8634 35.7509 75.745 36.3352 75.745 37.0909C75.745 37.5947 75.7981 38.0227 75.9041 38.375C76.0102 38.7273 76.1626 38.9953 76.3615 39.179C76.5623 39.3627 76.8037 39.4545 77.0859 39.4545ZM84.9496 36.7784V37.4034H82.4041V36.7784H84.9496ZM88.3679 40V39.4886L90.2884 37.3864C90.5137 37.1402 90.6993 36.9261 90.8452 36.7443C90.991 36.5606 91.099 36.3883 91.169 36.2273C91.241 36.0644 91.277 35.8939 91.277 35.7159C91.277 35.5114 91.2277 35.3343 91.1293 35.1847C91.0327 35.035 90.9001 34.9195 90.7315 34.8381C90.563 34.7566 90.3736 34.7159 90.1634 34.7159C89.9399 34.7159 89.7448 34.7623 89.5781 34.8551C89.4134 34.946 89.2855 35.0739 89.1946 35.2386C89.1056 35.4034 89.0611 35.5966 89.0611 35.8182H88.3906C88.3906 35.4773 88.4692 35.178 88.6264 34.9205C88.7836 34.6629 88.9976 34.4621 89.2685 34.3182C89.5412 34.1742 89.8471 34.1023 90.1861 34.1023C90.527 34.1023 90.8291 34.1742 91.0923 34.3182C91.3556 34.4621 91.562 34.6562 91.7116 34.9006C91.8613 35.1449 91.9361 35.4167 91.9361 35.7159C91.9361 35.9299 91.8973 36.1392 91.8196 36.3438C91.7438 36.5464 91.6113 36.7727 91.4219 37.0227C91.2344 37.2708 90.974 37.5739 90.6406 37.9318L89.3338 39.3295V39.375H92.0384V40H88.3679ZM93.2116 40V39.4886L95.1321 37.3864C95.3575 37.1402 95.5431 36.9261 95.6889 36.7443C95.8348 36.5606 95.9427 36.3883 96.0128 36.2273C96.0848 36.0644 96.1207 35.8939 96.1207 35.7159C96.1207 35.5114 96.0715 35.3343 95.973 35.1847C95.8764 35.035 95.7438 34.9195 95.5753 34.8381C95.4067 34.7566 95.2173 34.7159 95.0071 34.7159C94.7836 34.7159 94.5885 34.7623 94.4219 34.8551C94.2571 34.946 94.1293 35.0739 94.0384 35.2386C93.9493 35.4034 93.9048 35.5966 93.9048 35.8182H93.2344C93.2344 35.4773 93.313 35.178 93.4702 34.9205C93.6274 34.6629 93.8414 34.4621 94.1122 34.3182C94.3849 34.1742 94.6908 34.1023 95.0298 34.1023C95.3707 34.1023 95.6728 34.1742 95.9361 34.3182C96.1993 34.4621 96.4058 34.6562 96.5554 34.9006C96.705 35.1449 96.7798 35.4167 96.7798 35.7159C96.7798 35.9299 96.741 36.1392 96.6634 36.3438C96.5876 36.5464 96.455 36.7727 96.2656 37.0227C96.0781 37.2708 95.8177 37.5739 95.4844 37.9318L94.1776 39.3295V39.375H96.8821V40H93.2116ZM98.1577 40V34.1818H98.8622V37.0682H98.9304L101.544 34.1818H102.464L100.021 36.8068L102.464 40H101.612L99.5895 37.2955L98.8622 38.1136V40H98.1577Z" fill="white"/>
<path d="M66.6023 24V23.4886L68.5227 21.3864C68.7481 21.1402 68.9337 20.9261 69.0795 20.7443C69.2254 20.5606 69.3333 20.3883 69.4034 20.2273C69.4754 20.0644 69.5114 19.8939 69.5114 19.7159C69.5114 19.5114 69.4621 19.3343 69.3636 19.1847C69.267 19.035 69.1345 18.9195 68.9659 18.8381C68.7973 18.7566 68.608 18.7159 68.3977 18.7159C68.1742 18.7159 67.9792 18.7623 67.8125 18.8551C67.6477 18.946 67.5199 19.0739 67.429 19.2386C67.34 19.4034 67.2955 19.5966 67.2955 19.8182H66.625C66.625 19.4773 66.7036 19.178 66.8608 18.9205C67.018 18.6629 67.232 18.4621 67.5028 18.3182C67.7756 18.1742 68.0814 18.1023 68.4205 18.1023C68.7614 18.1023 69.0634 18.1742 69.3267 18.3182C69.59 18.4621 69.7964 18.6562 69.946 18.9006C70.0956 19.1449 70.1705 19.4167 70.1705 19.7159C70.1705 19.9299 70.1316 20.1392 70.054 20.3438C69.9782 20.5464 69.8456 20.7727 69.6562 21.0227C69.4688 21.2708 69.2083 21.5739 68.875 21.9318L67.5682 23.3295V23.375H70.2727V24H66.6023ZM71.446 24V23.4886L73.3665 21.3864C73.5919 21.1402 73.7775 20.9261 73.9233 20.7443C74.0691 20.5606 74.1771 20.3883 74.2472 20.2273C74.3191 20.0644 74.3551 19.8939 74.3551 19.7159C74.3551 19.5114 74.3059 19.3343 74.2074 19.1847C74.1108 19.035 73.9782 18.9195 73.8097 18.8381C73.6411 18.7566 73.4517 18.7159 73.2415 18.7159C73.018 18.7159 72.8229 18.7623 72.6562 18.8551C72.4915 18.946 72.3636 19.0739 72.2727 19.2386C72.1837 19.4034 72.1392 19.5966 72.1392 19.8182H71.4688C71.4688 19.4773 71.5473 19.178 71.7045 18.9205C71.8617 18.6629 72.0758 18.4621 72.3466 18.3182C72.6193 18.1742 72.9252 18.1023 73.2642 18.1023C73.6051 18.1023 73.9072 18.1742 74.1705 18.3182C74.4337 18.4621 74.6402 18.6562 74.7898 18.9006C74.9394 19.1449 75.0142 19.4167 75.0142 19.7159C75.0142 19.9299 74.9754 20.1392 74.8977 20.3438C74.822 20.5464 74.6894 20.7727 74.5 21.0227C74.3125 21.2708 74.0521 21.5739 73.7188 21.9318L72.4119 23.3295V23.375H75.1165V24H71.446ZM76.392 24V18.1818H77.0966V21.0682H77.1648L79.7784 18.1818H80.6989L78.2557 20.8068L80.6989 24H79.8466L77.8239 21.2955L77.0966 22.1136V24H76.392ZM86.2699 20.7784V21.4034H83.7244V20.7784H86.2699ZM91.6541 24.0795C91.2791 24.0795 90.9448 24.0152 90.6513 23.8864C90.3596 23.7576 90.1276 23.5786 89.9553 23.3494C89.7848 23.1184 89.692 22.8504 89.6768 22.5455H90.3928C90.4079 22.733 90.4723 22.8949 90.5859 23.0312C90.6996 23.1657 90.8482 23.2699 91.032 23.3438C91.2157 23.4176 91.4193 23.4545 91.6428 23.4545C91.8928 23.4545 92.1143 23.411 92.3075 23.3239C92.5007 23.2367 92.6522 23.1155 92.7621 22.9602C92.8719 22.8049 92.9268 22.625 92.9268 22.4205C92.9268 22.2064 92.8738 22.018 92.7678 21.8551C92.6617 21.6903 92.5064 21.5616 92.3018 21.4688C92.0973 21.3759 91.8473 21.3295 91.5518 21.3295H91.0859V20.7045H91.5518C91.7829 20.7045 91.9856 20.6629 92.1598 20.5795C92.3359 20.4962 92.4732 20.3788 92.5717 20.2273C92.6721 20.0758 92.7223 19.8977 92.7223 19.6932C92.7223 19.4962 92.6787 19.3248 92.5916 19.179C92.5045 19.0331 92.3814 18.9195 92.2223 18.8381C92.0651 18.7566 91.8795 18.7159 91.6655 18.7159C91.4647 18.7159 91.2753 18.7528 91.0973 18.8267C90.9212 18.8987 90.7772 19.0038 90.6655 19.142C90.5537 19.2784 90.4931 19.4432 90.4837 19.6364H89.8018C89.8132 19.3314 89.9051 19.0644 90.0774 18.8352C90.2498 18.6042 90.4751 18.4242 90.7536 18.2955C91.0339 18.1667 91.3416 18.1023 91.6768 18.1023C92.0367 18.1023 92.3454 18.1752 92.603 18.321C92.8606 18.465 93.0585 18.6553 93.1967 18.892C93.335 19.1288 93.4041 19.3845 93.4041 19.6591C93.4041 19.9867 93.3179 20.2661 93.1456 20.4972C92.9751 20.7282 92.7431 20.8883 92.4496 20.9773V21.0227C92.817 21.0833 93.1039 21.2396 93.3104 21.4915C93.5168 21.7415 93.62 22.0511 93.62 22.4205C93.62 22.7367 93.5339 23.0208 93.3615 23.2727C93.1911 23.5227 92.9581 23.7197 92.6626 23.8636C92.3672 24.0076 92.031 24.0795 91.6541 24.0795ZM95.1023 24.0455C94.9621 24.0455 94.8419 23.9953 94.7415 23.8949C94.6411 23.7945 94.5909 23.6742 94.5909 23.5341C94.5909 23.3939 94.6411 23.2737 94.7415 23.1733C94.8419 23.0729 94.9621 23.0227 95.1023 23.0227C95.2424 23.0227 95.3627 23.0729 95.4631 23.1733C95.5634 23.2737 95.6136 23.3939 95.6136 23.5341C95.6136 23.6269 95.59 23.7121 95.5426 23.7898C95.4972 23.8674 95.4356 23.9299 95.358 23.9773C95.2822 24.0227 95.197 24.0455 95.1023 24.0455ZM96.8054 24V23.4886L98.7259 21.3864C98.9512 21.1402 99.1368 20.9261 99.2827 20.7443C99.4285 20.5606 99.5365 20.3883 99.6065 20.2273C99.6785 20.0644 99.7145 19.8939 99.7145 19.7159C99.7145 19.5114 99.6652 19.3343 99.5668 19.1847C99.4702 19.035 99.3376 18.9195 99.169 18.8381C99.0005 18.7566 98.8111 18.7159 98.6009 18.7159C98.3774 18.7159 98.1823 18.7623 98.0156 18.8551C97.8509 18.946 97.723 19.0739 97.6321 19.2386C97.5431 19.4034 97.4986 19.5966 97.4986 19.8182H96.8281C96.8281 19.4773 96.9067 19.178 97.0639 18.9205C97.2211 18.6629 97.4351 18.4621 97.706 18.3182C97.9787 18.1742 98.2846 18.1023 98.6236 18.1023C98.9645 18.1023 99.2666 18.1742 99.5298 18.3182C99.7931 18.4621 99.9995 18.6562 100.149 18.9006C100.299 19.1449 100.374 19.4167 100.374 19.7159C100.374 19.9299 100.335 20.1392 100.257 20.3438C100.181 20.5464 100.049 20.7727 99.8594 21.0227C99.6719 21.2708 99.4115 21.5739 99.0781 21.9318L97.7713 23.3295V23.375H100.476V24H96.8054ZM103.467 24.0795C103.134 24.0795 102.834 24.0133 102.567 23.8807C102.3 23.7481 102.086 23.5663 101.925 23.3352C101.764 23.1042 101.676 22.8409 101.661 22.5455H102.342C102.369 22.8087 102.488 23.0265 102.7 23.1989C102.914 23.3693 103.17 23.4545 103.467 23.4545C103.706 23.4545 103.918 23.3987 104.104 23.2869C104.291 23.1752 104.438 23.0218 104.544 22.8267C104.652 22.6297 104.706 22.4072 104.706 22.1591C104.706 21.9053 104.65 21.679 104.538 21.4801C104.429 21.2794 104.277 21.1212 104.084 21.0057C103.891 20.8902 103.67 20.8314 103.422 20.8295C103.244 20.8277 103.061 20.8551 102.874 20.9119C102.686 20.9669 102.532 21.0379 102.411 21.125L101.751 21.0455L102.104 18.1818H105.126V18.8068H102.695L102.49 20.5227H102.524C102.643 20.428 102.793 20.3494 102.973 20.2869C103.153 20.2244 103.34 20.1932 103.536 20.1932C103.892 20.1932 104.209 20.2784 104.487 20.4489C104.768 20.6174 104.987 20.8485 105.146 21.142C105.307 21.4356 105.388 21.7708 105.388 22.1477C105.388 22.5189 105.304 22.8504 105.138 23.142C104.973 23.4318 104.746 23.661 104.456 23.8295C104.166 23.9962 103.837 24.0795 103.467 24.0795ZM106.619 18.1818H107.46L109.437 23.0114H109.505L111.482 18.1818H112.323V24H111.664V19.5795H111.607L109.789 24H109.153L107.335 19.5795H107.278V24H106.619V18.1818Z" fill="white"/>
<circle cx="28.5" cy="48.5" r="13.5" stroke="white" stroke-width="0.5"/>
<circle cx="29" cy="40" r="22" stroke="white" stroke-width="0.5"/>
<circle cx="28.5" cy="34.5" r="27.5" stroke="white" stroke-width="0.5"/>
<path d="M70.4659 7.40909L66.8068 9.27273V8.54545L69.6136 7.19318L69.5909 7.23864V7.125L69.6136 7.17045L66.8068 5.81818V5.09091L70.4659 6.95455V7.40909ZM73.8416 10.0795C73.4666 10.0795 73.1323 10.0152 72.8388 9.88636C72.5471 9.75758 72.3151 9.5786 72.1428 9.34943C71.9723 9.11837 71.8795 8.85038 71.8643 8.54545H72.5803C72.5954 8.73295 72.6598 8.89489 72.7734 9.03125C72.8871 9.16572 73.0357 9.26989 73.2195 9.34375C73.4032 9.41761 73.6068 9.45455 73.8303 9.45455C74.0803 9.45455 74.3018 9.41098 74.495 9.32386C74.6882 9.23674 74.8397 9.11553 74.9496 8.96023C75.0594 8.80492 75.1143 8.625 75.1143 8.42045C75.1143 8.20644 75.0613 8.01799 74.9553 7.85511C74.8492 7.69034 74.6939 7.56155 74.4893 7.46875C74.2848 7.37595 74.0348 7.32955 73.7393 7.32955H73.2734V6.70455H73.7393C73.9704 6.70455 74.1731 6.66288 74.3473 6.57955C74.5234 6.49621 74.6607 6.37879 74.7592 6.22727C74.8596 6.07576 74.9098 5.89773 74.9098 5.69318C74.9098 5.49621 74.8662 5.32481 74.7791 5.17898C74.692 5.03314 74.5689 4.91951 74.4098 4.83807C74.2526 4.75663 74.067 4.71591 73.853 4.71591C73.6522 4.71591 73.4628 4.75284 73.2848 4.8267C73.1087 4.89867 72.9647 5.00379 72.853 5.14205C72.7412 5.27841 72.6806 5.44318 72.6712 5.63636H71.9893C72.0007 5.33144 72.0926 5.06439 72.2649 4.83523C72.4373 4.60417 72.6626 4.42424 72.9411 4.29545C73.2214 4.16667 73.5291 4.10227 73.8643 4.10227C74.2242 4.10227 74.5329 4.17519 74.7905 4.32102C75.0481 4.46496 75.246 4.6553 75.3842 4.89205C75.5225 5.12879 75.5916 5.38447 75.5916 5.65909C75.5916 5.98674 75.5054 6.2661 75.3331 6.49716C75.1626 6.72822 74.9306 6.88826 74.6371 6.97727V7.02273C75.0045 7.08333 75.2914 7.23958 75.4979 7.49148C75.7043 7.74148 75.8075 8.05114 75.8075 8.42045C75.8075 8.73674 75.7214 9.02083 75.549 9.27273C75.3786 9.52273 75.1456 9.7197 74.8501 9.86364C74.5547 10.0076 74.2185 10.0795 73.8416 10.0795ZM77.2898 10.0455C77.1496 10.0455 77.0294 9.99527 76.929 9.89489C76.8286 9.79451 76.7784 9.67424 76.7784 9.53409C76.7784 9.39394 76.8286 9.27367 76.929 9.1733C77.0294 9.07292 77.1496 9.02273 77.2898 9.02273C77.4299 9.02273 77.5502 9.07292 77.6506 9.1733C77.7509 9.27367 77.8011 9.39394 77.8011 9.53409C77.8011 9.62689 77.7775 9.71212 77.7301 9.78977C77.6847 9.86742 77.6231 9.92992 77.5455 9.97727C77.4697 10.0227 77.3845 10.0455 77.2898 10.0455ZM78.9929 10V9.48864L80.9134 7.38636C81.1387 7.14015 81.3243 6.92614 81.4702 6.74432C81.616 6.56061 81.724 6.38826 81.794 6.22727C81.866 6.06439 81.902 5.89394 81.902 5.71591C81.902 5.51136 81.8527 5.33428 81.7543 5.18466C81.6577 5.03504 81.5251 4.91951 81.3565 4.83807C81.188 4.75663 80.9986 4.71591 80.7884 4.71591C80.5649 4.71591 80.3698 4.76231 80.2031 4.85511C80.0384 4.94602 79.9105 5.07386 79.8196 5.23864C79.7306 5.40341 79.6861 5.59659 79.6861 5.81818H79.0156C79.0156 5.47727 79.0942 5.17803 79.2514 4.92045C79.4086 4.66288 79.6226 4.46212 79.8935 4.31818C80.1662 4.17424 80.4721 4.10227 80.8111 4.10227C81.152 4.10227 81.4541 4.17424 81.7173 4.31818C81.9806 4.46212 82.187 4.65625 82.3366 4.90057C82.4863 5.14489 82.5611 5.41667 82.5611 5.71591C82.5611 5.92992 82.5223 6.1392 82.4446 6.34375C82.3688 6.5464 82.2363 6.77273 82.0469 7.02273C81.8594 7.27083 81.599 7.57386 81.2656 7.93182L79.9588 9.32955V9.375H82.6634V10H78.9929ZM85.6548 10.0795C85.3215 10.0795 85.0213 10.0133 84.7543 9.88068C84.4872 9.74811 84.2732 9.56629 84.1122 9.33523C83.9512 9.10417 83.8632 8.84091 83.848 8.54545H84.5298C84.5563 8.80871 84.6757 9.02652 84.8878 9.19886C85.1018 9.36932 85.3575 9.45455 85.6548 9.45455C85.8935 9.45455 86.1056 9.39867 86.2912 9.28693C86.4787 9.17519 86.6255 9.02178 86.7315 8.8267C86.8395 8.62973 86.8935 8.4072 86.8935 8.15909C86.8935 7.9053 86.8376 7.67898 86.7259 7.48011C86.616 7.27936 86.4645 7.12121 86.2713 7.00568C86.0781 6.89015 85.8575 6.83144 85.6094 6.82955C85.4313 6.82765 85.2486 6.85511 85.0611 6.91193C84.8736 6.96686 84.7192 7.03788 84.598 7.125L83.9389 7.04545L84.2912 4.18182H87.3139V4.80682H84.8821L84.6776 6.52273H84.7116C84.831 6.42803 84.9806 6.34943 85.1605 6.28693C85.3404 6.22443 85.5279 6.19318 85.723 6.19318C86.0791 6.19318 86.3963 6.27841 86.6747 6.44886C86.955 6.61742 87.1747 6.84848 87.3338 7.14205C87.4948 7.43561 87.5753 7.77083 87.5753 8.14773C87.5753 8.51894 87.492 8.85038 87.3253 9.14205C87.1605 9.43182 86.9332 9.66098 86.6435 9.82955C86.3537 9.99621 86.0241 10.0795 85.6548 10.0795ZM88.8061 4.18182H89.647L91.6243 9.01136H91.6925L93.6697 4.18182H94.5107V10H93.8516V5.57955H93.7947L91.9766 10H91.3402L89.522 5.57955H89.4652V10H88.8061V4.18182Z" fill="white"/>
<line opacity="0.5" x1="26" y1="6.5" x2="61" y2="6.5" stroke="white" stroke-dasharray="1 1"/>
<path opacity="0.5" d="M30 52L61 52" stroke="white" stroke-dasharray="1 1"/>
<path opacity="0.5" d="M30 35L61 35" stroke="white" stroke-dasharray="1 1"/>
<path opacity="0.5" d="M30 18L61 18" stroke="white" stroke-dasharray="1 1"/>
</svg>
