<svg width="98" height="55" viewBox="0 0 98 55" fill="none" xmlns="http://www.w3.org/2000/svg">
<circle cx="24.5781" cy="46.1406" r="7.85931" stroke="white" stroke-width="0.5"/>
<path d="M62.0085 44.7614V44.1932L66.5824 41.8636V42.7727L63.0739 44.4631L63.1023 44.4062V44.5483L63.0739 44.4915L66.5824 46.1818V47.0909L62.0085 44.7614ZM72.4015 40.7273V48H71.5208V41.6506H71.4782L69.7026 42.8295V41.9347L71.5208 40.7273H72.4015ZM78.2658 48.0994C77.8491 48.0994 77.4739 48.0166 77.1401 47.8509C76.8063 47.6851 76.5388 47.4579 76.3375 47.169C76.1363 46.8802 76.0262 46.5511 76.0073 46.1818H76.8596C76.8927 46.5109 77.0418 46.7831 77.307 46.9986C77.5745 47.2116 77.8941 47.3182 78.2658 47.3182C78.5641 47.3182 78.8292 47.2483 79.0613 47.1087C79.2956 46.969 79.4791 46.7772 79.6117 46.5334C79.7466 46.2872 79.8141 46.009 79.8141 45.6989C79.8141 45.3816 79.7443 45.0987 79.6046 44.8501C79.4673 44.5992 79.2779 44.4015 79.0364 44.2571C78.7949 44.1127 78.5191 44.0393 78.209 44.0369C77.9864 44.0346 77.758 44.0689 77.5236 44.1399C77.2892 44.2086 77.0963 44.2973 76.9448 44.4062L76.1209 44.3068L76.5613 40.7273H80.3397V41.5085H77.2999L77.0442 43.6534H77.0868C77.236 43.535 77.423 43.4368 77.6479 43.3587C77.8728 43.2805 78.1072 43.2415 78.351 43.2415C78.7961 43.2415 79.1926 43.348 79.5407 43.5611C79.891 43.7718 80.1657 44.0606 80.3645 44.4276C80.5658 44.7945 80.6664 45.2135 80.6664 45.6847C80.6664 46.1487 80.5622 46.563 80.3539 46.9276C80.1479 47.2898 79.8638 47.5762 79.5016 47.7869C79.1394 47.9953 78.7275 48.0994 78.2658 48.0994ZM85.9492 48.0994C85.4142 48.0994 84.9585 47.9538 84.582 47.6626C84.2056 47.3691 83.918 46.9441 83.7191 46.3878C83.5202 45.8291 83.4208 45.1544 83.4208 44.3636C83.4208 43.5777 83.5202 42.9065 83.7191 42.3501C83.9203 41.7914 84.2092 41.3653 84.5856 41.0717C84.9644 40.7758 85.4189 40.6278 85.9492 40.6278C86.4795 40.6278 86.9329 40.7758 87.3093 41.0717C87.6881 41.3653 87.9769 41.7914 88.1758 42.3501C88.377 42.9065 88.4776 43.5777 88.4776 44.3636C88.4776 45.1544 88.3782 45.8291 88.1793 46.3878C87.9805 46.9441 87.6928 47.3691 87.3164 47.6626C86.94 47.9538 86.4843 48.0994 85.9492 48.0994ZM85.9492 47.3182C86.4795 47.3182 86.8915 47.0625 87.185 46.5511C87.4786 46.0398 87.6254 45.3106 87.6254 44.3636C87.6254 43.7339 87.5579 43.1977 87.4229 42.755C87.2904 42.3123 87.0986 41.9749 86.8477 41.7429C86.5991 41.5109 86.2996 41.3949 85.9492 41.3949C85.4237 41.3949 85.0129 41.6541 84.717 42.1726C84.421 42.6887 84.2731 43.419 84.2731 44.3636C84.2731 44.9934 84.3394 45.5284 84.4719 45.9688C84.6045 46.4091 84.7951 46.7441 85.0437 46.9737C85.2946 47.2034 85.5965 47.3182 85.9492 47.3182Z" fill="white"/>
<circle cx="24.5774" cy="40.9011" r="13.0988" stroke="white" stroke-width="0.5"/>
<circle cx="24.5776" cy="35.6616" r="18.3384" stroke="white" stroke-width="0.5"/>
<circle cx="24.5779" cy="30.4222" r="23.5779" stroke="white" stroke-width="0.5"/>
<path d="M61.8148 7.76136L57.2409 10.0909V9.18182L60.7495 7.49148L60.7211 7.5483V7.40625L60.7495 7.46307L57.2409 5.77273V4.86364L61.8148 7.19318V7.76136ZM67.3498 11.0994C66.9331 11.0994 66.5579 11.0166 66.2241 10.8509C65.8903 10.6851 65.6228 10.4579 65.4215 10.169C65.2203 9.88021 65.1102 9.55114 65.0913 9.18182H65.9435C65.9767 9.51089 66.1258 9.78314 66.391 9.99858C66.6585 10.2116 66.9781 10.3182 67.3498 10.3182C67.6481 10.3182 67.9132 10.2483 68.1452 10.1087C68.3796 9.96899 68.5631 9.77723 68.6957 9.53338C68.8306 9.28717 68.8981 9.009 68.8981 8.69886C68.8981 8.38163 68.8282 8.09872 68.6886 7.85014C68.5513 7.5992 68.3619 7.40152 68.1204 7.2571C67.8789 7.11269 67.6031 7.0393 67.293 7.03693C67.0704 7.03456 66.842 7.06889 66.6076 7.13991C66.3732 7.20857 66.1803 7.29735 66.0288 7.40625L65.2049 7.30682L65.6452 3.72727H69.4237V4.50852H66.3839L66.1282 6.65341H66.1708C66.32 6.53504 66.507 6.43679 66.7319 6.35866C66.9568 6.28054 67.1912 6.24148 67.435 6.24148C67.8801 6.24148 68.2766 6.34801 68.6246 6.56108C68.975 6.77178 69.2496 7.06061 69.4485 7.42756C69.6497 7.79451 69.7504 8.21354 69.7504 8.68466C69.7504 9.14867 69.6462 9.56297 69.4379 9.92756C69.2319 10.2898 68.9478 10.5762 68.5856 10.7869C68.2234 10.9953 67.8114 11.0994 67.3498 11.0994ZM75.0332 11.0994C74.4982 11.0994 74.0424 10.9538 73.666 10.6626C73.2896 10.3691 73.002 9.94413 72.8031 9.38778C72.6042 8.82907 72.5048 8.15436 72.5048 7.36364C72.5048 6.57765 72.6042 5.90649 72.8031 5.35014C73.0043 4.79143 73.2931 4.36529 73.6696 4.07173C74.0484 3.7758 74.5029 3.62784 75.0332 3.62784C75.5635 3.62784 76.0169 3.7758 76.3933 4.07173C76.7721 4.36529 77.0609 4.79143 77.2598 5.35014C77.461 5.90649 77.5616 6.57765 77.5616 7.36364C77.5616 8.15436 77.4622 8.82907 77.2633 9.38778C77.0645 9.94413 76.7768 10.3691 76.4004 10.6626C76.024 10.9538 75.5682 11.0994 75.0332 11.0994ZM75.0332 10.3182C75.5635 10.3182 75.9754 10.0625 76.269 9.55114C76.5626 9.03977 76.7093 8.31061 76.7093 7.36364C76.7093 6.7339 76.6419 6.19768 76.5069 5.75497C76.3743 5.31226 76.1826 4.97491 75.9316 4.7429C75.6831 4.51089 75.3836 4.39489 75.0332 4.39489C74.5076 4.39489 74.0969 4.65412 73.801 5.17259C73.505 5.68868 73.3571 6.41903 73.3571 7.36364C73.3571 7.99337 73.4234 8.52841 73.5559 8.96875C73.6885 9.40909 73.8791 9.74408 74.1277 9.97372C74.3786 10.2034 74.6805 10.3182 75.0332 10.3182ZM82.7832 11.0994C82.2482 11.0994 81.7924 10.9538 81.416 10.6626C81.0396 10.3691 80.752 9.94413 80.5531 9.38778C80.3542 8.82907 80.2548 8.15436 80.2548 7.36364C80.2548 6.57765 80.3542 5.90649 80.5531 5.35014C80.7543 4.79143 81.0431 4.36529 81.4196 4.07173C81.7984 3.7758 82.2529 3.62784 82.7832 3.62784C83.3135 3.62784 83.7669 3.7758 84.1433 4.07173C84.5221 4.36529 84.8109 4.79143 85.0098 5.35014C85.211 5.90649 85.3116 6.57765 85.3116 7.36364C85.3116 8.15436 85.2122 8.82907 85.0133 9.38778C84.8145 9.94413 84.5268 10.3691 84.1504 10.6626C83.774 10.9538 83.3182 11.0994 82.7832 11.0994ZM82.7832 10.3182C83.3135 10.3182 83.7254 10.0625 84.019 9.55114C84.3126 9.03977 84.4593 8.31061 84.4593 7.36364C84.4593 6.7339 84.3919 6.19768 84.2569 5.75497C84.1243 5.31226 83.9326 4.97491 83.6816 4.7429C83.4331 4.51089 83.1336 4.39489 82.7832 4.39489C82.2576 4.39489 81.8469 4.65412 81.551 5.17259C81.255 5.68868 81.1071 6.41903 81.1071 7.36364C81.1071 7.99337 81.1734 8.52841 81.3059 8.96875C81.4385 9.40909 81.6291 9.74408 81.8777 9.97372C82.1286 10.2034 82.4305 10.3182 82.7832 10.3182ZM88.2889 3.72727H89.34L91.8116 9.7642H91.8968L94.3684 3.72727H95.4196V11H94.5957V5.47443H94.5247L92.252 11H91.4565L89.1838 5.47443H89.1127V11H88.2889V3.72727Z" fill="white"/>
<line x1="25.626" y1="6.34424" x2="53.9195" y2="6.34424" stroke="white" stroke-dasharray="2 2"/>
<path d="M33 45H57" stroke="white" stroke-dasharray="2 2"/>
</svg>
