<?xml version="1.0" encoding="UTF-8"?>
<svg width="473px" height="411px" viewBox="0 0 473 411" version="1.1" xmlns="http://www.w3.org/2000/svg" xmlns:xlink="http://www.w3.org/1999/xlink">
    <!-- Generator: sketchtool 54.1 (76490) - https://sketchapp.com -->
    <title>BFCD6C19-DB50-47EF-9125-05F187823430</title>
    <desc>Created with sketchtool.</desc>
    <defs>
        <linearGradient x1="50%" y1="12.9088261%" x2="86.6908482%" y2="91.5423601%" id="linearGradient-1">
            <stop stop-color="#FFFFFF" offset="0%"></stop>
            <stop stop-color="#FFFFFF" stop-opacity="0" offset="100%"></stop>
        </linearGradient>
        <linearGradient x1="79.8553467%" y1="104.265833%" x2="54.9865723%" y2="12.6780661%" id="linearGradient-2">
            <stop stop-color="#FFFFFF" stop-opacity="0" offset="0%"></stop>
            <stop stop-color="#FFFFFF" offset="100%"></stop>
        </linearGradient>
        <linearGradient x1="31.1053436%" y1="11.6263838%" x2="61.6568822%" y2="72.0827793%" id="linearGradient-3">
            <stop stop-color="#0068FF" stop-opacity="0" offset="0%"></stop>
            <stop stop-color="#0068FF" offset="100%"></stop>
        </linearGradient>
        <linearGradient x1="39.779782%" y1="0%" x2="50%" y2="59.4804133%" id="linearGradient-4">
            <stop stop-color="#15BA31" stop-opacity="0" offset="0%"></stop>
            <stop stop-color="#03C700" offset="100%"></stop>
        </linearGradient>
    </defs>
    <g id="visual" stroke="none" stroke-width="1" fill="none" fill-rule="evenodd">
        <g id="HE-map--HE-meter-scroll" transform="translate(-680.000000, -126.000000)" fill-rule="nonzero">
            <g id="Group-2" transform="translate(478.000000, -44.500000)">
                <g id="Group">
                    <g id="lines" transform="translate(202.677863, 169.990099)">
                        <g id="Group-5" transform="translate(0.019127, 0.694484)">
                            <path d="M402.622799,402.280998 C446.560786,358.412601 471.700295,299.070263 471.700295,235.778127 C471.700295,105.731087 366.107482,0.305516101 235.850148,0.305516101 C105.592813,0.305516101 0,105.731087 0,235.778127 C0,299.826536 25.7472114,359.816736 70.6176397,403.804713 C74.4364436,407.548414 80.5731325,407.493708 84.324318,403.682524 C88.0755035,399.871339 88.0206879,393.746895 84.201884,390.003194 C43.005174,349.616685 19.3849436,294.582284 19.3849436,235.778127 C19.3849436,116.41395 116.300611,19.6517813 235.850148,19.6517813 C355.399684,19.6517813 452.315352,116.41395 452.315352,235.778127 C452.315352,293.888281 429.252898,348.327684 388.912749,388.603942 C385.128383,392.382314 385.129648,398.507002 388.915574,402.283817 C392.701499,406.060632 398.838433,406.059369 402.622799,402.280998 Z" id="Oval-Copy-2" fill="url(#linearGradient-1)" opacity="0.05"></path>
                            <path d="M389.469347,390.237503 C429.875017,349.828429 453.003212,295.142628 453.003212,236.8085 C453.003212,116.980451 355.933341,19.902403 236.265367,19.902403 C116.597392,19.902403 19.527522,116.980451 19.527522,236.8085 C19.527522,295.839501 43.2146045,351.121873 84.4771623,391.640518 C88.3302219,395.424111 94.4740177,395.319259 98.1997142,391.406323 C101.925411,387.493387 101.822163,381.254117 97.9691031,377.470524 C60.4425948,340.620572 38.9368812,290.429213 38.9368812,236.8085 C38.9368812,127.934763 127.250822,39.6133823 236.265367,39.6133823 C345.279912,39.6133823 433.593853,127.934763 433.593853,236.8085 C433.593853,289.796232 412.596175,339.444501 375.850497,376.193274 C372.031635,380.012458 371.98452,386.252425 375.745261,390.130632 C379.506003,394.008838 385.650486,394.056686 389.469347,390.237503 Z" id="Oval-Copy" fill="url(#linearGradient-2)" opacity="0.1"></path>
                            <path d="M239.139874,17.4580016 L239.139874,3.13888523 C239.139874,1.68146916 237.852913,0.5 236.265367,0.5 C234.67782,0.5 233.39086,1.68146916 233.39086,3.13888523 L233.39086,17.4580016 C233.39086,18.9154177 234.67782,20.0968869 236.265367,20.0968869 C237.852913,20.0968869 239.139874,18.9154177 239.139874,17.4580016 Z" id="Line" fill="#FFFFFF"></path>
                            <path d="M20.7721231,336.034712 C32.8553129,362.432426 49.7121192,386.558168 70.6857718,407.221787 C74.5614827,411.040207 80.7896192,410.984409 84.596704,407.097159 C88.4037888,403.209908 88.3481564,396.963229 84.4724455,393.144809 C65.3862033,374.3407 50.0172273,352.42326 38.9490061,328.44794 C38.9490061,328.44794 20.7721231,336.034712 20.7721231,336.034712 Z" id="Oval-Copy-2" fill="url(#linearGradient-3)"></path>
                            <g id="Land" transform="translate(19.527522, 235.902403)" fill="url(#linearGradient-4)">
                                <path d="M0,0.956715566 C0,59.9687572 23.6822744,115.233374 64.9364564,155.739005 C68.7887339,159.521383 74.9312826,159.416564 78.6562229,155.504885 C82.3811632,151.593206 82.277936,145.35594 78.4256585,141.573562 C40.9067676,104.735446 19.4054194,54.2548593 19.4054194,0.956715566 C19.4054194,0.956715566 0,0.956715566 0,0.956715566 Z" id="Path"></path>
                            </g>
                        </g>
                    </g>
                </g>
            </g>
        </g>
    </g>
</svg>