<svg width="47" height="34" viewBox="0 0 47 34" fill="none" xmlns="http://www.w3.org/2000/svg">
<path id="Vector" d="M43.6256 31.2113C44.2103 30.7153 44.5314 29.87 44.99 29.25C45.506 28.5625 45.8041 27.6382 46.0678 26.8266C46.5035 25.4402 46.8245 23.9749 46.8245 22.5208C46.8245 20.909 46.6296 19.4662 46.2627 17.9107C46.1251 17.3246 45.8499 16.8512 45.6092 16.2989C45.4945 16.0283 45.4257 15.724 45.311 15.476C45.1849 15.2055 44.9441 14.8448 44.7951 14.6081C44.497 14.1122 44.2333 13.6613 43.8549 13.233C43.4192 12.7483 42.8344 12.2749 42.479 11.7451C41.9974 11.035 41.2522 10.2009 40.977 9.37805C41.642 9.14134 42.0892 8.80319 41.4471 8.12689C40.9999 7.66475 39.9565 7.27025 39.3718 6.98846C39.0163 6.81938 38.6953 6.4136 38.3628 6.17689C37.8468 5.8162 37.2162 5.53441 36.7576 5.10609C36.4251 4.79048 36.2531 4.33961 35.9206 4.01273C35.4046 3.48296 34.7167 3.55059 33.9943 3.55059C33.7421 3.31388 33.5127 3.12227 33.2376 2.95319C33.4669 2.81793 33.7421 2.6714 33.9599 2.56996C34.3727 2.37834 34.8313 2.25434 35.2785 2.20926C35.611 2.17544 35.9664 2.20926 36.2989 2.20926C36.0811 2.13036 35.8747 2.08527 35.6568 2.074C35.3243 2.05146 34.9574 2.074 34.6364 2.14163C34.3039 2.20926 33.9943 2.35578 33.6733 2.4685C33.5013 2.53613 33.2032 2.71649 32.9739 2.79539C32.7675 2.68267 32.5382 2.58123 32.2974 2.47978C32.3662 2.33325 32.4694 2.20926 32.5611 2.10782C32.8248 1.81475 33.1344 1.44278 33.4783 1.20608C33.8567 0.946829 34.2466 0.890466 34.6823 0.777749C34.8886 0.72139 35.3702 0.631219 35.611 0.586132C35.3817 0.586132 35.1065 0.631222 34.8772 0.642494C34.3383 0.687581 33.765 0.74394 33.3064 1.04828C32.9165 1.30752 32.5496 1.60058 32.2286 1.93873C32.1139 2.06272 31.9763 2.17544 31.8846 2.3107C31.7126 2.24307 31.5521 2.18672 31.3801 2.13036C31.4718 1.9951 31.598 1.84857 31.6897 1.73585C32.0337 1.34134 32.435 1.04827 32.8707 0.777749C33.2146 0.563587 33.444 0.4396 33.8338 0.30434C33.9599 0.259254 34.4071 0.0789018 34.6823 0C34.258 0.0112717 33.7879 0.180357 33.421 0.326888C33.0083 0.484692 32.6184 0.665045 32.2286 0.879207C31.9075 1.04828 31.6094 1.29624 31.3342 1.53295C31.2081 1.64567 31.0132 1.81475 30.8756 1.99509C30.6119 1.92746 30.3597 1.88238 30.1189 1.85984C29.8781 1.83729 29.0182 1.85984 28.892 2.13036C28.7774 2.36707 29.2131 3.00955 29.2475 3.32516C29.2475 3.37025 29.2475 3.41533 29.2475 3.46041C29.1557 3.43787 29.0526 3.40406 28.9608 3.39279C28.6513 3.33643 28.3302 3.28006 28.0206 3.24625C27.4932 3.18989 26.9428 3.15607 26.4154 3.15607C25.9453 3.15607 25.5211 3.17862 24.9822 3.2688C24.8675 3.29134 24.4777 3.40406 24.4089 3.46041C25.2803 3.30261 26.0256 3.22371 26.8741 3.33643C27.4015 3.41533 28.1238 3.5055 28.6283 3.65203C28.8232 3.70839 29.0411 3.76475 29.2131 3.83238C29.2131 3.83238 29.2131 3.84366 29.2131 3.85493C29.0526 3.80984 28.8691 3.79856 28.72 3.77602C28.2499 3.69712 27.8486 3.68584 27.3671 3.71966C26.8282 3.75347 26.4269 3.82111 26.0141 3.95637C25.7848 4.03527 25.5326 4.14799 25.3147 4.27198C25.6931 4.05782 26.2205 4.01273 26.6906 3.95637C27.1607 3.90001 27.6308 3.85493 28.0206 3.88874C28.4105 3.92256 28.7544 4.01273 29.1443 4.05781C29.1557 4.05781 29.1672 4.05781 29.1787 4.05781C29.1557 4.14799 29.1443 4.23817 29.1213 4.32834C28.1468 4.24944 27.4244 4.61012 26.5874 4.90319C26.1746 5.04972 25.7619 5.27516 25.4408 5.54568C25.7045 5.43297 26.0256 5.2526 26.232 5.19625C26.4957 5.11734 26.8741 4.95954 27.1263 4.88064C27.562 4.74538 27.6881 4.7003 28.1468 4.61013C28.4563 4.55377 28.7544 4.57631 29.0411 4.65521C29.0182 4.79047 28.9952 4.92574 28.9952 5.04973C28.9723 5.69221 29.3965 6.04163 29.4195 6.6503C29.4424 7.38296 29.4653 8.10434 29.7061 8.79191C30.0157 9.67111 30.8183 10.3925 31.1164 11.2604C30.6463 11.7338 30.4284 12.6356 30.2679 13.2555C30.0615 14.0671 29.3507 14.6757 29.087 15.476C28.8806 16.0847 28.7315 16.6483 28.6054 17.2908C28.4449 18.1249 28.2614 18.3278 27.9633 19.9058C27.6881 21.4049 27.4703 22.0474 27.2639 23.3775C27.069 24.7075 27.069 26.1616 27.0116 27.7283C26.9887 28.3934 26.9543 28.7879 26.553 29.3965C26.1058 30.0841 25.5326 30.6703 24.7643 30.9859C23.0215 31.696 20.8545 31.1775 19.0544 30.8844C18.2632 30.7492 17.9193 30.6703 17.3574 30.3772C16.1994 29.7573 14.9496 29.1937 13.6769 28.8442C12.1978 28.4385 10.9137 28.4046 9.34286 28.4159C7.4166 28.4272 5.37569 29.0246 3.62143 29.7798C2.50925 30.2532 -0.597983 31.4818 0.10143 33.1275C0.376609 33.7925 1.21361 33.9954 1.86716 33.9954C2.16527 33.9954 3.10547 34.063 3.17426 33.6798C3.31185 32.9471 1.48879 33.0148 1.56905 32.2596C1.59198 31.9665 2.42899 31.572 2.66977 31.448C3.33478 31.1099 4.28644 30.7943 4.99732 30.5914C6.27003 30.2307 7.4166 30.1067 8.65491 29.9714C9.56071 29.87 10.306 30.0052 11.1889 30.2194C11.8997 30.3885 12.5762 30.4899 13.2183 30.8844C13.6655 31.1549 14.0553 31.4029 14.5254 31.6396C15.9357 32.361 17.2313 32.9922 18.8365 33.2176C21.5998 33.6122 24.4777 33.0824 27.2639 33.0824C28.0206 33.15 28.8118 32.9471 29.5685 32.9471C30.7495 32.9471 31.9075 32.9246 33.0541 33.0824C35.4046 33.398 37.629 33.6798 39.9336 33.1726C40.3922 33.0711 40.7706 32.8231 41.298 32.8119C41.8713 32.8006 42.2955 32.6203 42.8574 32.5414C43.7517 32.4286 44.7607 32.5414 45.655 32.5752C46.0907 32.5977 46.5837 32.8006 46.9851 32.7555C47.2373 31.7749 44.2218 31.1662 43.6026 31.1662L43.6256 31.2113Z" fill="white"/>
</svg>
