<svg width="53" height="29" viewBox="0 0 53 29" fill="none" xmlns="http://www.w3.org/2000/svg">
<path id="Vector" d="M52.8152 23.5149C52.7112 23.3915 52.6304 23.2344 52.5264 23.1223C52.4109 22.9989 52.226 22.8419 52.0643 22.7858C51.8679 22.7072 51.6369 22.6848 51.4405 22.6063C51.2904 22.5502 51.094 22.4941 50.9323 22.4829C50.3662 22.4493 49.8002 22.382 49.2688 22.1688C49.6269 22.1688 49.9273 22.0454 50.2854 22.0567C50.6088 22.0567 50.7936 22.1576 50.99 22.3707C50.99 22.4044 50.99 22.4156 51.0016 22.4493C51.1864 22.1688 50.8745 21.6528 50.6435 21.4734C50.3662 21.2603 50.0197 21.2939 49.6847 21.3051C49.3612 21.3051 49.084 21.4846 48.7721 21.5182C48.5411 21.5407 48.3909 21.4846 48.1829 21.4061C47.6862 21.2266 47.3397 20.8789 46.9123 20.576C46.4964 20.2844 45.965 20.0152 45.6531 19.6001C45.4221 19.2861 45.0524 19.0841 44.729 18.8598C44.5211 18.7252 44.1976 18.4672 44.1399 18.2204C44.5326 17.7605 44.9947 17.3679 45.3874 16.908C45.6069 16.6501 45.8495 16.4257 46.069 16.1789C46.1845 16.0555 46.2423 15.8873 46.3462 15.7751C46.3116 15.5396 46.635 15.2591 46.7159 15.046C46.8199 14.7992 46.9585 14.5525 47.0393 14.2945C47.1318 13.9916 47.0971 13.6551 47.1086 13.341C47.1202 13.0943 47.1664 12.8138 47.0624 12.5895H47.0393C46.9816 12.2978 46.8776 11.9838 46.7967 11.6921C46.5657 10.7611 45.9188 10.0769 45.1333 9.52724C44.5211 9.10099 43.8742 8.75326 43.1926 8.4504C42.8576 8.30458 42.5111 8.19241 42.1761 8.03537C41.8873 7.90077 41.61 7.66521 41.275 7.68765C40.9631 7.71008 40.6166 7.56426 40.2931 7.51939C39.7733 7.44087 39.2535 7.41844 38.7452 7.28383C37.8326 7.05949 36.92 6.8688 35.9844 6.8688C35.0833 6.8688 34.113 6.75663 33.2235 6.90245C32.1376 7.08193 30.9478 6.92489 29.9197 7.27262C29.2266 7.50817 28.3487 7.62034 27.6094 7.79982C25.8997 8.20363 24.2594 8.83178 22.5613 9.29168C21.1982 9.66184 19.812 10.0432 18.3911 10.0432L18.4258 10.0993C17.6287 9.7628 16.9934 9.19073 16.2772 8.75326C15.561 8.32702 14.4982 7.97929 14.4982 7.05949C14.4982 6.62203 14.7986 6.02753 14.6253 5.64615C14.452 5.25355 13.8513 4.97313 13.5279 4.6927C13.112 4.33376 12.7539 3.91873 12.3496 3.54856C11.9568 3.18962 11.5063 2.89798 11.0674 2.57268C10.6631 2.26982 10.0508 1.79871 9.51942 1.86601C8.89563 0.104936 6.57376 0.306842 5.00273 0.306842C4.506 -0.265226 2.98117 0.12737 2.29962 0.183455C1.83755 0.217106 1.75669 0.23954 1.38704 0.519966C1.15601 0.699438 0.901863 0.890128 0.659278 1.04717L0.693931 1.1369C0.532208 1.85479 0.0932476 2.52781 0.0123857 3.2457C-0.0684761 3.94116 0.266517 4.2328 0.439793 4.81609C0.566861 5.27599 0.509111 5.80319 0.520663 6.29673C0.520663 6.90245 0.797899 7.2614 0.913416 7.83347C1.02893 8.3831 0.763254 8.88787 0.832564 9.45994C0.948081 10.4134 1.20221 9.94227 1.87221 10.2003C2.55376 10.447 3.13134 11.4229 3.67427 11.894C4.62151 12.7353 5.4879 12.9148 6.60841 13.4532C7.17444 13.7224 7.37082 14.6534 7.74047 15.1358C8.24875 15.7863 8.61841 16.1902 8.84944 16.9529C8.78013 17.1436 8.31806 17.9288 8.12168 18.0522C7.53254 18.4448 7.89065 17.4913 7.186 17.682C7.12824 17.9961 7.18599 18.3438 7.35926 18.5794C6.74702 18.5794 6.181 18.7589 5.61496 18.5009C5.29152 18.3438 4.97961 18.198 4.66772 18.0297C4.47134 17.9288 4.15944 17.7381 3.92841 17.8391C3.77824 17.9064 3.50099 18.2429 3.45479 18.3999C3.2353 18.4223 2.81945 18.8935 2.77324 19.0954C2.72703 19.2524 2.69238 19.6899 2.79635 19.8133C2.79635 19.645 3.02737 19.3197 3.13134 19.1851C3.28151 19.0056 3.44324 18.9383 3.66272 18.9271C3.99772 18.9159 4.20566 19.0056 4.36738 19.2973C4.1941 19.3758 4.18255 19.802 4.171 19.9815C4.171 20.2732 4.25186 20.3965 4.36738 20.6321C4.36738 20.318 4.48289 19.9254 4.82944 19.8693C5.23375 19.802 5.4879 20.1049 5.8691 20.1273C6.03083 20.4414 6.23875 20.5984 6.56219 20.7331C6.83943 20.8452 7.18599 21.0471 7.48633 20.9237C7.33616 20.9013 7.12823 20.6545 7.00116 20.5648C6.88565 20.4863 6.77014 20.3629 6.70083 20.2395C7.09358 20.2395 7.46324 20.3068 7.856 20.2956C8.2141 20.2844 8.51443 20.1161 8.83788 19.9591C9.06891 19.8469 9.34615 19.7684 9.57719 19.6674C9.81977 19.5665 10.097 19.5216 10.3511 19.3982C10.6746 19.2412 10.9518 18.9832 11.2522 18.7925C11.9337 19.387 12.9272 19.6674 13.7127 20.161C14.3942 20.5872 15.2029 20.7891 15.8729 21.2266C16.2772 21.4958 16.6353 21.5407 17.1204 21.5407C17.4554 21.9445 17.4092 22.5839 17.2706 23.0662C17.0511 23.7953 17.0742 24.6141 17.2244 25.3545C17.2822 25.6685 17.3399 26.0051 17.1551 26.2855C17.0049 26.521 16.9125 26.3976 16.7161 26.3303C16.462 26.2518 16.2194 26.3416 15.9999 26.4874C15.5725 26.7678 15.2144 27.0034 15.0989 27.4969C15.0296 27.7998 15.0296 28.0802 15.0296 28.4055C15.0411 27.968 15.6765 27.8783 16.023 27.8559C16.3927 27.8334 16.6584 28.069 16.9934 28.0914C16.9934 28.327 16.9934 28.5065 17.0627 28.7308C17.132 28.5962 17.2591 28.3943 17.4092 28.3045C17.6634 28.1587 17.802 28.2597 18.0446 28.3045C18.4373 28.3831 18.911 28.3382 19.2691 28.2372C19.581 28.484 19.8582 28.484 20.251 28.4952C20.2972 28.4952 20.4704 28.4952 20.5051 28.5177C20.586 28.5738 20.5051 28.6298 20.5513 28.6971C20.6206 28.8093 20.7361 28.8878 20.7939 29C20.7939 28.7981 20.7477 28.4504 20.817 28.2597C20.8863 28.069 21.1982 28.0129 21.383 27.9232C21.6256 27.7998 21.822 27.654 22.0761 27.8222C22.261 27.9344 22.3418 28.0578 22.5613 28.1363C22.5844 27.7886 22.2378 27.4184 22.0299 27.138C21.9028 26.9585 21.7296 26.8015 21.5447 26.6893C21.3599 26.5771 21.1058 26.6556 20.944 26.5659C20.7477 26.465 20.8978 26.1397 20.944 25.9714C21.0711 25.4891 20.9787 25.0067 20.8747 24.5244C20.8285 24.2776 20.817 24.0309 20.7246 23.7953C20.6322 23.5597 20.4473 23.2793 20.482 23.0213C20.5628 23.0213 20.6437 23.0101 20.7246 23.0213C21.048 23.055 21.3715 23.0662 21.6834 23.1223C22.1454 23.2008 22.5497 23.2232 23.0349 23.1671C24.2478 23.0325 25.4723 23.0438 26.6852 22.8531C27.2166 22.7745 27.7711 22.8419 28.3025 22.7858C28.984 22.7072 29.6771 22.5278 30.3587 22.4493C30.8323 22.3932 31.329 22.3371 31.7911 22.2249C31.999 22.18 32.2647 22.0454 32.4727 22.0679C33.0964 22.1464 33.7895 21.8548 34.4018 21.7314C34.9216 21.6192 35.4183 21.4734 35.8919 21.2266C36.1692 21.0808 36.4695 20.8452 36.7814 20.7891C37.3821 20.6657 37.8904 20.3405 38.5026 20.3405C39.034 20.3405 39.5769 20.4863 40.1083 20.4302C40.6744 20.3741 40.9632 20.2058 41.3213 19.8357C41.4021 20.0937 41.7949 20.2283 42.0143 20.3741C42.2685 20.5424 42.5342 20.7106 42.7999 20.8677C43.2735 21.1256 43.724 21.4846 44.1168 21.8548C44.3131 22.0342 44.5326 22.3147 44.7868 22.3932C44.7521 22.7072 44.6135 23.0886 44.7059 23.4139C44.8907 23.3578 45.0178 22.5502 45.3643 22.8867C45.3412 23.1447 45.2142 23.8065 45.5261 23.9523C45.6185 23.7729 45.6185 23.5485 45.6993 23.3691C45.8149 23.0886 45.9881 23.2569 46.1499 23.3915C46.3231 23.5261 46.4733 23.5373 46.6812 23.4812C46.8545 23.4364 47.0624 23.3242 47.2242 23.4364C47.5592 23.6831 47.975 23.8402 48.4255 23.7841C48.6681 23.7616 48.853 23.5037 49.0724 23.4588C49.2457 23.4251 49.4421 23.627 49.5345 23.7504C49.6385 23.885 49.6731 24.0869 49.8233 24.1767C49.8233 23.9299 49.8464 23.5373 49.6385 23.3466C50.0081 23.3466 50.2969 23.4588 50.6666 23.47C51.1286 23.4924 51.6022 23.4476 52.0643 23.47C52.0643 23.4812 52.0643 23.5037 52.0643 23.5149C52.2838 23.4924 52.4455 23.6495 52.5957 23.7729C52.7228 23.8626 52.9191 23.9523 53 24.0757C53 23.8402 52.9538 23.7056 52.8036 23.5149H52.8152ZM41.6331 13.4083C41.2173 13.6102 40.5588 13.857 40.0852 13.857C39.4383 13.857 38.7914 13.7448 38.1561 13.7112C37.7287 13.6888 37.3128 13.7336 36.8854 13.6775C36.5157 13.6215 36.0883 13.3747 35.7533 13.5429C35.4299 13.7 34.7368 13.4756 34.3787 13.4083C33.6856 13.2962 32.9694 13.1055 32.2647 13.0718C31.0864 13.0157 29.9197 12.7802 28.7299 12.7802C28.5451 12.6568 28.2678 12.6568 28.0483 12.6231C27.7249 12.5783 27.4592 12.4885 27.1473 12.3764C26.2809 12.0511 25.4146 11.9165 24.5135 11.7482C23.3237 11.5127 22.1339 10.8621 20.921 10.8508C21.487 10.8172 22.0992 10.6153 22.6653 10.5256C23.1042 10.447 23.5201 10.29 23.9475 10.189C24.4442 10.0769 24.964 9.99835 25.4608 9.87497C26.5582 9.61698 27.6556 9.51602 28.7761 9.39263C29.6425 9.3029 30.4973 9.15708 31.3637 9.04491C32.1954 8.93274 33.0271 8.92152 33.8704 8.95517C34.3787 8.9776 34.8639 9.13464 35.3606 9.15708C35.8573 9.17951 36.3656 9.12343 36.8623 9.19073C37.6594 9.29168 38.468 9.40385 39.1957 9.74036C40.0043 10.1105 40.6975 10.6265 41.3906 11.1537C41.7949 11.4566 42.3494 11.9389 42.3494 12.4773C42.3494 12.8026 41.8988 13.2625 41.61 13.3971L41.6331 13.4083Z" fill="white"/>
</svg>
