<?xml version="1.0" encoding="UTF-8"?>
<svg width="110px" height="110px" viewBox="0 0 110 110" version="1.1" xmlns="http://www.w3.org/2000/svg" xmlns:xlink="http://www.w3.org/1999/xlink">
    <!-- Generator: sketchtool 57.1 (101010) - https://sketch.com -->
    <title>F2A01F40-F965-4D55-9FCB-9B976EB822FF</title>
    <desc>Created with sketchtool.</desc>
    <defs>
        <circle id="path-1" cx="55" cy="55" r="55"></circle>
    </defs>
    <g id="UI-KIT" stroke="none" stroke-width="1" fill="none" fill-rule="evenodd">
        <g transform="translate(-1193.000000, -7465.000000)" id="taxa/bird-+-taxa/mammals-+-taxa/amphibians-+-taxa/turtles-+-taxa/all-species-+-taxa/conifers-+-Group-6-Copy-Mask">
            <g transform="translate(1193.000000, 7465.000000)">
                <mask id="mask-2" fill="white">
                    <use xlink:href="#path-1"></use>
                </mask>
                <use id="Mask" fill="#D8D8D8" xlink:href="#path-1"></use>
                <g id="taxa/bird" opacity="0.5" mask="url(#mask-2)">
                    <g transform="translate(6.500000, 14.500000)" id="Group">
                        <g>
                            <g id="Regular" fill="#0A212E" fill-rule="nonzero">
                                <path d="M3.3946697,23.9962508 C5.3330325,18.0530122 9.89627357,13.9971016 18.2335969,12.3691483 C19.0356733,12.2125342 19.4084152,11.2799945 18.9352736,10.6136676 C18.3638752,9.80896568 18.051686,8.84903688 18.0404268,7.86216581 C18.0405,4.8102151 21.02709,2.25000005 24.7904999,2.25000005 C28.9182651,2.25000005 31.5404999,3.98033006 31.5404999,6.75000014 C31.5404999,7.44967839 31.4277204,7.79701015 31.3120254,7.91861923 L31.3242737,7.91113422 C31.3457973,7.89911637 31.3816241,7.88792204 31.4330194,7.88126925 L31.4197626,7.88140324 C30.855218,7.94163952 30.4154999,8.41946902 30.4154999,9 C30.4154999,9.62132054 30.9191796,10.1250002 31.5404999,10.1250002 C31.9567113,10.1250002 32.4532546,9.95948578 32.8984951,9.51424532 C33.4843605,8.92837987 33.7904999,8.00996157 33.7904999,6.75000014 C33.7904999,2.49320626 30.0121615,1.99840144e-15 24.7904999,1.99840144e-15 C19.8547733,1.99840144e-15 15.7905,3.48404494 15.7905,7.87500016 C15.8007671,8.77889136 15.9804096,9.6626812 16.3148817,10.4846507 C8.09156909,12.4672418 3.32466287,16.9545026 1.25556473,23.2985905 C0.199864438,26.5354865 -0.0275723392,29.3145892 0.0300691864,33.7714121 C0.0388270316,34.4485657 0.0405000002,34.6067337 0.0405000002,34.8750007 C0.0405000002,35.5257729 0.591003114,36.0407978 1.24033388,35.997509 C1.41527234,35.9858465 1.72320283,35.9558843 2.14544846,35.9000158 C2.83810368,35.8083685 3.60711851,35.6755515 4.43389864,35.4937911 C6.79610696,34.9744802 9.15963574,34.165253 11.3752726,32.9994059 C16.7774728,30.1568196 20.4203033,25.6798115 21.4024181,19.2960647 C21.4968943,18.6819693 21.0756597,18.1075584 20.4615643,18.0130822 C19.8474688,17.918606 19.273058,18.3398406 19.1785818,18.9539361 C18.3139173,24.5742552 15.1385877,28.4767088 10.3275386,31.0082371 C8.30559174,32.0721662 6.12885228,32.8174404 3.95079235,33.2962679 C3.35633547,33.426954 2.79577479,33.529938 2.2782345,33.6085821 C2.229806,29.4627663 2.44687149,26.9023069 3.3946697,23.9962508 Z" id="Shape"></path>
                                <path d="M28.5600524,14.355611 C30.5947118,16.0926314 33.5902896,16.0926314 35.624949,14.355611 C35.8889719,14.1302105 36.0341467,13.7955425 36.0183328,13.4487524 C35.9041541,10.9448746 34.2775946,8.7625497 31.9107379,7.93766793 C31.7917079,7.89618434 31.6665524,7.875 31.5405007,7.875 C31.0522953,7.875 30.4066165,7.99798643 29.7425485,8.37745387 C28.1740019,9.27376623 27.5325202,11.1065713 28.1990905,13.7728526 C28.2558587,13.9999255 28.3820386,14.2036379 28.5600524,14.355611 Z M30.8588611,10.3310008 C31.0422427,10.2262114 31.2343788,10.167956 31.3791442,10.1419068 C32.5839721,10.6409161 33.4507461,11.7094594 33.7008419,12.9737114 C32.6456871,13.5903991 31.3167198,13.5508852 30.2966536,12.8551698 C29.9894703,11.3703087 30.2704465,10.6672378 30.8588611,10.3310008 Z" id="Shape"></path>
                                <path d="M26.4749994,6.75 C26.4749994,6.12867966 25.9713198,5.625 25.3499994,5.625 C24.4180189,5.625 23.6624994,6.38051948 23.6624994,7.3125 C23.6624994,7.93382034 24.1661791,8.4375 24.7874994,8.4375 C25.2437433,8.4375 25.6365534,8.16590773 25.8130762,7.77557679 C26.2034072,7.59905402 26.4749994,7.2062439 26.4749994,6.75 Z" id="Shape"></path>
                                <path d="M25.9154837,8.43750005 C26.536804,8.43750005 27.0404997,7.93383638 27.0404997,7.31251602 C27.0404997,6.86339946 26.8614815,6.43280765 26.5430646,6.11608002 C26.2246478,5.79935238 25.7931099,5.6226207 25.3439997,5.62501599 C24.7226882,5.6283297 24.2217021,6.13468849 24.2250158,6.75600001 C24.2274455,7.21157256 24.5003354,7.6024527 24.8906895,7.77726797 C25.0675786,8.16668672 25.4599047,8.43750005 25.9154837,8.43750005 Z" id="Shape"></path>
                                <path d="M24.2249994,7.875 C24.2249994,8.49632034 24.7286791,9 25.3499994,9 C26.2819799,9 27.0374994,8.24448052 27.0374994,7.3125 C27.0374994,6.69117966 26.5338198,6.1875 25.9124994,6.1875 C25.4562555,6.1875 25.0634454,6.45909227 24.8869226,6.84942321 C24.4965917,7.02594598 24.2249994,7.4187561 24.2249994,7.875 Z" id="Shape"></path>
                                <path d="M24.7904992,6.1875 C24.1691789,6.1875 23.6654992,6.69117966 23.6654992,7.3125 C23.6654992,8.24448052 24.4210187,9 25.3529992,9 C25.9743196,9 26.4779992,8.49632034 26.4779992,7.875 C26.4779992,7.4187561 26.2064069,7.02594598 25.816076,6.84942321 C25.6395532,6.45909227 25.2467431,6.1875 24.7904992,6.1875 Z" id="Shape"></path>
                                <path d="M28.1804999,13.6830968 C28.9393727,18.2836504 27.3797886,22.9624026 24.0123584,26.1875218 C21.9262117,28.416696 19.4192533,30.1151773 16.6327467,31.2018846 C16.0538886,31.4276329 15.7676367,32.0798953 15.993385,32.6587534 C16.2191333,33.2376114 16.8713957,33.5238634 17.4502537,33.2981151 C20.5505797,32.0890217 23.3398744,30.1992556 25.6123427,27.7682444 C29.4722871,24.0738045 31.2802126,18.650028 30.4005003,13.3169022 C30.2993784,12.703866 29.720439,12.2888775 29.1074028,12.3899993 C28.4943666,12.4911211 28.0793781,13.0700606 28.1804999,13.6830968 Z" id="Shape"></path>
                                <path d="M23.5203007,27.3454146 L24.8058007,35.0599144 C24.9079258,35.6727842 25.4875437,36.0868245 26.1004135,35.9846994 C26.7132834,35.8825743 27.1273238,35.3029564 27.0251987,34.6900866 L25.7396987,26.9755869 C25.6375735,26.3627171 25.0579556,25.9486767 24.4450858,26.0508018 C23.832216,26.1529269 23.4181756,26.7325448 23.5203007,27.3454146 Z" id="Shape"></path>
                                <path d="M20.2904992,29.8980002 L20.2904992,34.875 C20.2904992,35.4963204 20.7941789,36 21.4154992,36 C22.0368196,36 22.5404992,35.4963204 22.5404992,34.875 L22.5404992,29.8980002 C22.5404992,29.2766799 22.0368196,28.7730002 21.4154992,28.7730002 C20.7941789,28.7730002 20.2904992,29.2766799 20.2904992,29.8980002 Z" id="Shape"></path>
                            </g>
                        </g>
                    </g>
                </g>
                <g id="taxa/mammals" opacity="0.5" mask="url(#mask-2)">
                    <g transform="translate(77.500000, 28.500000)" id="Group">
                        <g>
                            <g id="Regular" fill="#0A212E" fill-rule="nonzero">
                                <path d="M10.5447895,0.0156186685 C8.29397404,-0.0280508463 6.16997561,0.827642481 4.61200332,2.38398471 C3.05403104,3.94032694 2.19611478,6.06342843 2.23547262,8.26522987 L2.23529411,20.1176468 C2.20797708,21.2926129 2.6727879,22.4522989 3.52200906,23.3015201 C4.37123027,24.1507413 5.53091644,24.6155521 6.73157908,24.5879394 C7.34867534,24.5737475 7.8374259,24.0619874 7.82323401,23.4448911 C7.80904212,22.8277949 7.29728196,22.3390443 6.6801857,22.3532362 C6.09002962,22.3668085 5.52001449,22.1383422 5.1026007,21.7209285 C4.68518691,21.3035147 4.45672057,20.7334995 4.47029281,20.1433433 L4.47058825,8.2452548 C4.44190224,6.63048106 5.06330418,5.092686 6.19176748,3.96540338 C7.32023077,2.83812076 8.8586755,2.21832892 10.4534435,2.24850582 C11.7314188,2.33001685 12.9847724,2.88559543 13.9378287,3.81278036 C14.3767196,4.23975728 15.0774645,4.23408636 15.5093876,3.80006221 C16.4518569,2.85300834 17.7154616,2.29419077 19.0502113,2.23416549 L21.3560002,2.23529395 C21.9622027,2.23507851 22.4578899,2.71754739 22.4740447,3.32313714 C22.5433785,7.58983598 21.68433,10.7499662 19.8463358,11.209901 C18.4613411,11.5560038 17.5535668,11.5609889 17.0548821,11.3610534 C16.8546183,11.2807625 16.7953882,11.209239 16.7715407,11.1250851 C16.6032492,10.5312104 15.9853915,10.186207 15.3915167,10.3544985 C14.797642,10.52279 14.4526386,11.1406477 14.6209301,11.7345224 C15.1079484,13.453135 17.0207577,14.2200292 20.388609,13.3784211 C23.7258413,12.543321 24.7955329,8.60831026 24.7087936,3.27515809 C24.6600796,1.44676028 23.1730183,-0.000646161279 21.3556029,-5.05898928e-07 L19.0000002,-5.05898928e-07 C17.4132009,0.0704382438 15.9270862,0.611560802 14.7071921,1.53870463 C13.5020095,0.643779877 12.0575606,0.110826245 10.5447895,0.0156186685 Z" id="Shape"></path>
                                <path d="M23.4705892,6.70588243 L32.4117658,6.70588243 C34.5196517,6.70588243 35.764707,8.69797097 35.764707,11.1764708 L35.764707,16.7647062 C35.764707,17.3819656 36.2650946,17.8823533 36.8823541,17.8823533 C37.4996135,17.8823533 38.0000011,17.3819656 38.0000011,16.7647062 L38.0000011,11.1764708 C38.0000011,7.61967631 36.0318211,4.47058825 32.4117658,4.47058825 L23.4705892,4.47058825 C22.8533297,4.47058825 22.3529421,4.9709759 22.3529421,5.58823534 C22.3529421,6.20549478 22.8533297,6.70588243 23.4705892,6.70588243 Z" id="Shape"></path>
                                <path d="M13.4117645,34.6470579 L13.4117645,21.2352937 C13.3140604,18.054404 11.1507262,15.3502364 8.10240832,14.5647642 C7.50467357,14.4107435 6.89525537,14.7704448 6.74123468,15.3681795 C6.58721398,15.9659142 6.94691528,16.5753324 7.54465002,16.7293531 C9.63034122,17.2667814 11.1105172,19.1170014 11.177003,21.2697941 L11.1764704,34.6470579 C11.1764704,35.2643173 11.676858,35.7647049 12.2941174,35.7647049 C12.9113768,35.7647049 13.4117645,35.2643173 13.4117645,34.6470579 Z" id="Shape"></path>
                                <path d="M20.2794996,17.1612325 C18.1536857,18.0079411 16.7603854,20.0668262 16.7647082,22.3550529 L16.7647062,30.1764711 C16.7457318,31.0538992 17.0952938,31.9239495 17.7327314,32.5613872 C18.370169,33.1988248 19.2402193,33.5483868 20.1414872,33.5291581 C20.7586061,33.5159917 21.2482065,33.0050445 21.2350402,32.3879255 C21.2218738,31.7708065 20.7109266,31.2812061 20.0938076,31.2943725 C19.801779,31.3006029 19.5198654,31.1873379 19.313323,30.9807955 C19.1067806,30.7742531 18.9935156,30.4923395 18.9997461,30.2003109 L19.0000003,22.3529415 C18.9974074,20.9793608 19.8324945,19.7453496 21.1066201,19.2378672 C22.3807457,18.7303848 23.8355674,19.0523288 24.7766076,20.050015 C25.1791685,20.4768082 25.8432117,20.5196842 26.2973156,20.1482043 C27.1094756,19.4838166 28.1044465,19.0820671 29.1502244,18.9962566 C30.1861317,19.0000002 30.1764709,18.985509 30.1764709,20.1176473 C30.1764709,21.1494553 30.1257635,21.8593589 29.9304293,22.6406958 C29.6720326,23.6742825 29.2216268,24.3749138 28.5589969,24.7062288 C27.8437841,25.0187093 26.9580531,24.9305213 26.2736263,24.4499445 C25.7684607,24.0952378 25.0713964,24.2172087 24.7166896,24.7223744 C24.3619829,25.22754 24.4839538,25.9246043 24.9891194,26.2793111 C26.3131974,27.209025 28.0267144,27.3796317 29.5081153,26.7292459 C30.8960209,26.0368516 31.696952,24.7909588 32.0989831,23.1828342 C32.3507077,22.1759358 32.411765,21.3211334 32.411765,20.1176473 C32.411765,17.8968443 31.6570062,16.764706 29.0588239,16.764706 C27.8097811,16.8642427 26.6621707,17.2410232 25.6634137,17.859793 C24.1299397,16.7242766 22.0947993,16.4382013 20.2794996,17.1612325 Z" id="Shape"></path>
                                <path d="M25.7058821,31.2941182 L36.8823529,31.2941182 C37.4996124,31.2941182 38,30.7937306 38,30.1764711 C38,29.5592117 37.4996124,29.0588241 36.8823529,29.0588241 L24.588235,29.0588241 C23.9709756,29.0588241 23.470588,29.5592117 23.470588,30.1764711 L23.470588,34.6470595 C23.470588,35.2643189 23.9709756,35.7647066 24.588235,35.7647066 C25.2054945,35.7647066 25.7058821,35.2643189 25.7058821,34.6470595 L25.7058821,31.2941182 Z" id="Shape"></path>
                                <path d="M31.294117,22.4926481 L36.8823524,22.4926481 C37.4996118,22.4926481 37.9999994,21.9609863 37.9999994,21.3051481 C37.9999994,20.64931 37.4996118,20.1176481 36.8823524,20.1176481 L31.294117,20.1176481 C30.6768576,20.1176481 30.1764699,20.64931 30.1764699,21.3051481 C30.1764699,21.9609863 30.6768576,22.4926481 31.294117,22.4926481 Z" id="Shape"></path>
                                <path d="M22.3767814,29.0585684 C22.6688101,29.052338 22.9507236,29.165603 23.1572661,29.3721454 C23.3638085,29.5786878 23.4770735,29.8606014 23.470843,30.15263 C23.4576767,30.769749 23.947277,31.2806962 24.564396,31.2938626 C25.181515,31.3070289 25.6924622,30.8174285 25.7056286,30.2003095 C25.7248573,29.2990417 25.3752953,28.4289914 24.7378577,27.7915538 C24.1004201,27.1541162 23.2303697,26.8045542 22.3291019,26.8237829 C21.7119829,26.8369492 21.2223826,27.3478964 21.2355489,27.9650154 C21.2487152,28.5821344 21.7596624,29.0717348 22.3767814,29.0585684 Z" id="Shape"></path>
                                <path d="M9.50000014,8.94117679 C10.4258893,8.94117679 11.1764708,8.19059532 11.1764708,7.26470616 C11.1764708,6.33881699 10.4258893,5.58823553 9.50000014,5.58823553 C8.57411098,5.58823553 7.82352951,6.33881699 7.82352951,7.26470616 C7.82352951,8.19059532 8.57411098,8.94117679 9.50000014,8.94117679 Z" id="Oval"></path>
                            </g>
                        </g>
                    </g>
                </g>
                <g id="taxa/amphibians" opacity="0.5" mask="url(#mask-2)">
                    <g transform="translate(40.000000, 34.000000)" id="Regular">
                        <g>
                            <path d="M23.9852311,20.9329157 C24.8778996,19.4661968 25.7528715,18.9199243 26.6303182,19.2807018 C27.1097112,19.4781276 27.2660846,20.3923869 26.9304375,21.9800033 C26.8005238,22.594497 26.6059804,23.2576212 26.3640348,23.9417018 C26.1966005,24.4151081 26.0167897,24.8697828 25.8372489,25.2880121 C25.7305703,25.5365131 25.6489395,25.7150528 25.6049935,25.8064802 C25.3507798,26.3353589 25.5734399,26.9701806 26.1023186,27.2243943 C26.6311973,27.4786079 27.266019,27.2559478 27.5202326,26.7270692 C27.5766762,26.6096412 27.6707271,26.403937 27.7899251,26.1262726 C27.9868451,25.6675595 28.1834952,25.1703044 28.3674244,24.6502605 C28.638353,23.8842328 28.8583932,23.1341997 29.0094823,22.4195461 C29.5362591,19.9278828 29.2145209,18.046794 27.4389597,17.315575 C25.341383,16.4531195 23.5393492,17.578186 22.1699949,19.828134 C21.8649178,20.3293976 22.0239585,20.9830659 22.5252221,21.2881429 C23.0264858,21.5932199 23.680154,21.4341793 23.9852311,20.9329157 Z" id="Shape" fill="#0A212E" fill-rule="nonzero"></path>
                            <path d="M11.5360168,21.5012304 C13.3084207,18.5494602 12.7744109,14.3875582 10.9014981,8.80151439 C10.5588272,7.79574262 10.8901298,6.68874589 11.7249058,6.03977287 L16.5658928,2.27408869 C16.8213184,2.07534611 17.1789082,2.07534611 17.4342246,2.27400381 L22.2750838,6.03958854 C23.1100967,6.68874589 23.4413994,7.79574262 23.1003875,8.7966061 C21.225299,14.4030672 20.69256,18.549375 22.4641001,21.5010477 C22.7660748,22.0041864 23.4187481,22.167262 23.9218868,21.8652874 C24.4250255,21.5633127 24.5881011,20.9106395 24.2861265,20.4075008 C22.9631051,18.203133 23.4422251,14.4741422 25.1137518,9.47627751 C25.745147,7.6231968 25.1298707,5.56734574 23.5795725,4.36211012 L18.7390595,0.596794583 C17.7163677,-0.198945674 16.2838588,-0.198945674 15.261058,0.596879463 L10.420417,4.36229444 C8.87035587,5.56734574 8.25507955,7.6231968 8.88838739,9.48194326 C10.557744,14.4609116 11.0378728,18.202883 9.71420973,20.4073181 C9.41213418,20.9103962 9.57507897,21.5631022 10.0781571,21.8651777 C10.5812352,22.1672532 11.2339412,22.0043085 11.5360168,21.5012304 Z" id="Shape" fill="#0A212E" fill-rule="nonzero"></path>
                            <path d="M8.39523277,25.8064812 C8.35128676,25.7150537 8.26965588,25.536514 8.16297736,25.288013 C7.98343654,24.8697838 7.80362576,24.4151091 7.6361914,23.9417027 C7.39424582,23.2576221 7.19970241,22.5944979 7.06978877,21.9800042 C6.73414165,20.3923877 6.89051499,19.4781284 7.37045978,19.2804755 C8.24676234,18.9198633 9.12155135,19.4657878 10.0151396,20.9331538 C10.3203477,21.4343376 10.9740576,21.5932074 11.4752414,21.2879992 C11.9764253,20.9827911 12.135295,20.3290813 11.8300869,19.8278974 C10.4595966,17.5774081 8.65765309,16.4528797 6.56152572,17.315469 C4.7857053,18.0467947 4.46396709,19.9278836 4.99074396,22.419547 C5.14183298,23.1342006 5.36187318,23.8842336 5.63280185,24.6502614 C5.81673098,25.1703053 6.01338108,25.6675605 6.21030115,26.1262736 C6.32949915,26.403938 6.42355002,26.6096422 6.47999358,26.7270702 C6.73420721,27.2559489 7.36902897,27.4786089 7.89790767,27.2243953 C8.42678636,26.9701816 8.6494464,26.3353599 8.39523277,25.8064812 Z" id="Shape" fill="#0A212E" fill-rule="nonzero"></path>
                            <path d="M16.8722208,29.9778003 L17.1280047,29.9778003 C18.5439598,29.8061151 19.919751,29.4087423 21.2040297,28.8038034 C21.3009207,29.1357884 21.4303966,29.4813655 21.5996236,29.8298559 C22.4421228,31.5648213 24.0110296,32.6417755 26.3175293,32.6417755 C29.0715299,32.6417755 30.9211755,30.6551309 32.0648612,27.5158969 C32.4411822,26.4829561 32.7162925,25.3867941 32.9083084,24.2921461 C33.0236339,23.6346959 33.0863285,23.1184357 33.1112308,22.8108482 C33.1585834,22.2259594 32.7228242,21.7134264 32.1379353,21.6660738 C31.5530465,21.6187212 31.0405136,22.0544804 30.993161,22.6393693 C30.9732612,22.8851672 30.9183503,23.3373315 30.8152657,23.9249985 C30.6432646,24.9055459 30.3975508,25.8845792 30.0682389,26.7884874 C29.1958309,29.1831077 27.9541328,30.5167755 26.3175293,30.5167755 C24.8618936,30.5167755 24.0122848,29.9335735 23.5111642,28.9016118 C23.3252578,28.518773 23.2024842,28.097392 23.1339755,27.6741503 C23.0933742,27.4233184 23.080446,27.2369569 23.080446,27.1521921 C23.080446,26.3180173 22.1631876,25.8091885 21.4554842,26.2507805 C20.1009296,27.0959939 18.5818289,27.6417234 17.0001127,27.8519968 C15.4183966,27.6417234 13.8992958,27.0959939 12.5447413,26.2507805 C11.8370378,25.8091885 10.9197795,26.3180173 10.9197795,27.1521921 C10.9197795,27.2369569 10.9068513,27.4233184 10.86625,27.6741503 C10.7977413,28.097392 10.6749677,28.518773 10.4890612,28.9016118 C9.98794062,29.9335735 9.13833188,30.5167755 7.68269617,30.5167755 C6.04609264,30.5167755 4.80439454,29.1831077 3.93198652,26.7884874 C3.6026747,25.8845792 3.35696082,24.9055459 3.18495975,23.9249985 C3.08187513,23.3373315 3.0269643,22.8851672 3.00706449,22.6393693 C2.95971189,22.0544804 2.44717894,21.6187212 1.8622901,21.6660738 C1.27740127,21.7134264 0.841642049,22.2259594 0.88899465,22.8108482 C0.913896932,23.1184357 0.976591568,23.6346959 1.0919171,24.2921461 C1.28393295,25.3867941 1.55904329,26.4829561 1.93536427,27.5158969 C3.07904997,30.6551309 4.92869559,32.6417755 7.68269617,32.6417755 C9.98919583,32.6417755 11.5581027,31.5648213 12.4006019,29.8298559 C12.5698288,29.4813655 12.6993047,29.1357884 12.7961958,28.8038034 C14.0804745,29.4087423 15.4562656,29.8061151 16.8722208,29.9778003 Z" id="Shape" fill="#0A212E" fill-rule="nonzero"></path>
                            <path d="M9.05126516,9.43479157 C8.62021802,11.0957207 8.0028654,11.9230251 7.16277961,11.9230251 C6.70258494,11.9230251 6.11872911,11.4611869 5.54409181,10.616877 C5.31201505,10.2758885 5.10262043,9.90454248 4.92190982,9.53276095 C4.81438888,9.31155479 4.74226489,9.14401383 4.70914765,9.05883574 C4.49650549,8.51191661 3.8807594,8.24093159 3.33384027,8.45357374 C2.78692113,8.6662159 2.51593611,9.28196198 2.72857826,9.82888111 C2.92732218,10.3400537 3.28240301,11.0705725 3.78736326,11.8125065 C4.71926241,13.1817382 5.81442221,14.048025 7.16277961,14.048025 C9.27891197,14.048025 10.4602849,12.464886 11.1081274,9.96859194 C11.2555323,9.40060513 10.9145833,8.82066557 10.3465965,8.67326066 C9.77860964,8.52585576 9.19867007,8.86680476 9.05126516,9.43479157 Z" id="Shape" fill="#0A212E" fill-rule="nonzero"></path>
                            <path d="M1.65198195,6.78897142 C1.16373269,6.46347193 0.504058988,6.59540667 0.178559486,7.0836559 C-0.146940016,7.57190514 -0.0150052752,8.23157882 0.473243978,8.5570783 L3.1294941,10.3279116 C3.71241546,10.7165259 4.50529493,10.4444828 4.72683913,9.77985021 L5.61225584,7.1236002 C5.7978191,6.56691042 5.4969616,5.96519544 4.9402718,5.77963218 C4.383582,5.59406892 3.78186701,5.89492641 3.59630374,6.45161619 L3.15078471,7.78817322 L1.65198195,6.78897142 Z" id="Shape" fill="#0A212E" fill-rule="nonzero"></path>
                            <path d="M22.8920988,9.96859194 C23.5399413,12.464886 24.7213142,14.048025 26.8374466,14.048025 C28.185804,14.048025 29.2809638,13.1817382 30.212863,11.8125065 C30.7178232,11.0705725 31.072904,10.3400537 31.271648,9.82888111 C31.4842901,9.28196198 31.2133051,8.6662159 30.6663859,8.45357374 C30.1194668,8.24093159 29.5037207,8.51191661 29.2910786,9.05883574 C29.2579613,9.14401383 29.1858373,9.31155479 29.0783164,9.53276095 C28.8976058,9.90454248 28.6882112,10.2758885 28.4561344,10.616877 C27.8814971,11.4611869 27.2976413,11.9230251 26.8374466,11.9230251 C25.9973608,11.9230251 25.3800082,11.0957207 24.9489611,9.43479157 C24.8015561,8.86680476 24.2216166,8.52585576 23.6536298,8.67326066 C23.0856429,8.82066557 22.7446939,9.40060513 22.8920988,9.96859194 Z" id="Shape" fill="#0A212E" fill-rule="nonzero"></path>
                            <path d="M30.4039227,6.45161619 C30.2183595,5.89492641 29.6166445,5.59406892 29.0599547,5.77963218 C28.5032649,5.96519544 28.2024074,6.56691042 28.3879706,7.1236002 L29.2733873,9.77985021 C29.4949315,10.4444828 30.287811,10.7165259 30.8707324,10.3279116 L33.5269825,8.5570783 C34.0152317,8.23157882 34.1471665,7.57190514 33.821667,7.0836559 C33.4961675,6.59540667 32.8364938,6.46347193 32.3482445,6.78897142 L30.8494418,7.78817322 L30.4039227,6.45161619 Z" id="Shape" fill="#0A212E" fill-rule="nonzero"></path>
                            <path d="M15.9376125,12.4542745 L15.9376125,19.8917745 C15.9376125,20.4785771 16.4133099,20.9542745 17.0001125,20.9542745 C17.586915,20.9542745 18.0626125,20.4785771 18.0626125,19.8917745 L18.0626125,12.4542745 C18.0626125,11.867472 17.586915,11.3917745 17.0001125,11.3917745 C16.4133099,11.3917745 15.9376125,11.867472 15.9376125,12.4542745 Z" id="Shape" fill="#0A212E" fill-rule="nonzero"></path>
                        </g>
                    </g>
                </g>
                <g id="taxa/turtles" opacity="0.5" mask="url(#mask-2)">
                    <g transform="translate(-5.000000, 55.000000)" id="Group">
                        <g>
                            <g id="Regular" fill="#0A212E" fill-rule="nonzero">
                                <path d="M18,36 C23.654,36 28.125,30.41125 28.125,23.625 C28.125,16.83875 23.654,11.25 18,11.25 C12.346,11.25 7.875,16.83875 7.875,23.625 C7.875,30.41125 12.346,36 18,36 Z M18,33.75 C13.7128745,33.75 10.125,29.2651568 10.125,23.625 C10.125,17.9848432 13.7128745,13.5 18,13.5 C22.2871255,13.5 25.875,17.9848432 25.875,23.625 C25.875,29.2651568 22.2871255,33.75 18,33.75 Z" id="Oval"></path>
                                <path d="M16.8747877,12.7193544 C16.907902,11.0150256 16.717513,9.83786223 16.2706245,8.27547204 C16.2394453,8.16646471 16.1990308,8.02714796 16.1309165,7.79225257 C16.0786183,7.61093697 16.0404201,7.47491964 16.0055385,7.34440195 C15.8289203,6.68354243 15.75,6.18751813 15.75,5.62500012 C15.75,4.02278284 17.2807242,2.25000005 18,2.25000005 C18.7192758,2.25000005 20.25,4.02278284 20.25,5.62500012 C20.25,6.18374651 20.1713549,6.6781303 19.9955654,7.33634486 C19.9606869,7.46694183 19.9224523,7.6031441 19.8702547,7.78413713 C19.8021622,8.01897087 19.7614608,8.15926068 19.7305832,8.26717412 C19.2815579,9.83646234 19.0915107,11.0149638 19.1282607,12.7217183 C19.1416359,13.3428946 19.6560416,13.8356148 20.277218,13.8222396 C20.8983944,13.8088644 21.3911145,13.2944587 21.3777393,12.6732823 C21.3464445,11.2198806 21.5019757,10.2554162 21.8937726,8.8861343 C21.9232844,8.78299412 21.9625079,8.6477982 22.0321456,8.40761726 C22.0881054,8.2135791 22.130005,8.0643212 22.1693755,7.91690484 C22.3918146,7.08401875 22.5,6.40393621 22.5,5.62500012 C22.5,2.84751732 20.0412872,0 18,0 C15.9587128,0 13.5,2.84751732 13.5,5.62500012 C13.5,6.40777827 13.6084938,7.08967596 13.8318288,7.92533749 C13.87118,8.07257942 13.9130143,8.22154411 13.9690493,8.41581531 C14.0386657,8.65590893 14.0775818,8.79006056 14.1073754,8.89422346 C14.4974473,10.2579744 14.6534461,11.2225051 14.6252123,12.6756462 C14.6131426,13.2968493 15.1069428,13.8102183 15.7281459,13.822288 C16.349349,13.8343577 16.862718,13.3405575 16.8747877,12.7193544 Z" id="Shape"></path>
                                <path d="M7.87500026,11.25 C9.37644239,11.25 10.770325,12.8285934 11.293689,14.9352432 C11.4434926,15.538234 12.053753,15.9056148 12.6567437,15.7558113 C13.2597345,15.6060077 13.6271154,14.9957474 13.4773118,14.3927566 C12.7329006,11.3963453 10.616951,9 7.87500026,9 C3.64195532,9 0,14.2606019 0,20.2499998 C0,20.8370861 0.451451072,21.3254658 1.03672733,21.3715313 C3.25338383,21.5459984 5.38476877,20.4803059 6.57518905,18.6023006 C6.90783058,18.0775258 6.75207577,17.3824526 6.22730095,17.0498111 C5.70252613,16.7171695 5.00745285,16.8729243 4.67481132,17.3976991 C4.1304925,18.2564157 3.27139929,18.8433949 2.30695121,19.053927 C2.72130696,14.7111291 5.32837829,11.25 7.87500026,11.25 Z" id="Shape"></path>
                                <path d="M31.3251887,17.3976991 C30.9925471,16.8729243 30.2974739,16.7171695 29.772699,17.0498111 C29.2479242,17.3824526 29.0921694,18.0775258 29.4248109,18.6023006 C30.6152312,20.4803059 32.7466162,21.5459984 34.9632727,21.3715313 C35.5485489,21.3254658 36,20.8370861 36,20.2499998 C36,14.2606019 32.3580447,9 28.1249997,9 C25.383049,9 23.2670994,11.3963453 22.5226882,14.3927566 C22.3728846,14.9957474 22.7402655,15.6060077 23.3432563,15.7558113 C23.946247,15.9056148 24.5565074,15.538234 24.706311,14.9352432 C25.229675,12.8285934 26.6235576,11.25 28.1249997,11.25 C30.6716217,11.25 33.278693,14.7111291 33.6930488,19.053927 C32.7286007,18.8433949 31.8695075,18.2564157 31.3251887,17.3976991 Z" id="Shape"></path>
                                <path d="M5.07668653,27.4599336 C5.57746225,26.3332002 6.95873008,26.1578012 8.74050048,26.9951655 C9.30281835,27.2594335 9.9728986,27.0178164 10.2371666,26.4554985 C10.5014346,25.8931806 10.2598175,25.2231004 9.69749962,24.9588324 C6.92011233,23.6535659 4.14985001,24.0053453 3.02196207,26.5430932 C1.68503682,29.5274248 2.1230456,33.0115855 4.15910192,35.5747442 C4.37252028,35.8434132 4.69688143,35.9999989 5.04000006,35.9999989 C5.53240036,35.9999989 6.15744119,35.8221611 6.75887443,35.3087981 C7.64799009,34.5498792 8.14200005,33.2848688 8.14200005,31.4999989 C8.14200005,30.8786786 7.6383204,30.3749989 7.01700005,30.3749989 C6.39567971,30.3749989 5.89200006,30.8786786 5.89200006,31.4999989 C5.89200006,32.5153539 5.70514764,33.1267152 5.42875103,33.4635264 C4.34851173,31.6554407 4.20103152,29.4146094 5.07668653,27.4599336 Z" id="Shape"></path>
                                <path d="M30.108001,31.5000001 C30.108001,30.8786797 29.6043213,30.3750001 28.983001,30.3750001 C28.3616806,30.3750001 27.858001,30.8786797 27.858001,31.5000001 C27.858001,33.28487 28.352011,34.5498803 29.2411266,35.3087992 C29.8425598,35.8221621 30.4676006,36 30.9600009,36 C31.3031196,36 31.6274807,35.8434142 31.8408991,35.5747453 C33.8769554,33.0115867 34.3149641,29.527426 32.9766874,26.5400655 C31.850151,24.0053465 29.0798887,23.6535672 26.3025014,24.9588336 C25.7401836,25.2231016 25.4985664,25.8931819 25.7628345,26.4554997 C26.0271025,27.0178176 26.6971827,27.2594347 27.2595006,26.9951667 C29.041271,26.1578024 30.4225388,26.3332015 30.921963,27.4569059 C31.7988079,29.4142485 31.6514698,31.6553995 30.5712468,33.4635237 C30.294852,33.1267117 30.108001,32.5153511 30.108001,31.5000001 Z" id="Shape"></path>
                                <path d="M11.3001157,15.6422694 C10.7443898,15.3644065 10.0686326,15.5896589 9.79076974,16.1453847 C9.51290682,16.7011105 9.73815922,17.3768677 10.293885,17.6547306 L17.4968852,21.2562306 C17.8136037,21.4145898 18.1863974,21.4145898 18.5031158,21.2562306 L25.706116,17.6547306 C26.2618419,17.3768677 26.4870942,16.7011105 26.2092313,16.1453847 C25.9313684,15.5896589 25.2556112,15.3644065 24.6998854,15.6422694 L18.0000005,18.9922118 L11.3001157,15.6422694 Z" id="Shape"></path>
                                <path d="M15.4270602,18.7665919 L9.0475601,27.6975917 C8.68641695,28.2031751 8.80350893,28.9057958 9.30909236,29.266939 C9.8146758,29.6280821 10.5172965,29.5109901 10.8784397,29.0054067 L17.2579398,20.0744069 C17.619083,19.5688235 17.501991,18.8662028 16.9964075,18.5050597 C16.4908241,18.1439165 15.7882034,18.2610085 15.4270602,18.7665919 Z" id="Shape"></path>
                                <path d="M18.7420597,20.0744069 L25.1215598,29.0054067 C25.4827029,29.5109901 26.1853237,29.6280821 26.6909071,29.266939 C27.1964905,28.9057958 27.3135825,28.2031751 26.9524394,27.6975917 L20.5729392,18.7665919 C20.2117961,18.2610085 19.5091753,18.1439165 19.0035919,18.5050597 C18.4980085,18.8662028 18.3809165,19.5688235 18.7420597,20.0744069 Z" id="Shape"></path>
                                <path d="M12.7011149,24.2177691 C12.1453891,23.9399062 11.4696319,24.1651585 11.191769,24.7208843 C10.9139061,25.2766101 11.1391585,25.9523673 11.6948843,26.2302302 L17.4968842,29.1312301 C17.8136026,29.2895893 18.1863963,29.2895893 18.5031147,29.1312301 L24.3051146,26.2302302 C24.8608404,25.9523673 25.0860928,25.2766101 24.8082299,24.7208843 C24.530367,24.1651585 23.8546098,23.9399062 23.298884,24.2177691 L17.9999995,26.8672113 L12.7011149,24.2177691 Z" id="Shape"></path>
                                <path d="M16.2825645,27.0404127 L12.5400646,32.0294128 C12.1672246,32.5264332 12.2678927,33.2315945 12.7649131,33.6044345 C13.2619335,33.9772745 13.9670947,33.8766065 14.3399347,33.379586 L18.0824346,28.3905859 C18.4552746,27.8935655 18.3546066,27.1884042 17.8575862,26.8155642 C17.3605658,26.4427242 16.6554046,26.5433923 16.2825645,27.0404127 Z" id="Shape"></path>
                                <path d="M17.8937693,28.1781154 L20.7092692,33.8091156 C20.9871321,34.3648414 21.6628893,34.5900938 22.2186151,34.3122309 C22.7743409,34.034368 22.9995933,33.3586108 22.7217304,32.802885 L19.9062304,27.1718848 C19.6283675,26.616159 18.9526104,26.3909066 18.3968846,26.6687695 C17.8411588,26.9466324 17.6159064,27.6223896 17.8937693,28.1781154 Z" id="Shape"></path>
                            </g>
                        </g>
                    </g>
                </g>
                <g id="taxa/all-species" opacity="0.5" mask="url(#mask-2)">
                    <g transform="translate(45.000000, -9.000000)" id="Group">
                        <g>
                            <g id="astronomy-earth-rotation" fill="#0A212E" fill-rule="nonzero">
                                <path d="M33.7425509,18.1393568 C33.7253342,19.9591268 33.3905367,21.7619187 32.7532381,23.466533 C32.5356563,24.0485099 32.8310569,24.6966803 33.4130338,24.9142621 C33.9950108,25.1318439 34.6431812,24.8364433 34.860763,24.2544664 C35.5897768,22.3045368 35.9727558,20.2423006 35.9924502,18.1606429 C35.9983282,17.5393504 35.4994362,17.0309282 34.8781436,17.0249988 C34.2568511,17.0191722 33.7484289,17.5180642 33.7425509,18.1393568 Z" id="Shape"></path>
                                <path d="M29.7957595,28.409716 C28.5960001,29.7793436 27.1670798,30.9297736 25.5729281,31.8095363 C25.0289472,32.1097424 24.8313286,32.7940912 25.1315347,33.3380722 C25.4317408,33.8820531 26.1160896,34.0796716 26.6600706,33.7794655 C28.4827418,32.7735901 30.1164959,31.4582475 31.4882391,29.8922857 C31.8976394,29.4249204 31.8506495,28.7141614 31.3832841,28.3047611 C30.9159188,27.8953608 30.2051598,27.9423507 29.7957595,28.409716 Z" id="Shape"></path>
                                <path d="M20.10356,33.5915722 C18.2958632,33.8288972 16.4612591,33.7634264 14.6750778,33.3978482 C14.0663759,33.2732651 13.4719309,33.6657209 13.3473477,34.2744228 C13.2227646,34.8831247 13.6152203,35.4775697 14.2239222,35.6021529 C16.25492,36.0178377 18.3409776,36.0922819 20.3964399,35.8224289 C21.0124739,35.7415524 21.4463048,35.1765947 21.3654283,34.5605606 C21.2845517,33.9445266 20.7195941,33.5106957 20.10356,33.5915722 Z" id="Shape"></path>
                                <path d="M9.37963616,31.1725165 C7.86058694,30.1665973 6.52382555,28.9094727 5.42661375,27.4549933 C5.05243658,26.9589788 4.34700685,26.8602101 3.85099233,27.2343873 C3.35497782,27.6085645 3.25620914,28.3139942 3.6303863,28.8100087 C4.88135537,30.4683109 6.40544318,31.901602 8.13736365,33.0484853 C8.65539811,33.3915294 9.35344019,33.2496716 9.69648428,32.7316372 C10.0395284,32.2136027 9.89767063,31.5155606 9.37963616,31.1725165 Z" id="Shape"></path>
                                <path d="M2.85891098,22.2986951 C2.34982404,20.5550856 2.16068724,18.7336982 2.30065496,16.9226895 C2.34853227,16.3032166 1.88516245,15.7622223 1.26568951,15.714345 C0.646216575,15.6664677 0.105222311,16.1298375 0.0573450054,16.7493104 C-0.103555077,18.8311579 0.113867388,20.9249363 0.699088967,22.9293049 C0.873227054,23.5257233 1.49788649,23.8680491 2.09430487,23.693911 C2.69072325,23.5197729 3.03304907,22.8951135 2.85891098,22.2986951 Z" id="Shape"></path>
                                <path d="M3.74261802,11.3418249 C4.51036603,9.69065014 5.55779994,8.18463821 6.83864508,6.89032338 C7.27568089,6.44869158 7.27195511,5.73639074 6.83032331,5.29935493 C6.38869151,4.86231912 5.67639067,4.8660449 5.23935485,5.3076767 C3.77608779,6.78633186 2.5794751,8.50683466 1.70238205,10.3931749 C1.44041957,10.9565705 1.6847794,11.6256554 2.248175,11.8876179 C2.81157061,12.1495803 3.48065554,11.9052205 3.74261802,11.3418249 Z" id="Shape"></path>
                                <path d="M18,29.25 C24.2132034,29.25 29.25,24.2132034 29.25,18 C29.25,11.7867966 24.2132034,6.75 18,6.75 C11.7867966,6.75 6.75,11.7867966 6.75,18 C6.75,24.2132034 11.7867966,29.25 18,29.25 Z M18,27 C13.0294373,27 9,22.9705627 9,18 C9,13.0294373 13.0294373,9 18,9 C22.9705627,9 27,13.0294373 27,18 C27,22.9705627 22.9705627,27 18,27 Z" id="Oval"></path>
                                <path d="M10.3288445,11.1462932 L11.8918445,13.2312932 C12.113759,13.527087 12.1762696,13.9125222 12.0593509,14.2628851 L11.5146333,15.8985379 C11.3118608,16.5074058 11.2868845,17.1614706 11.4426348,17.7840335 L12.0034186,20.0331679 C12.1237709,20.5142862 11.9158201,21.0166563 11.4913786,21.2715089 L9.05004082,22.7351115 C8.51714752,23.0545856 8.34413709,23.7455659 8.6636112,24.2784592 C8.98308532,24.8113525 9.67406563,24.9843629 10.2069589,24.6648888 L12.648959,23.2008888 C13.9229457,22.4359338 14.5467981,20.9288234 14.1863712,19.4879916 L13.6255812,17.2388327 C13.5734483,17.0304461 13.5817737,16.8124246 13.6493651,16.6094671 L14.1938665,14.9744628 C14.5444048,13.924027 14.3568731,12.7677215 13.6918989,11.8813658 L12.1291553,9.79670776 C11.7564776,9.29956567 11.0513492,9.19866738 10.5542071,9.57134512 C10.057065,9.94402286 9.95616673,10.6491511 10.3288445,11.1462932 Z" id="Shape"></path>
                                <path d="M28.0634991,15.75 L24.1199992,15.75 C23.1089162,15.75 22.1510909,16.2032172 21.5100221,16.985051 C20.8689289,17.7669145 20.6121454,18.7950174 20.8103198,19.7865001 L21.2600381,22.0515858 C21.3911413,22.7063138 21.7121077,23.3059729 22.1828976,23.7768889 L24.361004,25.9549955 C24.8003439,26.3943353 25.5126544,26.3943353 25.9519943,25.9549955 C26.3913341,25.5156556 26.3913341,24.803345 25.9519943,24.3640052 L23.7739943,22.1860051 C23.6171709,22.0291396 23.5101821,21.8292532 23.4666008,21.6116116 L23.0169603,19.3469145 C22.9506204,19.0150059 23.0362149,18.6723049 23.2499127,18.4116837 C23.4635933,18.1510834 23.7828915,18.0000001 24.1199992,18.0000001 L28.0634991,18.0000001 C28.6848194,18.0000001 29.1884991,17.4963204 29.1884991,16.875 C29.1884991,16.2536797 28.6848194,15.75 28.0634991,15.75 Z" id="Shape"></path>
                            </g>
                        </g>
                    </g>
                </g>
                <g id="taxa/conifers" opacity="0.5" mask="url(#mask-2)">
                    <g transform="translate(36.000000, 73.000000)" id="Regular">
                        <g>
                            <path d="M4.83951198,13.0625002 L1.56164684,17.7283717 C1.08265949,18.5564667 1.08540622,19.4586407 1.50941239,20.1905406 C1.93341856,20.9224405 2.71468781,21.3735987 3.56053455,21.3750003 L17.8125,21.3750003 C18.6590691,21.3750003 19.4415391,20.9241159 19.8663754,20.1919096 C20.291153,19.4598044 20.2942036,18.5569591 19.874383,17.8220002 L16.5341491,13.0625002 L17.8125,13.0625002 C18.7371396,13.0625002 19.3070386,12.0523956 18.8289231,11.260964 L12.6919231,1.10229721 L12.6635,1.05753729 C12.2230012,0.39691885 11.4815125,0.000129394343 10.6875,0.000129394343 C9.89348744,0.000129394343 9.15199878,0.39691885 8.71149997,1.05753729 L2.54607686,11.260964 C2.06796139,12.0523956 2.63786035,13.0625002 3.56249995,13.0625002 L4.83951198,13.0625002 Z M15.7077425,10.6875002 L14.2500001,10.6875002 C13.2882825,10.6875002 12.7254581,11.7709389 13.2784244,12.5577864 L17.8057651,19.000002 L3.5625,19.000002 L8.09668646,12.5576288 C8.64947457,11.7707635 8.08662972,10.6875002 7.12500002,10.6875002 L5.66725758,10.6875002 L10.6875,2.37741872 L15.7077425,10.6875002 Z" id="Shape" fill="#0A212E" fill-rule="nonzero"></path>
                            <path d="M9.5,20.1875 L9.5,27.442333 C9.5,28.0981711 10.0316619,28.629833 10.6875,28.629833 C11.3433381,28.629833 11.875,28.0981711 11.875,27.442333 L11.875,20.1875 C11.875,19.5316618 11.3433381,19 10.6875,19 C10.0316619,19 9.5,19.5316618 9.5,20.1875 Z" id="Shape" fill="#0A212E" fill-rule="nonzero"></path>
                            <path d="M24.4564355,10.6874999 L21.7285038,14.4778223 C21.2787837,15.2491974 21.2809473,16.0715026 21.6679338,16.7380198 C22.0549192,17.404535 22.7679797,17.8140839 23.5386916,17.8125064 L35.8387501,17.8125064 C36.6070206,17.8140839 37.320081,17.404535 37.7070664,16.7380198 C38.094053,16.0715026 38.0962165,15.2491974 37.7127426,14.5806531 L34.9181714,10.6874999 L35.5189167,10.6874999 C36.4562532,10.6874999 37.0240811,9.65243336 36.5204166,8.86191349 L31.4996666,0.981663577 L31.4854937,0.959945674 C31.0847544,0.360281939 30.4111161,0.00024313318 29.6898751,0.00024313318 C28.9686341,0.00024313318 28.2949958,0.360281939 27.8942565,0.959945674 L22.8578415,8.86177038 C22.3540229,9.65228269 22.9218373,10.6874999 23.8592502,10.6874999 L24.4564355,10.6874999 Z M29.6898445,2.56103604 L33.3542794,8.31250005 L32.6039999,8.31250005 C31.6363733,8.31250005 31.0749655,9.40774467 31.6399151,10.1933229 L35.4112751,15.4375045 L23.9566559,15.4375045 L27.7379964,10.1936776 C28.3033519,9.40814488 27.7419933,8.31250005 26.7741667,8.31250005 L26.0242541,8.31250005 L29.6898445,2.56103604 Z" id="Shape" fill="#0A212E" fill-rule="nonzero"></path>
                            <path d="M28.5015832,16.625 L28.5015832,23.0137501 C28.5015832,23.6695883 29.0332451,24.2012501 29.6890832,24.2012501 C30.3449214,24.2012501 30.8765832,23.6695883 30.8765832,23.0137501 L30.8765832,16.625 C30.8765832,15.9691619 30.3449214,15.4375 29.6890832,15.4375 C29.0332451,15.4375 28.5015832,15.9691619 28.5015832,16.625 Z" id="Shape" fill="#0A212E" fill-rule="nonzero"></path>
                            <path d="M1.66438064,29.6217024 C10.3549646,26.6016779 19.9886146,29.8311295 25.1030544,37.4789593 C25.4676316,38.0241264 26.205125,38.1705234 26.7502921,37.8059463 C27.2954592,37.4413691 27.4418563,36.7038757 27.0772791,36.1587086 C21.3619417,27.6123322 10.5964302,24.003451 0.884786032,27.3782994 C0.265287383,27.5935785 -0.0623973018,28.2702995 0.152881804,28.8897982 C0.368160909,29.5092968 1.04488199,29.8369815 1.66438064,29.6217024 Z" id="Shape" fill="#0A212E" fill-rule="nonzero"></path>
                            <path d="M18.181515,30.1848478 C22.5801018,26.0444214 28.3952321,23.742313 34.4359944,23.7499793 C35.2014467,23.7499803 35.9558498,23.7851954 36.7008193,23.8555703 C37.3537505,23.9172508 37.9330578,23.4379472 37.9947382,22.785016 C38.0564186,22.1320848 37.5771151,21.5527775 36.9241838,21.4910971 C36.1046091,21.4136744 35.2756738,21.3749592 34.4375014,21.3749592 C27.7921538,21.3665457 21.3935684,23.8996337 16.5536528,28.4554866 C16.0761029,28.9050084 16.0533816,29.6565484 16.5029033,30.1340983 C16.952425,30.6116482 17.7039651,30.6343695 18.181515,30.1848478 Z" id="Shape" fill="#0A212E" fill-rule="nonzero"></path>
                        </g>
                    </g>
                </g>
                <g id="Group-6-Copy" opacity="0.5" mask="url(#mask-2)">
                    <g transform="translate(81.000000, 68.000000)" id="Group">
                        <g transform="translate(0.000000, 0.500000)">
                            <g id="Regular" fill="#0A212E" fill-rule="nonzero">
                                <path d="M16.8251748,1.16262451 L16.8251748,4.57764427 C16.8251748,5.20633205 17.3675991,5.71598419 18.0367133,5.71598419 C18.7058275,5.71598419 19.2482517,5.20633205 19.2482517,4.57764427 L19.2482517,1.16262451 C19.2482517,0.533936727 18.7058275,0.024284585 18.0367133,0.024284585 C17.3675991,0.024284585 16.8251748,0.533936727 16.8251748,1.16262451 Z" id="Shape"></path>
                                <path d="M0.535026568,9.17199671 L1.70985174,11.1436015 C2.03427789,11.688057 2.75279214,11.8745938 3.31469824,11.560243 C3.87660433,11.2458922 4.06911986,10.5496921 3.74469371,10.0052365 L2.56986854,8.03363175 C2.24544239,7.48917615 1.52692814,7.30263936 0.965022042,7.61699017 C0.403115947,7.93134097 0.210600416,8.62754112 0.535026568,9.17199671 Z" id="Shape"></path>
                                <path d="M5.23432727,8.03363175 L4.05950209,10.0052365 C3.73507594,10.5496921 3.92759147,11.2458922 4.48949757,11.560243 C5.05140366,11.8745938 5.76991791,11.688057 6.09434406,11.1436015 L7.26916924,9.17199671 C7.59359539,8.62754112 7.40107986,7.93134097 6.83917376,7.61699017 C6.27726767,7.30263936 5.55875342,7.48917615 5.23432727,8.03363175 Z" id="Shape"></path>
                                <path d="M10.4400702,4.15503641 L12.6565737,6.81116289 C13.0645311,7.30003485 13.8042571,7.37589973 14.3087981,6.98061182 C14.813339,6.58532392 14.8916354,5.86857073 14.4836781,5.37969877 L12.2671746,2.72357229 C11.8592172,2.23470032 11.1194911,2.15883545 10.6149502,2.55412335 C10.1104092,2.94941126 10.0321128,3.66616444 10.4400702,4.15503641 Z" id="Shape"></path>
                                <path d="M23.7328254,2.72357229 L21.5163219,5.37969877 C21.1083646,5.86857073 21.186661,6.58532392 21.6912019,6.98061182 C22.1957429,7.37589973 22.9354689,7.30003485 23.3434263,6.81116289 L25.5599298,4.15503641 C25.9678872,3.66616444 25.8895908,2.94941126 25.3850498,2.55412335 C24.8805089,2.15883545 24.1407828,2.23470032 23.7328254,2.72357229 Z" id="Shape"></path>
                                <path d="M28.7308308,11.4486766 L29.9056559,13.4202813 C30.2300821,13.9647369 30.9485963,14.1512737 31.5105024,13.8369229 C32.0724085,13.5225721 32.2649241,12.8263719 31.9404979,12.2819163 L30.7656727,10.3103116 C30.4412466,9.76585599 29.7227323,9.57931921 29.1608262,9.89367001 C28.5989201,10.2080208 28.4064046,10.904221 28.7308308,11.4486766 Z" id="Shape"></path>
                                <path d="M26.2237762,11.4076838 C26.2237762,7.00686935 22.5418662,3.43930435 18,3.43930435 C13.4581338,3.43930435 9.77622378,7.00686935 9.77622378,11.4076838 L9.77622378,13.6843636 L8.6013986,13.6843636 C7.95256057,13.6843636 7.42657343,13.1747115 7.42657343,12.5460237 C7.42657343,10.6599604 5.84861199,9.13100395 3.9020979,9.13100395 C1.95558382,9.13100395 0.377622378,10.6599604 0.377622378,12.5460237 C0.377622378,16.9468382 4.05953241,20.5144032 8.6013986,20.5144032 L9.77622378,20.5144032 L9.77622378,30.7594625 C9.77622378,31.3881502 10.3022109,31.8978024 10.951049,31.8978024 L25.048951,31.8978024 C25.6977891,31.8978024 26.2237762,31.3881502 26.2237762,30.7594625 L26.2237762,22.791083 L27.3986014,22.791083 C31.9404676,22.791083 35.6223776,19.223518 35.6223776,14.8227036 C35.6223776,12.9366402 34.0444162,11.4076838 32.0979021,11.4076838 C30.151388,11.4076838 28.5734266,12.9366402 28.5734266,14.8227036 C28.5734266,15.4513913 28.0474394,15.9610435 27.3986014,15.9610435 L26.2237762,15.9610435 L26.2237762,11.4076838 Z M12.1258741,29.6211225 L12.1258741,19.3760632 C12.1258741,18.7473755 11.599887,18.2377233 10.951049,18.2377233 L8.6013986,18.2377233 C5.35720846,18.2377233 2.72727273,15.6894626 2.72727273,12.5460237 C2.72727273,11.9173359 3.25325987,11.4076838 3.9020979,11.4076838 C4.55093593,11.4076838 5.07692308,11.9173359 5.07692308,12.5460237 C5.07692308,14.4320871 6.65488452,15.9610435 8.6013986,15.9610435 L10.951049,15.9610435 C11.599887,15.9610435 12.1258741,15.4513913 12.1258741,14.8227036 L12.1258741,11.4076838 C12.1258741,8.2642449 14.7558099,5.71598419 18,5.71598419 C21.2441901,5.71598419 23.8741259,8.2642449 23.8741259,11.4076838 L23.8741259,17.0993834 C23.8741259,17.7280712 24.400113,18.2377233 25.048951,18.2377233 L27.3986014,18.2377233 C29.3451155,18.2377233 30.9230769,16.7087669 30.9230769,14.8227036 C30.9230769,14.1940158 31.4490641,13.6843636 32.0979021,13.6843636 C32.7467401,13.6843636 33.2727273,14.1940158 33.2727273,14.8227036 C33.2727273,17.9661424 30.6427915,20.5144032 27.3986014,20.5144032 L25.048951,20.5144032 C24.400113,20.5144032 23.8741259,21.0240553 23.8741259,21.6527431 L23.8741259,29.6211225 L12.1258741,29.6211225 Z" id="Shape"></path>
                            </g>
                        </g>
                    </g>
                </g>
            </g>
        </g>
    </g>
</svg>