<svg width="214" height="219" xmlns="http://www.w3.org/2000/svg"><g transform="translate(.75 .94)" fill="none" fill-rule="evenodd"><circle fill="#0A212E" opacity=".5" cx="106.25" cy="111.06" r="106"/><path fill="#D8D8D8" fill-rule="nonzero" d="M0 111.31h91.5v-.5H0zM121.337 111.31H212.5v-.5h-91.163zM106.5 217.117v-91.114h-.5v91.114z"/><path d="M100.394 107.06v9h-1.128v-8.064h-1.38v-.936h2.508zm7.176 6.048c-.024 1.98-1.188 3.012-3 3.012-1.824 0-3.012-1.032-3.012-3.012v-3.096c0-1.968 1.188-3.012 3.012-3.012 1.788 0 2.976 1.068 3 3.012v3.096zm-1.14-3.048c0-1.56-.756-2.124-1.86-2.124-1.116 0-1.872.564-1.872 2.124v3c0 1.56.756 2.124 1.872 2.124 1.104 0 1.86-.564 1.86-2.124v-3zm8.148 3.048c-.024 1.98-1.188 3.012-3 3.012-1.824 0-3.012-1.032-3.012-3.012v-3.096c0-1.968 1.188-3.012 3.012-3.012 1.788 0 2.976 1.068 3 3.012v3.096zm-1.14-3.048c0-1.56-.756-2.124-1.86-2.124-1.116 0-1.872.564-1.872 2.124v3c0 1.56.756 2.124 1.872 2.124 1.104 0 1.86-.564 1.86-2.124v-3zM105.034 84.06l-4.26 9h-1.2l3.9-8.064h-3.972v-.936h5.532zm3.684 2.928c1.5 0 2.664 1.176 2.664 3.036 0 1.98-1.464 3.096-3.096 3.096-1.092 0-2.004-.48-2.568-1.248l.924-.624c.216.384.636.936 1.596.936 1.356 0 2.004-.948 2.004-2.172 0-.96-.528-2.016-1.62-2.016-.648 0-1.2.432-1.308.816l-1.392-.492v-4.26h4.572v.936h-3.444v2.652c.456-.48 1.248-.66 1.668-.66zM103.898 6.108c-.024 1.98-1.188 3.012-3 3.012-1.824 0-3.012-1.032-3.012-3.012V3.012c0-1.968 1.188-3.012 3.012-3.012 1.788 0 2.976 1.068 3 3.012v3.096zm-1.14-3.048c0-1.56-.756-2.124-1.86-2.124-1.116 0-1.872.564-1.872 2.124v3c0 1.56.756 2.124 1.872 2.124 1.104 0 1.86-.564 1.86-2.124v-3zm4.176-3.036c1.08 0 1.98.864 1.98 1.956a1.98 1.98 0 0 1-1.98 1.968 1.967 1.967 0 0 1-1.956-1.968c0-1.092.888-1.956 1.956-1.956zm.72 9.036h-1.116l4.704-9h1.104l-4.692 9zm-.72-8.04c-.54 0-.96.432-.96.96 0 .54.42.972.96.972a.953.953 0 0 0 .972-.972.95.95 0 0 0-.972-.96zm5.076 4.152c1.08 0 1.968.864 1.968 1.956a1.97 1.97 0 0 1-1.968 1.968 1.977 1.977 0 0 1-1.968-1.968c0-1.092.9-1.956 1.968-1.956zm0 .996a.948.948 0 0 0-.96.96c0 .54.408.972.96.972a.96.96 0 0 0 .972-.972c0-.528-.42-.96-.972-.96zM102.73 59.488c1.5 0 2.664 1.176 2.664 3.036 0 1.98-1.464 3.096-3.096 3.096-1.092 0-2.004-.48-2.568-1.248l.924-.624c.216.384.636.936 1.596.936 1.356 0 2.004-.948 2.004-2.172 0-.96-.528-2.016-1.62-2.016-.648 0-1.2.432-1.308.816l-1.392-.492v-4.26h4.572v.936h-3.444v2.652c.456-.48 1.248-.66 1.668-.66zm9.672 3.12c-.024 1.98-1.188 3.012-3 3.012-1.824 0-3.012-1.032-3.012-3.012v-3.096c0-1.968 1.188-3.012 3.012-3.012 1.788 0 2.976 1.068 3 3.012v3.096zm-1.14-3.048c0-1.56-.756-2.124-1.86-2.124-1.116 0-1.872.564-1.872 2.124v3c0 1.56.756 2.124 1.872 2.124 1.104 0 1.86-.564 1.86-2.124v-3zM100.798 35.624h4.284v.936H99.73v-1.104c0-1.548.54-2.064 1.332-2.58 1.656-1.044 2.88-1.272 2.88-2.784 0-.816-.348-1.656-1.392-1.656-1.104 0-1.632.852-1.632 1.884l-1.14-.264c0-1.116.768-2.556 2.784-2.556 1.824 0 2.52 1.2 2.52 2.592 0 1.608-1.02 2.088-2.004 2.712-1.704 1.092-2.28 1.236-2.28 2.82zm8.124-5.136c1.5 0 2.664 1.176 2.664 3.036 0 1.98-1.464 3.096-3.096 3.096-1.092 0-2.004-.48-2.568-1.248l.924-.624c.216.384.636.936 1.596.936 1.356 0 2.004-.948 2.004-2.172 0-.96-.528-2.016-1.62-2.016-.648 0-1.2.432-1.308.816l-1.392-.492v-4.26h4.572v.936h-3.444v2.652c.456-.48 1.248-.66 1.668-.66z" fill="#DBDBDB" fill-rule="nonzero"/><g fill-rule="nonzero"><path d="M91.21 63.914c-20.342 6.485-34.424 25.45-34.424 47.136 0 27.318 22.146 49.464 49.464 49.464 27.318 0 49.464-22.146 49.464-49.464 0-22.06-14.569-41.272-35.405-47.438l-.142.48c20.625 6.103 35.047 25.12 35.047 46.958 0 27.042-21.922 48.964-48.964 48.964-27.042 0-48.964-21.922-48.964-48.964 0-21.467 13.94-40.24 34.076-46.66l-.152-.476z" fill="#48C386"/><path d="M91.182 34.656c-36.246 7.107-62.79 39.016-62.79 76.4 0 37.663 26.937 69.737 63.537 76.543a78.292 78.292 0 0 0 14.321 1.314c43 0 77.857-34.858 77.857-77.857 0-37.726-27.023-69.837-63.703-76.574l-.09.492c36.443 6.694 63.293 38.598 63.293 76.082 0 42.723-34.634 77.357-77.357 77.357-4.813 0-9.57-.44-14.23-1.306-36.364-6.761-63.127-38.63-63.127-76.051 0-37.144 26.373-68.848 62.386-75.91l-.097-.49z" fill="#CBF499"/><path d="M91.288 5.853C39.2 13.195 0 57.948 0 111.058c0 58.68 47.57 106.25 106.25 106.25s106.25-47.57 106.25-106.25c0-23.657-7.753-46.137-21.832-64.528a106.846 106.846 0 0 0-20.63-20.45 106.117 106.117 0 0 0-22.917-13.127 105.444 105.444 0 0 0-26.945-7.24l-.065.495a104.944 104.944 0 0 1 26.817 7.207 105.617 105.617 0 0 1 22.81 13.064 106.34 106.34 0 0 1 20.533 20.355C204.284 65.139 212 87.512 212 111.058c0 58.404-47.346 105.75-105.75 105.75S.5 169.462.5 111.058c0-52.86 39.016-97.403 90.857-104.71l-.07-.495z" fill="#FFF100"/><path d="M91.17 96.277a21 21 0 0 0-5.991 14.718c0 11.637 9.434 21.071 21.071 21.071 11.637 0 21.071-9.434 21.071-21.071 0-6.018-2.537-11.63-6.904-15.598l-.336.37a20.514 20.514 0 0 1 6.74 15.228c0 11.361-9.21 20.571-20.571 20.571s-20.571-9.21-20.571-20.571a20.5 20.5 0 0 1 5.85-14.369l-.358-.35z" fill="#005D64"/></g></g></svg>