<svg width="56" height="56" xmlns="http://www.w3.org/2000/svg" xmlns:xlink="http://www.w3.org/1999/xlink"><defs><rect id="a" x="0" y="0" width="56" height="40" rx="4"/></defs><g transform="translate(0 8)" fill="none" fill-rule="evenodd"><mask id="b" fill="#fff"><use xlink:href="#a"/></mask><use fill="#FFF" xlink:href="#a"/><path fill="#E41D33" mask="url(#b)" d="M0 0h56v13.333H0z"/><path fill="#262626" mask="url(#b)" d="M0 26.667h56V40H0z"/><path d="M23.327 16.667l2.036 3.55c.254-.68.555-1.23.555-1.23s.598-1.095 1.328-1.824c.243-.243.493-.496.754-.496 1.111 0 2.07 2.298 2.07 2.298s.308.737.433 1.52h0L32.3 16.89l1.033-.223a.673.673 0 01.667.672h0v4.398l-3.226-1.07h-2.107v2c-.798.656-.994.588-1.133.462a.616.616 0 01-.2-.462h0v-2H25.13l-2.215 1.476-.914-4.856c.314-.546.48-.62.665-.62h.66z" stroke="#C6A846" stroke-width="1.333" fill-opacity=".25" fill="#F4B32E" mask="url(#b)"/></g></svg>