<svg width="56" height="56" xmlns="http://www.w3.org/2000/svg" xmlns:xlink="http://www.w3.org/1999/xlink"><defs><rect id="a" x="0" y="0" width="56" height="40" rx="4"/></defs><g transform="translate(0 8)" fill="none" fill-rule="evenodd"><mask id="b" fill="#fff"><use xlink:href="#a"/></mask><use fill="#009F60" xlink:href="#a"/><path fill="#EA8B42" mask="url(#b)" d="M48 21.333h8V40h-8z"/><path fill="#1A1919" mask="url(#b)" d="M40 21.333h8V40h-8z"/><path fill="#DB3C36" mask="url(#b)" d="M32 21.333h8V40h-8z"/><g mask="url(#b)"><path d="M42.028 6.968c-.183.005-.319-.058-.367-.165.3-.176.502-.137.754.087a.537.537 0 00-.107-.487c-.106-.117-.193-.117-.338-.127-.145-.01-.29-.049-.386-.049-.142-.312-.497-.18-.838-.052-.554.208-1.052.586-1.275.962-.102.173-.115.24-.177.338.051-.006.048-.006.08-.026-.038.43-.09.826-.013 1.08-.096.37-.019.604.097.72.116.118.164.167.184.303.019.136.077.263.174.341a.472.472 0 01.164.264c.01.068.308.362.434.438.049.03.058.088.117.166-.126.741.377 1.482.26 2.213.087.01.203 0 .32-.029.096.624.154.926-.387 1.112-.541.185-.837.367-.686.575.106.146.326.019.464-.107a.992.992 0 01.328-.215c.097-.03.116 0 .068.127-.049.127-.31.4-.32.536-.009.137.107.234.29.127.184-.107.346-.388.387-.556.029-.117.078-.195.068 0-.01.195-.126.546.135.605.261.058.339-.254.251-.537-.087-.282-.115-.438-.077-.536.039-.098.077-.156.174-.127.096.03.29-.01.28-.165-.01-.156-.145-.283-.3-.195-.154.087-.27.074-.202-.117.048-.137.135-.303.145-.41.106.156.705.176.947.03.058.292.212.555-.126.828-.338.273-.609.536-.6.732.01.195.088.311.262.214a.657.657 0 00.319-.36c.038-.128.116-.128.077.029-.039.155-.106.38-.077.516.029.137.241.147.328.02.087-.127.068-.293.048-.459-.019-.166.01-.34.049-.41.038-.067.116-.165.193.02.078.186.116.332.27.38.155.05.271-.019.242-.204-.029-.185-.232-.39-.434-.546-.203-.156-.136-.234-.126-.38.01-.147-.02-.41-.03-.527.184.137.387.117.484.117.096 0 .255-.03.096-.175-.318-.293-.212-.469-.434-.683a1.878 1.878 0 01-.493-.829c-.068-.282-.217-.8-.512-1.062-.164-.147-.213-.546-.174-1.005.038-.458.048-.965-.367-1.199-.416-.234-.406-.429-.27-.634.134-.204.308-.405.53-.42.05-.002.166-.012.213-.046a.168.168 0 00-.116-.04" fill="#EA8B42"/><path d="M42.028 6.968c-.183.005-.319-.058-.367-.165.3-.176.502-.137.754.087a.537.537 0 00-.107-.487c-.106-.117-.193-.117-.338-.127-.145-.01-.29-.049-.386-.049-.142-.312-.497-.18-.838-.052-.554.208-1.052.586-1.275.962-.102.173-.115.24-.177.338.051-.006.048-.006.08-.026-.038.43-.09.826-.013 1.08-.096.37-.019.604.097.72.116.118.164.167.184.303.019.136.077.263.174.341a.472.472 0 01.164.264c.01.068.308.362.434.438.049.03.058.088.117.166-.126.741.377 1.482.26 2.213.087.01.203 0 .32-.029.096.624.154.926-.387 1.112-.541.185-.837.367-.686.575.106.146.326.019.464-.107a.992.992 0 01.328-.215c.097-.03.116 0 .068.127-.049.127-.31.4-.32.536-.009.137.107.234.29.127.184-.107.346-.388.387-.556.029-.117.078-.195.068 0-.01.195-.126.546.135.605.261.058.339-.254.251-.537-.087-.282-.115-.438-.077-.536.039-.098.077-.156.174-.127.096.03.29-.01.28-.165-.01-.156-.145-.283-.3-.195-.154.087-.27.074-.202-.117.048-.137.135-.303.145-.41.106.156.705.176.947.03.058.292.212.555-.126.828-.338.273-.609.536-.6.732.01.195.088.311.262.214a.657.657 0 00.319-.36c.038-.128.116-.128.077.029-.039.155-.106.38-.077.516.029.137.241.147.328.02.087-.127.068-.293.048-.459-.019-.166.01-.34.049-.41.038-.067.116-.165.193.02.078.186.116.332.27.38.155.05.271-.019.242-.204-.029-.185-.232-.39-.434-.546-.203-.156-.136-.234-.126-.38.01-.147-.02-.41-.03-.527.184.137.387.117.484.117.096 0 .255-.03.096-.175-.318-.293-.212-.469-.434-.683a1.878 1.878 0 01-.493-.829c-.068-.282-.217-.8-.512-1.062-.164-.147-.213-.546-.174-1.005.038-.458.048-.965-.367-1.199-.416-.234-.406-.429-.27-.634.134-.204.308-.405.53-.42.05-.002.166-.012.213-.046a.168.168 0 00-.116-.04z"/><path d="M39.326 8.021c-.01.199-.006.373.035.507-.096.37-.019.605.097.722.116.117.164.166.184.302.019.136.077.263.174.341a.472.472 0 01.164.264c.01.068.308.362.434.438.049.03.058.088.117.166-.053.308.002.616.078.923-.683.572-1.357.302-1.074-.283-.567.455-1.546.442-1.326 0-.89.312-1.16.052-1.044-.234-.747.3-1.134.013-1.03-.195-.62.17-1.019.065-1.083-.039-.064-.104.09-.338.232-.455a1.6 1.6 0 01-.812.065c-.257-.039-.193-.117-.142-.234.052-.117.12-.302.326-.484-.493.097-1.111.166-1.546.02-.082-.028-.222-.06-.136-.147.088-.087.348-.302.667-.439-.724.108-2.097.186-2.483-.253.377.078.86-.078 1.17-.205-1.218-.136-2.88-.975-2.9-1.794.348.566.948.76 1.547.936-.812-.478-1.15-1.053-1.18-1.433.464.448 1.17.955 1.866 1.073-.493-.264-1.131-1.034-1.305-1.57.358.321 1.276.838 1.904 1.004-.435-.341-1.14-1.15-1.102-1.599.164.166.57.478 1.4.965.832.488 1.283.452 1.969.598-.126-.169-.238-.393-.248-.452.203.03.396.108.976.468.58.361 1.846.472 2.57.79.531.234 1.288.088 1.5.234" fill="#EA8B42"/><path d="M39.326 8.021c-.01.199-.006.373.035.507-.096.37-.019.605.097.722.116.117.164.166.184.302.019.136.077.263.174.341a.472.472 0 01.164.264c.01.068.308.362.434.438.049.03.058.088.117.166-.053.308.002.616.078.923-.683.572-1.357.302-1.074-.283-.567.455-1.546.442-1.326 0-.89.312-1.16.052-1.044-.234-.747.3-1.134.013-1.03-.195-.62.17-1.019.065-1.083-.039-.064-.104.09-.338.232-.455a1.6 1.6 0 01-.812.065c-.257-.039-.193-.117-.142-.234.052-.117.12-.302.326-.484-.493.097-1.111.166-1.546.02-.082-.028-.222-.06-.136-.147.088-.087.348-.302.667-.439-.724.108-2.097.186-2.483-.253.377.078.86-.078 1.17-.205-1.218-.136-2.88-.975-2.9-1.794.348.566.948.76 1.547.936-.812-.478-1.15-1.053-1.18-1.433.464.448 1.17.955 1.866 1.073-.493-.264-1.131-1.034-1.305-1.57.358.321 1.276.838 1.904 1.004-.435-.341-1.14-1.15-1.102-1.599.164.166.57.478 1.4.965.832.488 1.283.452 1.969.598-.126-.169-.238-.393-.248-.452.203.03.396.108.976.468.58.361 1.846.472 2.57.79.531.234 1.288.088 1.5.234z"/><path d="M43.699 13.029c.032-.026.032-.07-.048-.142-.318-.293-.212-.469-.434-.683a1.878 1.878 0 01-.493-.829c-.068-.282-.217-.8-.512-1.062-.164-.147-.213-.546-.174-1.005.033-.392.045-.82-.213-1.082.483-.136.928-.166 1.082-.01.802-.205 1.498-.267 2.181-.312.786-.052 2.267-.39 3.324-1.105-.064.26-.425.65-.747.845 1.069-.26 2.357-.74 3.452-1.56-.013.572-.476 1.001-.747 1.235.747-.416 1.842-.936 2.216-1.586.164.666-.953 1.538-1.56 2.019.62-.3 1.418-.576 1.728-1.018-.007.54-.71 1.21-1.38 1.6.684-.26 1.444-.534 1.882-.937.051.543-2.042 1.791-3.08 2.132.903-.22 2.075-.52 2.59-.832-.025.11-.236.265-.389.378-.63.466-1.596.716-2.187.831.077.325-.026.507-.387.533-.36.026-1.233-.113-1.671-.335a.555.555 0 01-.23.062c.426.322.571.556.484.693-.087.136-.391.111-.623.063.183.517-.43.483-.942.19.203.263.232.487-.049.546-.28.058-.502.04-.773-.137-.019.195-.206.326-.454.26.85.517.802.706.657.9-.144.196-.652.157-.922-.019-.116.4-.578.402-.923.083-.003.16-.333.476-.658.284" fill="#EA8B42"/><path d="M43.699 13.029c.032-.026.032-.07-.048-.142-.318-.293-.212-.469-.434-.683a1.878 1.878 0 01-.493-.829c-.068-.282-.217-.8-.512-1.062-.164-.147-.213-.546-.174-1.005.033-.392.045-.82-.213-1.082.483-.136.928-.166 1.082-.01.802-.205 1.498-.267 2.181-.312.786-.052 2.267-.39 3.324-1.105-.064.26-.425.65-.747.845 1.069-.26 2.357-.74 3.452-1.56-.013.572-.476 1.001-.747 1.235.747-.416 1.842-.936 2.216-1.586.164.666-.953 1.538-1.56 2.019.62-.3 1.418-.576 1.728-1.018-.007.54-.71 1.21-1.38 1.6.684-.26 1.444-.534 1.882-.937.051.543-2.042 1.791-3.08 2.132.903-.22 2.075-.52 2.59-.832-.025.11-.236.265-.389.378-.63.466-1.596.716-2.187.831.077.325-.026.507-.387.533-.36.026-1.233-.113-1.671-.335a.555.555 0 01-.23.062c.426.322.571.556.484.693-.087.136-.391.111-.623.063.183.517-.43.483-.942.19.203.263.232.487-.049.546-.28.058-.502.04-.773-.137-.019.195-.206.326-.454.26.85.517.802.706.657.9-.144.196-.652.157-.922-.019-.116.4-.578.402-.923.083-.003.16-.333.476-.658.284zm-9.182-6.054c.116.169.483.494.728.559l-.728-.56zm.722.461a.762.762 0 00.56.76c.432.13.805.092 1.037.02l-1.597-.78zm1.59.78c-.394.09-.862.332-.978.546-.116.215-.033.292.154.345.625.175 1.334-.013 1.836-.377l-1.013-.514zm-.015-.087c-.013.27.544.581 1.472.432l-1.472-.432zm.615.438c-.2.108-.464.249-.94.31l.94-.31zm.4.026c-.09.293.566.514 1.487.286l-1.488-.286zm.386.345a5.705 5.705 0 01-1.076.487l1.076-.487zm-1.578.234c-.084.123-.13.527.225.572.722.091 1.72-.397 2.113-.8l-2.338.228zm.889.507c-.184.312-.097.653.309.702.405.049 1.111-.283 1.74-.995l-2.05.293zm1.826-.595c-.435.273-.909.644-1.401.829l1.4-.83zm-.88 1.15c-.164.234-.202.371-.096.508.106.136.319.039.608-.118.29-.156.686-.477.909-.653l-1.42.263zm1.228-.506c-.203.136-.812.585-.967.74l.967-.74zm-.184.526c-.126.331.01.497.193.565a.673.673 0 00.744-.155l-.937-.41zm-1.314 1.14c.406-.155 1.072-.604 1.285-.78l-1.285.78zm1.488-.584c-.165.166-.55.429-.918.585l.918-.585zm-.155.595c.329-.195.793-.527.947-.712l-.947.712zm.967-.39c-.088.117-.31.38-.455.536l.455-.536zm-1.788-.264c-.319.166-.715.351-1.005.468l1.005-.468zm-1.565.41c.25-.088.947-.459 1.169-.585l-1.17.585zm-.396-.205c.55-.117.985-.448 1.227-.575l-1.227.575zm-.619.01c.464-.098 1.14-.536 1.41-.712l-1.41.712zm1.295-1.014c-.358.214-.947.565-1.517.712l1.517-.712zm-2.145.526c.377-.097 1.13-.429 1.69-.74l-1.69.74zm1.314-.926a15.45 15.45 0 01-1.594.566l1.594-.566zm-1.942.273c.531-.078 1.217-.449 1.555-.673l-1.555.673zM32.25 7.007c.283.234.783.341 1.12.4l-1.12-.4zm-.451-.864c.445.422 1.14.91 1.952 1.007l-1.952-1.007zm1.598.936c-.09.162-.11.61.573.52l-.573-.52zm.244.52c-.109.234.071.63.915.37l-.915-.37zm.747.078c.136.507.767.617 1.096.35l-1.096-.35zm-.776.1c-.405-.078-.85-.146-1.005-.078-.154.069-.206.22-.01.371.648.497 3.006.507 3.634.37l-2.619-.663zm-.85.39c-.232.078-.217.328.164.478.57.225 2.165.351 2.87.283l-3.034-.76zm-.03.371c-.125.127-.07.284.059.4.544.492 1.876.425 3.005.029l-3.063-.429zm-.405.265a.829.829 0 01.343-.055l-.343.055zm-1.352-.86c.444.283.995.41 1.652.468l-1.652-.468zm.686-.36c.338.1.53.14.811.251l-.811-.251zm16.004.074c-.438.156-1.469.546-1.933.624l1.933-.624zM42.038 9.12c.338.191.918.262.986-.202l-.986.202zm.947-.075c.348.205 1.053.078 1.034-.312l-1.034.312zm.985-.156c.358.136.88.146.966-.332l-.966.332z"/><path d="M44.83 8.791c.464.088 1.005-.302.88-.633m-2.793.058c-.212.06-.338.141-.464.222m3.06.168c.387.078 1.083.286 1.327.494.245.208.322.416-.116.494-.438.078-.657.04-1.07-.039m.104-.89c.464-.273 1.237-.4 1.749-.283.512.117.425.4.27.546-.154.146-.512.244-.898.205m-.657-.328c.29-.05.918-.12 1.256-.12m2.899-1.366c-.406.4-1.662.897-2.658 1.131m.725-.205c.348.088.112.55-.039.673a2.498 2.498 0 01-1.42.585m.106-.01c.338.147 1.005.225 1.285.04.28-.186.242-.468.02-.605m-.493 1.238c-.261-.224-1.527-.487-1.942-.565m2.17.503c.142-.045.345-.328.217-.549m-5.112-.422c.435.39 1.343.877 1.923.965.58.088 1.034-.02.734-.351-.3-.331-1.072-.644-1.468-.78m3.338 1.955c-.628-.146-1.329-.58-1.822-.892m.01-.215c.522.205 1.469.653 1.923.77m-1.053.527a7.93 7.93 0 01-1.479-.985m.368-.01c.26.215 1.043.615 1.42.82m-3.372-1.872c.464.263 1.13.585 1.614.76m-.802-.887c.676.058 1.275.214 1.951.37m-3.836 1.911c.077.156.222.361.455.449.231.088.386-.107.396-.312.01-.205-.012-.314-.042-.391M42.28 9.21c.068.585.57 1.394.996 1.648.425.253.763.156.85.029.087-.127.083-.493-.406-.76a3.622 3.622 0 01-1.014-.888m-.213.01c.077.234.676 1.014.986 1.209m-1.46-.897c.223.292.9 1.267 1.015 1.55m-.154-1.93c.154.175.802.702 1.14.838m.01.331c.183.088.318.108.444.117.125.01.203-.058.155-.214a1.088 1.088 0 00-.252-.41m-.267 1.057c.238.344 1.056.806 1.43.877m.464-.253c-.355-.176-1.16-.865-1.385-1.105m.662 2.242c-.31-.175-1.377-1.17-1.764-1.637m.84 1.72c-.299-.234-.801-.902-.956-1.106m.628-1.268c.31.283 1.034.8 1.314.995m-2.048.312c.116.244.193.448.184.526-.01.078-.03.156-.155.127m7.704-4.583c-.812.416-1.507.923-2.602 1.157m.193-.429c.773-.286 1.971-.728 3.002-1.547m-3.053 2.275c1.146-.286 2.37-.754 3.207-1.443m-.4.572c-.643.26-1.146.845-2.885 1.092m1.685.098c-.464.221-1.363.211-1.788.171m1.797.21c-.502.11-1.468.07-1.835-.02M39.37 7.45c.184-.098.208-.018.343-.156.377-.385.952-.775 1.247-.892.294-.117.42-.18.628-.176m-.66.195c.088-.041.093.2.323.114.172-.065.077-.286.151-.293m.258.56a.655.655 0 00-.27.272m-1.663.595c-.048.166-.058.38-.048.517m.03.273c-.04.166 0 .526.038.682m.068.37c.038.112.164.243.231.313m-.019-1.111c-.02.243.116.711.251.867.03.224.184.615.474.907m-.792-2.467c-.02.108-.01.273.01.41m.366-1.385c-.096.244-.125.702-.106.839.02.136-.097.438.058.897m.348-1.521c-.097.4-.087 1.13 0 1.423m-.116.127c-.049.214-.049.478.02.682m.357-2.086c-.01.302.125.731.396 1.033m-.464.04c-.029.36-.01.702.058.896.068.195.058.595.222.83m.048-1.19c.04.146.097.35.03.507m.222-.79c.077.253.116.536.106.653m.01.644c.02.214.106.458.183.594m-.502-.01c.068.205.203.479.338.586m.57-.488c.164.234.223.41.28.585M40.53 10.76c.184.02.271-.028.397.245.125.273.492.711.667.79.173.078.502.243.55.526.087-.195.194-.42.077-.673.242.302.513.576.551.76.039.186.19.42.306.547m-1.971-.013c.09-.02.251-.136.329-.221.11.058.328.169.367.41m.038.012c.078-.286-.006-.877-.283-1.365m-.709-.35c.071.214.136.494.142.662m.342-.227c.083.234.16.565.167.689m.747-.085c.065.156.103.397.09.54m.335.084c-.051-.24-.064-.812-.09-.994"/><path d="M39.754 14.99c.015-.124.026-.267.129-.358.103-.091.168-.169.258-.078.09.091.032.176-.09.215a.362.362 0 00-.226.22c-.02.072-.084.11-.07 0M40.456 15.587c-.063-.204-.032-.468.039-.546.071-.078.161-.13.245-.052.084.079.116.189-.039.254-.137.057-.148.201-.154.306-.007.103-.052.162-.09.038M41.358 15.061c-.05.084.013.423.18.507.12.06.175.046.104-.065a.246.246 0 01-.007-.273.157.157 0 00-.051-.214c-.084-.053-.187-.02-.226.045M42.086 14.755c-.106-.08-.206.017-.245.085-.077.136-.019.331.104.442.122.11.103-.039.064-.104-.039-.065-.045-.195.039-.208a.117.117 0 00.038-.215M42.692 14.976c-.104-.03-.206.078-.194.209.01.097.02.22.116.285.065.044.11.072.078-.045-.032-.117.02-.215.077-.247.058-.032.032-.169-.077-.202M43.549 14.424c-.076.053-.071.176 0 .221.07.045.173.11.154.22-.02.111.039.15.09.027.052-.123.058-.306 0-.39-.058-.085-.18-.124-.244-.078" fill="#000"/><g fill="#000" fill-rule="nonzero"><path d="M42.028 6.947c-.174.004-.303-.054-.347-.153.274-.139.467-.113.72.112l.034-.01a.559.559 0 00-.11-.508.426.426 0 00-.082-.071c-.063-.041-.115-.052-.238-.06l-.033-.003a1.842 1.842 0 01-.181-.023 1.17 1.17 0 00-.207-.025c-.106-.263-.318-.249-.845-.05-.557.208-1.06.588-1.286.97a2.061 2.061 0 00-.124.24l-.018.037a.745.745 0 01-.035.06l.02.034.031-.005a.109.109 0 00.03-.008.26.26 0 00.028-.016l-.032-.02a26.56 26.56 0 01-.01.114c-.056.588-.062.777-.002.972-.088.327-.041.587.102.73.136.139.16.176.177.291.021.148.085.276.182.355a.452.452 0 01.157.25c.01.074.307.37.444.454.016.01.028.023.042.047l.028.05a.586.586 0 00.04.063c-.057.299-.019.551.126 1.111.141.548.179.788.131 1.086.11.035.23.024.346-.005.094.763.059.914-.4 1.07-.288.1-.489.191-.608.283-.135.104-.169.214-.088.326.103.14.305.07.496-.105a.965.965 0 01.32-.21c.078-.023.084-.011.042.1-.017.044-.037.072-.154.234l-.025.035c-.092.13-.137.21-.142.273-.012.17.14.254.323.146.17-.1.346-.368.396-.569a.31.31 0 01.04-.104c-.01.007-.018 0-.017.005a.444.444 0 01.002.093 1.537 1.537 0 01-.016.145 2.627 2.627 0 00-.012.095c-.022.223.02.35.18.387.263.059.378-.237.277-.564-.09-.293-.112-.435-.078-.522.042-.107.075-.136.148-.114.139.042.317-.035.308-.188-.012-.184-.172-.303-.332-.212-.074.042-.135.058-.166.045-.029-.012-.035-.055-.006-.136.013-.037.026-.07.056-.142.063-.15.084-.21.09-.273l-.039.01c.114.168.726.187.976.036l-.032-.014c.008.04.016.077.034.143.063.244.072.34.014.465a.57.57 0 01-.166.2c-.413.333-.617.565-.608.749.012.23.116.331.293.232a.68.68 0 00.33-.373c.014-.05.036-.078.042-.077.004 0 .008.034-.007.094l-.03.117c-.01.044-.02.08-.027.115a.744.744 0 00-.02.295c.033.156.27.169.367.027.076-.111.081-.218.052-.472v-.001c-.018-.15.006-.326.045-.397.024-.04.048-.069.07-.075.025-.007.054.017.085.093l.054.131c.065.155.121.227.23.261.179.057.3-.036.27-.228-.027-.172-.195-.37-.443-.56-.095-.073-.132-.128-.136-.19a.396.396 0 01.01-.098.777.777 0 00.008-.074c.004-.06.002-.142-.005-.244a6.4 6.4 0 00-.01-.132l-.014-.154-.034.02a.585.585 0 00.088.054c.116.057.216.07.372.067h.036c.065 0 .124-.012.157-.038.05-.04.034-.101-.046-.175a.854.854 0 01-.264-.403 1.035 1.035 0 00-.05-.119.597.597 0 00-.12-.16 1.855 1.855 0 01-.487-.819c-.114-.476-.273-.854-.519-1.073-.149-.133-.208-.504-.167-.987.056-.664-.018-1.017-.378-1.22-.362-.204-.415-.373-.263-.603.169-.256.33-.398.515-.41.101-.006.181-.02.224-.05-.04-.067-.074-.082-.13-.08zm0 .043a.142.142 0 01.103.036c-.032-.01-.109.003-.2.008-.203.013-.373.163-.549.43-.166.252-.104.448.278.664.34.191.41.53.357 1.178-.042.496.018.878.18 1.023.238.211.394.584.506 1.052.067.28.269.617.499.839.049.047.084.094.112.149a1 1 0 01.048.114.895.895 0 00.275.42c.064.058.072.09.048.11-.022.018-.074.028-.13.028h-.037a.687.687 0 01-.352-.063.542.542 0 01-.082-.05l-.034.019.014.154c.004.048.008.09.01.13.007.101.01.182.005.24a.74.74 0 01-.008.07.424.424 0 00-.01.107c.006.076.049.141.153.22.24.186.401.376.426.533.025.16-.065.228-.214.181-.094-.03-.143-.092-.204-.236l-.053-.132c-.04-.093-.085-.132-.137-.117-.036.01-.066.044-.095.095-.045.08-.07.265-.05.423v.001c.027.243.023.343-.046.442-.077.114-.265.104-.29-.011a.712.712 0 01.021-.277c.007-.034.016-.07.027-.114l.03-.116c.02-.083.013-.14-.027-.147-.036-.007-.07.037-.092.106a.637.637 0 01-.309.348c-.143.08-.218.007-.229-.197-.008-.163.191-.39.592-.713a.612.612 0 00.178-.215c.063-.137.054-.24-.012-.494a2.317 2.317 0 01-.033-.14l-.032-.015c-.233.14-.82.122-.919-.023l-.039.01c-.005.057-.026.116-.086.26-.03.074-.044.106-.058.144-.035.1-.025.168.03.19.047.02.12.001.204-.047.13-.073.258.023.268.178.007.116-.138.178-.253.144-.1-.03-.15.014-.2.14-.04.099-.016.247.077.55.093.3-.007.558-.226.509-.133-.03-.168-.137-.147-.34a2.59 2.59 0 01.011-.094c.013-.092.015-.113.017-.149a.472.472 0 00-.003-.104c-.006-.03-.024-.049-.05-.032-.02.014-.04.064-.057.13-.047.19-.216.449-.376.542-.155.09-.267.029-.258-.106.004-.052.047-.128.134-.25l.025-.036c.121-.167.14-.195.159-.245.053-.139.024-.19-.094-.154a1 1 0 00-.337.219c-.174.16-.352.22-.432.11-.065-.09-.04-.174.08-.266.114-.088.31-.178.596-.276.484-.166.524-.336.4-1.135-.137.01-.251.02-.337.011.067-.281.03-.525-.114-1.078-.143-.555-.18-.803-.128-1.11-.018-.035-.03-.054-.042-.075l-.028-.05a.16.16 0 00-.057-.063c-.126-.077-.416-.366-.424-.423a.494.494 0 00-.172-.278.506.506 0 01-.166-.327c-.018-.127-.047-.17-.19-.314-.131-.133-.175-.377-.091-.701-.057-.2-.052-.387.003-.968.005-.057.008-.08.01-.115l-.032-.02a.242.242 0 01-.025.014.07.07 0 01-.018.005l-.029.004.02.033a.788.788 0 00.038-.064l.019-.038.047-.1c.022-.044.045-.087.074-.137.222-.373.717-.747 1.265-.953.505-.19.7-.202.81.041.063.013.086.016.22.038.08.013.13.02.185.023l.033.002c.117.008.163.018.217.054a.384.384 0 01.074.064.516.516 0 01.101.467l.035-.01c-.266-.237-.48-.266-.779-.09.045.145.19.21.379.206z"/><path d="M39.305 8.02c-.012.225-.003.388.036.514-.088.327-.041.587.102.73.136.139.16.176.177.291.021.148.085.276.182.355a.452.452 0 01.157.25c.01.074.307.37.444.454.016.01.028.023.042.047l.028.05a.586.586 0 00.04.063c-.05.256-.02.526.075.915-.306.24-.64.34-.872.267-.219-.07-.29-.278-.161-.545l-.033-.027c-.26.21-.635.334-.945.332-.3-.001-.443-.117-.35-.305l-.026-.03c-.766.269-1.15.124-1.016-.206l-.028-.028c-.628.252-1.126.083-1.004-.165l-.024-.03c-.522.142-.98.098-1.059-.03-.05-.081.072-.299.228-.427l-.021-.037a1.566 1.566 0 01-.802.064c-.11-.016-.158-.04-.168-.069-.007-.022-.003-.034.037-.121l.006-.014c.11-.247.15-.318.294-.454l.026-.023-.018-.037c-.628.124-1.162.146-1.535.02l-.055-.018a.221.221 0 01-.086-.042c-.012-.013-.01-.026.014-.05.136-.138.4-.323.66-.435l-.012-.04c-1.08.159-2.149.11-2.464-.247l-.02.035c.322.067.736-.024 1.181-.206l-.005-.041c-1.338-.15-2.863-1.03-2.88-1.773l-.04.012c.297.481.697.692 1.559.945l.016-.04c-.72-.423-1.134-.973-1.168-1.416l-.036.017c.57.552 1.257.975 1.876 1.079l.014-.04c-.487-.26-1.122-1.025-1.295-1.558l-.034.023c.39.351 1.32.853 1.912 1.009L32.273 7c-.549-.43-1.126-1.2-1.094-1.58l-.036.013c.207.209.677.541 1.405.969.454.266.801.389 1.257.473.064.012.126.022.224.038.275.046.35.059.493.09l.022-.035c-.111-.15-.233-.379-.244-.442l-.024.025c.218.031.43.13.968.465.267.166.589.262 1.37.444l.036.009c.624.145.9.221 1.167.338.144.064.312.103.512.126.134.016.23.021.473.03.32.01.438.026.512.076l-.01-.019zm.033-.016c-.083-.058-.204-.073-.534-.084a5.34 5.34 0 01-.47-.03 1.723 1.723 0 01-.5-.122c-.27-.119-.548-.196-1.174-.341l-.036-.009c-.776-.18-1.096-.276-1.358-.439-.543-.338-.759-.438-.984-.47l-.024.024c.012.072.137.306.252.461l.021-.034a8.97 8.97 0 00-.495-.089 10.738 10.738 0 01-.223-.038 3.5 3.5 0 01-1.243-.468c-.726-.426-1.193-.757-1.397-.962l-.036.013c-.035.4.55 1.179 1.11 1.618l.018-.038c-.585-.154-1.51-.653-1.895-1l-.034.023c.176.544.818 1.318 1.315 1.583l.013-.04c-.609-.103-1.289-.521-1.853-1.068l-.037.017c.035.46.459 1.02 1.19 1.45l.017-.038c-.853-.25-1.245-.457-1.534-.927l-.04.012c.018.772 1.561 1.663 2.918 1.815l-.006-.042c-.437.18-.845.268-1.157.204l-.02.035c.329.374 1.407.423 2.502.26l-.011-.04a2.362 2.362 0 00-.674.443c-.04.04-.044.08-.014.111.02.021.052.036.103.053l.055.018c.382.128.923.106 1.557-.019l-.018-.037-.027.024a1.093 1.093 0 00-.262.373l-.042.094-.006.014c-.047.103-.051.115-.039.153.017.05.079.079.203.098.3.045.562.03.822-.066l-.02-.037c-.172.14-.303.376-.237.483.092.15.568.195 1.106.048l-.025-.03c-.15.3.4.487 1.058.224l-.028-.028c-.154.38.277.541 1.07.263l-.026-.03c-.112.226.062.365.388.367.32.002.703-.126.972-.34l-.033-.027c-.14.29-.058.528.187.605.247.078.596-.026.92-.296-.088-.406-.116-.671-.071-.936-.018-.035-.03-.054-.042-.075l-.028-.05a.16.16 0 00-.057-.063c-.126-.077-.416-.366-.424-.423a.494.494 0 00-.172-.278.506.506 0 01-.166-.327c-.018-.127-.047-.17-.19-.314-.131-.133-.175-.377-.091-.701a1.603 1.603 0 01-.035-.512l-.009-.018z"/><path d="M43.712 13.046c.05-.04.034-.102-.046-.175a.854.854 0 01-.264-.403 1.035 1.035 0 00-.05-.119.597.597 0 00-.12-.16 1.855 1.855 0 01-.487-.819c-.114-.476-.273-.854-.519-1.073-.149-.133-.208-.504-.167-.987.047-.557.005-.871-.219-1.099l-.01.036c.511-.144.924-.155 1.062-.016.708-.17 1.293-.245 2.197-.305 1.019-.068 2.417-.488 3.335-1.109l-.033-.023c-.06.245-.408.632-.738.832l.017.04c1.268-.31 2.479-.83 3.46-1.565l-.034-.017c-.01.456-.269.812-.74 1.22l.024.034c.074-.04.632-.343.803-.44.746-.422 1.2-.769 1.421-1.154l-.039-.006c.051.208-.024.449-.21.72-.167.243-.415.5-.74.784-.173.15-.284.24-.601.493l.022.036c.068-.033.142-.067.23-.107.064-.03.287-.13.295-.133.685-.308 1.016-.507 1.21-.785l-.039-.012c-.006.48-.61 1.14-1.368 1.58l.019.04.2-.077.201-.077c.746-.288 1.18-.505 1.486-.787l-.035-.014c.044.471-1.853 1.711-3.065 2.11l.012.041c1.384-.339 2.165-.574 2.595-.834l-.032-.024c-.01.046-.06.108-.146.183a6.788 6.788 0 01-.234.183c-.525.388-1.318.66-2.18.827.061.35-.047.509-.383.533-.402.029-1.262-.132-1.66-.333a.732.732 0 01-.242.06l-.01.039c.402.304.56.535.478.663-.068.106-.303.116-.6.054l-.025.028c.08.228.006.35-.193.37-.188.019-.464-.06-.719-.206l-.027.032c.211.275.207.461-.036.512-.296.062-.507.029-.757-.134l-.033.016c-.019.19-.2.301-.427.242l-.017.039c.725.44.83.629.651.869-.13.175-.617.155-.894-.025l-.032.012c-.107.368-.54.395-.888.073l-.036.016c-.004.202-.363.42-.625.265l.002.036zm-.026-.034l.002.035c.292.172.686-.067.69-.301l-.036.015c.369.34.841.312.958-.093l-.032.012c.294.191.805.212.951.014.2-.267.08-.48-.663-.93l-.016.038c.25.066.46-.06.48-.279l-.032.016c.26.17.482.204.789.14.283-.059.289-.284.06-.58l-.027.032c.262.15.547.23.745.211.226-.023.318-.173.228-.427l-.024.028c.315.066.563.056.645-.073.1-.156-.068-.403-.488-.72l-.01.038a.553.553 0 00.237-.065c.384.205 1.253.367 1.662.338.363-.026.489-.21.406-.56.85-.142 1.648-.416 2.18-.808a6.82 6.82 0 00.115-.087c.046-.036.086-.068.121-.099.092-.08.147-.147.16-.205l-.032-.023c-.425.257-1.205.492-2.583.83l.011.04c1.232-.405 3.142-1.652 3.094-2.154l-.036-.014c-.3.277-.731.493-1.472.78l-.202.076-.2.076.019.039c.77-.449 1.383-1.117 1.389-1.618l-.039-.012c-.188.269-.515.465-1.192.77l-.296.133c-.088.04-.162.074-.23.107l.022.036c.318-.252.43-.342.603-.493.328-.286.578-.546.747-.792.193-.28.271-.533.217-.755l-.04-.006c-.216.377-.665.72-1.405 1.139-.17.096-.728.398-.802.44l.024.035c.48-.415.744-.779.755-1.251l-.034-.018c-.977.73-2.182 1.249-3.446 1.556l.017.04c.338-.205.693-.6.757-.859l-.033-.023c-.911.617-2.302 1.035-3.313 1.102-.907.06-1.495.136-2.185.312-.133-.149-.557-.138-1.083.01l-.01.037c.213.215.253.52.208 1.064-.042.496.018.878.18 1.023.238.211.394.584.506 1.052.067.28.269.617.499.839.049.047.084.094.112.149a1 1 0 01.048.114.895.895 0 00.275.42c.064.058.072.09.049.109zM34.5 6.987c.14.205.516.508.74.568l.018-.038-.728-.56-.03.03zm.035-.025l-.03.03.727.559.019-.038c-.213-.057-.58-.353-.716-.55zm.682.473a.78.78 0 00.576.782c.382.116.756.11 1.05.02l.003-.04-1.598-.78-.03.018zm.043.002l-.03.018 1.597.78.003-.04a1.789 1.789 0 01-1.025-.019.737.737 0 01-.545-.739zm1.563.758c-.419.096-.877.345-.991.557-.113.21-.055.313.168.375.6.17 1.315.01 1.854-.38l-.003-.036-1.013-.514-.015-.002zm-.004.04l1.012.514-.003-.037c-.528.383-1.23.54-1.817.374-.198-.056-.24-.13-.141-.314.107-.198.555-.442.963-.535l-.014-.002zm-.027-.107c-.016.341.66.589 1.497.454l.003-.042-1.472-.432-.028.02zm.016.021l1.472.432.002-.042c-.814.132-1.461-.106-1.447-.41l-.027.02zm.611.399a2.33 2.33 0 01-.933.307l.009.043.94-.31-.016-.04zm.02.04l-.017-.041-.94.309.009.043a2.37 2.37 0 00.948-.312zm.369-.001c-.108.349.646.527 1.513.313v-.042l-1.489-.286-.024.015zm.016.028l1.488.29v-.043c-.84.21-1.555.039-1.463-.262l-.025.015zm.38.304c-.32.187-.718.374-1.071.486l.015.04 1.076-.488-.02-.038zm.021.037l-.02-.038-1.075.488.016.04c.356-.113.756-.3 1.08-.49zm-1.606.204c-.139.204-.072.565.24.605.66.084 1.673-.336 2.131-.806l-.017-.036-2.339.227-.015.01zm.02.033l2.338-.227-.018-.037c-.449.461-1.449.875-2.094.793-.275-.034-.334-.356-.21-.538l-.016.009zm.868.475c-.204.346-.075.686.325.734.453.055 1.17-.334 1.758-1.001l-.019-.036-2.048.293-.016.01zm.022.032l2.048-.292-.019-.036c-.58.658-1.285 1.04-1.72.987-.368-.044-.483-.348-.294-.67l-.015.011zm1.811-.634c-.068.042-.139.089-.228.148l-.234.157c-.406.272-.661.419-.935.522l.019.038 1.4-.829-.022-.036zm.023.036l-.022-.037-1.401.83.018.038c.278-.104.535-.253.943-.526l.235-.157c.089-.06.16-.106.227-.148zm-.908 1.12c-.176.251-.206.392-.096.533.103.132.26.09.636-.112.102-.055.223-.133.362-.233a7.815 7.815 0 00.368-.278l.18-.144-.016-.038-1.42.263-.014.01zm.021.034l1.42-.264-.017-.038-.18.144a13.042 13.042 0 01-.367.277 3.417 3.417 0 01-.358.23c-.354.191-.499.23-.581.123-.095-.122-.07-.244.097-.481l-.014.009zm1.212-.546c-.273.183-.836.608-.97.743l.028.033.967-.741-.025-.035zm.024.036l-.025-.035-.967.74.029.033c.13-.133.692-.557.963-.738zm-.216.5c-.116.306-.026.508.206.594.264.098.53.068.766-.161l-.006-.035-.937-.41-.029.012zm.012.028l.937.41-.007-.036a.644.644 0 01-.721.151c-.21-.077-.288-.254-.18-.537l-.03.012zm-1.298 1.14c.349-.133 1.003-.545 1.29-.783l-.024-.035-1.285.78.019.039zm-.016-.04l.02.04 1.284-.78-.025-.036c-.284.235-.934.644-1.279.777zm1.48-.58c-.179.181-.572.437-.91.58l.02.039.917-.585-.027-.033zm.03.031l-.026-.033-.918.585.02.038c.343-.146.742-.405.925-.59zm-.158.598c.37-.22.809-.544.953-.716l-.03-.031-.946.712.023.035zm-.022-.037l.024.036.947-.712-.03-.031c-.14.168-.575.49-.94.707zm.96-.384a8.678 8.678 0 01-.452.534l.032.029.454-.537-.034-.026zm.035.025l-.034-.026-.454.536.032.029c.143-.154.366-.418.456-.539zm-1.815-.295c-.323.168-.717.352-1.003.467l.017.04 1.005-.468-.019-.039zm.02.038l-.02-.038-1.004.468.017.04c.287-.117.683-.301 1.007-.47zm-1.568.411c.21-.073.828-.39 1.172-.586l-.02-.038-1.169.585.017.04zm-.014-.04l.016.039 1.17-.585-.02-.038c-.343.195-.96.511-1.166.583zm-.385-.164a2.71 2.71 0 00.75-.294c.11-.06.43-.256.483-.283l-.02-.039-1.226.576.013.04zm-.009-.042l.014.04 1.227-.575-.02-.038c-.053.028-.375.224-.482.283-.256.14-.492.238-.739.29zm-.61.052c.15-.032.33-.1.534-.199.111-.054.228-.116.35-.186.179-.102.319-.19.534-.33l-.02-.037-1.411.711.014.04zm-.008-.042l.014.04 1.41-.712-.02-.037c-.216.14-.355.227-.533.328-.121.07-.237.132-.348.186-.2.097-.377.164-.523.195zm1.288-1.012c-.636.382-1.052.592-1.512.71l.015.04 1.517-.712-.02-.038zm.022.037l-.02-.038-1.517.712.014.04c.465-.119.884-.33 1.523-.714zm-2.15.53c.376-.098 1.13-.43 1.695-.744l-.019-.038-1.69.74.013.041zm-.011-.042l.014.04 1.69-.741-.018-.039c-.563.313-1.314.643-1.686.74zm1.31-.925c-.378.168-1.066.41-1.591.564l.013.04 1.594-.565-.016-.04zm.018.039l-.016-.04-1.594.565.013.041a15.318 15.318 0 001.597-.566zm-1.948.274c.455-.067 1.094-.364 1.564-.676l-.02-.037-1.556.672.012.041zm-.006-.042l.011.04 1.556-.672-.02-.038c-.466.309-1.1.604-1.547.67zm-2.417-2.78c.24.198.613.314 1.131.404l.011-.041-1.12-.4-.022.037zm.028-.033l-.021.037 1.12.4.011-.042c-.51-.089-.879-.204-1.11-.395zm-.48-.833c.57.542 1.254.928 1.964 1.013l.013-.04-1.952-1.008-.025.035zm.03-.031l-.025.035 1.952 1.007.012-.04c-.7-.084-1.375-.466-1.94-1.002zm1.564.941a.404.404 0 00-.003.376c.085.15.283.218.598.176l.011-.038-.573-.52-.033.006zm.004.026l.573.52.012-.037c-.3.04-.48-.021-.555-.154a.362.362 0 01.003-.334l-.033.005zm.24.495c-.166.357.215.624.94.4l.002-.04-.915-.37-.027.01zm.011.03l.915.37.002-.04c-.695.214-1.037-.026-.89-.341l-.027.01zm.735.063c.13.492.762.66 1.129.363l-.007-.038-1.095-.35-.027.025zm.041-.011l-.027.026 1.095.351-.007-.037c-.344.279-.938.12-1.06-.34zm-.793.085c-.538-.103-.878-.138-1.017-.076-.188.083-.208.258-.014.407.554.426 2.768.566 3.65.374l.001-.041-2.619-.663zm-.01.042l2.62.663V8.42c-.87.19-3.073.05-3.615-.366-.168-.13-.153-.264.005-.334.127-.056.466-.022.992.08h-.001zm-.85.35c-.278.092-.209.371.162.517.542.213 2.12.358 2.88.284l.003-.042-3.034-.76h-.012zm0 .04l3.035.76.003-.041c-.754.073-2.326-.072-2.86-.282-.34-.133-.395-.36-.165-.437h-.012zm-.038.335c-.126.127-.092.295.059.43.52.472 1.81.461 3.026.034l-.004-.041-3.063-.43-.018.007zm.012.036l3.063.43-.004-.042c-1.203.422-2.477.433-2.984-.025-.134-.122-.163-.262-.057-.369l-.018.006zm-.395.265a.81.81 0 01.333-.053l-.001-.045-.343.056.011.042zm-.016-.04l.011.042.343-.056v-.044a.849.849 0 00-.354.057zm-1.356-.823c.418.266.94.407 1.662.472l.008-.043-1.653-.467-.017.038zm.023-.036l-.017.039 1.652.468.008-.042c-.715-.064-1.232-.203-1.643-.465zm.669-.32a40.501 40.501 0 00.52.15c.1.03.192.062.29.1l.013-.041-.811-.252-.012.043zm.012-.043l-.012.043.811.251.014-.042a3.88 3.88 0 00-.416-.139c.027.008-.29-.081-.397-.113zm15.99.075a120.242 120.242 0 01-.98.35c-.426.145-.747.24-.948.273l.01.042 1.932-.624-.014-.041zm.015.04l-.014-.04-1.932.624.01.041c.204-.034.526-.129.954-.275.06-.02.12-.04.183-.063.213-.074.82-.294.799-.286zm-5.644 1.455c.44.242.955.2 1.017-.21l-.026-.025-.985.195-.006.04zm.02-.032l-.006.042.986-.202-.026-.025c-.056.382-.535.422-.954.185zm.926-.036c.39.23 1.085.054 1.066-.332l-1.061.292-.005.04zm.022-.038l-.005.04 1.034-.313c-.01.324-.663.489-1.03.273zm.967-.117c.47.18.916.083.995-.348l-.029-.024-.966.331v.04zm.015-.04v.04l.965-.331-.028-.024c-.072.397-.488.486-.937.315z"/><path d="M44.827 8.813c.477.09 1.035-.312.903-.663l-.04.016c.118.312-.406.69-.856.604l-.007.043zm-1.915-.618c-.18.051-.28.103-.47.225l.023.038c.186-.12.283-.17.458-.22l-.011-.043zm2.597.432c.5.101 1.11.313 1.317.49.128.108.195.204.19.278-.004.08-.097.143-.296.178-.38.068-.552.058-1.061-.039l-.008.042c.514.098.69.108 1.077.04.216-.039.326-.112.332-.219.005-.091-.07-.197-.206-.313-.215-.183-.83-.397-1.337-.499l-.008.042zm.26.056c.46-.27 1.228-.395 1.733-.28.227.052.345.139.37.246.018.085-.026.185-.11.263-.157.15-.517.236-.881.2l-.004.042c.375.038.747-.052.915-.21.093-.088.144-.202.12-.305-.027-.126-.159-.223-.4-.278-.516-.118-1.295.009-1.765.285l.022.037zm.456.145c.335-.058.949-.12 1.253-.12v-.045a9.62 9.62 0 00-1.26.121l.007.044zm4.137-1.524c-.38.374-1.586.875-2.648 1.125l.01.042c1.07-.251 2.28-.755 2.668-1.136l-.03-.031zm-1.923.962c.144.037.19.143.152.298a.709.709 0 01-.199.338c-.417.338-.822.52-1.41.58l.005.043a2.506 2.506 0 001.432-.59.75.75 0 00.213-.361c.043-.175-.013-.307-.183-.35l-.01.042zm-1.356 1.247c.394.171 1.044.21 1.305.038.277-.184.271-.486.019-.641l-.022.036c.225.139.23.403-.02.569-.247.163-.883.125-1.265-.041l-.017.04zm.834.637c-.212-.182-1.076-.406-1.952-.57l-.008.042c.863.162 1.728.386 1.932.56l.028-.032zm.221-.025c.19-.061.348-.375.228-.58l-.037.021c.105.18-.038.465-.204.518l.013.04zm-4.916-.976c.466.417 1.38.886 1.934.97.297.045.557.04.707-.02.174-.066.197-.2.046-.367-.25-.277-.851-.57-1.478-.785l-.013.04c.62.214 1.215.504 1.46.774.131.146.114.243-.03.299-.142.055-.395.06-.686.017-.546-.083-1.452-.548-1.912-.96l-.028.032zm4.546 1.752c-.513-.12-1.018-.385-1.815-.89l-.023.037c.8.507 1.309.774 1.828.895l.01-.042zm-1.825-1.066c.1.04.22.09.38.157l.441.19.087.037c.494.212.805.332 1.018.387l.01-.041c-.21-.054-.52-.175-1.012-.385l-.086-.037-.442-.19c-.16-.069-.28-.118-.38-.158l-.016.04zm.887 1.257a7.897 7.897 0 01-1.473-.98l-.029.032a7.937 7.937 0 001.484.987l.018-.039zm-1.134-.958c.115.095.333.229.648.404l.126.069.65.348.02-.037c-.04-.023-.498-.266-.65-.35a20.175 20.175 0 01-.125-.068c-.312-.174-.53-.307-.642-.4l-.027.034zm-1.949-1.05c.494.28 1.157.594 1.617.761l.015-.04c-.458-.167-1.12-.48-1.61-.76l-.022.038zm.82-.125c.31.027.618.075.974.149.143.03.29.062.48.106l.495.115.01-.042-.495-.115c-.19-.044-.338-.077-.481-.107a8.317 8.317 0 00-.979-.149l-.003.043zm-1.901 2.27c.104.211.26.381.466.46.227.085.413-.087.425-.332a.987.987 0 00-.043-.4l-.04.015c.034.091.048.204.04.383-.01.219-.17.367-.367.293-.193-.073-.343-.236-.443-.438l-.038.019zm-.408-2.016c.068.583.567 1.403 1.006 1.664.374.223.757.201.879.023.137-.2.005-.562-.414-.791-.346-.19-.797-.589-1.007-.881l-.035.025c.214.297.67.7 1.022.893.398.218.52.553.398.73-.107.156-.465.177-.821-.036-.427-.254-.92-1.062-.985-1.632l-.043.005zm.214.044c.087.262.703 1.037.994 1.22l.023-.036c-.283-.179-.893-.945-.977-1.198l-.04.014zm-.47.318c.319.42.915 1.31 1.011 1.545l.04-.016c-.098-.24-.696-1.132-1.018-1.555l-.034.026zm.86-.38c.2.227.852.725 1.149.845l.016-.04c-.29-.117-.937-.61-1.132-.833l-.032.029zm1.157 1.176c.161.077.286.106.452.119.15.012.227-.081.177-.242a1.105 1.105 0 00-.257-.419l-.03.03c.105.106.202.26.246.401.04.132-.012.197-.132.187a1.118 1.118 0 01-.438-.115l-.018.039zm.072.542c.227.328 1.033.808 1.444.887l.008-.043c-.4-.076-1.197-.55-1.417-.868l-.035.024zm1.921.593c-.306-.152-1.095-.798-1.378-1.1l-.032.029c.287.306 1.08.955 1.391 1.11l.02-.04zm-.722 1.138c-.304-.173-1.369-1.163-1.757-1.633l-.033.027c.391.474 1.46 1.468 1.77 1.643l.02-.037zm-.92.084c-.1-.078-.23-.211-.383-.387a14.861 14.861 0 01-.57-.715l-.034.026a14.899 14.899 0 00.571.717c.155.178.286.313.39.393l.026-.034zm-.356-2.341c.25.23.807.642 1.316.996l.025-.035c-.508-.354-1.063-.765-1.312-.993l-.03.032zm-.74 1.3c.123.257.19.447.182.514-.012.1-.038.13-.128.109l-.01.042c.122.028.166-.024.18-.145.01-.08-.058-.272-.185-.539l-.038.019zm7.743-3.958c-.154.08-.288.152-.536.29l-.057.033c-.87.485-1.319.686-2.004.832l.01.042c.69-.147 1.142-.35 2.015-.837l.057-.032c.247-.138.38-.21.535-.29l-.02-.038zm-2.392.767c.948-.35 1.473-.574 2.105-.94.324-.187.625-.39.903-.61l-.027-.034c-.276.22-.575.421-.898.608-.629.364-1.152.586-2.097.936l.014.04zm-.053.73c1.314-.329 2.452-.82 3.216-1.448l-.027-.033c-.758.624-1.891 1.112-3.2 1.438l.01.042zm2.795-.913a2.504 2.504 0 00-.198.09c-.094.049-.624.356-.811.45-.521.26-1.093.44-1.872.55l.006.043c.784-.11 1.36-.292 1.885-.555.188-.094.718-.401.812-.449.068-.034.131-.064.194-.089l-.016-.04zm-1.202 1.19c-.383.183-1.15.23-1.777.17l-.004.044c.634.06 1.407.014 1.799-.174l-.018-.04zm.014.38c-.46.1-1.42.08-1.827-.02l-.01.043c.414.102 1.38.123 1.846.02l-.01-.043zM39.38 7.47a.491.491 0 01.17-.058.31.31 0 00.179-.102c.35-.36.923-.762 1.239-.887.425-.17.343-.138.438-.158a.764.764 0 01.181-.016l.001-.043a.807.807 0 00-.19.017c-.059.012-.118.03-.196.06-.048.018-.252.1-.25.1-.322.128-.899.533-1.254.897a.27.27 0 01-.156.09.53.53 0 00-.182.062l.02.038zm1.558-1.028c.011-.005.02-.003.034.012l.04.047c.063.074.133.098.246.056.072-.027.108-.08.122-.154a.591.591 0 00.008-.074c.004-.05.008-.062.016-.063l-.004-.044c-.04.004-.05.03-.055.103a.558.558 0 01-.007.07c-.012.06-.039.099-.094.12-.096.036-.148.018-.2-.044l-.042-.049c-.026-.026-.052-.034-.082-.02l.018.04zm.713.341a.673.673 0 00-.28.28l.037.024a.63.63 0 01.262-.264l-.02-.04zm-1.944.881c-.044.152-.06.363-.049.524l.043-.003a1.604 1.604 0 01.047-.509l-.041-.012zm-.02.791c-.035.15-.009.5.04.693l.04-.01c-.046-.188-.071-.53-.038-.673l-.042-.01zm.107 1.066c.01.028.025.058.045.09.024.038.055.078.092.12.03.036.054.062.1.11l.03-.031a2.392 2.392 0 01-.098-.108.997.997 0 01-.088-.116.402.402 0 01-.04-.08l-.04.015zm.212-.81c-.02.25.117.724.256.885.03.265.215.645.475.907l.03-.03c-.253-.255-.433-.627-.467-.894-.137-.163-.27-.625-.252-.864l-.042-.003zm-.068-.693c-.018.1-.012.258.01.416l.042-.006a1.445 1.445 0 01-.01-.403l-.042-.007zm.378-.98a2.337 2.337 0 00-.107.85.697.697 0 01-.011.186c-.027.26-.017.459.07.715l.04-.014a1.493 1.493 0 01-.067-.697c.015-.15.016-.157.01-.196-.024-.171.023-.62.105-.828l-.04-.016zm.3.218c-.095.39-.092 1.127 0 1.435l.04-.013c-.089-.3-.092-1.029 0-1.412l-.04-.01zm-.117 1.55c-.052.23-.046.495.02.694l.04-.013a1.331 1.331 0 01-.018-.671l-.042-.01zm.376-1.4c-.01.334.145.762.402 1.049l.032-.029c-.25-.279-.401-.696-.391-1.019h-.043zm-.067 1.072c-.03.37-.009.71.059.905.017.05.03.112.046.223a20.92 20.92 0 00.037.223.988.988 0 00.142.389l.035-.025a.95.95 0 01-.135-.372 3.425 3.425 0 01-.036-.221 1.327 1.327 0 00-.049-.23c-.065-.188-.086-.523-.057-.889l-.042-.003zm.329.543l.016.061c.022.084.034.147.04.21a.45.45 0 01-.026.222l.04.017a.49.49 0 00.029-.244 1.354 1.354 0 00-.042-.216l-.016-.06-.041.01zm.251-.282c.072.234.116.521.106.646l.042.003c.011-.13-.034-.422-.107-.661l-.04.012zm.115 1.293c.019.2.099.448.187.603l.037-.021a1.63 1.63 0 01-.181-.586l-.043.004zm-.318.59c.081.243.22.495.346.595l.026-.034c-.117-.093-.252-.338-.33-.575l-.042.013zm.912.103c.135.193.191.32.277.58l.04-.014a1.916 1.916 0 00-.282-.591l-.035.025z"/><path d="M40.528 10.782l.09.007c.107.005.144.016.192.067a.591.591 0 01.097.158c.129.28.5.72.678.8.305.137.5.291.538.51l.04.006.022-.047c.121-.274.149-.44.056-.644l-.036.023.08.1c.465.558.44.526.466.651.036.171.173.406.311.556l.032-.029c-.133-.145-.267-.373-.3-.536-.03-.136.002-.096-.475-.67a7.025 7.025 0 01-.081-.1l-.036.023c.086.189.06.345-.056.608l-.021.047.04.005c-.04-.238-.245-.4-.563-.542-.167-.075-.531-.508-.656-.78a.63.63 0 00-.105-.169c-.057-.061-.104-.075-.221-.08a1.343 1.343 0 01-.087-.006l-.005.042zm.584 2.18c.089-.018.252-.131.34-.227.053.047.082.064.126.096.112.08.183.178.204.303l.042-.007a.5.5 0 00-.22-.331 1.17 1.17 0 00-.158-.094c-.108.094-.264.202-.343.219l.009.042zm.75.187c.087-.322-.026-.925-.285-1.381l-.038.021c.254.447.365 1.039.282 1.349l.041.011zm-1.033-1.715c.075.227.135.5.14.657l.044-.001a2.863 2.863 0 00-.143-.67l-.041.014zm.483.436c.08.222.16.556.167.683l.042-.002a3.394 3.394 0 00-.168-.695l-.04.014zm.915.606c.062.15.102.387.09.529l.042.004a1.383 1.383 0 00-.092-.55l-.04.017zm.466.61a3.738 3.738 0 01-.05-.468l-.021-.323a3.076 3.076 0 00-.018-.201l-.043.006c.006.04.011.103.018.198l.02.323c.016.226.031.377.052.475l.042-.01z"/></g></g></g></svg>