<svg width="32" height="32" viewBox="0 0 32 32" fill="none" xmlns="http://www.w3.org/2000/svg">
<path fill-rule="evenodd" clip-rule="evenodd" d="M16 1.5C7.99187 1.5 1.5 7.99187 1.5 16C1.5 24.0081 7.99187 30.5 16 30.5C24.0081 30.5 30.5 24.0081 30.5 16C30.5 7.99187 24.0081 1.5 16 1.5ZM0.5 16C0.5 7.43959 7.43959 0.5 16 0.5C24.5604 0.5 31.5 7.43959 31.5 16C31.5 24.5604 24.5604 31.5 16 31.5C7.43959 31.5 0.5 24.5604 0.5 16ZM16 10.5C16.2761 10.5 16.5 10.7239 16.5 11V15.5H21C21.2761 15.5 21.5 15.7239 21.5 16C21.5 16.2761 21.2761 16.5 21 16.5H16.5V21C16.5 21.2761 16.2761 21.5 16 21.5C15.7239 21.5 15.5 21.2761 15.5 21V16.5H11C10.7239 16.5 10.5 16.2761 10.5 16C10.5 15.7239 10.7239 15.5 11 15.5H15.5V11C15.5 10.7239 15.7239 10.5 16 10.5Z" fill="white"/>
</svg>
