<svg width="18" height="18" viewBox="0 0 18 18" fill="none" xmlns="http://www.w3.org/2000/svg">
<path fill-rule="evenodd" clip-rule="evenodd" d="M2.10039 2.4999C2.10039 2.27899 2.27948 2.0999 2.50039 2.0999H13.5004C13.7213 2.0999 13.9004 2.27899 13.9004 2.4999V9.4999C13.9004 9.83127 14.169 10.0999 14.5004 10.0999C14.8318 10.0999 15.1004 9.83127 15.1004 9.4999V2.4999C15.1004 1.61625 14.384 0.899902 13.5004 0.899902H2.50039C1.61674 0.899902 0.900391 1.61625 0.900391 2.4999V13.4999C0.900391 14.3836 1.61674 15.0999 2.50039 15.0999H9.50039C9.83176 15.0999 10.1004 14.8313 10.1004 14.4999C10.1004 14.1685 9.83176 13.8999 9.50039 13.8999H2.50039C2.27948 13.8999 2.10039 13.7208 2.10039 13.4999V2.4999Z" fill="white"/>
<path fill-rule="evenodd" clip-rule="evenodd" d="M15.1004 12.4999C15.1004 12.1685 14.8318 11.8999 14.5004 11.8999C14.169 11.8999 13.9004 12.1685 13.9004 12.4999V13.8999H12.5004C12.169 13.8999 11.9004 14.1685 11.9004 14.4999C11.9004 14.8313 12.169 15.0999 12.5004 15.0999H13.9004V16.4999C13.9004 16.8313 14.169 17.0999 14.5004 17.0999C14.8318 17.0999 15.1004 16.8313 15.1004 16.4999V15.0999H16.5004C16.8318 15.0999 17.1004 14.8313 17.1004 14.4999C17.1004 14.1685 16.8318 13.8999 16.5004 13.8999H15.1004V12.4999Z" fill="white"/>
</svg>
