<svg width="15" height="15" viewBox="0 0 15 15" fill="none" xmlns="http://www.w3.org/2000/svg">
<path fill-rule="evenodd" clip-rule="evenodd" d="M1.2 1.6C1.2 1.37909 1.37909 1.2 1.6 1.2H12.6C12.8209 1.2 13 1.37909 13 1.6V8.6C13 8.93137 13.2686 9.2 13.6 9.2C13.9314 9.2 14.2 8.93137 14.2 8.6V1.6C14.2 0.716344 13.4837 0 12.6 0H1.6C0.716344 0 0 0.716344 0 1.6V12.6C0 13.4837 0.716344 14.2 1.6 14.2H8.6C8.93137 14.2 9.2 13.9314 9.2 13.6C9.2 13.2686 8.93137 13 8.6 13H1.6C1.37909 13 1.2 12.8209 1.2 12.6V1.6Z" fill="#A0AFB8"/>
</svg>
