<svg width="26" height="24" viewBox="0 0 26 24" xmlns="http://www.w3.org/2000/svg">
<path d="M22.19 13.0996C22.3894 12.8996 22.4892 12.5996 22.4892 12.1996C22.4892 11.7996 22.3894 11.4996 22.19 11.3996C21.9906 11.1996 21.5917 11.0996 21.1928 11.0996H19.697V13.3996H21.1928C21.5917 13.3996 21.9906 13.2996 22.19 13.0996Z"/>
<path fill-rule="evenodd" clip-rule="evenodd" d="M20.5945 4.4L16.3065 0.2C16.3065 0 16.2068 0 16.1071 0H4.93833C4.73889 0 4.53944 0.2 4.53944 0.5V8H0.75V19H4.53944V23.5C4.53944 23.8 4.73889 24 4.93833 24H20.2953C20.5945 24 20.794 23.8 20.794 23.5V19H25.6802V8H20.794V4.7C20.794 4.6 20.6942 4.5 20.5945 4.4ZM19.8965 8H5.43693V0.9H15.6085V4.5C15.6085 4.7 15.8079 5 16.1071 5H19.5973C19.697 5 19.7967 5 19.8965 4.9V8ZM5.43693 23.1V19H19.8965V23.1H5.43693ZM16.506 4.1V1.6L18.999 4.1H16.506ZM7.83019 15.8C7.73046 16 7.53102 16.3 7.33158 16.4C7.13214 16.6 6.83298 16.7 6.53381 16.8C6.23465 16.9 5.93549 16.9 5.5366 16.9H5.43688C5.13772 16.9 4.93828 16.9 4.63912 16.8C4.33995 16.8 4.04079 16.7 3.84135 16.6C3.74163 16.55 3.61698 16.5 3.49233 16.45C3.36767 16.4 3.24302 16.35 3.1433 16.3C3.04358 16.2 2.94386 16.1 2.94386 16C2.74442 16 2.74442 15.9 2.74442 15.8C2.74442 15.75 2.76935 15.7 2.79428 15.65C2.81921 15.6 2.84414 15.55 2.84414 15.5C2.94386 15.4 3.04358 15.4 3.1433 15.4C3.24302 15.4 3.34274 15.4 3.44247 15.5C3.74162 15.7 4.04078 15.8 4.33994 15.9L4.5394 15.9C4.62904 15.9 4.73884 15.9202 4.85972 15.9424C5.00778 15.9697 5.17247 16 5.33716 16H5.43688C5.93549 16 6.23465 15.9 6.43409 15.8C6.73326 15.5 6.83298 15.3 6.83298 15C6.83298 14.8 6.73326 14.6 6.63353 14.5C6.43409 14.4 6.23465 14.3 5.83577 14.2L5.5366 14.1L4.63912 14H4.5394C4.04079 13.9 3.54219 13.7 3.34274 13.4C3.04358 13.1 2.94386 12.7 2.94386 12.2C2.94386 11.9 3.04358 11.6 3.1433 11.4C3.24302 11.1 3.44247 10.9 3.64191 10.7C3.84135 10.5 4.14051 10.4 4.43967 10.3H4.5394C4.83856 10 5.13772 10 5.43688 10C5.83577 10 6.23465 10 6.53381 10.1C6.58231 10.1162 6.63343 10.1324 6.6859 10.1491C6.95703 10.235 7.26423 10.3325 7.4313 10.5C7.63074 10.6 7.73046 10.7 7.73046 10.8V11.1C7.73046 11.2 7.63074 11.3 7.63074 11.3C7.63074 11.3 7.4313 11.4 7.33158 11.4C7.23186 11.4 7.13214 11.4 6.9327 11.3C6.83298 11.25 6.70833 11.2 6.58367 11.15C6.45902 11.1 6.33437 11.05 6.23465 11C6.09836 11.0683 5.91549 11.0433 5.74971 11.0206C5.6729 11.01 5.59975 11 5.5366 11C5.23744 11 5.038 11 4.83856 11.1C4.7887 11.1 4.76377 11.125 4.73884 11.15C4.71391 11.175 4.68898 11.2 4.63912 11.2C4.58926 11.25 4.5394 11.275 4.48953 11.3C4.43967 11.325 4.38981 11.35 4.33995 11.4C4.24023 11.5 4.14051 11.7 4.14051 11.9C4.14051 12.1 4.24023 12.3 4.33995 12.5C4.38981 12.5 4.41474 12.525 4.43967 12.55C4.4646 12.575 4.48953 12.6 4.5394 12.6C4.60103 12.6618 4.70075 12.6854 4.83856 12.718C4.92373 12.7382 5.02345 12.7618 5.13772 12.8L5.43688 13L6.13493 13.1C6.73326 13.2 7.23186 13.4 7.53102 13.7C7.83019 14 8.02963 14.4 8.02963 14.9C8.02963 15.2314 7.96119 15.4255 7.88101 15.6529C7.86441 15.7 7.84729 15.7485 7.83019 15.8ZM16.0073 16.3C16.0073 16.5 15.9076 16.7 15.8079 16.8C15.7081 16.9 15.6084 17 15.409 17C15.2095 17 15.0101 17 14.9104 16.8C14.8106 16.7 14.7109 16.5 14.7109 16.3V14H11.2207V16.4C11.2207 16.6 11.2207 16.8 11.121 16.9C11.0213 17 10.8218 17.1 10.6224 17.1C10.4229 17.1 10.3232 17.1 10.1238 16.9C10.024 16.8 9.92432 16.6 9.92432 16.4V10.7C9.92432 10.5 9.92432 10.3 10.1238 10.2C10.1772 10.1732 10.2235 10.1464 10.2664 10.1215C10.3838 10.0536 10.4764 10 10.6224 10C10.8218 10 11.0213 10 11.121 10.2C11.2207 10.3 11.3204 10.5 11.3204 10.7V13H14.7109V10.7C14.7109 10.5 14.8106 10.3 14.9104 10.2C15.0101 10.1 15.2095 10 15.409 10C15.6084 10 15.8079 10 15.9076 10.2C16.0073 10.3 16.107 10.5 16.107 10.7V16.3H16.0073ZM23.0875 13.8C22.6886 14.2 22.0903 14.4 21.3922 14.4H19.697V16.4C19.697 16.6 19.5973 16.8 19.4975 16.9C19.3978 17 19.1984 17.1 18.9989 17.1C18.7995 17.1 18.6 17.1 18.5003 16.9C18.4006 16.8 18.3009 16.6 18.3009 16.4V10.8C18.3009 10.6 18.4006 10.4 18.5003 10.3C18.6 10.2 18.7995 10.1 18.9989 10.1H21.2925C21.9906 10.1 22.5889 10.3 22.9878 10.7C23.3866 11.1 23.5861 11.6 23.5861 12.3C23.6858 12.9 23.4864 13.4 23.0875 13.8Z" />
</svg>
