<svg width="26" height="24" viewBox="0 0 26 24" fill="none" xmlns="http://www.w3.org/2000/svg">
<path d="M3.24778 7.76098C3.19177 7.76098 3.13435 7.75069 3.07905 7.72942C2.84793 7.63885 2.73591 7.38429 2.82878 7.16061C3.26692 6.10945 3.91279 5.16602 4.74795 4.35775C5.73341 3.40402 6.95211 2.68632 8.2722 2.28219C8.5097 2.20946 8.76351 2.33708 8.83937 2.56693C8.91452 2.79679 8.78266 3.04243 8.54515 3.11584C7.34559 3.48361 6.28285 4.10937 5.38672 4.97664C4.63806 5.7012 4.05883 6.54652 3.66678 7.4879C3.59588 7.65738 3.42644 7.76098 3.24778 7.76098Z" fill="white"/>
<path fill-rule="evenodd" clip-rule="evenodd" d="M10.9699 20.7597C8.10496 20.7597 5.41161 19.6798 3.3861 17.7195C-0.795366 13.6726 -0.795366 7.0871 3.3861 3.04027C5.41161 1.07998 8.10496 0 10.9699 0C13.8348 0 16.5281 1.07998 18.5537 3.04027C22.6061 6.9622 22.7311 13.2686 18.9289 17.3377L25.0241 23.1355C25.2297 23.331 25.2325 23.6501 25.0304 23.8484C24.9291 23.9485 24.7944 23.9993 24.6589 23.9993C24.5271 23.9993 24.3952 23.9513 24.2938 23.8545L18.1939 18.0522C16.2146 19.8016 13.6683 20.7597 10.9699 20.7597ZM10.9699 0.840517C8.33679 0.840517 5.8618 1.83267 4.00006 3.63446C0.156772 7.35401 0.156772 13.4057 4.00006 17.1253C5.8618 18.9271 8.33679 19.9192 10.9699 19.9192C13.603 19.9192 16.078 18.9271 17.9397 17.1253C21.783 13.4057 21.783 7.35401 17.9397 3.63446C16.0787 1.83267 13.603 0.840517 10.9699 0.840517Z" fill="white"/>
</svg>
