<svg width="46" height="46" viewBox="0 0 46 46" fill="white" xmlns="http://www.w3.org/2000/svg">
<path d="M40 16.5L38 9L45 11L40 16.5Z" />
<path fill-rule="evenodd" clip-rule="evenodd" d="M37 10C37.5523 10 38 9.55228 38 9C38 8.44772 37.5523 8 37 8C36.4477 8 36 8.44772 36 9C36 9.55228 36.4477 10 37 10ZM37 11C38.1046 11 39 10.1046 39 9C39 7.89543 38.1046 7 37 7C35.8954 7 35 7.89543 35 9C35 10.1046 35.8954 11 37 11Z" />
<path fill-rule="evenodd" clip-rule="evenodd" d="M3 20C3.55228 20 4 19.5523 4 19C4 18.4477 3.55228 18 3 18C2.44772 18 2 18.4477 2 19C2 19.5523 2.44772 20 3 20ZM3 21C4.10457 21 5 20.1046 5 19C5 17.8954 4.10457 17 3 17C1.89543 17 1 17.8954 1 19C1 20.1046 1.89543 21 3 21Z" />
<path fill-rule="evenodd" clip-rule="evenodd" d="M37.5019 8.69128L22.1313 37.3124L2.52051 18.7617L37.5019 8.69128ZM4.47957 19.2383L21.8688 35.6876L35.4982 10.3087L4.47957 19.2383Z" />
<path fill-rule="evenodd" clip-rule="evenodd" d="M22 38C22.5523 38 23 37.5523 23 37C23 36.4477 22.5523 36 22 36C21.4477 36 21 36.4477 21 37C21 37.5523 21.4477 38 22 38ZM22 39C23.1046 39 24 38.1046 24 37C24 35.8954 23.1046 35 22 35C20.8954 35 20 35.8954 20 37C20 38.1046 20.8954 39 22 39Z" />
</svg>
