<svg width="46" height="46" viewBox="0 0 46 46" fill="white" xmlns="http://www.w3.org/2000/svg">
<path d="M37 41L35 33.5L42 35.5L37 41Z" />
<path fill-rule="evenodd" clip-rule="evenodd" d="M14.7196 10.3532C16.262 7.85213 18.287 6.3277 20.4588 6.10957V11.2543C18.3969 11.2094 16.4462 10.9104 14.685 10.4097L14.7196 10.3532ZM14.143 11.3791C16.0705 11.9521 18.2075 12.2897 20.4588 12.3366V20.4588H12.0138C12.089 16.9933 12.8823 13.8419 14.143 11.3791ZM11.7402 9.30374C12.333 9.5886 12.9624 9.84706 13.6238 10.0759C13.6813 9.97787 13.7395 9.88096 13.7986 9.78522C14.5137 8.62559 15.3499 7.62561 16.2817 6.84409C14.6183 7.39829 13.0852 8.23748 11.7402 9.30374ZM10.8491 10.0689C8.04006 12.6787 6.23844 16.3579 6.09216 20.4588H10.9315C11.0052 16.9136 11.8002 13.6477 13.1021 11.0397C12.3064 10.7564 11.5529 10.4313 10.8491 10.0689ZM5.00041 20.9786C5.00014 20.9856 5 20.9927 5 20.9999C5 21.007 5.00014 21.0141 5.00041 21.0212C5.01173 29.8408 12.1593 36.9885 20.9789 37C20.9859 37.0001 20.993 37.0001 21 37.0001C21.0009 37.0001 21.0018 37.0001 21.0026 37.0001C29.838 36.9988 37.0001 29.8358 37.0001 21.0002C37.0001 12.1927 29.8835 5.04719 21.0869 5.00054C21.0579 5.00018 21.0289 5 20.9999 5C20.9936 5 20.9873 5.00011 20.981 5.00032C12.1607 5.01073 5.01208 12.1585 5.00041 20.9786ZM25.9611 6.92715C26.8783 7.69367 27.7044 8.6611 28.4157 9.77831C28.4648 9.85545 28.5134 9.93335 28.5615 10.012C29.1559 9.7994 29.7236 9.56268 30.261 9.30422C28.9814 8.28971 27.5315 7.48072 25.9611 6.92715ZM31.1519 10.0693C30.5081 10.4011 29.8225 10.7016 29.1009 10.9674C30.4658 13.5875 31.3005 16.8809 31.3772 20.4588H35.9084C35.7621 16.3581 33.9607 12.679 31.1519 10.0693ZM35.9084 21.5409H31.3772C31.2977 25.2476 30.4048 28.6487 28.9516 31.3124C29.64 31.5596 30.2966 31.8382 30.9164 32.1453C33.8598 29.5245 35.7583 25.7553 35.9084 21.5409ZM29.993 32.9037C29.4834 32.6699 28.948 32.4552 28.39 32.2617C27.6842 33.3624 26.8665 34.3162 25.9598 35.0737C27.4221 34.5584 28.7799 33.8216 29.993 32.9037ZM16.2816 35.1563C15.3498 34.3748 14.5137 33.3748 13.7986 32.2152L13.7893 32.2002C13.1665 32.4095 12.5712 32.6448 12.0074 32.9036C13.287 33.8718 14.7274 34.6384 16.2816 35.1563ZM11.0842 32.1454C8.14075 29.5246 6.2423 25.7554 6.09213 21.5409H10.9315C11.0078 25.2152 11.8589 28.5894 13.2459 31.2423C12.4854 31.5066 11.7627 31.8089 11.0842 32.1454ZM21.5441 6.10768C23.8063 6.32054 25.9068 7.85363 27.5013 10.357C25.7013 10.8871 23.6965 11.2051 21.5734 11.2536C21.5685 10.2254 21.5628 9.27864 21.5568 8.27891V8.27884V8.27854V8.27852L21.5568 8.2777C21.5527 7.59359 21.5484 6.88462 21.5441 6.10768ZM21.5783 12.3359C23.8964 12.2847 26.0927 11.9253 28.0624 11.3181C29.384 13.7896 30.2166 16.9646 30.2948 20.4588H21.5924C21.5919 16.7785 21.5865 14.3446 21.5783 12.3359ZM14.8621 31.8734C16.3857 34.2401 18.3532 35.6794 20.4588 35.8908V31.079C18.4656 31.1221 16.5763 31.4027 14.8621 31.8734ZM20.4588 29.9966C18.266 30.0421 16.1816 30.3633 14.2942 30.9092C12.9458 28.4061 12.0918 25.1432 12.0138 21.5409H20.4588V29.9966ZM21.5758 31.0798C21.5675 33.1257 21.5571 34.6597 21.5463 35.8919C23.7216 35.6864 25.7474 34.26 27.3174 31.9239C25.5654 31.4257 23.6258 31.1272 21.5758 31.0798ZM27.9052 30.9682C25.9761 30.3899 23.8357 30.0478 21.5797 29.9975C21.5871 27.7874 21.592 25.0372 21.5924 21.5409H30.2948C30.2135 25.1718 29.3178 28.4579 27.9052 30.9682Z" />
</svg>
