<svg width="20" height="18" viewBox="0 0 20 18" fill="none" xmlns="http://www.w3.org/2000/svg">
<path fill-rule="evenodd" clip-rule="evenodd" d="M2.5 8.75C2.5 3.91751 6.41751 0 11.25 0C16.0825 0 20 3.91751 20 8.75C20 13.5825 16.0825 17.5 11.25 17.5C10.9048 17.5 10.625 17.2202 10.625 16.875C10.625 16.5298 10.9048 16.25 11.25 16.25C15.3921 16.25 18.75 12.8921 18.75 8.75C18.75 4.60786 15.3921 1.25 11.25 1.25C7.10786 1.25 3.75 4.60786 3.75 8.75V9.375C3.75 9.72018 3.47018 10 3.125 10C2.77982 10 2.5 9.72018 2.5 9.375V8.75Z" fill="#18BAB4"/>
<path fill-rule="evenodd" clip-rule="evenodd" d="M0.183058 6.43062C0.427136 6.18654 0.822864 6.18654 1.06694 6.43062L3.125 8.48867L5.18306 6.43062C5.42714 6.18654 5.82286 6.18654 6.06694 6.43062C6.31102 6.67469 6.31102 7.07042 6.06694 7.3145L3.56694 9.8145C3.32286 10.0586 2.92714 10.0586 2.68306 9.8145L0.183058 7.3145C-0.0610194 7.07042 -0.0610194 6.67469 0.183058 6.43062Z" fill="#18BAB4"/>
<path fill-rule="evenodd" clip-rule="evenodd" d="M10.625 3.12256C10.9702 3.12256 11.25 3.40238 11.25 3.74756V8.74756H15C15.3452 8.74756 15.625 9.02738 15.625 9.37256C15.625 9.71774 15.3452 9.99756 15 9.99756H10.625C10.2798 9.99756 10 9.71774 10 9.37256V3.74756C10 3.40238 10.2798 3.12256 10.625 3.12256Z" fill="#18BAB4"/>
</svg>
