<svg width="30" height="28" xmlns="http://www.w3.org/2000/svg"><defs><filter x="-240%" y="-176.9%" width="580%" height="453.8%" filterUnits="objectBoundingBox" id="a"><feOffset dy="2" in="SourceAlpha" result="shadowOffsetOuter1"/><feGaussianBlur stdDeviation="5" in="shadowOffsetOuter1" result="shadowBlurOuter1"/><feColorMatrix values="0 0 0 0 1 0 0 0 0 1 0 0 0 0 1 0 0 0 0.6 0" in="shadowBlurOuter1" result="shadowMatrixOuter1"/><feMerge><feMergeNode in="shadowMatrixOuter1"/><feMergeNode in="SourceGraphic"/></feMerge></filter></defs><g filter="url(#a)" transform="matrix(0 1 1 0 8.5 7)" fill="#00BDB5" fill-rule="nonzero"><path d="M8.918 6.992a.635.635 0 1 1 .894.904L5.42 12.242a.635.635 0 0 1-.897-.003L.186 7.893a.635.635 0 0 1 .9-.898l3.89 3.898 3.942-3.9z" stroke="#00BDB5" stroke-width=".15" opacity=".9"/><path d="M8.918.184a.635.635 0 1 1 .894.903L5.42 5.433a.635.635 0 0 1-.897-.002L.186 1.084a.635.635 0 1 1 .9-.897l3.89 3.898L8.918.184z" opacity=".5"/></g></svg>