<svg width="34" height="36" viewBox="0 0 34 36" fill="none" xmlns="http://www.w3.org/2000/svg">
<path d="M26 19C26.5523 19 27 18.5523 27 18C27 17.4477 26.5523 17 26 17V19ZM7.29289 17.2929C6.90237 17.6834 6.90237 18.3166 7.29289 18.7071L13.6569 25.0711C14.0474 25.4616 14.6805 25.4616 15.0711 25.0711C15.4616 24.6805 15.4616 24.0474 15.0711 23.6569L9.41421 18L15.0711 12.3431C15.4616 11.9526 15.4616 11.3195 15.0711 10.9289C14.6805 10.5384 14.0474 10.5384 13.6569 10.9289L7.29289 17.2929ZM26 17L8 17V19L26 19V17Z" />
</svg>
