<svg width="12" height="14" viewBox="0 0 12 14" fill="none" xmlns="http://www.w3.org/2000/svg">
<path fill-rule="evenodd" clip-rule="evenodd" d="M3.49935 1.66667C3.49935 1.02233 4.02168 0.5 4.66602 0.5H7.33268C7.97701 0.5 8.49935 1.02233 8.49935 1.66667V3.16667H10.6608C10.6639 3.16664 10.667 3.16664 10.6702 3.16667H11.3327C11.6088 3.16667 11.8327 3.39052 11.8327 3.66667C11.8327 3.94281 11.6088 4.16667 11.3327 4.16667H11.1316L10.5865 11.7973C10.518 12.7567 9.71969 13.5 8.75786 13.5H3.24084C2.279 13.5 1.48069 12.7567 1.41217 11.7973L0.867123 4.16667H0.666016C0.389873 4.16667 0.166016 3.94281 0.166016 3.66667C0.166016 3.39052 0.389873 3.16667 0.666016 3.16667H1.32854C1.33165 3.16664 1.33476 3.16664 1.33786 3.16667H3.49935V1.66667ZM1.86967 4.16667L2.40963 11.726C2.44077 12.1621 2.80364 12.5 3.24084 12.5H8.75786C9.19506 12.5 9.55792 12.1621 9.58907 11.726L10.129 4.16667H1.86967ZM7.49935 3.16667H4.49935V1.66667C4.49935 1.57462 4.57397 1.5 4.66602 1.5H7.33268C7.42473 1.5 7.49935 1.57462 7.49935 1.66667V3.16667ZM4.66602 5.83333C4.94216 5.83333 5.16602 6.05719 5.16602 6.33333V10.3333C5.16602 10.6095 4.94216 10.8333 4.66602 10.8333C4.38987 10.8333 4.16602 10.6095 4.16602 10.3333V6.33333C4.16602 6.05719 4.38987 5.83333 4.66602 5.83333ZM7.33268 5.83333C7.60882 5.83333 7.83268 6.05719 7.83268 6.33333V10.3333C7.83268 10.6095 7.60882 10.8333 7.33268 10.8333C7.05654 10.8333 6.83268 10.6095 6.83268 10.3333V6.33333C6.83268 6.05719 7.05654 5.83333 7.33268 5.83333Z" fill="white"/>
</svg>
