<svg width="18" height="18" xmlns="http://www.w3.org/2000/svg"><g fill-rule="nonzero" fill="none"><path d="M9 17a8 8 0 01-8-8 8 8 0 018-8 8 8 0 018 8 8 8 0 01-8 8z" stroke="#FFF"/><g fill="#FFF"><path d="M9.015 6.66c.567.096.982.578.98 1.14 0 .264-.208.544-.624.816a3.632 3.632 0 01-.757.372.618.618 0 00-.402.787c.112.326.471.502.804.393a4.683 4.683 0 001.06-.517c.77-.502 1.19-1.12 1.19-1.85.002-1.168-.858-2.169-2.036-2.366-1.178-.198-2.33.464-2.727 1.568a.618.618 0 00.388.792.64.64 0 00.81-.38c.192-.53.747-.85 1.314-.754zM8.959 12.986a.9.9 0 100-1.8.9.9 0 000 1.8z"/></g></g></svg>