<svg width="8" height="14" viewBox="0 0 8 14" xmlns="http://www.w3.org/2000/svg">
<path stroke="none" fill-rule="evenodd" clip-rule="evenodd" d="M4.00004 0C4.55233 5.96046e-08 5.00004 0.447715 5.00004 1L5.00004 10.5858L5.9596 9.62623C6.35012 9.2357 6.98329 9.2357 7.37381 9.62623C7.76434 10.0168 7.76434 10.6499 7.37381 11.0404L4.70715 13.7071C4.51961 13.8946 4.26526 14 4.00004 14C3.73482 14 3.48047 13.8946 3.29293 13.7071L0.626267 11.0404C0.235743 10.6499 0.235743 10.0168 0.626267 9.62623C1.01679 9.2357 1.64996 9.2357 2.04048 9.62623L3.00004 10.5858L3.00004 1C3.00004 0.447715 3.44776 0 4.00004 0Z"/>
</svg>
