<svg width="30" height="30" xmlns="http://www.w3.org/2000/svg"><g fill="#222" fill-rule="nonzero"><path d="M14.527 5.308c-3.824 0-6.956 3.132-6.956 6.956 0 2.307 1.22 4.45 2.275 6.33.923 1.615 1.813 3.164 1.813 4.648v.461c0 .33.264.627.627.627h4.483c.33 0 .627-.264.627-.627v-.461c0-1.484.89-3.1 1.846-4.846 1.088-1.978 2.242-4.022 2.242-6.132 0-3.824-3.132-6.956-6.957-6.956zM12.352 26.703a.67.67 0 01-.66-.56c-.066-.363.198-.692.56-.758l4.484-.66c.363-.066.693.198.759.56.065.363-.198.693-.56.759l-4.484.66h-.1zM12.352 28.352a.67.67 0 01-.66-.56c-.066-.363.198-.693.56-.759l4.484-.66c.363-.065.693.198.759.561.065.363-.198.692-.56.758l-4.484.66h-.1zM16.176 30h-2.967a.661.661 0 01-.66-.66c0-.362.297-.659.66-.659h2.967c.362 0 .66.297.66.66 0 .362-.298.659-.66.659zM26.396 13.846h-1.649a.816.816 0 01-.824-.824c0-.462.363-.824.824-.824h1.649c.461 0 .824.362.824.824a.816.816 0 01-.824.824zM4.637 13.846H2.99a.816.816 0 01-.824-.824c0-.462.362-.824.824-.824h1.648c.462 0 .825.362.825.824a.816.816 0 01-.825.824zM23.396 8.505a.793.793 0 01-.726-.428.813.813 0 01.297-1.121l1.418-.824a.813.813 0 011.12.297c.231.395.1.89-.296 1.12l-1.418.825a.808.808 0 01-.395.131zM4.571 19.385a.793.793 0 01-.725-.429.813.813 0 01.297-1.12l1.417-.825a.813.813 0 011.121.297c.231.395.1.89-.296 1.12l-1.418.825c-.132.066-.264.132-.396.132zM19.703 4.813a.783.783 0 01-.395-.099.813.813 0 01-.297-1.12l.824-1.418a.813.813 0 011.121-.297c.396.23.528.725.297 1.121l-.824 1.418c-.132.23-.429.395-.726.395zM14.363 3.462a.816.816 0 01-.825-.825V.99c0-.462.363-.824.825-.824.461 0 .824.362.824.824v1.648a.816.816 0 01-.824.825zM9.681 4.813a.793.793 0 01-.725-.428l-.824-1.418a.813.813 0 01.297-1.12.813.813 0 011.12.296l.825 1.417c.23.396.099.89-.297 1.121a.634.634 0 01-.396.132zM5.989 8.505a.783.783 0 01-.396-.098l-1.417-.825a.813.813 0 01-.297-1.12A.813.813 0 015 6.165l1.418.824c.395.23.527.725.296 1.12-.165.232-.461.396-.725.396zM24.813 19.385a.783.783 0 01-.395-.1L23 18.463a.813.813 0 01-.297-1.121.813.813 0 011.121-.297l1.418.824c.395.23.527.725.296 1.121a.906.906 0 01-.725.396z"/></g></svg>