<?xml version="1.0" encoding="UTF-8"?>
<svg width="46px" height="48px" viewBox="0 0 46 48" version="1.1" xmlns="http://www.w3.org/2000/svg" xmlns:xlink="http://www.w3.org/1999/xlink">
    <g id="iconclose" fill-rule="nonzero">
        <path d="M11.734125,1.5512872 L7.283625,6.00692042 L11.734125,10.4625536 C12.0885,10.8173374 12.0885,11.3928754 11.734125,11.7476592 L11.734125,11.7476592 C11.37975,12.1024429 10.804875,12.1024429 10.4505,11.7476592 L6,7.29202595 L1.5495,11.7476592 C1.195125,12.1024429 0.62025,12.1024429 0.265875,11.7476592 L0.265875,11.7476592 C-0.0885,11.3928754 -0.0885,10.8173374 0.265875,10.4625536 L4.716375,6.00692042 L0.265875,1.5512872 C-0.0885,1.19650346 -0.0885,0.620965398 0.265875,0.266181661 L0.265875,0.266181661 C0.62025,-0.0886020761 1.195125,-0.0886020761 1.5495,0.266181661 L6,4.72181488 L10.4505,0.266181661 C10.804875,-0.0886020761 11.37975,-0.0886020761 11.734125,0.266181661 L11.734125,0.266181661 C12.0885,0.620965398 12.0885,1.19650346 11.734125,1.5512872 Z" id="Path"></path>
    </g>
</svg>