<svg xmlns="http://www.w3.org/2000/svg" width="30" height="30"><g fill="none" fill-rule="evenodd" stroke="#FFF" stroke-linecap="round" stroke-linejoin="round" stroke-width="1.2"><path d="M20.4 3.784l-9.106 22.432M19.695 5.521l9.075 3.685a.469.469 0 01.053.844l-3.073 1.723a1.875 1.875 0 00-.881 2.17l1 3.382a.469.469 0 01-.625.568l-9.075-3.684M9.6 3.784l9.106 22.432M10.305 5.521L1.23 9.206a.469.469 0 00-.052.844l3.072 1.723a1.875 1.875 0 01.881 2.17l-1 3.382a.469.469 0 00.625.568l9.076-3.684"/></g></svg>