<svg width="20" height="16" viewBox="0 0 20 16" fill="none" xmlns="http://www.w3.org/2000/svg">
<path d="M6.875 3V0.5" stroke="#18BAB4" stroke-linecap="round" stroke-linejoin="round"/>
<path d="M3.125 6.75H0.625" stroke="#18BAB4" stroke-linecap="round" stroke-linejoin="round"/>
<path d="M9.52661 4.09831L11.2941 2.33081" stroke="#18BAB4" stroke-linecap="round" stroke-linejoin="round"/>
<path d="M4.22331 4.09831L2.45581 2.33081" stroke="#18BAB4" stroke-linecap="round" stroke-linejoin="round"/>
<path d="M3.74986 8.82002C3.00531 7.68018 2.93702 6.22634 3.57147 5.02173C4.20591 3.81712 5.44341 3.05101 6.80453 3.02019C8.16565 2.98937 9.43655 3.6987 10.1249 4.87336" stroke="#18BAB4" stroke-linecap="round" stroke-linejoin="round"/>
<path d="M9.375 10.5C9.37497 10.709 9.38805 10.9177 9.41417 11.125C9.38805 10.9177 9.37497 10.709 9.375 10.5C9.3762 10.186 9.40773 9.87291 9.46917 9.565" stroke="#18BAB4" stroke-linecap="round" stroke-linejoin="round"/>
<path fill-rule="evenodd" clip-rule="evenodd" d="M14.3749 15.5C17.0154 15.5032 19.2032 13.4525 19.3708 10.8173C19.5383 8.18208 17.6279 5.87085 15.0082 5.53953C12.3886 5.20822 9.96285 6.97106 9.46906 9.56502C8.31172 9.0102 6.93271 9.2205 5.99336 10.0951C5.05401 10.9697 4.74589 12.3302 5.21675 13.5241C5.68761 14.7181 6.84144 15.502 8.1249 15.5H14.3749Z" stroke="#18BAB4" stroke-linecap="round" stroke-linejoin="round"/>
</svg>
