<?xml version="1.0" encoding="UTF-8"?>
<svg width="13px" height="12px" viewBox="0 0 13 12" version="1.1" xmlns="http://www.w3.org/2000/svg" xmlns:xlink="http://www.w3.org/1999/xlink">
    <!-- Generator: sketchtool 54.1 (76490) - https://sketchapp.com -->
    <desc>Created with sketchtool.</desc>
    <g id="UI-KIT" stroke="none" stroke-width="1" fill="none" fill-rule="evenodd">
        <g transform="translate(-721.000000, -4951.000000)" fill="#FFFFFF" fill-rule="nonzero" id="Group-9" stroke="#FFFFFF" stroke-width="0.3">
            <g transform="translate(506.000000, 4940.000000)">
                <g id="legend/default">
                    <g id="icon/close" transform="translate(216.000000, 12.025000)">
                        <g id="iconclose">
                            <path d="M10.7562809,1.31384686 L6.67665604,5.08749994 L10.7562809,8.86115302 C11.0811247,9.16163348 11.0811247,9.64907957 10.7562809,9.94956003 L10.7562809,9.94956003 C10.4314372,10.2500405 9.90446844,10.2500405 9.5796247,9.94956003 L5.49999983,6.17590695 L1.42037496,9.94956003 C1.09553122,10.2500405 0.568562482,10.2500405 0.243718742,9.94956003 L0.243718742,9.94956003 C-0.0811249975,9.64907957 -0.0811249975,9.16163348 0.243718742,8.86115302 L4.32334362,5.08749994 L0.243718742,1.31384686 C-0.0811249975,1.01336639 -0.0811249975,0.525920306 0.243718742,0.225439841 L0.243718742,0.225439841 C0.568562482,-0.0750406241 1.09553122,-0.0750406241 1.42037496,0.225439841 L5.49999983,3.99909292 L9.5796247,0.225439841 C9.90446844,-0.0750406241 10.4314372,-0.0750406241 10.7562809,0.225439841 L10.7562809,0.225439841 C11.0811247,0.525920306 11.0811247,1.01336639 10.7562809,1.31384686 Z" id="Path"></path>
                        </g>
                    </g>
                </g>
            </g>
        </g>
    </g>
</svg>