<svg width="12" height="12" viewBox="0 0 12 12" xmlns="http://www.w3.org/2000/svg">
<path d="M11.7342 1.54945L7.28365 6.00009L11.7342 10.4507C12.0886 10.8051 12.0886 11.38 11.7342 11.7344C11.3798 12.0888 10.8049 12.0888 10.4506 11.7344L6 7.28376L1.54943 11.7344C1.19505 12.0888 0.620166 12.0888 0.265785 11.7344C-0.0885951 11.38 -0.0885951 10.8051 0.265785 10.4507L4.71635 6.00009L0.265785 1.54945C-0.0885951 1.19507 -0.0885951 0.620176 0.265785 0.26579C0.620166 -0.0885965 1.19505 -0.0885965 1.54943 0.26579L6 4.71643L10.4506 0.26579C10.8049 -0.0885965 11.3798 -0.0885965 11.7342 0.26579C12.0886 0.620176 12.0886 1.19507 11.7342 1.54945Z" />
</svg>
