<?xml version="1.0" encoding="UTF-8"?>
<svg width="13px" height="12px" viewBox="0 0 13 12" version="1.1" xmlns="http://www.w3.org/2000/svg" xmlns:xlink="http://www.w3.org/1999/xlink">
    <!-- Generator: sketchtool 54.1 (76490) - https://sketchapp.com -->
    <title>0259732C-5F15-402F-9F41-99096BDACA2B</title>
    <desc>Created with sketchtool.</desc>
    <g id="visual" stroke-width="1" fill-rule="evenodd">
        <g id="HE-map---Legend-opacity" transform="translate(-1235.000000, -607.000000)" fill-rule="nonzero" stroke-width="0.3" fill="#ffffff">
            <g id="legend/opacity" transform="translate(1020.000000, 547.500000)">
                <g id="icon/close" transform="translate(216.000000, 60.000000)">
                    <g id="iconclose">
                        <path d="M10.7562809,1.42037496 L6.67665604,5.49999983 L10.7562809,9.5796247 C11.0811247,9.90446844 11.0811247,10.4314372 10.7562809,10.7562809 L10.7562809,10.7562809 C10.4314372,11.0811247 9.90446844,11.0811247 9.5796247,10.7562809 L5.49999983,6.67665604 L1.42037496,10.7562809 C1.09553122,11.0811247 0.568562482,11.0811247 0.243718742,10.7562809 L0.243718742,10.7562809 C-0.0811249975,10.4314372 -0.0811249975,9.90446844 0.243718742,9.5796247 L4.32334362,5.49999983 L0.243718742,1.42037496 C-0.0811249975,1.09553122 -0.0811249975,0.568562482 0.243718742,0.243718742 L0.243718742,0.243718742 C0.568562482,-0.0811249975 1.09553122,-0.0811249975 1.42037496,0.243718742 L5.49999983,4.32334362 L9.5796247,0.243718742 C9.90446844,-0.0811249975 10.4314372,-0.0811249975 10.7562809,0.243718742 L10.7562809,0.243718742 C11.0811247,0.568562482 11.0811247,1.09553122 10.7562809,1.42037496 Z" id="Path"></path>
                    </g>
                </g>
            </g>
        </g>
    </g>
</svg>