<svg width="17" height="19" viewBox="0 0 17 19" fill="none" xmlns="http://www.w3.org/2000/svg">
<path fill-rule="evenodd" clip-rule="evenodd" d="M6.5 1C5.67157 1 5 1.67157 5 2.5V12.5C5 13.3284 5.67157 14 6.5 14H14.5C15.3284 14 16 13.3284 16 12.5V5.91421C16 5.7816 15.9473 5.65443 15.8536 5.56066L11.4393 1.14645C11.3456 1.05268 11.2184 1 11.0858 1H6.5ZM4 2.5C4 1.11929 5.11929 0 6.5 0H11.0858C11.4836 0 11.8651 0.158036 12.1464 0.43934L16.5607 4.85355C16.842 5.13486 17 5.51639 17 5.91421V12.5C17 13.8807 15.8807 15 14.5 15H13V16.5C13 17.8807 11.8807 19 10.5 19H2.5C1.11929 19 0 17.8807 0 16.5V6.5C0 5.11929 1.11929 4 2.5 4H4V2.5ZM4 5H2.5C1.67157 5 1 5.67157 1 6.5V16.5C1 17.3284 1.67157 18 2.5 18H10.5C11.3284 18 12 17.3284 12 16.5V15H6.5C5.11929 15 4 13.8807 4 12.5V5Z" fill="#222222"/>
</svg>
