<?xml version="1.0" encoding="UTF-8"?>
<svg id="a" data-name="Layer 1" xmlns="http://www.w3.org/2000/svg" viewBox="0 0 722.33 722.33">
  <defs>
    <style>
      .c {
        fill-rule: evenodd;
      }
    </style>
  </defs>
  <g id="b" data-name="Duiker Antelope Silhouette">
    <path class="c" d="M189.49,153.03c-4.83,6.98-8.16-7.52-12.24-1.73-.76,10.66,6.71,13.09,8.75,20.96-7.66,4.12-19.53-9.44-27.99,0-6.04-1.53-1.55-13.58-10.48-12.24-3.45,3.65-1.34,11.61,0,15.75-3.98,1.27-8.95,1.55-12.26,3.49-5.41-24.95-35.5-34.35-62.96-31.48-1.94,39.88,30.6,60.32,57.71,76.98,2.42,1.49-2.73,25.38-3.09,28.33-1.8,14.55-6.46,29.6-3.02,44.26,4.04,17.18,18.08,28.19,28.94,41,6.36,7.5,13.05,14.76,20.26,21.44,2.57,2.36,21.65,15,21.63,17.11-.14,38.79,22.35,62.04,29.75,92.7,5.27,21.85,8.36,44.21,10.23,66.59,1.02,12.14,1.65,24.3,1.96,36.48.15,5.92.22,11.85.22,17.77,0,6.03-3.12,13.37,3.2,16.12,6.46,2.82,17.87,0,24.61-.52,5.68-.44,11.68-23.47,12.71-27.91,2.37-10.19,3.2-20.74,3.72-31.17,1.11-22.15.37-45.49,10.36-65.92,3.74-7.65,8.96-14.6,11.92-22.63,3.05-8.25,4-17.48,4.98-26.17,2.05-18.21,2.65-37.41,12.28-53.59,57.85-5.1,99.65-26.26,143.44-45.46,20.28,14.69,44.25,25.7,64.69,40.22.16,65.75-17.99,111.34-47.21,146.92-4.63,5.64-24.47,24.22-15.17,32.74,3.72,3.41,27.17-.39,31.57-3.59,5.15-3.74,8.56-12.04,10.62-17.85,1.03-2.92,1.57-6.01,2.79-8.86,2.08-4.89,5.57-6.74,9.31-10,3.94-3.44,6.51-8.01,9.32-12.6,6.03-9.85,11.49-20.05,16.29-30.56,4.05-8.88,7.78-17.64,12.24-26.23,8.77-16.86,16.84-29.79,19.25-54.25,20.17,7.15,25.51,30.25,26.46,49.3,1.27,25.34-3.54,51.02-9.56,75.53-2.02,8.21-4.25,16.36-6.69,24.45-1.29,4.26-8.96,16.82-5.27,20.69,3.61,3.78,22.05-1.02,26.55-2.01,11.17-2.45,6.96-30.77,17.88-35.11,2.96-1.19,3.31-12.69,3.67-15.19,1.18-8.18,1.61-16.56,3.04-24.65,2.65-14.95,7.62-29.42,9.76-44.48,2.22-15.62-1.15-31.14.62-46.77,1.02-8.86,7.79-19.33,5.28-29.71-7.22-29.47-65.46-1.26-56-48.99,1.36-6.84,12.13-4.01,15.93-7.42.8-.72,1.29-1.71,1.77-2.68,0-3.91,5.1-10.6,6.46-14.7,1.83-5.51,3.15-11.16,3.99-16.9,1.69-11.58,1.45-23.42-.26-34.98-3.25-21.87-12.36-43.37-26.97-60.4-16.78-19.56-40.29-31.32-63.83-40.81-26.42-10.65-54.8-17.31-83.42-16.16-28.71,1.15-56.49,9.99-83.74,19.07-18.59,6.19-37.29,12.6-54.06,22.72-11.54,6.96-22.63,15.99-35.99,19.21-13.03,3.13-27.52,1.12-38.44,10.62-7.15-1.59-9.25-8.25-17.5-8.74,6.72-26.02,1.45-66.92-22.74-66.48-3.21,11.36-.87,28.26-5.25,38.49h0Z"/>
  </g>
</svg>