<svg width="14" height="14" viewBox="0 0 14 14" fill="none" xmlns="http://www.w3.org/2000/svg">
<path fill-rule="evenodd" clip-rule="evenodd" d="M12.1583 1.84171C11.7027 1.3861 10.964 1.3861 10.5084 1.84171L9.86195 2.48816L11.5119 4.13807L12.1583 3.49162C12.6139 3.03601 12.6139 2.29732 12.1583 1.84171ZM10.8048 4.84518L9.15485 3.19526L1.50006 10.85V12.5237H3.12629L10.8048 4.84518ZM9.80129 1.1346C10.6474 0.288466 12.0193 0.288466 12.8654 1.1346C13.7116 1.98074 13.7116 3.3526 12.8654 4.19873L3.68695 13.3772C3.59318 13.471 3.466 13.5237 3.33339 13.5237H1.00006C0.723919 13.5237 0.500061 13.2998 0.500061 13.0237V10.6429C0.500061 10.5103 0.552739 10.3832 0.646508 10.2894L9.80129 1.1346Z" fill="white"/>
</svg>
