<?xml version="1.0" encoding="UTF-8" standalone="no"?>
<!-- Created with Inkscape (http://www.inkscape.org/) -->

<svg
   width="65.437561mm"
   height="52.831703mm"
   viewBox="0 0 65.437561 52.831703"
   version="1.1"
   id="svg1"
   xmlns="http://www.w3.org/2000/svg"
   xmlns:svg="http://www.w3.org/2000/svg">
  <defs
     id="defs1" />
  <g
     id="layer1"
     transform="translate(26.333731,55.508361)">
    <path
       id="path153"

       d="m -4.3144214,-55.508207 c -0.30877,0.0026 -0.6299,0.03297 -0.9649,0.09712 -2.6799,0.513171 -3.79176,1.824622 -4.9891896,1.995678 -10.59241,0.178203 -12.62336,15.371515 -11.50367,23.534781 -1.23199,1.448103 -2.89081,2.165191 -4.56155,2.965013 1.54742,0.248356 2.63573,0.04959 4.97406,-1.225918 0.36695,1.43494 0.0176,9.954911 -0.51408,13.758616 -0.52417,3.749646 -1.38093,6.1554276 -1.35955,6.3407396 0.0221,0.185322 0.0928,0.178158 0.3421,-0.03563 0.24948,-0.21382 0.37777,-0.392016 0.53457,-0.163919 0.15672,0.228079 0.58445,0.812526 0.79829,0.399137 0.21379,-0.413392 0.22091,-1.225916 0.46325,-1.703458 2.33536,-7.3562986 3.38998,-14.9286726 3.37395,-22.6171216 0.59486,-0.635941 0.8692,-1.144247 1.29009,-2.187231 1.63246,0.284382 2.99363,-1.752099 3.71963,-2.056264 0.56445,-0.08062 2.4089,-0.927458 2.67099,-0.927458 0.2620696,0 0.2016796,0.786306 0.4436596,1.249975 0.24194,0.463668 1.33032,0.282181 1.58231,-0.03029 0.252,-0.312469 -0.27233,-0.554364 0.23164,-0.675323 0.50398,-0.12096 1.39163,0.237878 1.73376,0.979132 0.34212,0.741251 0.784,1.297191 1.3542,1.710583 3.18277,2.307514 0.0542,11.866598 -1.89589,13.755942 -3.19309,3.220072 -1.98061,6.414609 0.47131,9.378812 0.26207,0.433423 0.38292,3.3867186 0.80629,3.7294276 2.22381,0.991133 3.56674,-0.326081 5.07026997,-1.598327 0.37635,1.034362 -0.43013,0.354984 -1.21967997,1.870061 -1.81854,3.489632 7.7255,2.606999 7.44906,0.917657 -0.18141,-1.108766 -0.16113,-1.220228 -0.8063,-1.875406 -0.6451,-0.655182 -0.91722,-1.683141 -0.67533,-2.1266466 0.24192,-0.443512 0.77866,-0.944386 0.75016,-2.270089 0.88216,-3.598872 -0.82853,-8.217485 0.6103,-11.680079 0.15122,0.01 2.37922,1.270066 7.6005204,1.895007 5.22128,0.624944 5.18074,0.604942 5.18074,0.604942 0,0 0.47839,1.0121 -0.006,3.863066 -0.48467,2.85097 -2.16677,6.899357 -3.32139,7.8401766 -1.15466,0.940819 -1.07203,1.863853 -1.5609,2.055373 -0.48887,0.191514 -2.20238,1.066444 -2.45185,1.71504 -0.95985,2.495673 7.46312,4.998126 8.44602,1.931532 0.35636,-1.111878 0.18536,-2.25227 0.52742,-2.523113 0.34212,-0.270841 1.15464,-1.81037 2.35204,-5.0604756 1.19743,-3.250104 4.21944,-6.186611 4.21944,-6.186611 2.81005,1.11521 3.81801,6.57261 3.8711,9.4082106 -0.0403,1.048291 -0.66375,1.653567 -1.13414,2.69417 -1.60388,3.54788 8.4046,2.145539 7.58448,-1.31323 -0.23186,-0.977732 -0.53393,-1.089313 -0.33231,-1.774729 0.20166,-0.685419 0.61473,-1.017973 -0.57467,-3.3766226 -1.42237,-2.820684 -2.82182,-12.270737 -2.45896,-12.84096 1.57976,-1.886234 2.13741,-3.716962 1.83441,-6.113555 0.0621,-0.357827 0.71981,0.339123 0.41251,2.111503 -0.11586,0.66922 -0.0509,0.606723 0.21998,1.661583 -0.17302,2.974239 0.74713,5.899308 0.66728,8.86207 0.0302,0.483823 -0.25205,2.065979 0.80631,2.872358 1.05837,0.806375 1.22948,1.511904 1.22948,1.511904 0,0 0.29286,-1.431202 -0.0109,-2.671005 -0.30238,-1.239807 -0.92568,-1.687419 -1.08963,-2.435799 -1.15727,-5.282415 1.21769,-10.585817 -0.73411,-16.870632 -3.44229,-11.084056 -9.01514,-15.398766 -20.69807,-14.511451 -4.50427,0.342093 -11.1178304,-1.197481 -15.2518104,-2.594386 h -8.7e-4 c -1.77091003,-0.922996 -3.3449,-2.282167 -5.50597,-2.263851 z m 3.87019997,36.851497 c 0,0 0.0402,0.565029 0.0702,2.036664 0.0598,2.906446 0.85306,3.280601 0.40267,4.525027 0,0 -0.05,-0.01962 -0.43299,-0.402698 -0.71908997,-0.719082 -3.10415997,-0.380907 -3.02382997,-2.227324 0.0198,-0.463668 2.66120997,-3.689757 2.98373997,-3.931669 z" />
  </g>
</svg>
