<?xml version="1.0" encoding="UTF-8"?>
<svg width="40px" height="24px" viewBox="0 0 40 24" version="1.1" xmlns="http://www.w3.org/2000/svg" xmlns:xlink="http://www.w3.org/1999/xlink">
    <title>C56668F5-A4B8-4904-8119-720DA7C49529</title>
    <g id="Page-1" stroke="none" stroke-width="1" fill="none" fill-rule="evenodd">
        <g id="HE-map---NRC-sidebar" transform="translate(-157.000000, -1730.000000)" fill="#222222" fill-rule="nonzero">
            <g id="Group-5" transform="translate(20.000000, 296.000000)">
                <g id="Group-37" transform="translate(0.000000, 1225.000000)">
                    <g id="Group-21" transform="translate(25.000000, 80.000000)">
                        <g id="Group-17" transform="translate(97.000000, 68.000000)">
                            <g id="Group-20" transform="translate(0.000000, 50.000000)">
                                <path d="M48.9987488,6 C48.4818976,6 47.9661948,6.01411194 47.4520853,6.04226161 L48.5455319,26.0123486 C48.6955525,26.0041343 48.8466368,26 48.9987488,26 L48.9987488,6 Z M44.3597396,6.38409918 C43.8466984,6.46987362 43.3368014,6.56984686 42.8305404,6.68384986 L47.2242427,26.1952665 C47.3675683,26.1629916 47.5120884,26.1346562 47.6577288,26.1103068 L44.3597396,6.38409918 Z M39.7961055,7.5503117 C39.3048053,7.72123729 38.8187136,7.90577543 38.3383375,8.10366319 L45.9561588,26.5960616 C46.0918941,26.5401463 46.2291608,26.4880349 46.3678403,26.4397877 L39.7961055,7.5503117 Z M35.5354534,9.44540545 C35.080538,9.69517676 34.6327855,9.95749735 34.192693,10.2320222 L44.7778915,27.2012171 C44.9035962,27.1228038 45.0313615,27.0479512 45.1610386,26.9767519 L35.5354534,9.44540545 Z M31.6116481,12.0516782 C31.2060809,12.3732406 30.8094982,12.7059398 30.4223652,13.0493633 L43.6946364,28.0108745 C43.8062321,27.9118786 43.9205056,27.8160129 44.0373043,27.7234065 L31.6116481,12.0516782 Z M28.1618513,15.2961831 C27.8160448,15.6812626 27.4809084,16.0758564 27.1568567,16.4795006 L42.7527933,29.0001539 C42.8461382,28.883882 42.9427257,28.7701587 43.0424256,28.659136 L28.1618513,15.2961831 Z M25.4024984,18.9221334 C25.1230139,19.3589313 24.855639,19.8035157 24.6007236,20.255391 L42.0201057,30.0821467 C42.092832,29.9532285 42.1691904,29.8262617 42.2490854,29.7013961 L25.4024984,18.9221334 Z M23.2103317,23.0813006 C23.0075979,23.5597463 22.8181622,24.0440307 22.6422931,24.5336465 L41.4648456,31.2946756 C41.5145042,31.1564272 41.5680199,31.0196166 41.6253305,30.8843652 L23.2103317,23.0813006 Z M21.752217,27.5304411 C21.6325648,28.0355769 21.5269193,28.5444872 21.4354559,29.0566784 L41.1240029,32.5725163 C41.1499366,32.4272886 41.1798495,32.2831937 41.2136949,32.1403087 L21.752217,27.5304411 Z M21.0568707,32.1868059 C21.0238388,32.700818 21.0048555,33.2165349 21,33.7335088 L40.9991179,33.9213433 C41.0005426,33.7696598 41.0060881,33.6190052 41.0157011,33.4694172 L21.0568707,32.1868059 Z" id="Oval-Copy-3" transform="translate(34.999374, 19.960672) rotate(-315.000000) translate(-34.999374, -19.960672) "></path>
                            </g>
                        </g>
                    </g>
                </g>
            </g>
        </g>
    </g>
</svg>