<svg width="16" height="17" viewBox="0 0 16 17" fill="none" xmlns="http://www.w3.org/2000/svg">
<path d="M10.9697 0.354924C11.2626 0.0620306 11.7374 0.0620306 12.0303 0.354924L15.0303 3.35492C15.1022 3.42683 15.1565 3.50971 15.1931 3.59817C15.2298 3.6866 15.25 3.78356 15.25 3.88525C15.25 3.98695 15.2298 4.08391 15.1931 4.17234C15.1565 4.2608 15.1022 4.34368 15.0303 4.41558L12.0303 7.41558C11.7374 7.70848 11.2626 7.70848 10.9697 7.41558C10.6768 7.12269 10.6768 6.64782 10.9697 6.35492L12.6893 4.63525H9C8.30964 4.63525 7.75 5.1949 7.75 5.88525V8.38525C7.75 8.79947 7.41421 9.13525 7 9.13525C6.58579 9.13525 6.25 8.79947 6.25 8.38525V5.88525C6.25 4.36647 7.48122 3.13525 9 3.13525H12.6893L10.9697 1.41558C10.6768 1.12269 10.6768 0.647817 10.9697 0.354924Z" fill="white"/>
<path d="M2.25 6.88525C2.25 6.74718 2.36193 6.63525 2.5 6.63525H4C4.41421 6.63525 4.75 6.29947 4.75 5.88525C4.75 5.47104 4.41421 5.13525 4 5.13525H2.5C1.5335 5.13525 0.75 5.91876 0.75 6.88525V14.8853C0.75 15.8518 1.5335 16.6353 2.5 16.6353H11.5C12.4665 16.6353 13.25 15.8518 13.25 14.8853V9.88525C13.25 9.47104 12.9142 9.13525 12.5 9.13525C12.0858 9.13525 11.75 9.47104 11.75 9.88525V14.8853C11.75 15.0233 11.6381 15.1353 11.5 15.1353H2.5C2.36193 15.1353 2.25 15.0233 2.25 14.8853V6.88525Z" fill="white"/>
</svg>
