<?xml version="1.0" encoding="UTF-8"?>
<svg width="87px" height="87px" viewBox="0 0 87 87" version="1.1" xmlns="http://www.w3.org/2000/svg" xmlns:xlink="http://www.w3.org/1999/xlink">
    <!-- Generator: sketchtool 54.1 (76490) - https://sketchapp.com -->
    <title>6B34108A-9A7D-4201-9183-BF979860259D</title>
    <desc>Created with sketchtool.</desc>
    <defs>
        <path d="M37.7183333,0.00583333333 C37.4633333,0 37.3875,0.000833333333 37.2816667,0.00583333333 C16.705,0.123333333 0,16.8958333 0,37.5 C0,58.1041667 16.705,74.8766667 37.2816667,74.9941667 C37.5366667,75 37.6125,74.9991667 37.7183333,74.9941667 C58.295,74.8766667 75,58.1041667 75,37.5 C75,16.8958333 58.295,0.123333333 37.7183333,0.00583333333 Z M67,20 C64.7400425,19.5342771 61.0725018,18.9413075 55.6194698,18.4891575 C53.4860365,11.1622926 50.2122196,6.70696145 47,4 C55.4704707,6.59159111 62.5899613,12.3855575 67,20 Z M68.9314507,52.1556562 C67.7221384,52.4887318 64.0723755,53.3587053 57,54 C57.9401272,49.8688688 58.5334663,44.9224481 58.6110692,39 L72,39 C71.8286269,43.6804574 70.747036,48.1247791 68.9314507,52.1556562 Z M3,39 L16.3889308,39 C16.4665337,44.920791 17.0598728,49.8672117 18,54 C10.924391,53.3603624 7.27462815,52.4895603 6.06935762,52.1556562 C4.25377236,48.1247791 3.1721815,43.6804574 3,39 Z M6.06935762,22.8436171 C7.27786161,22.5105231 10.9276245,21.6405016 18,21 C17.0598728,25.1313594 16.4665337,30.0780534 16.3889308,36 L3,36 C3.1721815,31.3192841 4.25377236,26.8747169 6.06935762,22.8436171 Z M39,20 C45.0787375,20.0269516 50.1109371,20.2358267 54.211402,20.5297679 C55.2479569,24.6811602 55.9176413,29.7665947 56,36 L39,36 L39,20 Z M39,17.55202 L39,3 C41.9536546,3.53757602 49.160249,6.07477194 53,18 C49.1433018,17.7491312 44.5110676,17.5756407 39,17.55202 Z M36,3 L36,17.5512055 C30.4889324,17.5748262 25.8566982,17.7483167 22,18 C25.840558,6.07477194 33.0463454,3.53757602 36,3 Z M36,20 L36,36 L19,36 C19.0840184,29.7665947 19.7520063,24.6811602 20.7893423,20.5297679 C24.8896066,20.2358267 29.9232237,20.0269516 36,20 Z M19,39 L36,39 L36,55 C29.9226892,54.9730484 24.8901502,54.7641733 20.7900866,54.4702321 C19.7528013,50.3188398 19.0831825,45.2334053 19,39 Z M36,57.4487945 L36,72 C33.0463454,71.462424 25.840558,68.9252281 22,57 C25.8566982,57.2524978 30.4889324,57.4259883 36,57.4487945 Z M39,72 L39,57.4487214 C44.5110676,57.4259189 49.1433018,57.2524567 53,57 C49.158635,68.9298007 41.9480055,71.4633259 39,72 Z M39,55 L39,39 L56,39 C55.915158,45.2334053 55.2472355,50.3188398 54.2108328,54.4702321 C50.1093062,54.7641733 45.0753498,54.9730484 39,55 Z M58.6109824,36 C58.5333836,30.078882 57.9400765,25.132188 57,21 C64.0703778,21.639673 67.7215606,22.5088659 68.9308078,22.8436171 C70.7462952,26.8738883 71.8278278,31.3192841 72,36 L58.6109824,36 Z M27,4 C23.7870817,6.70696145 20.513401,11.1622926 18.380889,18.4891575 C12.9280839,18.9413075 9.25986349,19.5342771 7,20 C11.4106875,12.3864058 18.5298818,6.59243943 27,4 Z M7,55 C9.25986349,55.4665712 12.9280839,56.0586925 18.380889,56.5108425 C20.5142334,63.8377074 23.7870817,68.2930385 27,71 C18.5298818,68.4092572 11.4106875,62.6152908 7,55 Z M47,71 C50.2122196,68.2930385 53.4868689,63.8377074 55.6194698,56.5108425 C61.0725018,56.0586925 64.7400425,55.4657229 67,55 C62.5899613,62.6127459 55.4704707,68.4067123 47,71 Z" id="path-1"></path>
        <filter x="-12.0%" y="-12.0%" width="124.0%" height="124.0%" filterUnits="objectBoundingBox" id="filter-2">
            <feOffset dx="0" dy="0" in="SourceAlpha" result="shadowOffsetOuter1"></feOffset>
            <feGaussianBlur stdDeviation="3" in="shadowOffsetOuter1" result="shadowBlurOuter1"></feGaussianBlur>
            <feColorMatrix values="0 0 0 0 0.333333333   0 0 0 0 1   0 0 0 0 0.976470588  0 0 0 0.25169837 0" type="matrix" in="shadowBlurOuter1"></feColorMatrix>
        </filter>
    </defs>
    <g id="visual" stroke="none" stroke-width="1" fill="none" fill-rule="evenodd">
        <g id="HE-map---about---navigation2" transform="translate(-300.000000, -446.000000)">
            <g id="Group-121" transform="translate(306.000000, 451.000000)">
                <g id="Group-29" transform="translate(0.000000, 1.000000)">
                    <g id="Group-23">
                        <path d="M38.7070313,19.9875488 C39.0249023,19.1691895 44.2135417,19.2994792 54.2729492,20.378418 C56.7356771,30.960612 57.3935547,36.251709 56.246582,36.251709 C55.0996094,36.251709 49.1204427,36.251709 38.309082,36.251709 C38.2565104,26.2272949 38.3891602,20.8059082 38.7070313,19.9875488 Z" id="Path-11" fill="#BAFAFC"></path>
                        <g id="Shape" fill-rule="nonzero">
                            <use fill="black" fill-opacity="1" filter="url(#filter-2)" xlink:href="#path-1"></use>
                            <use fill="#18BAB4" xlink:href="#path-1"></use>
                        </g>
                    </g>
                </g>
            </g>
        </g>
    </g>
</svg>