<svg xmlns="http://www.w3.org/2000/svg" xmlns:xlink="http://www.w3.org/1999/xlink" viewBox="0 0 87 87">
  <defs/>
  <defs>
    <filter id="a" width="124%" height="124%" x="-12%" y="-12%" filterUnits="objectBoundingBox">
      <feOffset in="SourceAlpha" result="shadowOffsetOuter1"/>
      <feGaussianBlur in="shadowOffsetOuter1" result="shadowBlurOuter1" stdDeviation="3"/>
      <feColorMatrix in="shadowBlurOuter1" values="0 0 0 0 0.333333333 0 0 0 0 1 0 0 0 0 0.976470588 0 0 0 0.25169837 0"/>
    </filter>
    <path id="b" d="M37.718.006a5.484 5.484 0 00-.436 0C16.705.123 0 16.896 0 37.5s16.705 37.377 37.282 37.494c.255.006.33.005.436 0C58.295 74.877 75 58.104 75 37.5S58.295.123 37.718.006zM67 20c-2.26-.466-5.927-1.059-11.38-1.51C53.485 11.161 50.211 6.706 47 4c8.47 2.592 15.59 8.386 20 16zm1.931 32.156C67.722 52.489 64.072 53.359 57 54c.94-4.131 1.533-9.078 1.611-15H72a35.104 35.104 0 01-3.069 13.156zM3 39h13.389c.078 5.92.67 10.867 1.611 15-7.076-.64-10.725-1.51-11.93-1.844A35.12 35.12 0 013 39zm3.07-16.156C7.277 22.51 10.927 21.64 18 21c-.94 4.131-1.533 9.078-1.611 15H3a35.124 35.124 0 013.07-13.156zM39 20c6.079.027 11.11.236 15.211.53C55.248 24.68 55.918 29.767 56 36H39V20zm0-2.448V3c2.954.538 10.16 3.075 14 15-3.857-.25-8.489-.424-14-.448zM36 3v14.551c-5.511.024-10.143.197-14 .449C25.84 6.075 33.046 3.538 36 3zm0 17v16H19c.084-6.233.752-11.319 1.79-15.47 4.1-.294 9.133-.503 15.21-.53zM19 39h17v16c-6.077-.027-11.11-.236-15.21-.53C19.753 50.32 19.083 45.233 19 39zm17 18.449V72c-2.954-.538-10.16-3.075-14-15 3.857.252 8.489.426 14 .449zM39 72V57.449c5.511-.023 10.143-.197 14-.449-3.841 11.93-11.052 14.463-14 15zm0-17V39h17c-.085 6.233-.753 11.319-1.79 15.47-4.1.294-9.135.503-15.21.53zm19.611-19c-.078-5.921-.67-10.868-1.611-15 7.07.64 10.722 1.509 11.93 1.844A35.122 35.122 0 0172 36H58.611zM27 4c-3.213 2.707-6.487 7.162-8.62 14.49C12.929 18.94 9.26 19.533 7 20c4.41-7.614 11.53-13.408 20-16zM7 55c2.26.467 5.928 1.059 11.38 1.51C20.515 63.839 23.788 68.294 27 71c-8.47-2.59-15.59-8.385-20-16zm40 16c3.212-2.707 6.487-7.162 8.62-14.49C61.072 56.06 64.74 55.467 67 55c-4.41 7.613-11.53 13.407-20 16z"/>
  </defs>
  <g fill="none" fill-rule="evenodd">
    <path fill="#BAFAFC" d="M44.707 25.988c.318-.819 5.507-.689 15.566.39 2.463 10.583 3.12 15.874 1.974 15.874H44.309c-.052-10.025.08-15.446.398-16.264z"/>
    <g fill-rule="nonzero" transform="translate(6 6)">
      <use fill="#000" filter="url(#a)" xlink:href="#b"/>
      <use fill="#18BAB4" xlink:href="#b"/>
    </g>
  </g>
</svg>
