<svg width="104" height="102" viewBox="0 0 104 102" fill="none" xmlns="http://www.w3.org/2000/svg">
<path fill-rule="evenodd" clip-rule="evenodd" d="M53.0991 30.6972C53.4948 29.7283 59.9537 29.8825 72.4758 31.16C75.5414 43.6894 76.3604 49.954 74.9326 49.954C73.5048 49.954 66.0619 49.954 52.6038 49.954C52.5383 38.0851 52.7035 31.6662 53.0991 30.6972Z" fill="#BAFAFC"/>
<g filter="url(#filter0_d_1188_35183)">
<path d="M52.3313 6.00488C52.0217 5.99788 51.9297 5.99888 51.8012 6.00488C26.8221 6.14589 6.54297 26.2738 6.54297 51C6.54297 75.7262 26.8221 95.8541 51.8012 95.9951C52.1107 96.0021 52.2028 96.0011 52.3313 95.9951C77.3104 95.8541 97.5895 75.7262 97.5895 51C97.5895 26.2738 77.3104 6.14589 52.3313 6.00488ZM87.8779 29.999C85.1344 29.4401 80.6821 28.7285 74.0624 28.1859C71.4725 19.3933 67.4983 14.0466 63.5988 10.7981C73.8815 13.9082 82.5243 20.8613 87.8779 29.999ZM90.2225 68.5876C88.7545 68.9873 84.3239 70.0313 75.7383 70.8009C76.8796 65.8433 77.5999 59.9074 77.6941 52.8001H93.9476C93.7396 58.4169 92.4266 63.7503 90.2225 68.5876ZM10.1848 52.8001H26.4384C26.5326 59.9054 27.2529 65.8414 28.3941 70.8009C19.8047 70.0333 15.374 68.9883 13.9109 68.5876C11.7069 63.7503 10.3938 58.4169 10.1848 52.8001ZM13.9109 33.4115C15.378 33.0118 19.8086 31.9677 28.3941 31.1991C27.2529 36.1569 26.5326 42.0932 26.4384 49.1999H10.1848C10.3938 43.5828 11.7069 38.2491 13.9109 33.4115ZM53.8872 29.999C61.2665 30.0314 67.3753 30.282 72.3531 30.6348C73.6114 35.6167 74.4244 41.7195 74.5244 49.1999H53.8872V29.999ZM53.8872 27.0613V9.59805C57.4728 10.2432 66.2212 13.288 70.8825 27.5989C66.2006 27.2978 60.5773 27.0896 53.8872 27.0613ZM50.2453 9.59805V27.0603C43.5551 27.0887 37.9318 27.2969 33.2499 27.5989C37.9122 13.288 46.6597 10.2432 50.2453 9.59805ZM50.2453 29.999V49.1999H29.6081C29.7101 41.7195 30.521 35.6167 31.7803 30.6348C36.7578 30.282 42.8684 30.0314 50.2453 29.999ZM29.6081 52.8001H50.2453V72.001C42.8677 71.9687 36.7585 71.718 31.7812 71.3652C30.522 66.3833 29.7091 60.2805 29.6081 52.8001ZM50.2453 74.9397V92.4019C46.6597 91.7568 37.9122 88.7121 33.2499 74.4011C37.9318 74.7041 43.5551 74.9123 50.2453 74.9397ZM53.8872 92.4019V74.9396C60.5773 74.9122 66.2006 74.7041 70.8825 74.4011C66.2193 88.7175 57.4659 91.7579 53.8872 92.4019ZM53.8872 72.001V52.8001H74.5244C74.4214 60.2805 73.6105 66.3833 72.3524 71.3652C67.3733 71.718 61.2623 71.9687 53.8872 72.001ZM77.694 49.1999C77.5998 42.0942 76.8795 36.1579 75.7383 31.1991C84.3214 31.9667 88.7538 33.0098 90.2218 33.4115C92.4257 38.2481 93.7386 43.5828 93.9476 49.1999H77.694ZM39.3197 10.7981C35.4194 14.0466 31.4453 19.3933 28.8565 28.1859C22.2371 28.7285 17.784 29.4401 15.0406 29.999C20.395 20.8623 29.0374 13.9092 39.3197 10.7981ZM15.0406 72.001C17.784 72.5609 22.2371 73.2715 28.8565 73.8141C31.4463 82.6067 35.4194 87.9534 39.3197 91.2019C29.0374 88.0928 20.395 81.1398 15.0406 72.001ZM63.5988 91.2019C67.4983 87.9534 71.4735 82.6067 74.0624 73.8141C80.6821 73.2715 85.1344 72.5599 87.8779 72.001C82.5243 81.1367 73.8815 88.0898 63.5988 91.2019Z" fill="black"/>
</g>
<path d="M52.3313 6.00488C52.0217 5.99788 51.9297 5.99888 51.8012 6.00488C26.8221 6.14589 6.54297 26.2738 6.54297 51C6.54297 75.7262 26.8221 95.8541 51.8012 95.9951C52.1107 96.0021 52.2028 96.0011 52.3313 95.9951C77.3104 95.8541 97.5895 75.7262 97.5895 51C97.5895 26.2738 77.3104 6.14589 52.3313 6.00488ZM87.8779 29.999C85.1344 29.4401 80.6821 28.7285 74.0624 28.1859C71.4725 19.3933 67.4983 14.0466 63.5988 10.7981C73.8815 13.9082 82.5243 20.8613 87.8779 29.999ZM90.2225 68.5876C88.7545 68.9873 84.3239 70.0313 75.7383 70.8009C76.8796 65.8433 77.5999 59.9074 77.6941 52.8001H93.9476C93.7396 58.4169 92.4266 63.7503 90.2225 68.5876ZM10.1848 52.8001H26.4384C26.5326 59.9054 27.2529 65.8414 28.3941 70.8009C19.8047 70.0333 15.374 68.9883 13.9109 68.5876C11.7069 63.7503 10.3938 58.4169 10.1848 52.8001ZM13.9109 33.4115C15.378 33.0118 19.8086 31.9677 28.3941 31.1991C27.2529 36.1569 26.5326 42.0932 26.4384 49.1999H10.1848C10.3938 43.5828 11.7069 38.2491 13.9109 33.4115ZM53.8872 29.999C61.2665 30.0314 67.3753 30.282 72.3531 30.6348C73.6114 35.6167 74.4244 41.7195 74.5244 49.1999H53.8872V29.999ZM53.8872 27.0613V9.59805C57.4728 10.2432 66.2212 13.288 70.8825 27.5989C66.2006 27.2978 60.5773 27.0896 53.8872 27.0613ZM50.2453 9.59805V27.0603C43.5551 27.0887 37.9318 27.2969 33.2499 27.5989C37.9122 13.288 46.6597 10.2432 50.2453 9.59805ZM50.2453 29.999V49.1999H29.6081C29.7101 41.7195 30.521 35.6167 31.7803 30.6348C36.7578 30.282 42.8684 30.0314 50.2453 29.999ZM29.6081 52.8001H50.2453V72.001C42.8677 71.9686 36.7585 71.718 31.7812 71.3652C30.522 66.3833 29.7091 60.2805 29.6081 52.8001ZM50.2453 74.9397V92.4019C46.6597 91.7568 37.9122 88.712 33.2499 74.4011C37.9318 74.7041 43.5551 74.9123 50.2453 74.9397ZM53.8872 92.4019V74.9396C60.5773 74.9122 66.2006 74.7041 70.8825 74.4011C66.2193 88.7175 57.4659 91.7579 53.8872 92.4019ZM53.8872 72.001V52.8001H74.5244C74.4214 60.2805 73.6105 66.3833 72.3524 71.3652C67.3733 71.718 61.2623 71.9686 53.8872 72.001ZM77.694 49.1999C77.5998 42.0942 76.8795 36.1579 75.7383 31.1991C84.3214 31.9667 88.7538 33.0098 90.2218 33.4115C92.4257 38.2481 93.7386 43.5828 93.9476 49.1999H77.694ZM39.3197 10.7981C35.4194 14.0466 31.4453 19.3933 28.8565 28.1859C22.2371 28.7285 17.784 29.4401 15.0406 29.999C20.395 20.8623 29.0374 13.9092 39.3197 10.7981ZM15.0406 72.001C17.784 72.5609 22.2371 73.2715 28.8565 73.8141C31.4463 82.6067 35.4194 87.9534 39.3197 91.2019C29.0374 88.0929 20.395 81.1398 15.0406 72.001ZM63.5988 91.2019C67.4983 87.9534 71.4735 82.6067 74.0624 73.8141C80.6821 73.2715 85.1344 72.5599 87.8779 72.001C82.5243 81.1367 73.8815 88.0898 63.5988 91.2019Z" fill="#18BAB4"/>
<defs>
<filter id="filter0_d_1188_35183" x="0.542969" y="0" width="103.046" height="102" filterUnits="userSpaceOnUse" color-interpolation-filters="sRGB">
<feFlood flood-opacity="0" result="BackgroundImageFix"/>
<feColorMatrix in="SourceAlpha" type="matrix" values="0 0 0 0 0 0 0 0 0 0 0 0 0 0 0 0 0 0 127 0" result="hardAlpha"/>
<feOffset/>
<feGaussianBlur stdDeviation="3"/>
<feColorMatrix type="matrix" values="0 0 0 0 0.333333 0 0 0 0 1 0 0 0 0 0.976471 0 0 0 0.251698 0"/>
<feBlend mode="normal" in2="BackgroundImageFix" result="effect1_dropShadow_1188_35183"/>
<feBlend mode="normal" in="SourceGraphic" in2="effect1_dropShadow_1188_35183" result="shape"/>
</filter>
</defs>
</svg>
