<svg width="31" height="22" xmlns="http://www.w3.org/2000/svg" fill="#0A212E">
  <g fill-rule="nonzero">
    <path d="M15.938 13.813a2.812 2.812 0 1 0 0-5.626H7.153l.88-.781a2.884 2.884 0 1 0-3.832-4.312L.315 6.55A.938.938 0 0 0 1.56 7.951l3.888-3.455a1.01 1.01 0 0 1 1.34 1.508l-2.723 2.42c-.645.573-.24 1.638.622 1.638h11.25a.937.937 0 1 1 0 1.875H7.5a.937.937 0 0 0-.938.938v1.875a4.687 4.687 0 0 1-4.687 4.687H.936a.937.937 0 1 0 0 1.875h.939a6.562 6.562 0 0 0 6.563-6.562v-.938h7.5z"/>
    <path d="M11.48 17.188a10.312 10.312 0 1 0 0-12.375.937.937 0 1 0 1.5 1.125 8.438 8.438 0 1 1 0 10.125.937.937 0 1 0-1.5 1.125z"/>
    <path d="M11.48 17.188a10.312 10.312 0 1 0 0-12.375.937.937 0 1 0 1.5 1.125 8.438 8.438 0 1 1 0 10.125.937.937 0 1 0-1.5 1.125z"/>
  </g>
</svg>
