<svg width="38" height="37" viewBox="0 0 38 37" fill="none" xmlns="http://www.w3.org/2000/svg">
<g filter="url(#filter0_d_3326_16)">
<path d="M19.0285 32.6778C26.7151 32.6778 32.9462 26.5131 32.9462 18.9085C32.9462 11.3039 26.7151 5.13916 19.0285 5.13916C11.342 5.13916 5.11084 11.3039 5.11084 18.9085C5.11084 26.5131 11.342 32.6778 19.0285 32.6778Z" fill="#A0AFB8"/>
<path fill-rule="evenodd" clip-rule="evenodd" d="M8.39621 12.5362C8.39596 12.5367 8.39468 12.5392 8.39417 12.5398C8.39046 12.5478 8.3879 12.5532 8.39621 12.5362ZM9.50306 15.1216H9.50332C9.48172 15.1025 9.4913 15.1113 9.50306 15.1216ZM28.5527 22.3212C28.5527 22.3209 28.5529 22.3207 28.5529 22.3207C28.5557 22.2931 28.5582 22.2662 28.5527 22.3212ZM8.95637 14.4614C8.95611 14.4619 8.95496 14.4639 8.95445 14.4647C8.94819 14.4766 8.94308 14.4862 8.95637 14.4614ZM28.7749 14.311L28.7747 14.3108C28.7516 14.2955 28.7289 14.2803 28.7749 14.311ZM29.1394 24.3574C29.1399 24.3572 29.1417 24.3559 29.1422 24.3556C29.153 24.347 29.1618 24.3401 29.1394 24.3574ZM15.56 25.0795V25.0793C15.5477 25.0696 15.5354 25.0599 15.56 25.0795ZM13.3953 13.4187C13.3943 13.4194 13.3938 13.4201 13.3929 13.4209C13.4397 13.3824 13.4186 13.3996 13.3953 13.4187ZM13.3951 13.4191C13.3948 13.4194 13.3943 13.4194 13.3941 13.4196C13.3698 13.4397 13.3463 13.4588 13.3951 13.4191ZM17.752 7.09807C17.763 7.10528 17.7224 7.09782 17.6746 7.08694C17.7314 7.10224 17.77 7.1097 17.752 7.09807ZM30.7323 24.155C30.7574 24.1508 30.6563 24.3399 30.6026 24.3433C30.5486 24.3468 30.6848 24.1622 30.7323 24.155ZM30.3853 22.8922C30.3943 22.8878 30.0808 22.9077 30.0945 22.9118C30.0449 22.8555 30.0549 22.8047 30.1229 22.7584C30.109 22.7674 30.1012 22.7725 30.1236 22.7575C30.1958 22.7107 30.1516 22.7396 30.1252 22.7568C30.256 22.6742 30.5355 22.8191 30.3853 22.8922ZM30.0486 20.7982C30.0391 20.7807 30.0224 20.7695 30.01 20.7549C29.9732 20.8883 29.599 21.1975 29.8089 20.7151C29.9216 20.4566 29.4796 20.7187 29.4808 20.7194C29.3572 20.6564 29.6723 20.3719 29.7494 20.3873C29.7721 20.4229 29.7841 20.4623 29.7848 20.5052C29.8406 20.6328 30.0014 20.217 30.0463 20.2027C30.1967 20.1553 30.1027 20.8428 30.0486 20.7982ZM29.7297 23.008C29.6687 22.9641 29.7332 22.783 29.8614 22.8803C29.8873 22.8997 29.7904 23.0514 29.7297 23.008ZM29.142 24.355C29.1302 24.3642 29.1159 24.3754 29.1394 24.3566C29.1161 24.3752 28.8815 24.5116 28.8787 24.4971C28.8468 24.3129 29.6023 23.863 29.6544 23.9541C29.6884 24.0116 29.1931 24.3165 29.142 24.355ZM28.5344 24.1473C28.5279 24.1283 28.766 24.1109 28.9269 24.0665C28.8442 24.2389 28.5548 24.2022 28.5344 24.1473ZM28.2064 22.9874C28.0371 23.1928 27.8712 22.9982 27.7594 22.8519C27.7878 22.8892 27.4952 23.0705 27.4933 22.9817C27.4898 22.8104 27.2587 22.6502 27.2141 22.4178C27.1562 22.1212 27.3008 21.6397 27.5997 21.875C27.6771 21.9357 28.5555 20.8153 28.7301 20.7776C28.6409 20.7968 29.0595 21.0914 29.0557 21.0813C29.087 21.1688 28.8187 21.3229 28.7699 21.3476C28.6175 21.4251 28.7549 21.7541 28.7854 21.8624C28.8121 21.9574 28.5652 22.1987 28.5529 22.3183C28.5503 22.3438 28.5478 22.3702 28.5527 22.3187C28.5365 22.4903 28.3243 22.8445 28.2064 22.9874ZM28.4557 24.5228C28.3566 24.613 28.2426 24.4599 28.3414 24.3728C28.3942 24.3277 28.5556 24.4336 28.4557 24.5228ZM27.9585 24.3096C27.9619 24.3332 27.9651 24.3559 27.958 24.309C27.9515 24.2619 27.9549 24.2847 27.9582 24.3081C27.9455 24.1986 28.4205 24.0281 28.3694 24.1788C28.346 24.2506 27.9761 24.4083 27.9585 24.3096ZM26.6879 24.1515C26.5686 24.1304 26.3357 24.1204 26.2498 24.015C26.1425 23.8835 26.3863 23.7701 26.4847 23.8033C26.5508 23.8255 26.8512 23.8296 26.8503 23.811C26.8681 24.1499 27.1259 23.747 27.1955 23.8262C27.2392 23.8763 27.696 24.1622 27.7041 24.113C27.6375 24.5183 26.9211 24.1927 26.6879 24.1515ZM26.02 23.7447C25.9021 23.4672 25.5358 23.2053 25.4915 22.8975C25.4575 22.6601 25.1625 22.413 25.191 22.1589C25.21 21.9753 24.7075 21.5493 24.6055 21.365C24.5093 21.1908 24.6957 21.166 24.8001 21.2526C24.8647 21.2469 24.9291 21.2395 24.9931 21.2304C25.0878 21.2936 25.1454 21.3815 25.1662 21.4941C25.4413 22.036 26.0284 22.0914 26.1334 22.6733C26.1182 22.5879 26.3803 23.0938 26.2873 23.028C26.3354 23.0618 26.5797 23.0137 26.5257 23.1371C26.4569 23.294 26.4278 23.5211 26.3526 23.6597C26.3389 23.6852 26.0256 23.7575 26.02 23.7447ZM25.1539 22.6802C25.1165 22.6424 25.0764 22.4504 25.1396 22.4276C25.1269 22.4323 25.2009 22.4096 25.1396 22.4276C25.3101 22.3773 25.2351 22.7617 25.1539 22.6802ZM26.4661 22.8345C26.5691 22.774 26.7167 22.9493 26.6469 23.0361C26.6592 23.0211 26.6714 23.0059 26.6469 23.0364C26.6282 23.0586 26.2954 22.9345 26.4661 22.8345ZM26.9267 23.0795C26.9049 23.007 26.9489 23.1511 26.9267 23.0795C26.9905 23.2852 26.7485 23.1373 26.7446 23.1554C26.7823 23.0533 26.8428 23.0282 26.9267 23.0795ZM28.1276 15.962C28.1128 15.9669 28.0972 15.9722 28.1278 15.9619C28.1535 15.9534 28.1413 15.9575 28.128 15.9619C28.2741 15.914 28.1845 16.7082 28.1454 16.6774C28.0237 16.582 27.9846 16.0113 28.1276 15.962ZM27.6607 10.6245C27.4753 10.3981 27.0499 10.0989 26.9745 9.80566C27.0032 9.91687 27.5922 10.3532 27.6988 10.4665C27.7379 10.5082 28.2384 11.0675 28.2817 11.0491C28.2227 11.0739 28.1444 10.9244 28.0892 10.9484C28.0547 10.9627 28.4379 11.4871 28.5623 11.6254C28.5495 11.6061 28.5362 11.5856 28.5151 11.5759C28.4835 11.5894 28.4717 11.614 28.4796 11.6496C28.5037 11.5927 27.7574 10.7427 27.6607 10.6245ZM29.0474 12.1071C29.0619 12.1078 29.0573 12.1075 29.0478 12.1073C29.1613 12.1137 29.46 12.4324 29.239 12.5538C29.2251 12.5616 28.8018 12.3218 28.8303 12.4533C28.8377 12.4872 29.1166 12.6568 28.9317 12.6765C28.8042 12.6896 28.5411 11.8827 28.5495 11.7934C28.5501 11.7858 28.9566 12.1031 29.0474 12.1071ZM29.6652 13.7039C29.6633 13.9624 29.7121 13.8616 29.6098 14.0439C29.5391 14.1696 29.3827 13.9616 29.317 14.0155C29.3019 14.0279 29.4511 14.3287 29.3621 14.3367C29.1908 14.3523 29.1394 14.0117 28.9886 14.0766C28.974 14.0828 28.5117 14.209 28.6369 14.048C28.7569 13.8944 28.748 13.7763 28.9833 13.8418C29.2149 13.906 29.0043 13.5059 29.0226 13.4956C29.0643 13.472 29.251 13.709 29.1911 13.4859C29.1487 13.3278 29.294 13.2058 29.1316 13.0792C29.0279 12.9986 28.9793 12.5455 29.1584 12.7285C29.3142 12.8873 29.3843 13.0584 29.4986 13.2247C29.537 13.2807 29.6657 13.6331 29.6652 13.7039ZM29.1758 19.7921C29.2693 19.7788 29.02 20.2437 29.0134 20.2566C28.9377 20.399 28.7938 20.3554 28.8003 20.3513C28.9315 20.2726 29.0566 19.809 29.1758 19.7921ZM28.9886 14.1558C29.0135 14.1524 29.0014 14.1542 28.9889 14.156C29.0712 14.1448 29.1677 14.3392 29.123 14.3518C29.0115 14.3827 29.0555 14.2903 29.0113 14.4266C29.0159 14.4132 28.6925 14.2014 28.9874 14.156C28.9754 14.1579 28.9645 14.1595 28.9886 14.1558ZM28.6809 14.4983C28.6378 14.3753 28.3829 14.3555 28.5059 14.1861C28.5541 14.1199 28.7526 14.2961 28.7726 14.3094C28.794 14.3237 28.8155 14.3381 28.7729 14.3097C28.8678 14.3726 28.9964 14.711 28.8266 14.7666C28.5985 14.8398 28.7265 14.6288 28.6809 14.4983ZM29.7501 21.9969C29.6002 22.2697 28.7996 22.0563 28.95 22.5199C28.9484 22.5146 29.3074 22.3931 29.3868 22.4054C29.2917 22.3906 29.2809 22.6563 29.1517 22.6263C29.0527 22.6031 29.1215 22.9085 29.1295 22.9492C29.1733 23.1705 28.9064 23.1762 28.906 23.2322C28.9067 23.0915 29.0018 22.8977 28.9884 22.7759C28.99 22.7909 28.6438 23.5156 28.573 23.4271C28.5027 23.3395 28.722 22.8019 28.6996 22.668C28.6679 22.4788 29.0009 21.9833 29.1941 21.933C29.2469 21.919 29.3634 22.0523 29.4306 22.0318C29.5076 22.0086 29.6913 21.867 29.7395 21.8631C29.7918 21.8958 29.7952 21.9405 29.7501 21.9969C29.7885 21.9277 29.7121 22.0659 29.7501 21.9969ZM29.7195 19.9276C29.76 19.9136 29.7443 20.292 29.6388 20.2964C29.5343 20.3005 29.6493 19.952 29.7195 19.9276ZM29.5464 19.727C29.782 19.7453 29.6775 20.0095 29.5368 20.0008C29.4885 19.9976 29.5025 19.7234 29.5464 19.727C29.6286 19.7334 29.5051 19.7236 29.5464 19.727ZM29.8343 20.121C29.7691 20.1377 29.7957 19.8875 29.8428 19.8856C29.8907 19.8842 29.8999 20.1052 29.8343 20.121ZM29.8621 19.4958C29.7591 19.4796 29.4132 19.2279 29.407 19.124C29.4053 19.0943 29.2038 18.5914 29.2713 18.6248C29.2894 18.6522 29.3135 18.6639 29.3433 18.6595C29.382 18.5308 29.2549 18.3395 29.3503 18.231C29.4037 18.1706 29.5558 18.1868 29.5597 18.2868C29.5691 18.5242 29.5185 18.7312 29.5333 18.9672C29.5351 18.9965 29.9621 19.5113 29.8621 19.4958ZM29.9271 19.8491C29.9396 19.8289 30.0544 20.0603 30.0027 20.0818C29.9519 20.1041 29.8973 19.9001 29.9271 19.8491ZM29.9575 19.6144C30.0579 19.5538 30.1451 19.8735 30.0407 19.8307C29.9366 19.7883 29.8961 19.6521 29.9575 19.6144ZM30.2286 21.5685C30.3552 21.6871 30.1321 21.7357 30.3009 21.7853C30.3733 21.8068 30.0829 22.3102 30.1562 22.3478C30.1393 22.3183 30.1224 22.2887 30.1058 22.2591C30.0156 22.0303 30.1951 22.487 30.1058 22.2591C30.0704 22.1694 30.174 21.5172 30.2286 21.5685ZM21.0687 20.7263C20.8974 20.6617 20.8685 20.0452 21.0004 20.026C21.07 20.0359 21.1216 20.072 21.1554 20.1342C21.1256 20.075 21.1469 20.1171 21.1556 20.1347C21.2262 20.2723 21.4155 20.363 21.3653 20.541C21.3213 20.697 21.2233 20.7848 21.0687 20.7263ZM15.6621 25.6487C15.7253 26.0921 15.5511 26.5227 15.5793 26.944C15.5578 27.0736 15.7057 27.473 15.4266 27.4455C15.2669 27.5538 14.9973 27.3512 14.9661 27.19C14.9114 26.9158 14.7578 26.8398 14.8815 26.5342C14.9811 26.2878 14.7127 26.0907 14.7359 25.8524C14.7627 25.5766 15.2183 25.6258 15.2947 25.4096C15.3116 25.3623 15.4412 24.8506 15.4942 24.8916C15.5078 24.9566 15.5294 25.0186 15.5589 25.0784C15.5702 25.0876 15.5816 25.0967 15.5589 25.0787C15.6649 25.1627 15.8561 25.7716 15.6621 25.6487ZM14.1983 21.9872C14.0428 22.1458 14.0248 22.3782 13.8769 22.5382C13.6399 22.7949 13.6758 23.1213 13.4933 23.4116C13.441 23.4933 13.6879 24.2046 13.7776 24.3076C14.0216 24.5873 14.385 25.5367 13.9216 25.6887C13.7221 25.7542 13.3818 26.1251 13.4889 26.3403C13.5301 26.423 13.8492 27.0369 13.8082 27.09C13.7568 27.1576 13.5097 27.1001 13.466 27.2168C13.4345 27.3007 13.5738 27.5243 13.5692 27.6392C13.5608 27.8372 13.3286 28.0803 13.3362 28.2612C13.3426 28.5048 12.384 28.4926 12.2566 28.3826C11.9622 28.1285 11.8301 27.8716 11.5901 27.5149C11.3135 27.1035 10.8856 26.7505 10.7394 26.2585C10.6273 25.8817 10.221 25.3397 9.97974 25.0324C9.71406 24.6991 9.97089 24.2337 9.78644 23.9148C9.64723 23.6745 9.59834 23.4049 9.46502 23.1552C9.36324 22.9643 9.22237 22.8169 9.11538 22.6378C8.91949 22.3087 8.76326 22.2162 8.73079 21.8572C8.71119 21.6397 8.78381 21.1761 8.49994 21.042C8.437 21.0122 8.24512 21.2038 8.17852 21.0329C8.1353 20.9225 8.03458 20.6817 7.88414 20.7824C7.86631 20.7943 7.38512 20.941 7.34498 20.9378C7.28298 20.9323 6.98494 20.9369 6.94125 20.9227C6.81006 20.8809 6.80723 20.9797 6.62172 20.733C6.48404 20.5496 6.41024 20.2993 6.29015 20.1366C6.08622 19.8554 5.97652 19.4596 6.03143 19.1069C6.0469 19.0077 6.00392 18.2303 6.04017 18.2161C6.15105 18.168 6.20052 17.6508 6.23453 17.5611C6.3251 17.323 6.48168 17.1245 6.59433 16.8986C6.76378 16.5579 6.86238 15.9856 7.27354 15.8618C7.39245 15.8258 9.0613 14.9039 9.09 15.157C9.11125 15.3469 8.91039 15.4877 8.8752 15.6437C8.82289 15.876 9.45794 15.767 9.49266 15.977C9.50647 16.061 10.0656 16.2743 10.0609 15.946C10.0586 15.7778 10.2622 15.5979 10.4448 15.5882C10.5364 15.5832 10.5873 15.7086 10.6912 15.7286C10.8168 15.7528 10.9305 15.7627 11.0582 15.7797C11.192 15.7974 11.6471 15.8639 11.708 15.6621C11.7613 15.4777 11.9308 15.8641 11.9287 15.8499C11.8833 16.0218 11.928 16.1351 11.9849 16.2924C12.053 16.4808 12.0893 16.6519 12.1773 16.863C12.2898 17.1328 12.4079 17.3439 12.5522 17.5911C12.7077 17.8602 12.6382 18.1016 12.8426 18.3018C12.9812 18.438 12.9692 18.988 13.1523 18.9352C13.2163 18.9168 13.6543 19.3477 13.7392 19.424C13.8584 19.5311 13.8159 19.5963 13.7939 19.7222C13.761 19.9092 14.004 19.7754 14.0257 19.9131C14.0356 19.9779 14.5986 19.8076 14.6481 19.79C14.8236 19.7272 15.3866 19.4555 15.3387 19.7737C15.296 20.0567 15.2665 20.3513 15.117 20.6035C15.1166 20.604 15.1166 20.604 15.1163 20.6045C14.943 20.8952 14.8171 21.2576 14.6649 21.5658C14.5561 21.7803 14.3604 21.8221 14.1983 21.9872ZM6.2003 17.1958C6.22906 17.2077 6.2058 17.3647 6.15966 17.3444C6.13295 17.3329 6.18305 17.1891 6.2003 17.1958ZM6.3189 17.104C6.35009 17.0989 6.3143 17.2672 6.26995 17.2759C6.22522 17.285 6.28849 17.1097 6.3189 17.104ZM8.95397 14.4645C8.96081 14.4514 8.96943 14.4349 8.95574 14.4614C8.98148 14.4285 9.01135 14.4232 9.04536 14.4452C9.08645 14.5027 8.91228 14.8941 8.80542 14.8376C8.72489 14.7942 8.92775 14.511 8.95397 14.4645ZM9.13924 14.0622C9.13439 14.0947 9.12955 14.127 9.12471 14.1593C9.1018 14.2751 9.14786 14.0432 9.12471 14.1593C9.11007 14.2545 9.06449 14.3292 8.98821 14.3831C8.90213 14.3962 9.1207 13.9895 9.13924 14.0622ZM9.63353 14.8226C9.65667 14.8321 9.56622 15.1768 9.50305 15.1215C9.50281 15.1212 9.50281 15.1212 9.50257 15.121C9.50234 15.1208 9.50234 15.1208 9.5021 15.1208C9.47731 15.0995 9.23016 14.9328 9.22933 14.9411C9.23642 14.8684 9.5752 14.7994 9.63353 14.8226ZM10.7028 15.0238C10.7299 14.9756 11.0683 15.0869 10.9906 15.1145C10.9113 15.1428 11.0702 15.0862 10.9906 15.1145C10.9444 15.1309 10.6097 15.1903 10.7028 15.0238ZM7.9237 12.6919C7.9714 12.6824 8.45176 11.9933 8.39674 12.3781C8.37383 12.5378 8.06906 12.9303 7.90551 13.0035C7.91638 12.9986 7.92653 12.9942 7.90457 13.0039C7.88308 13.013 7.89205 13.0092 7.90244 13.0045C7.55741 13.1524 7.95617 12.8232 8.00222 12.6765C7.97648 12.6564 7.95038 12.6616 7.9237 12.6919ZM8.62534 12.2366C8.61719 12.2357 8.44952 12.3397 8.47892 12.2842C8.51175 12.2221 8.64801 12.1143 8.62652 12.0494C8.62003 12.0301 8.49663 12.1262 8.47561 12.129C8.66679 11.9487 8.67907 11.5364 8.99789 11.4773C9.04135 11.469 8.82431 11.6813 8.84238 11.6932C8.89138 11.7256 9.00852 11.5782 9.07169 11.616C9.08468 11.6235 8.78889 11.9539 8.79196 11.9546C8.8334 11.9463 8.8745 11.9379 8.91571 11.9287C8.97983 11.9559 8.80672 12.3793 8.85726 12.4231C8.8817 12.4448 8.9875 12.3511 8.99884 12.3743C9.18139 12.7466 8.26413 12.9302 8.10519 13.1007C8.16187 13.0078 8.32896 12.9283 8.32636 12.859C8.32459 12.7955 8.21253 12.8983 8.19907 12.8681C8.20969 12.8904 8.37867 12.5705 8.3939 12.5396C8.39874 12.5293 8.40618 12.5142 8.39579 12.5362C8.3828 12.5636 8.77047 12.2543 8.62534 12.2366ZM8.58195 11.8157C8.64803 11.7578 8.68254 11.8079 8.63154 11.852C8.58017 11.896 8.54962 11.8446 8.58195 11.8157ZM8.70233 11.6195C8.73823 11.6174 8.62074 11.7683 8.57669 11.7741C8.53206 11.7808 8.64967 11.6228 8.70233 11.6195ZM12.5013 7.38829C12.547 7.35554 12.5898 7.44848 12.5308 7.46352C12.4716 7.47819 12.4554 7.42041 12.5013 7.38829ZM12.9208 7.12211C12.9259 7.15166 12.9261 7.18145 12.9218 7.21124C12.8919 7.18718 13.2096 6.91907 13.2927 7.11019C13.289 7.10178 12.7117 7.59723 12.6949 7.56055C12.6775 7.52188 12.711 7.45681 12.7339 7.43414C12.723 7.4248 12.7108 7.42176 12.698 7.42141C12.7605 7.38835 12.8439 7.31977 12.9005 7.30388C12.8442 7.31954 12.6684 7.3172 12.6309 7.3797C12.725 7.22293 12.6799 7.21814 12.9208 7.12211ZM13.76 6.88227C13.7182 6.95271 13.4031 7.10891 13.329 7.06533C13.3459 7.07526 13.254 7.04454 13.2376 7.03332C13.2411 7.03589 13.2422 7.03683 13.2372 7.03309C13.1294 6.95645 13.7957 6.82246 13.76 6.88227ZM13.1895 7.31913C13.2138 7.29562 13.2383 7.27184 13.2628 7.24833C13.2501 7.2592 13.2374 7.26982 13.2633 7.24782C13.3086 7.23808 13.3537 7.22822 13.3992 7.21849C13.5113 7.27829 13.1547 7.36225 13.1895 7.31913ZM15.1397 7.88496C15.1272 7.93193 15.0987 7.96849 15.0539 7.99431C15.0332 8.0262 15.01 8.02866 14.9842 8.0019C15.0105 7.91814 15.0624 7.87924 15.1397 7.88496ZM15.7035 7.2158C15.5309 7.16638 15.8079 7.60085 15.8082 7.53309C15.8067 7.80295 15.3804 7.47655 15.4166 7.47515C15.3695 7.5019 15.3406 7.49512 15.33 7.45435C15.4069 7.36043 15.5409 7.16907 15.7035 7.2158ZM15.6961 6.97538C15.6996 6.97771 16.7277 6.49991 16.7124 6.5929C16.6934 6.71813 15.6963 7.18601 15.5709 7.15599C15.5796 7.15809 15.5881 7.16019 15.5707 7.15599C15.5668 7.1547 15.7816 7.03519 15.7551 6.99827C15.7361 6.98893 15.7165 6.98134 15.6961 6.97538ZM15.333 7.53747C15.3502 7.48753 15.4509 7.5309 15.4486 7.57717C15.4467 7.62282 15.3197 7.57945 15.333 7.53747ZM16.9826 6.88857C17.0674 6.87467 17.0602 6.96241 16.9748 6.97873C16.8902 6.99504 16.8973 6.90286 16.9826 6.88857ZM18.4771 5.90729C18.4787 5.95446 18.2205 5.97519 18.2285 5.97545C18.2394 5.9757 18.2466 5.9757 18.2277 5.9757C18.1749 5.97545 18.2075 5.97545 18.2274 5.97545C18.1173 5.97405 18.4727 5.77226 18.4771 5.90729ZM18.7488 5.93146C18.9123 5.97572 18.5099 6.06448 18.4218 6.02364C18.3951 6.01175 18.4479 6.03577 18.4218 6.02364C18.2677 5.95473 18.6756 5.91161 18.7488 5.93146ZM19.2569 5.99908C19.2316 6.03016 18.9569 6.09792 18.9205 6.08378C18.8769 6.06708 18.9639 6.10072 18.9205 6.08378C18.698 5.99838 19.3591 5.87315 19.2569 5.99908ZM22.5218 6.16966C22.5373 6.18787 22.0825 6.15331 22.0473 6.14079C22.016 6.12915 21.9921 6.10821 21.9762 6.07811C21.9808 5.99462 22.4686 6.10722 22.5218 6.16966ZM22.5991 6.12432C22.5494 6.15922 22.4987 6.15505 22.4471 6.11206C22.3957 6.09284 22.3453 6.07071 22.296 6.04593C22.3346 6.07248 22.5812 6.01381 22.5991 6.12432ZM23.1644 6.17517C23.1787 6.21057 22.8505 6.15873 22.8291 6.15683C22.8016 6.15405 22.8136 6.15506 22.8271 6.15658C22.7755 6.15848 22.735 6.13989 22.7063 6.09955C22.7748 6.08489 23.13 6.09134 23.1644 6.17517ZM10.3698 11.4088C10.3934 11.4344 10.3874 11.4573 10.3536 11.478C10.3594 11.4725 10.3637 11.4683 10.3519 11.4797C10.312 11.5183 10.2877 11.7566 10.1826 11.7154C10.1766 11.7128 10.1886 11.374 10.3698 11.4088ZM11.247 10.8379C11.2743 10.8329 11.226 10.9851 11.1332 11.0164C11.0406 11.0478 11.2096 10.8443 11.247 10.8379ZM11.7076 10.5612C11.7596 10.5411 11.7915 10.6105 11.7051 10.661C11.6187 10.7108 11.6159 10.5961 11.7076 10.5612ZM11.7586 10.4358C11.8174 10.4125 11.8217 10.4846 11.7348 10.5287C11.6474 10.5732 11.6832 10.4653 11.7586 10.4358ZM12.2956 14.7556C12.2409 14.798 12.1488 15.0738 12.0724 15.0693C12.0823 15.0702 12.0924 15.0709 12.0722 15.0695C12.0526 15.0679 12.0615 15.0686 12.0712 15.0693C11.7184 15.0406 12.3023 14.7506 12.2956 14.7556ZM31.0376 22.6776C31.0776 22.704 31.3317 22.2417 31.4323 22.2198C31.5917 22.1852 31.7306 22.4016 31.9104 22.3777C32.0606 22.3579 32.3035 22.6935 32.3698 22.851C32.7427 21.6007 32.9461 20.2785 32.9461 18.9087C32.9461 14.852 31.1897 11.202 28.3892 8.65962C28.428 8.77247 28.543 8.96908 28.5438 8.96827C28.5305 8.9824 28.0882 8.75623 28.0313 8.8171C28.0431 8.80495 27.9802 8.95787 27.9672 8.91219C28.0586 9.24409 28.5548 9.37072 28.7552 9.67236C28.7385 9.70741 28.713 9.70542 28.6785 9.66582C28.7632 9.68802 29.2929 10.6449 29.163 10.7147C28.9674 10.82 27.9872 9.49573 27.8668 9.34853C27.7828 9.24385 27.5901 8.81967 27.6289 8.65717C27.6631 8.51382 27.2698 8.28882 27.2911 8.35062C27.2999 8.37504 27.4378 8.62738 27.4056 8.63953C27.2689 8.69151 27.1384 8.32819 26.8987 8.39385C26.7341 8.43894 27.239 8.95659 27.2471 8.91792C27.2508 8.89887 26.3084 8.75413 26.1943 8.76149C25.9795 8.77387 25.9383 9.10694 26.015 9.31757C26.0466 9.40507 26.0041 9.60414 26.0808 9.64584C26.1013 9.65682 26.4514 9.85262 26.4125 9.85297C26.4256 9.83241 26.4386 9.81185 26.4512 9.79082C26.4613 9.79351 26.6414 9.98148 26.6786 9.93778C26.6615 9.89655 26.6383 9.8594 26.6091 9.82598C26.6496 9.61909 27.143 10.1527 27.1319 10.1449C27.3378 10.2921 27.6065 10.7351 27.7294 10.9574C27.8744 11.2192 27.9047 11.5441 27.9293 11.8294C27.9397 11.9509 28.0318 12.1417 27.8661 12.1837C27.7815 12.2052 27.6708 12.0697 27.638 12.1863C27.6151 12.2703 27.3725 12.3287 27.4936 12.4854C27.5862 12.6042 27.5896 12.6543 27.5026 12.7823C27.3528 13.0018 27.8001 13.0708 27.837 13.2525C28.0843 13.3024 28.3812 13.9217 27.9467 13.9759C27.7873 13.9958 27.7359 13.7094 27.6817 13.5856C27.6467 13.5036 27.2672 13.0437 27.2092 13.093C27.4012 12.9288 26.8833 12.7998 26.8898 12.8169C26.9176 12.8904 26.7237 12.956 26.6718 12.9706C26.5411 13.0076 26.5645 12.7177 26.5349 12.6392C26.4169 12.3271 26.3854 12.7745 26.3009 12.7709C26.1503 12.7654 26.1927 13.0417 26.2535 13.1226C26.3137 13.2028 27.0981 13.3802 27.0347 13.4446C26.5835 13.8979 27.1058 13.8738 27.2751 14.3454C27.3279 14.4917 27.4977 14.6014 27.5223 14.7157C27.5368 14.784 27.6539 15.0187 27.6511 15.0502C27.6431 15.1448 27.7721 15.2601 27.7617 15.3662C27.7532 15.4531 27.6694 15.4504 27.6819 15.5571C27.702 15.7231 27.6327 15.7761 27.6701 15.9732C27.7434 16.3587 27.2305 16.5901 26.9963 16.7335C26.8498 16.8234 26.3892 16.9776 26.4611 17.1774C26.5194 17.3377 26.6024 17.5458 26.4155 17.6665C26.2949 17.744 26.1563 17.5181 26.2484 17.4334C26.3794 17.313 26.3629 16.8909 26.1839 16.9758C26.1263 17.003 25.703 16.9943 25.7945 17.2161C25.8814 17.4231 25.7046 17.5685 25.8727 17.7534C26.0222 17.918 26.2515 18.0518 26.3504 18.2507C26.4594 18.4669 26.6492 18.7572 26.6103 19.0824C26.5907 19.2515 26.2956 19.6879 26.1512 19.7153C26.1239 19.7039 26.0967 19.6929 26.0689 19.6821C26.0994 19.6869 25.9841 19.9532 25.9139 19.9751C25.8391 19.9987 25.8988 19.5998 25.7598 19.5672C25.544 19.5161 25.5871 19.4679 25.4504 19.3214C25.3726 19.238 25.1076 18.9113 24.9767 18.8617C24.9001 18.8326 24.7186 19.7588 24.8305 19.8115C24.9757 19.8802 25.0007 20.2893 25.0015 20.2895C25.1081 20.3172 25.8796 20.7979 25.7362 20.9461C25.5531 21.1336 26.0769 21.5999 25.744 21.6973C25.5688 21.7486 25.1864 21.2615 25.2106 21.0682C25.2458 20.7862 24.8925 20.5679 24.8684 20.3096C24.8568 20.1953 24.3813 19.9885 24.5817 19.7845C24.6805 19.6838 24.7018 19.1465 24.6393 18.9898C24.5752 18.8283 24.4572 18.6988 24.3622 18.5556C24.2238 18.3473 24.3926 18.2204 24.1652 18.0533C24.1907 18.0718 23.9315 18.353 23.8995 18.3748C23.8414 18.4144 23.7138 18.2777 23.6697 18.2474C23.5793 18.1849 23.7922 17.8628 23.6408 17.745C23.5108 17.6436 23.5805 17.475 23.4273 17.3885C23.321 17.3299 23.2091 17.2727 23.1325 17.1751C22.9818 16.9828 23.0478 16.8242 22.7842 16.7373C22.8146 16.9744 22.3964 17.052 22.2094 16.9952C22.0868 16.9577 22.094 17.5186 21.7782 17.4952C21.8922 17.9201 20.9984 18.3648 20.9308 18.7289C20.8872 18.9622 20.8861 19.4601 20.9606 19.6714C20.9808 19.7282 20.7632 20.0478 20.7662 20.0478C20.6394 20.0519 20.6501 20.1991 20.5769 20.2712C20.4194 20.4267 20.2277 19.9868 20.193 19.8955C20.0934 19.6337 19.9418 19.3916 19.852 19.1247C19.746 18.8092 19.6382 18.4029 19.4602 18.1209C19.248 17.7813 19.3686 17.3725 19.2009 17.0433C19.0574 17.2202 19.0828 17.6445 18.7739 17.3146C18.7076 17.2438 18.4865 17.1674 18.5655 17.0438C18.5853 17.0334 18.7242 17.01 18.6885 16.951C18.6675 16.9158 18.4771 16.9096 18.4102 16.821C18.2975 16.672 18.1885 16.6805 18.0992 16.4906C18.0054 16.2919 17.7804 16.4792 17.5779 16.4909C17.2882 16.5073 17.0013 16.4245 16.71 16.4856C16.5683 16.5152 16.3186 16.466 16.2104 16.367C16.1226 16.2867 16.2087 16.1743 16.052 16.1318C15.9849 16.1134 15.6705 16.2606 15.5835 16.2677C15.4296 16.2802 15.3035 16.0955 15.1631 16.0351C15.0718 15.9959 15.0076 15.7279 14.9351 15.6411C14.8434 15.5314 14.6896 15.6223 14.5697 15.601C14.5563 15.6926 14.5043 16.2738 14.7264 16.2413C14.9862 16.2065 14.8391 16.7489 15.1216 16.6836C14.9967 16.4147 15.3204 16.479 15.2054 16.6459C15.1711 16.6956 15.1038 16.8802 15.232 16.8933C15.799 16.9513 15.6386 16.489 16.058 16.3458C16.0341 16.354 16.1048 16.7276 16.1935 16.7788C16.3816 16.8892 16.7731 17.0099 16.669 17.2953C16.5923 17.5055 16.6282 17.4711 16.4799 17.5882C16.4407 17.619 16.4568 17.7443 16.4378 17.7855C16.3435 17.9922 16.4233 17.9063 16.2816 18.0654C16.2027 18.1543 16.0583 18.3166 16.0495 18.3958C16.0361 18.5155 15.7645 18.4523 15.6943 18.4936C15.527 18.5919 15.5258 18.6497 15.4257 18.7882C15.2202 19.0716 14.448 19.4347 14.1284 19.5349C13.7829 19.6409 13.6148 18.8615 13.6278 18.6032C13.6307 18.5329 13.4038 18.2658 13.3512 18.1778C13.2193 17.9583 13.1641 17.9702 12.9782 17.8111C12.8424 17.6949 12.9497 17.4752 12.8509 17.3361C12.7677 17.2189 12.6772 17.0211 12.616 16.8792C12.5464 16.7175 12.4467 16.5825 12.3792 16.4302C12.3037 16.2597 12.3495 16.1311 12.2773 15.9262C12.2603 16.0276 12.2535 16.3627 12.1562 16.4219C12.0526 16.2418 12.0037 16.049 11.9373 15.8575C11.9116 15.4573 12.1421 15.7315 12.2024 15.5316C12.2989 15.2131 12.3708 14.7348 12.5615 14.4736C12.3394 14.6062 12.0775 14.6284 11.845 14.5947C11.6941 14.5728 11.4657 14.8591 11.2209 14.7756C11.3827 14.6892 11.0869 14.5931 11.124 14.4449C11.1199 14.4607 11.1707 14.127 11.1715 14.126C11.3285 13.9583 11.6309 13.9766 11.7531 13.8006C11.6015 13.8416 11.524 13.7566 11.3882 13.877C11.3702 13.9559 11.2834 14.0157 11.2103 14.037C11.1825 14.0453 11.0302 13.9546 10.9138 13.9983C10.9557 13.9981 10.9761 14.0178 10.9749 14.0574C10.8254 14.0897 10.8595 14.2028 10.7213 14.1298C10.7194 14.1288 10.6492 14.458 10.6728 14.4647C10.7299 14.4802 10.7299 14.3925 10.7789 14.3877C10.8513 14.3807 10.8995 14.5349 10.8095 14.5389C10.8479 14.5372 10.6174 14.8051 10.6156 14.7646C10.6255 14.9999 10.3071 14.84 10.579 14.5802C10.39 14.7608 10.1951 13.8562 10.2569 13.8449C10.1905 13.8564 9.76495 13.3713 9.7143 13.5524C9.72858 13.5014 9.79247 13.467 9.79967 13.4153C9.79318 13.4625 9.47919 13.5815 9.63613 13.7449C9.7078 13.8194 9.90866 14.1277 9.90453 14.1437C9.91492 14.1036 10.0804 14.1982 10.1051 14.2271C10.2819 14.4323 9.96416 14.3063 9.98919 14.3044C9.89272 14.312 9.8769 14.7479 9.72351 14.8414C9.79554 14.7975 9.74016 14.292 9.66199 14.2732C9.47388 14.2279 9.41815 14.1178 9.29404 14.042C9.2964 14.0434 9.28341 13.7161 9.15919 13.7831C9.09555 13.8175 8.89209 13.9857 8.84911 14.0372C8.75818 14.146 8.7028 14.0556 8.61058 14.1124C8.49439 14.1837 8.44905 14.4919 8.35918 14.512C8.19611 14.5499 8.09008 14.7465 7.98002 14.8462C7.94873 14.8746 7.6475 15.727 7.46046 15.5901C7.43602 15.5722 6.98388 15.7365 6.92732 15.758C6.91421 15.7634 7.12263 15.028 7.12865 14.975C7.14211 14.8572 7.17423 14.7073 7.21591 14.6011C7.28676 14.4209 7.49081 14.5036 7.61598 14.432C7.80573 14.3228 8.13507 14.2233 8.14038 13.959C8.14215 13.8671 8.16671 13.4766 8.02855 13.5178C8.19399 13.4702 8.33262 13.2456 8.45613 13.1788C8.61649 13.0908 8.93259 12.5824 9.09342 12.6035C9.13581 12.5174 9.39819 12.0938 9.52749 12.1169C9.54745 12.1205 9.77263 12.0251 9.78066 12.0127C9.82163 11.95 9.82329 11.6556 9.80616 11.6834C9.8619 11.5927 9.90264 11.3544 10.029 11.3322C10.0813 11.3241 10.255 11.2077 10.2608 11.1877C10.2092 11.3761 10.2053 11.4353 10.0707 11.5613C10.1259 11.5093 9.99309 11.74 9.95495 11.7879C10.0215 11.7238 10.077 11.7261 10.1081 11.797C10.1474 11.8877 10.7377 11.5474 10.8317 11.4959C11.0346 11.3845 11.126 11.5033 11.1577 11.3535C11.1896 11.2023 11.5453 11.0665 11.558 10.8308C11.5675 10.6538 11.73 10.801 11.7992 10.7637C11.8877 10.7156 11.8462 10.5858 11.9349 10.5325C11.6887 10.5989 12.1192 10.2614 12.1848 10.2294C12.3238 10.1616 12.5413 10.1962 12.6501 10.0536C12.629 10.0812 12.5402 10.0352 12.5404 9.97599C12.5402 10.0808 11.8626 10.272 11.75 10.2196C11.5717 10.1362 12.4298 9.30016 12.424 9.26243C12.3898 9.05635 11.8698 9.69211 11.8399 9.73031C11.6867 9.92762 11.4643 9.97645 11.3965 10.2807C11.3377 10.5483 11.2292 10.6662 11.0321 10.8938C10.9446 10.9935 10.7986 11.3928 10.7331 11.2249C10.7794 11.3435 10.5313 11.4802 10.4363 11.488C10.5072 11.4821 10.5399 10.8651 10.5124 10.8628C10.4438 10.8573 9.97951 11.3115 9.92118 11.1776C9.88315 11.0913 10.0334 11.0806 10.001 11.008C9.9762 10.9527 10.2048 10.8115 10.2065 10.7649C10.2074 10.733 10.0859 10.8501 10.0646 10.8381C9.96097 10.7814 10.2981 10.6206 10.2967 10.623C10.3118 10.5975 10.1349 10.6433 10.1609 10.6044C10.2366 10.4887 10.3446 10.4944 10.4392 10.4171C10.4037 10.4462 10.5036 10.3363 10.5513 10.2962C10.5882 10.2651 10.47 10.2935 10.4811 10.279C10.7187 9.96886 11.2803 9.80636 11.4669 9.43019C11.4688 9.4261 11.3687 9.43568 11.3713 9.43299C11.5663 9.22002 12.0247 9.02458 12.1295 8.78147C12.1879 8.64362 12.6554 8.4928 12.6416 8.51079C12.7412 8.37924 12.9257 8.33041 12.8627 8.36476C12.8981 8.3456 13.1874 8.16674 13.1957 8.18485C13.1745 8.21067 13.1569 8.23859 13.1427 8.26908C13.149 8.2727 13.3607 8.16102 13.344 8.21639C13.3142 8.25833 13.2739 8.28462 13.2232 8.29583C13.257 8.30319 13.2625 8.31756 13.2399 8.33917C13.3327 8.29174 14.4122 8.22714 14.1655 8.54794C13.9427 8.83894 13.3223 8.55705 13.4315 8.87364C13.4528 8.93509 13.5338 9.06757 13.541 9.09981C13.5719 9.23836 13.7827 9.05729 13.7328 9.02294C13.693 9.01359 13.6527 9.01196 13.6124 9.01792C13.5581 8.99642 14.0646 8.91488 14.0655 8.90028C14.0696 8.8428 13.7537 8.84665 14.0539 8.67469C14.1995 8.58976 14.2187 8.49478 14.4019 8.55062C14.6273 8.61932 14.439 7.9491 14.719 8.17585C14.747 8.19828 14.5036 8.43415 14.6989 8.37784C14.8082 8.34618 14.8492 8.27644 14.9251 8.19723C14.9686 8.15191 15.434 7.8776 15.4849 7.88812C15.5104 7.89314 15.3546 8.0949 15.3493 8.10015C15.5012 8.00074 15.7925 7.75646 15.9826 7.77328C15.9646 7.77165 16.2827 7.72877 16.2212 7.69361C16.195 7.67819 15.894 7.61896 15.9285 7.57912C15.9917 7.50564 16.3469 7.56031 16.4648 7.55622C16.7264 7.54699 16.8253 7.68099 17.0156 7.56031C17.0079 7.55786 16.7185 7.40832 16.7464 7.49419C16.6854 7.30938 16.8419 7.1769 16.8779 7.00517C16.8853 6.96942 17.3382 6.97514 17.1547 7.12807C17.1315 7.14757 17.4105 7.55798 17.4117 7.55622C17.3828 7.60108 17.3758 7.79524 17.3099 7.80202C17.2668 7.80646 17.2148 7.80774 17.1646 7.81417C17.3046 7.80985 17.4575 7.92246 17.5716 7.65214C17.5984 7.58893 17.4501 7.30482 17.7385 7.44454C17.8858 7.51498 17.8062 7.56241 18.0126 7.57678C17.8363 7.4165 17.7134 7.39325 17.4701 7.41019C17.3976 7.41522 17.3567 7.17958 17.2606 7.12211C17.2912 7.14045 17.3608 7.01708 17.3955 6.96626C17.3902 6.95598 17.3927 6.94699 17.4147 6.94126C17.4117 6.94197 17.4033 6.95435 17.3955 6.96626C17.4074 6.98916 17.4742 7.02024 17.5499 7.04757C17.5436 7.04407 17.5316 7.03975 17.5332 7.03741C17.7199 6.78449 18.1016 6.94103 18.2378 7.11989C18.3982 6.92187 17.8518 6.88274 17.8921 6.80026C17.9939 6.5915 17.8217 6.77514 18.1004 6.6936C18.1436 6.68098 18.372 6.64185 18.3736 6.64395C18.3254 6.58507 18.2788 6.55762 18.2376 6.54044C18.2781 6.55738 18.2593 6.46217 18.2343 6.47502C18.3711 6.40586 18.5689 6.43694 18.6999 6.36462C18.6943 6.34453 18.6796 6.33413 18.656 6.33355C18.6531 6.33121 19.118 6.30212 19.1585 6.27782C19.1534 6.24967 19.1327 6.23624 19.0965 6.23717C19.1275 6.19044 19.1782 6.18145 19.2483 6.21053C18.95 6.16754 19.6622 6.02876 19.6817 6.14371C19.6741 6.10574 20.2829 6.0464 20.2745 6.19067C20.2729 6.21673 20.1715 6.1735 20.1988 6.20236C20.3632 6.37677 20.1431 6.28133 20.0702 6.4679C20.038 6.55026 20.3403 6.45411 20.3287 6.44687C20.2965 6.44932 20.2704 6.43834 20.2504 6.41404C20.2653 6.47222 21.4109 6.35645 21.4384 6.35411C21.5252 6.34675 22.5412 6.69091 22.5357 6.71007C22.5344 6.67351 22.5188 6.64465 22.4893 6.6235C22.5065 6.63659 22.9863 6.63998 23.0594 6.61743C23.1237 6.59769 22.8657 6.48507 22.8756 6.49126C22.9323 6.52759 22.905 6.4464 22.9077 6.43402C22.9099 6.42444 23.3574 6.46509 23.4122 6.47012C23.1611 6.54185 23.675 6.50154 23.6858 6.50411C23.9291 6.56357 24.1758 6.71054 24.4471 6.72432C24.5775 6.73087 25.2884 6.95575 25.3143 6.90949C25.312 6.91334 25.7671 6.96837 25.7953 6.96673C25.7386 6.93507 25.6967 6.90762 25.6966 6.89734C25.7268 6.92713 25.7615 6.95026 25.8009 6.96697C25.8009 6.9672 25.7965 6.96673 25.7953 6.96673C25.9182 7.03519 26.1172 7.12514 26.1642 7.12141C26.1878 7.11965 25.8838 6.93098 25.8782 6.91019C25.8828 6.92713 25.9946 6.9582 26.1422 6.99372C24.0243 5.72864 21.5421 5.00024 18.8877 5.00024C11.1235 5.00024 4.82959 11.2273 4.82959 18.9087C4.82959 26.59 11.1235 32.8171 18.8877 32.8171C22.3513 32.8171 25.52 31.5756 27.9703 29.521C27.9739 29.5063 27.9816 29.4953 27.9829 29.4784C27.9498 29.4976 27.9168 29.5167 27.8837 29.5358C27.911 29.5325 27.9947 29.3383 28.0227 29.328C27.9575 29.3521 27.8966 29.5219 27.8249 29.4819C27.8182 29.4781 28.0151 29.2636 28.1391 29.1133C27.9653 29.2603 27.6209 29.4306 27.6095 29.4722C27.6467 29.3309 27.7904 29.0916 27.8596 28.9482C27.7721 28.9368 27.6937 28.9583 27.6245 29.0125C27.6012 29.0084 27.6391 28.9182 27.6335 28.9015C27.6255 28.8772 25.6415 29.8562 25.408 29.8946C25.0044 29.9612 25.4022 29.4829 25.5286 29.3374C25.6318 29.2181 25.9775 28.2819 25.9074 28.1817C25.9226 28.2037 25.9099 28.3041 25.9532 28.3043C26.0135 28.3044 26.1471 27.4222 26.3794 27.3265C26.3849 27.3515 26.3884 27.3771 26.3894 27.4028C26.7401 27.2649 27.0299 26.8009 27.4309 26.7198C27.8502 26.6346 27.9378 25.9783 28.2759 25.912C28.2614 25.9149 28.2271 26.1718 28.2238 26.1754C28.3481 26.0306 28.3685 25.9247 28.4943 25.839C28.5409 25.8071 28.7683 25.5152 28.7581 25.4747C28.7107 25.2753 29.4931 25.0169 29.099 25.5269C29.2202 25.4311 29.3171 25.5127 29.359 25.3797C29.3798 25.3144 29.4261 25.0837 29.5076 25.0642C29.5254 25.0603 29.5111 25.1734 29.5418 25.1355C29.6457 25.0062 29.972 24.6318 29.9686 24.5883C29.9725 24.6364 30.5632 24.5823 30.5438 24.5647C30.612 24.6261 30.2284 25.0759 30.215 25.1746C30.2112 25.2025 30.4381 25.6432 30.4232 25.6391C30.7721 25.7357 31.2915 24.385 31.4082 24.1519C31.4027 24.1624 31.3988 24.17 31.4106 24.1469C31.4245 24.1204 31.418 24.133 31.4113 24.1462C31.528 23.9241 31.3359 24.7946 31.3129 24.7891C31.4738 24.8266 31.3479 25.286 31.2299 25.4862C31.181 25.5685 31.1738 25.6171 31.1799 25.6577C31.5497 24.9999 31.8673 24.3099 32.1268 23.592C32.1065 23.5228 32.1 23.45 32.1065 23.4066C32.1386 23.2041 31.7311 23.4975 31.706 23.4999C31.9602 23.7905 31.2262 23.6287 31.2541 23.6146C31.3431 23.5693 31.3122 23.0936 31.2197 23.008C31.08 22.8784 30.741 22.883 30.8601 22.6138C30.7764 22.6468 30.7718 22.8871 30.7031 22.8906C30.6402 22.8937 30.6689 22.4048 30.8379 22.5065C30.7897 22.4774 30.4832 22.4276 30.6233 22.2954C30.6595 22.2612 30.9223 22.0115 31.0024 22.1202C31.0725 22.2138 30.8943 22.5836 31.0376 22.6776ZM12.9153 12.7315C12.9134 12.7113 13.2024 12.3099 13.2439 12.2913C13.1865 12.2605 12.801 12.4563 12.7484 12.5002C12.4993 12.7086 12.6378 12.6533 12.772 12.7294C12.7964 12.7431 12.4282 13.0772 12.3671 13.0097C12.3074 12.9453 12.3158 12.5936 12.4226 12.6526C12.2115 12.5378 11.9516 12.8663 11.826 13.0424C11.7394 13.1634 11.5779 13.2653 11.5566 13.4246C11.5435 13.5247 11.5874 13.6844 11.5812 13.7275C11.7524 13.8638 12.3571 13.4986 12.5333 13.4549C12.4872 13.4663 12.822 13.5281 12.8801 13.5229C13.0395 13.5088 13.2601 13.526 13.392 13.4196C13.3933 13.4184 13.3936 13.4182 13.3952 13.4171C13.8728 13.021 12.9379 12.959 12.9153 12.7315Z" fill="#0A212E"/>
</g>
<path opacity="0.2" d="M32.1148 32.5154C35.6033 29.0258 37.6001 24.3034 37.6001 19.2659C37.6001 8.91796 29.2195 0.534668 18.8877 0.534668C8.55598 0.534668 0.175293 8.91796 0.175293 19.2659C0.175293 24.3636 2.22036 29.1375 5.78283 32.6366C6.11549 32.9633 6.64592 32.9542 6.96759 32.6163C7.28925 32.2784 7.28034 31.7396 6.94768 31.4129C3.70776 28.2307 1.85103 23.8963 1.85103 19.2659C1.85103 9.86393 9.47576 2.23683 18.8877 2.23683C28.2997 2.23683 35.9244 9.86393 35.9244 19.2659C35.9244 23.8417 34.1115 28.1291 30.939 31.3026C30.6093 31.6324 30.6053 32.1713 30.9299 32.5062C31.2546 32.8411 31.7851 32.8452 32.1148 32.5154Z" fill="url(#paint0_linear_3326_16)"/>
<path d="M1.01316 19.2659C0.55042 19.2659 0.173349 19.6414 0.193753 20.1036C0.404771 24.8847 2.41623 29.3299 5.78283 32.6366C6.11549 32.9633 6.64592 32.9543 6.96759 32.6164C7.28925 32.2784 7.28034 31.7396 6.94768 31.4129C3.90492 28.4243 2.08212 24.3963 1.87155 20.1035C1.84888 19.6413 1.47591 19.2659 1.01316 19.2659V19.2659Z" fill="url(#paint1_linear_3326_16)"/>
<path d="M19.1514 0.269531C19.4425 0.269531 19.6785 0.506902 19.6785 0.799714V1.86008C19.6785 2.15289 19.4425 2.39026 19.1514 2.39026C18.8603 2.39026 18.6243 2.15289 18.6243 1.86008V0.799714C18.6243 0.506902 18.8603 0.269531 19.1514 0.269531Z" fill="#18BAB4"/>
<defs>
<filter id="filter0_d_3326_16" x="2.82959" y="5.00024" width="32.1167" height="31.8169" filterUnits="userSpaceOnUse" color-interpolation-filters="sRGB">
<feFlood flood-opacity="0" result="BackgroundImageFix"/>
<feColorMatrix in="SourceAlpha" type="matrix" values="0 0 0 0 0 0 0 0 0 0 0 0 0 0 0 0 0 0 127 0" result="hardAlpha"/>
<feOffset dy="2"/>
<feGaussianBlur stdDeviation="1"/>
<feColorMatrix type="matrix" values="0 0 0 0 0.0313726 0 0 0 0 0.0352941 0 0 0 0 0.0980392 0 0 0 0.622733 0"/>
<feBlend mode="normal" in2="BackgroundImageFix" result="effect1_dropShadow_3326_16"/>
<feBlend mode="normal" in="SourceGraphic" in2="effect1_dropShadow_3326_16" result="shape"/>
</filter>
<linearGradient id="paint0_linear_3326_16" x1="31.0002" y1="32.6668" x2="21.3605" y2="1.27536" gradientUnits="userSpaceOnUse">
<stop stop-color="white" stop-opacity="0"/>
<stop offset="1" stop-color="white"/>
</linearGradient>
<linearGradient id="paint1_linear_3326_16" x1="2.94391" y1="19.2659" x2="8.47489" y2="31.082" gradientUnits="userSpaceOnUse">
<stop stop-color="#18BAB4" stop-opacity="0.15"/>
<stop offset="0.421875" stop-color="#18BAB4"/>
<stop offset="0.916667" stop-color="#18BAB4"/>
</linearGradient>
</defs>
</svg>
