<svg width="53" height="72" xmlns="http://www.w3.org/2000/svg" xmlns:xlink="http://www.w3.org/1999/xlink"><defs><path d="M20.624 57.5C10.63 57.5 2.5 49.37 2.5 39.376V24.74h13.622v.998a4.437 4.437 0 0 0 4.431 4.433c2.766 0 4.573-2.121 4.573-4.433v-.998h13.622v14.637c0 9.994-8.13 18.124-18.124 18.124zM19.375 2.567v14.412c-1.87.52-3.253 2.22-3.253 4.253v1.007H2.5v-1.612c0-9.572 7.464-17.414 16.875-18.06zm1.238 16.735c.008 0-.009 0 0 0 1.235 0 2.013.923 2.013 1.93v4.505c0 1.009-.762 1.933-2.073 1.933a1.934 1.934 0 0 1-1.931-1.933v-4.505c0-1.016.807-1.93 1.991-1.93zm18.135 1.325v1.612H25.126v-1.007c0-2.033-1.383-3.732-3.251-4.253V2.567c9.41.647 16.873 8.489 16.873 18.06zM20.65.005c-.009 0-.016-.005-.025-.005-.008 0-.016.005-.024.005C9.24.017 0 9.263 0 20.627v18.75C0 50.747 9.252 60 20.624 60c11.372 0 20.624-9.252 20.624-20.624V20.627C41.248 9.264 32.01.02 20.65.005z" id="b"/><filter x="-21.8%" y="-15%" width="143.6%" height="130%" filterUnits="objectBoundingBox" id="a"><feOffset in="SourceAlpha" result="shadowOffsetOuter1"/><feGaussianBlur stdDeviation="3" in="shadowOffsetOuter1" result="shadowBlurOuter1"/><feColorMatrix values="0 0 0 0 0.333530619 0 0 0 0 1 0 0 0 0 0.975315949 0 0 0 0.380463089 0" in="shadowBlurOuter1"/></filter></defs><g fill="none" fill-rule="evenodd"><path d="M27 7v17c1.333-.667 2.333.333 3 3 .667 2.667 6.333 3.333 17 2-1.039-7.361-2.705-12.361-5-15-2.295-2.639-7.295-4.972-15-7z" fill="#BAFAFC"/><g transform="translate(6 6)"><use fill="#000" filter="url(#a)" xlink:href="#b"/><use fill="#18BAB4" xlink:href="#b"/></g></g></svg>