<svg width="80" height="68" xmlns="http://www.w3.org/2000/svg"><defs><linearGradient x1="50%" y1="12.955%" x2="86.691%" y2="91.491%" id="a"><stop stop-color="#FFF" offset="0%"/><stop stop-color="#FFF" stop-opacity="0" offset="100%"/></linearGradient><linearGradient x1="30.893%" y1="11.626%" x2="83.725%" y2="100%" id="b"><stop stop-color="#0068FF" stop-opacity="0" offset="0%"/><stop stop-color="#0068FF" offset="36.182%"/><stop stop-color="#0068FF" offset="100%"/></linearGradient><linearGradient x1="79.855%" y1="103.663%" x2="54.987%" y2="13.093%" id="c"><stop stop-color="#FFF" stop-opacity="0" offset="0%"/><stop stop-color="#FFF" offset="100%"/></linearGradient><linearGradient x1="39.456%" y1="0%" x2="63.488%" y2="100%" id="d"><stop stop-color="#15BA31" stop-opacity="0" offset="0%"/><stop stop-color="#03C700" offset="39.364%"/><stop stop-color="#03C700" offset="100%"/></linearGradient></defs><g fill-rule="nonzero" fill="none"><path d="M67.931 67.78C75.29 60.439 79.5 50.507 79.5 39.913 79.5 18.146 61.815.5 40 .5S.5 18.146.5 39.912c0 10.72 4.312 20.761 11.827 28.124.64.627 1.667.617 2.296-.02a1.616 1.616 0 0 0-.02-2.29c-6.9-6.76-10.856-15.971-10.856-25.814C3.747 19.934 19.977 3.738 40 3.738c20.022 0 36.253 16.196 36.253 36.174 0 9.727-3.862 18.838-10.618 25.58a1.616 1.616 0 0 0 0 2.29 1.626 1.626 0 0 0 2.296-.001z" fill="url(#a)" opacity=".15" transform="translate(0 -.5)"/><path d="M4.09 56.354a39.437 39.437 0 0 0 8.237 11.682c.64.627 1.667.617 2.296-.02a1.616 1.616 0 0 0-.02-2.29A36.201 36.201 0 0 1 7.09 55.109l-3 1.245z" fill="url(#b)" transform="translate(0 -.5)"/><path d="M60.594 60.32C67.212 53.738 71 44.831 71 35.33 71 15.812 55.1 0 35.5 0S0 15.812 0 35.33c0 9.615 3.88 18.62 10.638 25.219.631.616 1.638.599 2.248-.038a1.616 1.616 0 0 0-.038-2.27C6.702 52.239 3.18 44.063 3.18 35.33 3.18 17.596 17.644 3.21 35.5 3.21c17.856 0 32.32 14.386 32.32 32.12 0 8.63-3.438 16.717-9.457 22.703a1.617 1.617 0 0 0-.017 2.27c.616.631 1.622.64 2.248.017z" fill="url(#c)" opacity=".2" transform="translate(4.5 4)"/><path d="M0 35.33c0 9.615 3.88 18.62 10.638 25.219.631.616 1.638.599 2.248-.038a1.616 1.616 0 0 0-.038-2.27A31.998 31.998 0 0 1 3.18 35.33H0z" fill="url(#d)" transform="translate(4.5 4)"/><path d="M40.5 3.5a1 1 0 0 1 1 1v2a1 1 0 0 1-2 0v-2a1 1 0 0 1 1-1zm0 1v2-2z" fill="#FFF"/></g></svg>