<svg width="17" height="16" viewBox="0 0 17 16" fill="none" xmlns="http://www.w3.org/2000/svg">
<path d="M9.18555 6.16597C9.18555 5.61368 9.63326 5.16597 10.1855 5.16597C10.7378 5.16597 11.1855 5.61368 11.1855 6.16597V7.16597C11.1855 6.61368 11.6333 6.16597 12.1855 6.16597C12.7378 6.16597 13.1855 6.61368 13.1855 7.16597V11.252C13.1861 12.1578 12.8266 13.0266 12.1863 13.6673C11.546 14.308 10.6773 14.668 9.77155 14.668H7.22955C6.26164 14.6672 5.35356 14.1995 4.79088 13.412L4.05755 12.3886C3.49028 11.5949 3.18539 10.6436 3.18555 9.66797C3.18555 8.5634 4.08098 7.66797 5.18555 7.66797V6.16797C5.18555 5.61568 5.63326 5.16797 6.18555 5.16797C6.73783 5.16797 7.18555 5.61568 7.18555 6.16797V5.66797C7.18555 5.11568 7.63326 4.66797 8.18555 4.66797C8.73783 4.66797 9.18555 5.11568 9.18555 5.66797V6.16597ZM9.18555 6.16597V7.16597M5.18555 7.66597V9.16597M7.18555 7.16597V6.16597" stroke="#A0AFB8" stroke-width="0.7" stroke-linecap="round" stroke-linejoin="round"/>
<path fill-rule="evenodd" clip-rule="evenodd" d="M12.8529 1.27618C12.8529 0.891281 13.2695 0.650719 13.6029 0.843169L15.4362 1.90164C15.7695 2.09409 15.7695 2.57522 15.4362 2.76767L13.6029 3.82615C13.2695 4.0186 12.8529 3.77803 12.8529 3.39313L12.8529 2.66799L9.85286 2.66799C9.66877 2.66799 9.51953 2.51875 9.51953 2.33466C9.51953 2.15056 9.66877 2.00132 9.85286 2.00132L12.8529 2.00132L12.8529 1.27618Z" fill="#A0AFB8"/>
<path fill-rule="evenodd" clip-rule="evenodd" d="M3.51823 3.39179C3.51823 3.77669 3.10156 4.01725 2.76823 3.8248L0.934896 2.76632C0.601563 2.57387 0.601563 2.09275 0.934897 1.9003L2.76823 0.841823C3.10156 0.649373 3.51823 0.889935 3.51823 1.27484L3.51823 1.99998L6.51823 1.99998C6.70232 1.99998 6.85156 2.14922 6.85156 2.33331C6.85156 2.51741 6.70232 2.66664 6.51823 2.66664L3.51823 2.66664L3.51823 3.39179Z" fill="#A0AFB8"/>
</svg>
