<svg width="14" height="14" xmlns="http://www.w3.org/2000/svg"><path d="M12.588.412a1 1 0 0 1 1 1v3.095a.534.534 0 1 1-1.068 0V1.48H9.493a.534.534 0 1 1 0-1.068h3.095zM1.48 1.48v3.027a.534.534 0 1 1-1.068 0V1.412a1 1 0 0 1 1-1h3.095a.534.534 0 1 1 0 1.068H1.48zm-.068 12.108a1 1 0 0 1-1-1V9.493a.534.534 0 1 1 1.068 0v3.027h3.027a.534.534 0 0 1 0 1.068H1.412zM12.52 12.52V9.493a.534.534 0 1 1 1.068 0v3.095a1 1 0 0 1-1 1H9.493a.534.534 0 1 1 0-1.068h3.027z" fill="#FFF" fill-rule="nonzero" stroke-width=".6"/></svg>