<?xml version="1.0" encoding="UTF-8"?>
<svg width="14px" height="14px" viewBox="0 0 14 14" version="1.1" xmlns="http://www.w3.org/2000/svg" xmlns:xlink="http://www.w3.org/1999/xlink">
    <!-- Generator: sketchtool 54.1 (76490) - https://sketchapp.com -->
    <title>84201BB5-8CCB-4304-BF1E-9D3C239D8E83</title>
    <desc>Created with sketchtool.</desc>
    <g id="visual" stroke-width="1" fill="none" fill-rule="evenodd">
        <g id="HE-map---Legend-opacity" transform="translate(-1241.000000, -25.000000)" fill="#FFFFFF" fill-rule="nonzero" stroke-width="0.6" class="button-widget">
            <g id="Group-3" transform="translate(1236.000000, 20.000000)">
                <g id="full_screen">
                    <path d="M17.5882353,5.41176471 C18.14052,5.41176471 18.5882353,5.85947996 18.5882353,6.41176471 L18.5882353,9.50715421 C18.5882353,9.80217437 18.3490742,10.0413355 18.0540541,10.0413355 C17.7590339,10.0413355 17.5198728,9.80217437 17.5198728,9.50715421 L17.5198728,6.48012719 L14.4928458,6.48012719 C14.1978256,6.48012719 13.9586645,6.2409661 13.9586645,5.94594595 C13.9586645,5.65092579 14.1978256,5.41176471 14.4928458,5.41176471 L17.5882353,5.41176471 Z M6.48012719,6.48012719 L6.48012719,9.50715421 C6.48012719,9.80217437 6.2409661,10.0413355 5.94594595,10.0413355 C5.65092579,10.0413355 5.41176471,9.80217437 5.41176471,9.50715421 L5.41176471,6.41176471 C5.41176471,5.85947996 5.85947996,5.41176471 6.41176471,5.41176471 L9.50715421,5.41176471 C9.80217437,5.41176471 10.0413355,5.65092579 10.0413355,5.94594595 C10.0413355,6.2409661 9.80217437,6.48012719 9.50715421,6.48012719 L6.48012719,6.48012719 Z M6.41176471,18.5882353 C5.85947996,18.5882353 5.41176471,18.14052 5.41176471,17.5882353 L5.41176471,14.4928458 C5.41176471,14.1978256 5.65092579,13.9586645 5.94594595,13.9586645 C6.2409661,13.9586645 6.48012719,14.1978256 6.48012719,14.4928458 L6.48012719,17.5198728 L9.50715421,17.5198728 C9.80217437,17.5198728 10.0413355,17.7590339 10.0413355,18.0540541 C10.0413355,18.3490742 9.80217437,18.5882353 9.50715421,18.5882353 L6.41176471,18.5882353 Z M17.5198728,17.5198728 L17.5198728,14.4928458 C17.5198728,14.1978256 17.7590339,13.9586645 18.0540541,13.9586645 C18.3490742,13.9586645 18.5882353,14.1978256 18.5882353,14.4928458 L18.5882353,17.5882353 C18.5882353,18.14052 18.14052,18.5882353 17.5882353,18.5882353 L14.4928458,18.5882353 C14.1978256,18.5882353 13.9586645,18.3490742 13.9586645,18.0540541 C13.9586645,17.7590339 14.1978256,17.5198728 14.4928458,17.5198728 L17.5198728,17.5198728 Z" id="Combined-Shape"></path>
                </g>
            </g>
        </g>
    </g>
</svg>