<svg width="16" height="16" xmlns="http://www.w3.org/2000/svg"><g fill="none" fill-rule="evenodd"><path d="M0 0h16v16H0z"/><path d="M5.658 6.72L4.2 5.26c-.93.78-1.72 1.707-2.338 2.742a11.478 11.478 0 0 0 1.51 1.98c1.363 1.428 2.914 2.268 4.616 2.268a5.75 5.75 0 0 0 2.557-.645l-1.277-1.277a2.69 2.69 0 0 1-1.97.263 2.642 2.642 0 0 1-1.921-1.892 2.596 2.596 0 0 1 .281-1.98zm1.15 1.149c-.025.148-.019.302.02.453.104.398.423.71.834.814.146.037.295.045.44.026L6.808 7.87zm2.947.825a.754.754 0 0 1 .225.226l2.11 2.11a.747.747 0 0 1 .373.372l3.067 3.068a.75.75 0 0 1-1.06 1.06l-2.824-2.823A7.26 7.26 0 0 1 8 13.75c-2.183 0-4.092-1.035-5.713-2.732A12.963 12.963 0 0 1 .841 9.193a9.572 9.572 0 0 1-.51-.853.75.75 0 0 1 .01-.7 12.319 12.319 0 0 1 2.795-3.444L.47 1.53A.75.75 0 0 1 1.53.47l8.225 8.224zm4.151-1.063c-.362-.55-.79-1.101-1.278-1.613C11.265 4.59 9.714 3.75 7.998 3.75c-.392 0-.784.043-1.166.13a.75.75 0 0 1-.336-1.46c.493-.114.999-.171 1.504-.17 2.183 0 4.092 1.035 5.713 2.732a12.963 12.963 0 0 1 1.446 1.825c.248.376.418.673.51.853a.75.75 0 0 1-.01.699 12.303 12.303 0 0 1-1.464 2.123.75.75 0 1 1-1.14-.976c.405-.472.767-.976 1.083-1.508a11.32 11.32 0 0 0-.232-.367z" fill="#495A64"/></g></svg>