<svg xmlns="http://www.w3.org/2000/svg" width="34" height="32"><path d="M17.034-.007c4.4 0 8.162 1.562 11.287 4.688s4.688 6.887 4.688 11.288c0 4.4-1.563 8.163-4.688 11.288s-6.887 4.688-11.288 4.688c-4.4 0-8.162-1.563-11.287-4.688S1.058 20.37 1.058 15.97c0-4.4 1.562-8.162 4.688-11.287S12.633-.005 17.033-.005zm-.039 3.136c-3.526 0-6.54 1.252-9.044 3.756s-3.756 5.519-3.756 9.044c0 3.526 1.252 6.54 3.756 9.044s5.519 3.756 9.044 3.756c3.526 0 6.54-1.252 9.044-3.756s3.756-5.519 3.756-9.044c0-3.526-1.252-6.54-3.756-9.044s-5.519-3.756-9.044-3.756zm2.197 6.464a2.133 2.133 0 1 1-4.266 0 2.133 2.133 0 0 1 4.266 0zm0 13.867a2.133 2.133 0 0 1-4.266 0v-7.467a2.133 2.133 0 0 1 4.266 0v7.467z"/></svg>