<?xml version="1.0" encoding="UTF-8"?>
<svg width="10px" height="10px" viewBox="0 0 10 10" version="1.1" xmlns="http://www.w3.org/2000/svg" xmlns:xlink="http://www.w3.org/1999/xlink">
    <!-- Generator: Sketch 50.2 (55047) - http://www.bohemiancoding.com/sketch -->
    <title>Icons/Drag Copy 9</title>
    <desc>Created with Sketch.</desc>
    <defs>
        <path d="M8,6.63625 L5.045625,3.681875 C4.66903584,3.30528584 4.05846416,3.30528584 3.681875,3.681875 L3.681875,3.681875 C3.30528584,4.05846416 3.30528584,4.66903584 3.681875,5.045625 L6.63625,8 L3.681875,10.954375 C3.30528584,11.3309642 3.30528584,11.9415358 3.681875,12.318125 L3.681875,12.318125 C4.05846416,12.6947142 4.66903584,12.6947142 5.045625,12.318125 L8,9.36375 L10.954375,12.318125 C11.3309642,12.6947142 11.9415358,12.6947142 12.318125,12.318125 L12.318125,12.318125 C12.6947142,11.9415358 12.6947142,11.3309642 12.318125,10.954375 L9.36375,8 L12.318125,5.045625 C12.6947142,4.66903584 12.6947142,4.05846416 12.318125,3.681875 L12.318125,3.681875 C11.9415358,3.30528584 11.3309642,3.30528584 10.954375,3.681875 L8,6.63625 Z" id="path-1"></path>
    </defs>
    <g id="Half-Earth-map" stroke="none" stroke-width="1" fill="none" fill-rule="evenodd">
        <g id="guidelines" transform="translate(-356.000000, -2818.000000)">
            <g id="Icons/X" transform="translate(353.000000, 2815.000000)">
                <rect id="Rectangle-2" fill-rule="nonzero" x="0" y="0" width="16" height="16"></rect>
                <mask id="mask-2" fill="white">
                    <use xlink:href="#path-1"></use>
                </mask>
                <use id="X" fill="#0A212E" fill-rule="evenodd" xlink:href="#path-1"></use>
            </g>
        </g>
    </g>
</svg>
