<?xml version="1.0" encoding="UTF-8"?>
<svg id="icon-arrow-up" width="12px" height="14px" viewBox="0 0 12 14" version="1.1" xmlns="http://www.w3.org/2000/svg" xmlns:xlink="http://www.w3.org/1999/xlink">
    <!-- Generator: Sketch 50.2 (55047) - http://www.bohemiancoding.com/sketch -->
    <title>chevron</title>
    <desc>Created with Sketch.</desc>
    <defs></defs>
    <g id="icon-arrow-up" stroke="none" stroke-width="1" fill="none" fill-rule="evenodd">
        <g id="chevron" transform="translate(6.000000, 7.000000) rotate(90.000000) translate(-6.000000, -7.000000) translate(-2.000000, -1.000000)">
            <rect id="Rectangle-2" x="0" y="0" width="16" height="16"></rect>
            <path d="M7.97487446,9.88908708 L3.73223378,14.1317278 C3.34170949,14.5222521 2.70854451,14.5222521 2.31802021,14.1317278 C1.92749592,13.7412035 1.92749592,13.1080385 2.31802021,12.7175142 L7.26776768,7.76776673 C7.65829197,7.37724244 8.29145695,7.37724244 8.68198125,7.76776673 L13.6317287,12.7175142 C14.022253,13.1080385 14.022253,13.7412035 13.6317287,14.1317278 C13.2412044,14.5222521 12.6080394,14.5222521 12.2175151,14.1317278 L7.97487446,9.88908708 Z M7.97487446,3.88908708 L3.73223378,8.13172776 C3.34170949,8.52225206 2.70854451,8.52225206 2.31802021,8.13172776 C1.92749592,7.74120347 1.92749592,7.10803849 2.31802021,6.7175142 L7.26776768,1.76776673 C7.65829197,1.37724244 8.29145695,1.37724244 8.68198125,1.76776673 L13.6317287,6.7175142 C14.022253,7.10803849 14.022253,7.74120347 13.6317287,8.13172776 C13.2412044,8.52225206 12.6080394,8.52225206 12.2175151,8.13172776 L7.97487446,3.88908708 Z" id="Combined-Shape" fill="#0A212E" transform="translate(7.974874, 7.949747) rotate(-90.000000) translate(-7.974874, -7.949747) "></path>
        </g>
    </g>
</svg>