<svg width="16" height="12" xmlns="http://www.w3.org/2000/svg"><g fill="none" fill-rule="evenodd"><path d="M0-2h16v16H0z"/><path d="M2.097 6.48c.363.56.79 1.122 1.28 1.643C4.739 9.577 6.289 10.432 8 10.432c1.71 0 3.26-.855 4.623-2.309a11.668 11.668 0 0 0 1.52-2.032 11.668 11.668 0 0 0-1.52-2.032C11.261 2.604 9.711 1.75 8 1.75c-1.71 0-3.26.855-4.623 2.308a11.669 11.669 0 0 0-1.52 2.033c.066.112.146.243.24.388zM.33 5.754a9.77 9.77 0 0 1 .508-.866c.409-.633.89-1.264 1.445-1.857C3.902 1.304 5.813.25 8 .25s4.097 1.054 5.718 2.782a13.153 13.153 0 0 1 1.445 1.857c.247.382.417.684.508.866a.75.75 0 0 1 0 .671 9.77 9.77 0 0 1-.508.867c-.409.632-.89 1.264-1.445 1.856-1.62 1.729-3.531 2.783-5.718 2.783s-4.097-1.054-5.718-2.783A13.153 13.153 0 0 1 .837 7.293a9.77 9.77 0 0 1-.508-.867.75.75 0 0 1 0-.67zM8 8.75a2.66 2.66 0 1 1 0-5.318A2.66 2.66 0 0 1 8 8.75zm0-1.5a1.16 1.16 0 1 0 0-2.318A1.16 1.16 0 0 0 8 7.25z" fill="#495A64"/></g></svg>