<?xml version="1.0" encoding="UTF-8"?>
<svg width="14px" height="14px" viewBox="0 0 14 14" version="1.1" xmlns="http://www.w3.org/2000/svg" xmlns:xlink="http://www.w3.org/1999/xlink">
    <title>9F249861-FBFF-4DBC-AF06-4BB39DABE450</title>
    <g id="Page-1" stroke="none" stroke-width="1" fill="none" fill-rule="evenodd">
        <g id="HE-map---Map-Settings" transform="translate(-1237.000000, -69.000000)" fill="#18BAB4" fill-rule="nonzero">
            <g id="Group-5" transform="translate(1228.000000, 60.000000)">
                <g id="earth-3" transform="translate(9.000000, 9.000000)">
                    <path d="M7,0 C3.13400675,0 0,3.13400675 0,7 C0,10.8659932 3.13400675,14 7,14 C10.8659932,14 14,10.8659932 14,7 C14,3.13400675 10.8659932,0 7,0 Z M7,0.875 C10.3827441,0.875 13.125,3.61725591 13.125,7 C13.125,10.3827441 10.3827441,13.125 7,13.125 C3.61725591,13.125 0.875,10.3827441 0.875,7 C0.875,3.61725591 3.61725591,0.875 7,0.875 Z" id="Oval"></path>
                    <path d="M5.05712258,0.382936706 C5.1932497,0.183307442 5.46543403,0.131828786 5.66506329,0.26795591 C5.86469256,0.404083033 5.91617121,0.676267364 5.78004409,0.875896627 C4.9242895,2.13085342 4.375,4.44432611 4.375,7 C4.375,9.55567389 4.9242895,11.8691466 5.78004409,13.1241034 C5.91617121,13.3237326 5.86469256,13.595917 5.66506329,13.7320441 C5.46543403,13.8681712 5.1932497,13.8166926 5.05712258,13.6170633 C4.08890055,12.197174 3.5,9.71686925 3.5,7 C3.5,4.28313075 4.08890055,1.80282604 5.05712258,0.382936706 Z" id="Shape"></path>
                    <path d="M13.5625,6.5625 C13.8041246,6.5625 14,6.78635763 14,7.0625 C14,7.31563051 13.8354102,7.52482731 13.6218662,7.55793559 L13.5625,7.5625 L0.4375,7.5625 C0.195875422,7.5625 0,7.33864237 0,7.0625 C0,6.80936949 0.164589764,6.60017269 0.378133842,6.56706441 L0.4375,6.5625 L13.5625,6.5625 Z" id="Shape"></path>
                    <path d="M12.5521667,10.0625 C12.7937912,10.0625 12.9896667,10.2863576 12.9896667,10.5625 C12.9896667,10.8156305 12.8250769,11.0248273 12.6115328,11.0579356 L12.5521667,11.0625 L1.44783333,11.0625 C1.20620876,11.0625 1.01033333,10.8386424 1.01033333,10.5625 C1.01033333,10.3093695 1.1749231,10.1001727 1.38846717,10.0670644 L1.44783333,10.0625 L12.5521667,10.0625 Z" id="Shape"></path>
                    <path d="M12.5521667,3.0625 C12.7937912,3.0625 12.9896667,3.28635763 12.9896667,3.5625 C12.9896667,3.81563051 12.8250769,4.02482731 12.6115328,4.05793559 L12.5521667,4.0625 L1.44783333,4.0625 C1.20620876,4.0625 1.01033333,3.83864237 1.01033333,3.5625 C1.01033333,3.30936949 1.1749231,3.10017269 1.38846717,3.06706441 L1.44783333,3.0625 L12.5521667,3.0625 Z" id="Shape"></path>
                    <path d="M8.33493671,0.26795591 C8.53456597,0.131828786 8.8067503,0.183307442 8.94287742,0.382936706 C9.91109945,1.80282604 10.5,4.28313075 10.5,7 C10.5,9.71686925 9.91109945,12.197174 8.94287742,13.6170633 C8.8067503,13.8166926 8.53456597,13.8681712 8.33493671,13.7320441 C8.13530744,13.595917 8.08382879,13.3237326 8.21995591,13.1241034 C9.0757105,11.8691466 9.625,9.55567389 9.625,7 C9.625,4.44432611 9.0757105,2.13085342 8.21995591,0.875896627 C8.08382879,0.676267364 8.13530744,0.404083033 8.33493671,0.26795591 Z" id="Shape"></path>
                </g>
            </g>
        </g>
    </g>
</svg>