<svg viewBox="0 0 560 139" fill="none" xmlns="http://www.w3.org/2000/svg"><path fill-rule="evenodd" clip-rule="evenodd" d="M85.504 48.033a3.343 3.343 0 01-2.727 1.437h-39.42a3.345 3.345 0 01-2.779-1.5 3.19 3.19 0 01-.315-2.984c3.587-8.671 11.565-13.445 22.464-13.445 11.968 0 19.983 4.675 23.184 13.52a3.268 3.268 0 01-.407 2.972zM64.96 127.894c23.517 0 39.802-6.515 51.247-20.5 1.081-1.319.921-3.283-.368-4.47l-19.47-17.949a3.259 3.259 0 00-2.224-.873 3.16 3.16 0 00-2.584 1.308c-5.68 7.81-15.127 12.111-26.6 12.111-10.903 0-24.135-8.358-26.454-20.797a3.21 3.21 0 01.696-2.637 3.332 3.332 0 012.572-1.215h80.467a3.295 3.295 0 003.286-3.297v-4.922c0-37.973-25.238-63.487-62.8-63.487C25.312 1.166.174 26.68.174 64.653c0 37.826 26.035 63.241 64.785 63.241zm86.846-54.573h7.61a3.502 3.502 0 003.493-3.504V45.631c0-7.135 3.042-10.603 9.3-10.603 5.494 0 7.635 2.973 7.635 10.603v26.047c0 .905.734 1.643 1.636 1.643h11.215c.902 0 1.636-.738 1.636-1.643V45.63c0-15.272-5.303-21.502-18.305-21.502-4.228 0-7.534.71-9.824 2.108a2.261 2.261 0 01-1.179.338c-1.186 0-2.114-.918-2.114-2.092V5.398a3.36 3.36 0 00-3.351-3.361h-7.863a3.282 3.282 0 00-3.273 3.283v64.608a3.392 3.392 0 003.384 3.393zm68.693-10.212c-3.662 0-5.704-1.254-6.071-3.731-.255-1.625.145-3.158 1.129-4.313 1.121-1.315 2.922-2.07 4.942-2.07h7.225c.712 0 1.29.58 1.29 1.297v3.026c0 2.327-2.268 5.791-8.515 5.791zm2.643-39.078c-7.412 0-13.997 2.675-19.042 7.738a1.24 1.24 0 00-.347 1.046c.053.41.289.763.645.968l8.459 4.86c.206.118.441.181.678.181.326 0 .63-.119.854-.333 1.928-1.832 3.963-2.481 7.774-2.481 3.437 0 5.993 1.699 6.669 4.434.089.361.004.74-.231 1.042-.251.32-.641.513-1.042.513h-6.082c-13.082 0-21.535 6.704-21.535 17.083 0 10.044 5.988 14.927 18.305 14.927 4.211 0 8.337-1.583 10.767-4.124v2.142c0 .713.579 1.294 1.291 1.294h11.907c.711 0 1.29-.581 1.29-1.294V39.446c0-7.111-5.333-15.415-20.36-15.415zm29.086 49.29h11.442c.867 0 1.57-.71 1.57-1.576V1.847c0-.87-.703-1.577-1.57-1.577h-11.442c-.867 0-1.573.707-1.573 1.577v69.898c0 .866.706 1.576 1.573 1.576zm20.41-36.526h1.812c.985 0 1.788.804 1.788 1.791v32.942a1.79 1.79 0 001.784 1.793h10.915c.985 0 1.788-.806 1.788-1.793V38.586c0-.987.799-1.79 1.783-1.79h7.882c.984 0 1.787-.805 1.787-1.792v-8.397c0-.987-.803-1.79-1.787-1.79h-9.665v-2.26c0-4.843.639-9.326 5.283-9.326.771 0 2.292.078 3.806.61.192.067.391.1.586.1.981 0 1.777-.801 1.777-1.787V4.74c0-.657-.366-1.266-.96-1.59-2.423-1.325-4.768-1.997-6.968-1.997-12.457 0-18.011 6.601-18.011 21.404v2.259h-3.6c-.984 0-1.787.803-1.787 1.79v8.397c0 .987.803 1.791 1.787 1.791zm50.645 4.22h-16.394c-.928 0-1.681.76-1.681 1.69v8.996c0 .93.753 1.69 1.681 1.69h15.847c.476 0 .917-.197 1.24-.55.317-.349.469-.798.427-1.269a27.946 27.946 0 01-.107-2.405c0-2.092.21-4.156.629-6.138a1.674 1.674 0 00-1.642-2.014zm41.148 1.498a1.316 1.316 0 01-1.077.566h-15.546c-.44 0-.849-.22-1.098-.591a1.254 1.254 0 01-.12-1.176c1.414-3.42 4.558-5.302 8.858-5.302 4.719 0 7.881 1.843 9.143 5.33.138.388.078.827-.16 1.173zm-8.102 31.496c9.274 0 15.695-2.57 20.208-8.087.426-.52.362-1.294-.146-1.761l-7.679-7.078a1.27 1.27 0 00-.874-.346c-.412 0-.781.189-1.02.517-2.242 3.08-5.966 4.776-10.489 4.776-4.299 0-9.519-3.297-10.432-8.201a1.263 1.263 0 01.273-1.041 1.31 1.31 0 011.013-.481h31.734c.715 0 1.297-.581 1.297-1.298v-1.942c0-14.975-9.952-25.036-24.766-25.036-14.757 0-24.671 10.061-24.671 25.036 0 14.92 10.269 24.942 25.552 24.942zm48.087-11c-3.66 0-5.703-1.254-6.069-3.73-.256-1.626.146-3.159 1.13-4.313 1.119-1.316 2.921-2.068 4.939-2.068h7.043c.813 0 1.474.663 1.474 1.476v2.844c0 2.327-2.267 5.792-8.517 5.792zm2.644-39.077c-7.288 0-13.791 2.596-18.808 7.505a1.513 1.513 0 00-.448 1.279c.057.462.32.86.725 1.09l8.155 4.684c.224.131.483.2.743.2.362 0 .7-.13.959-.37 1.883-1.756 3.969-2.409 7.696-2.409 3.269 0 5.714 1.5 6.546 4.01.152.462.074.974-.21 1.37-.277.388-.714.609-1.19.609h-5.831c-13.084 0-21.537 6.707-21.537 17.086 0 10.04 5.987 14.923 18.307 14.923 4.21 0 8.336-1.58 10.766-4.124v1.96c0 .813.661 1.476 1.475 1.476h11.537c.814 0 1.475-.663 1.475-1.476V39.347c0-7.11-5.334-15.415-20.36-15.415zm52.883 11.073c.779 0 1.574.097 2.925.573a1.657 1.657 0 002.181-1.271l1.376-7.66c.138-.77-.274-1.542-.981-1.834-1.77-.73-3.386-.782-5.842-.782-3.07 0-8.258 1.553-10.18 5.008V26.38c0-.917-.746-1.663-1.659-1.663h-11.172c-.913 0-1.659.746-1.659 1.663V71.56c0 .916.746 1.66 1.659 1.66h11.172c.913 0 1.659-.744 1.659-1.66V45.927c0-7.335 3.042-10.9 9.299-10.9.224 0 .43-.005.679-.011.184-.006.362-.01.543-.01zm43.944-10.287h-8.269a1.596 1.596 0 01-1.591-1.597V12.372c0-.88-.715-1.597-1.592-1.597h-11.307c-.878 0-1.592.717-1.592 1.597v10.749c0 .88-.714 1.597-1.592 1.597h-2.196c-.881 0-1.595.716-1.595 1.596V35.1c0 .881.714 1.597 1.595 1.597h2.196c.878 0 1.592.717 1.592 1.598v14.309c0 15.404 5.049 21.406 18.012 21.406 2.203 0 4.523-.656 7.099-2.004.512-.267.832-.805.832-1.404v-8.1c0-.988-.824-1.601-1.585-1.601-.249 0-.494.06-.721.182a8.051 8.051 0 01-3.863.948c-2.331 0-3.844-1.077-4.626-3.29-.661-1.864-.661-4.224-.657-5.949V38.294c0-.88.714-1.598 1.591-1.598h8.269c.878 0 1.592-.716 1.592-1.597v-8.784c0-.881-.714-1.597-1.592-1.597zm37.551-.687c-5.973 0-10.18 1.467-12.17 4.243a.5.5 0 01-.416.218.535.535 0 01-.533-.532V2.6a.66.66 0 00-.657-.661h-13.168a.66.66 0 00-.661.661v69.961c0 .364.295.66.661.66h13.168a.658.658 0 00.657-.66V45.535c0-7.137 3.042-10.606 9.299-10.606 5.497 0 7.637 2.973 7.637 10.606v27.026c0 .364.294.66.66.66h13.169a.66.66 0 00.657-.66V45.535c0-15.275-5.301-21.504-18.303-21.504zm-374.154 88.52c0 4.319-2.788 7.834-6.215 7.834-2.073 0-4.028-1.408-5.222-3.75-.584-1.229-.88-2.602-.88-4.084 0-1.362.333-2.916.88-4.135 1.136-2.281 3.187-3.753 5.222-3.753 3.427 0 6.215 3.54 6.215 7.888zm-5.664-14.064c-2.262 0-4.412.887-5.61 2.316v-1.268a.661.661 0 00-.66-.663h-6.116c-.752 0-1.363.613-1.363 1.368v37.313c0 .752.611 1.365 1.363 1.365h5.414c.751 0 1.362-.613 1.362-1.365V126.75a1.362 1.362 0 011.911-1.247c1.399.623 3.146 1.058 4.249 1.058 7.837 0 13.31-5.759 13.31-14.01 0-8.148-5.829-14.064-13.86-14.064zm33.855.356c-.918-.331-1.81-.356-3.067-.356-1.725 0-4.639.873-5.717 2.812v-1.764a.66.66 0 00-.66-.663h-6.308c-.647 0-1.173.527-1.173 1.176v24.899c0 .648.526 1.176 1.173 1.176h5.795c.647 0 1.173-.528 1.173-1.176v-14.16c0-4.121 1.708-6.124 5.222-6.124.132 0 .253-.003.38-.007.104-.003.204-.003.304-.003.318 0 .717.018 1.416.242.114.036.233.057.354.057.566 0 1.051-.406 1.152-.966l.688-3.831c.102-.57-.206-1.123-.732-1.312zm16.615 6.373c3.543 0 6.215 3.154 6.215 7.335 0 4.152-2.672 7.285-6.215 7.285-3.512 0-6.159-3.133-6.159-7.285 0-4.181 2.647-7.335 6.159-7.335zm0-6.73c-8.018 0-14.298 6.177-14.298 14.065 0 7.859 6.28 14.01 14.298 14.01 8.183 0 14.353-6.02 14.353-14.01 0-7.888-6.305-14.064-14.353-14.064zm26.908.386h-5.99c-.592 0-1.074.484-1.074 1.076v24.186c0 4.045-2.273 4.359-2.97 4.359-1.169 0-1.905-.118-2.541-.41a.967.967 0 00-.407-.089c-.577 0-1.065.503-1.065 1.098v4.765c0 .431.256.82.649.991 3.128 1.368 3.487 1.368 6.281 1.368 5.589 0 8.192-3.838 8.192-12.082V99.948c0-.591-.482-1.076-1.075-1.076zm-2.885-11.862c-2.436 0-4.344 1.772-4.344 4.028 0 2.32 1.908 4.138 4.344 4.138 2.407 0 4.292-1.818 4.292-4.138 0-2.256-1.885-4.028-4.292-4.028zm16.751 21.039c.821-1.828 2.566-2.833 4.914-2.833 2.619 0 4.328.959 5.082 2.851a.803.803 0 01-.086.752.822.822 0 01-.682.367h-8.471a.823.823 0 01-.696-.385.788.788 0 01-.061-.752zm4.914-9.562c-8.289 0-13.859 5.652-13.859 14.064 0 8.383 5.769 14.01 14.353 14.01 5.177 0 8.766-1.422 11.3-4.473.273-.324.234-.812-.089-1.115l-4.179-3.853a.84.84 0 00-.568-.221.744.744 0 00-.604.296c-1.262 1.7-3.34 2.641-5.86 2.641-2.334 0-5.23-1.711-5.831-4.47a.81.81 0 01.164-.684.82.82 0 01.643-.31h17.784a.66.66 0 00.658-.659v-1.162c0-8.412-5.59-14.064-13.912-14.064zm31.173 6.729c1.063 0 3.696.253 5.199 2.598a.821.821 0 001.247.168l4.293-3.892a.867.867 0 00.28-.621.823.823 0 00-.238-.598c-2.874-2.869-6.605-4.384-10.781-4.384-8.016 0-14.298 6.176-14.298 14.064 0 7.859 6.282 14.01 14.298 14.01 4.176 0 7.907-1.514 10.785-4.387a.809.809 0 00.234-.599.865.865 0 00-.28-.617l-4.264-3.867a.837.837 0 00-.555-.21.812.812 0 00-.703.396c-1.009 1.675-2.815 2.559-5.217 2.559-3.51 0-6.157-3.133-6.157-7.285 0-4.181 2.647-7.335 6.157-7.335zm30.474-6.344h-4.264a1.088 1.088 0 01-1.088-1.087v-5.656c0-.603-.487-1.091-1.083-1.091h-5.97c-.597 0-1.084.488-1.084 1.09v5.657c0 .599-.487 1.087-1.087 1.087h-.853c-.597 0-1.084.488-1.084 1.087v4.555c0 .598.487 1.087 1.084 1.087h.853c.6 0 1.087.488 1.087 1.09v7.845c0 9.983 4.044 12.025 10.116 12.025 1.212 0 2.484-.349 3.888-1.069.344-.178.568-.556.568-.962v-4.142c0-.595-.476-1.062-1.08-1.062-.167 0-.33.036-.487.107a4.496 4.496 0 01-1.897.403c-1.29 0-2.168-.624-2.601-1.854-.37-1.047-.37-2.373-.37-3.343v-7.948c0-.602.487-1.09 1.088-1.09h4.264c.597 0 1.083-.489 1.083-1.087v-4.555c0-.599-.486-1.087-1.083-1.087z" fill="#fff"/></svg>