<svg xmlns="http://www.w3.org/2000/svg" viewBox="0 0 1550 1562">
  <path fill="#FFFFFE" fill-rule="evenodd" d="M1054.621,577.489 C1046.841,588.557 1034.241,595.176 1020.911,595.176 L533.703,595.176 C519.942,595.176 507.098,588.258 499.358,576.685 C491.973,565.636 490.533,551.894 495.469,539.928 C539.798,433.098 638.402,374.28 773.111,374.28 C921.011,374.28 1020.081,431.883 1059.651,540.882 C1064.041,552.997 1062.171,566.701 1054.621,577.489 Z M800.701,1561.532 C1091.351,1561.532 1292.621,1481.262 1434.071,1308.942 C1447.441,1292.672 1445.461,1268.482 1429.531,1253.842 L1188.891,1032.682 C1181.401,1025.752 1171.641,1021.932 1161.411,1021.932 C1148.581,1021.932 1136.941,1027.802 1129.481,1038.032 C1059.271,1134.262 942.511,1187.262 800.701,1187.262 C665.96,1187.262 502.424,1084.302 473.763,931.032 C471.613,919.552 474.754,907.702 482.363,898.502 C490.29,888.992 501.863,883.532 514.147,883.532 L1508.671,883.532 C1531.071,883.532 1549.281,865.322 1549.281,842.942 L1549.281,782.292 C1549.281,314.377 1237.351,-4.54747351e-13 773.111,-4.54747351e-13 C310.694,-4.54747351e-13 0,314.377 0,782.292 C0,1248.362 321.781,1561.532 800.701,1561.532 L800.701,1561.532 Z"/>
</svg>
