<svg  viewBox="0 0 100 25" fill="none" xmlns="http://www.w3.org/2000/svg">
<path fill-rule="evenodd" clip-rule="evenodd" d="M15.2687 8.55137C15.1563 8.71127 14.9743 8.80708 14.7816 8.80708H7.74235C7.54356 8.80708 7.35796 8.70682 7.24616 8.53995C7.13944 8.38005 7.11862 8.18144 7.18994 8.00885C7.83042 6.46514 9.25511 5.61526 11.2014 5.61526C13.3384 5.61526 14.7698 6.44756 15.3413 8.02218C15.4049 8.19731 15.3778 8.39528 15.2687 8.55137ZM11.6001 22.769C15.7995 22.769 18.7075 21.6091 20.7512 19.1193C20.9444 18.8845 20.9158 18.5349 20.6856 18.3236L17.2088 15.1281C17.1005 15.0279 16.9594 14.9727 16.8117 14.9727C16.6264 14.9727 16.4581 15.0577 16.3503 15.2056C15.3359 16.5958 13.649 17.3616 11.6001 17.3616C9.65327 17.3616 7.29045 15.8737 6.87636 13.6592C6.84527 13.4936 6.89064 13.3223 7.0006 13.1897C7.11513 13.052 7.28233 12.9733 7.4598 12.9733H21.829C22.1527 12.9733 22.4158 12.71 22.4158 12.3864V11.5101C22.4158 4.74978 17.9089 0.207585 11.2014 0.207585C4.52027 0.207585 0.03125 4.74978 0.03125 11.5101C0.03125 18.2443 4.68049 22.769 11.6001 22.769ZM27.1082 13.0533H28.4671C28.8111 13.0533 29.091 12.7734 29.091 12.4295V8.1237C29.091 6.85346 29.6341 6.23595 30.7516 6.23595C31.7328 6.23595 32.115 6.76526 32.115 8.1237V12.7608C32.115 12.9219 32.2461 13.0533 32.4072 13.0533H34.4099C34.571 13.0533 34.702 12.9219 34.702 12.7608V8.1237C34.702 5.40479 33.755 4.29559 31.4333 4.29559C30.6782 4.29559 30.088 4.42199 29.679 4.67104C29.6143 4.71044 29.5416 4.73119 29.4684 4.73119C29.2567 4.73119 29.091 4.56761 29.091 4.35866V0.960948C29.091 0.631063 28.8225 0.362598 28.4926 0.362598H27.0884C26.7661 0.362598 26.504 0.624781 26.504 0.947116V12.4492C26.504 12.7823 26.7751 13.0533 27.1082 13.0533ZM39.3748 11.2354C38.7209 11.2354 38.3563 11.012 38.2908 10.571C38.2453 10.2817 38.3167 10.0089 38.4924 9.80327C38.6925 9.56913 39.0142 9.43462 39.3748 9.43462H40.6651C40.7922 9.43462 40.8955 9.53804 40.8955 9.66558V10.2043C40.8955 10.6186 40.4905 11.2354 39.3748 11.2354ZM39.8467 4.27814C38.5232 4.27814 37.3474 4.75454 36.4465 5.65581C36.3979 5.70448 36.3752 5.77231 36.3844 5.8421C36.394 5.91507 36.4361 5.97783 36.4997 6.01438L38.0102 6.87948C38.047 6.90067 38.089 6.91184 38.1312 6.91184C38.1894 6.91184 38.2438 6.89064 38.2839 6.85251C38.6281 6.5263 38.9914 6.41076 39.672 6.41076C40.2857 6.41076 40.7421 6.7133 40.8629 7.20023C40.8788 7.26457 40.8636 7.33182 40.8217 7.38576C40.7768 7.44286 40.7073 7.47713 40.6356 7.47713H39.5495C37.2134 7.47713 35.704 8.67066 35.704 10.5184C35.704 12.3064 36.7733 13.1757 38.9727 13.1757C39.7247 13.1757 40.4615 12.894 40.8955 12.4416V12.8229C40.8955 12.9498 40.9988 13.0533 41.1259 13.0533H43.2521C43.3792 13.0533 43.4825 12.9498 43.4825 12.8229V7.02256C43.4825 5.75657 42.5303 4.27814 39.8467 4.27814ZM45.0408 13.0533H47.0839C47.2387 13.0533 47.3644 12.927 47.3644 12.7728V0.328715C47.3644 0.173956 47.2387 0.0480042 47.0839 0.0480042H45.0408C44.8859 0.0480042 44.7599 0.173956 44.7599 0.328715V12.7728C44.7599 12.927 44.8859 13.0533 45.0408 13.0533ZM48.6854 6.55061H49.009C49.1848 6.55061 49.3282 6.69369 49.3282 6.86945V12.7341C49.3282 12.9099 49.471 13.0533 49.6467 13.0533H51.596C51.7717 13.0533 51.9151 12.9099 51.9151 12.7341V6.86945C51.9151 6.69369 52.0579 6.55061 52.2337 6.55061H53.641C53.8168 6.55061 53.9602 6.40752 53.9602 6.23176V4.73684C53.9602 4.56108 53.8168 4.41806 53.641 4.41806H51.9151V4.01596C51.9151 3.15352 52.0293 2.35543 52.8587 2.35543C52.9963 2.35543 53.2679 2.36945 53.5382 2.46399C53.5725 2.47592 53.608 2.48195 53.6429 2.48195C53.8181 2.48195 53.9602 2.33925 53.9602 2.16368V0.84407C53.9602 0.727129 53.8948 0.618563 53.7889 0.560948C53.3561 0.325098 52.9373 0.205491 52.5446 0.205491C50.32 0.205491 49.3282 1.38068 49.3282 4.01596V4.41806H48.6854C48.5097 4.41806 48.3663 4.56108 48.3663 4.73684V6.23176C48.3663 6.40752 48.5097 6.55061 48.6854 6.55061ZM57.7292 7.302H54.8016C54.6359 7.302 54.5014 7.43715 54.5014 7.60276V9.20429C54.5014 9.36989 54.6359 9.50505 54.8016 9.50505H57.6315C57.7165 9.50505 57.7952 9.47015 57.853 9.40733C57.9094 9.34515 57.9367 9.2652 57.9291 9.18144C57.9164 9.03614 57.9101 8.89147 57.9101 8.75314C57.9101 8.38068 57.9475 8.0133 58.0224 7.6605C58.0408 7.57294 58.0192 7.48284 57.9627 7.41304C57.9056 7.34261 57.8206 7.302 57.7292 7.302ZM65.0769 7.5685C65.0325 7.63195 64.9608 7.66939 64.8847 7.66939H62.1087C62.03 7.66939 61.957 7.63005 61.9126 7.56406C61.8707 7.50124 61.8625 7.42256 61.891 7.35467C62.1436 6.74591 62.7051 6.41076 63.4729 6.41076C64.3155 6.41076 64.8802 6.73893 65.1055 7.35974C65.1302 7.42891 65.1194 7.50695 65.0769 7.5685ZM63.6302 13.1757C65.2863 13.1757 66.4329 12.7182 67.2387 11.736C67.3149 11.6434 67.3035 11.5057 67.2127 11.4226L65.8415 10.1624C65.799 10.1224 65.7432 10.1009 65.6854 10.1009C65.6118 10.1009 65.5458 10.1345 65.5033 10.1929C65.1029 10.7411 64.438 11.0431 63.6302 11.0431C62.8625 11.0431 61.9304 10.4562 61.7673 9.58309C61.7546 9.51774 61.773 9.44984 61.8161 9.39781C61.8612 9.34325 61.9272 9.31215 61.997 9.31215H67.6639C67.7914 9.31215 67.8955 9.20873 67.8955 9.08119V8.73538C67.8955 6.06945 66.1182 4.27814 63.4729 4.27814C60.8377 4.27814 59.0674 6.06945 59.0674 8.73538C59.0674 11.3915 60.9012 13.1757 63.6302 13.1757ZM72.2172 11.2176C71.5636 11.2176 71.1988 10.9943 71.1334 10.5533C71.0877 10.2639 71.1594 9.99109 71.3352 9.7855C71.5351 9.55137 71.8568 9.41748 72.2172 9.41748H73.4748C73.6201 9.41748 73.7381 9.5355 73.7381 9.68017V10.1865C73.7381 10.6009 73.3333 11.2176 72.2172 11.2176ZM72.6892 4.26057C71.3878 4.26057 70.2267 4.72269 69.3307 5.59674C69.2692 5.65695 69.24 5.74007 69.2508 5.8244C69.2609 5.90663 69.3079 5.97751 69.3802 6.01863L70.8364 6.85245C70.8764 6.87573 70.9227 6.88811 70.9691 6.88811C71.0338 6.88811 71.0941 6.86469 71.1404 6.82193C71.4767 6.50949 71.8491 6.39325 72.5147 6.39325C73.0985 6.39325 73.5351 6.66012 73.6835 7.10701C73.7108 7.18938 73.6969 7.28043 73.6461 7.35086C73.5966 7.42002 73.5186 7.45936 73.4335 7.45936H72.3923C70.056 7.45936 68.5465 8.65352 68.5465 10.5012C68.5465 12.2887 69.6156 13.158 71.8155 13.158C72.5674 13.158 73.3041 12.8769 73.7381 12.4238V12.7728C73.7381 12.9175 73.8561 13.0355 74.0014 13.0355H76.0617C76.207 13.0355 76.325 12.9175 76.325 12.7728V7.00498C76.325 5.73899 75.3726 4.26057 72.6892 4.26057ZM82.1328 6.23201C82.2717 6.23201 82.4139 6.24927 82.655 6.33386C82.6867 6.3449 82.7191 6.35054 82.7527 6.35054C82.8967 6.35054 83.0192 6.24839 83.0446 6.10759L83.2901 4.74388C83.3149 4.60682 83.2413 4.46945 83.115 4.41736C82.799 4.28754 82.5103 4.27814 82.0719 4.27814C81.5236 4.27814 80.5972 4.55473 80.254 5.16971V4.69661C80.254 4.53328 80.1207 4.40048 79.9576 4.40048H77.9627C77.7996 4.40048 77.6664 4.53328 77.6664 4.69661V12.7398C77.6664 12.9029 77.7996 13.0355 77.9627 13.0355H79.9576C80.1207 13.0355 80.254 12.9029 80.254 12.7398V8.17637C80.254 6.87053 80.7971 6.23595 81.9145 6.23595C81.9545 6.23595 81.9913 6.235 82.0357 6.23379C82.0687 6.23284 82.1004 6.23201 82.1328 6.23201ZM89.9799 4.40048H88.5033C88.3466 4.40048 88.2191 4.27294 88.2191 4.11615V2.20264C88.2191 2.04585 88.0915 1.91831 87.9348 1.91831H85.9158C85.759 1.91831 85.6315 2.04585 85.6315 2.20264V4.11615C85.6315 4.27294 85.504 4.40048 85.3472 4.40048H84.9551C84.7977 4.40048 84.6702 4.52795 84.6702 4.68474V6.2487C84.6702 6.40556 84.7977 6.53303 84.9551 6.53303H85.3472C85.504 6.53303 85.6315 6.66069 85.6315 6.81748V9.36482C85.6315 12.1072 86.5331 13.1757 88.8479 13.1757C89.2413 13.1757 89.6556 13.059 90.1156 12.8191C90.207 12.7715 90.2641 12.6757 90.2641 12.5691V11.1269C90.2641 10.9511 90.1169 10.842 89.9811 10.842C89.9367 10.842 89.8929 10.8528 89.8523 10.8743C89.6315 10.9892 89.4126 11.0431 89.1626 11.0431C88.7463 11.0431 88.476 10.8515 88.3364 10.4575C88.2184 10.1256 88.2184 9.70556 88.2191 9.39845V6.81748C88.2191 6.66069 88.3466 6.53303 88.5033 6.53303H89.9799C90.1366 6.53303 90.2641 6.40556 90.2641 6.2487V4.68474C90.2641 4.52795 90.1366 4.40048 89.9799 4.40048ZM96.6854 4.27814C95.6188 4.27814 94.8675 4.53937 94.5122 5.03354C94.4944 5.0586 94.4678 5.07243 94.438 5.07243C94.3859 5.07243 94.3428 5.02992 94.3428 4.9777V0.462915C94.3428 0.397877 94.2901 0.345149 94.2254 0.345149H91.8739C91.8085 0.345149 91.7559 0.397877 91.7559 0.462915V12.9181C91.7559 12.9828 91.8085 13.0355 91.8739 13.0355H94.2254C94.2901 13.0355 94.3428 12.9828 94.3428 12.9181V8.10657C94.3428 6.83589 94.8859 6.21837 96.0033 6.21837C96.9849 6.21837 97.3669 6.74769 97.3669 8.10657V12.9181C97.3669 12.9828 97.4196 13.0355 97.4849 13.0355H99.8365C99.9012 13.0355 99.9538 12.9828 99.9538 12.9181V8.10657C99.9538 5.38722 99.0071 4.27814 96.6854 4.27814ZM29.8722 20.0374C29.8722 20.8064 29.3744 21.4321 28.7624 21.4321C28.3921 21.4321 28.0431 21.1814 27.8299 20.7646C27.7256 20.5457 27.6727 20.3014 27.6727 20.0374C27.6727 19.795 27.7323 19.5184 27.8299 19.3014C28.0328 18.8953 28.399 18.6332 28.7624 18.6332C29.3744 18.6332 29.8722 19.2633 29.8722 20.0374ZM28.8608 17.5336C28.4569 17.5336 28.0729 17.6916 27.859 17.946V17.7201C27.859 17.6548 27.8062 17.6021 27.7411 17.6021H26.6489C26.5148 17.6021 26.4056 17.7113 26.4056 17.8458V24.4886C26.4056 24.6224 26.5148 24.7316 26.6489 24.7316H27.6158C27.7498 24.7316 27.859 24.6224 27.859 24.4886V22.5653C27.859 22.4314 27.9675 22.3223 28.101 22.3223C28.1351 22.3223 28.1684 22.3293 28.2003 22.3432C28.45 22.4543 28.762 22.5317 28.959 22.5317C30.3584 22.5317 31.3357 21.5063 31.3357 20.0374C31.3357 18.5869 30.2948 17.5336 28.8608 17.5336ZM34.9062 17.5971C34.7423 17.538 34.583 17.5336 34.3586 17.5336C34.0506 17.5336 33.5303 17.6891 33.3377 18.0342V17.7201C33.3377 17.6548 33.285 17.6021 33.2199 17.6021H32.0934C31.9779 17.6021 31.884 17.696 31.884 17.8115V22.2443C31.884 22.3597 31.9779 22.4537 32.0934 22.4537H33.1283C33.2437 22.4537 33.3377 22.3597 33.3377 22.2443V19.7233C33.3377 18.9898 33.6427 18.6332 34.2701 18.6332C34.2938 18.6332 34.3153 18.6326 34.3381 18.632C34.3566 18.6313 34.3745 18.6313 34.3924 18.6313C34.4492 18.6313 34.5204 18.6345 34.6451 18.6745C34.6656 18.6808 34.6869 18.6846 34.7084 18.6846C34.8095 18.6846 34.896 18.6123 34.9141 18.5127L35.037 17.8306C35.0552 17.729 35.0002 17.6307 34.9062 17.5971ZM37.8732 18.7316C38.5059 18.7316 38.9831 19.2931 38.9831 20.0374C38.9831 20.7766 38.5059 21.3344 37.8732 21.3344C37.2462 21.3344 36.7734 20.7766 36.7734 20.0374C36.7734 19.2931 37.2462 18.7316 37.8732 18.7316ZM37.8732 17.5336C36.4415 17.5336 35.3201 18.6332 35.3201 20.0374C35.3201 21.4365 36.4415 22.5317 37.8732 22.5317C39.3344 22.5317 40.4363 21.46 40.4363 20.0374C40.4363 18.6332 39.3104 17.5336 37.8732 17.5336ZM42.6783 17.6021H41.6087C41.5029 17.6021 41.4168 17.6884 41.4168 17.7938V22.0996C41.4168 22.8198 41.0109 22.8756 40.8865 22.8756C40.6776 22.8756 40.5463 22.8547 40.4327 22.8026C40.4094 22.7919 40.3849 22.7868 40.36 22.7868C40.2569 22.7868 40.1699 22.8762 40.1699 22.9822V23.8306C40.1699 23.9073 40.2155 23.9765 40.2858 24.007C40.8443 24.2506 40.9083 24.2506 41.4073 24.2506C42.4054 24.2506 42.8702 23.5672 42.8702 22.0996V17.7938C42.8702 17.6884 42.7841 17.6021 42.6783 17.6021ZM42.163 15.4905C41.7281 15.4905 41.3874 15.8058 41.3874 16.2075C41.3874 16.6205 41.7281 16.9441 42.163 16.9441C42.5929 16.9441 42.9295 16.6205 42.9295 16.2075C42.9295 15.8058 42.5929 15.4905 42.163 15.4905ZM45.1543 19.236C45.3009 18.9105 45.6125 18.7316 46.0319 18.7316C46.4995 18.7316 46.8047 18.9023 46.9392 19.2392C46.957 19.283 46.9513 19.3331 46.924 19.3731C46.8961 19.4143 46.8504 19.4384 46.8022 19.4384H45.2895C45.2394 19.4384 45.1931 19.413 45.1651 19.3699C45.1391 19.3293 45.1347 19.2792 45.1543 19.236ZM46.0319 17.5336C44.5517 17.5336 43.5571 18.5399 43.5571 20.0374C43.5571 21.5298 44.5871 22.5317 46.1201 22.5317C47.0446 22.5317 47.6854 22.2785 48.1378 21.7354C48.1867 21.6776 48.1797 21.5907 48.122 21.5368L47.3758 20.8509C47.3479 20.8255 47.3117 20.8115 47.2743 20.8115C47.2305 20.8115 47.1911 20.8312 47.1664 20.8642C46.9411 21.1669 46.57 21.3344 46.1201 21.3344C45.7032 21.3344 45.1861 21.0298 45.0788 20.5387C45.0693 20.4962 45.0801 20.4517 45.108 20.4169C45.1359 20.382 45.1778 20.3616 45.2229 20.3616H48.3986C48.4634 20.3616 48.516 20.309 48.516 20.2443V20.0374C48.516 18.5399 47.5179 17.5336 46.0319 17.5336ZM51.5985 18.7316C51.7882 18.7316 52.2584 18.7766 52.5268 19.1941C52.5541 19.2366 52.6004 19.262 52.6512 19.262C52.6873 19.262 52.7222 19.2481 52.7495 19.224L53.516 18.5311C53.5471 18.5031 53.5649 18.4632 53.5662 18.4207C53.5668 18.38 53.5516 18.3426 53.5236 18.3141C53.0103 17.8033 52.3441 17.5336 51.5985 17.5336C50.167 17.5336 49.0452 18.6332 49.0452 20.0374C49.0452 21.4365 50.167 22.5317 51.5985 22.5317C52.3441 22.5317 53.0103 22.262 53.5243 21.7506C53.5522 21.7233 53.5668 21.6853 53.5662 21.644C53.5649 21.6021 53.5471 21.5622 53.516 21.5342L52.7546 20.8458C52.7273 20.8217 52.6924 20.8083 52.6556 20.8083C52.6042 20.8083 52.5566 20.8344 52.53 20.8788C52.3498 21.177 52.0274 21.3344 51.5985 21.3344C50.9716 21.3344 50.4989 20.7766 50.4989 20.0374C50.4989 19.2931 50.9716 18.7316 51.5985 18.7316ZM57.0401 17.6021H56.2787C56.1715 17.6021 56.0845 17.5152 56.0845 17.4086V16.4016C56.0845 16.2944 55.9976 16.2075 55.891 16.2075H54.825C54.7184 16.2075 54.6315 16.2944 54.6315 16.4016V17.4086C54.6315 17.5152 54.5446 17.6021 54.4373 17.6021H54.2851C54.1785 17.6021 54.0915 17.6891 54.0915 17.7957V18.6066C54.0915 18.7132 54.1785 18.8001 54.2851 18.8001H54.4373C54.5446 18.8001 54.6315 18.887 54.6315 18.9943V20.3908C54.6315 22.1681 55.3536 22.5317 56.438 22.5317C56.6543 22.5317 56.8815 22.4695 57.1321 22.3413C57.1937 22.3096 57.2337 22.2424 57.2337 22.17V21.4327C57.2337 21.3267 57.1486 21.2436 57.0408 21.2436C57.0109 21.2436 56.9818 21.25 56.9538 21.2627C56.8472 21.3109 56.7362 21.3344 56.615 21.3344C56.3847 21.3344 56.2279 21.2233 56.1505 21.0044C56.0845 20.8179 56.0845 20.5818 56.0845 20.4092V18.9943C56.0845 18.887 56.1715 18.8001 56.2787 18.8001H57.0401C57.1467 18.8001 57.2337 18.7132 57.2337 18.6066V17.7957C57.2337 17.6891 57.1467 17.6021 57.0401 17.6021Z" fill="white"/>
</svg>
