<?xml version="1.0" encoding="UTF-8"?>
<svg width="16px" height="12px" viewBox="0 0 16 12" version="1.1" xmlns="http://www.w3.org/2000/svg" xmlns:xlink="http://www.w3.org/1999/xlink">
    <!-- Generator: Sketch 50.2 (55047) - http://www.bohemiancoding.com/sketch -->
    <title>Icons/Drag</title>
    <desc>Created with Sketch.</desc>
    <defs></defs>
    <g id="Half-Earth-map" stroke="none" stroke-width="1" fill="none" fill-rule="evenodd">
        <g id="guidelines" transform="translate(-173.000000, -2817.000000)">
            <g id="Icons/Visible" transform="translate(173.000000, 2815.000000)">
                <rect id="Rectangle-2" fill-rule="nonzero" x="0" y="0" width="16" height="16"></rect>
                <path d="M2.09735908,8.47946956 C2.45963528,9.04041336 2.8876993,9.6018088 3.37669836,10.1234078 C4.73910443,11.5766409 6.2891132,12.4318182 8,12.4318182 C9.7108868,12.4318182 11.2608956,11.5766409 12.6233016,10.1234078 C13.1123007,9.6018088 13.5403647,9.04041336 13.9026409,8.47946956 C13.9967101,8.33381413 14.0770314,8.20317379 14.1433235,8.09090909 C14.0770314,7.9786444 13.9967101,7.84800405 13.9026409,7.70234862 C13.5403647,7.14140482 13.1123007,6.58000939 12.6233016,6.05841039 C11.2608956,4.60517725 9.7108868,3.75 8,3.75 C6.2891132,3.75 4.73910443,4.60517725 3.37669836,6.05841039 C2.8876993,6.58000939 2.45963528,7.14140482 2.09735908,7.70234862 C2.00328995,7.84800405 1.92296856,7.9786444 1.85667645,8.09090909 C1.92296856,8.20317379 2.00328995,8.33381413 2.09735908,8.47946956 Z M0.329179607,7.75549889 C0.420401134,7.57305584 0.590305701,7.27100328 0.837300012,6.88856047 C1.2456204,6.25632245 1.72735752,5.62453607 2.28239255,5.0324987 C3.90294103,3.30391366 5.81315953,2.25 8,2.25 C10.1868405,2.25 12.097059,3.30391366 13.7176074,5.0324987 C14.2726425,5.62453607 14.7543796,6.25632245 15.1627,6.88856047 C15.4096943,7.27100328 15.5795989,7.57305584 15.6708204,7.75549889 C15.7763932,7.96664451 15.7763932,8.21517367 15.6708204,8.42631929 C15.5795989,8.60876234 15.4096943,8.91081491 15.1627,9.29325771 C14.7543796,9.92549573 14.2726425,10.5572821 13.7176074,11.1493195 C12.097059,12.8779045 10.1868405,13.9318182 8,13.9318182 C5.81315953,13.9318182 3.90294103,12.8779045 2.28239255,11.1493195 C1.72735752,10.5572821 1.2456204,9.92549573 0.837300012,9.29325771 C0.590305701,8.91081491 0.420401134,8.60876234 0.329179607,8.42631929 C0.223606798,8.21517367 0.223606798,7.96664451 0.329179607,7.75549889 Z M8,10.75 C6.53142464,10.75 5.34090909,9.55948445 5.34090909,8.09090909 C5.34090909,6.62233373 6.53142464,5.43181818 8,5.43181818 C9.46857536,5.43181818 10.6590909,6.62233373 10.6590909,8.09090909 C10.6590909,9.55948445 9.46857536,10.75 8,10.75 Z M8,9.25 C8.64014823,9.25 9.15909091,8.73105732 9.15909091,8.09090909 C9.15909091,7.45076086 8.64014823,6.93181818 8,6.93181818 C7.35985177,6.93181818 6.84090909,7.45076086 6.84090909,8.09090909 C6.84090909,8.73105732 7.35985177,9.25 8,9.25 Z" id="Shape" fill="#495A64" fill-rule="evenodd"></path>
            </g>
        </g>
    </g>
</svg>