<svg width="16" height="16" viewBox="0 0 16 16" fill="none" xmlns="http://www.w3.org/2000/svg">
<path fill-rule="evenodd" clip-rule="evenodd" d="M8.33333 2.33321C5.01962 2.33321 2.33333 5.0195 2.33333 8.33321C2.33333 11.6469 5.01962 14.3332 8.33333 14.3332C11.647 14.3332 14.3333 11.6469 14.3333 8.33321C14.3333 5.0195 11.647 2.33321 8.33333 2.33321ZM1 8.33321C1 4.28312 4.28325 0.999878 8.33333 0.999878C12.3834 0.999878 15.6667 4.28312 15.6667 8.33321C15.6667 12.3833 12.3834 15.6665 8.33333 15.6665C4.28325 15.6665 1 12.3833 1 8.33321Z" fill="#727B80"/>
<path fill-rule="evenodd" clip-rule="evenodd" d="M8.33333 7.66654C8.70152 7.66654 9 7.96502 9 8.33321V10.9999C9 11.3681 8.70152 11.6665 8.33333 11.6665C7.96514 11.6665 7.66667 11.3681 7.66667 10.9999V8.33321C7.66667 7.96502 7.96514 7.66654 8.33333 7.66654Z" fill="#727B80"/>
<path fill-rule="evenodd" clip-rule="evenodd" d="M7.66667 5.66654C7.66667 5.29835 7.96514 4.99988 8.33333 4.99988H8.34C8.70819 4.99988 9.00667 5.29835 9.00667 5.66654C9.00667 6.03473 8.70819 6.33321 8.34 6.33321H8.33333C7.96514 6.33321 7.66667 6.03473 7.66667 5.66654Z" fill="#727B80"/>
</svg>
