<?xml version="1.0" encoding="UTF-8"?>
<svg width="14px" height="14px" viewBox="0 0 14 14" version="1.1" xmlns="http://www.w3.org/2000/svg" xmlns:xlink="http://www.w3.org/1999/xlink">
    <!-- Generator: Sketch 54.1 (76490) - https://sketchapp.com -->
    <title>icon/info copy</title>
    <desc>Created with Sketch.</desc>
    <g id="UI-KIT" stroke="none" stroke-width="1" fill="none" fill-rule="evenodd">
        <g transform="translate(-510.000000, -2839.000000)" id="icon/info">
            <g transform="translate(510.000000, 2839.000000)">
                <g id="iconinfo">
                    <path d="M7,14 C3.1338125,14 0,10.8661875 0,7 C0,3.1338125 3.1338125,0 7,0 C10.8661875,0 14,3.1338125 14,7 C14,10.8661875 10.8661875,14 7,14 Z" id="Shape" fill="#FFFFFF" fill-rule="nonzero"></path>
                    <path d="M6.80315152,6.4090303 C6.26775758,6.4090303 5.83333333,6.8430303 5.83333333,7.37884848 L5.83333333,10.2878788 C5.83333333,10.8232727 6.26733333,11.257697 6.80315152,11.257697 C7.3389697,11.257697 7.7729697,10.823697 7.7729697,10.2878788 L7.7729697,7.37884848 C7.7729697,6.84345455 7.3389697,6.4090303 6.80315152,6.4090303 Z M6.80315152,5.43963636 C7.33854545,5.43963636 7.7729697,5.00563636 7.7729697,4.46981818 C7.7729697,3.934 7.3389697,3.5 6.80315152,3.5 C6.26775758,3.5 5.83333333,3.934 5.83333333,4.46981818 C5.83333333,5.00563636 6.26733333,5.43963636 6.80315152,5.43963636 Z" id="Shape-Copy" fill="#0A212E" fill-rule="nonzero"></path>
                </g>
            </g>
        </g>
    </g>
</svg>