<?xml version="1.0" encoding="UTF-8"?>
<svg width="14px" height="14px" viewBox="0 0 14 14" version="1.1" xmlns="http://www.w3.org/2000/svg" xmlns:xlink="http://www.w3.org/1999/xlink">
    <!-- Generator: sketchtool 54.1 (76490) - https://sketchapp.com -->
    <title>D4B82B88-0F27-40F0-8A33-1B28EC79D81A</title>
    <desc>Created with sketchtool.</desc>
    <g id="UI-KIT" stroke="none" stroke-width="1" fill="none" fill-rule="evenodd">
        <g transform="translate(-510.000000, -2839.000000)" fill-rule="nonzero" id="icon/info-copy">
            <g transform="translate(510.000000, 2839.000000)">
                <g id="iconinfo">
                    <path d="M7,14 C3.1338125,14 0,10.8661875 0,7 C0,3.1338125 3.1338125,0 7,0 C10.8661875,0 14,3.1338125 14,7 C14,10.8661875 10.8661875,14 7,14 Z" id="Shape" fill="#FFFFFF"></path>
                    <path d="M6.80315151,6.4090302 C6.26775757,6.4090302 5.83333333,6.84303021 5.83333333,7.37884841 L5.83333333,10.2878788 C5.83333333,10.8232728 6.26733333,11.257697 6.80315151,11.257697 C7.33896969,11.257697 7.77296968,10.823697 7.77296968,10.2878788 L7.77296968,7.37884841 C7.77296968,6.84345446 7.33896969,6.4090302 6.80315151,6.4090302 Z M6.80315151,5.43963635 C7.33854544,5.43963635 7.77296968,5.00563635 7.77296968,4.46981817 C7.77296968,3.934 7.33896969,3.5 6.80315151,3.5 C6.26775757,3.5 5.83333333,3.934 5.83333333,4.46981817 C5.83333333,5.00563635 6.26733333,5.43963635 6.80315151,5.43963635 Z" id="Shape-Copy" fill="#0A212E"></path>
                </g>
            </g>
        </g>
    </g>
</svg>