<svg width="15" height="15" viewBox="0 0 15 15" fill="none" xmlns="http://www.w3.org/2000/svg">
<path fill-rule="evenodd" clip-rule="evenodd" d="M7.33333 1.33333C4.01963 1.33333 1.33333 4.01963 1.33333 7.33333C1.33333 10.647 4.01963 13.3333 7.33333 13.3333C10.647 13.3333 13.3333 10.647 13.3333 7.33333C13.3333 4.01963 10.647 1.33333 7.33333 1.33333ZM0 7.33333C0 3.28325 3.28325 0 7.33333 0C11.3834 0 14.6667 3.28325 14.6667 7.33333C14.6667 11.3834 11.3834 14.6667 7.33333 14.6667C3.28325 14.6667 0 11.3834 0 7.33333Z" fill="white"/>
<path fill-rule="evenodd" clip-rule="evenodd" d="M7.33333 6.66667C7.70152 6.66667 8 6.96514 8 7.33333V10C8 10.3682 7.70152 10.6667 7.33333 10.6667C6.96514 10.6667 6.66667 10.3682 6.66667 10V7.33333C6.66667 6.96514 6.96514 6.66667 7.33333 6.66667Z" fill="white"/>
<path fill-rule="evenodd" clip-rule="evenodd" d="M6.66667 4.66667C6.66667 4.29848 6.96514 4 7.33333 4H7.34C7.70819 4 8.00667 4.29848 8.00667 4.66667C8.00667 5.03486 7.70819 5.33333 7.34 5.33333H7.33333C6.96514 5.33333 6.66667 5.03486 6.66667 4.66667Z" fill="white"/>
</svg>
