<svg width="30" height="30" viewBox="0 0 30 30" fill="none" xmlns="http://www.w3.org/2000/svg">
<circle cx="15" cy="15" r="15" fill="white" fill-opacity="0.1"/>
<path d="M15 7.62161C17.4031 7.62161 17.6878 7.63079 18.6368 7.67409C19.5143 7.71411 19.9908 7.86072 20.3079 7.98398C20.728 8.14724 21.0278 8.34227 21.3428 8.65719C21.6577 8.97214 21.8527 9.27195 22.016 9.69204C22.1393 10.0092 22.2859 10.4857 22.3259 11.3632C22.3692 12.3122 22.3784 12.5969 22.3784 15C22.3784 17.4031 22.3692 17.6877 22.3259 18.6367C22.2859 19.5142 22.1393 19.9908 22.016 20.3079C21.8527 20.728 21.6577 21.0278 21.3428 21.3427C21.0278 21.6577 20.728 21.8527 20.3079 22.016C19.9908 22.1392 19.5143 22.2858 18.6368 22.3258C17.6879 22.3691 17.4033 22.3783 15 22.3783C12.5967 22.3783 12.3121 22.3691 11.3632 22.3258C10.4857 22.2858 10.0092 22.1392 9.69206 22.016C9.27196 21.8527 8.97215 21.6577 8.65723 21.3427C8.34231 21.0278 8.14725 20.728 7.98398 20.3079C7.86073 19.9908 7.71411 19.5142 7.6741 18.6367C7.6308 17.6877 7.62162 17.4031 7.62162 15C7.62162 12.5969 7.6308 12.3122 7.6741 11.3632C7.71411 10.4857 7.86073 10.0092 7.98398 9.69204C8.14725 9.27195 8.34227 8.97214 8.65723 8.65722C8.97215 8.34227 9.27196 8.14724 9.69206 7.98398C10.0092 7.86072 10.4857 7.71411 11.3632 7.67409C12.3122 7.63079 12.5969 7.62161 15 7.62161ZM15 6C12.5557 6 12.2493 6.01036 11.2893 6.05416C10.3314 6.09785 9.67712 6.25001 9.10466 6.47247C8.51283 6.70247 8.01092 7.01021 7.51055 7.51054C7.01021 8.01091 6.70247 8.51282 6.47251 9.10465C6.25001 9.67711 6.09785 10.3314 6.05416 11.2893C6.01036 12.2492 6 12.5557 6 15C6 17.4442 6.01036 17.7507 6.05416 18.7106C6.09785 19.6686 6.25001 20.3228 6.47251 20.8953C6.70247 21.4871 7.01021 21.989 7.51055 22.4894C8.01092 22.9897 8.51283 23.2975 9.10466 23.5274C9.67712 23.7499 10.3314 23.9021 11.2893 23.9458C12.2493 23.9896 12.5557 23.9999 15 23.9999C17.4443 23.9999 17.7507 23.9896 18.7107 23.9458C19.6686 23.9021 20.3229 23.7499 20.8953 23.5274C21.4872 23.2975 21.9891 22.9897 22.4895 22.4894C22.9898 21.989 23.2975 21.4871 23.5275 20.8953C23.75 20.3228 23.9021 19.6686 23.9458 18.7106C23.9896 17.7507 24 17.4442 24 15C24 12.5557 23.9896 12.2492 23.9458 11.2893C23.9021 10.3314 23.75 9.67711 23.5275 9.10465C23.2975 8.51282 22.9898 8.01091 22.4895 7.51054C21.9891 7.01021 21.4872 6.70247 20.8953 6.47247C20.3229 6.25001 19.6686 6.09785 18.7107 6.05416C17.7507 6.01036 17.4443 6 15 6Z" fill="white"/>
<path d="M15.0044 10.3828C12.452 10.3828 10.3828 12.452 10.3828 15.0044C10.3828 17.5569 12.452 19.626 15.0044 19.626C17.5569 19.626 19.6261 17.5569 19.6261 15.0044C19.6261 12.452 17.5569 10.3828 15.0044 10.3828ZM15.0044 18.0044C13.3476 18.0044 12.0044 16.6613 12.0044 15.0044C12.0044 13.3476 13.3476 12.0044 15.0044 12.0044C16.6613 12.0044 18.0044 13.3476 18.0044 15.0044C18.0044 16.6613 16.6613 18.0044 15.0044 18.0044Z" fill="white"/>
<path d="M20.8866 10.1972C20.8866 10.7936 20.403 11.2772 19.8065 11.2772C19.2101 11.2772 18.7266 10.7936 18.7266 10.1972C18.7266 9.60073 19.2101 9.11719 19.8065 9.11719C20.403 9.11719 20.8866 9.60073 20.8866 10.1972Z" fill="white"/>
</svg>
