<svg width="20" height="20" viewBox="0 0 20 20" fill="none" xmlns="http://www.w3.org/2000/svg">
<path fill-rule="evenodd" clip-rule="evenodd" d="M4.37574 0.625L0.675743 14.025C0.565578 14.4027 0.639675 14.8102 0.875743 15.125C1.11181 15.4398 1.4823 15.625 1.87574 15.625H6.87574C7.26919 15.625 7.63968 15.4398 7.87574 15.125C8.11181 14.8102 8.18591 14.4027 8.07574 14.025L4.37574 0.625Z" stroke="#18BAB4" stroke-linecap="round" stroke-linejoin="round"/>
<path d="M4.37582 14.375C4.37582 12.5 3.12582 10.625 1.87582 10.625H1.61499" stroke="#18BAB4" stroke-linecap="round" stroke-linejoin="round"/>
<path d="M4.37573 14.375C4.37573 12.5 5.62573 10.625 6.87573 10.625H7.13657" stroke="#18BAB4" stroke-linecap="round" stroke-linejoin="round"/>
<path d="M4.37573 8.75V19.375" stroke="#18BAB4" stroke-linecap="round" stroke-linejoin="round"/>
<path fill-rule="evenodd" clip-rule="evenodd" d="M14.3757 13.125C17.1372 13.125 19.3757 10.8864 19.3757 8.125C19.3757 5.36358 17.1372 3.125 14.3757 3.125C11.6143 3.125 9.37573 5.36358 9.37573 8.125C9.37573 10.8864 11.6143 13.125 14.3757 13.125Z" stroke="#18BAB4" stroke-linecap="round" stroke-linejoin="round"/>
<path d="M14.3757 19.375V6.875" stroke="#18BAB4" stroke-linecap="round" stroke-linejoin="round"/>
<path d="M14.3757 11.25C14.3757 9.375 15.6257 8.75 16.2507 8.75" stroke="#18BAB4" stroke-linecap="round" stroke-linejoin="round"/>
<path d="M14.3757 11.25C14.3757 9.375 13.1257 8.75 12.5007 8.75" stroke="#18BAB4" stroke-linecap="round" stroke-linejoin="round"/>
</svg>
