<svg width="103" height="102" viewBox="0 0 103 102" fill="none" xmlns="http://www.w3.org/2000/svg">
<path fill-rule="evenodd" clip-rule="evenodd" d="M8.21436 78.6457V66.3398C48.4383 66.3636 77.1087 75.351 94.2256 93.3021H29.0761C22.0252 83.7081 15.0712 78.8227 8.21436 78.6457Z" fill="#B8FAFB"/>
<g filter="url(#filter0_d_1188_35196)">
<path d="M95.4269 6H7.62105C7.05156 6 6.58936 6.46437 6.58936 7.03655V94.4239C6.58936 94.9971 7.05156 95.4604 7.62105 95.4604H95.4258C95.5569 95.4604 95.6879 95.4324 95.8117 95.3827C96.0273 95.2459 96.083 95.2241 96.1284 95.1816C96.2006 95.107 96.2429 95.0313 96.2883 94.9577C96.3905 94.7908 96.3915 94.738 96.4039 94.6903C96.4376 94.5196 96.4555 65.3013 96.4575 7.03551C96.4586 6.46437 95.9964 6 95.4269 6ZM8.65275 93.3873V78.9368C11.9552 79.735 21.5665 82.8788 28.2829 93.3873H8.65275ZM30.7063 93.3873C23.1904 80.6886 11.9088 77.4784 8.65275 76.7995V66.9906C16.3915 66.9637 67.1191 67.8499 92.9724 93.3873H30.7063ZM94.3952 91.8864C84.2546 81.8868 70.4422 75.5867 56.8155 71.624H94.3952V91.8864ZM94.3952 69.5509H49.0582C49.02 69.5509 48.988 69.5695 48.9509 69.5726C30.0285 65.1839 12.9807 64.9134 8.65275 64.9217V60.5028L37.6332 40.3803L63.1553 60.7692C63.5123 61.0522 64.0106 61.0698 64.3851 60.8097L82.25 48.3369L94.3941 60.3909V69.5509H94.3952ZM83.0919 46.2576C82.737 45.9072 82.184 45.8585 81.7785 46.1436L63.8393 58.6671L38.3192 38.2782C37.9633 37.9932 37.464 37.9776 37.0905 38.2368L8.65275 57.982V8.03665H94.3941V57.4772L83.0919 46.2576Z" fill="black"/>
</g>
<path d="M95.4269 6H7.62105C7.05156 6 6.58936 6.46437 6.58936 7.03655V94.4239C6.58936 94.9971 7.05156 95.4604 7.62105 95.4604H95.4258C95.5569 95.4604 95.6879 95.4324 95.8117 95.3827C96.0273 95.2459 96.083 95.2241 96.1284 95.1816C96.2006 95.107 96.2429 95.0313 96.2883 94.9577C96.3905 94.7908 96.3915 94.738 96.4039 94.6903C96.4376 94.5196 96.4555 65.3013 96.4575 7.03551C96.4586 6.46437 95.9964 6 95.4269 6ZM8.65275 93.3873V78.9368C11.9552 79.735 21.5665 82.8788 28.2829 93.3873H8.65275ZM30.7063 93.3873C23.1904 80.6886 11.9088 77.4784 8.65275 76.7995V66.9906C16.3915 66.9637 67.1191 67.8499 92.9724 93.3873H30.7063ZM94.3952 91.8864C84.2546 81.8868 70.4422 75.5867 56.8155 71.624H94.3952V91.8864ZM94.3952 69.5509H49.0582C49.02 69.5509 48.988 69.5695 48.9509 69.5726C30.0285 65.1839 12.9807 64.9134 8.65275 64.9217V60.5028L37.6332 40.3803L63.1553 60.7692C63.5123 61.0522 64.0106 61.0698 64.3851 60.8097L82.25 48.3369L94.3941 60.3909V69.5509H94.3952ZM83.0919 46.2576C82.737 45.9072 82.184 45.8585 81.7785 46.1436L63.8393 58.6671L38.3192 38.2782C37.9633 37.9932 37.464 37.9776 37.0905 38.2368L8.65275 57.982V8.03665H94.3941V57.4772L83.0919 46.2576Z" fill="#18BAB4" stroke="#18BAB4"/>
<path d="M69.866 39.4375C73.3851 39.4375 76.2481 36.561 76.2481 33.0254C76.2481 29.4897 73.3861 26.6133 69.866 26.6133C66.3458 26.6133 63.4839 29.4897 63.4839 33.0254C63.4849 36.561 66.3469 39.4375 69.866 39.4375ZM69.866 28.6864C72.2471 28.6864 74.1847 30.633 74.1847 33.0254C74.1847 35.4177 72.2471 37.3644 69.866 37.3644C67.4848 37.3644 65.5473 35.4188 65.5473 33.0254C65.5473 30.632 67.4858 28.6864 69.866 28.6864Z" fill="#18BAB4" stroke="#18BAB4"/>
<defs>
<filter id="filter0_d_1188_35196" x="0.589355" y="0" width="101.868" height="101.46" filterUnits="userSpaceOnUse" color-interpolation-filters="sRGB">
<feFlood flood-opacity="0" result="BackgroundImageFix"/>
<feColorMatrix in="SourceAlpha" type="matrix" values="0 0 0 0 0 0 0 0 0 0 0 0 0 0 0 0 0 0 127 0" result="hardAlpha"/>
<feOffset/>
<feGaussianBlur stdDeviation="3"/>
<feColorMatrix type="matrix" values="0 0 0 0 0.721569 0 0 0 0 0.980392 0 0 0 0 0.984314 0 0 0 0.366112 0"/>
<feBlend mode="normal" in2="BackgroundImageFix" result="effect1_dropShadow_1188_35196"/>
<feBlend mode="normal" in="SourceGraphic" in2="effect1_dropShadow_1188_35196" result="shape"/>
</filter>
</defs>
</svg>
