<?xml version="1.0" encoding="UTF-8"?>
<svg width="87px" height="86px" viewBox="0 0 87 86" version="1.1" xmlns="http://www.w3.org/2000/svg" xmlns:xlink="http://www.w3.org/1999/xlink">
    <!-- Generator: sketchtool 54.1 (76490) - https://sketchapp.com -->
    <title>BEA752DB-6280-49E4-83B7-7C77FDAC3240</title>
    <desc>Created with sketchtool.</desc>
    <defs>
        <path d="M73.3875,0.0516024503 L0.852272727,0.0516024503 C0.381818182,0.0516024503 0,0.433420632 0,0.903875178 L0,72.7556818 C0,73.2269886 0.381818182,73.6079545 0.852272727,73.6079545 L73.3866477,73.6079545 C73.4948864,73.6079545 73.603125,73.5849432 73.7053977,73.5440341 C73.8835227,73.4315341 73.9295455,73.4136364 73.9670455,73.3786932 C74.0267045,73.3173295 74.0616477,73.2551136 74.0991477,73.1946023 C74.1835227,73.0573864 74.184375,73.0139205 74.1946023,72.9747159 C74.2224432,72.834375 74.2372159,48.8104773 74.2389205,0.903022905 C74.2397727,0.433420632 73.8579545,0.0516024503 73.3875,0.0516024503 Z M1.70454545,71.9034091 L1.70454545,60.021875 C4.43267045,60.678125 12.3724432,63.2630682 17.9207386,71.9034091 L1.70454545,71.9034091 Z M19.9227273,71.9034091 C13.7139205,61.4622159 4.39431818,58.8227273 1.70454545,58.2644886 L1.70454545,50.1994318 C8.09744318,50.1772727 50.0028409,50.9059659 71.3599432,71.9034091 L19.9227273,71.9034091 Z M72.5352273,70.6693182 C64.1582386,62.4474432 52.7480114,57.2673295 41.4911932,54.0090909 L72.5352273,54.0090909 L72.5352273,70.6693182 Z M72.5352273,52.3045455 L35.0829545,52.3045455 C35.0514205,52.3045455 35.025,52.3198864 34.9943182,52.3224432 C19.3627841,48.7139205 5.27982955,48.4914773 1.70454545,48.4982955 L1.70454545,44.8650568 L25.6448864,28.3198864 L46.7284091,45.0840909 C47.0232955,45.3167614 47.4349432,45.33125 47.7443182,45.1173295 L62.5022727,34.8619318 L72.534375,44.7730114 L72.534375,52.3045455 L72.5352273,52.3045455 Z M63.1977273,33.1522727 C62.9045455,32.8642045 62.4477273,32.8241477 62.1127841,33.0585227 L47.2934659,43.3556818 L26.2116477,26.5914773 C25.9176136,26.3571023 25.5051136,26.3443182 25.1965909,26.5573864 L1.70454545,42.7923295 L1.70454545,1.72618519 L72.534375,1.72618519 L72.534375,42.3772727 L63.1977273,33.1522727 Z" id="path-2"></path>
        <filter x="-12.8%" y="-12.9%" width="125.6%" height="125.8%" filterUnits="objectBoundingBox" id="filter-2">
            <feMorphology radius="0.5" operator="dilate" in="SourceAlpha" result="shadowSpreadOuter1"></feMorphology>
            <feOffset dx="0" dy="0" in="shadowSpreadOuter1" result="shadowOffsetOuter1"></feOffset>
            <feGaussianBlur stdDeviation="3" in="shadowOffsetOuter1" result="shadowBlurOuter1"></feGaussianBlur>
            <feComposite in="shadowBlurOuter1" in2="SourceAlpha" operator="out" result="shadowBlurOuter1"></feComposite>
            <feColorMatrix values="0 0 0 0 0.721568627   0 0 0 0 0.980392157   0 0 0 0 0.984313725  0 0 0 0.366111866 0" type="matrix" in="shadowBlurOuter1"></feColorMatrix>
        </filter>
    </defs>
    <g id="visual" stroke="none" stroke-width="1" fill="none" fill-rule="evenodd">
        <g id="HE-map---about---navigation" transform="translate(-683.000000, -450.000000)">
            <g id="Group-11" transform="translate(306.000000, 451.000000)">
                <g id="Group-10" transform="translate(384.000000, 0.000000)">
                    <g id="noun_landscape_1592162" transform="translate(0.000000, 5.000000)">
                        <g id="Group">
                            <path d="M1.34179688,59.7832031 L1.34179688,49.6650391 C34.5703125,49.6845703 58.2545573,57.0742187 72.3945312,71.8339844 C72.3945312,71.8339844 18.5754395,71.8339844 18.5754395,71.8339844 C12.7507324,63.945638 7.0061849,59.9287109 1.34179688,59.7832031 Z" id="Path-18" fill="#B8FAFB"></path>
                            <g id="Shape" fill-rule="nonzero">
                                <use fill="black" fill-opacity="1" filter="url(#filter-2)" xlink:href="#path-2"></use>
                                <use stroke="#18BAB4" stroke-width="1" fill="#18BAB4" xlink:href="#path-2"></use>
                            </g>
                            <path d="M52.2721591,27.5443182 C55.1792614,27.5443182 57.5443182,25.1792614 57.5443182,22.2721591 C57.5443182,19.3650568 55.1801136,17 52.2721591,17 C49.3642045,17 47,19.3650568 47,22.2721591 C47.0008523,25.1792614 49.3650568,27.5443182 52.2721591,27.5443182 Z M52.2721591,18.7045455 C54.2392045,18.7045455 55.8397727,20.3051136 55.8397727,22.2721591 C55.8397727,24.2392045 54.2392045,25.8397727 52.2721591,25.8397727 C50.3051136,25.8397727 48.7045455,24.2400568 48.7045455,22.2721591 C48.7045455,20.3042614 50.3059659,18.7045455 52.2721591,18.7045455 Z" id="Shape" stroke="#18BAB4" fill="#18BAB4" fill-rule="nonzero"></path>
                        </g>
                    </g>
                </g>
            </g>
        </g>
    </g>
</svg>