<?xml version="1.0" encoding="UTF-8"?>
<svg width="20px" height="18px" viewBox="0 0 20 18" version="1.1" xmlns="http://www.w3.org/2000/svg" xmlns:xlink="http://www.w3.org/1999/xlink">
    <!-- Generator: sketchtool 57.1 (101010) - https://sketch.com -->
    <title>CCDC79AA-811D-463B-B2FD-03EFFDCFD76C</title>
    <desc>Created with sketchtool.</desc>
    <g id="MOBILE" stroke="none" stroke-width="1" fill="none" fill-rule="evenodd">
        <g id="HE-Mobile---tab-bar" transform="translate(-225.000000, -75.000000)" fill="#FFFFFF" fill-rule="nonzero">
            <g id="Tab-bar-/-default" transform="translate(0.000000, 50.000000)">
                <g id="Icon/Layers-ON" transform="translate(223.000000, 22.000000)">
                    <g id="layers" transform="translate(1.000000, 3.000000)">
                        <path d="M1.5,7.56 L10.5,12.76 C10.8094011,12.9386328 11.1905989,12.9386328 11.5,12.76 L20.5,7.56 C20.8084022,7.38110112 20.9982281,7.0515343 20.9982281,6.695 C20.9982281,6.3384657 20.8084022,6.00889888 20.5,5.83 L11.5,0.63 C11.1905989,0.451367205 10.8094011,0.451367205 10.5,0.63 L1.5,5.83 C1.19159783,6.00889888 1.00177186,6.3384657 1.00177186,6.695 C1.00177186,7.0515343 1.19159783,7.38110112 1.5,7.56 L1.5,7.56 Z M11,2.65 L18,6.65 L11,10.7 L4,6.69 L11,2.65 Z M19.5,10.44 L11,15.35 L2.5,10.44 C2.27069135,10.3056261 1.99732316,10.2680647 1.74027016,10.3356114 C1.48321715,10.4031582 1.26362798,10.5702558 1.13,10.8 C0.996454987,11.0305237 0.960416285,11.3048063 1.02987835,11.5620037 C1.09934041,11.819201 1.26856029,12.0380488 1.5,12.17 L10.5,17.37 C10.8094011,17.5486328 11.1905989,17.5486328 11.5,17.37 L20.5,12.17 C20.7314397,12.0380488 20.9006596,11.819201 20.9701217,11.5620037 C21.0395837,11.3048063 21.003545,11.0305237 20.87,10.8 C20.736372,10.5702558 20.5167828,10.4031582 20.2597298,10.3356114 C20.0026768,10.2680647 19.7293087,10.3056261 19.5,10.44 L19.5,10.44 Z" id="Shape"></path>
                    </g>
                </g>
            </g>
        </g>
    </g>
</svg>