<?xml version="1.0" encoding="UTF-8"?>
<svg width="16px" height="16px" viewBox="0 0 16 16" version="1.1" xmlns="http://www.w3.org/2000/svg" xmlns:xlink="http://www.w3.org/1999/xlink">
    <!-- Generator: Sketch 54.1 (76490) - https://sketchapp.com -->
    <desc>Created with Sketch.</desc>
    <g id="UI-KIT" stroke="none" stroke-width="1" fill="none" fill-rule="evenodd">
        <g transform="translate(-637.000000, -2838.000000)" fill="#FFFFFF" id="icon/location/default">
            <g transform="translate(638.000000, 2839.000000)">
                <g id="iconlocationdefault">
                    <path d="M7.0004375,11.4375625 C9.47275,11.4375625 11.438,9.4714375 11.438,7 C11.438,4.5285625 9.471875,2.5624375 7.0004375,2.5624375 C4.5285625,2.5624375 2.562875,4.5285625 2.562875,7 C2.562875,9.4714375 4.529,11.4375625 7.0004375,11.4375625 Z M12.68925,6.374375 L13.374375,6.374375 C13.72,6.374375 14,6.654375 14,7 L14,7 C14,7.345625 13.72,7.625625 13.374375,7.625625 L12.68925,7.625625 C12.3913125,10.2764375 10.2764375,12.3913125 7.625625,12.68925 L7.625625,13.374375 C7.625625,13.72 7.345625,14 7,14 L7,14 C6.654375,14 6.374375,13.72 6.374375,13.374375 L6.374375,12.68925 C3.7235625,12.3913125 1.6086875,10.2764375 1.31075,7.625625 L0.625625,7.625625 C0.28,7.625625 0,7.345625 0,7 L0,7 C0,6.654375 0.28,6.374375 0.625625,6.374375 L1.31075,6.374375 C1.6086875,3.7235625 3.7235625,1.6086875 6.374375,1.31075 L6.374375,0.625625 C6.374375,0.28 6.654375,0 7,0 L7,0 C7.345625,0 7.625625,0.28 7.625625,0.625625 L7.625625,1.31075 C10.2764375,1.6086875 12.3913125,3.7235625 12.68925,6.374375 Z" id="Shape" stroke="#FFFFFF" stroke-width="0.3" fill-rule="nonzero"></path>
                    <path d="M8.2709375,6.9995625 C8.2709375,7.7013125 7.7021875,8.2705 7,8.2705 C6.2978125,8.2705 5.7290625,7.70175 5.7290625,6.9995625 C5.7290625,6.2978125 6.2978125,5.728625 7,5.728625 C7.7021875,5.728625 8.2709375,6.297375 8.2709375,6.9995625 Z" id="Path" fill-rule="nonzero"></path>
                </g>
            </g>
        </g>
    </g>
</svg>