<svg width="15" height="16" viewBox="0 0 15 16" fill="none" xmlns="http://www.w3.org/2000/svg">
<path fill-rule="evenodd" clip-rule="evenodd" d="M0.908557 5.60561L6.82794 8.47307C7.25498 8.6797 7.74435 8.67971 8.17139 8.47309L14.0922 5.60722C14.297 5.50796 14.4563 5.32855 14.5387 5.10821C14.621 4.88805 14.6209 4.64245 14.5386 4.42229C14.4563 4.20211 14.297 4.0227 14.0922 3.92344L8.17282 1.05582C7.74533 0.848576 7.2554 0.84858 6.82791 1.05583L0.908533 3.92167C0.703735 4.02095 0.544598 4.20043 0.462108 4.42068C0.379804 4.64084 0.379834 4.8865 0.462137 5.10666C0.544606 5.32672 0.703727 5.50632 0.908557 5.60561ZM7.83429 7.69122C7.62183 7.7943 7.37894 7.7943 7.16645 7.69121L1.24732 4.82387C1.2296 4.81508 1.21369 4.79288 1.21369 4.76355C1.21369 4.7344 1.22974 4.71209 1.24749 4.70328L7.16505 1.83764C7.37752 1.73456 7.62046 1.73458 7.83295 1.83767L13.752 4.70497C13.7697 4.71375 13.7857 4.73596 13.7857 4.76531C13.7857 4.79446 13.7696 4.81677 13.7519 4.82558L7.83429 7.69122Z" fill="white"/>
<path fill-rule="evenodd" clip-rule="evenodd" d="M0.908557 12.0779L6.82794 14.9454C7.25497 15.152 7.74451 15.152 8.17155 14.9454L14.0832 12.0779C14.288 11.9787 14.4472 11.799 14.5296 11.5789C14.6119 11.3588 14.6119 11.1131 14.5296 10.893C14.4471 10.6727 14.288 10.4933 14.0832 10.394L13.0031 9.87131C12.7926 9.76954 12.5517 9.87419 12.462 10.0885C12.3739 10.2997 12.4589 10.5537 12.6649 10.6533L13.7521 11.1774C13.7698 11.1862 13.7857 11.2084 13.7857 11.2377C13.7857 11.2668 13.7697 11.2891 13.7519 11.2979L7.83433 14.1636C7.62183 14.2667 7.37889 14.2668 7.16644 14.1637L1.24734 11.2962C1.22963 11.2874 1.21373 11.2652 1.21373 11.2359C1.21373 11.2068 1.22981 11.1845 1.24753 11.1756L2.33443 10.6534L2.33574 10.6527C2.54129 10.5502 2.6238 10.2943 2.53313 10.0833C2.44093 9.86925 2.19759 9.76751 1.98755 9.87182L0.908533 10.394C0.703735 10.4933 0.544598 10.6727 0.462108 10.893C0.379804 11.1132 0.379834 11.3588 0.462137 11.579C0.544606 11.799 0.703726 11.9786 0.908557 12.0779Z" fill="white"/>
<path fill-rule="evenodd" clip-rule="evenodd" d="M0.908592 8.84238L6.82794 11.71C7.25497 11.9166 7.74453 11.9166 8.17158 11.71L14.0832 8.84079C14.288 8.74164 14.4472 8.56197 14.5296 8.34175C14.6119 8.1216 14.6119 7.87599 14.5296 7.65595C14.4472 7.43577 14.2881 7.25599 14.0832 7.15682L13.0031 6.63414C12.7925 6.53235 12.5516 6.63701 12.462 6.85144C12.3739 7.06268 12.4589 7.31653 12.6649 7.41611L13.7521 7.94035C13.7699 7.9492 13.7857 7.97129 13.7857 8.0005C13.7857 8.02977 13.7697 8.05195 13.7519 8.06076L7.83433 10.9282C7.62187 11.0313 7.37892 11.0312 7.16644 10.9281L1.24734 8.06067C1.22955 8.05183 1.21373 8.02973 1.21373 8.0005C1.21373 7.97129 1.22976 7.94908 1.24753 7.94023L2.33454 7.41612L2.33556 7.41561C2.54084 7.31375 2.62338 7.05861 2.53319 6.84799C2.4414 6.63407 2.19877 6.53274 1.98923 6.63633L0.908593 7.15856C0.703709 7.25771 0.544582 7.43738 0.462108 7.65759C0.379804 7.87775 0.379825 8.12324 0.462128 8.3434C0.544587 8.5636 0.703717 8.74323 0.908592 8.84238Z" fill="white"/>
</svg>
