<svg width="21" height="20" viewBox="0 0 21 20" fill="none" xmlns="http://www.w3.org/2000/svg">
<path fill-rule="evenodd" clip-rule="evenodd" d="M0.27405 0.312258C0.65388 -0.088675 1.28681 -0.105781 1.68775 0.27405L10.5 8.6225L19.3123 0.27405C19.7132 -0.105781 20.3461 -0.088675 20.726 0.312258C21.1058 0.71319 21.0887 1.34612 20.6877 1.72596L11.954 10L20.6877 18.274C21.0887 18.6539 21.1058 19.2868 20.726 19.6877C20.3461 20.0887 19.7132 20.1058 19.3123 19.726L10.5 11.3775L1.68775 19.726C1.28681 20.1058 0.65388 20.0887 0.27405 19.6877C-0.105781 19.2868 -0.088675 18.6539 0.312258 18.274L9.04597 10L0.312258 1.72596C-0.088675 1.34612 -0.105781 0.71319 0.27405 0.312258Z" />
</svg>
