<svg width="64" height="64" xmlns="http://www.w3.org/2000/svg"><defs><filter x="-13.3%" y="-13.3%" width="126.7%" height="126.7%" filterUnits="objectBoundingBox" id="a"><feOffset dy="2" in="SourceAlpha" result="shadowOffsetOuter1"/><feGaussianBlur stdDeviation="1" in="shadowOffsetOuter1" result="shadowBlurOuter1"/><feColorMatrix values="0 0 0 0 0.031372549 0 0 0 0 0.0352941176 0 0 0 0 0.0980392157 0 0 0 0.622732736 0" in="shadowBlurOuter1" result="shadowMatrixOuter1"/><feMerge><feMergeNode in="shadowMatrixOuter1"/><feMergeNode in="SourceGraphic"/></feMerge></filter></defs><g filter="url(#a)" transform="translate(2)" fill="none" fill-rule="evenodd"><ellipse fill="#7D99A8" cx="30.3" cy="29.656" rx="29.7" ry="29.213"/><path d="M30.3 58.869C13.897 58.869.6 45.789.6 29.656.6 13.522 13.897.443 30.3.443S60 13.522 60 29.656 46.703 58.869 30.3 58.869zM12 18.346c-1.333 4-2 8-2 12s.667 8 2 12c4 1.334 8 2 12 2s8-.666 12-2c1.333-4 2-8 2-12s-.667-8-2-12C32 17.45 28 17 24 17s-8 .449-12 1.346z" fill="#7D99A8"/><path d="M7.611 16.136l-.004.008.004-.008m2.362 5.485c-.045-.04-.025-.022 0 0m40.651 15.275l.001-.001c.006-.059.011-.116 0 0M8.805 20.22a.109.109 0 0 1-.004.007c-.013.026-.024.046.004-.007m42.293-.319c-.05-.033-.098-.065 0 0m.778 21.315l.006-.004c.022-.018.041-.033-.006.004m-28.979 1.532c-.026-.021-.052-.042 0 0m-4.619-24.74l-.005.005a.98.98 0 0 0 .005-.005m0 .001l-.003.001c-.051.043-.102.083.003 0m9.297-13.412c.024.016-.063 0-.165-.023.121.032.204.048.165.023m27.7 36.188c.053-.009-.162.393-.277.4-.115.007.175-.384.277-.4m-.74-2.679c.018-.01-.65.033-.621.042-.106-.12-.085-.227.06-.325-.03.019-.046.03.002-.002.154-.1.06-.038.003-.002.28-.175.876.132.555.287m-.718-4.442c-.02-.037-.056-.061-.083-.092-.078.283-.877.939-.429-.085.24-.548-.703.008-.7.01-.264-.134.409-.738.573-.705a.47.47 0 0 1 .076.25c.119.27.462-.612.558-.642.32-.1.12 1.358.005 1.264m-.68 4.688c-.131-.093.007-.477.28-.271.056.041-.151.363-.28.27m-1.255 2.859c-.025.02-.056.043-.005.003-.05.04-.55.329-.557.298-.068-.39 1.544-1.345 1.655-1.152.073.122-.984.77-1.093.85m-1.297-.44c-.013-.04.495-.077.838-.171-.176.365-.794.288-.838.171m-.7-2.46c-.36.435-.715.022-.953-.288.06.079-.564.464-.568.275-.008-.363-.5-.703-.596-1.196-.124-.63.185-1.65.823-1.152.165.129 2.04-2.248 2.412-2.328-.19.04.703.666.695.644.067.186-.506.513-.61.565-.325.165-.032.863.033 1.092.057.202-.47.714-.496.968-.006.054-.01.11 0 0-.035.365-.488 1.116-.74 1.42m.533 3.257c-.212.191-.455-.134-.244-.318.112-.096.457.128.244.318m-1.062-.453c.008.05.015.099 0 0-.014-.1-.007-.052 0-.003-.027-.232.986-.594.877-.274-.05.152-.839.487-.877.277m-2.71-.335c-.255-.045-.753-.066-.936-.29-.229-.279.292-.52.501-.449.142.047.783.056.78.017.039.719.589-.136.737.032.094.106 1.068.713 1.086.608-.142.86-1.671.17-2.169.082m-1.425-.863c-.252-.589-1.034-1.144-1.128-1.798-.073-.503-.702-1.027-.641-1.566.04-.39-1.032-1.294-1.25-1.685-.205-.37.193-.422.416-.238a7.86 7.86 0 0 0 .411-.047c.202.134.325.32.37.559.587 1.15 1.84 1.267 2.064 2.502-.033-.181.527.892.328.752.103.072.624-.03.509.232-.147.333-.209.814-.37 1.109-.029.054-.697.207-.71.18m-1.847-2.259c-.08-.08-.166-.487-.03-.535.13-.039-.028.01 0 0 .363-.107.203.708.03.535m2.8.328c.22-.129.535.243.386.428.026-.032.052-.065 0 0-.04.047-.75-.216-.386-.428m.983.52c-.047-.154.047.152 0 0 .136.436-.38.122-.389.16.08-.216.21-.27.389-.16m2.562-15.1c-.031.01-.064.02 0-.001.056-.018.03-.01.001 0 .312-.102.12 1.583.037 1.518-.26-.203-.343-1.413-.038-1.518M48.72 12.08c-.396-.48-1.303-1.115-1.464-1.737.06.236 1.318 1.161 1.545 1.402.084.088 1.152 1.275 1.244 1.236-.126.052-.293-.265-.41-.214-.074.03.743 1.143 1.01 1.437-.028-.041-.057-.085-.102-.106-.067.03-.092.081-.076.157.052-.12-1.54-1.924-1.747-2.175m2.96 3.145c.03.002.02.001 0 .001.242.014.88.69.408.947-.03.017-.933-.492-.872-.213.016.072.61.432.216.473-.272.028-.833-1.684-.815-1.873 0-.016.868.657 1.062.665M53 18.613c-.004.549.1.335-.119.722-.15.266-.484-.175-.624-.06-.033.026.286.664.096.68-.366.034-.475-.689-.797-.551-.032.013-1.018.28-.75-.06.255-.327.236-.577.738-.438.495.136.045-.713.084-.735.09-.05.488.453.36-.02-.09-.336.22-.594-.127-.863-.221-.171-.325-1.132.057-.744.332.337.482.7.726 1.053.082.118.357.866.356 1.016M51.954 31.53c.2-.028-.332.958-.346.985-.162.303-.469.21-.455.201.28-.167.547-1.15.801-1.186m-.4-11.958c.054-.007.028-.003.001 0 .176-.023.382.39.287.416-.238.065-.145-.13-.239.159.01-.029-.68-.478-.05-.574a.355.355 0 0 1 .002 0m-.657.726c-.092-.261-.636-.303-.373-.663.102-.14.526.234.569.262.045.03.091.06 0 0 .203.134.477.852.115.97-.487.155-.214-.292-.31-.57m2.28 15.91c-.32.578-2.028.126-1.707 1.11-.003-.012.763-.27.932-.244-.202-.031-.226.533-.501.47-.211-.05-.065.598-.048.684.094.47-.476.482-.477.6.002-.298.205-.71.176-.968.004.032-.735 1.57-.886 1.382-.15-.186.318-1.326.27-1.61-.068-.402.643-1.453 1.055-1.56.113-.03.362.253.505.21.164-.05.556-.35.66-.358.11.07.118.164.022.284.082-.147-.081.146 0 0m-.065-4.39c.086-.03.052.773-.173.782-.223.009.023-.73.173-.782m-.37-.426c.503.039.28.6-.02.58-.104-.006-.074-.588.02-.58-.088-.007.175.014 0 0m.614.836c-.139.035-.082-.495.018-.5.103-.002.122.466-.018.5m.06-1.327c-.22-.034-.958-.568-.971-.788-.004-.063-.434-1.13-.29-1.06.039.059.09.083.154.074.082-.273-.189-.679.015-.91.113-.127.438-.093.446.12.02.503-.088.942-.056 1.443.004.062.915 1.154.702 1.121m.138.75c.027-.043.272.448.162.494-.109.047-.225-.386-.162-.494m.065-.498c.214-.129.4.55.178.459-.222-.09-.309-.379-.178-.459m.579 4.146c.27.251-.206.355.154.46.155.045-.465 1.113-.309 1.193l-.107-.188c.19.483-.193-.485 0 0-.076-.19.145-1.574.262-1.465m-19.547-1.787c-.366-.137-.427-1.445-.146-1.486a.426.426 0 0 1 .33.23 9.203 9.203 0 0 1 .001.001c.151.292.555.484.448.862-.094.33-.303.517-.633.393M23.116 43.955c.135.941-.237 1.855-.176 2.749-.046.274.27 1.122-.326 1.064-.341.23-.916-.2-.983-.542-.117-.582-.444-.743-.18-1.392.212-.523-.36-.94-.311-1.446.057-.586 1.03-.481 1.192-.94.036-.1.313-1.186.426-1.099.029.138.075.27.138.397.024.019.048.038 0 0 .226.178.634 1.47.22 1.21m-3.123-7.769c-.332.337-.37.83-.686 1.17-.506.544-.43 1.236-.819 1.852-.112.173.415 1.683.607 1.901.52.594 1.296 2.608.307 2.93-.426.14-1.152.926-.923 1.383.088.175.769 1.478.681 1.59-.11.144-.637.022-.73.27-.067.177.23.652.22.896-.018.42-.513.935-.497 1.32.014.516-2.032.49-2.304.257-.628-.54-.91-1.084-1.422-1.841-.59-.873-1.504-1.622-1.816-2.666-.239-.8-1.106-1.95-1.62-2.601-.568-.707-.02-1.695-.413-2.371-.297-.51-.402-1.082-.686-1.612-.217-.405-.518-.718-.746-1.098-.418-.698-.752-.894-.82-1.656-.043-.46.112-1.445-.494-1.73-.134-.062-.543.344-.685-.019-.093-.234-.308-.745-.629-.53-.038.024-1.065.336-1.15.329-.133-.012-.769-.002-.862-.032-.28-.089-.286.12-.682-.403-.293-.389-.45-.92-.707-1.265-.435-.597-.67-1.436-.552-2.185.033-.21-.059-1.86.018-1.89.237-.102.343-1.199.415-1.39.193-.504.528-.925.768-1.405.362-.723.572-1.937 1.45-2.2.253-.076 3.814-2.032 3.876-1.495.045.403-.384.702-.459 1.033-.111.493 1.244.261 1.318.707.03.178 1.222.63 1.212-.066-.004-.357.43-.738.82-.759.195-.01.304.256.526.298.268.051.51.072.783.108.285.038 1.256.179 1.386-.25.114-.39.476.43.471.4-.096.364-.001.604.12.938.146.4.223.763.41 1.21.24.573.493 1.021.8 1.545.333.571.184 1.084.62 1.508.296.29.27 1.456.661 1.344.137-.039 1.072.875 1.253 1.037.254.227.164.366.117.633-.07.397.448.113.494.405.021.137 1.223-.224 1.329-.261.374-.134 1.575-.71 1.473-.035-.09.6-.154 1.225-.473 1.76l-.001.003c-.37.616-.639 1.385-.964 2.04-.232.454-.65.543-.995.893M2.925 26.022c.061.025.012.358-.087.315-.057-.024.05-.33.087-.315m.253-.195c.067-.01-.01.346-.104.365-.096.02.04-.353.104-.365m5.623-5.6c.015-.028.033-.063.004-.007.055-.07.119-.08.191-.034.088.122-.284.953-.512.833-.172-.092.261-.693.317-.792m.396-.853l-.031.206c.05-.247-.05.245 0 0a.685.685 0 0 1-.292.474c-.183.028.283-.835.323-.68m1.054 1.613c.05.02-.143.751-.278.634l-.001-.001h-.001c-.053-.046-.58-.4-.582-.382.015-.154.738-.3.862-.251m2.282.427c.058-.103.78.134.615.192.17-.06-.17.06 0 0-.1.035-.813.16-.615-.192m-5.93-4.948c.102-.02 1.127-1.482 1.01-.666-.05.34-.7 1.172-1.05 1.327a.353.353 0 0 1-.001.001c-.046.02-.027.011-.005.001-.736.314.115-.384.213-.696-.055-.042-.11-.031-.167.033M8.1 15.5c-.017-.002-.375.219-.312.101.07-.131.36-.36.315-.498-.014-.04-.278.163-.322.17.407-.384.434-1.258 1.114-1.384.093-.017-.37.433-.332.458.105.07.355-.244.49-.164.027.017-.604.718-.597.719.088-.018.176-.035.264-.055.136.058-.233.956-.125 1.049.052.046.278-.153.302-.104.39.79-1.568 1.18-1.907 1.541.121-.197.478-.365.472-.512-.004-.135-.243.083-.272.019.023.047.384-.631.416-.697a.206.206 0 0 1 .004-.007c-.028.058.8-.598.49-.636m-.093-.893c.141-.123.215-.016.106.077-.11.094-.175-.016-.106-.077m.257-.416c.077-.005-.174.316-.268.328-.095.014.156-.32.268-.328m8.107-8.977c.098-.07.19.128.063.16-.126.03-.16-.092-.063-.16m.895-.565a.577.577 0 0 1 .002.19c-.063-.052.615-.62.792-.215-.008-.018-1.24 1.033-1.276.955-.037-.082.035-.22.084-.268a.117.117 0 0 0-.077-.027c.133-.07.311-.215.432-.249-.12.033-.495.028-.575.16.2-.332.104-.342.618-.546m1.791-.509c-.089.15-.761.481-.92.389.037.02-.16-.044-.194-.068.007.005.01.007-.001 0-.23-.163 1.191-.447 1.115-.32m-1.217.926l.156-.15c-.027.023-.054.046.001-.001l.29-.062c.24.127-.521.305-.447.213m4.162 1.2a.37.37 0 0 1-.184.233c-.044.067-.093.073-.148.016.056-.178.166-.26.332-.248m1.203-1.42c-.369-.105.222.817.223.673-.003.573-.913-.12-.836-.123-.1.057-.162.043-.184-.044.164-.2.45-.605.797-.506m-.016-.51c.007.005 2.201-1.009 2.169-.811-.04.265-2.169 1.258-2.436 1.194.018.005.036.01 0 0-.01-.003.45-.256.393-.334a.781.781 0 0 0-.126-.049m-.775 1.193c.037-.106.252-.014.247.084-.004.097-.275.005-.247-.084m3.52-1.377c.181-.03.166.156-.016.191-.18.035-.166-.16.016-.191m3.19-2.082c.003.1-.548.144-.531.145h-.002c-.112 0-.043 0 0 0-.235-.003.523-.432.532-.145m.58.051c.35.094-.51.282-.698.196.056.026-.057-.025 0 0-.328-.146.542-.238.698-.196m1.084.144c-.053.066-.64.21-.717.18.092.035-.093-.036 0 0-.475-.182.936-.447.717-.18m6.968.362c.033.038-.938-.035-1.013-.062a.275.275 0 0 1-.152-.133c.01-.177 1.051.062 1.165.195m.165-.097c-.106.074-.215.066-.325-.026a3.293 3.293 0 0 1-.322-.14c.082.056.609-.068.647.166m1.206.108c.03.075-.67-.035-.716-.039a.795.795 0 0 1-.004 0 .284.284 0 0 1-.258-.121c.147-.031.905-.018.978.16M11.823 13.744c.05.054.037.103-.035.147.012-.012.022-.02-.003.003-.086.082-.138.588-.362.5-.013-.005.013-.724.4-.65m1.872-1.211c.058-.01-.045.312-.243.378-.198.067.163-.365.243-.378m.983-.587c.11-.043.178.104-.006.211-.184.106-.19-.137.006-.211m.108-.266c.126-.05.135.103-.05.197-.187.094-.11-.135.05-.197m1.146 9.165c-.116.09-.313.675-.476.665.021.002.043.004 0 0a.18.18 0 0 0-.003 0c-.752-.06.494-.676.48-.665m39.994 16.807c.086.056.628-.925.843-.971.34-.074.636.385 1.02.335.32-.042.839.67.98 1.004A29.054 29.054 0 0 0 60 29.656c0-8.607-3.748-16.35-9.724-21.745.082.24.328.657.33.655-.029.03-.973-.45-1.094-.32.025-.026-.11.298-.137.201.195.704 1.254.973 1.682 1.613-.036.074-.09.07-.164-.014.18.047 1.311 2.077 1.034 2.225-.418.224-2.51-2.586-2.766-2.898-.18-.222-.59-1.122-.508-1.467.073-.304-.766-.781-.72-.65.018.052.312.587.244.613-.292.11-.57-.66-1.082-.522-.351.096.726 1.194.743 1.112.008-.04-2.003-.347-2.246-.332-.459.027-.547.733-.383 1.18.068.186-.023.608.14.697.044.023.791.438.708.44l.083-.133c.022.006.406.405.485.312a.858.858 0 0 0-.148-.237c.086-.44 1.14.693 1.116.677.439.312 1.012 1.252 1.275 1.723.309.556.374 1.245.426 1.85.022.258.219.663-.135.752-.18.046-.416-.242-.486.006-.05.178-.567.302-.309.634.198.252.205.358.02.63-.32.466.635.612.713.998.528.105 1.162 1.42.234 1.534-.34.043-.45-.565-.565-.828-.075-.174-.885-1.15-1.008-1.045.41-.348-.696-.622-.682-.586.06.156-.355.296-.465.327-.28.078-.23-.537-.292-.704-.252-.662-.32.287-.5.28-.321-.012-.23.574-.101.746.129.17 1.802.547 1.667.683-.963.962.152.91.513 1.911.113.31.475.543.528.786.03.145.28.643.275.71-.018.2.258.445.236.67-.019.184-.197.179-.17.405.042.352-.106.465-.026.883.157.818-.938 1.309-1.438 1.613-.312.19-1.295.518-1.142.942.124.34.302.781-.097 1.037-.258.165-.553-.314-.357-.494.28-.256.245-1.151-.137-.971-.123.058-1.027.04-.831.51.185.439-.192.747.166 1.14.32.349.809.633 1.02 1.055.232.459.637 1.075.555 1.764-.042.36-.672 1.285-.98 1.343a6.8 6.8 0 0 0-.176-.07c.065.01-.18.575-.33.621-.16.05-.033-.796-.33-.865-.46-.108-.368-.21-.66-.522-.166-.177-.731-.87-1.01-.975-.164-.062-.551 1.903-.313 2.015.31.146.364 1.014.365 1.014.228.06 1.874 1.079 1.568 1.393-.39.398.727 1.388.017 1.594-.374.11-1.19-.924-1.138-1.334.075-.599-.68-1.062-.73-1.61-.025-.242-1.04-.681-.613-1.114.211-.214.257-1.354.123-1.686-.136-.343-.388-.617-.591-.921-.295-.442.065-.711-.42-1.066.054.04-.499.636-.567.682-.124.084-.397-.206-.49-.27-.194-.133.26-.816-.062-1.066-.278-.215-.13-.573-.456-.756-.227-.125-.466-.246-.63-.453-.32-.408-.18-.745-.742-.93.064.504-.828.669-1.227.548-.261-.08-.246 1.11-.92 1.061.243.901-1.664 1.845-1.808 2.617-.093.495-.096 1.552.063 2 .043.12-.421.799-.415.799-.27.008-.247.32-.404.473-.336.33-.745-.603-.819-.797-.212-.555-.536-1.069-.728-1.635-.226-.67-.456-1.531-.836-2.13-.452-.72-.195-1.587-.553-2.286-.306.376-.252 1.276-.911.576-.142-.15-.613-.313-.445-.575.042-.022.339-.071.263-.197-.045-.074-.452-.088-.594-.275-.24-.317-.474-.299-.664-.701-.2-.422-.68-.025-1.113 0-.618.035-1.23-.14-1.852-.011-.302.063-.835-.042-1.066-.252-.187-.17-.003-.409-.338-.499-.143-.039-.814.274-1 .289-.328.026-.597-.366-.897-.494-.194-.083-.331-.652-.486-.836-.196-.232-.524-.04-.78-.085-.029.195-.14 1.428.335 1.359.554-.074.24 1.077.843.938-.267-.57.424-.434.179-.08-.073.105-.217.497.057.525 1.21.123.867-.858 1.762-1.162-.051.018.1.81.29.92.4.233 1.236.49 1.014 1.095-.164.446-.087.373-.403.621-.084.066-.05.331-.09.419-.202.438-.031.256-.334.594-.168.188-.476.533-.495.7-.029.255-.608.12-.758.208-.357.209-.36.331-.573.625-.439.601-2.087 1.372-2.768 1.584-.738.225-1.097-1.428-1.069-1.976.006-.15-.478-.716-.59-.903-.282-.466-.4-.44-.796-.778-.29-.246-.06-.712-.272-1.008-.177-.248-.37-.668-.5-.969-.15-.343-.362-.63-.506-.952-.161-.362-.064-.635-.218-1.07-.036.215-.05.926-.258 1.052-.221-.382-.326-.791-.467-1.198-.055-.849.437-.267.565-.691.206-.676.36-1.69.767-2.245-.474.282-1.033.329-1.53.257-.321-.046-.809.561-1.331.384.345-.183-.286-.387-.207-.701-.009.033.1-.675.102-.677.334-.356.98-.317 1.24-.69-.323.086-.488-.094-.778.161-.039.168-.224.295-.38.34-.059.018-.384-.175-.633-.082.09 0 .134.041.131.125-.319.069-.246.309-.541.154-.004-.002-.154.696-.104.71.122.033.122-.153.227-.163.154-.015.257.312.065.32.082-.003-.41.566-.414.48.021.499-.658.16-.078-.391-.403.383-.82-1.537-.687-1.56-.142.024-1.05-1.005-1.158-.621.03-.108.167-.181.182-.291-.014.1-.684.353-.349.7.153.157.582.811.573.845.022-.085.375.116.428.177.377.436-.301.168-.248.164-.205.016-.24.941-.567 1.14.154-.093.036-1.166-.13-1.206-.402-.096-.521-.33-.786-.49.005.003-.023-.692-.288-.55-.136.073-.57.43-.661.54-.194.23-.313.038-.51.159-.247.151-.344.805-.536.848-.348.08-.574.497-.81.709-.066.06-.709 1.868-1.108 1.578-.052-.038-1.017.31-1.137.356-.028.012.416-1.548.43-1.661.028-.25.096-.568.185-.793.152-.383.587-.207.854-.359.405-.232 1.108-.443 1.12-1.004.003-.194.055-1.023-.24-.935.354-.102.65-.578.913-.72.342-.186 1.017-1.265 1.36-1.22.09-.183.65-1.082.926-1.033.043.008.523-.195.54-.22.088-.134.091-.758.055-.7.119-.192.206-.697.475-.745.112-.017.483-.264.495-.306-.11.4-.118.525-.406.792.118-.11-.165.38-.247.481.143-.136.26-.13.327.02.084.192 1.344-.53 1.544-.64.433-.236.628.017.696-.301.068-.321.827-.61.854-1.11.02-.375.367-.063.515-.142.189-.102.1-.377.29-.49-.526.14.393-.575.533-.643.296-.144.76-.07.993-.373-.045.058-.235-.04-.234-.165 0 .222-1.447.628-1.687.517-.38-.177 1.45-1.95 1.438-2.03-.073-.438-1.182.91-1.246.992-.327.419-.802.522-.946 1.168-.126.567-.357.817-.778 1.3-.187.212-.498 1.06-.638.703.099.251-.43.541-.634.558.152-.013.222-1.321.163-1.326-.146-.012-1.137.952-1.262.668-.08-.184.24-.206.17-.36-.052-.118.436-.417.44-.516.001-.068-.258.18-.304.155-.22-.12.499-.461.496-.456.032-.054-.346.043-.29-.04.161-.245.392-.233.594-.397-.076.062.137-.172.239-.257.079-.065-.173-.005-.15-.036.507-.658 1.706-1.003 2.104-1.8.004-.01-.21.01-.204.005.416-.452 1.394-.866 1.618-1.382.124-.293 1.122-.613 1.093-.574.212-.28.606-.383.471-.31.076-.04.693-.42.711-.382a.828.828 0 0 0-.113.179c.013.007.465-.23.43-.112a.416.416 0 0 1-.258.168c.072.016.084.047.035.092.198-.1 2.502-.237 1.976.443-.476.618-1.8.02-1.567.691.046.13.219.412.234.48.066.294.516-.09.41-.163a.684.684 0 0 0-.258-.01c-.116-.046.965-.22.967-.25.009-.122-.665-.114-.024-.479.31-.18.351-.381.742-.263.481.146.08-1.276.677-.795.06.048-.46.548-.043.428.233-.067.32-.215.483-.383.092-.096 1.085-.678 1.194-.656.054.011-.278.44-.29.45.325-.21.946-.729 1.352-.693-.038-.004.64-.095.51-.17-.057-.032-.699-.158-.625-.242.135-.156.893-.04 1.144-.049.558-.02.77.265 1.176.009-.017-.005-.634-.322-.575-.14-.13-.392.204-.673.28-1.038.017-.076.983-.063.591.26-.049.042.546.913.549.91-.062.095-.077.506-.217.52-.092.01-.203.013-.31.027.298-.01.625.23.868-.344.057-.134-.26-.737.356-.44.315.149.145.25.585.28-.376-.34-.638-.39-1.158-.353-.154.01-.241-.49-.447-.612.066.04.214-.223.288-.33-.01-.022-.006-.041.041-.053a.219.219 0 0 0-.04.053c.025.048.167.114.329.172-.014-.007-.04-.016-.036-.021.399-.537 1.213-.205 1.504.175.342-.42-.824-.504-.738-.679.217-.442-.15-.053.445-.226.092-.027.58-.11.583-.105a.716.716 0 0 0-.29-.22c.086.036.046-.166-.008-.139.292-.146.714-.08.994-.234-.012-.042-.044-.064-.094-.066-.006-.005.986-.066 1.073-.118-.011-.06-.056-.088-.133-.086.066-.1.175-.118.324-.057-.636-.09.884-.385.925-.141-.016-.081 1.283-.207 1.265.1-.003.054-.22-.037-.161.024.35.37-.12.168-.275.563-.069.175.576-.029.552-.044a.187.187 0 0 1-.167-.07c.031.123 2.476-.122 2.535-.127.185-.016 2.353.714 2.341.755a.225.225 0 0 0-.099-.184c.037.028 1.06.035 1.217-.012.137-.042-.413-.281-.392-.268.12.077.063-.095.068-.122.005-.02.96.066 1.077.077-.536.152.56.067.584.072.519.126 1.045.438 1.624.467.279.014 1.796.491 1.85.393-.004.008.967.125 1.027.122-.12-.068-.21-.126-.21-.148a.709.709 0 0 0 .222.148h-.012c.263.145.687.336.788.328.05-.004-.599-.404-.61-.448.01.036.248.102.563.177A30.23 30.23 0 0 0 30 .147C13.43.148 0 13.36 0 29.657s13.431 29.508 30 29.508c7.391 0 14.153-2.634 19.382-6.993.007-.031.024-.055.027-.09l-.212.121c.058-.007.237-.419.297-.44-.14.05-.27.411-.423.326-.014-.008.406-.463.671-.782-.371.312-1.106.673-1.13.761.08-.3.386-.807.534-1.111a.65.65 0 0 0-.502.136c-.05-.009.03-.2.019-.235-.017-.052-4.251 2.025-4.75 2.107-.86.14-.012-.874.258-1.183.22-.253.958-2.239.808-2.451.033.046.006.26.098.26.129 0 .414-1.872.91-2.075a.97.97 0 0 1 .021.162c.748-.293 1.367-1.277 2.223-1.449.894-.18 1.081-1.573 1.803-1.714-.031.006-.104.551-.111.559.265-.307.308-.532.577-.714.1-.068.585-.687.563-.773-.101-.423 1.568-.971.727.111.259-.203.466-.03.555-.312.045-.139.143-.628.317-.67.038-.008.008.232.073.152.222-.275.918-1.069.911-1.161.008.102 1.269-.013 1.227-.05.146.13-.673 1.084-.701 1.294-.008.059.476.994.444.985.745.205 1.853-2.66 2.102-3.155l.005-.01c.03-.057.016-.03.002-.002.249-.471-.161 1.375-.21 1.364.343.08.074 1.054-.177 1.479-.105.174-.12.277-.107.363a29.082 29.082 0 0 0 2.02-4.382 1.024 1.024 0 0 1-.043-.393c.069-.43-.8.192-.854.198.542.616-1.024.273-.965.243.19-.096.124-1.105-.073-1.287-.298-.275-1.022-.265-.768-.836-.178.07-.188.58-.335.587-.134.007-.073-1.03.288-.815-.103-.062-.757-.167-.458-.448.077-.072.638-.602.81-.372.149.199-.231.983.074 1.183M17.255 16.55c-.004-.043.612-.894.7-.934-.122-.065-.944.35-1.056.443-.532.443-.237.325.05.487.052.029-.734.738-.864.594-.128-.136-.11-.882.118-.757-.45-.244-1.005.453-1.273.827-.185.257-.53.473-.575.81-.028.213.066.552.053.643.365.29 1.656-.485 2.031-.578-.098.024.617.155.74.144.34-.03.811.007 1.093-.219l.007-.005c1.019-.84-.976-.972-1.024-1.455" fill="#0F2B3B"/></g></svg>