<?xml version="1.0" encoding="UTF-8"?>
<svg width="64px" height="64px" viewBox="0 0 64 64" version="1.1" xmlns="http://www.w3.org/2000/svg" xmlns:xlink="http://www.w3.org/1999/xlink">
    <!-- Generator: sketchtool 54.1 (76490) - https://sketchapp.com -->
    <title>2FC1A211-68CF-4F97-8FB4-E8DCCC94DDB8</title>
    <desc>Created with sketchtool.</desc>
    <defs>
        <filter x="-13.3%" y="-13.3%" width="126.7%" height="126.7%" filterUnits="objectBoundingBox" id="filter-1">
            <feOffset dx="0" dy="2" in="SourceAlpha" result="shadowOffsetOuter1"></feOffset>
            <feGaussianBlur stdDeviation="1" in="shadowOffsetOuter1" result="shadowBlurOuter1"></feGaussianBlur>
            <feColorMatrix values="0 0 0 0 0.031372549   0 0 0 0 0.0352941176   0 0 0 0 0.0980392157  0 0 0 0.622732736 0" type="matrix" in="shadowBlurOuter1" result="shadowMatrixOuter1"></feColorMatrix>
            <feMerge>
                <feMergeNode in="shadowMatrixOuter1"></feMergeNode>
                <feMergeNode in="SourceGraphic"></feMergeNode>
            </feMerge>
        </filter>
    </defs>
    <g id="visual" stroke="none" stroke-width="1" fill="none" fill-rule="evenodd">
        <g id="HE-map---zoom-in" transform="translate(-1137.000000, -52.000000)">
            <g id="HE-meter-mini/Default" transform="translate(1122.000000, 25.000000)">
                <g id="HE-meter-mini/Default-Copy" transform="translate(5.000000, 4.000000)">
                    <g id="Group-2-Copy" filter="url(#filter-1)" transform="translate(12.000000, 23.000000)">
                        <g id="Group-14">
                            <ellipse id="Oval" fill="#7D99A8" cx="30.3" cy="29.6557377" rx="29.7" ry="29.2131148"></ellipse>
                            <path d="M30.3,58.8688525 C13.8971429,58.8688525 0.6,45.7896955 0.6,29.6557377 C0.6,13.5217799 13.8971429,0.442622951 30.3,0.442622951 C46.7028571,0.442622951 60,13.5217799 60,29.6557377 C60,45.7896955 46.7028571,58.8688525 30.3,58.8688525 Z M12,18.3462096 C10.6666667,22.3462096 10,26.3462096 10,30.3462096 C10,34.3462096 10.6666667,38.3462096 12,42.3462096 C16,43.6795429 20,44.3462096 24,44.3462096 C28,44.3462096 32,43.6795429 36,42.3462096 C37.3333333,38.3462096 38,34.3462096 38,30.3462096 C38,26.3462096 37.3333333,22.3462096 36,18.3462096 C32,17.4487365 28,17 24,17 C20,17 16,17.4487365 12,18.3462096 Z" id="Combined-Shape" fill="#7D99A8"></path>
                            <path d="M7.61107763,16.1358258 C7.61053217,16.1368988 7.6078049,16.1422639 7.60671399,16.1436052 C7.5988049,16.1605054 7.59335036,16.1720404 7.61107763,16.1358258 M9.97306949,21.6211565 L9.97361495,21.6211565 C9.92752404,21.5806498 9.94797858,21.5991595 9.97306949,21.6211565 M50.6244173,36.8957398 C50.6244173,36.8952033 50.6249627,36.8946668 50.6249627,36.8946668 C50.6309627,36.8361869 50.6361446,36.7790483 50.6244173,36.8957398 M8.80644354,20.2204512 C8.80589809,20.2215242 8.80344354,20.2258163 8.80235263,20.2274259 C8.788989,20.252642 8.77807991,20.2730295 8.80644354,20.2204512 M51.0986955,19.9013646 L51.09815,19.9008281 C51.0490591,19.868369 51.0005137,19.8361783 51.0986955,19.9013646 M51.8765277,41.2158637 C51.8776186,41.2153272 51.8814367,41.2126446 51.8825277,41.2121081 C51.9054367,41.1938667 51.9242549,41.1791126 51.8765277,41.2158637 M22.8983558,42.747958 L22.8983558,42.7474215 C22.872174,42.7267658 22.8459922,42.7063783 22.8983558,42.747958 M18.2790888,18.008254 C18.276907,18.0095953 18.2758161,18.0112048 18.273907,18.0128144 C18.3737252,17.9312645 18.3287252,17.9677473 18.2790888,18.008254 M18.2785399,18.0091024 C18.2779944,18.0096389 18.2769035,18.0096389 18.2763581,18.0101754 C18.2245399,18.0528282 18.1743581,18.0933349 18.2785399,18.0091024 M27.5761333,4.5983065 C27.5995878,4.61359711 27.5128605,4.59776999 27.4108605,4.57469994 C27.5322242,4.60715896 27.6145878,4.62298608 27.5761333,4.5983065 M55.2757969,40.786342 C55.3292176,40.7774193 55.113519,41.1786941 54.9988661,41.1858819 C54.8837092,41.1933175 55.1742472,40.8017089 55.2757969,40.786342 M54.5352148,38.1072937 C54.5543656,38.0978753 53.8853471,38.1402582 53.9145773,38.1489331 C53.8087439,38.0294677 53.8301625,37.9216514 53.9753055,37.8235015 C53.9455714,37.8425862 53.9289404,37.8532439 53.9768174,37.8215186 C54.1307799,37.7221294 54.0365377,37.7835971 53.9800932,37.8200315 C54.2592919,37.6447991 54.8557389,37.9521374 54.5352148,38.1072937 M53.8168074,33.66452 C53.7963966,33.6275898 53.7608668,33.6037959 53.7344085,33.5728142 C53.6557893,33.8558629 52.8572509,34.5116832 53.3052791,33.4882962 C53.5456722,32.9397964 52.6024946,33.4959796 52.6050145,33.4974667 C52.3411868,33.3638737 53.0137331,32.7601026 53.1782789,32.7928193 C53.2266599,32.8684146 53.2523624,32.9519412 53.2538743,33.0429034 C53.3728109,33.3138073 53.7160136,32.4314489 53.8117677,32.4012108 C54.1327958,32.3005822 53.9322162,33.7592 53.8168074,33.66452 M53.1361976,38.3529165 C53.0059216,38.2597236 53.1437571,37.8755507 53.4171601,38.0820127 C53.4725967,38.1231563 53.2657175,38.445118 53.1361976,38.3529165 M51.8820713,41.2106672 C51.8568729,41.2302476 51.8263828,41.2540416 51.8765277,41.2141371 C51.8268867,41.2535459 51.3261938,41.5430387 51.3201462,41.5123049 C51.2521104,41.1214399 52.8643064,40.1669562 52.9754315,40.3602819 C53.048003,40.4822258 51.9911805,41.1291234 51.8820713,41.2106672 M50.5853597,40.7700166 C50.5715006,40.729848 51.0797531,40.6927892 51.4229558,40.5987169 C51.2465667,40.9643809 50.628953,40.8866352 50.5853597,40.7700166 M49.8855991,38.3092943 C49.5242535,38.7450207 49.1702154,38.3320968 48.9315862,38.0217843 C48.9923145,38.1008495 48.3678972,38.4855181 48.3638654,38.2971495 C48.3563059,37.9337963 47.8631725,37.5937413 47.7679224,37.1007607 C47.64445,36.4714607 47.9528789,35.4500565 48.5909034,35.9492334 C48.7559531,36.0778694 50.6304649,33.7009544 51.0031498,33.6208978 C50.8126496,33.6615457 51.7059342,34.2866322 51.6978707,34.2653168 C51.7646466,34.4509591 51.1921381,34.7778778 51.0880685,34.8301749 C50.7627567,34.9947496 51.0560665,35.6927051 51.1210785,35.9224652 C51.178027,36.1239701 50.6511276,36.6360354 50.6249213,36.8895895 C50.6193776,36.9438694 50.6140859,36.9998843 50.6244173,36.8905809 C50.5898954,37.2546777 50.1370795,38.0061695 49.8855991,38.3092943 M50.4175381,41.5668327 C50.2061232,41.7581756 49.9627063,41.4332396 50.1736172,41.2485888 C50.2862543,41.1529173 50.6307169,41.3774726 50.4175381,41.5668327 M49.3564319,41.1145 C49.3637394,41.1645665 49.370543,41.21265 49.355424,41.1132608 C49.3415648,41.013128 49.3488724,41.0617073 49.3559279,41.111278 C49.3287136,40.8790392 50.3424468,40.5171731 50.2333375,40.8369041 C50.1834446,40.989334 49.3939776,41.3239362 49.3564319,41.1145 M46.64508,40.7789064 C46.3905758,40.7342928 45.8934106,40.7129774 45.710218,40.4894136 C45.4811642,40.2103305 46.0015119,39.9699127 46.2114149,40.040303 C46.3525261,40.0873952 46.9935744,40.0960701 46.9915585,40.0566614 C47.0296082,40.7756843 47.5796901,39.9208377 47.7283608,40.0888823 C47.8215951,40.1952115 48.7962706,40.8017089 48.8136576,40.6973626 C48.6715384,41.5571664 47.1427491,40.8663987 46.64508,40.7789064 M45.2198564,39.9158806 C44.968124,39.3272286 44.1864684,38.771541 44.0919743,38.1184471 C44.0194028,37.6148088 43.3899458,37.0905987 43.4506741,36.5515174 C43.4912435,36.1618917 42.41905,35.2582179 42.2013355,34.8671051 C41.9959682,34.4975555 42.3938516,34.4450106 42.6166058,34.62867 C42.7544412,34.6165252 42.8917727,34.6009104 43.0283482,34.5815779 C43.2304397,34.7156666 43.3534081,34.9020524 43.3977573,35.1409832 C43.9848809,36.2907755 45.2377473,36.4082581 45.4617614,37.6428163 C45.4292554,37.4616354 45.9886607,38.5350888 45.790097,38.3952995 C45.8929066,38.467177 46.4142623,38.3650613 46.2988535,38.6267946 C46.1521986,38.9596618 46.0899584,39.441489 45.9294444,39.7356911 C45.9002142,39.7897232 45.2316996,39.9431445 45.2198564,39.9158806 M43.371551,37.6574396 C43.2916719,37.577383 43.2062492,37.1699118 43.3410609,37.1215804 C43.4718407,37.083411 43.3138465,37.1314945 43.3410609,37.1215804 C43.7049263,37.0147555 43.5449162,37.8304414 43.371551,37.6574396 M46.1718533,37.9848541 C46.3915837,37.856466 46.7065642,38.2284941 46.5576414,38.4126492 C46.5838478,38.3806761 46.6098022,38.3484551 46.5576414,38.4131449 C46.5175759,38.4602371 45.8074839,38.1970167 46.1718533,37.9848541 M47.1545924,38.5046028 C47.1082273,38.3509337 47.2019655,38.656537 47.1545924,38.5046028 C47.290916,38.9410728 46.774348,38.6272903 46.7660325,38.6657076 C46.8464155,38.4490837 46.9756835,38.3957952 47.1545924,38.5046028 M49.7172735,23.4041292 C49.6857755,23.4145391 49.6525135,23.4256925 49.7177775,23.4038814 C49.7727101,23.3857881 49.7465037,23.394463 49.7182815,23.4038814 C50.0299861,23.3022615 49.83873,24.9871695 49.7553232,24.921984 C49.4955273,24.7194877 49.4121204,23.5087234 49.7172735,23.4041292 M48.7209273,12.0799513 C48.3253118,11.5996113 47.4176641,10.9648585 47.2566461,10.3427463 C47.3178783,10.5787028 48.5747764,11.5044355 48.8023183,11.7448534 C48.8857251,11.8333371 49.9538869,13.0198118 50.0461131,12.9808988 C49.9203729,13.0334437 49.7533073,12.7161912 49.6353786,12.7672491 C49.5617992,12.7974872 50.3794885,13.9101015 50.64508,14.20356 C50.6176137,14.1626642 50.5893915,14.119042 50.5442863,14.0984701 C50.4767544,14.1272211 50.451556,14.1792704 50.468439,14.2548657 C50.5198438,14.134161 48.9273025,12.3307791 48.7209273,12.0799513 M51.6802318,15.2254599 C51.7112259,15.226947 51.7013985,15.2264513 51.6809878,15.2259556 C51.9231448,15.2395876 52.5606652,15.9157319 52.0889505,16.1732517 C52.0594683,16.1898578 51.1561043,15.6810146 51.2168326,15.9600977 C51.2327076,16.0319752 51.8278947,16.3918584 51.4332871,16.4334978 C51.161144,16.4612574 50.5997228,14.7493334 50.6176137,14.5599733 C50.6188736,14.5438628 51.4864558,15.2170329 51.6802318,15.2254599 M52.9986141,18.6133692 C52.9945823,19.1616211 53.0986519,18.9479714 52.8804334,19.3346229 C52.7294948,19.6013132 52.3956155,19.160134 52.2555122,19.2743945 C52.2232582,19.3006669 52.5417664,19.9388897 52.3517702,19.9557437 C51.9861409,19.9889561 51.8765277,19.2662153 51.5547436,19.4040218 C51.5234975,19.4171581 50.5369787,19.6848398 50.8040821,19.3432977 C51.0603503,19.0173704 51.0411994,18.7667905 51.5434043,18.9058363 C52.0375457,19.0421557 51.5882575,18.1932576 51.6273151,18.1714465 C51.7162656,18.12138 52.1146529,18.6240269 51.9868968,18.1508746 C51.8964344,17.815281 52.2063752,17.556522 51.8598967,17.2878488 C51.6386544,17.1168299 51.5348368,16.1556541 51.9170971,16.5437926 C52.2494645,16.8808734 52.3991433,17.2437309 52.6430641,17.5966742 C52.7249591,17.715396 52.999622,18.46317 52.9986141,18.6133692 M51.9541388,31.5300058 C52.1537105,31.5017505 51.6217715,32.4882073 51.6076603,32.5154712 C51.4461383,32.8176046 51.1389694,32.7251553 51.1528285,32.7164804 C51.4327832,32.5494271 51.6998866,31.5659445 51.9541388,31.5300058 M51.5547436,19.5720665 C51.6079123,19.5648787 51.5819579,19.5685966 51.5552476,19.5725622 C51.7308807,19.5487683 51.9370039,19.9611965 51.8415018,19.9879646 C51.6036286,20.053398 51.6973668,19.8573459 51.6031246,20.1465909 C51.612952,20.1180877 50.9227668,19.6687294 51.5522238,19.5725622 C51.5265214,19.5765279 51.5033388,19.5799978 51.5547436,19.5720665 M50.8980723,20.2987729 C50.806098,20.0377832 50.2620638,19.9956481 50.5246315,19.6362606 C50.6274411,19.4959755 51.0510268,19.8697385 51.0938642,19.8979938 C51.1394734,19.928232 51.1853345,19.9587179 51.0943681,19.8984895 C51.2969636,20.0320826 51.5713746,20.7498663 51.209021,20.8678445 C50.7221872,21.0232487 50.9953383,20.5756253 50.8980723,20.2987729 M53.1797909,36.2077446 C52.8597707,36.7864825 51.1513166,36.333902 51.4723447,37.3173847 C51.4688169,37.3062312 52.2351014,37.0484636 52.4044349,37.0744882 C52.2015875,37.0430108 52.1784049,37.6068775 51.902734,37.5431792 C51.6915711,37.4938563 51.838226,38.1417453 51.855361,38.2282462 C51.9488472,38.6976807 51.3793625,38.7098255 51.3783545,38.8285474 C51.3798664,38.5301318 51.5829659,38.1189428 51.5542396,37.8604316 C51.5577674,37.8924047 50.8189492,39.4298399 50.6677586,39.2422148 C50.5178279,39.0563247 50.9857629,37.915703 50.9378859,37.6316629 C50.870354,37.2301402 51.58095,36.1789936 51.9931964,36.0721687 C52.1058334,36.0424263 52.354542,36.3252271 52.4979211,36.2818528 C52.6622149,36.2325299 53.0543026,35.9321315 53.1571123,35.9239524 C53.2687413,35.9933513 53.2760489,36.0880314 53.1797909,36.2077446 C53.2616858,36.0610153 53.0986519,36.354226 53.1797909,36.2077446 M53.1145269,31.8175158 C53.2009575,31.7877734 53.1674436,32.5905708 52.9421696,32.5999893 C52.7191634,32.6086641 52.9645962,31.8693172 53.1145269,31.8175158 M52.7451178,31.3919514 C53.2478266,31.4308644 53.0248205,31.9912611 52.7244551,31.9729199 C52.6213935,31.96598 52.6513796,31.3842679 52.7451178,31.3919514 C52.6569233,31.3847636 52.9204989,31.4055833 52.7451178,31.3919514 M53.3594623,32.2279612 C53.2203714,32.2634042 53.2770987,31.7325021 53.3774623,31.7285364 C53.4797351,31.7255622 53.4993714,32.1942531 53.3594623,32.2279612 M53.418672,30.9014493 C53.1989417,30.8669977 52.4608794,30.3331213 52.4475243,30.1125317 C52.4439965,30.0495769 52.0138591,28.9825676 52.1579942,29.0534537 C52.1965478,29.1116993 52.2479526,29.1364847 52.3117047,29.1270662 C52.3941036,28.8541795 52.1229684,28.4481955 52.3265718,28.2179396 C52.4404687,28.0897994 52.7650246,28.124251 52.7733401,28.3364136 C52.7934988,28.8400519 52.6853975,29.2792483 52.7171475,29.7799123 C52.7209273,29.8421235 53.6321028,30.9344138 53.418672,30.9014493 M53.5573752,31.6509583 C53.5841025,31.6080796 53.8290116,32.0990774 53.7188298,32.1446824 C53.6102843,32.1920224 53.4938298,31.7592702 53.5573752,31.6509583 M53.6222754,31.1530206 C53.8364621,31.0243847 54.0226786,31.7027596 53.7999244,31.6120453 C53.5776742,31.5220745 53.4912435,31.2330773 53.6222754,31.1530206 M54.2008315,35.2988659 C54.4709588,35.5504372 53.9949603,35.6535442 54.355046,35.7588819 C54.5095124,35.804487 53.8898828,36.8724876 54.0463651,36.9522965 C54.0103314,36.8895895 53.9742976,36.8268826 53.9387678,36.7641757 C54.129268,37.24749 53.7462517,36.2786307 53.9387678,36.7641757 C53.8631725,36.5738242 54.0844148,35.1900582 54.2008315,35.2988659 M34.6538995,33.5120901 C34.2882701,33.3750271 34.226534,32.0671043 34.5080005,32.0262084 C34.6566713,32.047276 34.7667885,32.1238627 34.838856,32.2559686 C34.7753559,32.1303069 34.8207131,32.2195342 34.83936,32.25696 C34.9900466,32.5489314 35.3939776,32.7412657 35.2868842,33.1189945 C35.192894,33.4498789 34.983747,33.6362647 34.6538995,33.5120901 M23.1162908,43.9553967 C23.2511024,44.8962485 22.8794255,45.8098365 22.9396497,46.7035961 C22.8937886,46.9784657 23.209273,47.8258767 22.6138339,47.7676312 C22.2728991,47.9973913 21.6976187,47.5676134 21.6310949,47.2255756 C21.5144261,46.6438635 21.1865944,46.4825108 21.4504221,45.8341261 C21.6630969,45.3114031 21.0903364,44.8932743 21.1397253,44.3876532 C21.1969258,43.8024711 22.1693335,43.9068174 22.3323674,43.4482885 C22.3684012,43.3479078 22.644828,42.2623095 22.757969,42.3493061 C22.7869472,42.4871127 22.8330604,42.6187229 22.8960564,42.7456238 C22.9202469,42.7649564 22.9444374,42.784289 22.8960564,42.7461195 C23.1223384,42.9243262 23.5303011,44.2161386 23.1162908,43.9553967 M19.9926925,36.1871728 C19.660829,36.5237578 19.6222754,37.0167384 19.306791,37.3562976 C18.8010583,37.9008318 18.8776616,38.5933344 18.4880937,39.2092503 C18.3764647,39.3824999 18.903364,40.8916798 19.0948721,41.1102865 C19.6154718,41.7036478 20.3910798,43.7179531 19.4020411,44.0404104 C18.9764395,44.1792084 18.2502205,44.9661432 18.4787703,45.4226893 C18.5667129,45.5981696 19.2475747,46.9006397 19.1601361,47.013413 C19.0505229,47.1566723 18.5231196,47.0347284 18.4298853,47.282334 C18.3626055,47.4602928 18.6599471,47.9346844 18.6501197,48.1785722 C18.6322288,48.5986839 18.1365755,49.114467 18.1529545,49.4981442 C18.1665617,50.0149187 16.1209525,49.989142 15.8490614,49.755664 C15.2208643,49.2165826 14.9388938,48.6715528 14.4268615,47.9148561 C13.8364621,47.0419162 12.9232708,46.2931508 12.6113141,45.2491919 C12.3721809,44.4498644 11.5051027,43.2998242 10.9902986,42.6479696 C10.4233338,41.9408436 10.9713998,40.9533953 10.5778002,40.2767553 C10.2807106,39.7669206 10.1763891,39.1951227 9.8918987,38.6652119 C9.67468817,38.2602193 9.37407081,37.9474282 9.14577296,37.5674688 C8.72773088,36.8692655 8.39435555,36.6729656 8.32505985,35.9113118 C8.28323044,35.4500565 8.43820083,34.466326 7.83243039,34.1817902 C7.69812272,34.1185876 7.2886481,34.5250673 7.14652892,34.1624576 C7.05430263,33.9282361 6.83935996,33.4174101 6.51833186,33.6310598 C6.48028222,33.6563408 5.45344589,33.9676448 5.3677712,33.9607049 C5.2354794,33.9490558 4.59947083,33.9589699 4.50623661,33.9287318 C4.22628197,33.8400002 4.22023435,34.0496843 3.82436689,33.5262177 C3.53055311,33.1370878 3.37306287,32.6061856 3.11679476,32.2609257 C2.68161774,31.6643424 2.44752425,30.8246147 2.56469699,30.0763451 C2.59770694,29.8659175 2.50598463,28.2164525 2.58334383,28.1864622 C2.81995716,28.0843466 2.92553862,26.9870992 2.99811012,26.7967477 C3.19138213,26.2916223 3.52551342,25.8705193 3.76590651,25.3911706 C4.12750409,24.6684299 4.33791105,23.4541956 5.21532065,23.1914709 C5.46906892,23.1151321 9.03036412,21.1593202 9.09159632,21.6961709 C9.13695351,22.0991806 8.70832808,22.3978441 8.63323674,22.7287285 C8.52160766,23.2217091 9.87677964,22.9904618 9.95086305,23.4358545 C9.98034522,23.6140611 11.1734912,24.0666416 11.1634119,23.3701733 C11.1586242,23.0132643 11.5930452,22.6315699 11.9826131,22.6109981 C12.178153,22.6003404 12.2867582,22.866535 12.5085045,22.908918 C12.7766158,22.9602236 13.0192768,22.9812912 13.2916719,23.0172299 C13.5771702,23.0549037 14.548318,23.1959323 14.6783419,22.7678893 C14.7919869,22.3765287 15.1538365,23.196428 15.1493007,23.1661899 C15.0525387,23.5310302 15.1477888,23.7714481 15.2692453,24.1050589 C15.4146403,24.5048466 15.4919995,24.8677041 15.6797279,25.3155753 C15.919869,25.8881169 16.1718533,26.3359881 16.4797783,26.8604461 C16.8116417,27.4312527 16.6634749,27.9435658 17.0996598,28.3681388 C17.3952375,28.657136 17.3697871,29.8240302 17.7603629,29.7120004 C17.8969384,29.6730874 18.8318004,30.5871711 19.0129772,30.7490194 C19.2672294,30.9763011 19.1765151,31.1146033 19.129646,31.3817894 C19.0593423,31.7786028 19.5779262,31.4945627 19.6242913,31.786782 C19.645458,31.9243407 20.8469195,31.5629703 20.9525009,31.5255444 C21.3269497,31.3924471 22.5284112,30.8159399 22.4261056,31.4910928 C22.3351392,32.0913939 22.2721431,32.7164804 21.9531309,33.2515961 C21.952123,33.2525875 21.952123,33.2525875 21.951619,33.2535789 C21.5817059,33.8704862 21.3130906,34.6393277 20.9882827,35.2931652 C20.7562051,35.7482242 20.338415,35.8369558 19.9926925,36.1871728 M2.92506724,26.0217099 C2.98643088,26.046991 2.93679452,26.380106 2.83833997,26.3369795 C2.78133997,26.3126899 2.88824906,26.0075823 2.92506724,26.0217099 M3.17815621,25.8268971 C3.24470167,25.8162394 3.16833803,26.1731484 3.07370167,26.1917374 C2.97824712,26.21107 3.11324712,25.8390419 3.17815621,25.8268971 M8.80131032,20.2268954 C8.81592541,20.1991358 8.83432027,20.1641885 8.80509008,20.2204512 C8.86002268,20.1505565 8.92377473,20.1394031 8.99634623,20.1859996 C9.08403679,20.3079435 8.71235983,21.1385005 8.48431397,21.0185394 C8.31246063,20.9265858 8.74536979,20.3255411 8.80131032,20.2268954 M9.19667381,19.3735359 C9.18634245,19.4424391 9.17601109,19.5108467 9.16567973,19.5795021 C9.21506867,19.3331357 9.11679476,19.8251249 9.16567973,19.5795021 C9.13443367,19.7815027 9.0371677,19.9398811 8.87438579,20.0543894 C8.69068918,20.082149 9.15711226,19.2191231 9.19667381,19.3735359 M10.2514804,20.9868142 C10.3008693,21.0068903 10.1078493,21.738306 9.97303767,21.6208234 C9.9725337,21.6203277 9.9725337,21.6203277 9.97202973,21.619832 C9.97152577,21.6193363 9.97152577,21.6193363 9.9710218,21.6193363 C9.91810508,21.574227 9.39070178,21.22054 9.38893789,21.2381376 C9.40405695,21.0839728 10.1270001,20.9374914 10.2514804,20.9868142 M12.5331989,21.4136957 C12.5911553,21.3112597 13.3133426,21.5475153 13.1475369,21.6060143 C13.3173743,21.5460089 12.9782034,21.6660197 13.1475369,21.6060143 C13.048759,21.6409128 12.3346353,21.7669493 12.5331989,21.4136957 M6.60274663,16.4662145 C6.70454832,16.4461383 7.72962076,14.9840506 7.61219604,15.80048 C7.56331107,16.1392957 6.9129394,16.9720834 6.56394104,17.1272397 C6.5871236,17.1168299 6.60879425,17.1076593 6.56192516,17.1282311 C6.516064,17.1475637 6.53521482,17.1393845 6.55738944,17.1294704 C5.82109109,17.4432529 6.67204233,16.7448018 6.77031624,16.4334978 C6.71538365,16.390867 6.6596951,16.4020204 6.60274663,16.4662145 M8.1000378,15.5003294 C8.08265088,15.4983466 7.72483306,15.7189362 7.78757717,15.6012058 C7.85762883,15.4695956 8.1484188,15.2408268 8.10255764,15.1030203 C8.0886985,15.0621245 7.82537483,15.2661079 7.78052161,15.2720564 C8.18848431,14.8893706 8.21469069,14.0146956 8.89504851,13.8892818 C8.98777876,13.8716842 8.52463147,14.322034 8.56318508,14.347315 C8.6677586,14.4162183 8.9177271,14.1034272 9.05253874,14.1834839 C9.08025702,14.1995943 8.44903616,14.900524 8.45558775,14.9020111 C8.54403427,14.8844135 8.63172483,14.8665681 8.71966738,14.8469877 C8.8564949,14.9047375 8.4870858,15.8029585 8.59493511,15.8959036 C8.64709588,15.9420043 8.87287388,15.7432259 8.89706438,15.7923008 C9.28663223,16.5822099 7.32921759,16.9718356 6.99004662,17.3334538 C7.11099912,17.1364103 7.46755701,16.9678699 7.46201336,16.820645 C7.45823359,16.6860605 7.21910042,16.9041716 7.1903742,16.8399775 C7.21305279,16.8873175 7.57364243,16.2086947 7.60614842,16.1430135 C7.61647978,16.1212024 7.63235479,16.0892293 7.61018017,16.1358258 C7.58246189,16.1940713 8.4097266,15.5377553 8.1000378,15.5003294 M8.00744984,14.6073206 C8.14844984,14.4844592 8.22208621,14.5906887 8.11326803,14.6843102 C8.00363166,14.7776634 7.93844984,14.6684831 8.00744984,14.6073206 M8.26433161,14.1909195 C8.34093486,14.1864581 8.09021041,14.5066848 7.99622023,14.5190775 C7.90097014,14.5332051 8.15194658,14.1981072 8.26433161,14.1909195 M16.3711867,5.21404273 C16.4688231,5.14456434 16.5601867,5.34173275 16.4341867,5.37365525 C16.307914,5.40477299 16.2732777,5.28217984 16.3711867,5.21404273 M17.2664735,4.64930384 C17.2773088,4.71201077 17.2778128,4.77521341 17.2684894,4.83841605 C17.2047373,4.78735823 17.8828273,4.21853448 18.0599723,4.62402279 C18.0521608,4.60617734 16.8202091,5.65732397 16.7844274,5.57949797 C16.7471337,5.49745847 16.8186972,5.35940408 16.8675822,5.3113205 C16.8443996,5.29149222 16.8181933,5.28504803 16.790979,5.28430447 C16.9242787,5.21416194 17.1024316,5.06867194 17.2231322,5.03496387 C17.1029356,5.06817623 16.7277309,5.06321916 16.6478518,5.19582078 C16.8486834,4.8632014 16.7524253,4.85303941 17.2664735,4.64930384 M19.0573264,4.14046064 C18.968124,4.28991629 18.2955777,4.6212964 18.1375835,4.52884705 C18.1736172,4.54991459 17.9775734,4.48472913 17.9425476,4.46093519 C17.9498551,4.46638797 17.952375,4.4683708 17.9415396,4.46043949 C17.7114779,4.2978476 19.1334257,4.01355965 19.0573264,4.14046064 M17.8397379,5.06731501 C17.8916467,5.01741933 17.9440595,4.96698714 17.9962202,4.91709146 C17.9692579,4.94016151 17.9420436,4.96269504 17.9972282,4.91601844 C18.0939902,4.8953627 18.1902482,4.8744387 18.2872622,4.85378297 C18.5266473,4.98066821 17.7656545,5.15879042 17.8397379,5.06731501 M22.0015119,6.2677871 C21.9748016,6.3674242 21.9140733,6.44500234 21.8183193,6.49977796 C21.774222,6.56744197 21.7248331,6.57264689 21.6696485,6.51588844 C21.725841,6.33817749 21.8364621,6.25564228 22.0015119,6.2677871 M23.2047373,4.84808234 C22.8363361,4.74324031 23.4274915,5.66500743 23.4279955,5.5212524 C23.4249717,6.09379396 22.5150561,5.40129132 22.5924153,5.39831707 C22.4918735,5.45507552 22.4301373,5.44070002 22.4077107,5.35419915 C22.5717526,5.15492495 22.8577548,4.74894094 23.2047373,4.84808234 M23.1888623,4.33799986 C23.1964218,4.34295693 25.3901978,3.32923618 25.3576918,3.52652755 C25.3171223,3.79222649 23.1893663,4.7848797 22.9217589,4.72118135 C22.9401537,4.72564272 22.9582966,4.73010408 22.9212549,4.72118135 C22.9129394,4.71845496 23.371299,4.46490085 23.3148545,4.38657915 C23.274285,4.36675087 23.2324556,4.35064039 23.1888623,4.33799986 M22.4139165,5.53054272 C22.4507347,5.42458146 22.6656438,5.51659339 22.6607347,5.61477521 C22.6566438,5.71161574 22.3855529,5.61960382 22.4139165,5.53054272 M25.9342539,4.15383699 C26.1152744,4.1243288 26.099912,4.31049869 25.9176113,4.34510376 C25.7371028,4.37970883 25.7522092,4.18414996 25.9342539,4.15383699 M29.1233464,2.07194588 C29.1268741,2.17200549 28.5757843,2.21599953 28.5929192,2.21653604 C28.6161018,2.21707256 28.6314728,2.21707256 28.5911553,2.21707256 C28.4785183,2.21653604 28.548066,2.21653604 28.5906514,2.21653604 C28.35555,2.21358522 29.1140229,1.78544812 29.1233464,2.07194588 M29.7031624,2.12322026 C30.0521608,2.21710997 29.193398,2.40542592 29.0054177,2.31877912 C29.0611062,2.34453173 28.9484692,2.29356303 29.0054177,2.31877912 C28.6765781,2.17257942 29.5469321,2.08110401 29.7031624,2.12322026 M30.7874512,2.26668828 C30.7335265,2.33261731 30.1474109,2.47637233 30.0695477,2.44638206 C30.1622779,2.48232082 29.9765655,2.41093901 30.0695477,2.44638206 C29.5948091,2.26520116 31.0056696,1.99950223 30.7874512,2.26668828 M37.7548192,2.62857737 C37.7878292,2.66721151 36.8171853,2.59388548 36.742094,2.56734092 C36.6753181,2.54263609 36.6244173,2.49821996 36.5903994,2.43435535 C36.6002268,2.25721646 37.6411742,2.49611742 37.7548192,2.62857737 M37.919617,2.53239646 C37.8135316,2.60643521 37.7054303,2.59758275 37.5953131,2.5063756 C37.4856999,2.46560063 37.3781026,2.41865577 37.2727731,2.36607753 C37.355172,2.42241136 37.8815673,2.29794042 37.919617,2.53239646 M39.1261182,2.64026368 C39.1566083,2.71537545 38.4560917,2.60539036 38.4104826,2.60136651 C38.3517702,2.59546487 38.3774726,2.59761092 38.4061988,2.60083 C38.2960816,2.60485384 38.209651,2.56542016 38.1484188,2.47984639 C38.2945697,2.44872866 39.0525387,2.46240973 39.1261182,2.64026368 M11.822603,13.7440396 C11.8729999,13.7983196 11.8601487,13.8468988 11.7880811,13.8907689 C11.8004284,13.8791198 11.8097518,13.8701971 11.7845534,13.8944867 C11.6993826,13.9762784 11.6474739,14.4818995 11.4232078,14.3944072 C11.4103566,14.3889544 11.436059,13.6701793 11.822603,13.7440396 M13.6945949,12.5327797 C13.7528033,12.522122 13.6497417,12.845075 13.451682,12.9114998 C13.2541262,12.9781724 13.6147159,12.5464116 13.6945949,12.5327797 M14.6775495,11.9456932 C14.7885495,11.9030404 14.8564586,12.0503131 14.6720949,12.1573474 C14.4877313,12.2630404 14.4817313,12.0197319 14.6775495,11.9456932 M14.7862568,11.6796527 C14.9117113,11.6302936 14.9209841,11.7831997 14.7355295,11.8768211 C14.5489841,11.9712474 14.6253477,11.7421565 14.7862568,11.6796527 M15.9322162,20.8445463 C15.8155474,20.9345171 15.6189996,21.5196992 15.4559657,21.5100329 C15.4771324,21.5120157 15.4985511,21.5135029 15.4554618,21.5105286 C15.4136324,21.5070587 15.4327832,21.5085458 15.4534459,21.5100329 C14.7005166,21.4493088 15.9465793,20.8338886 15.9322162,20.8445463 M55.9271765,37.6519869 C56.0125992,37.7080017 56.5548696,36.7272455 56.7695603,36.680649 C57.1097392,36.6072844 57.4060728,37.0663091 57.789845,37.015747 C58.1103692,36.9736119 58.628701,37.6856949 58.7700643,38.0198014 C59.5658309,35.3672734 60,32.5620677 60,29.6557377 C60,21.0490254 56.2517324,13.305339 50.2756709,7.91130356 C50.3583218,8.15073003 50.6037546,8.56786745 50.6055185,8.56613247 C50.5770442,8.59612275 49.6333627,8.1162784 49.5119063,8.24541006 C49.5371047,8.2196333 49.402797,8.54407351 49.3750787,8.4471628 C49.5701147,9.15131455 50.628953,9.41998773 51.0565705,10.0599454 C51.0210407,10.1343015 50.9666121,10.130088 50.8930326,10.0460656 C51.0737054,10.0931578 52.2041073,12.1233257 51.9269245,12.2712942 C51.5093864,12.4948581 49.4176641,9.68519096 49.160892,9.37289557 C48.9814791,9.15081885 48.5702406,8.25086284 48.6531435,7.90609864 C48.726219,7.60198241 47.886859,7.1246166 47.9322162,7.2557311 C47.951115,7.30753247 48.2454328,7.842896 48.176641,7.86867277 C47.8848431,7.97896757 47.6064004,7.20814323 47.0948721,7.34743689 C46.7436059,7.44310833 47.8210911,8.54134713 47.838478,8.45930762 C47.8462895,8.4189075 45.8352022,8.11181703 45.5917853,8.1274318 C45.1334257,8.15370427 45.0454832,8.86033456 45.209021,9.3072144 C45.2765529,9.49285666 45.1858385,9.915199 45.3496283,10.0036827 C45.3932216,10.0269809 46.1403553,10.4423834 46.0574524,10.4431269 C46.0854227,10.3995047 46.113141,10.3558825 46.1398513,10.3112689 C46.161522,10.3169695 46.5457982,10.7157658 46.6251732,10.6230686 C46.5886355,10.5355763 46.5392466,10.4567589 46.4770064,10.3858728 C46.5634371,9.94692424 47.6162278,11.079119 47.5925413,11.0625128 C48.032002,11.3748082 48.6052665,12.3146686 48.8675822,12.7863338 C49.177019,13.3417734 49.241779,14.031054 49.2941918,14.6363122 C49.3163664,14.8940798 49.5129142,15.2988246 49.1593801,15.3880518 C48.9787073,15.4336569 48.742598,15.1461468 48.6725463,15.3935046 C48.6236613,15.5717112 48.1060854,15.695638 48.3643694,16.0280095 C48.5619252,16.2800765 48.5692327,16.3864056 48.3835202,16.6580531 C48.064004,17.1237698 49.0185209,17.2700033 49.09714,17.6556633 C49.6250472,17.7614968 50.258536,19.0753681 49.3312335,19.1903721 C48.9910546,19.2325072 48.8814414,18.6250183 48.7657805,18.3622936 C48.6911931,18.1883005 47.8813154,17.2125013 47.757591,17.3170955 C48.1673176,16.9688613 47.0621141,16.6952311 47.0759733,16.7314177 C47.1351896,16.8873175 46.7214313,17.0266112 46.6108101,17.0575929 C46.3318634,17.1359146 46.3817563,16.5209901 46.3185083,16.3544325 C46.0667759,15.692168 45.999496,16.6414469 45.8193272,16.6337634 C45.4977951,16.6221143 45.5882575,17.2082878 45.7180295,17.3800503 C45.8465415,17.5500778 47.5204737,17.9265672 47.3851581,18.0631345 C46.4223258,19.024806 47.5368527,18.9737482 47.8981983,19.9743327 C48.0108353,20.2846453 48.3731889,20.5173797 48.4256016,20.7600283 C48.4565957,20.9047747 48.7065642,21.4027123 48.7005166,21.4696328 C48.6833816,21.6703941 48.9588006,21.9150255 48.9366259,22.1400765 C48.9184831,22.3244795 48.7395741,22.3187788 48.7662845,22.5450691 C48.8091218,22.8972689 48.661207,23.0097943 48.7410861,23.4279232 C48.8975684,24.2458397 47.8029482,24.7365896 47.3032632,25.0409537 C46.9905506,25.231553 46.0075595,25.5587196 46.161018,25.9827969 C46.2854983,26.3228519 46.4626433,26.7642789 46.063752,27.0203116 C45.806476,27.1848863 45.5106463,26.7055377 45.7071942,26.5258439 C45.9866448,26.2703069 45.951619,25.3748123 45.5696107,25.5550018 C45.4466423,25.6127516 44.5432783,25.5941626 44.7385662,26.0648364 C44.9240267,26.5040328 44.5468061,26.8123625 44.9053799,27.2047146 C45.2243921,27.5539401 45.7137457,27.8377324 45.9249087,28.2598269 C46.1574902,28.7186037 46.5624291,29.3345196 46.4795263,30.0242958 C46.4376969,30.3831877 45.8079879,31.3089205 45.499811,31.367166 C45.4416026,31.3428764 45.3833942,31.3195782 45.3241779,31.2967756 C45.3891899,31.3069376 45.1432531,31.8717957 44.9933224,31.9183922 C44.8338163,31.9684586 44.9610684,31.1220389 44.6644828,31.0528878 C44.2041073,30.9445758 44.2960816,30.8422123 44.0042837,30.5314041 C43.838226,30.3544367 43.2727731,29.6614383 42.9933224,29.5561006 C42.8300365,29.4943851 42.4427366,31.4593675 42.6813658,31.5711494 C42.9913065,31.7168873 43.0447272,32.5848702 43.0462391,32.5853659 C43.273781,32.6441072 44.9202469,33.6640243 44.6140859,33.9783025 C44.2235101,34.3761073 45.3413128,35.3655385 44.6307169,35.5722483 C44.2570241,35.6810559 43.4408467,34.6475069 43.4925035,34.2375572 C43.5675948,33.6392389 42.8136576,33.1760008 42.7622527,32.6279967 C42.7375583,32.385596 41.7228172,31.9466475 42.1504347,31.5138953 C42.3613456,31.3002456 42.4067028,30.1603674 42.273403,29.8279959 C42.1365755,29.4852145 41.8848431,29.2105928 41.6819957,28.9067245 C41.38667,28.4648017 41.7470077,28.1956328 41.2616858,27.8409545 C41.3161144,27.8803632 40.7630087,28.4769465 40.6947209,28.5230473 C40.5707446,28.6070696 40.2983495,28.317081 40.2043593,28.252887 C40.0113393,28.1202854 40.4656671,27.4369533 40.1426232,27.1868691 C39.8651884,26.9717323 40.0138591,26.6140797 39.6870354,26.4306682 C39.4602495,26.3062457 39.2213683,26.1847975 39.0578304,25.9778398 C38.7362983,25.569873 38.8771576,25.233288 38.3147285,25.048885 C38.3794885,25.5520275 37.4872118,25.7166023 37.0880685,25.5961455 C36.8265088,25.5165845 36.8418798,26.7065291 36.1678216,26.6569584 C36.4112385,27.5584015 34.5037168,28.5019797 34.3595817,29.2742912 C34.2665995,29.7692546 34.2640796,30.8256062 34.4230818,31.2739731 C34.4661711,31.3944299 34.0020159,32.072557 34.0083155,32.072557 C33.7376843,32.0812319 33.7606148,32.3935273 33.6043845,32.5464529 C33.2682374,32.8763459 32.8592667,31.9431775 32.7851833,31.7493561 C32.5725085,31.1939164 32.2489606,30.680364 32.0574524,30.1140188 C31.8311705,29.4448144 31.6011087,28.58278 31.2213683,27.9844617 C30.7685523,27.2639516 31.0258284,26.3967122 30.6680106,25.6982611 C30.3618496,26.0735113 30.4160262,26.9737151 29.7568351,26.2737769 C29.6152199,26.1235777 29.1435051,25.9614815 29.3120827,25.6992525 C29.354416,25.6771936 29.6507497,25.6276229 29.5746504,25.5024568 C29.5297972,25.4276051 29.1233464,25.4144689 28.9807232,25.2265959 C28.7400781,24.9103349 28.5074965,24.9284282 28.3169963,24.5256663 C28.1169208,24.1040675 27.6366385,24.5013766 27.2044853,24.526162 C26.5863676,24.5611093 25.9740456,24.3853812 25.3524002,24.5150086 C25.0500189,24.5777155 24.5173239,24.4733692 24.2862543,24.2634373 C24.0990299,24.0929141 24.2827265,23.854479 23.9483432,23.7642604 C23.8052161,23.7253474 23.1341817,24.0376427 22.9484692,24.0527618 C22.6201336,24.0792821 22.3510142,23.6874258 22.0514048,23.5592855 C21.8566209,23.4760067 21.7195414,22.9074309 21.564823,22.7232757 C21.3692831,22.4905413 21.0409475,22.6833713 20.7851833,22.638262 C20.7564571,22.8325791 20.645584,24.0656502 21.1195666,23.9967469 C21.6739322,23.9228866 21.3599597,25.0736703 21.9629583,24.9351202 C21.6963588,24.3645615 22.387048,24.5008809 22.1416152,24.8550635 C22.0685398,24.9604013 21.9249087,25.3522576 22.1985637,25.3800172 C23.4083407,25.5029526 23.0661459,24.5221963 23.9611944,24.2183279 C23.9100416,24.2356777 24.0609802,25.0283131 24.2502205,25.1371208 C24.6516316,25.3713424 25.4872118,25.627375 25.2649616,26.2328811 C25.1014237,26.6787695 25.178027,26.6059006 24.8615346,26.8542498 C24.7778758,26.9196831 24.8121456,27.185382 24.7715762,27.2728743 C24.5704926,27.7113271 24.7405821,27.5291548 24.4382008,27.8667312 C24.2698753,28.0553477 23.9616984,28.3996162 23.9430515,28.5676609 C23.9143253,28.8217107 23.3347612,28.687622 23.1850825,28.7751143 C22.8280207,28.9838069 22.8255008,29.1062465 22.6118181,29.4002008 C22.1733653,30.0014933 20.5253874,30.771822 19.8435177,30.9844802 C19.1062114,31.2092834 18.7473857,29.5556049 18.7751039,29.0076008 C18.7814036,28.8586409 18.2970896,28.2918 18.1849565,28.1051663 C17.90349,27.6394496 17.7855613,27.6647307 17.3889379,27.3271542 C17.0991559,27.08054 17.3282097,26.6145754 17.1172987,26.3193819 C16.9396497,26.0707849 16.7466297,25.6511689 16.6161018,25.350027 C16.467431,25.0069977 16.2547562,24.7204791 16.1106211,24.397526 C15.9496031,24.0356599 16.0473731,23.7627732 15.8931586,23.3280382 C15.8568729,23.543175 15.8425098,24.2542667 15.6348746,24.3799284 C15.4136324,23.9977383 15.3093108,23.5887801 15.1676956,23.1823004 C15.112763,22.3334022 15.6046365,22.9151143 15.7334005,22.491037 C15.9392718,21.8151405 16.0927303,20.8004284 16.499685,20.246228 C16.0257024,20.5275417 15.4668011,20.5746338 14.9706438,20.503252 C14.6486078,20.4566556 14.16127,21.0641445 13.6389064,20.8869292 C13.984125,20.7037655 13.3529041,20.4997821 13.4320272,20.1855039 C13.4234597,20.2189641 13.531813,19.5108467 13.5335769,19.5088639 C13.8684642,19.1529463 14.5137961,19.1918593 14.7746,18.818344 C14.451052,18.9053406 14.2857503,18.7251511 13.9959682,18.9804402 C13.9574146,19.1479892 13.7722061,19.2748902 13.6162278,19.3199995 C13.5570115,19.3375971 13.2319516,19.1452628 12.983495,19.23796 C13.0729495,19.2374643 13.1165428,19.2793515 13.1140229,19.3633739 C12.7950107,19.4317814 12.8675822,19.6717036 12.5727605,19.5167952 C12.5687287,19.5148123 12.418798,20.2132635 12.4691949,20.2273911 C12.5911553,20.2603556 12.5911553,20.0742177 12.6957289,20.0640557 C12.8501953,20.0491845 12.9530049,20.3763511 12.7609928,20.3847781 C12.8428877,20.3813081 12.3510142,20.9496362 12.3472345,20.863631 C12.3684012,21.3628079 11.6887993,21.0237444 12.2691193,20.4725182 C11.8656923,20.8556997 11.4499181,18.9363223 11.5817059,18.9125284 C11.4400907,18.936818 10.531939,17.9077303 10.4238377,18.2919032 C10.4543278,18.1835913 10.5906514,18.1107223 10.6060224,18.0009233 C10.5921633,18.1010561 9.92213683,18.3536188 10.2570241,18.7003658 C10.4099786,18.8582485 10.838604,19.5123338 10.8297846,19.5462897 C10.8519592,19.461276 11.2049893,19.6620373 11.257906,19.7232571 C11.6351266,20.1587357 10.9570367,19.8913018 11.0104574,19.8873361 C10.8045861,19.9034466 10.7708202,20.828188 10.4434925,21.0267186 C10.597203,20.9335257 10.4790223,19.8610637 10.3122086,19.8211593 C9.91079753,19.7249921 9.7918609,19.4915141 9.52702532,19.3306572 C9.53206501,19.3336314 9.50434673,18.639146 9.23925917,18.7814139 C9.10343959,18.8542828 8.66927051,19.2111918 8.57754819,19.3204952 C8.38352022,19.5512468 8.26533955,19.3594082 8.06853975,19.479865 C7.82058712,19.6313035 7.72382512,20.285141 7.53206501,20.3277718 C7.18407459,20.4080763 6.95779262,20.8252137 6.72294318,21.0368806 C6.65616732,21.097109 6.01335517,22.905448 5.61421192,22.6149637 C5.56205115,22.5770422 4.59720297,22.925772 4.47650246,22.9713771 C4.44853219,22.9827783 4.89328462,21.4225406 4.90613582,21.3100151 C4.93486204,21.0601788 5.00340179,20.7421828 5.09235227,20.516884 C5.2435429,20.1344461 5.6789719,20.3099263 5.94607534,20.1579921 C6.35101424,19.9262491 7.05379866,19.7153258 7.06513796,19.1544334 C7.06891773,18.9596205 7.12133048,18.1310463 6.82650876,18.2185386 C7.17953887,18.1174144 7.47536853,17.64104 7.73894419,17.4992678 C8.08113897,17.3126341 8.75570115,16.2339758 9.09890387,16.2785894 C9.18936626,16.0959214 9.74927554,15.1972046 10.0251984,15.2462796 C10.0677838,15.2539631 10.548318,15.0514668 10.5654529,15.0251943 C10.6528915,14.892097 10.6564193,14.2675062 10.6198816,14.3264953 C10.7388182,14.134161 10.8257528,13.6285399 11.0953761,13.5814478 C11.2070052,13.5643459 11.5776742,13.3172359 11.5900214,13.274853 C11.4799042,13.6746407 11.4715888,13.8003024 11.1843266,14.0674884 C11.3022553,13.9571936 11.0187728,14.4467043 10.9373819,14.5483242 C11.0795011,14.4122526 11.1979337,14.4172097 11.2642056,14.5676568 C11.3481164,14.7599911 12.6077863,14.0379939 12.8083659,13.9286905 C13.241275,13.6924861 13.4363109,13.9445531 13.5040947,13.6265571 C13.5721305,13.3058347 14.3311075,13.0178289 14.3583218,12.5176606 C14.3784805,12.1421626 14.725211,12.454458 14.8728739,12.3753927 C15.0618622,12.2732771 14.9731637,11.9979118 15.1626559,11.8848906 C14.6372685,12.0256714 15.5557515,11.3096227 15.6958549,11.2417108 C15.9924405,11.0979558 16.4565957,11.1713205 16.6886733,10.8686914 C16.6438201,10.9274326 16.4543278,10.8297784 16.4545798,10.7041166 C16.4543278,10.9264412 15.0081895,11.3321774 14.7680484,11.2208912 C14.387552,11.0439238 16.2187224,9.27028423 16.2063752,9.19022755 C16.1332997,8.753014 15.0235605,10.1018327 14.9598085,10.1828808 C14.6329848,10.6015053 14.1582462,10.7051081 14.0136072,11.3505185 C13.8881189,11.9183509 13.6565453,12.168435 13.2359834,12.6512536 C13.0492629,12.8629205 12.7378103,13.7100837 12.5979589,13.3539183 C12.6967368,13.6054895 12.1673176,13.8954781 11.9644702,13.9120843 C12.1159128,13.8994438 12.1857125,12.5905295 12.1270001,12.5855724 C11.9805972,12.5739233 10.9897946,13.5375777 10.8653144,13.2535376 C10.7841754,13.0703739 11.1046995,13.0475713 11.0356558,12.8936543 C10.9827391,12.7764196 11.4705808,12.4767648 11.4741086,12.3778712 C11.4761245,12.3102072 11.2168326,12.5585564 11.1714754,12.5332754 C10.9502331,12.4128186 11.6696485,12.0717722 11.6666247,12.0767292 C11.6988787,12.0226972 11.3214061,12.1198557 11.3768426,12.0373205 C11.5383646,11.7919456 11.7689303,11.8040904 11.9707698,11.6400114 C11.8949225,11.7017269 12.1081013,11.4684968 12.209903,11.383483 C12.2887741,11.317554 12.0365377,11.3777824 12.0602243,11.3470486 C12.5672168,10.6889976 13.7656545,10.3442334 14.1637898,9.54614516 C14.1678216,9.53747028 13.9543908,9.55779427 13.9599345,9.55209364 C14.3759607,9.10025673 15.354164,8.68559785 15.5779262,8.16981475 C15.7024065,7.87734764 16.7000126,7.55736879 16.6705304,7.59553822 C16.8832052,7.3164552 17.2768048,7.21285244 17.1424972,7.28572137 C17.2180925,7.2450734 17.8354542,6.86560971 17.8530931,6.904027 C17.8077359,6.95880262 17.7701902,7.0180396 17.7399521,7.08272936 C17.7533073,7.09041282 18.2051153,6.85346489 18.1695855,6.97094744 C18.1058334,7.05992684 18.0199068,7.11569388 17.9118055,7.13948781 C17.983873,7.15510258 17.9957163,7.18558856 17.9473353,7.23144145 C18.145395,7.13081294 20.4490362,6.99374996 19.9226408,7.67435563 C19.4471463,8.29175867 18.1232204,7.6936882 18.3563059,8.36537115 C18.4016631,8.49574208 18.5745244,8.77680794 18.5898954,8.8452155 C18.6559153,9.13916973 19.1057074,8.75499683 18.9991181,8.6821279 C18.9141993,8.66229963 18.8282726,8.65882968 18.742346,8.6714702 C18.6264332,8.62586516 19.7071942,8.45286343 19.70921,8.42188174 C19.7180295,8.29993783 19.0437193,8.308117 19.6845156,7.94327666 C19.9952123,7.76308718 20.0360338,7.5615823 20.4271135,7.68005626 C20.9081517,7.82579411 20.5062366,6.40385867 21.1036916,6.88494228 C21.1634119,6.93253015 20.6440721,7.43294634 21.0608542,7.31348096 C21.2941918,7.24631266 21.3816303,7.09834413 21.5436563,6.93029947 C21.6363865,6.83413232 22.629457,6.25217233 22.7380622,6.27447915 C22.7924909,6.28513685 22.4601235,6.71317982 22.4487842,6.72433322 C22.7728361,6.51340991 23.3944815,5.99514827 23.8001764,6.03083917 C23.7618748,6.02736922 24.4407207,5.93640699 24.3094368,5.86180309 C24.2534963,5.82908643 23.6111881,5.70342472 23.6847675,5.61890668 C23.8195792,5.46300683 24.5775482,5.57900227 24.8292806,5.57032739 C25.387426,5.55074697 25.5985889,5.83503492 26.0045357,5.57900227 C25.9881567,5.57379734 25.370543,5.25654488 25.4302633,5.43871719 C25.2999874,5.04661298 25.6338667,4.76554713 25.7107219,4.4012025 C25.726597,4.32535934 26.692957,4.33750416 26.3013733,4.66194437 C26.2519844,4.7033359 26.8474235,5.5740452 26.8499433,5.57032739 C26.7882071,5.66550313 26.7733401,6.07743563 26.6327328,6.09181113 C26.5407585,6.10122956 26.4296334,6.10395595 26.32254,6.11758789 C26.6213935,6.10841731 26.9477132,6.34734807 27.1911301,5.77381511 C27.2483306,5.63972637 26.9318382,5.03694669 27.5471841,5.33337946 C27.8616606,5.48283511 27.6918231,5.58346363 28.1322918,5.61394961 C27.7560791,5.27389463 27.4937634,5.22457178 26.9744236,5.26051054 C26.8197052,5.27116824 26.7325186,4.77124776 26.5274033,4.64930384 C26.5926673,4.68821684 26.741338,4.42648356 26.8154214,4.31866729 C26.8040821,4.29685619 26.8093738,4.27777147 26.8562429,4.26562665 C26.8499433,4.26711377 26.8320524,4.29338624 26.8154214,4.31866729 C26.8406199,4.36724657 26.983243,4.4331756 27.144765,4.49117332 C27.1314099,4.48373771 27.1057074,4.47456713 27.1092352,4.46961006 C27.5076225,3.93300727 28.322036,4.26513094 28.612826,4.64459463 C28.9550208,4.22448297 27.7890891,4.14145205 27.8750157,3.96646749 C28.0922263,3.52355331 27.7248331,3.91317899 28.3195162,3.74017726 C28.4117425,3.71340908 28.8990803,3.63037816 28.902608,3.63483953 C28.7997984,3.50992137 28.7002646,3.4516758 28.612322,3.41524134 C28.6987527,3.45118009 28.6586872,3.2491795 28.6052665,3.27644339 C28.8973164,3.12971412 29.3193902,3.19564315 29.5988409,3.04222184 C29.5869976,2.99959104 29.5554996,2.97753208 29.5051027,2.97629281 C29.4990551,2.97133574 30.4911176,2.90962023 30.5775482,2.8580667 C30.5667129,2.79833401 30.5223636,2.76983086 30.4452564,2.77181369 C30.5112763,2.67267229 30.6196296,2.65358758 30.7690563,2.71530309 C30.1325438,2.62409301 31.6525135,2.32964307 31.694091,2.5735309 C31.677712,2.49297852 32.9769434,2.36706895 32.9590525,2.673168 C32.9555248,2.72843933 32.7393222,2.63673354 32.7975306,2.69795335 C33.1482928,3.0679986 32.6785939,2.86550231 32.5231196,3.26132432 C32.4543278,3.43606103 33.0994078,3.23207761 33.0747134,3.2167107 C33.0059216,3.22191562 32.9502331,3.19861739 32.9076477,3.14706387 C32.9393978,3.2704949 35.3841502,3.0248721 35.4428625,3.01991503 C35.6280711,3.00430026 37.7961446,3.73447663 37.7843014,3.7751246 C37.7815295,3.69754646 37.7482676,3.63632665 37.6852715,3.59146517 C37.7220612,3.61922476 38.7458738,3.62641251 38.9018521,3.57857678 C39.0391836,3.53668954 38.4885977,3.29775878 38.5097644,3.31089502 C38.6307169,3.38797745 38.5725085,3.21571928 38.5783041,3.18944681 C38.5828399,3.16912283 39.5378607,3.25537584 39.6547814,3.26603354 C39.1190626,3.41821558 40.2156986,3.33270613 40.2386292,3.3381589 C40.757969,3.46431633 41.2843644,3.77611601 41.8631725,3.80536272 C42.1416152,3.81924252 43.6585612,4.29636048 43.7137457,4.1982105 C43.708958,4.20638966 44.6801058,4.32312865 44.7403301,4.31965871 C44.6193776,4.25249041 44.5299231,4.19424484 44.5296712,4.17243374 C44.5941792,4.23563637 44.6682626,4.28471136 44.7521734,4.32015441 C44.7521734,4.32065012 44.7428499,4.31965871 44.7403301,4.31965871 C45.0026458,4.46490085 45.4272395,4.65574803 45.5275293,4.64781672 C45.5779262,4.64409892 44.9290664,4.24381554 44.9172231,4.19969762 C44.9270505,4.23563637 45.1656797,4.3015654 45.4806602,4.37691286 C40.9610684,1.69290747 35.6641048,0.147540984 29.999748,0.147540984 C13.4310193,0.147540984 0,13.3588753 0,29.6557377 C0,45.9526001 13.4310193,59.1639344 29.999748,59.1639344 C37.3909538,59.1639344 44.1527025,56.5299954 49.3816303,52.1709962 C49.3894419,52.1397666 49.4058208,52.1164684 49.4085927,52.0805297 C49.338037,52.1214255 49.2674814,52.1618256 49.1969258,52.2024736 C49.2551342,52.1952858 49.4337911,51.7833533 49.4935114,51.7615422 C49.354416,51.8126 49.2243921,52.172979 49.0714376,52.0879653 C49.0570745,52.080034 49.4773844,51.624975 49.741968,51.3059875 C49.371047,51.6177872 48.6360086,51.9791576 48.6118181,52.0673934 C48.6911931,51.7677386 48.9978581,51.2598868 49.145521,50.9557705 C48.9588006,50.9314809 48.7914829,50.9770859 48.6438201,51.09209 C48.5939272,51.0834151 48.6748142,50.8920722 48.6629709,50.8566292 C48.645836,50.8050756 44.4119945,52.8820878 43.9138213,52.9636316 C43.0525387,53.1049081 43.9014741,52.0901959 44.1710974,51.7813705 C44.3913317,51.5283121 45.129142,49.5420143 44.9794633,49.3296038 C45.0119693,49.3762003 44.9847549,49.5891064 45.0772332,49.5896021 C45.2059972,49.58985 45.4909916,47.7180605 45.9866448,47.5150685 C45.9984881,47.5681091 46.0060476,47.622389 46.0080635,47.6769168 C46.7564571,47.3844497 47.3748268,46.3999756 48.2305657,46.2279653 C49.1253622,46.0472801 49.3123346,44.6548392 50.0337659,44.5140585 C50.0027718,44.5202548 49.9296964,45.0652846 49.9226408,45.0729681 C50.1879803,44.7656297 50.2313217,44.5410745 50.499937,44.35915 C50.5992188,44.291486 51.0845408,43.672348 51.0628701,43.5863429 C50.9615724,43.163257 52.6312209,42.6150051 51.790349,43.6971334 C52.048885,43.4938935 52.2557641,43.6668952 52.3452186,43.384838 C52.3895678,43.2462879 52.4883457,42.7567772 52.6622149,42.7153857 C52.7002646,42.7072065 52.6697745,42.9471287 52.7352904,42.8665763 C52.9570367,42.5924504 53.6532695,41.79808 53.645962,41.7056306 C53.6542774,41.8077462 54.9149553,41.6929901 54.8733779,41.6555642 C55.0190248,41.7859351 54.2003276,42.7401711 54.1718533,42.9496073 C54.1637898,43.0088442 54.6478518,43.9437476 54.6161018,43.9350727 C55.3607156,44.1400475 56.4689429,41.2743655 56.7181555,40.7798978 C56.7063122,40.8022047 56.6979967,40.8183151 56.7231952,40.7692401 C56.7529293,40.7129774 56.7390702,40.7397456 56.7247071,40.767753 C56.9736676,40.2965835 56.5636891,42.1433399 56.5148041,42.1316908 C56.8580068,42.2112517 56.5893915,43.1860595 56.3376591,43.6106325 C56.2333375,43.7853692 56.2179665,43.8884763 56.2308177,43.9744814 C57.0200328,42.5790663 57.6978707,41.1149958 58.2514804,39.5919361 C58.2081391,39.4452068 58.19428,39.2907941 58.2081391,39.1985926 C58.2766788,38.7690625 57.4070808,39.3914226 57.3536601,39.3966275 C57.8959305,40.0130392 56.3295956,39.6697621 56.3893159,39.6400197 C56.5790601,39.5438525 56.5132922,38.5345931 56.3157364,38.3529165 C56.0176389,38.078047 55.2941918,38.0877133 55.548444,37.5166589 C55.3697871,37.5865535 55.3599597,38.0963882 55.2133048,38.1038238 C55.0792491,38.1105158 55.1404813,37.073249 55.5010709,37.2888815 C55.3982613,37.227166 54.7441099,37.1215804 55.0432153,36.8410103 C55.1203225,36.768637 55.6812398,36.2387263 55.8520852,36.4694779 C56.0017639,36.6680085 55.6215195,37.4524648 55.9271765,37.6519869 M17.2546302,16.5502368 C17.2505985,16.5073582 17.8674562,15.6557336 17.9559027,15.6163249 C17.8334383,15.5508915 17.0107093,15.966294 16.8985763,16.0594869 C16.3668893,16.5016575 16.6624669,16.3844228 16.9489732,16.5457754 C17.0008819,16.5747743 16.2151947,17.2836353 16.0849187,17.140376 C15.9574146,17.0038087 15.9753055,16.2577697 16.2033514,16.3829357 C15.7528033,16.1392957 15.1981857,16.8362597 14.9300743,17.2097749 C14.7453698,17.4665511 14.4006552,17.6826794 14.355298,18.0207515 C14.3273277,18.233162 14.4210659,18.5719777 14.4077107,18.6634356 C14.7730881,18.9524328 16.0635001,18.1776428 16.4394608,18.0849456 C16.3411868,18.1092352 17.0555626,18.2403497 17.1795389,18.2291963 C17.5197178,18.1994539 17.9904246,18.2358884 18.2718911,18.0100938 C18.274663,18.0076153 18.2754189,18.0071196 18.2786947,18.0048889 C19.2979715,17.1644177 17.3030112,17.0328075 17.2546302,16.5502368" id="Fill-3" fill="#0F2B3B"></path>
                        </g>
                    </g>
                </g>
            </g>
        </g>
    </g>
</svg>