<svg width="25" height="24" viewBox="0 0 25 24" fill="none" xmlns="http://www.w3.org/2000/svg">
  <path
    d="M0.921875 12C0.921875 5.37258 6.29446 0 12.9219 0C19.5493 0 24.9219 5.37258 24.9219 12C24.9219 18.6274 19.5493 24 12.9219 24C6.29446 24 0.921875 18.6274 0.921875 12Z"
    fill="#222222" />
  <g clip-path="url(#clip0_632_29786)">
    <path fill-rule="evenodd" clip-rule="evenodd"
      d="M12.9899 7.74787C13.361 7.46444 13.8578 7.41924 14.2733 7.63728C14.6908 7.85653 14.9427 8.29646 14.9426 8.76444C14.9426 8.76448 14.9426 8.7644 14.9426 8.76444V15.45C14.9426 15.918 14.6907 16.3578 14.2732 16.5769C13.8578 16.795 13.3611 16.7499 12.99 16.4666L9.6083 14.2072H8.1464C7.45067 14.2072 6.92188 13.6212 6.92188 12.9429V11.2715C6.92188 10.5932 7.45067 10.0073 8.1464 10.0073H9.6083L12.9899 7.74787ZM13.8749 8.39621C13.7564 8.3341 13.6155 8.34605 13.5057 8.43252C13.4969 8.43944 13.4879 8.44602 13.4786 8.45224L9.9764 10.7922C9.90592 10.8393 9.82306 10.8644 9.7383 10.8644H8.1464C7.96294 10.8644 7.77902 11.0268 7.77902 11.2715V12.9429C7.77902 13.1877 7.96294 13.35 8.1464 13.35H9.7383C9.82306 13.35 9.90592 13.3752 9.9764 13.4223L13.4786 15.7622C13.4879 15.7684 13.4969 15.775 13.5056 15.7819C13.6154 15.8683 13.7564 15.8802 13.8748 15.818C13.9966 15.7541 14.0854 15.6151 14.0854 15.45V8.76444C14.0855 8.59934 13.9966 8.4602 13.8749 8.39621Z"
      fill="white" />
    <path fill-rule="evenodd" clip-rule="evenodd"
      d="M17.7207 9.87489C17.923 9.75197 18.1866 9.81629 18.3095 10.0186C19.1257 11.3615 19.1257 13.0764 18.3095 14.4193C18.1866 14.6216 17.923 14.6859 17.7207 14.563C17.5184 14.4401 17.4541 14.1765 17.577 13.9742C18.227 12.9047 18.227 11.5332 17.577 10.4637C17.4541 10.2614 17.5184 9.99781 17.7207 9.87489Z"
      class="soundMuteIcon" />
    <path fill-rule="evenodd" clip-rule="evenodd"
      d="M16.1419 10.6736C16.3291 10.5288 16.5983 10.5631 16.7431 10.7503C17.4158 11.6197 17.4158 12.8596 16.7431 13.729C16.5983 13.9162 16.3291 13.9505 16.1419 13.8057C15.9547 13.6608 15.9204 13.3917 16.0652 13.2045C16.4989 12.6439 16.4989 11.8354 16.0652 11.2748C15.9204 11.0876 15.9547 10.8185 16.1419 10.6736Z"
      class="soundMuteIcon" />
    <path fill-rule="evenodd" clip-rule="evenodd"
      d="M9.73814 10.0068C9.97484 10.0068 10.1667 10.1987 10.1667 10.4354V13.7782C10.1667 14.0149 9.97484 14.2068 9.73814 14.2068C9.50145 14.2068 9.30957 14.0149 9.30957 13.7782V10.4354C9.30957 10.1987 9.50145 10.0068 9.73814 10.0068Z"
      fill="white" />
  </g>
  <defs>
    <clipPath id="clip0_632_29786">
      <rect width="12" height="12" fill="white" transform="translate(6.92188 6)" />
    </clipPath>
  </defs>
</svg>
