<svg width="24" height="24" viewBox="0 0 24 24" fill="none" xmlns="http://www.w3.org/2000/svg">
<path d="M0 12C0 5.37258 5.37258 0 12 0C18.6274 0 24 5.37258 24 12C24 18.6274 18.6274 24 12 24C5.37258 24 0 18.6274 0 12Z" fill="#0A212E"/>
<line x1="6.70711" y1="7" x2="17" y2="17.2929" stroke="white" stroke-linecap="round"/>
<path fill-rule="evenodd" clip-rule="evenodd" d="M12.068 7.74785C12.4391 7.46442 12.9359 7.41923 13.3514 7.63727C13.7689 7.85652 14.0208 8.29644 14.0207 8.76443C14.0207 8.76447 14.0207 8.76439 14.0207 8.76443V15.45C14.0207 15.918 13.7689 16.3577 13.3514 16.5769C12.936 16.795 12.4392 16.7499 12.0681 16.4666L8.68643 14.2072H7.22453C6.5288 14.2072 6 13.6212 6 12.9429V11.2715C6 10.5932 6.5288 10.0072 7.22453 10.0072H8.68643L12.068 7.74785ZM12.953 8.39619C12.8346 8.33409 12.6936 8.34604 12.5839 8.4325C12.5751 8.43943 12.566 8.446 12.5567 8.45222L9.05452 10.7922C8.98405 10.8393 8.90119 10.8644 8.81643 10.8644H7.22453C7.04107 10.8644 6.85715 11.0267 6.85715 11.2715V12.9429C6.85715 13.1877 7.04107 13.35 7.22453 13.35H8.81643C8.90119 13.35 8.98405 13.3752 9.05452 13.4223L12.5567 15.7622C12.566 15.7684 12.575 15.7749 12.5838 15.7818C12.6935 15.8683 12.8345 15.8802 12.9529 15.818C13.0747 15.7541 13.1636 15.6151 13.1636 15.45V8.76443C13.1636 8.59933 13.0747 8.46019 12.953 8.39619Z" fill="white"/>
<path fill-rule="evenodd" clip-rule="evenodd" d="M16.7991 9.87487C17.0014 9.75195 17.265 9.81628 17.388 10.0186C18.2041 11.3615 18.2041 13.0763 17.388 14.4193C17.265 14.6216 17.0014 14.6859 16.7991 14.563C16.5969 14.4401 16.5325 14.1765 16.6555 13.9742C17.3054 12.9047 17.3054 11.5332 16.6555 10.4637C16.5325 10.2614 16.5969 9.99779 16.7991 9.87487Z" fill="white"/>
<path fill-rule="evenodd" clip-rule="evenodd" d="M15.2197 10.6736C15.4069 10.5288 15.676 10.5631 15.8209 10.7503C16.4936 11.6197 16.4936 12.8596 15.8209 13.729C15.676 13.9162 15.4069 13.9505 15.2197 13.8057C15.0325 13.6608 14.9981 13.3917 15.143 13.2045C15.5767 12.6439 15.5767 11.8354 15.143 11.2748C14.9981 11.0876 15.0325 10.8185 15.2197 10.6736Z" fill="white"/>
<path fill-rule="evenodd" clip-rule="evenodd" d="M8.81645 10.007C9.05315 10.007 9.24502 10.1989 9.24502 10.4356V13.7784C9.24502 14.0151 9.05315 14.207 8.81645 14.207C8.57976 14.207 8.38788 14.0151 8.38788 13.7784V10.4356C8.38788 10.1989 8.57976 10.007 8.81645 10.007Z" fill="white"/>
</svg>
