<?xml version="1.0" encoding="UTF-8"?>
<!DOCTYPE svg PUBLIC "-//W3C//DTD SVG 1.1//EN" "http://www.w3.org/Graphics/SVG/1.1/DTD/svg11.dtd">
<!-- Creator: CorelDRAW 2020 (64-Bit) -->
<svg xmlns="http://www.w3.org/2000/svg" xml:space="preserve" width="1000mm" height="1000mm" version="1.1" style="shape-rendering:geometricPrecision; text-rendering:geometricPrecision; image-rendering:optimizeQuality; fill-rule:evenodd; clip-rule:evenodd"
viewBox="0 0 99991.74 99991.74"
 xmlns:xlink="http://www.w3.org/1999/xlink"
 xmlns:xodm="http://www.corel.com/coreldraw/odm/2003">
 <defs>
  <style type="text/css">
   <![CDATA[
    .fil1 {fill:black}
    .fil0 {fill:white}
   ]]>
  </style>
 </defs>
 <g id="Layer_x0020_1">
  <metadata id="CorelCorpID_0Corel-Layer"/>
  <g id="_1868255882432">
   <rect class="fil0" width="99991.74" height="99991.74"/>
   <path class="fil1" d="M19839.15 34882.2c-1337.82,1889.49 -2424.46,3943.05 -3259.87,6160.76 -1202.59,1565.8 -1221.44,2438.73 -56.53,2618.85 564.49,512.07 1368.37,373.89 2411.64,-414.48 1211.91,-273.53 2110,-606.32 2694.27,-998.33 -1663.72,-1284.88 -2518.53,-4133.9 -1478.94,-5963.2 1584.77,536.3 2513.02,-56.61 2618.9,-1045.66 -694.38,-382.35 -1827.97,-131.16 -2458.69,414.49 1818.48,-2788.74 4268.75,-3583.3 5993.83,-3614.83 2021.76,2035.99 3496.91,5005.72 2390.44,6610.57 4773.94,575.16 9507.1,2897.12 11975.02,5094.16 -48.29,-548.77 73.1,-1251.48 251.31,-1787.64 -564.4,3014.24 1316.67,5106.9 2733.49,6339.96 -1318.94,1618.23 -2650.31,3200.87 -3994.11,4747.96 -496.86,582.47 -908.72,1151.87 -1236.05,1708.2 633.24,563.81 1141.16,1297.66 1596.78,2012.67 307.62,-529.2 629.61,-963.89 965.81,-1304.06 -353.17,-616.62 -728.85,-1201.27 -1183.15,-1645.53 525.31,402.22 980.89,914.62 1395.45,1445.02 245.93,-216.19 499.25,-383.55 760,-502.03 238.37,-170.95 469.81,-337.1 694.38,-498.48 -338.77,-584.78 -700.44,-1135.82 -1133.51,-1559.35 509.71,390.3 953.84,884.25 1358.45,1397.72 424.82,-305.4 823.92,-592.86 1197.21,-862.37 -440.28,-793.24 -899.07,-1568.24 -1475.91,-2132.43 683.74,523.48 1257.42,1220.84 1775.88,1915.72 461.44,-333.55 880.37,-637.51 1256.78,-911.8 -532.45,-967.13 -1065.36,-1958.45 -1768.41,-2646.03 838.92,642.38 1517.18,1538.59 2129.95,2382.12 277.21,-202.73 527.45,-386.63 750.73,-551.76 -694.71,-1552.34 -1636.72,-3009.36 -2826.08,-4371.07 1962.56,1712.44 3049.11,3690.76 3655.13,5426.14 1226.82,3338.9 2080.94,5461.6 2562.42,6368.1 281.13,1208.57 595.12,2075.26 942.05,2600.02 662.12,2457.83 1084.63,4445.41 1267.5,5962.81 348.55,2893.42 -1479.33,3913.32 -1363.59,4852.34 1185.5,-353.68 2188.06,-766.37 3063.64,-1101.68 -356.03,-1085.27 24.18,-1282.32 284.77,-2046.59 158.98,-466.22 142.57,-1024.74 -49.4,-1675.48 -1179.6,-3710.07 -1682.02,-6197.04 -1507.23,-7460.89 11.92,-559.19 -12.39,-1124.46 -72.97,-1695.82 -855.54,36.49 -1704.92,94.42 -2424.5,343.34 735.26,-358.77 1573.62,-546.88 2383.31,-690.61 -63.49,-484.47 -152.88,-973.33 -268.06,-1466.51 -858.75,94.67 -1710.95,209.31 -2418.22,508.95 710.35,-408.21 1535.25,-652.56 2334.39,-850.88 -31.45,-122.67 -64.51,-245.59 -99.16,-368.77 -125.19,-448.87 -235.85,-877.54 -332.02,-1286.24 -808.24,91.94 -1603.58,209.99 -2270.13,492.41 669.42,-384.66 1440.57,-623.92 2196,-816.18 -109.41,-492.37 -196.7,-953.98 -261.78,-1384.91 -1052.45,113.3 -2123.62,221.44 -2991.46,589.05 889.93,-511.34 1947.47,-783.29 2932.94,-1016.48 -66.99,-549.02 -94.17,-1042.93 -81.65,-1481.9 -1323.25,169.58 -2763.95,226.36 -3879.05,698.73 1195.76,-687.02 2685.04,-954.91 3920.54,-1261.43 21.58,-173.17 51.02,-335.43 88.35,-486.77 127.8,-472.76 237.73,-965.77 301.44,-1959.44 211.66,1054.25 13.8,1698 -9.45,2100.78 4199.79,2561.78 9118.61,3052.35 13082.42,-41.24 877.97,-685.18 1682.66,-1246.17 2413.99,-1682.78 -363.29,403.54 -696.17,723.85 -998.54,960.85 773.21,3625.98 1350.98,6483.46 1733.29,8572.44 429.77,1521.92 354.41,2966.34 -226.06,4333.26 -2080.52,4405.47 -3499.9,7093.41 -4258.11,8063.84 -401.83,421.96 -2047.96,1886.75 -2111.24,2353.15 1677.87,-143.39 2660.05,22.26 3224.32,-209.87 -16.67,-279.3 3.29,-530.78 59.78,-754.36 184.57,-397.73 408.46,-761.97 598.15,-861.39 493.4,-112.2 914.2,-633.45 1262.37,-1563.79 1027.56,-2354.87 2308.63,-4684.85 3843.25,-6989.98 699.45,-1075.87 1296.07,-1848.3 1789.89,-2317.39 343.47,-345.77 437.72,-801.1 282.72,-1365.93 -22.39,-89.04 -44.22,-176.76 -65.54,-263.49 -724.32,131.08 -1419.8,301.13 -2018.09,584.99 594.74,-376.07 1266.22,-651.78 1946.87,-879.03 -148.08,-621.23 -265.88,-1183.07 -348.25,-1699.8 -1039.55,160.91 -2065.69,350.27 -2910.97,751.29 859.51,-543.43 1868.39,-891.6 2849.53,-1180.5 -83.83,-667.24 -99.81,-1258.74 -35.3,-1809.72 -1424.76,225.59 -2931.14,387.26 -4101.39,942.52 1268.57,-802.08 2852.65,-1191.7 4216.62,-1579.91 40.38,-162.57 88.95,-322.48 146.17,-480.96 -1620.84,-1616.69 -2606.89,-2769.12 -2958.15,-3457.3 2481.88,2543.54 4278.07,4440.16 5388.49,5689.93 2078.64,2118.79 3510.54,3902.38 4295.71,5350.77 2187.38,5291.98 3237.87,8891.05 3151.91,10797.93 -77.03,746.5 -356.85,2424.37 -36.96,2925.46 868.52,-634.35 1572.64,-1429.38 2289.82,-2314.31 -214.52,-224.57 -372.43,-452.12 -473.86,-682.58 -84.94,-522.54 -64.21,-1007.13 62.16,-1453.82 214.31,-758.38 46.66,-1258.19 -188.76,-2018.99 -1851.55,-4418.51 -2642.91,-7922.85 -2373.99,-10513.12 79.12,-678.44 -121.86,-1143.21 -602.9,-1394.26 -1285.31,-1356.28 -2176.57,-2642.82 -2674.15,-3859.73 -1471.34,171.76 -3112.42,163.98 -4377.23,662.33 1280.91,-693.47 2860.94,-935.81 4173.13,-1226.43 -176.33,-562.35 -265.37,-1109.2 -267.37,-1640.66 -1460.88,273.45 -3107.08,375.09 -4340.31,960.26 1322.22,-836.1 3023.85,-1176.27 4362.27,-1590.55 10.38,-622.46 -2.61,-1224.04 -38.76,-1804.89 -1575.37,361.59 -3471.35,411.24 -4850.75,1065.7 1470.74,-929.96 3410.52,-1246.56 4798.03,-1733.68 -47.35,-492.54 -112.29,-969.31 -195.04,-1430.23 -1799.6,579.01 -4220.72,532.36 -5915.35,1336.37 1807.98,-1143.17 4276.74,-1422.59 5757.9,-2103.04 -121.94,-525.44 -268.66,-1028.62 -440.41,-1509.54 -1884.45,801.06 -4692.92,657.85 -6604.63,1564.87 2017.96,-1275.91 4834.47,-1508.18 6292.95,-2351.15 -309.07,-706.17 -677.92,-1359.1 -1106.5,-1958.58 1768.87,1275.35 3006.07,3471.7 3711.77,6588.49 -701.89,2155.15 771.24,3266.79 797.21,3844.35 754.28,-902.67 419.95,-2899.39 -612.39,-3793.26 -606.18,-4732.1 -2482.73,-8289.43 -5630.1,-10671.37 -2804.93,-2015.92 -9713.21,-3749.25 -20724.94,-5200.04 -2226.21,-674.03 -4744.62,-874.98 -7555.19,-602.81 -5675.36,357.4 -9493.78,495.53 -11455.17,414.44 -3316.06,-113.05 -4983.51,-179.02 -4983.51,-179.02 -530.61,691.5 -1153.28,1051.64 -1576.23,1174.69 1918.59,-939.02 2315.86,-3959.37 1303.47,-5573.67 -602.77,493.56 -1023.53,939.44 -1262.24,1337.69 355.09,1132.7 474.42,2043.35 357.99,2731.91 -191.62,-1795.8 -665.75,-3343.87 -1582.59,-4088.49 -1410.62,1033.53 -1850.27,2685.26 -1789.94,4578.38 -2353.07,1677.1 -3898.02,3127.84 -4484.17,4314.5zm18582.6 19874.45c-753.63,1282.4 -1056.98,2495.37 -909.66,3638.93 -316.64,2802.02 -555.3,4792.81 -715.95,5972.3 -123.82,1088.47 -61.05,2017.92 188.37,2788.39 37.56,2309.83 163.22,3590.99 376.93,3843.5 796.48,-728.34 1290.3,-1631.22 1959.43,-2600.02 -694.46,-554.88 -933.12,-1195.46 -715.95,-1921.79 181.29,-312.79 262.94,-865.45 244.95,-1657.92 24.57,-3475.76 256.95,-5856 697.15,-7140.63 83.99,-180.56 169.28,-353.21 255.62,-518.17 -405.89,-872.63 -814.6,-1759.26 -1380.89,-2404.59z"/>
  </g>
 </g>
</svg>
