<svg width="24" height="14" xmlns="http://www.w3.org/2000/svg"><path d="M1.312 6.753a3.936 3.936 0 0 0 7.871 0c0-1.28-1.272-3.1-3.935-5.313-2.663 2.214-3.936 4.033-3.936 5.313zM5.247 12A5.247 5.247 0 0 1 0 6.753C0 4.925 1.565 2.74 4.696.196a.875.875 0 0 1 1.103 0c3.13 2.544 4.695 4.73 4.695 6.557A5.247 5.247 0 0 1 5.247 12zm.004-8.493l-.004 5.87a2.624 2.624 0 0 0 2.624-2.625c0-.855-.685-1.867-2.056-3.036a.873.873 0 0 0-.564-.209z" transform="matrix(1.1221 0 0 1.122 .112 .263)" fill="#fff" stroke="#fff" stroke-width=".2"/><path d="M1.312 6.753a3.936 3.936 0 0 0 7.871 0c0-1.28-1.272-3.1-3.935-5.313-2.663 2.214-3.936 4.033-3.936 5.313zM5.247 12A5.247 5.247 0 0 1 0 6.753C0 4.925 1.565 2.74 4.696.196a.875.875 0 0 1 1.103 0c3.13 2.544 4.695 4.73 4.695 6.557A5.247 5.247 0 0 1 5.247 12zm.004-8.493l-.004 5.87a2.624 2.624 0 0 0 2.624-2.625c0-.855-.685-1.867-2.056-3.036a.873.873 0 0 0-.564-.209z" transform="matrix(1.1221 0 0 1.1221 12.163 .286)" fill="#18bab4" stroke="#18bab4" stroke-width=".2"/><g><path fill="#fff" fill-rule="evenodd" d="M-8.372-9.14h12.64v8.124h-12.64z"/></g></svg>