<svg xmlns="http://www.w3.org/2000/svg" viewBox="-10 -5 55 55"><defs><filter id="a"><feColorMatrix in="SourceGraphic" values="0 0 0 0 0.094118 0 0 0 0 0.729412 0 0 0 0 0.705882 0 0 0 1.000000 0"/></filter></defs><g fill="none" fill-rule="evenodd" filter="url(#a)"><g fill="#18BAB4" fill-rule="nonzero"><path d="M11.853 13.711c-2.279 2.279-.607 7.064 3.236 10.907 3.842 3.842 8.627 5.514 10.906 3.235 2.28-2.279.607-7.064-3.235-10.906-3.843-3.843-8.628-5.515-10.907-3.236zm1.768 1.768c1.016-1.016 4.442.18 7.434 3.172s4.189 6.418 3.172 7.434c-1.016 1.017-4.442-.18-7.434-3.172-2.991-2.992-4.188-6.418-3.172-7.434z"/><path d="M11.238 15.548c.33-.6 1.066-.81 1.644-.467.53.313.744.98.522 1.552l-.071.153-10.42 18.94a1.284 1.284 0 00.242 1.409c.313.324.767.441 1.122.35l.146-.051 18.355-10.845a1.183 1.183 0 011.644.467 1.28 1.28 0 01-.313 1.611l-.137.094L5.525 39.655c-1.376.66-3.003.359-4.074-.753C.446 37.86.128 36.312.655 34.87l.117-.287 10.466-19.035zM24.89 11.95a1.175 1.175 0 011.704-.002c.34.352.531.83.531 1.328 0 .498-.191.976-.531 1.327a1.175 1.175 0 01-1.705-.002 1.28 1.28 0 01-.325-1.144l.05-.182a1.296 1.296 0 01.159-1.184l.116-.14z"/><path d="M24.039 11.949a1.763 1.763 0 012.555 0c.471.488.472 1.28.001 1.768-.299.31-.717.424-1.103.34l-.177-.055a1.17 1.17 0 01-1.142-.164l-.135-.121c-.47-.489-.47-1.28 0-1.768z"/><path d="M24.035 11.946a1.175 1.175 0 011.705-.007c.343.354.439.869.285 1.312l-.01.017.01.02c.134.387.078.83-.168 1.171l-.117.14a1.175 1.175 0 01-1.705-.007c-.7-.732-.7-1.913 0-2.646z"/><path d="M24.038 12.828c.3-.31.717-.424 1.103-.34l.176.054a1.178 1.178 0 011.143.165l.135.121c.47.489.47 1.28 0 1.768a1.763 1.763 0 01-2.556 0 1.283 1.283 0 01-.001-1.768zM31.708 4.875c.47-.49 1.233-.491 1.704-.004.34.352.532.83.532 1.327 0 .499-.191.976-.532 1.328a1.175 1.175 0 01-1.704-.004 1.28 1.28 0 01-.325-1.145l.05-.179c-.14-.397-.086-.84.158-1.183l.117-.14z"/><path d="M32.136 4.323c.48 0 .941.199 1.28.552.47.489.468 1.28-.004 1.767-.3.31-.718.422-1.103.337l-.173-.054c-.383.147-.81.092-1.141-.162l-.136-.12a1.283 1.283 0 01-.003-1.768c.339-.353.8-.552 1.28-.552z"/><path d="M30.86 4.871a1.175 1.175 0 011.704.004c.3.31.407.745.325 1.144l-.052.18c.142.396.088.84-.156 1.183l-.117.14c-.47.49-1.233.49-1.705.004a1.909 1.909 0 01-.531-1.328c0-.498.191-.975.531-1.327z"/><path d="M30.857 5.757c.3-.311.717-.424 1.103-.34l.176.053a1.178 1.178 0 011.144.166l.135.12c.47.49.47 1.28-.001 1.768a1.763 1.763 0 01-2.556 0 1.283 1.283 0 010-1.767zM31.708 22.55a1.175 1.175 0 011.705-.002c.34.352.531.83.531 1.328 0 .498-.19.976-.53 1.327a1.175 1.175 0 01-1.706-.002 1.28 1.28 0 01-.325-1.144l.05-.182a1.296 1.296 0 01.159-1.184l.116-.14z"/><path d="M30.858 22.549a1.763 1.763 0 012.556 0c.47.488.471 1.28 0 1.768-.299.31-.717.424-1.102.34l-.176-.055c-.386.147-.814.09-1.144-.164l-.135-.121c-.47-.489-.47-1.28.001-1.768z"/><path d="M30.859 22.548a1.175 1.175 0 011.704.003c.3.31.408.744.326 1.144l-.052.18c.142.4.088.843-.157 1.186l-.117.14c-.47.489-1.233.49-1.704.002a1.91 1.91 0 01-.531-1.327c0-.498.19-.976.53-1.328z"/><path d="M30.857 23.435c.3-.31.717-.424 1.103-.34l.176.053a1.178 1.178 0 011.144.166l.135.121c.47.488.47 1.28-.001 1.768a1.763 1.763 0 01-2.556 0 1.283 1.283 0 010-1.768zM12.962 6.636a1.175 1.175 0 011.704.007c.7.732.7 1.913 0 2.646a1.175 1.175 0 01-1.704.007 1.284 1.284 0 01-.285-1.312l.007-.019-.007-.017a1.29 1.29 0 01.168-1.172l.117-.14z"/><path d="M12.107 6.639a1.763 1.763 0 012.555 0c.472.488.472 1.28.002 1.768-.3.31-.718.424-1.104.34l-.175-.055c-.387.147-.814.09-1.144-.164l-.135-.121c-.47-.489-.47-1.28.001-1.768z"/><path d="M12.108 6.638a1.175 1.175 0 011.704.003c.3.31.408.744.326 1.144l-.052.18c.141.4.087.843-.157 1.186l-.117.14c-.47.489-1.233.49-1.704.002a1.91 1.91 0 01-.532-1.327c0-.498.192-.976.532-1.328z"/><path d="M12.106 7.525c.3-.31.717-.424 1.103-.34l.176.053a1.178 1.178 0 011.143.166l.136.121c.47.488.47 1.28-.002 1.768a1.763 1.763 0 01-2.555 0 1.283 1.283 0 01-.001-1.768zM20.922.008c.662-.077 1.258.417 1.332 1.103.358 3.32.051 6.682-.9 9.875-.196.66-.871 1.029-1.507.825-.636-.204-.993-.904-.796-1.563a22.58 22.58 0 00.807-8.86c-.074-.685.403-1.304 1.064-1.38zM27.258 2.32c.599.125 1.004.689.967 1.303l-.021.169-.852 4.418c-.13.677-.765 1.116-1.418.98-.599-.123-1.004-.687-.967-1.301l.021-.17.852-4.417c.12-.62.663-1.042 1.256-1.003l.162.022zM28.371 18.262a22.646 22.646 0 019.522-.933c.662.077 1.138.695 1.065 1.381-.074.687-.67 1.18-1.332 1.104a20.317 20.317 0 00-8.543.837c-.636.204-1.311-.166-1.508-.825-.196-.66.16-1.36.796-1.564zM35.309 11.16c.652-.136 1.287.303 1.418.98.12.62-.226 1.226-.788 1.426l-.158.045-4.26.883c-.653.135-1.288-.304-1.419-.98-.12-.621.226-1.226.788-1.427l.158-.044 4.26-.884z"/></g></g></svg>