<?xml version="1.0" encoding="UTF-8"?>
<svg width="500px" height="124px" viewBox="0 0 500 124" version="1.1" xmlns="http://www.w3.org/2000/svg" xmlns:xlink="http://www.w3.org/1999/xlink">
    <title>half-earth_project_identity_horz</title>
    <g id="UI-KIT" stroke="none" stroke-width="1" fill="none" fill-rule="evenodd">
        <g id="half-earth_project_identity_horz" transform="translate(0.155457, 0.240165)">
            <path d="M76.1871827,42.5168147 C75.6253173,43.3163071 74.7151015,43.795368 73.7519036,43.795368 L38.5555203,43.795368 C37.5615482,43.795368 36.633566,43.294099 36.0745558,42.4597081 C35.5409264,41.6602157 35.4368655,40.6671954 35.7934645,39.8042513 C38.9958756,32.0856599 46.1192893,27.8362944 55.8505711,27.8362944 C66.535533,27.8362944 73.6925761,31.9977792 76.5504442,39.8708756 C76.8680203,40.7465102 76.732868,41.7363579 76.1871827,42.5168147 Z M57.8442259,113.605013 C78.8413706,113.605013 93.3810279,107.80552 103.599937,95.3562817 C104.565673,94.1824239 104.422589,92.4343274 103.271891,91.3778553 L85.8876904,75.400698 C85.3461294,74.8994289 84.6408629,74.6234137 83.9022843,74.6234137 C82.9755711,74.6234137 82.1342005,75.0485406 81.5951777,75.7877538 C76.5234772,82.7388959 68.0888325,86.5682107 57.8442259,86.5682107 C48.1100888,86.5682107 36.2960025,79.1284898 34.2255711,68.0561548 C34.0701142,67.2281091 34.2969543,66.3715102 34.846764,65.7084391 C35.4194162,65.0199873 36.2553934,64.6265863 37.1427665,64.6265863 L108.988896,64.6265863 C110.607234,64.6265863 111.922589,63.3099619 111.922589,61.6919416 L111.922589,57.3105964 C111.922589,23.5088832 89.3883249,0.797906091 55.8505711,0.797906091 C22.4451142,0.797906091 0,23.5088832 0,57.3105964 C0,90.9812817 23.2461929,113.605013 57.8442259,113.605013 L57.8442259,113.605013 Z" id="Fill-3" fill="#1E67A3"></path>
            <path d="M34.2176396,68.0117386 C35.3261421,73.9413071 39.1640228,78.8239213 44.044099,82.0853426 L43.7189086,82.1741751 C42.5672589,82.4216371 41.3540609,82.9578046 40.9838198,83.9635152 C40.6135787,84.9723985 40.0380711,87.3359772 38.4749365,89.0237944 C36.9121193,90.7084391 37.0767766,91.1811548 36.8914975,91.9838198 C36.7065355,92.7864848 36.089467,92.9102157 36.3156726,93.3829315 C36.5418782,93.8556472 37.2823604,94.3093274 36.5831218,94.9850888 C35.8838832,95.6640228 34.876269,97.044099 35.4314721,98.0910533 C35.9866751,99.1411802 37.0561548,100.311865 35.8632614,100.702094 C34.6706853,101.095495 29.6529188,99.7788706 29.1782995,97.2090736 C28.6500635,94.3505711 28.1085025,93.3638959 28.0079315,93.2369924 C27.2471447,92.2915609 26.3217005,87.5009518 26.3217005,86.3080584 C26.3217005,85.115165 25.6430838,84.6424492 25.3140863,83.8207487 C24.9850888,82.9990482 25.7664975,81.9076777 25.7664975,81.1050127 C25.7664975,80.3023477 25.8899112,76.6221447 25.4375,75.8004442 C24.9850888,74.9787437 23.8128173,73.0847081 23.8128173,72.098033 C23.8128173,71.1113579 21.6329315,70.9273477 21.0983503,70.3499365 C20.563769,69.775698 17.5203046,66.688769 18.1782995,64.7788706 C18.8362944,62.8657995 18.6307107,64.0777284 17.9314721,62.7008249 C17.2322335,61.3239213 16.8004442,57.1265863 17.7052665,56.0986675 C18.6100888,55.0707487 18.901967,54.3251904 19.0418782,53.5923223 C19.2065355,52.7262056 19.3502538,50.6291244 17.6437183,50.7528553 C16.6570431,50.8258249 15.7928299,49.8264594 15.6900381,49.0872462 C15.5872462,48.348033 15.7312817,46.990165 15.3610406,46.6824239 C14.9907995,46.3715102 14.2300127,45.5307741 14.106599,45.0358503 C13.9831853,44.544099 13.6954315,43.7001904 13.4073604,43.5130076 C13.1196066,43.3289975 12.6053299,42.5485406 12.2763325,41.8886421 C11.947335,41.2319162 12.2147843,40.4451142 11.6389594,40.2325508 C11.0631345,40.0199873 9.4590736,39.6075508 8.63642132,38.5574239 C7.81408629,37.5104695 7.56725888,37.0567893 7.36167513,36.7268401 C7.15577411,36.4000635 7.01205584,36.1938452 7.11484772,35.3708756 C7.21763959,34.5485406 7.46446701,33.2734772 7.46446701,32.4508249 C7.46446701,31.6284898 7.69067259,30.5177665 7.99904822,30.0038071 C8.30742386,29.4895305 9.0501269,27.0720178 7.8572335,26.2201777 C16.2490482,11.9673223 30.7788706,2.78458122 49.3461294,1.09454315 L49.4355964,1.17290609 C50.0320431,1.68686548 49.1478426,2.48889594 49.0038071,2.77696701 C48.8597716,3.06472081 49.1671954,3.18813452 49.3220178,3.37309645 C49.4768401,3.55837563 49.5047589,4.6072335 48.9663706,4.81281726 C48.4279822,5.01840102 48.6954315,6.04663706 48.3045685,6.4784264 C47.9140228,6.91021574 46.1659264,7.2392132 45.651967,6.72525381 C45.1376904,6.21097716 44.3153553,5.3680203 43.6367386,5.47081218 C42.9581218,5.57360406 43.0402919,5.82043147 42.1560914,6.0053934 C41.2718909,6.19067259 40.2845812,5.32677665 39.4622462,5.8819797 C38.6395939,6.43718274 36.6449873,8.41148477 35.740165,8.71986041 C34.8353426,9.02823604 33.9508249,11.2081218 34.4651015,12.0513959 C34.9790609,12.8943528 36.5847081,14.6440355 38.3721447,12.9562183 C39.8527919,11.5577411 39.0885152,10.6002538 40.1611675,10.5913706 C40.4590736,10.5888325 41.9321066,10.1811548 42.1687817,9.70780457 C42.4054569,9.23413706 43.6284898,7.53775381 44.2991751,8.37944162 C44.9698604,9.22112944 45.3642132,9.53680203 45.8902284,9.33946701 C46.4162437,9.14213198 47.2185914,9.57614213 46.8239213,10.3521574 C46.4295685,11.1278553 45.9692259,11.6015228 46.8372462,12.4825508 C47.7049492,13.3635787 48.4254442,14.7569797 47.8366117,15.7569797 C47.1395939,16.9406726 46.0291878,16.6982868 43.615165,16.4933376 C42.2211294,16.375 42.2750635,18.590736 42.2607868,18.8080584 C42.2344543,19.2024112 40.2750635,19.3864213 37.4606599,19.5574239 C34.6465736,19.7284264 34.1072335,20.8201142 33.2788706,21.464467 C32.4505076,22.1088198 31.6611675,22.5821701 30.8984772,22.634835 C30.1357868,22.6875 30.4121193,24.3312183 29.3074239,25.1465736 C28.2027284,25.9619289 26.1643401,26.7772843 25.8486675,27.4873096 C25.5329949,28.197335 26.125,29.3940355 25.7173223,30.3540609 C25.3096447,31.3140863 25.1253173,33.0631345 23.8499365,32.8397843 C22.5742386,32.6161168 22.5348985,28.9733503 21.232868,28.0789975 C19.9308376,27.1849619 19.0631345,27.8819797 18.589467,27.9343274 C18.1161168,27.9869924 16.4854061,27.6713198 15.9463832,27.8423223 C15.4070431,28.0133249 14.5523477,28.5130076 13.7896574,29.4863579 C13.026967,30.4593909 11.856599,32.1487944 12.2642766,34.4930203 C12.6719543,36.8378807 14.6443528,37.6659264 15.1967005,37.1932107 C15.7490482,36.7204949 15.9593909,38.1132614 15.9067259,38.4432107 C15.8543782,38.7699873 14.6706853,40.0199873 14.7363579,41.0574239 C14.8023477,42.098033 16.6827411,42.4787437 16.9720812,43.348033 C17.2614213,44.2141497 17.0114213,45.8194797 17.4980964,46.3588198 C17.9847716,46.8981599 19.0983503,49.2871193 20.1678299,49.1189721 C22.5348985,48.7509518 23.1583122,45.8385152 24.4942893,46.0415609 C25.4409898,46.1875 28.8864213,47.7801396 29.544099,47.7928299 C30.2014594,47.8055203 30.8064721,47.5961294 31.4244924,47.6722716 C32.0428299,47.7515863 33.6865482,49.1855964 34.0415609,49.8708756 C34.3965736,50.5529822 38.5126904,51.6443528 38.867703,52.3010787 C39.223033,52.9609772 40.1697335,52.5644036 40.5510787,52.7642766 C40.9324239,52.9609772 43.2864848,57.6944797 43.8388325,58.4051396 C44.3911802,59.1157995 45.4958756,58.4844543 46.061231,58.7065355 C46.6265863,58.9317893 47.6919416,60.6386421 48.8886421,61.4825508 C50.0853426,62.3232868 51.4660533,62.0345812 52.5314086,62.0599619 C53.5964467,62.0853426 55.4375,63.4463832 55.4375,64.5885152 L55.4394036,64.6265863 L37.0977157,64.6265863 C35.1817893,64.6265863 33.991434,66.4603426 34.1878173,67.7801396 L34.2176396,68.0117386 Z M111.870876,57.3105964 C111.870876,57.2788706 111.869289,57.2439721 111.869289,57.2090736 L111.869289,56.8442259 L111.864213,56.8569162 C111.752855,33.8527919 101.270305,16.1573604 83.9168782,7.22652284 L83.5491751,7.25983503 C83.0555203,7.29060914 80.3102792,6.8588198 80.0019036,6.64308376 C79.6935279,6.42703046 78.6018401,6.95145939 78.0678934,6.64308376 C77.534264,6.33439086 76.7880711,6.14942893 76.6675127,6.42703046 C76.5469543,6.70463198 76.3927665,7.50666244 77.009835,8.00031726 C77.6265863,8.49365482 77.6884518,9.29568528 77.6576777,9.6659264 C77.6265863,10.0361675 78.5520305,12.2569797 79.1380076,12.1951142 C79.724302,12.133566 80.0634518,10.4679569 80.6805203,11.3315355 C81.2972716,12.1951142 81.6367386,13.028236 81.8524746,13.213198 C82.0685279,13.3981599 82.9939721,14.8172589 83.5491751,14.2309645 C84.1043782,13.6449873 84.1659264,12.9048223 84.2277919,14.7246193 C84.2893401,16.5444162 85.2455584,15.9892132 85.338198,16.2360406 C85.4308376,16.482868 85.5234772,19.3515228 85.153236,19.5057107 C84.7829949,19.6598985 85.0913706,20.3385152 84.6903553,20.4003807 C84.2893401,20.4619289 82.7471447,19.9375 82.7471447,20.6472081 C82.7471447,21.356599 83.2097081,23.1763959 81.4517766,22.436231 C79.6935279,21.6957487 78.5092005,21.9733503 78.0678934,23.2690355 C77.6265863,24.5647208 79.0456853,26.7547589 81.7601523,26.8163071 C84.4746193,26.8781726 85.7084391,24.8423223 86.3562817,23.6392766 C87.0038071,22.436231 87.830901,24.0567893 88.1453046,24.1018401 C89.0088832,24.2252538 90.2810914,22.8220178 90.9213198,23.2382614 C92.1551396,24.0402919 90.6256345,25.0542513 91.2300127,25.8600888 C91.5999365,26.3537437 94.0060279,26.9089467 94.2836294,25.8908629 C94.561231,24.8730964 95.8876904,25.3048858 95.6716371,26.1376904 C95.455901,26.9704949 96.9054569,27.9578046 97.1830584,27.1246827 C97.4606599,26.2918782 98.4479695,26.3226523 98.694797,27.0631345 C98.9413071,27.8032995 100.977157,28.0501269 101.53236,27.6183376 C102.087563,27.1865482 102.828046,28.420368 102.76618,29.0063452 C102.704632,29.5926396 103.290609,29.7776015 103.506662,30.1786168 C103.722716,30.579632 103.383249,33.294099 102.149429,32.2452411 C100.915609,31.1963832 100.360406,31.1656091 99.6199239,31.5050761 C98.8797589,31.8442259 96.8439086,31.9060914 95.3940355,30.795368 C93.9441624,29.6849619 90.3353426,28.3585025 87.3432741,28.8521574 C84.3512056,29.3458122 82.7779188,29.7776015 82.099302,30.4869924 C81.4206853,31.1963832 81.9451142,32.072335 81.0815355,32.8991117 C80.2176396,33.7258883 78.6326142,34.7436548 78.0678934,35.1138959 C77.5031726,35.4841371 77.194797,35.9781091 76.9171954,37.3359772 C76.6395939,38.6906726 77.2566624,40.4197335 77.0713832,41.2223985 C76.8864213,42.0250635 77.0041244,43.0656726 76.6675127,43.795368 C76.3312183,44.5218909 74.7887056,50.3213832 75.930203,51.4000635 C77.0713832,52.4819162 80.7728426,55.2864848 81.7601523,55.2864848 C82.7471447,55.2864848 87.9292513,53.8080584 89.2557107,54.0840736 C90.5821701,54.3632614 92.0628173,55.5656726 92.9263959,55.5339467 C93.7899746,55.5022208 95.116434,55.9083122 95.116434,57.2027284 C95.116434,58.4939721 94.9622462,60.2833122 95.7950508,61.241434 C96.6278553,62.1963832 96.196066,64.528236 96.196066,64.528236 L96.1545051,64.6265863 L108.937183,64.6265863 C110.555203,64.6265863 111.870876,63.3099619 111.870876,61.6919416 L111.869289,57.313769 L111.870876,57.3105964 Z M60.2874365,9.03997462 C59.0228426,9.34010152 58.2645939,8.9768401 58.7281091,10.5149112 C59.1916244,12.0529822 59.5288706,12.7902919 60.6034264,11.8632614 C61.6779822,10.936231 61.7284264,8.69796954 60.2874365,9.03997462 Z M24.8248731,39.6392766 C23.2151015,39.6900381 22.5164975,40.6354695 22.9850888,41.0732868 C23.4536802,41.5142766 28.8953046,41.8347081 29.2173223,40.9844543 C29.5396574,40.1373731 28.0755076,39.9311548 27.6069162,39.1697335 C27.1383249,38.4083122 25.7173223,39.6107234 24.8248731,39.6392766 Z M21.6037437,34.6900381 C20.9045051,34.6719543 19.6811548,34.6970178 20.3445431,35.8153553 C21.0079315,36.9330584 23.991434,38.1291244 24.7433376,37.5517132 C25.4952411,36.9774746 23.3286802,34.7341371 21.6037437,34.6900381 Z M57.8442259,113.605013 C69.9822335,113.605013 76.8591371,111.580901 76.8591371,111.580901 C75.696066,110.533947 72.5805838,107.757931 71.5935914,108.249683 C70.606599,108.744607 70.3905457,110.254759 68.8791244,109.547272 C67.367703,108.836612 66.4422589,109.144353 65.5786802,109.763008 C64.7147843,110.37849 62.678934,110.039023 61.383566,109.391815 C60.0878807,108.744607 59.3784898,109.328363 57.6817893,109.66783 C55.9854061,110.007297 53.9187817,109.084074 52.8083756,109.360089 C51.6976523,109.639277 51.2350888,110.901967 50.4638325,110.37849 C49.6928934,109.855013 44.572335,108.868338 44.3255076,108.065673 C44.0786802,107.263008 44.2639594,105.997145 43.4619289,106.092322 C42.6598985,106.184327 41.8270939,107.662754 40.8397843,108.033947 C39.8527919,108.40514 37.223033,108.41783 36.1782995,110.226206 C36.1782995,110.226206 44.9403553,113.605013 57.8442259,113.605013 Z M92.9514594,81.8918147 C92.6738579,82.4470178 90.8416878,84.3759518 91.3657995,85.5466371 C91.8902284,86.7204949 92.4267132,87.4279822 91.9270305,88.8778553 C91.427665,90.3277284 90.7490482,91.4095812 91.5203046,92.4248096 C92.2912437,93.4432107 97.552665,93.1227792 100.976523,89.2680838 L92.9514594,81.8918147 Z M75.0793147,14.0152284 C74.5272843,13.6760787 73.8144036,14.7861675 73.8144036,15.4340102 C73.8144036,16.0818528 75.1408629,16.9765228 75.7579315,16.0203046 C76.3746827,15.0640863 76.8375635,15.0948604 75.0793147,14.0152284 Z M76.0983503,11.6211929 C75.4492386,11.393401 74.7090736,11.3623096 74.7706218,11.9793782 C74.8324873,12.5961294 74.9866751,12.7503173 75.5111041,13.213198 C76.035533,13.6757614 76.775698,14.2001904 76.8375635,14.7861675 C76.8991117,15.3724619 76.0663071,17.4083122 77.2074873,17.8401015 C78.3489848,18.2718909 79.2741117,18.7036802 80.1072335,18.2718909 C80.9400381,17.8401015 81.9578046,15.963198 80.1072335,14.9428934 C78.2563452,13.9225888 77.670368,12.4727157 77.6085025,12.133566 C77.5469543,11.794099 76.6579949,11.8178934 76.0983503,11.6211929 Z M58.2988579,2.6944797 C59.1935279,2.63293147 59.8905457,1.92639594 60.2420685,1.92354061 C61.0133249,1.91687817 61.2293782,2.75634518 61.8461294,2.84898477 C62.463198,2.94130711 63.7893401,2.75634518 63.9746193,3.58914975 C64.1595812,4.42195431 61.8769036,6.11865482 61.2293782,6.04758883 C60.5815355,5.9768401 59.8410533,6.51967005 59.5019036,6.9822335 C59.1624365,7.44479695 58.9159264,7.53743655 58.0212563,7.44479695 C57.1265863,7.35247462 56.9108503,9.94352792 55.2449239,10.159264 C53.5793147,10.3753173 52.9314721,7.75348985 53.3588198,6.30361675 C53.7861675,4.85374365 54.0729695,4.57614213 53.4869924,3.65069797 C52.900698,2.72557107 54.4774746,1.84866751 55.2449239,1.92354061 C56.509835,2.04695431 57.4041878,2.75634518 58.2988579,2.6944797 L58.2988579,2.6944797 Z" id="Fill-4" fill="#69B646"></path>
            <path d="M135.384835,65.0263325 L142.179251,65.0263325 C143.899112,65.0263325 145.298541,63.6272208 145.298541,61.9076777 L145.298541,40.3784898 C145.298541,34.0272843 148.014277,30.9397208 153.60184,30.9397208 C158.507614,30.9397208 160.418782,33.5862944 160.418782,40.3784898 L160.418782,63.563769 C160.418782,64.3696066 161.074239,65.0263325 161.879759,65.0263325 L171.893401,65.0263325 C172.698604,65.0263325 173.353744,64.3696066 173.353744,63.563769 L173.353744,40.3784898 C173.353744,26.7839467 168.618655,21.2379442 157.010152,21.2379442 C153.234772,21.2379442 150.283629,21.8699239 148.238579,23.115165 C147.915292,23.3121827 147.551713,23.4159264 147.185596,23.4159264 C146.127221,23.4159264 145.298541,22.598033 145.298541,21.5532995 L145.298541,4.56472081 C145.298541,2.91529188 143.956218,1.57296954 142.306789,1.57296954 L135.28585,1.57296954 C133.674492,1.57296954 132.363896,2.88388325 132.363896,4.49555838 L132.363896,62.0060279 C132.363896,63.6716371 133.719226,65.0263325 135.384835,65.0263325" id="Fill-5" fill="#1E67A3"></path>
            <path d="M196.71764,55.9368655 C193.448287,55.9368655 191.625,54.8201142 191.297906,52.615165 C191.070114,51.1684645 191.427348,49.8042513 192.305838,48.7763325 C193.306155,47.6056472 194.914657,46.9330584 196.71764,46.9330584 L203.169099,46.9330584 C203.804569,46.9330584 204.321066,47.4501904 204.321066,48.0878807 L204.321066,50.7814086 C204.321066,52.8531091 202.296003,55.9368655 196.71764,55.9368655 Z M199.077411,21.150698 C192.459708,21.150698 186.580901,23.5326777 182.076459,28.0390228 C181.833122,28.2823604 181.719543,28.6215102 181.765863,28.9704949 C181.813769,29.3353426 182.024112,29.6491117 182.342322,29.8318528 L189.89467,34.1573604 C190.07868,34.2633249 190.288706,34.3191624 190.5,34.3191624 C190.790926,34.3191624 191.0625,34.213198 191.263008,34.0225254 C192.984454,32.3914975 194.800761,31.813769 198.20368,31.813769 C201.272208,31.813769 203.554251,33.3264594 204.158312,35.7611041 C204.237627,36.0828046 204.161802,36.419099 203.952094,36.688769 C203.727792,36.974302 203.380076,37.1456218 203.021574,37.1456218 L197.591371,37.1456218 C185.91085,37.1456218 178.363896,43.1132614 178.363896,52.3518401 C178.363896,61.2921954 183.710025,65.6386421 194.707487,65.6386421 C198.467322,65.6386421 202.151332,64.2300127 204.321066,61.9679569 L204.321066,63.8746827 C204.321066,64.5092005 204.837881,65.0263325 205.47335,65.0263325 L216.104378,65.0263325 C216.739848,65.0263325 217.256345,64.5092005 217.256345,63.8746827 L217.256345,34.8727792 C217.256345,28.5428299 212.495241,21.150698 199.077411,21.150698 L199.077411,21.150698 Z" id="Fill-6" fill="#1E67A3"></path>
            <path d="M235.263325,65.0263325 C236.037437,65.0263325 236.665609,64.3949873 236.665609,63.6240482 L236.665609,1.4035533 C236.665609,0.629758883 236.037437,0 235.263325,0 L225.047589,0 C224.273477,0 223.643401,0.629758883 223.643401,1.4035533 L223.643401,63.6240482 C223.643401,64.3949873 224.273477,65.0263325 225.047589,65.0263325 L235.263325,65.0263325 Z" id="Fill-7" fill="#1E67A3"></path>
            <path d="M243.270939,32.5130076 L244.888959,32.5130076 C245.767766,32.5130076 246.484772,33.2284264 246.484772,34.1072335 L246.484772,63.4305203 C246.484772,64.3093274 247.198604,65.0263325 248.077411,65.0263325 L257.823604,65.0263325 C258.702411,65.0263325 259.419416,64.3093274 259.419416,63.4305203 L259.419416,34.1072335 C259.419416,33.2284264 260.133249,32.5130076 261.012056,32.5130076 L268.048858,32.5130076 C268.927665,32.5130076 269.64467,31.7975888 269.64467,30.9187817 L269.64467,23.4441624 C269.64467,22.5653553 268.927665,21.8502538 268.048858,21.8502538 L259.419416,21.8502538 L259.419416,19.8397843 C259.419416,15.5276015 259.990482,11.5371193 264.137056,11.5371193 C264.825508,11.5371193 266.183376,11.6072335 267.534898,12.0799492 C267.706218,12.1395939 267.883883,12.1697335 268.058376,12.1697335 C268.93401,12.1697335 269.64467,11.4562183 269.64467,10.5783629 L269.64467,3.98032995 C269.64467,3.39562183 269.317893,2.85279188 268.788071,2.56472081 C266.624365,1.38546954 264.530457,0.787436548 262.566624,0.787436548 C251.443528,0.787436548 246.484772,6.66338832 246.484772,19.8397843 L246.484772,21.8502538 L243.270939,21.8502538 C242.392132,21.8502538 241.675127,22.5653553 241.675127,23.4441624 L241.675127,30.9187817 C241.675127,31.7975888 242.392132,32.5130076 243.270939,32.5130076" id="Fill-8" fill="#1E67A3"></path>
            <path d="M288.489848,36.2699873 L273.851523,36.2699873 C273.023477,36.2699873 272.350888,36.9457487 272.350888,37.7737944 L272.350888,45.7814086 C272.350888,46.6094543 273.023477,47.2852157 273.851523,47.2852157 L288.001269,47.2852157 C288.426396,47.2852157 288.819797,47.1107234 289.108503,46.7966371 C289.390863,46.4857234 289.527284,46.0859772 289.489213,45.6671954 C289.425761,44.9406726 289.394036,44.2173223 289.394036,43.525698 C289.394036,41.6633883 289.581218,39.8264594 289.955584,38.0625 C290.047589,37.6246827 289.939721,37.1741751 289.65736,36.8251904 C289.371827,36.473033 288.946701,36.2699873 288.489848,36.2699873" id="Fill-9" fill="#1E67A3"></path>
            <path d="M325.228426,37.6024746 C325.006345,37.9197335 324.647843,38.1069162 324.267132,38.1069162 L310.387056,38.1069162 C309.993655,38.1069162 309.628807,37.9102157 309.406726,37.5802665 C309.197335,37.2661802 309.156091,36.8727792 309.298858,36.5333122 C310.561548,33.4895305 313.369289,31.813769 317.208122,31.813769 C321.42132,31.813769 324.244924,33.454632 325.371193,36.5586929 C325.494924,36.9045051 325.44099,37.2947335 325.228426,37.6024746 Z M317.994924,65.6386421 C326.275381,65.6386421 332.008249,63.3512056 336.037437,58.4400381 C336.418147,57.9768401 336.361041,57.2883883 335.90736,56.8727792 L329.051396,50.5720178 C328.838832,50.3721447 328.559645,50.2642766 328.270939,50.2642766 C327.902919,50.2642766 327.57297,50.4324239 327.360406,50.724302 C325.358503,53.4654188 322.033629,54.9755711 317.994924,54.9755711 C314.156091,54.9755711 309.495558,52.0409264 308.680203,47.6754442 C308.616751,47.3486675 308.708756,47.0092005 308.924492,46.7490482 C309.149746,46.4762056 309.479695,46.3207487 309.82868,46.3207487 L338.163071,46.3207487 C338.800761,46.3207487 339.321066,45.8036168 339.321066,45.1659264 L339.321066,43.4368655 C339.321066,30.1072335 330.434645,21.150698 317.208122,21.150698 C304.03236,21.150698 295.180838,30.1072335 295.180838,43.4368655 C295.180838,56.7173223 304.349619,65.6386421 317.994924,65.6386421 L317.994924,65.6386421 Z" id="Fill-10" fill="#1E67A3"></path>
            <path d="M360.929569,55.848033 C357.661802,55.848033 355.837563,54.7312817 355.510787,52.5263325 C355.28236,51.079632 355.640863,49.7154188 356.51967,48.6875 C357.519036,47.5168147 359.127538,46.8473985 360.929569,46.8473985 L367.21764,46.8473985 C367.944162,46.8473985 368.534264,47.4375 368.534264,48.1608503 L368.534264,50.6925761 C368.534264,52.7642766 366.510152,55.848033 360.929569,55.848033 Z M363.289975,21.0628173 C356.782995,21.0628173 350.977157,23.3734137 346.497462,27.7436548 C346.189721,28.0447335 346.043782,28.4603426 346.097716,28.8819797 C346.148477,29.2931472 346.383249,29.6475254 346.744924,29.8531091 L354.026015,34.0222081 C354.225888,34.1386421 354.457487,34.2005076 354.689086,34.2005076 C355.01269,34.2005076 355.314086,34.0834391 355.545685,33.8696066 C357.227157,32.3074239 359.089467,31.7262056 362.417513,31.7262056 C365.336294,31.7262056 367.519036,33.0605964 368.261421,35.2950508 C368.397843,35.7068528 368.328046,36.1621193 368.074239,36.5142766 C367.826777,36.8600888 367.436548,37.0567893 367.011421,37.0567893 L361.805203,37.0567893 C350.123731,37.0567893 342.576142,43.0276015 342.576142,52.2661802 C342.576142,61.2033629 347.921954,65.5498096 358.92132,65.5498096 C362.680838,65.5498096 366.364213,64.1443528 368.534264,61.8791244 L368.534264,63.6240482 C368.534264,64.3473985 369.124365,64.9375 369.850888,64.9375 L380.152284,64.9375 C380.878807,64.9375 381.468909,64.3473985 381.468909,63.6240482 L381.468909,34.7848985 C381.468909,28.4549492 376.706853,21.0628173 363.289975,21.0628173 L363.289975,21.0628173 Z" id="Fill-11" fill="#1E67A3"></path>
            <path d="M410.507614,30.9200508 C411.202411,30.9200508 411.913071,31.0063452 413.118655,31.4292513 C413.277284,31.4844543 413.439086,31.5126904 413.607234,31.5126904 C414.327411,31.5126904 414.939721,31.0019036 415.066624,30.2979061 L416.294416,23.4793782 C416.418147,22.794099 416.050127,22.1072335 415.418782,21.846764 C413.838832,21.1976523 412.395305,21.150698 410.203046,21.150698 C407.461929,21.150698 402.829949,22.5336294 401.113579,25.6085025 L401.113579,23.2430203 C401.113579,22.4263959 400.447335,21.7623731 399.63198,21.7623731 L389.65736,21.7623731 C388.842005,21.7623731 388.175761,22.4263959 388.175761,23.2430203 L388.175761,63.4590736 C388.175761,64.2744289 388.842005,64.9375 389.65736,64.9375 L399.63198,64.9375 C400.447335,64.9375 401.113579,64.2744289 401.113579,63.4590736 L401.113579,40.6418147 C401.113579,34.1126269 403.829315,30.9397208 409.416244,30.9397208 C409.616117,30.9397208 409.800127,30.9349619 410.022208,30.928934 C410.187183,30.9241751 410.345812,30.9200508 410.507614,30.9200508" id="Fill-12" fill="#1E67A3"></path>
            <path d="M449.74302,21.7623731 L442.360406,21.7623731 C441.576777,21.7623731 440.939086,21.1246827 440.939086,20.340736 L440.939086,10.7731599 C440.939086,9.9892132 440.301396,9.35152284 439.517766,9.35152284 L429.422589,9.35152284 C428.638959,9.35152284 428.001269,9.9892132 428.001269,10.7731599 L428.001269,20.340736 C428.001269,21.1246827 427.363579,21.7623731 426.579949,21.7623731 L424.619289,21.7623731 C423.832487,21.7623731 423.194797,22.3997462 423.194797,23.1836929 L423.194797,31.0034898 C423.194797,31.7877538 423.832487,32.4251269 424.619289,32.4251269 L426.579949,32.4251269 C427.363579,32.4251269 428.001269,33.0634518 428.001269,33.8473985 L428.001269,46.5840736 C428.001269,60.2960025 432.509518,65.6386421 444.083122,65.6386421 C446.050127,65.6386421 448.121827,65.0548858 450.421954,63.8556472 C450.878807,63.617703 451.16434,63.1386421 451.16434,62.6056472 L451.16434,55.3943528 C451.16434,54.5155457 450.428299,53.9698604 449.749365,53.9698604 C449.527284,53.9698604 449.308376,54.0237944 449.10533,54.1316624 C448.001269,54.705901 446.906726,54.9755711 445.656726,54.9755711 C443.575508,54.9755711 442.223985,54.0174492 441.526015,52.0472716 C440.935914,50.3880076 440.935914,48.2877538 440.939086,46.7522208 L440.939086,33.8473985 C440.939086,33.0634518 441.576777,32.4251269 442.360406,32.4251269 L449.74302,32.4251269 C450.52665,32.4251269 451.16434,31.7877538 451.16434,31.0034898 L451.16434,23.1836929 C451.16434,22.3997462 450.52665,21.7623731 449.74302,21.7623731" id="Fill-13" fill="#1E67A3"></path>
            <path d="M483.270939,21.150698 C477.937817,21.150698 474.181472,22.4568528 472.404822,24.927665 C472.31599,25.0529822 472.182741,25.1221447 472.033629,25.1221447 C471.773477,25.1221447 471.557741,24.9095812 471.557741,24.6484772 L471.557741,2.07455584 C471.557741,1.74936548 471.294416,1.48572335 470.970812,1.48572335 L459.213198,1.48572335 C458.886421,1.48572335 458.623096,1.74936548 458.623096,2.07455584 L458.623096,64.3505711 C458.623096,64.6741751 458.886421,64.9375 459.213198,64.9375 L470.970812,64.9375 C471.294416,64.9375 471.557741,64.6741751 471.557741,64.3505711 L471.557741,40.2928299 C471.557741,33.9394036 474.273477,30.8518401 479.860406,30.8518401 C484.768401,30.8518401 486.678299,33.4984137 486.678299,40.2928299 L486.678299,64.3505711 C486.678299,64.6741751 486.941624,64.9375 487.268401,64.9375 L499.026015,64.9375 C499.349619,64.9375 499.612944,64.6741751 499.612944,64.3505711 L499.612944,40.2928299 C499.612944,26.696066 494.879442,21.150698 483.270939,21.150698" id="Fill-14" fill="#1E67A3"></path>
            <path d="M149.204949,99.9470178 C149.204949,103.792195 146.715736,106.920368 143.655774,106.920368 C141.804251,106.920368 140.05901,105.667195 138.99302,103.582805 C138.471764,102.488261 138.207487,101.266815 138.207487,99.9470178 C138.207487,98.7350888 138.505076,97.3518401 138.99302,96.2668147 C140.007614,94.2363579 141.838515,92.9260787 143.655774,92.9260787 C146.715736,92.9260787 149.204949,96.0764594 149.204949,99.9470178 Z M144.147843,87.4279822 C142.128173,87.4279822 140.208439,88.2179569 139.138642,89.490165 L139.138642,88.3607234 C139.138642,88.0339467 138.874683,87.7706218 138.549492,87.7706218 L133.088198,87.7706218 C132.417513,87.7706218 131.87151,88.3163071 131.87151,88.9888959 L131.87151,122.202728 C131.87151,122.872145 132.417513,123.41783 133.088198,123.41783 L137.922589,123.41783 C138.592957,123.41783 139.138642,122.872145 139.138642,122.202728 L139.138642,112.586612 C139.138642,111.917195 139.681155,111.37151 140.348668,111.37151 C140.519036,111.37151 140.685914,111.406409 140.845178,111.476206 C142.093591,112.031409 143.653553,112.418464 144.638959,112.418464 C151.635787,112.418464 156.522208,107.291561 156.522208,99.9470178 C156.522208,92.6944797 151.317893,87.4279822 144.147843,87.4279822 L144.147843,87.4279822 Z" id="Fill-15" fill="#1E67A3"></path>
            <path d="M174.375,87.7452411 C173.555203,87.4501904 172.758883,87.4279822 171.636739,87.4279822 C170.096764,87.4279822 167.495241,88.2052665 166.53236,89.9311548 L166.53236,88.3607234 C166.53236,88.0339467 166.268718,87.7706218 165.943211,87.7706218 L160.310914,87.7706218 C159.733503,87.7706218 159.263959,88.240165 159.263959,88.8175761 L159.263959,110.981282 C159.263959,111.558693 159.733503,112.028236 160.310914,112.028236 L165.485089,112.028236 C166.0625,112.028236 166.53236,111.558693 166.53236,110.981282 L166.53236,98.3765863 C166.53236,94.7090736 168.057107,92.9260787 171.19448,92.9260787 C171.312817,92.9260787 171.420368,92.9229061 171.534264,92.9197335 C171.626586,92.9165609 171.716053,92.9165609 171.805838,92.9165609 C172.089784,92.9165609 172.445749,92.9324239 173.06948,93.132297 C173.171637,93.1640228 173.278236,93.1830584 173.385787,93.1830584 C173.89118,93.1830584 174.323921,92.8213832 174.41434,92.3232868 L175.028871,88.9127538 C175.119607,88.4051396 174.84486,87.9133883 174.375,87.7452411" id="Fill-16" fill="#1E67A3"></path>
            <path d="M189.209708,93.4178299 C192.373414,93.4178299 194.759201,96.2255711 194.759201,99.9470178 C194.759201,103.643084 192.373414,106.431789 189.209708,106.431789 C186.074556,106.431789 183.71066,103.643084 183.71066,99.9470178 C183.71066,96.2255711 186.074556,93.4178299 189.209708,93.4178299 Z M189.209708,87.4279822 C182.051396,87.4279822 176.444162,92.9260787 176.444162,99.9470178 C176.444162,106.942576 182.051396,112.418464 189.209708,112.418464 C196.515863,112.418464 202.025381,107.059962 202.025381,99.9470178 C202.025381,92.9260787 196.395939,87.4279822 189.209708,87.4279822 L189.209708,87.4279822 Z" id="Fill-17" fill="#1E67A3"></path>
            <path d="M213.235406,87.7706218 L207.887056,87.7706218 C207.358185,87.7706218 206.927982,88.2020939 206.927982,88.7287437 L206.927982,110.257931 C206.927982,113.85882 204.898477,114.138008 204.276332,114.138008 C203.231916,114.138008 202.57519,114.033312 202.007297,113.77316 C201.890863,113.719226 201.768084,113.693845 201.643718,113.693845 C201.12849,113.693845 200.693211,114.14118 200.693211,114.671003 L200.693211,118.912754 C200.693211,119.296637 200.92132,119.642449 201.272843,119.794734 C204.065038,121.013008 204.38547,121.013008 206.880393,121.013008 C211.870876,121.013008 214.194797,117.596129 214.194797,110.257931 L214.194797,88.7287437 C214.194797,88.2020939 213.764277,87.7706218 213.235406,87.7706218" id="Fill-18" fill="#1E67A3"></path>
            <path d="M210.658947,77.2122462 C208.484454,77.2122462 206.780774,78.7890228 206.780774,80.7972716 C206.780774,82.8626269 208.484454,84.4806472 210.658947,84.4806472 C212.808376,84.4806472 214.491434,82.8626269 214.491434,80.7972716 C214.491434,78.7890228 212.808376,77.2122462 210.658947,77.2122462" id="Fill-19" fill="#1E67A3"></path>
            <path d="M225.615482,95.9400381 C226.34835,94.3125 227.906091,93.4178299 230.003173,93.4178299 C232.341371,93.4178299 233.867386,94.2712563 234.539975,95.955901 C234.628807,96.1748096 234.600254,96.4254442 234.463832,96.6253173 C234.324239,96.8315355 234.095812,96.9520939 233.854695,96.9520939 L226.291244,96.9520939 C226.040609,96.9520939 225.80901,96.8251904 225.669416,96.6094543 C225.53934,96.4064086 225.517132,96.1557741 225.615482,95.9400381 Z M230.003173,87.4279822 C222.602157,87.4279822 217.629124,92.4597081 217.629124,99.9470178 C217.629124,107.408947 222.779505,112.418464 230.444162,112.418464 C235.066624,112.418464 238.270939,111.152602 240.532995,108.436865 C240.777284,108.14816 240.742386,107.713515 240.45368,107.443845 L236.722716,104.014277 C236.583122,103.887373 236.402284,103.817576 236.215102,103.817576 C235.996193,103.817576 235.799492,103.915926 235.675761,104.080901 C234.549492,105.594226 232.693528,106.431789 230.444162,106.431789 C228.359772,106.431789 225.774112,104.908947 225.237944,102.453363 C225.190355,102.240799 225.244289,102.018718 225.383883,101.844226 C225.523477,101.669734 225.732868,101.568211 225.958122,101.568211 L241.836929,101.568211 C242.160533,101.568211 242.423858,101.304886 242.423858,100.981282 L242.423858,99.9470178 C242.423858,92.4597081 237.433376,87.4279822 230.003173,87.4279822 L230.003173,87.4279822 Z" id="Fill-20" fill="#1E67A3"></path>
            <path d="M257.836294,93.4178299 C258.784898,93.4178299 261.135787,93.6430838 262.477792,95.7306472 C262.614213,95.9432107 262.845812,96.0701142 263.099619,96.0701142 C263.280457,96.0701142 263.454949,96.0003173 263.591371,95.8797589 L267.423858,92.4152919 C267.579315,92.275698 267.668147,92.0758249 267.674592,91.8632614 C267.677665,91.6602157 267.601523,91.473033 267.461929,91.3302665 C264.895305,88.7763325 261.564086,87.4279822 257.836294,87.4279822 C250.678934,87.4279822 245.069797,92.9260787 245.069797,99.9470178 C245.069797,106.942576 250.678934,112.418464 257.836294,112.418464 C261.564086,112.418464 264.895305,111.070114 267.465102,108.513008 C267.604695,108.376586 267.677665,108.186231 267.674592,107.980013 C267.668147,107.770622 267.579315,107.570749 267.423858,107.431155 L263.616751,103.988896 C263.48033,103.868338 263.305838,103.801713 263.121827,103.801713 C262.864848,103.801713 262.626904,103.931789 262.493655,104.153871 C261.59264,105.644987 259.980964,106.431789 257.836294,106.431789 C254.701777,106.431789 252.338198,103.643084 252.338198,99.9470178 C252.338198,96.2255711 254.701777,93.4178299 257.836294,93.4178299" id="Fill-21" fill="#1E67A3"></path>
            <path d="M285.044416,87.7706218 L281.23731,87.7706218 C280.701142,87.7706218 280.266497,87.3359772 280.266497,86.8029822 L280.266497,81.7680838 C280.266497,81.2319162 279.831853,80.7972716 279.298858,80.7972716 L273.968909,80.7972716 C273.435914,80.7972716 273.001269,81.2319162 273.001269,81.7680838 L273.001269,86.8029822 C273.001269,87.3359772 272.566624,87.7706218 272.030457,87.7706218 L271.269036,87.7706218 C270.736041,87.7706218 270.301396,88.2052665 270.301396,88.7382614 L270.301396,92.7928299 C270.301396,93.3258249 270.736041,93.7604695 271.269036,93.7604695 L272.030457,93.7604695 C272.566624,93.7604695 273.001269,94.1951142 273.001269,94.7312817 L273.001269,101.71415 C273.001269,110.600571 276.611675,112.418464 282.033629,112.418464 C283.115482,112.418464 284.251269,112.107551 285.504442,111.466688 C285.812183,111.308058 286.012056,110.971764 286.012056,110.610089 L286.012056,106.923541 C286.012056,106.393718 285.586929,105.978109 285.047589,105.978109 C284.898477,105.978109 284.752538,106.009835 284.612944,106.073287 C284.079949,106.314404 283.524746,106.431789 282.918782,106.431789 C281.767132,106.431789 280.983503,105.876586 280.596447,104.782043 C280.266497,103.849302 280.266497,102.669099 280.266497,101.806155 L280.266497,94.7312817 C280.266497,94.1951142 280.701142,93.7604695 281.23731,93.7604695 L285.044416,93.7604695 C285.577411,93.7604695 286.012056,93.3258249 286.012056,92.7928299 L286.012056,88.7382614 C286.012056,88.2052665 285.577411,87.7706218 285.044416,87.7706218" id="Fill-22" fill="#1E67A3"></path>
        </g>
    </g>
</svg>