<?xml version="1.0" encoding="UTF-8"?>
<svg width="16px" height="18px" viewBox="0 0 16 18" version="1.1" xmlns="http://www.w3.org/2000/svg" xmlns:xlink="http://www.w3.org/1999/xlink">
    <!-- Generator: sketchtool 54.1 (76490) - https://sketchapp.com -->
    <title>F27D09AA-82F3-4908-B262-79D52AE0B641</title>
    <desc>Created with sketchtool.</desc>
    <g id="visual" stroke-width="1" fill-rule="evenodd">
        <g id="HE-map---full_screen" transform="translate(-97.000000, -24.000000)" fill-rule="nonzero">
            <g id="find-places" transform="translate(89.000000, 17.000000)">
                <path d="M21.3882182,9.22994302 C18.4149608,6.25668566 13.5943581,6.25668566 10.6211008,9.22994302 C7.6478434,12.2032004 7.6478434,17.023803 10.6211008,19.9970604 L15.3496598,24.7345921 C15.5181352,24.9044547 15.7474711,25 15.9867143,25 C16.2259574,25 16.4552933,24.9044547 16.6237687,24.7345921 L21.3882182,19.9521974 C24.3490503,16.9913134 24.3490503,12.190827 21.3882182,9.22994302 Z M20.1051367,18.6691159 L16.0046595,22.7875383 L11.9041823,18.6691159 C9.64211141,16.4049735 9.64323092,12.7359251 11.906683,10.4731635 C14.1701352,8.21040189 17.8391838,8.21040189 20.1026359,10.4731635 C22.366088,12.7359251 22.3672075,16.4049735 20.1051367,18.6691159 L20.1051367,18.6691159 Z M17.5210285,16.05809 C16.8197961,16.7700298 15.7127794,16.8861748 14.8790539,16.3352783 C14.0453284,15.7843818 13.718035,14.7204952 14.097945,13.7962368 C14.4778549,12.8719783 15.4587309,12.3458055 16.4388758,12.5404877 C17.4190208,12.7351698 18.1243491,13.5962665 18.1221925,14.5955565 C18.1091393,15.1494082 17.8767847,15.6754331 17.4761655,16.05809 L17.5210285,16.05809 Z" id="location_icon"></path>
            </g>
        </g>
    </g>
</svg>