<?xml version="1.0" encoding="UTF-8"?>
<svg width="14px" height="16px" viewBox="0 0 14 16" version="1.1" xmlns="http://www.w3.org/2000/svg" xmlns:xlink="http://www.w3.org/1999/xlink">
    <!-- Generator: sketchtool 54.1 (76490) - https://sketchapp.com -->
    <title>70EC1ECA-3605-426B-B425-11218FAA2D3C</title>
    <desc>Created with sketchtool.</desc>
    <g id="UI-KIT" stroke="none" stroke-width="1" fill="none" fill-rule="evenodd">
        <g transform="translate(-879.000000, -2838.000000)" fill="#FFFFFF" fill-rule="nonzero" id="icon/places">
            <g transform="translate(878.000000, 2838.000000)">
                <g id="iconplaces" transform="translate(1.000000, 0.000000)">
                    <path d="M11.2031515,1.92218182 C8.64024242,-0.640727273 4.48509091,-0.640727273 1.92218182,1.92218182 C-0.640727273,4.48509091 -0.640727273,8.64024242 1.92218182,11.2031515 L5.99781818,15.2865455 C6.14327273,15.4329697 6.34060606,15.5153939 6.54715152,15.5153939 C6.75369697,15.5153939 6.9510303,15.4329697 7.09648485,15.2865455 L11.2031515,11.1643636 C13.7553939,8.61212121 13.7553939,4.47442424 11.2031515,1.92218182 Z M10.0972121,10.0584242 L6.56266667,13.6084848 L3.02812121,10.0584242 C1.07854545,8.10690909 1.07951515,4.94424242 3.03006061,2.99369697 C4.98060606,1.04315152 8.14375758,1.04315152 10.0947879,2.99369697 C12.0458182,4.94424242 12.0467879,8.10642424 10.0967273,10.0584242 L10.0967273,10.0584242 L10.0972121,10.0584242 Z M7.86981818,7.80775758 C7.26521212,8.42157576 6.3110303,8.52145455 5.59248485,8.04678788 C4.87393939,7.57212121 4.59175758,6.65478788 4.9190303,5.85818182 C5.24630303,5.06157576 6.09187879,4.60775758 6.9369697,4.776 C7.78206061,4.94424242 8.38957576,5.68606061 8.38812121,6.54715152 C8.3769697,7.02472727 8.17672727,7.47806061 7.83151515,7.80775758 L7.87030303,7.80775758 L7.86981818,7.80775758 Z" id="Shape"></path>
                </g>
            </g>
        </g>
    </g>
</svg>