<svg width="16" height="16" viewBox="0 0 16 16" fill="none" xmlns="http://www.w3.org/2000/svg">
<path d="M8 1.62848C8.61079 0.936462 9.50442 0.5 10.5 0.5C12.341 0.5 13.8333 1.99238 13.8333 3.83333C13.8333 5.67428 12.341 7.16667 10.5 7.16667C9.50442 7.16667 8.61079 6.7302 8 6.03819M10.5 15.5H0.5V14.6667C0.5 11.9052 2.73858 9.66667 5.5 9.66667C8.26142 9.66667 10.5 11.9052 10.5 14.6667V15.5ZM10.5 15.5H15.5V14.6667C15.5 11.9052 13.2614 9.66667 10.5 9.66667C9.58928 9.66667 8.73543 9.91015 8 10.3356M8.83333 3.83333C8.83333 5.67428 7.34095 7.16667 5.5 7.16667C3.65905 7.16667 2.16667 5.67428 2.16667 3.83333C2.16667 1.99238 3.65905 0.5 5.5 0.5C7.34095 0.5 8.83333 1.99238 8.83333 3.83333Z" stroke="#18BAB4" stroke-linecap="round" stroke-linejoin="round"/>
</svg>
