<svg width="13px" height="13px" version="1.1" viewBox="0 0 13 13" xmlns="http://www.w3.org/2000/svg">
 <rect x="3.911" y="3.0847" width="5.5085" height="7.2161" fill="#0a212e" stroke-width="1.0278"/>
 <desc>Created with sketchtool.</desc>
 <g id="visual" fill-rule="evenodd">
  <g id="HE-map---zoom-in" transform="translate(-259 -267)" fill-rule="nonzero">
   <g id="icon/question" transform="translate(259.5 267.5)">
    <path id="Shape" d="m6 12c-3.3139 0-6-2.6861-6-6s2.6861-6 6-6 6 2.6861 6 6-2.6861 6-6 6zm0.09641-8.0671c0.53155 0.089111 0.9201 0.54091 0.91925 1.0685 0 0.24693-0.19534 0.5101-0.58602 0.76494-0.1498 0.097856-0.31833 0.18697-0.49665 0.26484-0.08852 0.03831-0.16725 0.069124-0.21236 0.083698-0.31237 0.1016-0.4809 0.43181-0.37664 0.73746 0.10427 0.30564 0.44132 0.47054 0.7537 0.36852 0.30599-0.099938 0.66262-0.269 0.9933-0.48428 0.72221-0.47096 1.1163-1.0506 1.1163-1.7343 0.0017023-1.0956-0.80519-2.0333-1.9096-2.2186-1.1044-0.1853-2.1845 0.43556-2.5564 1.4699-0.10937 0.30356 0.054048 0.63669 0.36429 0.74329 0.31025 0.1066 0.65071-0.052884 0.75966-0.35645 0.17959-0.49761 0.69965-0.79659 1.2312-0.70748zm-0.052535 5.5546c0.46617 0 0.84375-0.37758 0.84375-0.84375 0-0.46617-0.37758-0.84375-0.84375-0.84375s-0.84375 0.37758-0.84375 0.84375c0 0.46617 0.37758 0.84375 0.84375 0.84375z"/>
   </g>
  </g>
 </g>
</svg>
