<svg width="45" height="40" xmlns="http://www.w3.org/2000/svg">
  <g fill="#18BAB4" fill-rule="nonzero">
    <path d="M4.219.242H40.78A4.226 4.226 0 0145 4.476v22.58a4.226 4.226 0 01-4.219 4.234H4.22A4.226 4.226 0 010 27.056V4.476A4.226 4.226 0 014.219.242zm0 2.823c-.777 0-1.407.631-1.407 1.41v22.581c0 .78.63 1.412 1.407 1.412H40.78c.777 0 1.407-.632 1.407-1.412V4.476c0-.78-.63-1.411-1.407-1.411H4.22z"/>
    <path d="M30.918 38.115a1.41 1.41 0 01-1.387 1.643H15.47a1.41 1.41 0 01-1.387-1.643l1.406-8.468c.113-.68.7-1.18 1.387-1.18h11.25c.687 0 1.274.5 1.387 1.18l1.406 8.468zm-3.984-6.825h-8.868l-.937 5.645H27.87l-.937-5.645z"/>
    <path d="M11.25 39.758h22.5c.777 0 1.406-.632 1.406-1.411 0-.78-.63-1.412-1.406-1.412h-22.5c-.777 0-1.406.632-1.406 1.412 0 .78.63 1.411 1.406 1.411zM14.293 19.632a12.15 12.15 0 0016.414 0 1.415 1.415 0 00.092-1.994 1.403 1.403 0 00-1.986-.092 9.345 9.345 0 01-12.626 0 1.403 1.403 0 00-1.986.092 1.415 1.415 0 00.092 1.994zM16.875 10.121v2.823c0 .779.63 1.41 1.406 1.41.777 0 1.407-.631 1.407-1.41V10.12c0-.78-.63-1.411-1.407-1.411-.776 0-1.406.632-1.406 1.411zM25.313 10.121v2.823c0 .779.63 1.41 1.406 1.41.776 0 1.406-.631 1.406-1.41V10.12c0-.78-.63-1.411-1.406-1.411-.777 0-1.407.632-1.407 1.411z"/>
  </g>
</svg>
