<svg width="14" height="14" viewBox="0 0 14 14" fill="none" xmlns="http://www.w3.org/2000/svg">
<path fill-rule="evenodd" clip-rule="evenodd" d="M5.62745 1.64706C3.42914 1.64706 1.64706 3.42914 1.64706 5.62745C1.64706 7.82576 3.42914 9.60784 5.62745 9.60784C7.82576 9.60784 9.60784 7.82576 9.60784 5.62745C9.60784 3.42914 7.82576 1.64706 5.62745 1.64706ZM0 5.62745C0 2.5195 2.5195 0 5.62745 0C8.73541 0 11.2549 2.5195 11.2549 5.62745C11.2549 6.88437 10.8428 8.04505 10.1464 8.98175L13.7588 12.5941C14.0804 12.9158 14.0804 13.4372 13.7588 13.7588C13.4372 14.0804 12.9158 14.0804 12.5941 13.7588L8.98175 10.1464C8.04505 10.8428 6.88437 11.2549 5.62745 11.2549C2.5195 11.2549 0 8.73541 0 5.62745Z"/>
</svg>
