<svg width="16" height="16" viewBox="0 0 16 16" fill="none" xmlns="http://www.w3.org/2000/svg">
<path fill-rule="evenodd" clip-rule="evenodd" d="M4.29667 1.18942C1.31269 2.45758 -0.0782541 5.90462 1.18991 8.88861C2.45807 11.8726 5.90511 13.2635 8.88909 11.9954C9.44183 11.7605 9.93991 11.4508 10.3765 11.0832L14.202 14.9091C14.3972 15.1044 14.7138 15.1044 14.9091 14.9092C15.1043 14.7139 15.1044 14.3973 14.9091 14.202L11.0834 10.3758C12.4617 8.73738 12.8906 6.40153 11.9959 4.29619C10.7277 1.3122 7.28065 -0.0787425 4.29667 1.18942ZM10.0663 10.0087C11.4066 8.64489 11.8699 6.55659 11.0755 4.68732C10.0234 2.21162 7.1635 1.05761 4.68781 2.10975C2.21211 3.1619 1.0581 6.02178 2.11024 8.49747C3.16239 10.9732 6.02227 12.1272 8.49796 11.075C9.07799 10.8285 9.58548 10.4828 10.009 10.066C10.0178 10.0558 10.027 10.0458 10.0367 10.0361C10.0463 10.0265 10.0562 10.0173 10.0663 10.0087Z" fill="white"/>
</svg>
