<svg width="16" height="16" viewBox="0 0 16 16" fill="none" xmlns="http://www.w3.org/2000/svg">
<path d="M10.8435 11.9937L14.1273 15.2776C14.4449 15.5952 14.9593 15.5952 15.2764 15.2776C15.5935 14.96 15.594 14.4456 15.2764 14.1285L11.9926 10.8446C11.675 10.5271 11.1606 10.5271 10.8435 10.8446C10.5264 11.1622 10.5259 11.6766 10.8435 11.9937Z" fill="white"/>
<path fill-rule="evenodd" clip-rule="evenodd" d="M11.872 1.96628C14.544 4.63828 14.482 9.01889 11.7503 11.7505C9.01822 14.4826 4.6381 14.5442 1.9661 11.8722C-0.705899 9.20022 -0.643838 4.81961 2.0878 2.08798C4.81992 -0.644145 9.20004 -0.70572 11.872 1.96628ZM3.11519 10.7226C5.14525 12.7522 8.49653 12.7052 10.6008 10.6009C12.705 8.4967 12.7525 5.14495 10.7225 3.11537C8.6924 1.08579 5.34113 1.13283 3.23689 3.23707C1.13265 5.34131 1.08513 8.69307 3.11519 10.7226Z" fill="white"/>
</svg>
