<?xml version="1.0" encoding="UTF-8"?>
<svg width="20px" height="20px" viewBox="0 0 20 20" version="1.1" xmlns="http://www.w3.org/2000/svg" xmlns:xlink="http://www.w3.org/1999/xlink">
    <!-- Generator: sketchtool 57.1 (101010) - https://sketch.com -->
    <title>05EDCAC1-07DE-40E8-BFA3-DD403972BB7B</title>
    <desc>Created with sketchtool.</desc>
    <g id="MOBILE" stroke="none" stroke-width="1" fill="none" fill-rule="evenodd">
        <g id="HE-Mobile---tab-bar" transform="translate(-34.000000, -74.000000)" fill="#FFFFFF" fill-rule="nonzero">
            <g id="Tab-bar-/-default" transform="translate(0.000000, 50.000000)">
                <g id="Icons/Search" transform="translate(32.000000, 22.000000)">
                    <g id="zoom-(2)" transform="translate(2.000000, 2.000000)">
                        <path d="M8.4,0.8 C12.5973641,0.8 16,4.2026359 16,8.4 C16,10.0657059 15.4641308,11.6062528 14.5553809,12.8586521 L18.8485281,17.1514719 C19.3171573,17.620101 19.3171573,18.379899 18.8485281,18.8485281 C18.379899,19.3171573 17.620101,19.3171573 17.1514719,18.8485281 L17.1514719,18.8485281 L12.8586521,14.5553809 C11.6062528,15.4641308 10.0657059,16 8.4,16 C4.2026359,16 0.8,12.5973641 0.8,8.4 C0.8,4.2026359 4.2026359,0.8 8.4,0.8 Z M8.4,3.2 C5.5281193,3.2 3.2,5.5281193 3.2,8.4 C3.2,11.2718807 5.5281193,13.6 8.4,13.6 C11.2718807,13.6 13.6,11.2718807 13.6,8.4 C13.6,5.5281193 11.2718807,3.2 8.4,3.2 Z" id="Combined-Shape"></path>
                    </g>
                </g>
            </g>
        </g>
    </g>
</svg>