<svg width="20" height="21" xmlns="http://www.w3.org/2000/svg"><g fill="#FFF" fill-rule="nonzero"><path d="M17.304 3.1l-2.757 3.922a.731.731 0 0 0 0 .854l2.757 3.924H1.55c-.5 0-.906.36-.906.805 0 .445.406.806.906.806h17.387c.712 0 1.145-.696.768-1.233L16.383 7.45l3.322-4.728c.377-.537-.056-1.233-.768-1.233H1.55c-.5 0-.906.36-.906.806 0 .444.406.805.906.805h15.754z"/><path d="M.4 1.638v17.724c0 .407.39.738.873.738.482 0 .872-.33.872-.738V1.638c0-.407-.39-.738-.872-.738S.4 1.23.4 1.638z"/></g></svg>