<?xml version="1.0" encoding="UTF-8"?>
<svg width="4px" height="18px" viewBox="0 0 4 18" version="1.1" xmlns="http://www.w3.org/2000/svg" xmlns:xlink="http://www.w3.org/1999/xlink">
    <!-- Generator: sketchtool 57.1 (101010) - https://sketch.com -->
    <title>21634382-D5D7-4890-BD25-777B3677D516</title>
    <desc>Created with sketchtool.</desc>
    <g id="MOBILE" stroke="none" stroke-width="1" fill="none" fill-rule="evenodd">
        <g id="HE-Mobile---tab-bar" transform="translate(-329.000000, -75.000000)" fill="#FFFFFF" fill-rule="nonzero">
            <g id="Tab-bar-/-default" transform="translate(0.000000, 50.000000)">
                <g id="Icons/Search-Copy-2" transform="translate(319.000000, 22.000000)">
                    <path d="M7,11.9714286 C7,13.1142857 6.12056738,14 4.9858156,14 C3.87943262,14 3,13.1142857 3,11.9714286 C3,10.8857143 3.87943262,10 4.9858156,10 C6.12056738,10 7,10.8857143 7,11.9714286 Z M14,11.9714286 C14,13.1142857 13.1205674,14 11.9858156,14 C10.8794326,14 10,13.1142857 10,11.9714286 C10,10.8857143 10.8794326,10 11.9858156,10 C13.1205674,10 14,10.8857143 14,11.9714286 Z M21,11.9714286 C21,13.1142857 20.1205674,14 18.9858156,14 C17.8794326,14 17,13.1142857 17,11.9714286 C17,10.8857143 17.8794326,10 18.9858156,10 C20.1205674,10 21,10.8857143 21,11.9714286 Z" id="…" transform="translate(12.000000, 12.000000) rotate(90.000000) translate(-12.000000, -12.000000) "></path>
                </g>
            </g>
        </g>
    </g>
</svg>