<svg width="16" height="14" viewBox="0 0 16 14" fill="none" xmlns="http://www.w3.org/2000/svg">
<path fill-rule="evenodd" clip-rule="evenodd" d="M9.5 3C9.5 1.34315 10.8431 0 12.5 0C14.1569 0 15.5 1.34315 15.5 3C15.5 4.65685 14.1569 6 12.5 6C11.4056 6 10.448 5.41395 9.92403 4.53855L6.43876 5.89399C6.47891 6.08972 6.5 6.2924 6.5 6.5C6.5 6.80486 6.45453 7.0991 6.36999 7.37631L10.0775 9.23006C10.6233 8.48432 11.5051 8 12.5 8C14.1569 8 15.5 9.34315 15.5 11C15.5 12.6569 14.1569 14 12.5 14C10.8431 14 9.5 12.6569 9.5 11C9.5 10.6953 9.54541 10.4013 9.62983 10.1243L5.92215 8.27043C5.37634 9.01589 4.49471 9.5 3.5 9.5C1.84315 9.5 0.5 8.15685 0.5 6.5C0.5 4.84315 1.84315 3.5 3.5 3.5C4.59466 3.5 5.55239 4.08629 6.07629 4.96199L9.56136 3.60663C9.52113 3.41071 9.5 3.20782 9.5 3ZM12.5 1C11.3954 1 10.5 1.89543 10.5 3C10.5 4.10457 11.3954 5 12.5 5C13.6046 5 14.5 4.10457 14.5 3C14.5 1.89543 13.6046 1 12.5 1ZM3.5 4.5C2.39543 4.5 1.5 5.39543 1.5 6.5C1.5 7.60457 2.39543 8.5 3.5 8.5C4.60457 8.5 5.5 7.60457 5.5 6.5C5.5 5.39543 4.60457 4.5 3.5 4.5ZM10.5 11C10.5 9.89543 11.3954 9 12.5 9C13.6046 9 14.5 9.89543 14.5 11C14.5 12.1046 13.6046 13 12.5 13C11.3954 13 10.5 12.1046 10.5 11Z" fill="white"/>
</svg>
