<?xml version="1.0" encoding="UTF-8"?>
<svg width="12px" height="14px" viewBox="0 0 12 14" version="1.1" xmlns="http://www.w3.org/2000/svg" xmlns:xlink="http://www.w3.org/1999/xlink">
    <!-- Generator: Sketch 54.1 (76490) - https://sketchapp.com -->
    <title>icon/share</title>
    <desc>Created with Sketch.</desc>
    <g id="UI-KIT" stroke="none" stroke-width="1" fill="none" fill-rule="evenodd">
        <g transform="translate(-690.000000, -2838.000000)" fill="#FFFFFF" id="icon/share">
            <g transform="translate(689.000000, 2838.000000)">
                <g id="iconshare" transform="translate(1.166667, 0.000000)">
                    <path d="M9.3328047,4.66408488 C10.3189297,4.66452238 11.1987422,4.04414738 11.5299297,3.11533488 C11.8611172,2.18652238 11.5723672,1.14964738 10.8084922,0.525772375 C10.0446172,-0.0981026246 8.9709922,-0.173790125 8.1270547,0.336334875 C7.2831172,0.846459875 6.8513047,1.83214738 7.0486172,2.79858488 L3.6496797,5.07008488 C2.6784297,4.40464738 1.3637422,4.56783488 0.584554699,5.44983488 C-0.194632801,6.33183488 -0.195070301,7.65658488 0.584554699,8.53858488 C1.3641797,9.42058488 2.6788672,9.58333488 3.6496797,8.91833488 L7.0486172,11.1942099 C6.8219922,12.2870849 7.4012422,13.3873974 8.4306797,13.8187724 C9.4601172,14.2501474 10.6509922,13.8913974 11.2709297,12.9634599 C11.8908672,12.0350849 11.7661797,10.7978349 10.9734297,10.0120849 C10.1806797,9.22633488 8.9421172,9.11214738 8.0194297,9.74039738 L4.6204922,7.46889738 C4.6843672,7.15739738 4.6843672,6.83583488 4.6204922,6.52433488 L8.0194297,4.25895988 C8.4061797,4.52364738 8.8638047,4.66495988 9.3323672,4.66495988 L9.3328047,4.66408488 Z" id="Path" fill-rule="nonzero"></path>
                </g>
            </g>
        </g>
    </g>
</svg>