<?xml version="1.0" encoding="UTF-8"?>
<svg width="15px" height="15px" viewBox="0 0 15 15" version="1.1" xmlns="http://www.w3.org/2000/svg" xmlns:xlink="http://www.w3.org/1999/xlink">
    <!-- Generator: sketchtool 54.1 (76490) - https://sketchapp.com -->
    <title>D21E6514-382C-4D94-A9B7-991C9F5244FD</title>
    <desc>Created with sketchtool.</desc>
    <g id="visual" stroke="none" stroke-width="1" fill="none" fill-rule="evenodd">
        <g id="some-guidelines" transform="translate(-1425.000000, -146.000000)" fill="#00BDB5" fill-rule="nonzero" stroke="#00BDB5" stroke-width="0.6">
            <g id="Group-3-Copy" transform="translate(1421.000000, 141.000000)">
                <g id="full_screen">
                    <path d="M14.5468998,10.6295707 C13.9946151,10.6295707 13.5468998,10.1818555 13.5468998,9.62957075 L13.5468998,6.53418124 C13.5468998,6.23916109 13.7860609,6 14.0810811,6 C14.3761012,6 14.6152623,6.23916109 14.6152623,6.53418124 L14.6152623,9.56120827 L17.6422893,9.56120827 C17.9373095,9.56120827 18.1764706,9.80036935 18.1764706,10.0953895 C18.1764706,10.3904097 17.9373095,10.6295707 17.6422893,10.6295707 L14.5468998,10.6295707 Z M8.56120827,9.56120827 L8.56120827,6.53418124 C8.56120827,6.23916109 8.80036935,6 9.09538951,6 C9.39040966,6 9.62957075,6.23916109 9.62957075,6.53418124 L9.62957075,9.62957075 C9.62957075,10.1818555 9.1818555,10.6295707 8.62957075,10.6295707 L5.53418124,10.6295707 C5.23916109,10.6295707 5,10.3904097 5,10.0953895 C5,9.80036935 5.23916109,9.56120827 5.53418124,9.56120827 L8.56120827,9.56120827 Z M8.62957075,14.5468998 C9.1818555,14.5468998 9.62957075,14.9946151 9.62957075,15.5468998 L9.62957075,18.6422893 C9.62957075,18.9373095 9.39040966,19.1764706 9.09538951,19.1764706 C8.80036935,19.1764706 8.56120827,18.9373095 8.56120827,18.6422893 L8.56120827,15.6152623 L5.53418124,15.6152623 C5.23916109,15.6152623 5,15.3761012 5,15.0810811 C5,14.7860609 5.23916109,14.5468998 5.53418124,14.5468998 L8.62957075,14.5468998 Z M14.6152623,15.6152623 L14.6152623,18.6422893 C14.6152623,18.9373095 14.3761012,19.1764706 14.0810811,19.1764706 C13.7860609,19.1764706 13.5468998,18.9373095 13.5468998,18.6422893 L13.5468998,15.5468998 C13.5468998,14.9946151 13.9946151,14.5468998 14.5468998,14.5468998 L17.6422893,14.5468998 C17.9373095,14.5468998 18.1764706,14.7860609 18.1764706,15.0810811 C18.1764706,15.3761012 17.9373095,15.6152623 17.6422893,15.6152623 L14.6152623,15.6152623 Z" id="show-panels"></path>
                </g>
            </g>
        </g>
    </g>
</svg>