<svg width="15" height="15" xmlns="http://www.w3.org/2000/svg"><path d="M10.547 5.63a1 1 0 0 1-1-1V1.534a.534.534 0 0 1 1.068 0v3.027h3.027a.534.534 0 1 1 0 1.069h-3.095zM4.56 4.56V1.534a.534.534 0 1 1 1.069 0V4.63a1 1 0 0 1-1 1H1.534a.534.534 0 1 1 0-1.069h3.027zm.069 4.986a1 1 0 0 1 1 1v3.095a.534.534 0 1 1-1.069 0v-3.027H1.534a.534.534 0 0 1 0-1.068H4.63zm5.985 1.068v3.027a.534.534 0 1 1-1.068 0v-3.095a1 1 0 0 1 1-1h3.095a.534.534 0 1 1 0 1.068h-3.027z" fill="#00BDB5" fill-rule="nonzero" stroke="#00BDB5" stroke-width=".6"/></svg>