<?xml version="1.0" encoding="UTF-8"?>
<svg width="32px" height="13px" viewBox="0 0 32 13" version="1.1" xmlns="http://www.w3.org/2000/svg" xmlns:xlink="http://www.w3.org/1999/xlink">
    <title>8897435B-F068-4686-A7CB-D3D956A486CA</title>
    <g id="Page-1" stroke="none" stroke-width="1" fill="none" fill-rule="evenodd">
        <g id="HE-map---NRC-sidebar" transform="translate(-161.000000, -1678.000000)" fill="#222222" fill-rule="nonzero">
            <g id="Group-5" transform="translate(20.000000, 296.000000)">
                <g id="Group-37" transform="translate(0.000000, 1225.000000)">
                    <g id="Group-21" transform="translate(25.000000, 80.000000)">
                        <g id="Group-17" transform="translate(97.000000, 68.000000)">
                            <g id="Group-18" transform="translate(5.000000, 0.000000)">
                                <path d="M40.9990135,5 C40.591584,5 40.1852667,5.01111867 39.7803839,5.03328771 L40.2177626,13.0213225 C40.4770098,13.0071276 40.7374796,13 40.9990135,13 L40.9990135,5 Z M37.349401,5.30196147 C36.94658,5.36930838 36.5462961,5.44779028 36.1489157,5.53727486 L37.9063966,13.3418415 C38.1586028,13.2850482 38.412736,13.2352214 38.6685966,13.1924445 L37.349401,5.30196147 Z M33.7678906,6.21715449 C33.3823766,6.35127657 33.0009324,6.49608671 32.6239485,6.65138271 L35.6710771,14.0483421 C35.9102046,13.9498351 36.1521188,13.8579956 36.3965845,13.7729449 L33.7678906,6.21715449 Z M30.4233936,7.7048094 C30.0660497,7.90100908 29.7142933,8.10708929 29.3685172,8.32278067 L33.6025965,15.1104586 C33.8226176,14.9732119 34.0463791,14.8421188 34.2736277,14.717348 L30.4233936,7.7048094 Z M27.3396096,9.75319674 C27.0206729,10.0060723 26.708783,10.2677214 26.4043112,10.5378167 L31.7132197,16.5224211 C31.9074766,16.3500969 32.1064428,16.1831812 32.3098721,16.0218881 L27.3396096,9.75319674 Z M24.6262882,12.305069 C24.3543137,12.6079314 24.0907419,12.9182641 23.8359023,13.2356966 L30.074277,18.2439579 C30.2368338,18.0414743 30.4049861,17.8434898 30.5785179,17.6502501 L24.6262882,12.305069 Z M22.4567391,15.1559122 C22.2371315,15.4991304 22.0270615,15.8484295 21.8268028,16.2034177 L28.7945557,20.13412 C28.9219387,19.9083147 29.0556021,19.6860626 29.1953739,19.4676173 L22.4567391,15.1559122 Z M20.7350959,18.42222 C20.5759891,18.7977074 20.4273294,19.1777496 20.2893234,19.5619552 L27.8183445,22.2663669 C27.9058662,22.0227082 28.0001579,21.7816555 28.1010955,21.5434458 L20.7350959,18.42222 Z M19.590925,21.9134014 C19.4970148,22.3098619 19.4140891,22.7093276 19.3422846,23.1114297 L27.2177034,24.5177649 C27.263296,24.2624482 27.3159287,24.0089087 27.3755161,23.7573484 L19.590925,21.9134014 Z M19.0447844,25.5715893 C19.0187782,25.9762742 19.0038262,26.3824724 19,26.7898592 L26.9996472,26.864993 C27.0021011,26.6037223 27.011678,26.343549 27.0283166,26.0846338 L19.0447844,25.5715893 Z" id="Oval-Copy-4" transform="translate(29.999507, 15.932496) rotate(44.000000) translate(-29.999507, -15.932496) "></path>
                            </g>
                        </g>
                    </g>
                </g>
            </g>
        </g>
    </g>
</svg>