<?xml version="1.0" encoding="UTF-8"?>
<svg width="12px" height="11px" viewBox="0 0 12 11" version="1.1" xmlns="http://www.w3.org/2000/svg" xmlns:xlink="http://www.w3.org/1999/xlink">
    <!-- Generator: sketchtool 54.1 (76490) - https://sketchapp.com -->
    <title>196FB3AF-8B19-4591-AA06-ED929E1862CE</title>
    <desc>Created with sketchtool.</desc>
    <g id="visual" stroke="none" stroke-width="1" fill="none" fill-rule="evenodd">
        <g id="some-guidelines" transform="translate(-1389.000000, -232.000000)" fill="#FFFFFF" fill-rule="nonzero">
            <g id="Group-3-Copy" transform="translate(1383.000000, 141.000000)">
                <g id="loading" transform="translate(6.000000, 91.000000)">
                    <path d="M2.54826554,0.401304773 C1.11576979,1.48216807 0.25,3.17476437 0.25,5 C0.25,8.17563731 2.82436269,10.75 6,10.75 C9.17563731,10.75 11.75,8.17563731 11.75,5 C11.75,3.20231326 10.8722472,1.49473215 9.45748524,0.405687574 C9.12925555,0.153025456 8.65834969,0.214285075 8.40568757,0.542514764 C8.15302546,0.870744454 8.21428508,1.34165031 8.54251476,1.59431243 C9.59575863,2.40507037 10.25,3.67783217 10.25,5 C10.25,7.34721019 8.34721019,9.25 6,9.25 C3.65278981,9.25 1.75,7.34721019 1.75,5 C1.75,3.65138868 2.39030751,2.3995754 3.45173446,1.59869523 C3.78238471,1.34920917 3.84818128,0.87891578 3.59869523,0.548265537 C3.34920917,0.217615293 2.87891578,0.151818718 2.54826554,0.401304773 Z" id="Path"></path>
                </g>
            </g>
        </g>
    </g>
</svg>