<svg version="1.1" id="Layer_1" xmlns="http://www.w3.org/2000/svg" x="0" y="0" viewBox="0 0 26 24" style="enable-background:new 0 0 26 24" xml:space="preserve"><style>.st0{fill:#0a212e}</style><path class="st0" d="M21.3 11.7c-.3-.5-.9-.8-1.4-.7-.7 0-1.4-.4-1.7-1.1C16.8 7 15.1 5.5 13 5.5H9c-.3 0-.5.2-.5.5s.2.5.5.5h1c.1.9 0 3.1-1.3 4.1-.3.3-1.3-.4-1.8-.9-.1-.1-.3-.2-.4-.2-.2 0-.3.1-.4.1-.1.2-.6.8-.6 2.9s.5 2.7.6 2.9c.1.1.2.1.4.1.1 0 .3-.1.4-.2.5-.6 1.5-1.2 1.8-.9 1.4 1 1.4 3.2 1.3 4.1H9c-.3 0-.5.2-.5.5s.2.5.5.5h4c2.1 0 3.8-1.5 5.1-4.4.3-.7 1-1.1 1.6-1.1.6.1 1.2-.2 1.5-.7.4-.5.4-1.1.1-1.6zm-.9 1.1c-.1.2-.3.3-.6.2-1.1 0-2.2.6-2.6 1.7-.8 1.7-2.1 3.8-4.2 3.8h-2c.1-1.1 0-3.6-1.7-4.9-.9-.6-2 0-2.6.6-.1-.3-.2-.9-.2-1.7 0-.8.1-1.3.2-1.7.7.5 1.8 1.2 2.6.6 1.7-1.3 1.8-3.8 1.7-4.9h2c2.1 0 3.4 2.1 4.2 3.8.5 1 1.5 1.7 2.7 1.7.2 0 .4.1.5.2.1.2.1.4 0 .6z"/><path class="st0" d="M16.7 11.4v-.1c-.1-.3-.3-.4-.5-.5h-.4c-.3.1-.4.3-.5.5v.4c.1.3.3.4.5.5h.4c.3-.1.4-.3.5-.5v-.1s.1-.1 0-.2c.1.1 0 .1 0 0 0 .1.1.1 0 0 .1.1 0 0 0 0z"/></svg>