<svg version="1.1" id="Layer_1" xmlns="http://www.w3.org/2000/svg" x="0" y="0" viewBox="0 0 24 24" style="enable-background:new 0 0 24 24" xml:space="preserve"><style>.st0{fill:#0a212e}</style><path class="st0" d="M20.1 17.5c-.5-.4-1-1-1.4-1.6-1-1.5-1.5-5-1.5-7.7-.1-2.6-2.1-4.6-4.8-4.7-2.5.1-4.5 2.1-4.6 4.7 0 2.6-.5 6.2-1.5 7.7-.4.6-.8 1.1-1.4 1.6-.3.2-.4.6-.4.9 0 .4.3.7.5.8 1.3.8 3 .6 4.1-.5.1-.1.1-.2.2-.2.9.7 2 1 3.1.9h.2c1.1 0 2.1-.3 2.9-.9.1.1.1.2.2.3.7.6 1.5 1 2.4 1 .6 0 1.2-.1 1.7-.4.3-.2.5-.5.6-.8.1-.6 0-.9-.3-1.1zm-3.5.5c-.6-.6-.9-1.5-.9-2.3 0-.3-.2-.5-.5-.5s-.5.2-.5.5c0 .7.2 1.3.5 1.9-.8.5-1.7.8-2.6.8-.9 0-1.8-.2-2.6-.8.3-.6.5-1.2.5-1.9 0-.3-.2-.5-.5-.5s-.5.2-.5.5c0 .9-.4 1.7-.9 2.3-.8.8-2 .9-2.9.3.6-.5 1.1-1.1 1.6-1.8C8.4 14.9 9 11.1 9 8.3c.1-2.1 1.7-3.7 3.7-3.8 2.1.1 3.7 1.7 3.8 3.7 0 2.8.6 6.6 1.7 8.2.4.7 1 1.3 1.5 1.9-1.2.5-2.4.4-3.1-.3z"/><path class="st0" d="M14.6 9.3c-1.3 0-1.6-.7-1.7-.7-.1-.2-.3-.3-.5-.3s-.4.1-.5.3c0 0-.4.8-1.7.8-.3 0-.5.2-.5.5s.2.5.5.5V12c0 .7.2 1.4.6 1.9.1.1.2.2.4.2.1 0 .2 0 .3-.1.2-.2.2-.5.1-.7-.3-.4-.4-.8-.4-1.3v-1.8c.5-.1.9-.4 1.1-.6.2.2.6.4 1.1.6V12c0 .5-.1.9-.4 1.2-.2.2-.1.5.1.7.1.1.2.1.3.1.1 0 .3-.1.4-.2.4-.5.7-1.2.6-1.9v-1.6c.3 0 .5-.2.5-.5s0-.5-.3-.5zM10.5 7.6h.2c.2 0 .4-.1.5-.2.1-.1.2-.3.2-.5s-.1-.4-.2-.5c-.1-.1-.2-.1-.3-.2H10.6c-.3 0-.5.3-.6.5v.4c0 .3.2.5.5.5zM15.1 6.8c0-.2-.1-.3-.2-.5-.1-.1-.3-.2-.5-.2h-.1c-.3 0-.6.3-.6.5v.2c0 .4.2.6.6.7h.2c.2 0 .4-.1.5-.2 0 0 .1-.1.1-.3v-.2c0 .1 0 .1 0 0 0 .1 0 .1 0 0 0 .1 0 .1 0 0z"/></svg>