<svg width="16" height="16" xmlns="http://www.w3.org/2000/svg">
  <g fill="#0A212E" fill-rule="nonzero">
    <path d="M11.287 9.85c.42-.69.832-.947 1.245-.777.226.093.3.523.141 1.27-.061.29-.153.602-.266.924a10.445 10.445 0 0 1-.358.877.5.5 0 0 0 .902.433 11.436 11.436 0 0 0 .399-.977c.127-.36.23-.713.302-1.05.247-1.172.096-2.057-.74-2.401-.987-.406-1.835.123-2.48 1.182a.5.5 0 0 0 .855.52z"/>
    <path d="M5.429 10.118c.834-1.389.582-3.347-.299-5.976a1.167 1.167 0 0 1 .388-1.3L7.796 1.07a.333.333 0 0 1 .408 0l2.278 1.772c.393.306.55.827.389 1.298-.883 2.638-1.133 4.59-.3 5.978a.5.5 0 0 0 .858-.514c-.623-1.038-.397-2.793.39-5.145a2.166 2.166 0 0 0-.723-2.406L8.818.28a1.333 1.333 0 0 0-1.636 0L4.904 2.053a2.167 2.167 0 0 0-.721 2.41c.785 2.342 1.011 4.103.388 5.14a.5.5 0 1 0 .858.515z"/>
    <path d="M3.95 12.144a10.444 10.444 0 0 1-.357-.878 7.402 7.402 0 0 1-.266-.922c-.158-.748-.084-1.178.141-1.27.413-.17.824.086 1.245.777a.5.5 0 1 0 .854-.52c-.645-1.06-1.493-1.588-2.48-1.183-.835.345-.986 1.23-.738 2.402.07.337.174.69.302 1.05a11.436 11.436 0 0 0 .398.977.5.5 0 0 0 .902-.433z"/>
    <path d="M7.94 14.107h.12a6.273 6.273 0 0 0 1.918-.552c.046.156.107.319.187.483.396.816 1.134 1.323 2.22 1.323 1.296 0 2.166-.935 2.704-2.412a8.999 8.999 0 0 0 .397-1.517c.055-.31.084-.553.096-.697a.5.5 0 1 0-.997-.081c-.01.115-.035.328-.084.605-.08.461-.196.922-.351 1.347-.41 1.127-.995 1.755-1.765 1.755-.685 0-1.085-.275-1.32-.76a2.095 2.095 0 0 1-.204-.823.5.5 0 0 0-.764-.425A5.273 5.273 0 0 1 8 13.107a5.273 5.273 0 0 1-2.097-.754.5.5 0 0 0-.764.425 2.095 2.095 0 0 1-.203.823c-.236.485-.636.76-1.32.76-.77 0-1.355-.628-1.766-1.755A8.022 8.022 0 0 1 1.5 11.26a7.134 7.134 0 0 1-.084-.605.5.5 0 1 0-.997.08c.012.145.042.388.096.698.09.515.22 1.03.397 1.517.538 1.477 1.408 2.412 2.704 2.412 1.086 0 1.824-.507 2.22-1.323.08-.164.141-.327.187-.483a6.273 6.273 0 0 0 1.918.552zM4.26 4.44c-.203.782-.494 1.17-.89 1.17-.216 0-.49-.217-.761-.614a4.098 4.098 0 0 1-.393-.733.5.5 0 1 0-.932.362c.094.24.26.585.498.934.439.644.954 1.052 1.589 1.052.996 0 1.551-.745 1.856-1.92a.5.5 0 0 0-.968-.251z"/>
    <path d="M.777 3.195a.5.5 0 1 0-.554.832l1.25.833a.5.5 0 0 0 .751-.258l.417-1.25a.5.5 0 1 0-.949-.316l-.21.629-.705-.47zM10.773 4.691c.305 1.175.86 1.92 1.856 1.92.635 0 1.15-.408 1.589-1.052a4.86 4.86 0 0 0 .498-.934.5.5 0 0 0-.932-.362 4.098 4.098 0 0 1-.393.733c-.27.397-.545.615-.762.615-.395 0-.685-.39-.888-1.171a.5.5 0 0 0-.968.251z"/>
    <path d="M14.308 3.036a.5.5 0 0 0-.949.316l.417 1.25a.5.5 0 0 0 .751.258l1.25-.833a.5.5 0 1 0-.554-.832l-.706.47-.21-.629zM7.5 5.86v3.5a.5.5 0 1 0 1 0v-3.5a.5.5 0 0 0-1 0z"/>
  </g>
</svg>
