<svg width="16" height="16" xmlns="http://www.w3.org/2000/svg">
  <g fill="#0A212E" fill-rule="nonzero">
    <path d="M4.44.007A3.414 3.414 0 0 0 .94 3.48v4.99a1.851 1.851 0 0 0 1.893 1.882.47.47 0 1 0-.021-.941.91.91 0 0 1-.93-.93v-5.01A2.473 2.473 0 0 1 4.402.947a2.335 2.335 0 0 1 1.466.658.47.47 0 0 0 .661-.005A2.246 2.246 0 0 1 8.021.94l.971.001a.47.47 0 0 1 .47.458c.03 1.797-.332 3.127-1.106 3.321-.583.146-.965.148-1.175.064-.084-.034-.11-.064-.12-.1a.47.47 0 0 0-.905.257c.205.723 1.01 1.046 2.429.692 1.405-.352 1.855-2.008 1.819-4.254A1.413 1.413 0 0 0 8.992 0H8a3.21 3.21 0 0 0-1.807.648A3.286 3.286 0 0 0 4.44.007z"/>
    <path d="M9.882 2.824h3.765c.888 0 1.412.838 1.412 1.882v2.353a.47.47 0 0 0 .941 0V4.706c0-1.498-.829-2.824-2.353-2.824H9.882a.47.47 0 0 0 0 .942zM5.647 14.588V8.941a2.984 2.984 0 0 0-2.235-2.808.47.47 0 0 0-.235.91 2.04 2.04 0 0 1 1.53 1.913l-.001 5.632a.47.47 0 0 0 .941 0zM8.539 7.226a2.35 2.35 0 0 0-1.48 2.187v3.293a1.392 1.392 0 0 0 1.422 1.412.47.47 0 0 0-.02-.941.451.451 0 0 1-.461-.461V9.412a1.408 1.408 0 0 1 2.432-.97c.17.18.45.198.64.041.343-.28.761-.448 1.202-.485.436.002.432-.004.432.473 0 .434-.021.733-.104 1.062-.109.435-.298.73-.577.87a1 1 0 0 1-.962-.108.47.47 0 0 0-.541.77 1.948 1.948 0 0 0 1.902.19c.585-.292.922-.817 1.091-1.494.106-.424.132-.784.132-1.29 0-.935-.318-1.412-1.412-1.412-.526.042-1.009.2-1.43.46a2.35 2.35 0 0 0-2.266-.293z"/>
    <path d="M10.824 13.176h4.705a.47.47 0 1 0 0-.94h-5.176a.47.47 0 0 0-.47.47v1.882a.47.47 0 0 0 .94 0v-1.412zM13.176 9.47h2.353c.26 0 .471-.223.471-.5 0-.276-.21-.5-.47-.5h-2.354c-.26 0-.47.224-.47.5 0 .277.21.5.47.5z"/>
    <path d="M9.422 12.235a.451.451 0 0 1 .46.46.47.47 0 1 0 .941.02 1.392 1.392 0 0 0-1.421-1.42.47.47 0 0 0 .02.94zM4 3.765a.706.706 0 1 0 0-1.412.706.706 0 0 0 0 1.412z"/>
  </g>
</svg>
