<svg version="1.1" id="Layer_1" xmlns="http://www.w3.org/2000/svg" x="0" y="0" viewBox="0 0 24 24" style="enable-background:new 0 0 24 24" xml:space="preserve"><style>.st0{fill:#0a212e}</style><path class="st0" d="M18.5 13.8c-.3 0-.5.2-.5.5 0 .1 0 .3-.1.6-.1.5-.2 1-.3 1.4-.4 1.2-.9 1.8-1.7 1.8-.6 0-1-.3-1.2-.8-.1-.2-.1-.4-.2-.6v-.3c0-.4-.4-.7-.7-.4-.6.4-1.3.7-2 .8-.7-.1-1.4-.4-2-.8-.3-.2-.7 0-.7.4v.3c-.1.3-.1.5-.2.6-.2.5-.6.8-1.2.8-.7 0-1.3-.6-1.7-1.8-.1-.4-.3-.9-.3-1.4 0-.3-.1-.5-.1-.6 0-.3-.2-.5-.5-.5s-.5.3-.4.6c0 .1 0 .4.1.7.1.5.2 1.1.4 1.6.5 1.5 1.3 2.5 2.5 2.5 1 0 1.7-.5 2.1-1.4.1-.2.1-.3.2-.5.6.3 1.2.5 1.8.6h.1c.6-.1 1.2-.3 1.8-.6 0 .2.1.3.2.5.4.8 1.1 1.4 2.1 1.4 1.2 0 2-1 2.5-2.5.2-.5.3-1 .4-1.6.1-.3.1-.6.1-.7-.1-.3-.3-.5-.5-.6z"/><path class="st0" d="M19.2 7.5c-.1-.3-.4-.3-.7-.2l-.7.5-.2-.7c-.1-.3-.3-.5-.6-.4-.2.1-.4.4-.3.7l.3 1.1c0 .3-.1.5-.2.6-.3.4-.5.7-.7.7-.3 0-.6-.4-.8-1.1v-.1c.3-.9 0-1.8-.7-2.4l-2.1-1.7c-.5-.4-1.1-.4-1.5 0L8.9 6.3c-.7.6-1 1.5-.7 2.4v.1c-.2.6-.5 1-.8 1-.2 0-.5-.2-.7-.7-.1-.1-.2-.3-.3-.5l.3-1.1c.1-.3-.1-.6-.3-.7-.2-.1-.5.1-.6.4l-.2.7-.6-.6c-.2-.1-.5-.1-.7.2-.1.3-.1.6.1.8l1.2 1h.1c.1.1.1.3.2.5.4.7.9 1.2 1.5 1.2.5 0 .9-.3 1.2-.7.2.8.3 1.5.3 2.1-.5-.5-1.1-.7-1.7-.4-.8.4-.9 1.3-.7 2.5.1.3.2.7.3 1.1 0 .2.1.4.2.6.1.1.1.2.1.3.1.3.4.4.6.2.3-.1.4-.4.3-.6 0 0-.1-.1-.1-.3-.1-.2-.2-.4-.2-.7-.1-.3-.2-.7-.3-1-.1-.8-.1-1.2.1-1.3.4-.2.7.1 1.1.7 0 0 0 .1-.1.1-.1.2-.1.5.2.7.2.1.5.1.6-.2.8-1.3.6-3.1-.2-5.6 0-.1 0-.3-.1-.3-.1-.5 0-1 .4-1.3l2.1-1.7c.1-.1.3-.1.4 0L14.1 7c.4.3.5.8.4 1.3-.1.1-.1.2-.1.3-.7 2.4-.9 4.3-.2 5.6.1.2.4.3.6.2s.3-.4.2-.7c0 0 0-.1-.1-.1.4-.6.7-.9 1.1-.7.2.1.3.5.1 1.3-.1.3-.1.6-.3 1-.1.2-.2.5-.2.7 0 .1-.1.2-.1.3-.1.3 0 .6.2.7s.5 0 .6-.2c0-.1.1-.2.1-.3.1-.2.2-.5.3-.7.1-.4.2-.7.3-1.1.2-1.2.1-2.1-.7-2.5-.6-.3-1.2-.1-1.7.4 0-.6.1-1.3.3-2.1.3.5.7.7 1.2.7.6 0 1.1-.5 1.5-1.2.1-.2.2-.3.2-.5h.1l1.2-1c.2-.3.3-.6.1-.9z"/><path class="st0" d="M12.2 13.5V9.8c0-.3-.2-.5-.5-.5s-.5.2-.5.5v3.7c0 .3.2.5.5.5s.5-.2.5-.5z"/></svg>