<svg version="1.1" id="Layer_1" xmlns="http://www.w3.org/2000/svg" x="0" y="0" viewBox="0 0 24 24" style="enable-background:new 0 0 24 24" xml:space="preserve"><style>.st0{fill:#0a212e}</style><path class="st0" d="M11.8 10.3c1-.3 1.5-1.3 1.7-2.8h3.1c.8 0 1.3.9 1.3 1.9v2.4c0 .3.2.5.4.5s.4-.2.4-.5V9.4c0-1.5-.8-2.9-2.2-2.9h-3.1v-.4c0-.8-.6-1.4-1.3-1.4h-.9c-.6 0-1.2.3-1.7.6-.4-.3-1-.5-1.6-.6-.9 0-1.7.3-2.4 1-.5.6-.9 1.5-.8 2.4V13c0 .5.2 1 .5 1.3.3.4.8.5 1.3.5.2 0 .4-.2.4-.5s-.2-.5-.5-.5c-.2 0-.5-.1-.6-.3s-.3-.4-.3-.7V7.9c0-.7.2-1.3.7-1.8.4-.5 1.1-.7 1.7-.7.5 0 1 .3 1.4.6.2.2.5.2.6 0 .4-.4.9-.6 1.4-.7h.9c.2 0 .4.2.4.5V6.8c-.1 1.3-.4 2.2-1 2.3-.5.1-.9.1-1.1.1-.1 0-.1-.1-.1-.1-.1 0-.3-.2-.5-.1-.3.1-.4.3-.3.6.2.7.9 1 2.2.7z"/><path class="st0" d="M7 10.5c-.2-.1-.5.1-.5.3-.1.3.1.5.3.6.8.2 1.4 1 1.4 1.9v5.6c0 .3.2.5.4.5s.4-.2.4-.5v-5.6c0-1.4-.8-2.5-2-2.8zM18.4 16.2h-4.6c-.1-.1-.1-.3-.2-.4-.3-.3-.6-.5-1-.5-.2 0-.4.3-.4.6s.2.6.5.5c.1 0 .2.1.3.2.1.1.1.2.1.4v1.8c0 .3.2.5.4.5s.4-.2.4-.5v-1.6h4.4c.2 0 .4-.2.4-.5s-.1-.5-.3-.5z"/><path class="st0" d="M18.6 13h-2v-.2c0-.9-.3-1.4-1.3-1.4-.5 0-.9.2-1.3.5-.6-.5-1.4-.6-2.1-.3-.8.4-1.4 1.2-1.4 2.2v3.3c0 .4.1.7.4 1 .3.3.6.4 1 .4.2 0 .4-.2.4-.5s-.2-.5-.5-.5c-.1 0-.2 0-.3-.1-.1-.1-.1-.2-.1-.3v-3.3c0-.6.3-1.1.8-1.3.5-.2 1.1-.1 1.5.3.2.2.4.2.6 0 .3-.3.7-.5 1.1-.5.4 0 .4 0 .4.5 0 .4 0 .7-.1 1.1-.1.4-.3.7-.5.9-.3.1-.6.1-.9-.1-.2-.2-.5-.1-.6.1-.1.2-.1.5.1.7.5.4 1.2.5 1.8.2.5-.3.9-.8 1-1.5v-.1h2.1c.2 0 .4-.2.4-.5s-.3-.6-.5-.6z"/><ellipse class="st0" cx="7.5" cy="7.8" rx=".7" ry=".9"/></svg>