<svg width="16" height="16" xmlns="http://www.w3.org/2000/svg">
  <g fill="#0A212E" fill-rule="nonzero">
    <path d="M1.509 10.665c.861-2.641 2.89-4.444 6.595-5.168a.5.5 0 0 0 .312-.78 2.155 2.155 0 0 1-.398-1.223c0-1.356 1.327-2.494 3-2.494 1.835 0 3 .769 3 2 0 .311-.05.465-.102.52l.006-.004a.14.14 0 0 1 .048-.013h-.006a.5.5 0 0 0 .054.997.858.858 0 0 0 .604-.271c.26-.26.396-.669.396-1.229 0-1.892-1.68-3-4-3-2.194 0-4 1.548-4 3.5.005.402.084.795.233 1.16-3.655.881-5.773 2.875-6.693 5.695-.47 1.439-.57 2.674-.545 4.655.004.3.005.37.005.49a.5.5 0 0 0 .533.499c.078-.005.215-.019.403-.043.307-.041.65-.1 1.017-.181 1.05-.23 2.1-.59 3.085-1.109 2.4-1.263 4.02-3.253 4.456-6.09a.5.5 0 1 0-.988-.152c-.384 2.498-1.796 4.232-3.934 5.357-.899.473-1.866.805-2.834 1.017-.264.058-.513.104-.743.14-.022-1.843.074-2.981.496-4.273z"/>
    <path d="M12.693 6.38a2.418 2.418 0 0 0 3.14 0 .5.5 0 0 0 .175-.403 2.725 2.725 0 0 0-1.825-2.45.5.5 0 0 0-.165-.027 1.63 1.63 0 0 0-.8.223c-.696.399-.981 1.213-.685 2.398a.5.5 0 0 0 .16.26zm1.022-1.788a.746.746 0 0 1 .231-.084c.536.221.921.696 1.032 1.258a1.419 1.419 0 0 1-1.513-.053c-.136-.66-.011-.972.25-1.121zM11.767 3a.5.5 0 0 0-.5-.5.75.75 0 0 0-.75.75.5.5 0 0 0 .955.206.5.5 0 0 0 .295-.456z"/>
    <path d="M11.518 3.75a.5.5 0 0 0 .5-.5.75.75 0 0 0-.754-.75.5.5 0 0 0-.201.957.5.5 0 0 0 .455.293z"/>
    <path d="M10.767 3.5a.5.5 0 0 0 .5.5.75.75 0 0 0 .75-.75.5.5 0 0 0-.956-.206.5.5 0 0 0-.294.456z"/>
    <path d="M11.018 2.75a.5.5 0 0 0-.5.5c0 .414.336.75.75.75a.5.5 0 0 0 .206-.956.5.5 0 0 0-.456-.294zM12.525 6.081a6.28 6.28 0 0 1-1.853 5.558 8.921 8.921 0 0 1-3.28 2.229.5.5 0 0 0 .364.931 9.88 9.88 0 0 0 3.627-2.458 7.265 7.265 0 0 0 2.128-6.422.5.5 0 0 0-.986.162z"/>
    <path d="M10.453 12.154l.572 3.428a.5.5 0 0 0 .986-.164l-.571-3.429a.5.5 0 1 0-.987.165zM9.018 13.288V15.5a.5.5 0 1 0 1 0v-2.212a.5.5 0 1 0-1 0z"/>
  </g>
</svg>
