<svg version="1.1" id="Layer_1" xmlns="http://www.w3.org/2000/svg" x="0" y="0" viewBox="0 0 24 24" style="enable-background:new 0 0 24 24" xml:space="preserve"><style>.st0{fill:#0a212e}</style><path class="st0" d="M18.2 7.9c.1-.2.1-.5.1-.8 0-1.8-1.6-2.9-3.8-2.9-2.1 0-3.8 1.5-3.8 3.4 0 .4.1.8.2 1.1-3.4.9-5.4 2.8-6.3 5.5-.4 1.4-.5 2.6-.5 4.5v.5c0 .3.2.5.5.5H5c.3 0 .6-.1 1-.2 1-.2 2-.6 2.9-1.1 2.3-1.2 3.8-3.2 4.2-5.9 0-.3-.1-.5-.4-.6-.3 0-.5.1-.5.4-.4 2.4-1.7 4.1-3.7 5.2-.8.5-1.8.8-2.7 1-.2.1-.5.1-.7.1 0-1.8.1-2.9.5-4.1.8-2.6 2.7-4.3 6.2-5 .3-.1.5-.5.3-.8-.2-.3-.4-.8-.4-1.2 0-1.3 1.2-2.4 2.8-2.4 1.7 0 2.8.7 2.8 1.9v.4c-.2 0-.4.1-.7.2-.6.6-.8 1.5-.6 2.8v.1c.2 1.9-.5 3.8-1.8 5.1-.9 1-1.9 1.7-3.1 2.2-.2.1-.4.4-.3.6.1.3.4.4.6.3l1.2-.6v1.2c0 .3.2.5.5.5s.5-.2.5-.5v-1.5c0-.1 0-.2-.1-.3.3-.2.5-.4.7-.6l.3 2.5c0 .3.3.5.5.4.3 0 .4-.3.4-.6L15 16c1.2-1.3 1.8-3 1.9-4.8.7.2 1.5.1 2.1-.5.1-.1.2-.3.2-.4.1-1-.3-1.8-1-2.4zm-1.2 2v-.1c0-.1 0-.1-.1-.2 0-.5.1-.8.3-.9.1-.1.2-.1.2-.1.5.2.9.8 1 1.4-.5.3-1 .2-1.4-.1z"/><path class="st0" d="M14.3 8c.1.2.2.3.4.4.1 0 .1.1.2.1s.1 0 .2-.1c.2-.1.3-.2.4-.4.1-.1.1-.3.1-.5v-.1c0-.2-.1-.3-.1-.5 0 0 0-.1-.1-.1-.1-.2-.3-.2-.4-.3h-.2c-.2 0-.4.2-.5.4-.1.1-.1.3-.1.5v.1c-.1.3 0 .4.1.5z"/></svg>