<svg width="16" height="16" xmlns="http://www.w3.org/2000/svg">
  <g fill="#0A212E" fill-rule="nonzero">
    <path d="M8 16c2.513 0 4.5-2.484 4.5-5.5S10.513 5 8 5s-4.5 2.484-4.5 5.5S5.487 16 8 16zm0-1c-1.905 0-3.5-1.993-3.5-4.5C4.5 7.993 6.095 6 8 6s3.5 1.993 3.5 4.5c0 2.507-1.595 4.5-3.5 4.5z"/>
    <path d="M7.5 5.653c.015-.757-.07-1.28-.269-1.975l-.062-.215c-.023-.08-.04-.14-.055-.199A2.8 2.8 0 0 1 7 2.5C7 1.788 7.68 1 8 1c.32 0 1 .788 1 1.5 0 .248-.035.468-.113.76l-.056.2-.062.214c-.2.698-.284 1.222-.268 1.98a.5.5 0 0 0 1-.021c-.014-.646.055-1.075.23-1.684l.061-.212c.025-.087.044-.153.061-.218.099-.37.147-.673.147-1.019C10 1.266 8.907 0 8 0S6 1.266 6 2.5c0 .348.048.651.147 1.022l.061.218.062.213c.173.606.243 1.035.23 1.68a.5.5 0 0 0 1 .02zM3.5 5c.667 0 1.287.702 1.52 1.638a.5.5 0 1 0 .97-.241C5.66 5.065 4.719 4 3.5 4 1.619 4 0 6.338 0 9c0 .26.2.478.46.498a2.667 2.667 0 0 0 2.462-1.23.5.5 0 0 0-.844-.536 1.667 1.667 0 0 1-1.053.736C1.21 6.538 2.368 5 3.5 5zM13.922 7.732a.5.5 0 1 0-.844.536 2.667 2.667 0 0 0 2.461 1.23A.5.5 0 0 0 16 9c0-2.662-1.619-5-3.5-5-1.219 0-2.16 1.065-2.49 2.397a.5.5 0 0 0 .97.24C11.214 5.703 11.834 5 12.5 5c1.132 0 2.29 1.538 2.475 3.468a1.667 1.667 0 0 1-1.053-.736zM2.256 12.204c.223-.5.837-.578 1.629-.206a.5.5 0 1 0 .425-.905c-1.234-.58-2.466-.424-2.967.704a3.895 3.895 0 0 0 .505 4.014.5.5 0 0 0 .392.189c.219 0 .497-.079.764-.307.395-.337.615-.9.615-1.693a.5.5 0 1 0-1 0c0 .451-.083.723-.206.873a2.896 2.896 0 0 1-.157-2.669zM13.381 14a.5.5 0 1 0-1 0c0 .793.22 1.356.615 1.693.267.228.545.307.764.307a.5.5 0 0 0 .392-.189 3.895 3.895 0 0 0 .504-4.015c-.5-1.127-1.732-1.283-2.966-.703a.5.5 0 1 0 .425.905c.792-.372 1.406-.294 1.628.205.39.87.324 1.866-.156 2.67-.123-.15-.206-.422-.206-.873z"/>
    <path d="M5.022 6.952a.5.5 0 1 0-.447.895l3.201 1.6a.5.5 0 0 0 .448 0l3.2-1.6a.5.5 0 1 0-.446-.895L8 8.441 5.022 6.952z"/>
    <path d="M6.856 8.34l-2.835 3.97a.5.5 0 0 0 .814.581L7.67 8.922a.5.5 0 1 0-.814-.581zM8.33 8.922l2.835 3.97a.5.5 0 1 0 .814-.582L9.144 8.34a.5.5 0 0 0-.814.582z"/>
    <path d="M5.645 10.763a.5.5 0 1 0-.447.895l2.578 1.29a.5.5 0 0 0 .448 0l2.578-1.29a.5.5 0 0 0-.447-.895L8 11.941l-2.355-1.178z"/>
    <path d="M7.237 12.018l-1.664 2.217a.5.5 0 1 0 .8.6l1.664-2.217a.5.5 0 1 0-.8-.6z"/>
    <path d="M7.953 12.524l1.251 2.502a.5.5 0 0 0 .895-.447l-1.252-2.503a.5.5 0 0 0-.894.448z"/>
  </g>
</svg>
