<svg version="1.1" id="Layer_1" xmlns="http://www.w3.org/2000/svg" x="0" y="0" viewBox="0 0 24 24" style="enable-background:new 0 0 24 24" xml:space="preserve"><style>.st0{fill:#0a212e}</style><path class="st0" d="M16.2 7.7c.6-1.1-.2-2.7-.3-2.9-.1-.2-.2-.3-.4-.3s-.4.1-.4.2c-.3.5-.9.8-1.6.8H8c-2.1 0-3.5 1.2-3.5 3s1.4 3 3.5 3h1.2c-.5.6-.7 1.3-.7 2v.8c-.8.6-1.2 1.5-1 2.3.5 1.4 1.6 3.8 3.5 3.8s3-2.4 3.5-3.8c.2-.7-.1-1.5-.7-2.1h1.3c1.9 0 3.5-1.6 3.5-3.5-.1-1.5-1.1-2.8-2.4-3.3zM15 13.5h-1c-.6 0-1 .2-1.2.4h-.1c-.3-.1-.5 0-.7.3-.1.3 0 .5.3.7.9.4 1.4 1.1 1.2 1.6-.2.7-1.2 3.2-2.5 3.2s-2.3-2.4-2.5-3.2c-.1-.4.3-1.2 1.2-1.6.3-.1.4-.4.3-.7-.1-.2-.3-.3-.5-.3v-.3c0-.5.2-1.1.5-1.4.4-.4.9-.6 1.4-.5h3.1c.3 0 .5-.2.5-.5s-.2-.5-.5-.5H8c-1.2 0-2.5-.5-2.5-2s1.3-2 2.5-2h5.5c.7.1 1.3-.2 1.9-.6.1.5.2 1 0 1.3-.1.2-.4.3-.8.3H8c-.3-.2-.5 0-.5.3s.2.5.5.5h7c1.4 0 2.5 1.1 2.5 2.5s-1.1 2.5-2.5 2.5z"/><path class="st0" d="M10.5 16.1c-.1-.3-.3-.4-.5-.5h-.4c-.3.1-.4.3-.5.5v.4c.1.3.3.4.5.5h.4c.3-.1.4-.3.5-.5v-.4zM11.5 16.1v.4c.1.3.3.4.5.5h.4c.3-.1.4-.3.5-.5v-.4c-.1-.3-.3-.4-.5-.5H12c-.2 0-.4.2-.5.5z"/></svg>