<svg width="30" height="30" viewBox="0 0 30 30" fill="none" xmlns="http://www.w3.org/2000/svg">
<circle cx="15" cy="15" r="15" fill="white" fill-opacity="0.1"/>
<path fill-rule="evenodd" clip-rule="evenodd" d="M24 9.23149C23.3382 9.52547 22.6261 9.72345 21.8791 9.81284C22.6417 9.35567 23.2273 8.63212 23.5026 7.76998C22.7899 8.19355 21.9985 8.50013 21.158 8.66632C20.4842 7.94877 19.5237 7.5 18.4624 7.5C16.4231 7.5 14.7696 9.15349 14.7696 11.1928C14.7696 11.4819 14.8026 11.7639 14.8656 12.0345C11.7962 11.8809 9.0754 10.4104 7.25392 8.17615C6.93594 8.72152 6.75415 9.35568 6.75415 10.0324C6.75415 11.3134 7.40511 12.4437 8.39684 13.106C7.79088 13.0868 7.22212 12.9206 6.72355 12.6441V12.6903C6.72355 14.4799 7.99727 15.972 9.68555 16.3122C9.37597 16.3962 9.0496 16.4418 8.71302 16.4418C8.47483 16.4418 8.24325 16.4184 8.01766 16.3752C8.48743 17.8421 9.85174 18.91 11.4674 18.94C10.2039 19.93 8.61162 20.5209 6.88134 20.5209C6.58256 20.5209 6.28858 20.5035 6 20.4687C7.63429 21.5163 9.57516 22.1282 11.6606 22.1282C18.4528 22.1282 22.1671 16.5012 22.1671 11.6217C22.1671 11.4615 22.1641 11.3019 22.1563 11.1442C22.8787 10.6222 23.505 9.97184 24 9.23149Z" fill="white"/>
</svg>
