<svg width="18" height="16" viewBox="0 0 18 16" fill="none" xmlns="http://www.w3.org/2000/svg">
<path fill-rule="evenodd" clip-rule="evenodd" d="M18 2.23149C17.3382 2.52547 16.6261 2.72345 15.8791 2.81284C16.6417 2.35567 17.2273 1.63212 17.5026 0.76998C16.7899 1.19355 15.9985 1.50013 15.158 1.66632C14.4842 0.94877 13.5237 0.5 12.4624 0.5C10.4231 0.5 8.76961 2.15349 8.76961 4.19275C8.76961 4.48193 8.80261 4.76391 8.86561 5.0345C5.79621 4.88091 3.0754 3.4104 1.25392 1.17615C0.935938 1.72152 0.75415 2.35568 0.75415 3.03244C0.75415 4.31335 1.40511 5.44368 2.39684 6.10603C1.79088 6.08683 1.22212 5.92064 0.72355 5.64406V5.69025C0.72355 7.47993 1.99727 8.97204 3.68555 9.31221C3.37597 9.39621 3.0496 9.44181 2.71302 9.44181C2.47483 9.44181 2.24325 9.4184 2.01766 9.37521C2.48743 10.8421 3.85174 11.91 5.46744 11.94C4.20392 12.93 2.61162 13.5209 0.88134 13.5209C0.58256 13.5209 0.288581 13.5035 0 13.4687C1.63429 14.5163 3.57516 15.1282 5.66062 15.1282C12.4528 15.1282 16.1671 9.5012 16.1671 4.62172C16.1671 4.46153 16.1641 4.30195 16.1563 4.14416C16.8787 3.62219 17.505 2.97184 18 2.23149Z" fill="white"/>
</svg>
