
<svg width="16" height="13" viewBox="0 0 16 13" fill="none" xmlns="http://www.w3.org/2000/svg">
<path fill-rule="evenodd" clip-rule="evenodd" d="M8.09073 0.330492C8.5855 -0.0474132 9.2479 -0.107675 9.80187 0.183042C10.3586 0.47538 10.6944 1.06194 10.6943 1.68592C10.6943 1.68598 10.6943 1.68587 10.6943 1.68592V10.6C10.6943 11.224 10.3585 11.8103 9.80181 12.1026C9.24795 12.3934 8.58561 12.3332 8.0908 11.9555L3.58191 8.94292H1.6327C0.705066 8.94292 0 8.16165 0 7.25723V5.02871C0 4.12428 0.705066 3.34301 1.6327 3.34301H3.58191L8.09073 0.330492ZM9.27065 1.19494C9.11274 1.11214 8.92479 1.12807 8.77849 1.24335C8.76677 1.25259 8.75469 1.26136 8.74228 1.26965L4.0727 4.38958C3.97873 4.45237 3.86825 4.48588 3.75524 4.48588H1.6327C1.38809 4.48588 1.14286 4.70235 1.14286 5.02871V7.25723C1.14286 7.58358 1.38809 7.80006 1.6327 7.80006H3.75524C3.86825 7.80006 3.97873 7.83357 4.0727 7.89635L8.74228 11.0163C8.75464 11.0245 8.76667 11.0333 8.77835 11.0425C8.9247 11.1577 9.11268 11.1736 9.27059 11.0907C9.43299 11.0054 9.55142 10.8202 9.55142 10.6V1.68592C9.55149 1.46579 9.43299 1.28027 9.27065 1.19494Z" fill="white"/>
<path fill-rule="evenodd" clip-rule="evenodd" d="M14.3988 3.16619C14.6685 3.0023 15.02 3.08807 15.1839 3.35777C16.272 5.14841 16.272 7.43481 15.1839 9.22545C15.02 9.49515 14.6685 9.58092 14.3988 9.41703C14.1291 9.25313 14.0433 8.90164 14.2072 8.63194C15.0738 7.20595 15.0738 5.37727 14.2072 3.95128C14.0433 3.68158 14.1291 3.33008 14.3988 3.16619Z" fill="white"/>
<path fill-rule="evenodd" clip-rule="evenodd" d="M12.2931 4.23183C12.5427 4.03869 12.9016 4.08447 13.0947 4.33407C13.9916 5.49325 13.9916 7.14649 13.0947 8.30567C12.9016 8.55527 12.5427 8.60105 12.2931 8.40792C12.0435 8.21478 11.9977 7.85588 12.1908 7.60628C12.7691 6.85892 12.7691 5.78082 12.1908 5.03346C11.9977 4.78386 12.0435 4.42496 12.2931 4.23183Z" fill="white"/>
<path fill-rule="evenodd" clip-rule="evenodd" d="M3.75502 3.34277C4.07062 3.34277 4.32646 3.59861 4.32646 3.9142V8.37125C4.32646 8.68684 4.07062 8.94268 3.75502 8.94268C3.43943 8.94268 3.18359 8.68684 3.18359 8.37125V3.9142C3.18359 3.59861 3.43943 3.34277 3.75502 3.34277Z" fill="white"/>
</svg>
