<svg width="20" height="18" viewBox="0 0 20 18" fill="none" xmlns="http://www.w3.org/2000/svg">
<path fill-rule="evenodd" clip-rule="evenodd" d="M7.83474 1.75C8.79699 0.0833331 11.2026 0.0833335 12.1649 1.75L19.0931 13.75C20.0553 15.4167 18.8525 17.5 16.928 17.5H3.0716C1.1471 17.5 -0.055713 15.4167 0.906537 13.75L7.83474 1.75ZM11.2988 2.25C10.7215 1.25 9.27812 1.25 8.70077 2.25L1.77256 14.25C1.19521 15.25 1.9169 16.5 3.0716 16.5H16.928C18.0827 16.5 18.8044 15.25 18.227 14.25L11.2988 2.25ZM9.9998 6.5C10.2759 6.5 10.4998 6.72386 10.4998 7V11C10.4998 11.2761 10.2759 11.5 9.9998 11.5C9.72366 11.5 9.4998 11.2761 9.4998 11V7C9.4998 6.72386 9.72366 6.5 9.9998 6.5ZM9.4998 13C9.4998 12.7239 9.72366 12.5 9.9998 12.5H10.0098C10.2859 12.5 10.5098 12.7239 10.5098 13C10.5098 13.2761 10.2859 13.5 10.0098 13.5H9.9998C9.72366 13.5 9.4998 13.2761 9.4998 13Z" />
</svg>
