<svg width="40" height="40" viewBox="0 0 40 40" fill="none" xmlns="http://www.w3.org/2000/svg">
<rect width="40" height="40" rx="20" fill="white" fill-opacity="0.1"/>
<path fill-rule="evenodd" clip-rule="evenodd" d="M20 10.75C19.2759 10.75 18.6141 11.1592 18.2905 11.807L11.9516 24.4848C11.6556 25.0772 11.6873 25.7807 12.0355 26.3439C12.3838 26.9072 12.9988 27.25 13.6611 27.25H26.3389C27.0011 27.25 27.6162 26.9072 27.9645 26.3439C28.3127 25.7806 28.3445 25.0772 28.0485 24.4848L21.7096 11.8072C21.3861 11.1595 20.7241 10.75 20 10.75ZM16.9487 11.1364C17.5263 9.98035 18.7077 9.25 20 9.25C21.2924 9.25 22.4738 9.98045 23.0514 11.1366L29.3902 23.8142C29.9186 24.8715 29.8619 26.1273 29.2403 27.1327C28.6187 28.1381 27.5209 28.7501 26.3389 28.75M16.9487 11.1364L10.6098 23.8142C10.0814 24.8715 10.1381 26.1273 10.7597 27.1327C11.3813 28.1381 12.4791 28.7501 13.6611 28.75H26.3389M20 14.8753C20.4143 14.8753 20.75 15.2111 20.75 15.6253V20.1252C20.75 20.5394 20.4143 20.8752 20 20.8752C19.5858 20.8752 19.25 20.5394 19.25 20.1252V15.6253C19.25 15.2111 19.5858 14.8753 20 14.8753ZM20 24.2501C20.1036 24.2501 20.1875 24.1662 20.1875 24.0626C20.1875 23.9591 20.1036 23.8751 20 23.8751C19.8965 23.8751 19.8125 23.9591 19.8125 24.0626C19.8125 24.1662 19.8965 24.2501 20 24.2501ZM18.6875 24.0626C18.6875 23.3377 19.2752 22.7501 20 22.7501C20.7249 22.7501 21.3125 23.3377 21.3125 24.0626C21.3125 24.7875 20.7249 25.3751 20 25.3751C19.2752 25.3751 18.6875 24.7875 18.6875 24.0626Z" fill="white"/>
</svg>
