<svg width="82" height="112" viewBox="0 0 82 112" fill="none" xmlns="http://www.w3.org/2000/svg">
<path d="M46.6281 41.8333C46.6281 38.6117 44.0164 36 40.7948 36C37.5731 36 34.9614 38.6117 34.9614 41.8333V50.1667C34.9614 53.3883 37.5731 56 40.7948 56C44.0164 56 46.6281 53.3883 46.6281 50.1667V41.8333Z" fill="#BAFAFC"/>
<g filter="url(#filter0_d_1188_35171)">
<path d="M41.0003 101.833C24.3438 101.833 10.7941 88.2836 10.7941 71.6271V47.2312H33.4972V48.8954C33.4972 52.9686 36.8092 56.2828 40.8824 56.2828C45.4925 56.2828 48.5036 52.7475 48.5036 48.8954V47.2312H71.2068V71.6271C71.2068 88.2836 57.6568 101.833 41.0003 101.833ZM38.919 10.2781V34.2976C35.8029 35.164 33.4972 37.9971 33.4972 41.3861V43.0645H10.7941V40.3792C10.7941 24.4252 23.234 11.355 38.919 10.2781ZM40.9824 38.1696C40.9966 38.1697 40.968 38.1696 40.9824 38.1696C43.0411 38.1696 44.3369 39.7086 44.3369 41.3861V48.8954C44.3369 50.5764 43.0671 52.116 40.8824 52.116C39.1082 52.116 37.6638 50.6717 37.6638 48.8954V41.3861C37.6638 39.694 39.0086 38.1696 40.9824 38.1696ZM71.2068 40.3792V43.0645H48.5036V41.3861C48.5036 37.9987 46.1999 35.1664 43.0857 34.2987V10.2784C58.769 11.3575 71.2068 24.4264 71.2068 40.3792ZM41.0436 6.00829C41.029 6.00786 41.0172 6 41.0024 6C40.9883 6 40.9766 6.00772 40.9629 6.00786C22.0265 6.02858 6.62744 21.4384 6.62744 40.3792V71.6271C6.62744 90.5805 22.047 106 41.0003 106C59.9538 106 75.3735 90.5805 75.3735 71.6271V40.3792C75.3735 21.4402 59.9768 6.03186 41.0436 6.00829Z" fill="black"/>
</g>
<path d="M41.0003 101.833C24.3438 101.833 10.7941 88.2836 10.7941 71.6271V47.2312H33.4972V48.8954C33.4972 52.9686 36.8092 56.2828 40.8824 56.2828C45.4925 56.2828 48.5036 52.7475 48.5036 48.8954V47.2312H71.2068V71.6271C71.2068 88.2836 57.6568 101.833 41.0003 101.833ZM38.9191 10.2781V34.2976C35.8029 35.164 33.4972 37.9971 33.4972 41.3861V43.0645H10.7941V40.3792C10.7941 24.4252 23.234 11.355 38.9191 10.2781ZM40.9824 38.1696C40.9966 38.1697 40.968 38.1696 40.9824 38.1696C43.0411 38.1696 44.3369 39.7086 44.3369 41.3861V48.8954C44.3369 50.5764 43.0671 52.116 40.8824 52.116C39.1082 52.116 37.6638 50.6717 37.6638 48.8954V41.3861C37.6638 39.694 39.0086 38.1696 40.9824 38.1696ZM71.2068 40.3792V43.0645H48.5036V41.3861C48.5036 37.9987 46.1999 35.1664 43.0857 34.2987V10.2784C58.769 11.3575 71.2068 24.4264 71.2068 40.3792ZM41.0436 6.00829C41.029 6.00786 41.0172 6 41.0025 6C40.9883 6 40.9766 6.00772 40.9629 6.00786C22.0265 6.02858 6.62744 21.4384 6.62744 40.3792V71.6271C6.62744 90.5805 22.047 106 41.0003 106C59.9538 106 75.3735 90.5805 75.3735 71.6271V40.3792C75.3735 21.4402 59.9768 6.03186 41.0436 6.00829Z" fill="#18BAB4"/>
<defs>
<filter id="filter0_d_1188_35171" x="0.627441" y="0" width="80.7461" height="112" filterUnits="userSpaceOnUse" color-interpolation-filters="sRGB">
<feFlood flood-opacity="0" result="BackgroundImageFix"/>
<feColorMatrix in="SourceAlpha" type="matrix" values="0 0 0 0 0 0 0 0 0 0 0 0 0 0 0 0 0 0 127 0" result="hardAlpha"/>
<feOffset/>
<feGaussianBlur stdDeviation="3"/>
<feColorMatrix type="matrix" values="0 0 0 0 0.333531 0 0 0 0 1 0 0 0 0 0.975316 0 0 0 0.380463 0"/>
<feBlend mode="normal" in2="BackgroundImageFix" result="effect1_dropShadow_1188_35171"/>
<feBlend mode="normal" in="SourceGraphic" in2="effect1_dropShadow_1188_35171" result="shape"/>
</filter>
</defs>
</svg>
