<svg width="16" height="16" viewBox="0 0 16 16" fill="none" xmlns="http://www.w3.org/2000/svg">
<path d="M2.99988 6.49951C2.99988 6.22337 3.22374 5.99951 3.49988 5.99951H9.49988C9.77602 5.99951 9.99988 6.22337 9.99988 6.49951C9.99988 6.77565 9.77602 6.99951 9.49988 6.99951H3.49988C3.22374 6.99951 2.99988 6.77565 2.99988 6.49951Z" fill="white"/>
<path fill-rule="evenodd" clip-rule="evenodd" d="M11.5078 10.7997C12.5039 9.63737 13.0834 8.13642 13.0832 6.54079C13.0828 2.92803 10.154 -0.000488281 6.54121 -0.000488281C3.89516 -0.000488281 1.50966 1.5935 0.497126 4.03816C-0.515409 6.48283 0.0444288 9.29672 1.91558 11.1677C3.78673 13.0386 6.60068 13.5981 9.04523 12.5853C9.69528 12.316 10.2852 11.9496 10.8009 11.507L15.1463 15.853C15.3416 16.0483 15.6581 16.0483 15.8534 15.8531C16.0487 15.6578 16.0487 15.3413 15.8535 15.146L11.5078 10.7997ZM6.54121 0.999512C4.29963 0.999512 2.27878 2.34984 1.42102 4.42082C0.563255 6.4918 1.03752 8.87556 2.62265 10.4605C4.20777 12.0455 6.59159 12.5195 8.66247 11.6615C9.3408 11.3804 9.9418 10.9746 10.4433 10.4771C10.4488 10.4711 10.4545 10.4651 10.4604 10.4593C10.4661 10.4535 10.4719 10.4479 10.4779 10.4425C11.4866 9.42418 12.0834 8.0313 12.0832 6.5409C12.0829 3.48038 9.60174 0.999512 6.54121 0.999512Z" fill="white"/>
</svg>
