<?xml version="1.0" encoding="UTF-8"?>
<svg width="12px" height="13px" viewBox="0 0 12 13" version="1.1" xmlns="http://www.w3.org/2000/svg" xmlns:xlink="http://www.w3.org/1999/xlink">
    <!-- Generator: sketchtool 54.1 (76490) - https://sketchapp.com -->
    <title>5FB0B2CD-893E-4EA2-BAE6-0EA1A4DEA7D6</title>
    <desc>Created with sketchtool.</desc>
    <g id="visual" stroke="none" stroke-width="1" fill="none" fill-rule="evenodd">
        <g id="HE-map---hover-in-halfometer" transform="translate(-1242.000000, -55.000000)" fill="#FFFFFF">
            <g id="Group-3" transform="translate(1236.000000, 20.000000)">
                <g id="Group-5" transform="translate(0.000000, 30.000000)">
                    <g id="Group-12">
                        <path d="M12,5.5 C12.5360231,5.5 12.9682997,5.93227666 12.9682997,6.45100865 L12.9682997,10.5489914 L17.0489914,10.5489914 C17.5677233,10.5489914 18,10.981268 18,11.5 C18,12.0360231 17.5677233,12.4682997 17.0489914,12.4682997 L12.9682997,12.4682997 L12.9682997,16.5489914 C12.9682997,17.0677233 12.5360231,17.5 12,17.5 C11.481268,17.5 11.0489914,17.0677233 11.0489914,16.5489914 L11.0489914,12.4682997 L6.95100865,12.4682997 C6.43227666,12.4682997 6,12.0360231 6,11.5 C6,10.981268 6.43227666,10.5489914 6.95100865,10.5489914 L11.0489914,10.5489914 L11.0489914,6.45100865 C11.0489914,5.93227666 11.481268,5.5 12,5.5 Z" id="Shape-Copy-2"></path>
                    </g>
                </g>
            </g>
        </g>
    </g>
</svg>