<?xml version="1.0" encoding="UTF-8"?>
<svg width="14px" height="14px" viewBox="0 0 14 14" version="1.1" xmlns="http://www.w3.org/2000/svg" xmlns:xlink="http://www.w3.org/1999/xlink">
    <!-- Generator: Sketch 54.1 (76490) - https://sketchapp.com -->
    <title>icon/zoomin</title>
    <desc>Created with Sketch.</desc>
    <g id="UI-KIT" stroke="none" stroke-width="1" fill="none" fill-rule="evenodd">
        <g transform="translate(-562.000000, -2839.000000)" fill="#FFFFFF" fill-rule="nonzero" id="icon/zoomin">
            <g transform="translate(562.000000, 2839.000000)">
                <path d="M13.038405,6.03818631 C13.5695135,6.03818631 14,6.46867285 14,6.99978126 C14,7.53088966 13.5695135,7.96137621 13.038405,7.96137621 L7.96137621,7.96137621 L7.96137621,13.038405 C7.96137621,13.5695135 7.53088966,14 6.99978126,14 C6.46867285,14 6.03818631,13.5695135 6.03818631,13.038405 L6.03818631,7.96137621 L0.96159495,7.96137621 C0.430486547,7.96137621 0,7.53088966 0,6.99978126 C0,6.46867285 0.430486547,6.03818631 0.96159495,6.03818631 L6.03818631,6.03818631 L6.03818631,0.96159495 C6.03818631,0.430486547 6.46867285,0 6.99978126,0 C7.53088966,0 7.96137621,0.430486547 7.96137621,0.96159495 L7.96137621,6.03818631 L13.038405,6.03818631 Z" id="Path"></path>
            </g>
        </g>
    </g>
</svg>