<svg width="16" height="16" viewBox="0 0 16 16" fill="none" xmlns="http://www.w3.org/2000/svg">
<path d="M3.49988 5.99951C3.22374 5.99951 2.99988 6.22337 2.99988 6.49951C2.99988 6.77565 3.22374 6.99951 3.49988 6.99951H5.99988V9.49951C5.99988 9.77565 6.22374 9.99951 6.49988 9.99951C6.77602 9.99951 6.99988 9.77565 6.99988 9.49951V6.99951H9.49988C9.77602 6.99951 9.99988 6.77565 9.99988 6.49951C9.99988 6.22337 9.77602 5.99951 9.49988 5.99951H6.99988V3.49951C6.99988 3.22337 6.77602 2.99951 6.49988 2.99951C6.22374 2.99951 5.99988 3.22337 5.99988 3.49951V5.99951H3.49988Z" fill="white"/>
<path fill-rule="evenodd" clip-rule="evenodd" d="M10.8009 11.507C10.2851 11.9496 9.69518 12.3161 9.04506 12.5854C6.60042 13.5982 3.78641 13.0385 1.91532 11.1674C0.0442303 9.29631 -0.51543 6.48231 0.497333 4.03766C1.5101 1.59302 3.89581 -0.000780145 6.54194 -0.000488241C10.1544 -8.96049e-05 13.0828 2.92831 13.0832 6.54079C13.0834 8.13643 12.5039 9.63737 11.5078 10.7997L15.8535 15.146C16.0487 15.3413 16.0487 15.6578 15.8534 15.8531C15.6581 16.0483 15.3416 16.0483 15.1463 15.853L10.8009 11.507ZM1.42119 4.4204C2.27914 2.34944 4.30019 0.999265 6.54183 0.999512C9.60211 0.99985 12.0829 3.48062 12.0832 6.5409C12.0834 8.0313 11.4866 9.42418 10.4779 10.4425C10.472 10.4479 10.4661 10.4535 10.4604 10.4593C10.4545 10.4651 10.4488 10.4711 10.4433 10.4771C9.94176 10.9747 9.34072 11.3805 8.66233 11.6615C6.59137 12.5195 4.20751 12.0454 2.62243 10.4603C1.03735 8.87522 0.563238 6.49136 1.42119 4.4204Z" fill="white"/>
</svg>
