<svg width="56" height="56" xmlns="http://www.w3.org/2000/svg" xmlns:xlink="http://www.w3.org/1999/xlink"><defs><filter x="-5.4%" y="-16.1%" width="110.7%" height="132.1%" filterUnits="objectBoundingBox" id="d"><feMorphology radius="1" operator="dilate" in="SourceAlpha" result="shadowSpreadOuter1"/><feOffset in="shadowSpreadOuter1" result="shadowOffsetOuter1"/><feColorMatrix values="0 0 0 0 0 0 0 0 0 0 0 0 0 0 0 0 0 0 0.06 0" in="shadowOffsetOuter1"/></filter><filter x="-5.4%" y="-14.1%" width="110.7%" height="128.1%" filterUnits="objectBoundingBox" id="f"><feMorphology radius="1" operator="dilate" in="SourceAlpha" result="shadowSpreadOuter1"/><feOffset in="shadowSpreadOuter1" result="shadowOffsetOuter1"/><feColorMatrix values="0 0 0 0 0 0 0 0 0 0 0 0 0 0 0 0 0 0 0.06 0" in="shadowOffsetOuter1"/></filter><filter x="-8.1%" y="-6.3%" width="116.3%" height="125.4%" filterUnits="objectBoundingBox" id="h"><feOffset dy="2" in="SourceAlpha" result="shadowOffsetOuter1"/><feColorMatrix values="0 0 0 0 0 0 0 0 0 0 0 0 0 0 0 0 0 0 0.06 0" in="shadowOffsetOuter1"/></filter><path id="e" d="M0 21.333h56V40H0z"/><path id="g" d="M0 0h56v21.333H0z"/><path d="M25.884 12.353a1.333 1.333 0 011.633-.943 8 8 0 014.879 11.695l1.677 1.119a1.333 1.333 0 01-1.48 2.219l-1.899-1.266a7.992 7.992 0 01-7.318 1.688 1.333 1.333 0 11.69-2.576 5.32 5.32 0 004.281-.676l-3.753-2.504a1.333 1.333 0 011.479-2.218l4.095 2.73a5.333 5.333 0 00-3.341-7.635 1.333 1.333 0 01-.943-1.633zm-.55 2.314a1.333 1.333 0 110 2.666 1.333 1.333 0 010-2.666z" id="i"/><linearGradient x1="50%" y1="0%" x2="50%" y2="100%" id="b"><stop stop-color="#FF323E" offset="0%"/><stop stop-color="#FD0D1B" offset="100%"/></linearGradient><rect id="a" x="0" y="0" width="56" height="40" rx="4"/></defs><g transform="translate(0 8)" fill="none" fill-rule="evenodd"><mask id="c" fill="#fff"><use xlink:href="#a"/></mask><use fill="#FFF" xlink:href="#a"/><path fill="url(#b)" mask="url(#c)" d="M0 0h56v40H0z"/><g mask="url(#c)"><use fill="#000" filter="url(#d)" xlink:href="#e"/><use fill="#262626" xlink:href="#e"/></g><g mask="url(#c)"><use fill="#000" filter="url(#f)" xlink:href="#g"/><use fill="#DD2137" xlink:href="#g"/></g><g fill-rule="nonzero" mask="url(#c)"><use fill="#000" filter="url(#h)" xlink:href="#i"/><use fill="#F8D84B" xlink:href="#i"/></g></g></svg>