<svg width="56" height="56" xmlns="http://www.w3.org/2000/svg" xmlns:xlink="http://www.w3.org/1999/xlink"><defs><rect id="a" x="0" y="0" width="56" height="40" rx="4"/></defs><g transform="translate(0 8)" fill="none" fill-rule="evenodd"><mask id="b" fill="#fff"><use xlink:href="#a"/></mask><path fill="#EE343C" mask="url(#b)" d="M0 0h56v40H0z"/><path d="M24.948 8.948c-.524-.524-1.438-.621-2.062-.205l-1.772 1.18c-.615.411-.583 1.01.07 1.335l2.966 1.484c.653.326 1.183 1.183 1.183 1.925A1.33 1.33 0 0124 16c-.736 0-1.864-.265-2.517-.592l-2.966-1.483c-.654-.327-1.6-.175-2.131.356l-.772.771c-.523.524-.416 1.213.236 1.54l2.966 1.483c.654.327.694.919.07 1.334l-1.772 1.182c-.615.41-.522.86.203 1.006l4.033.806c.727.146.843.619.25 1.064l-3.2 2.4c-.59.442-.475.8.267.8.736 0 1.904-.143 2.624-.323l2.751-.688c.713-.178.964.168.549.792l-1.182 1.771c-.41.615-.152 1.114.59 1.114h1.336c.735 0 1.523.573 1.754 1.266l.49 1.469c.232.699.612.692.843 0l.49-1.469c.232-.699 1.012-1.266 1.753-1.266h1.336c.736 0 1.005-.49.59-1.114l-1.182-1.771c-.41-.616-.172-.972.549-.792l2.75.688c.714.178 1.884.323 2.625.323.737 0 .86-.355.267-.8l-3.2-2.4c-.59-.442-.475-.919.25-1.064l4.033-.806c.727-.146.827-.59.203-1.006l-1.772-1.182c-.615-.41-.583-1.008.07-1.334l2.966-1.483c.653-.327.767-1.009.236-1.54l-.772-.771c-.523-.523-1.478-.682-2.131-.356l-2.966 1.483c-.654.327-1.775.592-2.517.592a1.33 1.33 0 01-1.333-1.333c0-.737.542-1.605 1.192-1.93L36 10.667l-2.886-1.924c-.615-.41-1.542-.315-2.062.205l-2.104 2.104a1.344 1.344 0 01-1.896 0l-2.104-2.104z" fill="#262626" mask="url(#b)"/></g></svg>