<svg width="56" height="56" xmlns="http://www.w3.org/2000/svg" xmlns:xlink="http://www.w3.org/1999/xlink"><defs><rect id="a" x="0" y="0" width="56" height="40" rx="4"/></defs><g transform="translate(0 8)" fill="none" fill-rule="evenodd"><mask id="b" fill="#fff"><use xlink:href="#a"/></mask><use fill="#FFF" xlink:href="#a"/><path fill="#1537D1" mask="url(#b)" d="M0 0h56v40H0z"/><path fill="#EA3058" mask="url(#b)" d="M26.667 0H56v40H26.667z"/><path fill="#FFCF3C" mask="url(#b)" d="M18.667 0h18.667v40H18.667z"/><path fill="#FFEDB1" mask="url(#b)" d="M25.333 17.333H28v1.334h-2.667z"/><path d="M30.661 16.667l.23 4.614a2.234 2.234 0 01-.726 1.45c-.403.37-.935.602-1.505.602h0-1.32c-.57 0-1.104-.231-1.507-.602a2.23 2.23 0 01-.724-1.45h0l-.335-4.015 5.887-.6z" stroke="#D32E28" stroke-width="1.333" mask="url(#b)"/><path fill="#D32E28" mask="url(#b)" d="M25.333 18.667h5.334V20h-5.334z"/></g></svg>