<svg xmlns="http://www.w3.org/2000/svg" xmlns:xlink="http://www.w3.org/1999/xlink" width="56" height="40" viewBox="0 0 56 40">
  <defs>
    <rect id="ata-a" width="56" height="40" x="0" y="0" rx="4"/>
  </defs>
  <g fill="none" fill-rule="evenodd">
    <use fill="#5D9FE9" xlink:href="#ata-a"/>
    <path fill="#FFF" d="M12.6013578,11.9241456 C12.2617828,13.2080107 12.7754563,14.4078303 14.1423781,15.5236044 C14.3562599,15.6982393 14.38812,16.0131898 14.2135152,16.2270961 C14.1803748,16.2676961 14.1410568,16.3028329 14.0970017,16.3312193 L13.958485,16.4204709 C13.7835641,16.5331792 13.7331307,16.7663487 13.845839,16.9412697 C13.8984708,17.0229531 13.9806259,17.0811439 14.0751459,17.1036885 L15.3513321,17.4080811 L15.3513321,17.4080811 C15.9345982,18.2174761 16.2388738,18.75595 16.264159,19.0235027 C16.2894442,19.2910554 16.0562417,19.504636 15.5645515,19.6642444 L15.5645515,19.6642444 L15.5645515,21.5095334 L15.5645515,21.5095334 C15.1783672,21.6054393 14.9430501,21.9962506 15.038956,22.3824349 C15.0975847,22.6185152 15.2713791,22.8090728 15.5010787,22.8891312 L16.6299644,23.2825879 L16.6299644,23.2825879 C17.3075348,26.0373861 19.77802,27.973861 22.6149224,27.973861 L26.5794864,27.973861 L26.5794864,27.973861 L26.9748232,28.3013682 C27.5111442,28.7456703 28.2847998,28.7554928 28.832228,28.3249503 C29.0499555,28.1537115 29.365275,28.1913981 29.5365138,28.4091256 C29.6176524,28.512292 29.6551172,28.6431539 29.6408687,28.773629 L29.6105413,29.051339 C29.5123161,29.9507937 29.0599757,30.7741144 28.353472,31.3393751 C28.0898944,31.5502586 28.0471775,31.9348854 28.258061,32.198463 C28.3552478,32.3199341 28.495096,32.3997756 28.649106,32.4217166 L32.7082333,33 C32.9297369,32.8120342 33.5131899,32.5528243 34.4585922,32.2223703 C35.8766957,31.7266893 36.6635735,31.8944626 37.3638352,31.3726904 C38.5186232,30.512246 38.9202891,29.6028765 39.0797911,29.4326492 C39.7689429,28.6971573 39.4325202,27.6126299 39.7417772,27.2842566 C40.015261,26.9938678 40.6397941,26.9764283 40.8101468,26.7689044 C41.3174945,26.1508531 40.8678125,25.2712324 41.1566662,24.8810533 C42.1678929,23.5151042 42.6082007,22.5856683 42.4775898,22.0927458 L42.4775898,22.0927458 L41.9932926,21.5237309 C41.6855209,21.1621209 41.5487777,20.6852809 41.6181379,20.2155209 L41.6821514,19.7819725 C41.7788421,19.1271098 41.3407526,18.5128919 40.6900956,18.3910733 L40.4675493,18.3494073 C39.768875,18.2185987 39.3085289,17.54617 39.4393375,16.8474958 C39.4466367,16.8085094 39.4557342,16.7698813 39.4666008,16.7317351 L39.9913083,14.8898106 L39.9913083,14.8898106 L39.2603014,13.0756107 C39.1502534,12.8024955 39.2089944,12.4903219 39.4107841,12.2758845 C39.5718471,12.1047265 39.5636634,11.8354083 39.3925054,11.6743454 C39.3794566,11.6620662 39.3656454,11.6506234 39.351154,11.6400854 L38.5798871,11.0792218 C38.4073489,10.9537525 38.1717546,10.9610086 38.0072649,11.0968581 C37.8389379,11.2358767 37.6023184,11.2567031 37.4122957,11.1492251 L36.0771935,10.3940831 C35.8482954,10.2646169 35.5680912,10.2654459 35.3399632,10.3962642 C35.1574461,10.5009273 34.9246405,10.4378142 34.8199774,10.255297 C34.8131961,10.2434714 34.8070545,10.2312904 34.8015789,10.2188064 L34.6947675,9.97528154 C34.5431312,9.62955837 34.2645796,9.35522631 33.9165823,9.20888444 L33.3745724,8.98095525 C32.439766,9.52485609 31.532585,9.20596737 30.6530295,8.02428911 C30.2374147,7.46591285 29.68611,7.46591285 28.9991153,8.02428911 L28.9991153,8.02428911 L27.2498405,7.73709038 L27.2498405,7.73709038 L27.2278533,7.69015698 C27.1172898,7.45415046 26.8363393,7.3524588 26.6003328,7.4630223 C26.5342304,7.4939897 26.4762134,7.53987003 26.4308443,7.59705521 L26.3226101,7.73347837 C26.1066017,8.0057447 25.7356102,8.10066609 25.4153824,7.9656004 C25.1272769,7.84408328 24.7952123,7.97912979 24.6736952,8.2672352 C24.670921,8.27381257 24.6682714,8.28044182 24.6657479,8.2871194 L24.4316583,8.90655851 C24.3048477,9.24212007 24.0339113,9.50290285 23.693753,9.61681007 L23.663185,9.62704622 C23.3603559,9.72845319 23.1562342,10.0120688 23.1562342,10.3314258 L23.1562342,10.4531253 C23.1562342,10.711283 23.0279083,10.9525536 22.8138485,11.0968581 C22.6067087,11.2364976 22.5044181,11.4874149 22.5548918,11.7320748 L22.6055537,11.9776473 C22.6920393,12.3968665 22.624544,12.8332124 22.4154389,13.2067088 L22.0711079,13.8217412 C21.6905936,14.5014028 21.0387281,14.9869328 20.2785651,15.1568836 L20.2785651,15.1568836 L20.2785651,15.1568836 L19.5845745,15.5932884 L18.7288119,15.5932884 L18.1412312,15.9421434 L17.3824577,14.8898106 L15.8419236,14.3720971 L15.3513321,13.5618148 L13.9249266,13.3099188 C13.2083662,11.7591422 12.7671766,11.2972178 12.6013578,11.9241456 Z"/>
  </g>
</svg>
