<svg width="56" height="56" xmlns="http://www.w3.org/2000/svg" xmlns:xlink="http://www.w3.org/1999/xlink"><defs><path id="c" d="M0 0h56L28 40z"/><path id="f" d="M28 22l-4.592 5.087.35-6.844-6.845.35L22 16l-6-5.333L23.757 12l-1.09-8L28 10.667 33.333 4l-1.09 8L40 10.667 34 16l5.087 4.592-6.844-.35.35 6.845z"/><path id="h" d="M0 16h56v10.667H0z"/><filter x="-31.5%" y="-34.2%" width="163%" height="162.4%" filterUnits="objectBoundingBox" id="e"><feMorphology radius="1" operator="dilate" in="SourceAlpha" result="shadowSpreadOuter1"/><feOffset in="shadowSpreadOuter1" result="shadowOffsetOuter1"/><feColorMatrix values="0 0 0 0 0 0 0 0 0 0 0 0 0 0 0 0 0 0 0.06 0" in="shadowOffsetOuter1"/></filter><filter x="-5.4%" y="-28.1%" width="110.7%" height="156.2%" filterUnits="objectBoundingBox" id="g"><feMorphology radius="1" operator="dilate" in="SourceAlpha" result="shadowSpreadOuter1"/><feOffset in="shadowSpreadOuter1" result="shadowOffsetOuter1"/><feColorMatrix values="0 0 0 0 0 0 0 0 0 0 0 0 0 0 0 0 0 0 0.06 0" in="shadowOffsetOuter1"/></filter><rect id="a" x="0" y="0" width="56" height="40" rx="4"/></defs><g transform="translate(0 8)" fill="none" fill-rule="evenodd"><mask id="b" fill="#fff"><use xlink:href="#a"/></mask><use fill="#FFF" xlink:href="#a"/><path fill="#E2243B" mask="url(#b)" d="M0 0h56v40H0z"/><g mask="url(#b)"><mask id="d" fill="#fff"><use xlink:href="#c"/></mask><use fill="#262626" xlink:href="#c"/><g mask="url(#d)"><use fill="#000" filter="url(#e)" xlink:href="#f"/><use fill="#FFCF3C" xlink:href="#f"/></g><g mask="url(#d)"><use fill="#000" filter="url(#g)" xlink:href="#h"/><use fill="#1984D8" xlink:href="#h"/></g><path fill="#FFF" mask="url(#d)" d="M0 26.667h56V40H0z"/></g></g></svg>