<?xml version="1.0" encoding="UTF-8"?><svg width="57" height="40" xmlns="http://www.w3.org/2000/svg"><g fill="none" fill-rule="evenodd"><path fill="#E4233B" d="M3.197 0h49.522v40H3.197z"/><path fill="#34CD4E" d="M0 4.255L23.315 19.92 0 35.664zM56 4.255L32.699 19.92 56 35.59z"/><path d="M52.719 0l.353.095a3.966 3.966 0 012.94 3.956L56 4.255 36.913 17.177c.282.89.434 1.839.434 2.823 0 .952-.142 1.871-.407 2.737L56.014 35.59v.288A4.226 4.226 0 0152.719 40L33.904 27.24a9.295 9.295 0 01-5.89 2.093 9.295 9.295 0 01-5.925-2.121L3.197 40A4.134 4.134 0 010 35.974v-.384l19.08-12.881a9.333 9.333 0 01-.4-2.709c0-.974.15-1.913.426-2.796L.014 4.255.002 4.05A3.994 3.994 0 012.935.072L3.197 0l18.93 12.757a9.295 9.295 0 015.887-2.09c2.215 0 4.25.772 5.851 2.061L52.72 0z" fill="#FFF"/><path d="M25.886 20.781l-.553 1.886.553 1.885L24 24l-1.886.552.553-1.885-.553-1.886 1.886.552 1.886-.552zm8 0l-.553 1.886.553 1.885L32 24l-1.886.552.553-1.885-.553-1.886 1.886.552 1.886-.552zm-4-6.667L29.333 16l.553 1.886L28 17.333l-1.886.553.553-1.886-.553-1.886 1.886.553 1.886-.553z" fill="#DF2239"/></g></svg>