<svg width="56" height="56" xmlns="http://www.w3.org/2000/svg" xmlns:xlink="http://www.w3.org/1999/xlink"><defs><filter x="-17.3%" y="-7.5%" width="128%" height="125.9%" filterUnits="objectBoundingBox" id="c"><feMorphology radius="1" operator="dilate" in="SourceAlpha" result="shadowSpreadOuter1"/><feOffset in="shadowSpreadOuter1" result="shadowOffsetOuter1"/><feColorMatrix values="0 0 0 0 0 0 0 0 0 0 0 0 0 0 0 0 0 0 0.06 0" in="shadowOffsetOuter1"/></filter><rect id="a" x="0" y="0" width="56" height="40" rx="4"/><path id="d" d="M45.333 40V0h-28z"/></defs><g transform="translate(0 8)" fill="none" fill-rule="evenodd"><mask id="b" fill="#fff"><use xlink:href="#a"/></mask><use fill="#FFF" xlink:href="#a"/><path fill="#0B36B2" mask="url(#b)" d="M0 0h56v40H0z"/><g mask="url(#b)"><use fill="#000" filter="url(#c)" xlink:href="#d"/><use fill="#FFD045" xlink:href="#d"/></g><path fill="#FFF" mask="url(#b)" d="M34.667 37.333l-1.886.553.552-1.886-.552-1.886 1.886.553 1.885-.553L36 36l.552 1.886zM29.333 29.333l-1.885.553L28 28l-.552-1.886 1.885.553 1.886-.553L30.667 28l.552 1.886zM24 21.333l-1.886.553.553-1.886-.553-1.886 1.886.553 1.886-.553L25.333 20l.553 1.886zM18.667 13.333l-1.886.553.552-1.886-.552-1.886 1.886.553 1.885-.553L20 12l.552 1.886zM13.333 5.333l-1.885.553L12 4l-.552-1.886 1.885.553 1.886-.553L14.667 4l.552 1.886z"/></g></svg>