<svg width="56" height="56" xmlns="http://www.w3.org/2000/svg" xmlns:xlink="http://www.w3.org/1999/xlink"><defs><rect id="a" x="0" y="0" width="56" height="40" rx="4"/></defs><g transform="translate(0 8)" fill="none" fill-rule="evenodd"><mask id="b" fill="#fff"><use xlink:href="#a"/></mask><use fill="#FFF" xlink:href="#a"/><path fill="#E54252" mask="url(#b)" d="M0 0h56v26.667H0z"/><path fill="#5CBE6B" mask="url(#b)" d="M0 26.667h56V40H0z"/><path d="M8 0v5.999L6.667 8 8 10.001v3.998L6.667 16 8 18.001v3.998L6.667 24 8 26.001v3.998L6.667 32 8 34.001V40H0V0h8z" fill="#FFF" mask="url(#b)"/><path d="M-1.333 28l2.666 4-2.666 4L-4 32l2.667-4zm0-8l2.666 4-2.666 4L-4 24l2.667-4zm0-8l2.666 4-2.666 4L-4 16l2.667-4zm0-8l2.666 4-2.666 4L-4 8l2.667-4zM4 32l2.667 4L4 40l-2.667-4L4 32zm0-8l2.667 4L4 32l-2.667-4L4 24zm0-8l2.667 4L4 24l-2.667-4L4 16zm0-8l2.667 4L4 16l-2.667-4L4 8zm0-8l2.667 4L4 8 1.333 4 4 0z" fill="#E54252" mask="url(#b)"/></g></svg>