<svg width="56" height="56" xmlns="http://www.w3.org/2000/svg" xmlns:xlink="http://www.w3.org/1999/xlink"><defs><circle id="c" cx="9.333" cy="9.333" r="9.333"/><rect id="a" x="0" y="0" width="56" height="40" rx="4"/></defs><g transform="translate(0 8)" fill="none" fill-rule="evenodd"><mask id="b" fill="#fff"><use xlink:href="#a"/></mask><use fill="#FFF" xlink:href="#a"/><path fill="#05AB41" mask="url(#b)" d="M0 0h56v40H0z"/><path d="M6.457 20.727c-.62-.401-.63-1.047 0-1.454L26.876 6.06c.62-.402 1.619-.408 2.248 0l20.419 13.212c.62.401.63 1.047 0 1.454L29.124 33.94c-.62.402-1.619.408-2.248 0L6.457 20.727z" fill="#FDD216" mask="url(#b)"/><g mask="url(#b)"><g transform="translate(18.667 10.667)"><mask id="d" fill="#fff"><use xlink:href="#c"/></mask><use fill="#053087" xlink:href="#c"/><path d="M-1.333 8C0 6.667 4.82 7.29 9.333 8c4.513.71 9.35 2.683 10.667 4" stroke="#FFF" stroke-width="2.667" stroke-linecap="square" mask="url(#d)" transform="rotate(6 9.333 9.608)"/></g></g></g></svg>