<svg width="56" height="56" xmlns="http://www.w3.org/2000/svg" xmlns:xlink="http://www.w3.org/1999/xlink"><defs><linearGradient x1="50%" y1="0%" x2="50%" y2="100%" id="b"><stop stop-color="#1132C7" offset="0%"/><stop stop-color="#0522A5" offset="100%"/></linearGradient><rect id="a" x="0" y="0" width="56" height="40" rx="4"/></defs><g transform="translate(0 8)" fill="none" fill-rule="evenodd"><mask id="c" fill="#fff"><use xlink:href="#a"/></mask><use fill="#FFF" xlink:href="#a"/><path fill="url(#b)" mask="url(#c)" d="M0 0h56v40H0z"/><path fill="#08379D" mask="url(#c)" d="M26.667 0H56v40H26.667zM0 0h18.667v40H0z"/><path fill="#FFCC50" mask="url(#c)" d="M18.667 0h18.667v40H18.667z"/><path d="M27.675 12.556c.21-.307.542-.306.742 0l1.886 2.888c.201.307.069.556-.302.556h-.668a.594.594 0 00-.6.664l.534 5.34a.75.75 0 00.733.663c.368 0 .875-.206 1.14-.47l.386-.38c.262-.26.474-.777.474-1.146v-1.328c0-.373-.208-.885-.466-1.143l-.401-.4c-.258-.258-.179-.563.159-.675l2.75-.917c.345-.115.572.078.503.456l-.982 5.34c-.068.366-.34.872-.606 1.127L31.15 24.87c-.267.256-.78.464-1.15.464a.673.673 0 00-.667.673v1.321a.676.676 0 01-.673.673h-1.32a.676.676 0 01-.673-.673v-1.32a.668.668 0 00-.667-.674c-.368 0-.876-.209-1.131-.464L23.13 23.13a2.543 2.543 0 01-.595-1.116l-1.072-5.364c-.072-.36.157-.555.494-.443l2.75.917c.346.115.417.417.159.675l-.4.4c-.258.258-.467.774-.467 1.143v1.328c0 .374.208.883.474 1.145l.385.382c.262.259.77.469 1.141.469a.757.757 0 00.733-.664l.534-5.34a.59.59 0 00-.6-.663H26c-.368 0-.495-.25-.287-.556l1.963-2.888z" fill="#262626" mask="url(#c)"/></g></svg>