<svg width="56" height="56" xmlns="http://www.w3.org/2000/svg" xmlns:xlink="http://www.w3.org/1999/xlink"><defs><rect id="a" x="0" y="0" width="56" height="40" rx="4"/></defs><g transform="translate(0 8)" fill="none" fill-rule="evenodd"><mask id="b" fill="#fff"><use xlink:href="#a"/></mask><use fill="#FFF" xlink:href="#a"/><path fill="#FF5F38" mask="url(#b)" d="M0 0h56v40H0z"/><path fill="#FFD951" mask="url(#b)" d="M0 40L56 0H0z"/><path d="M48 10.339s-1.183-.082-1.815-.082c-.63 0-1.183.41-1.893.491.473-.245.71-.655 1.104-.9.395-.164 1.026-.246 1.105-.819-.394.328-.947.246-1.42.164-.474 0-.79.41-1.105.655.158-.737.553-1.228.631-1.965.08-.655 1.105-1.146.79-1.883-.08.655-.868.737-1.105 1.31-.237.737-.868 1.31-.947 2.128-.079.983-.789.492-1.42.737-.158.082-.868-.818-1.893-.818-1.578.081-2.21.081-4.26-2.047-.474-.491-2.131-.655-2.762-.246.631 0 1.183.164 1.657.492-.316.245-.79-.328-1.184-.082.631 0 .868.327.79.9-.553-.41-1.5-.982-2.21-.655-.473.246-1.341-.082-1.578.573.631-.327 1.263-.082 1.894.164-.316.082-1.105.082-1.342.41.316-.082.632-.082.868 0-.079.245-.157.49-.079.736-.867-.327-2.05-.818-2.84-.164-.868.737.474 1.556.71 1.065-.552.245-.789-.737 0-.737 1.105-.082 2.13.41 3.077.9-.473.164-1.972 0-2.209-.654-.079.245-.079.573.158.736-.71 0-1.341.737-1.972.655-.553 0-1.657 0-1.736.737.868-.819 2.051-.164 3.077-.327-.237.49-.395 1.064-.553 1.637-.236.737-.946 1.064-1.34 1.801.315-.327.71-.573 1.183-.655-.237.573-.868 1.474-.553 2.047.158-.9.71-.655 1.342-.983-.158.41.157 1.147.71.983-.237.41 0 .982.473 1.146-.316.41-1.104.164-1.262.573.552-.245 1.025.655 1.735.41-.078.327 0 .573.158.818-.394-.082-1.104.246-1.341-.327-.237.655.868.49.71.982-.237 0-.552-.655-.71-.164-.079 0-.237-.49-.473-.573-.316-.082-.71.164-.868.082.315-.491-.552-.819-.868-.491.079-.737-1.262-1.228-1.262-1.801-.237.41.236.737.157 1.146-.157-.164-.315-.246-.473-.164-.473.082-.158-.082-.631-.163-.474-.082-.237.245-.631 0-.237-.164-.553-.082-.631.081-.237-.818-1.263-.409-1.5-1.064-.078.41.474.819.553 1.228-.474-.41-1.341.082-1.105.737-.158.082-1.262-.328-1.025.573-.316-.327-2.13-.082-2.13.491.315-.245.946-.082 1.183.082-.237.164-.316.737-.158.983-.868-.082-.473 1.146-.868 1.391-.552.328-1.104 1.146-1.814.9.394.656 1.183 0 1.656.083-.552.41-.078 1.064-.473 1.473-.316.41-.71 1.392-1.42 1.147.079.327.473.409.789.409-.237.164-.473.491-.79.327 0 .246.159.41.317.492-.395 0-.71.163-1.105.081 0 .164.079.41.158.573-.474-.163-1.42-.409-1.736.164.237 0 .631 0 .71.328-.315-.246-.71-.082-1.104-.082-.553.082-.868-.246-1.42-.41-.395-.163-2.21-.49-2.288.164.394-.327 1.262.328 1.735.246.71-.082 1.263.491 1.894.655-.947-.082-1.5.41-2.367.491-.395.082-1.262-.082-1.341.491.394-.245.867.082 1.34-.082.395-.082.79-.409 1.184-.245-.236.327-.63.49-1.025.573-.632.082-.868.327-1.42.655-.395.245-.947.163-1.342.491-.315.246-.63.655-1.104.655.552.327 1.104-.246 1.578-.41.63-.245 1.262-.163 1.814-.573-.315.82-1.42.655-2.051 1.147-.789.573-1.341 1.473-2.288 1.637.394.491 1.262-.164 1.578-.327.71-.41 1.578-.246 2.209-.82.631-.572 1.341-.654 1.893-1.227.158-.164 1.578-1.146 1.736-1.146-.552.245-.631 1.146-1.341 1.31.552.245 1.736-.737 2.367-.983-.316.491-1.341.737-1.42 1.31.552-.491 1.34-.327 1.814-.737s1.42-1.064 1.736-1.637c.316-.491.631-.737 1.105-1.064.236-.164.473-.41.788-.492.316-.082.632.164.947 0 .08 1.474-.473.246-.947.9-.078.083.474.247.553.41 0 0-.868.819-.947.819.237.327.789.082 1.026-.164-.08.246.236.491.157.737.158 0 .553-.9.71-.737-.394.164.316.41.316.41-.237.163 0 .409.158.327-.237.082 0 .491-.158.655-.158.41-.473.327-.868.655-.315.327-.394.737-.315 1.146.079.328.315 1.392.473.737-.316 1.555 1.578 2.538 2.682 1.474.553-.574 1.184-2.948.237-3.439.158.082.395 0 .474-.082.078.164.157.246.315.246.552.164.71.9.631 1.473.395-.49.316-1.719-.079-2.21-.157-.164-.71-.41-.946-.491-.237 0-.395 0-.474.245a.598.598 0 00-.63-.163c.078-.328-.316-1.147-.632-1.31-.631-.41-.237-1.474-.079-2.047.237.164.947.41 1.262.573.316.164 2.052.573 1.342.246 1.577.655 2.524-1.965 1.025-2.538.631.082.08-.573-.236-.737-.474-.164-1.42.082-1.815.41.079-.083.237-.656.316-.738.236-.245.473-.49.867-.327-1.499-2.047-1.972 1.72-2.682 1.392-.473-.246-.552-1.638-.316-1.965.158-.164 0-.41.08-.655.157-.246.473-.491.63-.737.553-.982 2.84-.491 3.866 0 1.342.573 3.156.819 4.576.983-.158.327.08.49 0 .736-.158-.081-1.42-.081-1.499 0 .316 0 .631.41 1.026.41-.631.082-.71.982-1.184.982.316.246 2.13-.9 1.342.491.315 0 .473-.409.552-.736.315.163 2.209 1.8 2.603 1.146 0 .41.553.41.79.41.394 0 1.104.327 1.42.245-1.184.9 2.05 3.766 2.05 2.62 0-.737 1.026.654 2.052-.328 1.026-1.064.158-3.111-1.262-3.03.394-.081 1.262-.163 1.42.574.71-1.228-1.184-1.883-1.973-1.556.474-.245.158-.49.553-.736.315-.164.552-.492.947-.41-.474-.573-2.367-.41-2.21.573-.236-.082-.394 0-.552.164 0 .328-.158.41-.473.41-.158.327-.316.409-.474.081-.315-.163-.473-.082-.789-.327-.236-.164-.788-.164-1.025-.164-.395.082-.552-.491-1.026-.327-.079-.82.552-1.31.868-1.965.395-.737.789-1.474.947-2.374.079-.737-.158-1.392.789-1.474.71-.082.868.819.158 1.064.315.246.71-.082.867-.41-.236.492-.236 1.393.395 1.556-.158-.409.315-.736.158-1.146.315.164.63.491.63.9.395-.49-.157-.982-.157-1.473.71.082 1.183-.164 1.736-.655.63-.41.71-.41 1.183 0 .868.655 2.761.491 3.314-.573.236-.573.789-.573.315-1.228-.315-.491-.71-.9-.946-1.392-.632-1.555-2.604.164-2.84.655-.316.492-.08.573-.71.492-.79-.082-1.5.49-2.368.327-.789-.164-1.34-.573-1.972-.982-.868-.492-1.341-.492-1.972-1.392.473.082 1.025.164 1.42.573.315.327.63.819 1.183.655-.552-.164-1.104-1.064-1.657-1.392.553-.737 1.736-.491 2.604-.491.71 0 1.026.819 1.578 1.146-.316.164-.395.655-.79.655.316.164.711.082 1.027-.164-.08.328 0 .655.315.819-.237-.328.158-.573.316-.737.079.246.394.41.315.655.79-.164.237-2.129-.315-2.292 1.025-.9 1.262.737.946 1.473.395-.327.395-.818.395-1.31.789.246 4.576-.9 4.418.655.552-.655-.473-1.146-.947-1.228-.394-.081-.63-1.228-1.183-.736.631-.082.315.818-.079.982.158-.573-.394-.982-.947-.819 1.341.41-.71 1.474-.552.737.079-.491.473-.819.394-1.31-.078-.245-.236-.573-.236-.737.315.082.315-.163.079-.327.236.082.473-.164.71-.164.552-.082 1.025-.327 1.578-.573.789-.245 2.761-.573 2.761-.573m-8.915 2.702c.236-.573 1.499-1.146 1.104-.164.158-.082.395-.655.632-.491.315.163.473.491.078.655.316 0 .632-.246.947-.164-.158.164-.158.491-.394.655-.474.327-1.657-.41-2.367-.491m1.42 1.31c-.316-.164-.947-.492-1.184-.82.474.165 1.026.247 1.5.492 0 0-.237.164-.316.328" fill="#FFF" fill-rule="nonzero" mask="url(#b)"/></g></svg>