<svg width="56" height="56" xmlns="http://www.w3.org/2000/svg" xmlns:xlink="http://www.w3.org/1999/xlink"><defs><rect id="a" x="0" y="0" width="56" height="40" rx="4"/></defs><g transform="translate(0 8)" fill="none" fill-rule="evenodd"><mask id="b" fill="#fff"><use xlink:href="#a"/></mask><use fill="#FFF" xlink:href="#a"/><path fill="#FF3131" mask="url(#b)" d="M40 0h16v40H40zM0 0h16v40H0zM31.131 19.536c-.256.256-.407.178-.334-.187L32 13.333l-2.667 1.334-1.333-4-1.333 4L24 13.333l1.203 6.016c.072.36-.079.442-.334.187l-1.738-1.738a.658.658 0 00-.93.002l-.868.867-2.666-1.334L20 20l-.867.867a.668.668 0 00.008.94l3.526 3.526h4l.666 4h1.334l.666-4h4l3.526-3.525a.665.665 0 00.008-.941L36 20l1.333-2.667-2.666 1.334-.867-.867a.66.66 0 00-.931-.002l-1.738 1.738z"/></g></svg>