<svg width="56" height="56" xmlns="http://www.w3.org/2000/svg" xmlns:xlink="http://www.w3.org/1999/xlink"><defs><rect id="a" x="0" y="0" width="56" height="40" rx="4"/></defs><g transform="translate(0 8)" fill="none" fill-rule="evenodd"><mask id="b" fill="#fff"><use xlink:href="#a"/></mask><use fill="#FFF" xlink:href="#a"/><path fill="red" mask="url(#b)" d="M0 0h56v40H0z"/><path d="M24 24h-7.332a.671.671 0 01-.668-.668v-6.664c0-.369.304-.668.668-.668H24V8.668c0-.369.304-.668.668-.668h6.664c.369 0 .668.304.668.668V16h7.332c.369 0 .668.304.668.668v6.664c0 .369-.304.668-.668.668H32v7.332c0 .369-.304.668-.668.668h-6.664a.671.671 0 01-.668-.668V24z" fill="#FFF" mask="url(#b)"/></g></svg>