<svg width="56" height="56" xmlns="http://www.w3.org/2000/svg" xmlns:xlink="http://www.w3.org/1999/xlink"><defs><rect id="a" x="0" y="0" width="56" height="40" rx="4"/></defs><g transform="translate(0 8)" fill="none" fill-rule="evenodd"><mask id="b" fill="#fff"><use xlink:href="#a"/></mask><use fill="#FFF" xlink:href="#a"/><path fill="#F1361D" mask="url(#b)" d="M0 0h56v40H0z"/><path d="M23.919 20.312l.023 1.965 1.08 1.642-1.966.023-1.641 1.08-.023-1.966-1.08-1.641 1.965-.023 1.642-1.08zm1.218-5.163l1.761.871 1.953-.216-.871 1.76.216 1.954-1.76-.872-1.954.217.872-1.761-.217-1.953zM28 8.357l-.045 1.965L28.976 12l-1.964-.045-1.679 1.021.046-1.964-1.022-1.679 1.965.046L28 8.357zm-6.202-5.545l1.453 1.323 1.937.33-1.323 1.453-.33 1.937-1.453-1.323-1.937-.33 1.323-1.453.33-1.937zM13.333 16.453l-4.702 3.352 1.735-5.508-4.641-3.436 5.774-.052 1.834-5.476 1.834 5.476 5.775.052-4.641 3.436 1.735 5.508z" fill="#FFDC42" mask="url(#b)"/></g></svg>