<svg width="64" height="40" xmlns="http://www.w3.org/2000/svg"><g fill="none" fill-rule="evenodd"><rect fill="#158AFF" x="4" width="56" height="40" rx="4"/><path d="M60 3.97l.083 7.735L5.815 39.357S5.159 39.07 4.509 38s-.527-2.01-.527-2.01v-7.67L58.23.678S60 1.717 60 3.97z" fill="#CE1120"/><path fill="#FDD216" d="M13.333 11.933l-3.918 2.794 1.446-4.59-3.868-2.864 4.812-.043 1.528-4.563 1.529 4.563 4.812.043-3.868 2.864 1.446 4.59zM5.815 39.357s.824.643 2.2.643h2.61L60 14.85v-3.088C40.868 21.006 22.806 30.204 5.815 39.357zM58.233.678A3.948 3.948 0 0056.006 0h-2.63L4 25.15v3.164L58.233.678z"/></g></svg>