<svg width="56" height="56" xmlns="http://www.w3.org/2000/svg"><g fill="none" fill-rule="evenodd"><path d="M1.086 46.407L38.159 8H4.125a4 4 0 00-3.999 3.929 788.902 788.902 0 00.08 32.113c0 1.043.293 1.831.88 2.365z" fill="#009643"/><path d="M1.086 46.407C11.846 33.8 24.204 21.005 38.159 8.02L52.225 8c1.241.013 2.265.502 3.072 1.468L18.067 48H4.03c-1.438-.185-2.42-.716-2.944-1.593z" fill="#FCDF4A"/><path d="M18.066 48l37.23-38.532c.607.728.91 1.578.91 2.55V44a4 4 0 01-4 4h-34.14z" fill="#F33630"/></g></svg>