<svg width="56" height="56" xmlns="http://www.w3.org/2000/svg" xmlns:xlink="http://www.w3.org/1999/xlink"><defs><rect id="a" x="0" y="0" width="56" height="40" rx="4"/></defs><g transform="translate(0 8)" fill="none" fill-rule="evenodd"><mask id="b" fill="#fff"><use xlink:href="#a"/></mask><use fill="#FFF" xlink:href="#a"/><path fill="#FFCB49" mask="url(#b)" d="M0 0h56v10.667H0z"/><path fill="#DC1D34" mask="url(#b)" d="M0 18.667h56v10.667H0z"/><path fill="#4985D4" mask="url(#b)" d="M0 29.333h56V40H0z"/><path fill="#4BA343" mask="url(#b)" d="M0 40l26.667-20L0 0z"/><path d="M10.667 12c.69 0 1.36.088 2 .252a8.003 8.003 0 000 15.496 8 8 0 11-2-15.748zm4 12a1.333 1.333 0 110 2.667 1.333 1.333 0 010-2.667zm0-5.333a1.333 1.333 0 110 2.666 1.333 1.333 0 010-2.666zm0-5.334a1.333 1.333 0 110 2.667 1.333 1.333 0 010-2.667z" fill="#FFF" mask="url(#b)"/></g></svg>