<svg width="56" height="56" xmlns="http://www.w3.org/2000/svg" xmlns:xlink="http://www.w3.org/1999/xlink"><defs><rect id="a" x="0" y="0" width="56" height="40" rx="4"/></defs><g transform="translate(0 8)" fill="none" fill-rule="evenodd"><mask id="b" fill="#fff"><use xlink:href="#a"/></mask><use fill="#FFF" xlink:href="#a"/><path d="M41.474 5.93c.659-.33.866-.106.45.518l-1.181 1.771c-.41.615-1.233 1.441-1.857 1.857l-1.772 1.181a16.23 16.23 0 00-2.055 1.684l.548-.548c-.52.52-.524 1.357.007 1.888l.772.771a1.333 1.333 0 010 1.896l-.772.771c-.523.523-1.487.678-2.14.351l-.281-.14a1.338 1.338 0 00-1.79.596l-.14.281c-.33.659-1.17 1.384-1.862 1.615l-1.469.49c-.699.232-1.857.421-2.599.421-.736 0-1.603.54-1.93 1.193l-.14.281a1.33 1.33 0 01-1.78.601l-2.966-1.483c-.654-.327-1.6-1.008-2.131-1.54l-.772-.77c-.523-.524-.947-1.54-.947-2.282 0-.736.604-1.333 1.33-1.333H14.67c.735 0 1.747-.417 2.278-.948l.771-.771c.523-.523 1.54-.948 2.281-.948.736 0 1.524-.573 1.755-1.265l.49-1.469c.233-.699 1.013-1.147 1.739-1.002l4.032.806c.728.146 1.888.121 2.608-.06l2.752-.687c.713-.178 1.83-.592 2.484-.92l.28-.14 2.386-1.192.281-.14 2.386-1.194.28-.14z" fill="#E7832C" mask="url(#b)"/><circle fill="#445128" mask="url(#b)" cx="28" cy="30.667" r="1.333"/><path d="M32 29.333s4-1.333 5.333-4" stroke="#445128" stroke-width="2.667" opacity=".75" stroke-linecap="round" mask="url(#b)"/><path d="M18.667 29.333s4-1.333 5.333-4" stroke="#445128" stroke-width="2.667" opacity=".75" stroke-linecap="round" mask="url(#b)" transform="matrix(-1 0 0 1 42.667 0)"/></g></svg>