<svg width="56" height="56" xmlns="http://www.w3.org/2000/svg" xmlns:xlink="http://www.w3.org/1999/xlink"><defs><linearGradient x1="50%" y1="0%" x2="50%" y2="100%" id="c"><stop stop-color="#E02C42" offset="0%"/><stop stop-color="#D22036" offset="100%"/></linearGradient><rect id="a" x="0" y="0" width="56" height="40" rx="4"/></defs><g transform="translate(0 8)" fill="none" fill-rule="evenodd"><mask id="b" fill="#fff"><use xlink:href="#a"/></mask><use fill="#FFF" xlink:href="#a"/><path fill="#108753" mask="url(#b)" d="M0 0h56v16H0zM0 24h56v16H0z"/><path d="M32 0v16h24v8H32v16h-8V24H0v-8h24V0h8z" fill="#FFF" mask="url(#b)"/><path d="M29.333 0v18.666H56v2.667H29.333V40h-2.666l-.001-18.667H0v-2.666l26.666-.001V0h2.667z" fill="#262626" mask="url(#b)"/><path d="M26.667 0l-.001 16H56v2.667l-29.334-.001V40H24V18.666H0V16h24V0h2.667z" fill="#FCD449" mask="url(#b)"/><circle fill="url(#c)" mask="url(#b)" cx="28" cy="20" r="9.333"/><path d="M28 26.667a6.667 6.667 0 100-13.334 6.667 6.667 0 000 13.334z" stroke="#0E673F" stroke-width="2.667" stroke-linecap="round" stroke-dasharray="1.333333373069763,5.333333492279053" mask="url(#b)"/><path d="M28 22.667c1.473 0 1.333-1.194 1.333-2.667 0-1.473.14-2.667-1.333-2.667-1.473 0-1.333 1.194-1.333 2.667 0 1.473-.14 2.667 1.333 2.667z" fill="#0E673F" mask="url(#b)"/></g></svg>