<svg width="56" height="56" xmlns="http://www.w3.org/2000/svg" xmlns:xlink="http://www.w3.org/1999/xlink"><defs><rect id="a" x="0" y="0" width="56" height="40" rx="4"/></defs><g transform="translate(0 8)" fill="none" fill-rule="evenodd"><mask id="b" fill="#fff"><use xlink:href="#a"/></mask><use fill="#FFF" xlink:href="#a"/><path fill="#083D7A" mask="url(#b)" d="M0 0h24v16H0zM32 24h24v16H32z"/><path fill="#DF1E35" mask="url(#b)" d="M0 24h24v16H0zM32 0h24v16H32z"/><path d="M27.734 16.677l3.589 3.589a3.323 3.323 0 01-.966 2.091 3.323 3.323 0 01-2.357.976c-.92 0-1.754-.373-2.357-.976A3.323 3.323 0 0124.667 20c0-.92.373-1.754.976-2.357a3.323 3.323 0 012.091-.966h0z" stroke="#0F6D1A" stroke-width="1.333" mask="url(#b)" transform="rotate(-45 28 20)"/><circle fill="#042F60" mask="url(#b)" cx="28" cy="20" r="1.333"/></g></svg>