<svg width="56" height="56" xmlns="http://www.w3.org/2000/svg" xmlns:xlink="http://www.w3.org/1999/xlink"><defs><rect id="a" x="0" y="0" width="56" height="40" rx="4"/></defs><g transform="translate(0 8)" fill="none" fill-rule="evenodd"><mask id="b" fill="#fff"><use xlink:href="#a"/></mask><use fill="#FFF" xlink:href="#a"/><path fill="#048345" mask="url(#b)" d="M0 0h29.333v40H0z"/><path fill="#E81B42" mask="url(#b)" d="M34.667 22.08l-3.135 2.235 1.156-3.672-3.094-2.291 3.85-.035 1.223-3.65 1.222 3.65 3.85.035-3.094 2.29 1.157 3.673z"/><path d="M27.502 8c3.039 0 5.802 1.23 7.859 3.238a10.96 10.96 0 00-4.722-1.056c-5.775 0-10.457 4.396-10.457 9.818s4.682 9.818 10.457 9.818c1.699 0 3.304-.38 4.722-1.056C33.304 30.77 30.541 32 27.501 32 21.15 32 16 26.627 16 20S21.15 8 27.502 8z" fill="#E81B42" mask="url(#b)"/></g></svg>