<svg width="56" height="56" xmlns="http://www.w3.org/2000/svg" xmlns:xlink="http://www.w3.org/1999/xlink"><defs><rect id="a" x="0" y="0" width="56" height="40" rx="4"/></defs><g transform="translate(0 8)" fill="none" fill-rule="evenodd"><mask id="b" fill="#fff"><use xlink:href="#a"/></mask><use fill="#FFF" xlink:href="#a"/><path fill="#DD172C" mask="url(#b)" d="M0 0h56v10.667H0zM0 29.333h56V40H0z"/><path fill="#FFD133" mask="url(#b)" d="M0 10.667h56v18.667H0z"/><path fill="#FFEDB1" mask="url(#b)" d="M14.667 18.667h2.666V20h-2.666z"/><path d="M16.667 18l.224 4.614a2.228 2.228 0 01-.676 1.4 2.25 2.25 0 01-1.402.647 2.472 2.472 0 01-1.622-.593 2.166 2.166 0 01-.749-1.454h0l-.334-4.015L16.667 18z" stroke="#A41517" stroke-width="1.333" mask="url(#b)"/><path fill="#A41517" mask="url(#b)" d="M12 20h5.333v1.333H16L14.667 24l-1.334-2.667H12zM8 16h2.667v9.333H8zM18.667 16h2.667v9.333h-2.667zM12 14.667a1.33 1.33 0 011.332-1.334h2.67a1.33 1.33 0 011.331 1.334v.66a.674.674 0 01-.675.673h-3.983a.677.677 0 01-.675-.673v-.66z"/></g></svg>