<svg width="56" height="56" xmlns="http://www.w3.org/2000/svg" xmlns:xlink="http://www.w3.org/1999/xlink"><defs><linearGradient x1="50%" y1="0%" x2="50%" y2="100%" id="c"><stop stop-color="#042C90" offset="0%"/><stop stop-color="#00247E" offset="100%"/></linearGradient><linearGradient x1="50%" y1="0%" x2="50%" y2="100%" id="f"><stop stop-color="#FFF" offset="0%"/><stop stop-color="#F0F0F0" offset="100%"/></linearGradient><rect id="a" x="0" y="0" width="56" height="40" rx="4"/><path d="M0 9.333V0h13.333v9.333c0 6.667-6.666 9.334-6.666 9.334S0 16 0 9.333z" id="d"/></defs><g transform="translate(0 8)" fill="none" fill-rule="evenodd"><mask id="b" fill="#fff"><use xlink:href="#a"/></mask><use fill="#FFF" xlink:href="#a"/><path fill="#79CFF6" mask="url(#b)" d="M0 0h56v40H0z"/><path fill="url(#c)" mask="url(#b)" d="M0 0h24v18.667H0z"/><g mask="url(#b)"><g transform="translate(34.667 10.667)"><mask id="e" fill="#fff"><use xlink:href="#d"/></mask><use fill="#FFF" xlink:href="#d"/><path d="M2.667 4a1.333 1.333 0 110 2.667 1.333 1.333 0 010-2.667zm8 0a1.333 1.333 0 110 2.667 1.333 1.333 0 010-2.667z" fill="#2A915C" mask="url(#e)"/><path fill="#EB1D43" mask="url(#e)" d="M0 0h13.333v2.667H8V8h5.333v2.667H8v8H5.333v-8H0V8h5.333V2.667H0z"/></g></g><path d="M24.667-1.203v1.87c0 .557-.379 1.28-.822 1.596h0l-8.512 6.08v2.017l9.114 7.812c-.519.746-1.095.978-1.599.994a1.853 1.853 0 01-1.111-.344h0l-8.617-6.155h-2.262L-.667 19.869V16.99l9.334-6.666V8.307L-1.803-.667h3.35L10.88 6h2.262l11.525-7.203z" stroke="#FFF" stroke-width="1.333" fill="#DB1E36" mask="url(#b)"/><path d="M0 6.667V12h9.333v6.661c0 .74.591 1.339 1.332 1.339h2.67c.735 0 1.332-.601 1.332-1.339V12h9.337c.734 0 1.33-.591 1.33-1.332v-2.67c0-.735-.605-1.331-1.33-1.331h-9.337V0H9.333v6.667H0z" fill="url(#f)" mask="url(#b)"/><path fill="#DB1E36" mask="url(#b)" d="M0 8h10.667V0h2.666v8H24v2.667H13.333v8h-2.666v-8H0z"/></g></svg>