<svg width="56" height="56" xmlns="http://www.w3.org/2000/svg" xmlns:xlink="http://www.w3.org/1999/xlink"><defs><rect id="a" x="0" y="0" width="56" height="40" rx="4"/></defs><g transform="translate(0 8)" fill="none" fill-rule="evenodd"><mask id="b" fill="#fff"><use xlink:href="#a"/></mask><use fill="#FFF" xlink:href="#a"/><path fill="#95CEF5" mask="url(#b)" d="M0 0h56v40H0z"/><path d="M28 25.333l1.285 3.565 3.787.12-2.992 2.324 1.055 3.64L28 32.852l-3.135 2.128 1.055-3.639-2.992-2.323 3.787-.121L28 25.333zm10.667-10.666l1.285 3.564 3.787.12-2.993 2.325 1.056 3.639-3.135-2.128-3.135 2.128 1.055-3.64-2.993-2.323 3.787-.121 1.286-3.564zm-21.334 0l1.286 3.564 3.787.12-2.993 2.325 1.055 3.639-3.135-2.128-3.135 2.128 1.056-3.64-2.993-2.323 3.787-.121 1.285-3.564zM28 4l1.285 3.564 3.787.121-2.992 2.324 1.055 3.64L28 11.52l-3.135 2.128 1.055-3.639-2.992-2.324 3.787-.12L28 4z" fill="#FFF" mask="url(#b)"/></g></svg>