<svg width="56" height="56" xmlns="http://www.w3.org/2000/svg" xmlns:xlink="http://www.w3.org/1999/xlink"><defs><rect id="a" x="0" y="0" width="56" height="40" rx="4"/></defs><g transform="translate(0 8)" fill="none" fill-rule="evenodd"><mask id="b" fill="#fff"><use xlink:href="#a"/></mask><use fill="#FFF" xlink:href="#a"/><path fill="#0A17A7" mask="url(#b)" d="M0 0h56v40H0z"/><path d="M58.565-3.833L61.547.59 42.652 13.333H56v13.334H42.652L61.547 39.41l-2.982 4.422-23.9-16.12.002 14.954H21.333V27.713l-23.898 16.12-2.982-4.422 18.895-12.745H0V13.334h13.348L-5.547.59l2.982-4.422 23.898 16.12V-2.668h13.334l-.001 14.954 23.899-16.12z" fill="#FFF" mask="url(#b)"/><path stroke="#DB1F35" stroke-width="1.333" stroke-linecap="round" mask="url(#b)" d="M37.336 12.664L62.667-4"/><path stroke="#DB1F35" stroke-width="1.333" stroke-linecap="round" mask="url(#b)" transform="matrix(1 0 0 -1 0 70.096)" d="M40.026 42.701l22.707-15.306"/><path stroke="#DB1F35" stroke-width="1.333" stroke-linecap="round" mask="url(#b)" d="M16.011 12.621L-7.675-3.342"/><path stroke="#DB1F35" stroke-width="1.333" stroke-linecap="round" mask="url(#b)" transform="matrix(1 0 0 -1 0 71.83)" d="M18.58 44.621L-7.675 27.21"/><path fill="#E6273E" mask="url(#b)" d="M0 24h24v16h8V24h24v-8H32V0h-8v16H0z"/></g></svg>