<svg width="56" height="56" xmlns="http://www.w3.org/2000/svg" xmlns:xlink="http://www.w3.org/1999/xlink"><defs><rect id="a" x="0" y="0" width="56" height="40" rx="4"/></defs><g transform="translate(0 8)" fill="none" fill-rule="evenodd"><mask id="b" fill="#fff"><use xlink:href="#a"/></mask><use fill="#FFF" xlink:href="#a"/><path d="M32-2.667V16L58.666 16v8H31.999L32 42.666h-8V23.999L-2.668 24v-8H24L24-2.668h8z" fill="#FF2B37" mask="url(#b)"/><path d="M45.333 4L44.8 7.2 48 6.667v2.666L44.799 8.8 45.333 12h-2.666l.533-3.201-3.2.534V6.667l3.2.533-.533-3.2h2.666zM13.333 4L12.8 7.2 16 6.667v2.666L12.799 8.8 13.333 12h-2.666l.533-3.201-3.2.534V6.667l3.2.533-.533-3.2h2.666zM13.333 28l-.534 3.2L16 30.667v2.666l-3.201-.534.534 3.201h-2.666l.533-3.201-3.2.534v-2.666l3.2.533-.533-3.2h2.666zM45.333 28l-.534 3.2L48 30.667v2.666l-3.201-.534.534 3.201h-2.666l.533-3.201-3.2.534v-2.666l3.2.533-.533-3.2h2.666z" fill="#FD0D1B" mask="url(#b)"/></g></svg>