<svg width="56" height="56" xmlns="http://www.w3.org/2000/svg" xmlns:xlink="http://www.w3.org/1999/xlink"><defs><rect id="a" x="0" y="0" width="56" height="40" rx="4"/></defs><g transform="translate(0 8)" fill="none" fill-rule="evenodd"><mask id="b" fill="#fff"><use xlink:href="#a"/></mask><use fill="#FFF" xlink:href="#a"/><path fill="#EC3938" mask="url(#b)" d="M0 26.667h56V40H0z"/><path fill="#51B422" mask="url(#b)" d="M0 0h56v13.333H0z"/><path d="M26.842 23.818c.256-.268.466-.79.468-1.153l.02-3.33a.66.66 0 00-.663-.668H26c-.368 0-.456-.21-.201-.465l1.738-1.738a.658.658 0 01.928 0l1.738 1.738c.257.257.17.465-.201.465h-.668a.672.672 0 00-.666.668v3.33c0 .369.21.88.47 1.139l-.274-.274c.26.26.164.47-.203.47h-1.32c-.372 0-.47-.21-.208-.484l-.29.302z" fill="#159940" mask="url(#b)"/><path fill="#258DE7" mask="url(#b)" d="M0 0l18.667 20L0 40z"/></g></svg>