<svg width="56" height="56" xmlns="http://www.w3.org/2000/svg" xmlns:xlink="http://www.w3.org/1999/xlink"><defs><linearGradient x1="50%" y1="0%" x2="50%" y2="100%" id="e"><stop stop-color="#E21C30" offset="0%"/><stop stop-color="#CE1225" offset="100%"/></linearGradient><rect id="a" x="0" y="0" width="56" height="40" rx="4"/><path id="c" d="M0 0h45.333v29.333H0z"/></defs><g transform="translate(0 8)" fill="none" fill-rule="evenodd"><mask id="b" fill="#fff"><use xlink:href="#a"/></mask><use fill="#FFF" xlink:href="#a"/><path fill="#E42235" mask="url(#b)" d="M0 0h56v40H0z"/><g mask="url(#b)"><g transform="translate(5.333 5.333)"><mask id="d" fill="#fff"><use xlink:href="#c"/></mask><use fill="#079B77" xlink:href="#c"/><path d="M3.453 14.93c.755 1.209 1.839 2.006 2.849 2.21.555.113-.462-2.436-.019-2.713.379-.236 2.2 1.884 2.359 1.441.366-1.017.15-2.458-.666-3.764-1.17-1.873-1.216-.637-4.381-1.979.33 1.92-1.313 2.932-.142 4.805z" fill="#FFD938" mask="url(#d)"/><path d="M22.667 14.667l22.666 14.666H0l22.667-14.666zM45.333 0L22.667 14.667 0 0h45.333z" fill="#FFD93B" mask="url(#d)"/><circle fill="url(#e)" mask="url(#d)" cx="22.667" cy="14.667" r="6.667"/><path fill="#FFD938" mask="url(#d)" d="M22.667 16.723l-3.135 2.258 1.179-3.679-3.117-2.283 3.864-.016 1.209-3.67 1.209 3.67 3.863.016-3.116 2.283 1.179 3.68z"/></g></g></g></svg>