<svg width="56" height="56" xmlns="http://www.w3.org/2000/svg" xmlns:xlink="http://www.w3.org/1999/xlink"><defs><rect id="a" x="0" y="0" width="56" height="40" rx="4"/></defs><g transform="translate(0 8)" fill="none" fill-rule="evenodd"><mask id="b" fill="#fff"><use xlink:href="#a"/></mask><use fill="#FFF" xlink:href="#a"/><path fill="#F0371D" mask="url(#b)" d="M0 0h56v40H0z"/><path d="M29.68 21.364c2.101-.683 4.542 1.035 5.452 3.836.91 2.801-.055 5.626-2.156 6.308-.782-2.406-2.128-2.234-2.504-3.392-.461-1.42-.578-1.78.032-4.216s-1.86-2.2-.824-2.536zm-4.132 2.574c2.505-.173 1.517-2.45 2.157-1.568 1.299 1.787.42 4.64-1.964 6.371-2.383 1.731-5.367 1.686-6.665-.101 2.047-1.487 1.467-2.715 2.452-3.43 1.208-.878 1.514-1.1 4.02-1.272zm-2.399 2.37a.667.667 0 10.784 1.078.667.667 0 00-.784-1.078zm9.296-.235a.667.667 0 10.412 1.268.667.667 0 00-.412-1.268zm-14.937-11.54c2.047 1.487 3.035.557 4.02 1.272 1.208.878 1.514 1.1 2.452 3.43s2.798.686 2.158 1.568c-1.299 1.787-4.283 1.832-6.666.1-2.383-1.73-3.262-4.583-1.964-6.37zm17.159.641c2.945 0 5.333 1.791 5.333 4-2.53 0-2.783 1.334-4 1.334-1.493 0-1.872 0-4-1.334-2.128-1.333-2.667 1.09-2.667 0 0-2.209 2.388-4 5.334-4zm-14.613 2.66a.667.667 0 101.079.784.667.667 0 00-1.08-.784zm4.934-5.315c.91-2.801 3.351-4.519 5.452-3.836-.782 2.406.408 3.059.032 4.216-.461 1.42-.578 1.78-2.504 3.392-1.926 1.612.212 2.873-.824 2.537-2.101-.683-3.066-3.507-2.156-6.309zm10.345 4.814a.667.667 0 100 1.334.667.667 0 000-1.334zm-8.086-4.78a.667.667 0 101.268.411.667.667 0 00-1.268-.412z" fill="#FFF" mask="url(#b)"/></g></svg>