<svg width="56" height="56" xmlns="http://www.w3.org/2000/svg" xmlns:xlink="http://www.w3.org/1999/xlink"><defs><rect id="a" x="0" y="0" width="56" height="40" rx="4"/></defs><g transform="translate(0 8)" fill="none" fill-rule="evenodd"><mask id="b" fill="#fff"><use xlink:href="#a"/></mask><use fill="#FFF" xlink:href="#a"/><path fill="#0884E6" mask="url(#b)" d="M0 0h56v13.333H0zM0 26.667h56V40H0z"/><path fill="#0E88E9" mask="url(#b)" d="M28 21.333l-1.886.553.553-1.886-.553-1.886 1.886.553 1.886-.553L29.333 20l.553 1.886zM38.667 18.667l-1.886.552.552-1.886-.552-1.885 1.886.552 1.885-.552L40 17.333l.552 1.886zM38.667 24l-1.886.552.552-1.885-.552-1.886 1.886.552 1.885-.552L40 22.667l.552 1.885zM17.333 24l-1.885.552.552-1.885-.552-1.886 1.885.552 1.886-.552-.552 1.886.552 1.885zM17.333 18.667l-1.885.552.552-1.886-.552-1.885 1.885.552 1.886-.552-.552 1.885.552 1.886z"/></g></svg>