<svg width="56" height="56" xmlns="http://www.w3.org/2000/svg" xmlns:xlink="http://www.w3.org/1999/xlink"><defs><linearGradient x1="50%" y1="0%" x2="50%" y2="100%" id="c"><stop stop-color="#FF212E" offset="0%"/><stop stop-color="#FD0D1B" offset="100%"/></linearGradient><rect id="a" x="0" y="0" width="56" height="40" rx="4"/></defs><g transform="translate(0 8)" fill="none" fill-rule="evenodd"><mask id="b" fill="#fff"><use xlink:href="#a"/></mask><use fill="#FFF" xlink:href="#a"/><path fill="#FF202D" mask="url(#b)" d="M0 0h56v13.333H0z"/><path d="M22.667 9.333L24 10.667v2.666h-2.667v-2.666l1.334-1.334zm5.333 0l1.333 1.334v2.666h-2.666v-2.666L28 9.333zm5.333 0l1.334 1.334v2.666H32v-2.666l1.333-1.334z" fill="#1895DB" opacity=".5" mask="url(#b)"/><path d="M25.333 9.333l1.334 1.334v2.666H24v-2.666l1.333-1.334zm5.334 0L32 10.667v2.666h-2.667v-2.666l1.334-1.334z" fill="#191F94" opacity=".5" mask="url(#b)"/><path fill="#2027AC" mask="url(#b)" d="M0 26.667h56V40H0z"/><path d="M26.667 29.333H24v-2.666h2.667V24h2.666v-2.667h-2.666V24H24v-2.667h-2.667v-2.666H24v2.666h2.667v-2.666h2.666V16h-2.666v2.667H24V16h2.667v-2.667h2.666V16H32v2.667h-2.667v2.665l2.667.001v-2.666h2.667v2.666H32V24h-2.667v2.667H32v2.666h-2.667v-2.666h-2.666v2.666zM24 24v2.667h-2.667V24H24zm10.667 0v2.667H32V24h2.667zm-1.334-10.667L34.667 16H32v-2.667h1.333zm-9.333 0V16h-2.667l1.334-2.667H24z" fill="url(#c)" mask="url(#b)"/></g></svg>