<svg width="56" height="56" xmlns="http://www.w3.org/2000/svg" xmlns:xlink="http://www.w3.org/1999/xlink"><defs><rect id="a" x="0" y="0" width="56" height="40" rx="4"/><rect id="c" x="0" y="0" width="18.667" height="16" rx="1.333"/><linearGradient x1="50%" y1="0%" x2="50%" y2="100%" id="d"><stop stop-color="#FFF" offset="0%"/><stop stop-color="#F0F0F0" offset="100%"/></linearGradient></defs><g transform="translate(0 8)" fill="none" fill-rule="evenodd"><mask id="b" fill="#fff"><use xlink:href="#a"/></mask><use fill="#FFF" xlink:href="#a"/><path fill="#112EBC" mask="url(#b)" d="M0 0h56v18.667H0z"/><path fill="#E3264A" mask="url(#b)" d="M0 18.667h56V40H0z"/><g mask="url(#b)"><g transform="translate(18.667 13.333)"><mask id="e" fill="#fff"><use xlink:href="#c"/></mask><use fill="url(#d)" xlink:href="#c"/><path d="M10.67 11.333c1.384 0 3.51.502 4.751 1.123h0L18 13.746v1.587H.667v-1.588l2.579-1.29c1.24-.62 3.372-1.122 4.751-1.122h0z" stroke="#366C14" stroke-width="1.333" fill="#AABCAE" mask="url(#e)"/><circle fill="#D4B872" mask="url(#e)" cx="9.333" cy="6.667" r="4"/><path d="M3.333 8.054l4.542 3.633c.402.322.928.49 1.458.49.53 0 1.057-.169 1.458-.49h0l4.473-3.579.07 3.897a.67.67 0 01-.129.391l-.066.078a.655.655 0 01-.466.193h0-10.68a.657.657 0 01-.66-.667h0V8.054z" stroke="#0D3488" stroke-width="1.333" fill="#C28321" mask="url(#e)"/><path d="M5.808 3.141c-.262-.262-.17-.474.194-.474h6.663c.37 0 .453.215.194.474L9.808 6.192a.673.673 0 01-.95 0l-3.05-3.05z" fill="#216C30" mask="url(#e)"/></g></g></g></svg>