<svg width="56" height="56" xmlns="http://www.w3.org/2000/svg" xmlns:xlink="http://www.w3.org/1999/xlink"><defs><rect id="a" x="0" y="0" width="56" height="40" rx="4"/></defs><g transform="translate(0 8)" fill="none" fill-rule="evenodd"><mask id="b" fill="#fff"><use xlink:href="#a"/></mask><use fill="#FFF" xlink:href="#a"/><path fill="#38BB56" mask="url(#b)" d="M0 0h56v13.333H0z"/><path fill="#DE1B27" mask="url(#b)" d="M0 26.667h56V40H0z"/><path d="M4.66 26.667c.372 0 .673.306.673.673v1.32a.676.676 0 01-.673.673H3.34a.676.676 0 01-.673-.673v-1.32c0-.372.306-.673.673-.673h1.32zm5.334 0c.371 0 .673.306.673.673v1.32a.676.676 0 01-.673.673H8.673A.676.676 0 018 28.66v-1.32c0-.372.306-.673.673-.673h1.32zm5.333 0c.372 0 .673.306.673.673v1.32a.676.676 0 01-.673.673h-1.32a.676.676 0 01-.674-.673v-1.32c0-.372.306-.673.673-.673h1.321zm5.333 0c.372 0 .673.306.673.673v1.32a.676.676 0 01-.673.673h-1.32a.676.676 0 01-.673-.673v-1.32c0-.372.306-.673.673-.673h1.32zm5.334 0c.371 0 .673.306.673.673v1.32a.676.676 0 01-.673.673h-1.321A.676.676 0 0124 28.66v-1.32c0-.372.306-.673.673-.673h1.32zm5.333 0c.372 0 .673.306.673.673v1.32a.676.676 0 01-.673.673h-1.32a.676.676 0 01-.674-.673v-1.32c0-.372.306-.673.673-.673h1.321zm5.333 0c.372 0 .673.306.673.673v1.32a.676.676 0 01-.673.673h-1.32a.676.676 0 01-.673-.673v-1.32c0-.372.306-.673.673-.673h1.32zm5.334 0c.371 0 .673.306.673.673v1.32a.676.676 0 01-.673.673h-1.321A.676.676 0 0140 28.66v-1.32c0-.372.306-.673.673-.673h1.32zm5.333 0c.372 0 .673.306.673.673v1.32a.676.676 0 01-.673.673h-1.32a.676.676 0 01-.674-.673v-1.32c0-.372.306-.673.673-.673h1.321zm5.333 0c.372 0 .673.306.673.673v1.32a.676.676 0 01-.673.673h-1.32a.676.676 0 01-.673-.673v-1.32c0-.372.306-.673.673-.673h1.32zm-48-16c.372 0 .673.306.673.673v1.32a.676.676 0 01-.673.673H3.34a.676.676 0 01-.673-.673v-1.32c0-.372.306-.673.673-.673h1.32zm5.334 0c.371 0 .673.306.673.673v1.32a.676.676 0 01-.673.673H8.673A.676.676 0 018 12.66v-1.32c0-.372.306-.673.673-.673h1.32zm5.333 0c.372 0 .673.306.673.673v1.32a.676.676 0 01-.673.673h-1.32a.676.676 0 01-.674-.673v-1.32c0-.372.306-.673.673-.673h1.321zm5.333 0c.372 0 .673.306.673.673v1.32a.676.676 0 01-.673.673h-1.32a.676.676 0 01-.673-.673v-1.32c0-.372.306-.673.673-.673h1.32zm5.334 0c.371 0 .673.306.673.673v1.32a.676.676 0 01-.673.673h-1.321A.676.676 0 0124 12.66v-1.32c0-.372.306-.673.673-.673h1.32zm5.333 0c.372 0 .673.306.673.673v1.32a.676.676 0 01-.673.673h-1.32a.676.676 0 01-.674-.673v-1.32c0-.372.306-.673.673-.673h1.321zm5.333 0c.372 0 .673.306.673.673v1.32a.676.676 0 01-.673.673h-1.32a.676.676 0 01-.673-.673v-1.32c0-.372.306-.673.673-.673h1.32zm5.334 0c.371 0 .673.306.673.673v1.32a.676.676 0 01-.673.673h-1.321A.676.676 0 0140 12.66v-1.32c0-.372.306-.673.673-.673h1.32zm5.333 0c.372 0 .673.306.673.673v1.32a.676.676 0 01-.673.673h-1.32a.676.676 0 01-.674-.673v-1.32c0-.372.306-.673.673-.673h1.321zm5.333 0c.372 0 .673.306.673.673v1.32a.676.676 0 01-.673.673h-1.32a.676.676 0 01-.673-.673v-1.32c0-.372.306-.673.673-.673h1.32z" fill-opacity=".5" fill="#FFF" mask="url(#b)"/><path d="M25.577 17.711l4.881.038c.544.593.875 1.383.875 2.251 0 .92-.373 1.754-.976 2.357-.6.6-1.427.972-2.341.976-.964-.049-1.8-.43-2.397-1.026A3.24 3.24 0 0124.667 20c0-.886.346-1.692.91-2.289h0z" stroke="#D80915" stroke-width="1.333" mask="url(#b)"/><rect fill="#D80915" mask="url(#b)" x="26.667" y="18.667" width="2.667" height="5.333" rx="1.333"/></g></svg>