<svg width="56" height="56" xmlns="http://www.w3.org/2000/svg" xmlns:xlink="http://www.w3.org/1999/xlink"><defs><rect id="a" x="0" y="0" width="56" height="40" rx="4"/></defs><g transform="translate(0 8)" fill="none" fill-rule="evenodd"><mask id="b" fill="#fff"><use xlink:href="#a"/></mask><use fill="#FFF" xlink:href="#a"/><path fill="#DF1E35" mask="url(#b)" d="M0 0h56v13.333H0z"/><path fill="#262626" mask="url(#b)" d="M0 26.667h56V40H0z"/><path d="M37.333 16.668c0-.369.266-.535.592-.372l1.483.741c.327.164.592.6.592.96v5.34a.671.671 0 01-.673.663h-1.32a.674.674 0 01-.674-.668v-6.664zM21.333 16.668c0-.369.266-.535.592-.372l1.483.741c.327.164.592.6.592.96v5.34a.671.671 0 01-.673.663h-1.32a.674.674 0 01-.674-.668v-6.664zM32 17.997c0-.367.265-.796.592-.96l1.483-.741c.327-.164.592.008.592.372v6.664c0 .369-.306.668-.673.668h-1.321a.673.673 0 01-.673-.664v-5.34z" fill="#0F7A40" mask="url(#b)"/><path d="M26.667 20.66c0-.364.265-.793.591-.956l1.484-.741c.326-.164.591.002.591.378v2.112h4V24H27.34a.67.67 0 01-.673-.66v-2.68zM16 20.66c0-.364.265-.793.592-.956l1.483-.741c.327-.164.592.002.592.378v2.112h4V24h-5.994a.67.67 0 01-.673-.66v-2.68z" fill="#0F7A40" mask="url(#b)"/></g></svg>