<svg width="56" height="56" xmlns="http://www.w3.org/2000/svg" xmlns:xlink="http://www.w3.org/1999/xlink"><defs><rect id="a" x="0" y="0" width="56" height="40" rx="4"/></defs><g transform="translate(0 8)" fill="none" fill-rule="evenodd"><mask id="b" fill="#fff"><use xlink:href="#a"/></mask><use fill="#FFF" xlink:href="#a"/><path fill="#30C6E0" mask="url(#b)" d="M0 0h56v40H0z"/><circle fill="#FFCD4B" mask="url(#b)" cx="28" cy="20" r="8"/><path d="M31.264 5.701l.826 5.805 5.055-2.973-1.774 5.59 5.843-.487-4.023 4.266L42.667 20l-5.476 2.098 4.023 4.266-5.843-.486 1.774 5.589-5.055-2.973-.826 5.805L28 29.427 24.736 34.3l-.826-5.805-5.055 2.973 1.774-5.59-5.843.487 4.023-4.266L13.333 20l5.476-2.098-4.023-4.266 5.843.486-1.774-5.589 5.055 2.973.826-5.805L28 10.573 31.264 5.7zM28 10.667a9.333 9.333 0 100 18.666 9.333 9.333 0 000-18.666zM4.66 34.667c.372 0 .673.306.673.673v1.32a.676.676 0 01-.673.673H3.34a.676.676 0 01-.673-.673v-1.32c0-.372.306-.673.673-.673h1.32zM7.327 32c.372 0 .673.306.673.673v1.32a.676.676 0 01-.673.674h-1.32a.676.676 0 01-.674-.673v-1.321c0-.372.306-.673.673-.673h1.321zM4.66 29.333c.372 0 .673.306.673.673v1.321A.676.676 0 014.66 32H3.34a.676.676 0 01-.673-.673v-1.32c0-.372.306-.674.673-.674h1.32zm2.667-2.666c.372 0 .673.306.673.673v1.32a.676.676 0 01-.673.673h-1.32a.676.676 0 01-.674-.673v-1.32c0-.372.306-.673.673-.673h1.321zM4.66 24c.372 0 .673.306.673.673v1.32a.676.676 0 01-.673.674H3.34a.676.676 0 01-.673-.673v-1.321c0-.372.306-.673.673-.673h1.32zm2.667-2.667c.372 0 .673.306.673.673v1.321a.676.676 0 01-.673.673h-1.32a.676.676 0 01-.674-.673v-1.32c0-.372.306-.674.673-.674h1.321zM4.66 18.667c.372 0 .673.306.673.673v1.32a.676.676 0 01-.673.673H3.34a.676.676 0 01-.673-.673v-1.32c0-.372.306-.673.673-.673h1.32zM7.327 16c.372 0 .673.306.673.673v1.32a.676.676 0 01-.673.674h-1.32a.676.676 0 01-.674-.673v-1.321c0-.372.306-.673.673-.673h1.321zM4.66 13.333c.372 0 .673.306.673.673v1.321A.676.676 0 014.66 16H3.34a.676.676 0 01-.673-.673v-1.32c0-.372.306-.674.673-.674h1.32zm2.667-2.666c.372 0 .673.306.673.673v1.32a.676.676 0 01-.673.673h-1.32a.676.676 0 01-.674-.673v-1.32c0-.372.306-.673.673-.673h1.321zM4.66 8c.372 0 .673.306.673.673v1.32a.676.676 0 01-.673.674H3.34a.676.676 0 01-.673-.673V8.673c0-.372.306-.673.673-.673h1.32zm2.667-2.667c.372 0 .673.306.673.673v1.321A.676.676 0 017.327 8h-1.32a.676.676 0 01-.674-.673v-1.32c0-.372.306-.674.673-.674h1.321zM4.66 2.667c.372 0 .673.306.673.673v1.32a.676.676 0 01-.673.673H3.34a.676.676 0 01-.673-.673V3.34c0-.372.306-.673.673-.673h1.32z" fill="#FFCD4B" mask="url(#b)"/></g></svg>