<svg width="56" height="56" xmlns="http://www.w3.org/2000/svg" xmlns:xlink="http://www.w3.org/1999/xlink"><defs><path d="M6.667 27c2.666 0 6.666-5.233 6.666-13.333 0-8.1-4-13.334-6.666-13.334C4 .333 0 5.566 0 13.667 0 21.767 4 27 6.667 27z" id="c"/><path d="M6.667 17.667C7.403 17.667 8 20.054 8 23s-.597 5.333-1.333 5.333c-.737 0-1.334-2.387-1.334-5.333s.597-5.333 1.334-5.333zm0-8c.736 0 1.333 1.79 1.333 4 0 2.209-.597 4-1.333 4-.737 0-1.334-1.791-1.334-4 0-2.21.597-4 1.334-4zM6.667-1C7.403-1 8 1.388 8 4.333c0 2.946-.597 5.334-1.333 5.334-.737 0-1.334-2.388-1.334-5.334C5.333 1.388 5.93-1 6.667-1z" id="f"/><linearGradient x1="50%" y1="0%" x2="50%" y2="100%" id="g"><stop stop-color="#FFF" offset="0%"/><stop stop-color="#F0F0F0" offset="100%"/></linearGradient><filter x="-37.5%" y="-3.4%" width="175%" height="113.6%" filterUnits="objectBoundingBox" id="e"><feOffset dy="2" in="SourceAlpha" result="shadowOffsetOuter1"/><feColorMatrix values="0 0 0 0 0 0 0 0 0 0 0 0 0 0 0 0 0 0 0.06 0" in="shadowOffsetOuter1"/></filter><rect id="a" x="0" y="0" width="56" height="40" rx="4"/></defs><g transform="translate(0 8)" fill="none" fill-rule="evenodd"><mask id="b" fill="#fff"><use xlink:href="#a"/></mask><use fill="#FFF" xlink:href="#a"/><path fill="#262626" mask="url(#b)" d="M0 0h56v10.667H0z"/><path fill="#018301" mask="url(#b)" d="M0 29.333h56V40H0z"/><path fill="#FFF" mask="url(#b)" d="M0 10.667h56v18.667H0z"/><path fill="#DC0808" mask="url(#b)" d="M0 13.333h56v13.333H0z"/><g mask="url(#b)"><g transform="translate(21.333 6.333)"><mask id="d" fill="#fff"><use xlink:href="#c"/></mask><use fill="#BC0000" xlink:href="#c"/><ellipse fill="#262626" mask="url(#d)" cx="-4" cy="13.667" rx="6.667" ry="14.667"/><ellipse fill="#262626" mask="url(#d)" cx="17.333" cy="13.667" rx="6.667" ry="14.667"/><g mask="url(#d)"><use fill="#000" filter="url(#e)" xlink:href="#f"/><use fill="url(#g)" xlink:href="#f"/></g></g></g></g></svg>