<svg width="56" height="56" xmlns="http://www.w3.org/2000/svg" xmlns:xlink="http://www.w3.org/1999/xlink"><defs><rect id="a" x="0" y="0" width="56" height="40" rx="4"/></defs><g transform="translate(0 8)" fill="none" fill-rule="evenodd"><mask id="b" fill="#fff"><use xlink:href="#a"/></mask><use fill="#FFF" xlink:href="#a"/><path fill="#F22A46" mask="url(#b)" d="M0 0h56v40H0z"/><circle fill="#FFF04D" mask="url(#b)" cx="28" cy="20" r="6.667"/><path d="M31.264 5.701l.826 5.805 5.055-2.973-1.774 5.59 5.843-.487-4.023 4.266L42.667 20l-5.476 2.098 4.023 4.266-5.843-.486 1.774 5.589-5.055-2.973-.826 5.805L28 29.427 24.736 34.3l-.826-5.805-5.055 2.973 1.774-5.59-5.843.487 4.023-4.266L13.333 20l5.476-2.098-4.023-4.266 5.843.486-1.774-5.589 5.055 2.973.826-5.805L28 10.573 31.264 5.7zM28 10.667a9.333 9.333 0 100 18.666 9.333 9.333 0 000-18.666z" fill="#FFF04D" mask="url(#b)"/></g></svg>