<svg width="56" height="56" xmlns="http://www.w3.org/2000/svg" xmlns:xlink="http://www.w3.org/1999/xlink"><defs><rect id="a" x="0" y="0" width="56" height="40" rx="4"/></defs><g transform="translate(0 8)" fill="none" fill-rule="evenodd"><mask id="b" fill="#fff"><use xlink:href="#a"/></mask><use fill="#FFF" xlink:href="#a"/><path fill="#0F3EB6" mask="url(#b)" d="M0 0h56v10.667H0zM0 29.333h56V40H0z"/><path fill="#ED1A3C" mask="url(#b)" d="M0 10.667h56v18.667H0z"/><path d="M22.667 21.333v5.334h-5.334L20 21.333h2.667zm9.333 0v5.334h-8v-5.334h8zm4 0l2.667 5.334h-5.334v-5.334H36zM34.667 16c.736 0 1.333.59 1.333 1.332V20h-2.667v-2.668c0-.692.525-1.261 1.204-1.326l.13-.006zM28 14.667c.736 0 1.333.59 1.333 1.328v1.46H32V20h-8v-2.546h2.667v-1.459c0-.69.524-1.258 1.204-1.322l.129-.006zM21.333 16c.737 0 1.334.59 1.334 1.332V20H20v-2.668c0-.692.524-1.261 1.204-1.326l.13-.006z" fill="#FFF" mask="url(#b)"/></g></svg>