<svg width="56" height="56" xmlns="http://www.w3.org/2000/svg" xmlns:xlink="http://www.w3.org/1999/xlink"><defs><rect id="a" x="0" y="0" width="56" height="40" rx="4"/></defs><g transform="translate(0 8)" fill="none" fill-rule="evenodd"><mask id="b" fill="#fff"><use xlink:href="#a"/></mask><use fill="#FFF" xlink:href="#a"/><g mask="url(#b)"><path fill="#CE1126" fill-rule="nonzero" d="M-12 0h80v40h-80z"/><g transform="translate(16.6 2.133)" fill-rule="nonzero"><path d="M19.097 16.759c.208.03.308.045.42.063 1.193.186 1.859.42 2.31.947l.315.368-.468-.125c-.401-.108-.817.044-1.617.515l-.105.062c-.914.539-1.365.732-1.828.635a.278.278 0 01-.063.049c-.078.044-.204.076-.386.102-.32.047-.824.078-1.5.095-1.181.03-2.863.017-4.87-.032-1.607-.039-3.354-.1-4.82-.163-.607-.026-1.114-.05-1.427-.069a7.774 7.774 0 01-.304-.021c-.019-.002-.019-.002-.042-.007-.01.005-.013.007-.05-.034a10.72 10.72 0 00-.959-.17l-.42-.062c-1.193-.186-1.859-.42-2.31-.948l-.315-.368.468.126c.401.108.817-.045 1.617-.515l.105-.062c.617-.364 1.023-.57 1.364-.636l-.159-.089-.55-.297c-1.149-.623-1.702-1.065-1.937-1.735l-.154-.44.382.268c.35.245.788.238 1.775.054l.052-.01c.695-.129 1.145-.184 1.485-.131-.11-.126-.26-.295-.484-.543-.921-1.028-1.293-1.625-1.273-2.353l.012-.454.26.372c.247.353.656.491 1.67.658l.038.006c.693.114 1.135.216 1.437.384-.056-.15-.13-.34-.233-.603-.107-.27-.173-.447-.237-.629-.307-.877-.392-1.517-.195-2.082l.16-.46.127.47c.112.42.443.685 1.354 1.196l.025.015c.608.341.986.589 1.213.852-.002-.15-.008-.33-.017-.56-.008-.2-.011-.3-.014-.417-.03-1.163.092-1.853.548-2.37l.302-.343-.04.455c-.038.43.183.79.866 1.584l.122.142c.386.451.63.792.745 1.106l.11-.312.173-.499c.417-1.192.76-1.812 1.338-2.163l.422-.256-.208.448c-.18.387-.095.795.277 1.76l.004.008c.257.665.394 1.105.398 1.458l.103-.127.355-.447c.832-1.044 1.36-1.513 2.067-1.638L17 8.704l-.337.337c-.306.306-.372.73-.363 1.762v.027c.006.71-.019 1.164-.134 1.493.141-.085.325-.198.59-.362.65-.402 1.03-.607 1.45-.75.4-.138.77-.182 1.12-.121l.473.081-.434.202c-.394.184-.601.56-.948 1.54l-.011.03c-.235.661-.413 1.076-.633 1.344.154-.029.344-.067.597-.12.229-.047.368-.075.515-.102 1.027-.19 1.709-.177 2.28.143l.425.238-.485.042c-.43.038-.742.314-1.4 1.12l-.005.007c-.453.556-.767.892-1.074 1.071.132.022.285.046.47.073z" fill="#BD9C08"/><path d="M19.47 17.118l-.417-.062c-.55-.081-.822-.13-1.107-.206l-1.099-.295h1.138c.462 0 .79-.28 1.483-1.13l.005-.007c.498-.61.817-.944 1.15-1.106-.428-.113-.96-.086-1.683.048-.145.026-.282.054-.509.1-.684.143-.912.185-1.227.212l-1.119.098 1.054-.388c.413-.152.624-.524.984-1.539l.01-.03c.265-.747.457-1.174.72-1.443a2.37 2.37 0 00-.55.124c-.392.134-.758.332-1.39.722-.726.45-.852.524-1.15.664l-1.01.47.849-.72c.338-.288.408-.708.398-1.798v-.026c-.007-.79.027-1.256.184-1.598-.446.207-.877.64-1.485 1.404l-.356.448a10.33 10.33 0 01-.354.421 5.214 5.214 0 01-.196.208l-.948.948.715-1.134c.247-.393.17-.816-.232-1.854l-.003-.009c-.28-.724-.412-1.164-.39-1.53-.323.342-.579.88-.877 1.733l-.172.498c-.141.407-.24.665-.35.902l-.508 1.09.225-1.181c.079-.416-.135-.808-.734-1.508l-.121-.142c-.529-.613-.804-.991-.902-1.356-.208.419-.269.987-.247 1.827.003.116.006.214.014.414.024.64.027.9 0 1.209l-.1 1.146-.197-1.134c-.077-.439-.408-.713-1.346-1.241l-.025-.014c-.688-.387-1.075-.647-1.295-.948-.027.398.07.868.28 1.463.061.178.127.35.232.619.284.726.35.906.434 1.218l.32 1.197-.596-1.086c-.212-.385-.613-.528-1.69-.705l-.038-.006c-.785-.13-1.24-.244-1.551-.462.116.48.475.984 1.155 1.742.634.708.693.776.886 1.052l.697.994-.918-.795c-.33-.286-.753-.282-1.835-.08l-.052.01c-.758.14-1.223.185-1.588.09.275.4.771.748 1.61 1.204.038.02.437.234.551.297.298.164.515.293.704.425l.949.665-1.087-.4c-.416-.154-.811-.005-1.762.556l-.106.062c-.607.357-1.017.548-1.383.585.391.272.954.43 1.818.565l.417.063c.55.08.822.129 1.107.205l.046.013.176.01c.311.019.816.044 1.421.07 1.465.063 3.21.123 4.815.162 2.003.049 3.68.062 4.856.033.664-.017 1.159-.048 1.463-.092.05-.008.095-.015.133-.023l-.814-.57 1.087.401c.416.153.811.005 1.762-.557l.106-.062c.607-.357 1.017-.548 1.383-.585-.391-.272-.954-.43-1.818-.565z" fill="#FCD116"/><path d="M5.451 17.867L1.58 16.284c-.149-.06-.11-.282.051-.289l4.18-.163-3.097-2.812c-.12-.108-.007-.303.146-.254l3.984 1.278-1.95-3.702c-.074-.143.098-.287.226-.188l3.307 2.561-.565-4.144c-.022-.16.19-.237.275-.1l2.231 3.539.886-4.089c.035-.157.26-.157.294 0l.886 4.089 2.23-3.54c.087-.136.298-.059.276.101l-.565 4.144 3.306-2.561c.128-.1.3.045.225.188l-1.948 3.702 3.983-1.278c.153-.049.266.146.146.254l-3.096 2.812 4.179.163c.16.007.2.228.05.29l-3.87 1.582 3.87 1.582c.153.062.108.289-.056.289H1.636c-.165 0-.21-.227-.057-.289l3.872-1.582z" fill="#BD9C08"/><path d="M5.905 17.728a.15.15 0 010 .278L2.4 19.438h18l-3.505-1.432a.15.15 0 010-.278l3.57-1.46-3.854-.15a.15.15 0 01-.095-.261l2.856-2.594-3.673 1.179a.15.15 0 01-.178-.213l1.796-3.415-3.05 2.363a.15.15 0 01-.24-.139l.522-3.822-2.058 3.264a.15.15 0 01-.274-.048L11.4 8.66l-.817 3.77a.15.15 0 01-.274.049L8.251 9.216l.522 3.822a.15.15 0 01-.24.14l-3.051-2.364 1.797 3.415a.15.15 0 01-.178.213l-3.674-1.179 2.856 2.594c.1.09.04.256-.094.26l-3.856.151 3.572 1.46z" fill="#FCD116"/><path d="M11.4 23.531a5.664 5.664 0 100-11.329 5.664 5.664 0 000 11.33zm0-.3a5.364 5.364 0 110-10.729 5.364 5.364 0 010 10.73z" fill="#BD9C08"/><path d="M13.213 4.515l2.958.02c.018-.126-.254-.374-.487-.41-.748-.118-1.31.124-2.219.133l-.252.257h0z" stroke="#BD9C08" stroke-width=".2" fill="#FCD116"/><path d="M7.324 3.82c.695.876 2.041 1.486 3.327 1.494 1.733.01 3.656-1.392 5.98-1.821l-7.588-.157c-.983-.672-1.728-.587-2.236-.17l-1.451.044c-.205.112.17.579.473.596l1.495.013h0z" stroke="#BD9C08" stroke-width=".2" fill="#FCD116"/><path d="M10.755 3.316C10.479 2.046 9.46 1.5 8.236 1.337c-1.415-.187-4.67-.38-6.832-1 .936.92 2.895 1.38 4.256 1.587 1.441.22 2.844.54 3.956 1.38l1.139.012h0z" stroke="#BD9C08" stroke-width=".2" fill="#FCD116"/><path d="M9.836 4.163c.452.58 1.153.548 1.908.041.752-.505 1.57-1.926 1.964-1.95C16.467 2.094 19.804.93 21.396.03c-2.019.286-4.019.61-6.055.618-3.473.014-3.884 1.596-5.3 2.705" stroke="#BD9C08" stroke-width=".2" fill="#FCD116" stroke-linecap="round"/><path d="M10.428 3.565c.368-.235.644-.452 1.217-.937l.029-.024c.381-.323.565-.474.795-.644.941-.698 1.799-.849 3.839-.874.562-.007 1.336-.112 2.296-.298.308-.06.631-.127.975-.202.43-.094.642-.143 1.422-.326a.1.1 0 00-.045-.195c-.78.183-.992.232-1.42.325-.342.075-.664.142-.97.201-.95.184-1.713.288-2.26.295-2.081.026-2.97.182-3.956.913-.234.174-.421.327-.806.652l-.028.024c-.567.48-.837.693-1.195.921a.1.1 0 00.107.169zM9.702 3.24C9.5 2.184 8.682 1.735 6.998 1.48c-.32-.048-.585-.085-1.148-.16a79.577 79.577 0 01-.916-.126c-.936-.134-1.646-.27-2.33-.46a4.708 4.708 0 01-.675-.257L1.917.472a9.716 9.716 0 00-.35-.148L1.494.51c.096.038.173.071.343.145l.012.006c.336.147.498.21.702.267.693.191 1.41.328 2.354.464.254.037.445.063.919.126.561.075.826.112 1.144.16 1.609.244 2.357.655 2.538 1.599l.196-.038zM10.062 5.03c1.223.09 2.14-.171 3.61-.904a.1.1 0 10-.09-.179c-1.44.718-2.325.97-3.505.884a.1.1 0 10-.015.2zM5.35 3.549H7.08a.1.1 0 000-.2H5.35a.1.1 0 100 .2z" fill="#BD9C08"/><circle fill="#BD9C08" cx="7.633" cy="3.258" r="1"/></g><path fill="#003F87" fill-rule="nonzero" d="M-12 22h80v18h-80z"/><path d="M-12 34.285c2.667 0 5.333 1.715 8 1.715s5.333-1.715 8-1.715S9.333 36 12 36s5.333-1.715 8-1.715S25.333 36 28 36s5.333-1.715 8-1.715S41.333 36 44 36s5.333-1.715 8-1.715S57.333 36 60 36s5.333-1.715 8-1.715v-2.857c-2.667 0-5.333 1.715-8 1.715s-5.333-1.715-8-1.715-5.333 1.715-8 1.715-5.333-1.715-8-1.715-5.333 1.715-8 1.715-5.333-1.715-8-1.715-5.333 1.715-8 1.715-5.333-1.715-8-1.715-5.333 1.715-8 1.715-5.333-1.715-8-1.715v2.857zM-12 28.571c2.667 0 5.333 1.715 8 1.715s5.333-1.715 8-1.715 5.333 1.715 8 1.715 5.333-1.715 8-1.715 5.333 1.715 8 1.715 5.333-1.715 8-1.715 5.333 1.715 8 1.715 5.333-1.715 8-1.715 5.333 1.715 8 1.715 5.333-1.715 8-1.715v-2.857c-2.667 0-5.333 1.714-8 1.714s-5.333-1.714-8-1.714-5.333 1.714-8 1.714-5.333-1.714-8-1.714-5.333 1.714-8 1.714-5.333-1.714-8-1.714-5.333 1.714-8 1.714-5.333-1.714-8-1.714-5.333 1.714-8 1.714-5.333-1.714-8-1.714v2.857zM-12 22.857c2.667 0 5.333 1.714 8 1.714s5.333-1.714 8-1.714 5.333 1.714 8 1.714 5.333-1.714 8-1.714 5.333 1.714 8 1.714 5.333-1.714 8-1.714 5.333 1.714 8 1.714 5.333-1.714 8-1.714 5.333 1.714 8 1.714 5.333-1.714 8-1.714v-2.858c-2.667 0-5.333 1.715-8 1.715S54.667 20 52 20s-5.333 1.715-8 1.715S38.667 20 36 20s-5.333 1.715-8 1.715S22.667 20 20 20s-5.333 1.715-8 1.715S6.667 20 4 20s-5.333 1.715-8 1.715S-9.333 20-12 20v2.858z" fill="#FFF" fill-rule="nonzero"/></g></g></svg>