<svg width="56" height="56" xmlns="http://www.w3.org/2000/svg" xmlns:xlink="http://www.w3.org/1999/xlink"><defs><rect id="a" x="0" y="0" width="56" height="40" rx="4"/></defs><g transform="translate(0 8)" fill="none" fill-rule="evenodd"><mask id="b" fill="#fff"><use xlink:href="#a"/></mask><use fill="#FFF" xlink:href="#a"/><path fill="#1EC160" mask="url(#b)" d="M0 26.667L56 0H0z"/><path fill="#DF2A40" mask="url(#b)" d="M0 40h56V13.333z"/><path fill="#FFD956" mask="url(#b)" d="M1.568 50.667L67.15 9.687 54.432-10.668l-65.582 40.98z"/><path fill="#262626" mask="url(#b)" d="M-1.258 46.144l65.582-40.98-7.066-11.308-65.582 40.98z"/><path fill="#FFF" mask="url(#b)" d="M40.619 15.595l-1.891 2.995-1.227-3.323-3.432-.873 2.78-2.193-.23-3.534 2.945 1.966 3.29-1.311-.96 3.409 2.264 2.724zM19.285 28.528l-1.89 2.995-1.227-3.322-3.433-.873 2.781-2.194-.23-3.534 2.945 1.967 3.29-1.312-.96 3.41 2.263 2.723z"/></g></svg>