<svg width="56" height="56" xmlns="http://www.w3.org/2000/svg" xmlns:xlink="http://www.w3.org/1999/xlink"><defs><circle id="c" cx="9.333" cy="9.333" r="9.333"/><rect id="a" x="0" y="0" width="56" height="40" rx="4"/></defs><g transform="translate(0 8)" fill="none" fill-rule="evenodd"><mask id="b" fill="#fff"><use xlink:href="#a"/></mask><use fill="#FFF" xlink:href="#a"/><g mask="url(#b)"><g transform="translate(18.667 10.667)"><mask id="d" fill="#fff"><use xlink:href="#c"/></mask><use fill="#E01B41" xlink:href="#c"/><path d="M0 10.667c2.667 2.5 6.667 4 9.333 0 2.667-4 8-4 9.334 0 1.333 4 0 8 0 8H0s-2.667-10.5 0-8z" fill="#0E4B9C" mask="url(#d)"/></g></g><path d="M11.323 25.781l3.332 5.771c.184.32.069.732-.249.915l-1.144.66a.674.674 0 01-.917-.242l-3.331-5.77a.674.674 0 01.248-.916l1.144-.66a.674.674 0 01.917.242zm34.27-.242l1.145.66c.322.186.43.6.248.916l-3.331 5.77a.674.674 0 01-.917.243l-1.144-.66a.674.674 0 01-.249-.916l3.332-5.77c.184-.32.599-.426.917-.243zm-30.806-1.758l3.332 5.771c.184.32.07.732-.249.915l-1.144.66a.674.674 0 01-.917-.242l-3.331-5.77a.674.674 0 01.248-.916l1.144-.66a.674.674 0 01.917.242zm27.343-.242l1.144.66c.321.186.43.6.248.916l-3.331 5.77a.674.674 0 01-.917.243l-1.144-.66a.674.674 0 01-.249-.916l3.332-5.77c.184-.32.599-.426.917-.243zM40.19 9.115l3.332 5.77c.185.32.07.732-.248.916l-1.144.66a.674.674 0 01-.917-.242l-3.332-5.771a.674.674 0 01.249-.915l1.144-.66a.674.674 0 01.917.242zm-23.464-.243l1.144.66c.322.187.431.6.249.916l-3.332 5.77a.674.674 0 01-.917.243l-1.144-.66a.674.674 0 01-.248-.916l3.331-5.77c.185-.32.6-.426.917-.243zm26.929-1.757l3.331 5.77c.185.32.07.732-.248.916l-1.144.66a.674.674 0 01-.917-.242l-3.332-5.771a.674.674 0 01.249-.915l1.144-.66a.674.674 0 01.917.242zm-30.393-.243l1.144.66c.322.187.431.6.249.916l-3.332 5.77a.674.674 0 01-.917.243l-1.144-.66a.674.674 0 01-.248-.916l3.331-5.77c.185-.32.6-.426.917-.243z" fill="#262626" opacity=".75" mask="url(#b)"/></g></svg>