<svg width="56" height="56" xmlns="http://www.w3.org/2000/svg" xmlns:xlink="http://www.w3.org/1999/xlink"><defs><rect id="a" x="0" y="0" width="56" height="40" rx="4"/></defs><g transform="translate(0 8)" fill="none" fill-rule="evenodd"><mask id="b" fill="#fff"><use xlink:href="#a"/></mask><use fill="#FFF" xlink:href="#a"/><path fill="#F03340" mask="url(#b)" d="M0 0h56v10.667H0zM0 29.333h56V40H0z"/><path d="M25.719 24.948c.523-.524.526-1.37.007-1.889l.548.548c-.52-.52-1.511-.798-2.232-.618l-2.75.688c-.714.178-.819-.032-.226-.477l3.2-2.4c.59-.442.477-.8-.265-.8h-1.336c-.735 0-.8-.265-.148-.592l2.966-1.483c.654-.327.593-.592-.148-.592h-1.336c-.736 0-.859-.355-.266-.8l3.2-2.4c.59-.442 1.54-.445 2.133 0l3.2 2.4c.59.442.477.8-.265.8h-1.336c-.735 0-.8.266-.148.592l2.966 1.483c.654.327.593.592-.148.592h-1.336c-.736 0-.859.355-.266.8l3.2 2.4c.59.442.496.657-.224.477l-2.751-.688c-.713-.178-1.713.1-2.232.618l.548-.548c-.52.52-.524 1.358.007 1.889l.771.771c.524.523.347.948-.391.948h-5.322c-.74 0-.922-.417-.391-.948l.771-.771z" fill="#1FC065" mask="url(#b)"/></g></svg>