<svg width="56" height="56" xmlns="http://www.w3.org/2000/svg" xmlns:xlink="http://www.w3.org/1999/xlink"><defs><filter x="-5.4%" y="-22.5%" width="110.7%" height="145%" filterUnits="objectBoundingBox" id="c"><feMorphology radius="1" operator="dilate" in="SourceAlpha" result="shadowSpreadOuter1"/><feOffset in="shadowSpreadOuter1" result="shadowOffsetOuter1"/><feColorMatrix values="0 0 0 0 0 0 0 0 0 0 0 0 0 0 0 0 0 0 0.06 0" in="shadowOffsetOuter1"/></filter><filter x="-5.4%" y="-22.5%" width="110.7%" height="145%" filterUnits="objectBoundingBox" id="e"><feMorphology radius="1" operator="dilate" in="SourceAlpha" result="shadowSpreadOuter1"/><feOffset in="shadowSpreadOuter1" result="shadowOffsetOuter1"/><feColorMatrix values="0 0 0 0 0 0 0 0 0 0 0 0 0 0 0 0 0 0 0.06 0" in="shadowOffsetOuter1"/></filter><path id="d" d="M0 13.333h56v13.333H0z"/><path id="f" d="M0 26.667h56V40H0z"/><rect id="a" x="0" y="0" width="56" height="40" rx="4"/></defs><g transform="translate(0 8)" fill="none" fill-rule="evenodd"><mask id="b" fill="#fff"><use xlink:href="#a"/></mask><use fill="#FFF" xlink:href="#a"/><g mask="url(#b)"><use fill="#000" filter="url(#c)" xlink:href="#d"/><use fill="#262626" xlink:href="#d"/></g><g mask="url(#b)"><use fill="#000" filter="url(#e)" xlink:href="#f"/><use fill="#34B857" xlink:href="#f"/></g><path fill="#F41F34" mask="url(#b)" d="M0 0h56v13.333H0z"/><path d="M28 16c.823 0 1.588.248 2.224.675a3.333 3.333 0 100 6.651A4 4 0 1128 16zm2.667 2.667a1.333 1.333 0 110 2.666 1.333 1.333 0 010-2.666z" fill="#FFF" mask="url(#b)"/></g></svg>