<svg width="56" height="56" xmlns="http://www.w3.org/2000/svg" xmlns:xlink="http://www.w3.org/1999/xlink"><defs><rect id="a" x="0" y="0" width="56" height="40" rx="4"/></defs><g transform="translate(0 8)" fill="none" fill-rule="evenodd"><mask id="b" fill="#fff"><use xlink:href="#a"/></mask><use fill="#FFF" xlink:href="#a"/><path fill="#FFBF19" mask="url(#b)" d="M0 0h56v40H0z"/><path d="M21.333 2.667H50.66a2.669 2.669 0 012.673 2.662v29.342a2.667 2.667 0 01-2.673 2.662H21.333V2.667z" fill="#A52531" mask="url(#b)"/><path d="M2.667 5.33A2.666 2.666 0 015.33 2.666h5.336v34.666H5.33a2.664 2.664 0 01-2.664-2.662V5.329z" fill="#03664F" mask="url(#b)"/><rect fill="#FF6816" mask="url(#b)" x="10.667" y="2.667" width="8" height="34.667" rx="1.333"/><path d="M49.333 32c.737 0 1.334.597 1.334 1.333v1.334h-1.334a1.333 1.333 0 010-2.667zm-24 0a1.333 1.333 0 110 2.667H24v-1.334c0-.736.597-1.333 1.333-1.333zm0-26.667A1.333 1.333 0 1124 6.667V5.333zm25.334 0v1.334a1.333 1.333 0 11-1.334-1.334h1.334zM32 25.333c0-.736-.604-1.333-1.333-1.333H32c-.736 0-1.89-.203-2.577-.483 0 0-2.756-.85-2.756-2.184 0-1.333.527-1.613.527-1.613.445-.582.58-1.61.322-2.296 0 0-1.116-2.492-.85-4.09.267-1.6 1.523-1.998 1.523-1.998.632-.37 1.144-.068 1.144.67v5.322c0 .74.54 1.608 1.193 1.935l.281.14c.659.33 1.615.175 2.134-.344l-.548.548c.52-.52.4-1.21-.253-1.537l-1.473-.737V16H32c.736 0 .794-.27.14-.596l-1.473-.737v-1.334H32c.736 0 1.755-.422 2.274-.94l-.548.548C34.246 12.42 35.258 12 36 12c.736 0 1.603.54 1.93 1.193l.14.28c.33.66.406 1.767.175 2.46l-.49 1.468c-.233.699.17 1.266.911 1.266h4c.737 0 1.756-.422 2.275-.94l-.548.547c.52-.52.4-1.21-.253-1.537l-.28-.14c-.66-.33-1.785-.597-2.527-.597A1.33 1.33 0 0140 14.667c0-.737.422-1.756.94-2.274l.393-.393v1.333c0 .737.605 1.334 1.334 1.334h-1.334H44c.736 0 1.603.54 1.93 1.193l.14.28c.33.66.65 1.779.697 2.53 0 0 .182 1.25-.1 2.663-.283 1.413-.603 1.57-.603 1.57-.404.606-.73 1.688-.73 2.43V28A1.33 1.33 0 0144 29.333c-.736 0-1.064-.54-.737-1.193l.14-.28c.33-.66.327-1.733 0-2.386l-.14-.281c-.33-.659-.596-.601-.596.14 0 .737-.27 1.873-.597 2.527l-.14.28c-.33.66-1.188 1.193-1.93 1.193-.736 0-1.064-.54-.737-1.193l.14-.28c.33-.66.597-1.785.597-2.527A1.33 1.33 0 0038.668 24h-2.67a1.33 1.33 0 00-1.331 1.333c0 .737-.27 1.873-.597 2.527l-.14.28c-.33.66-1.188 1.193-1.93 1.193-.736 0-1.064-.54-.737-1.193l.14-.28c.33-.66.597-1.785.597-2.527z" fill="#FFBF18" mask="url(#b)"/></g></svg>