<svg width="56" height="56" xmlns="http://www.w3.org/2000/svg" xmlns:xlink="http://www.w3.org/1999/xlink"><defs><rect id="a" x="0" y="0" width="56" height="40" rx="4"/></defs><g transform="translate(0 8)" fill="none" fill-rule="evenodd"><mask id="b" fill="#fff"><use xlink:href="#a"/></mask><use fill="#FFF" xlink:href="#a"/><path fill="#0C33B8" mask="url(#b)" d="M0 0h56v13.333H0z"/><path fill="#1DB158" mask="url(#b)" d="M0 26.667h56V40H0z"/><path d="M26.667 20l.911-2.734c.233-.7.613-.693.844 0L29.333 20l2.296 3.444c.205.307.136.753-.157.956 0 0-.805.933-3.472.933s-3.472-.933-3.472-.933a.717.717 0 01-.157-.956L26.667 20z" fill="#262626" mask="url(#b)"/><circle stroke="#262626" stroke-width="1.333" mask="url(#b)" cx="28" cy="17.333" r="2"/></g></svg>