<svg width="56" height="56" xmlns="http://www.w3.org/2000/svg" xmlns:xlink="http://www.w3.org/1999/xlink"><defs><rect id="a" x="0" y="0" width="56" height="40" rx="4"/></defs><g transform="translate(0 8)" fill="none" fill-rule="evenodd"><mask id="b" fill="#fff"><use xlink:href="#a"/></mask><use fill="#FFF" xlink:href="#a"/><path fill="#079D7B" mask="url(#b)" d="M0 0h56v40H0z"/><g mask="url(#b)"><path d="M35.11 29.333C33.167 31.001 30.693 32 28 32c-2.693 0-5.167-.999-7.11-2.667h14.22zM28 24c2.228 0 4.2-.219 5.41-.259a17.1 17.1 0 01-1.167.26L38.667 24c-.317.95-.742 1.844-1.261 2.667H18.594A12.258 12.258 0 0117.334 24h6.337a17.572 17.572 0 01-1.17-.27l.038.01c1.206.035 3.203.26 5.461.26zm0-13.333c2.082 0 3.77 2.984 3.77 6.666 0 .585-.042 1.151-.122 1.691.203-.064.412-.124.625-.18 3.556-.954 6.73-.64 7.09.702.324 1.211-1.761 2.847-4.791 3.854-.536-1.588-3.274-2.067-6.572-2.067-3.302 0-6.043.48-6.574 2.072-2.988-1.009-5.037-2.627-4.715-3.829.36-1.34 3.534-1.655 7.09-.702.188.05.372.103.554.158l-.02-.134a11.625 11.625 0 01-.105-1.565c0-3.682 1.688-6.666 3.77-6.666z" fill="#FFF"/><path d="M17.333 12a1.333 1.333 0 110 2.667 1.333 1.333 0 010-2.667zm21.334 0a1.333 1.333 0 110 2.667 1.333 1.333 0 010-2.667zm-4-4a1.333 1.333 0 110 2.667 1.333 1.333 0 010-2.667zM21.333 8a1.333 1.333 0 110 2.667 1.333 1.333 0 010-2.667zM28 5.333A1.333 1.333 0 1128 8a1.333 1.333 0 010-2.667z" fill="#FCD117"/></g></g></svg>