<svg width="56" height="56" xmlns="http://www.w3.org/2000/svg" xmlns:xlink="http://www.w3.org/1999/xlink"><defs><rect id="a" x="0" y="0" width="56" height="40" rx="4"/></defs><g transform="translate(0 8)" fill="none" fill-rule="evenodd"><mask id="b" fill="#fff"><use xlink:href="#a"/></mask><use fill="#FFF" xlink:href="#a"/><g fill-rule="nonzero" mask="url(#b)"><path fill="#003893" d="M-2 0h76v40H-2z"/><path fill="#FFF" d="M-2 39.36v-.96L74 4.667V16.32z"/><path fill="#DD7500" d="M-2 38.72v-.64L74 .64v7.84z"/><g fill="#FFF"><path d="M12.605 2.205l.745 12.4h-1.49z"/><path d="M14.903 6.029l-1.42 8.811-1.757-.47z"/><path d="M17.044 6.916l-3.651 8.144-1.576-.91z"/><path d="M18.883 8.327l-5.635 6.921-1.287-1.287z"/><path d="M20.294 10.166l-7.234 5.227-.91-1.576z"/><path d="M21.18 12.307l-8.34 3.177-.47-1.758z"/><g><path d="M25.005 14.605l-12.4.745v-1.49z"/><path d="M21.18 16.903l-8.81-1.42.47-1.757z"/><path d="M20.294 19.044l-8.144-3.651.91-1.576z"/><path d="M18.883 20.883l-6.922-5.635 1.287-1.287z"/><path d="M17.044 22.294l-5.227-7.234 1.576-.91z"/><path d="M14.903 23.18l-3.177-8.34 1.758-.47z"/></g><g><path d="M12.605 27.005l-.746-12.4h1.491z"/><path d="M10.307 23.18l1.419-8.81 1.758.47z"/><path d="M8.166 22.294l3.65-8.144 1.577.91z"/><path d="M6.327 20.883l5.634-6.922 1.287 1.287z"/><path d="M4.916 19.044l7.234-5.227.91 1.576z"/><path d="M4.029 16.903l8.34-3.177.471 1.758z"/></g><g><path d="M.205 14.605l12.4-.746v1.491z"/><path d="M4.029 12.307l8.811 1.419-.47 1.758z"/><path d="M4.916 10.166l8.144 3.65-.91 1.577z"/><path d="M6.327 8.327l6.921 5.634-1.287 1.287z"/><path d="M8.166 6.916l5.227 7.234-1.576.91z"/><path d="M10.307 6.029l3.177 8.34-1.758.471z"/></g></g></g></g></svg>