<svg width="56" height="56" xmlns="http://www.w3.org/2000/svg" xmlns:xlink="http://www.w3.org/1999/xlink"><defs><rect id="a" x="0" y="0" width="56" height="40" rx="4"/></defs><g transform="translate(0 8)" fill="none" fill-rule="evenodd"><mask id="b" fill="#fff"><use xlink:href="#a"/></mask><use fill="#FFF" xlink:href="#a"/><path fill="#E81B26" mask="url(#b)" d="M0 0h56v40H0z"/><circle fill="#FFE94F" mask="url(#b)" cx="28" cy="20" r="6.667"/><path d="M21.796 26.973L3.923 47.06l-5.353-5.945 21.847-15.674c.402.56.865 1.073 1.379 1.53zm13.787-1.531L57.43 41.116l-5.353 5.945-17.873-20.088a9.386 9.386 0 001.38-1.531zm-5.752 3.712L32 40h-8l2.169-10.846a9.378 9.378 0 003.662 0zM0 16l18.76 2.68a9.413 9.413 0 000 2.64L0 24v-8zm56 0v8l-18.76-2.68a9.413 9.413 0 000-2.64L56 16zM3.923-7.061l17.873 20.088a9.386 9.386 0 00-1.38 1.531L-1.43-1.116l5.353-5.945zm48.154 0l5.353 5.945-21.846 15.674a9.386 9.386 0 00-1.38-1.53l17.873-20.09zM32 0l-2.169 10.846a9.378 9.378 0 00-3.662 0L24 0h8z" fill="#FFE94F" mask="url(#b)"/></g></svg>