<svg width="56" height="56" xmlns="http://www.w3.org/2000/svg" xmlns:xlink="http://www.w3.org/1999/xlink"><defs><rect id="a" x="0" y="0" width="56" height="40" rx="4"/></defs><g transform="translate(0 8)" fill="none" fill-rule="evenodd"><mask id="b" fill="#fff"><use xlink:href="#a"/></mask><use fill="#FFF" xlink:href="#a"/><path fill="#E6BE53" mask="url(#b)" d="M0 0h56v40H0z"/><rect fill="#E01826" mask="url(#b)" x="2.667" y="2.667" width="50.667" height="34.667" rx="2"/><path d="M18.99 9.291l.687 2.751c.178.713.593 1.831.92 2.484l.14.281c.33.659 1.018 1.615 1.537 2.134l-.548-.548a1.33 1.33 0 010 1.88l.548-.547c-.52.52-.401 1.21.252 1.537l.281.14c.659.33 1.193-.007 1.193-.733v1.326c0-.734.27-1.869.596-2.522l.14-.281c.33-.659.18-1.61-.35-2.14l-2.22-2.22-.13-.131.238.239c-.52-.52-.401-1.21.252-1.537l.281-.14c.659-.33 1.61-.18 2.14.35l.772.772 1.2 1.2.14.14a1.33 1.33 0 001.882 0l.646-.647.694-.693.771-.772c.524-.523 1.488-.678 2.14-.35l.282.14c.659.329.77 1.018.252 1.537l-.894.894-.446.446-.772.771c-.523.524-.678 1.488-.35 2.14l.14.282c.329.659.596 1.797.596 2.522V18.67c0 .735.54 1.06 1.193.734l.28-.14c.66-.33.772-1.02.253-1.538l.548.548a1.33 1.33 0 010-1.881l-.548.548c.52-.52 1.21-1.48 1.537-2.134l.14-.28c.33-.66.74-1.764.92-2.485l.688-2.75c.178-.714.677-.819 1.122-.226l2.4 3.2c.442.59.8 1.658.8 2.4v2.669c0 .735-.27 1.871-.596 2.525l-.14.28c-.33.66-1.014 1.61-1.545 2.141l-.771.771c-.523.524-1.487 1.218-2.14 1.544l-.281.14c-.593.297-1.565.543-2.294.59l-.233.007c-.736 0-.793.27-.14.597l.28.14c.66.33 1.616 1.019 2.134 1.537l-.548-.548a1.33 1.33 0 001.882 0l-.548.548a1.331 1.331 0 011.536-.249l.042.024.022.036c.294.533.339 1.252.077 1.775l-.14.28c-.308.616-1.076 1.122-1.78 1.187l-.15.007c-.736 0-1.873-.27-2.526-.597l-.281-.14c-.659-.33-1.463-1.136-1.79-1.79l-.14-.28c-.252-.504-.714-.688-1.15-.515l-.081.038-.018.03c-.277.519-.27 1.202.062 1.701l1.181 1.772c.41.615.253 1.441-.371 1.857l-1.772 1.18c-.615.411-1.604.417-2.228 0l-1.772-1.18a1.333 1.333 0 01-.371-1.857l1.18-1.772c.329-.492.338-1.18.062-1.7l-.018-.032-.081-.037c-.437-.172-.9.015-1.15.515l-.14.28c-.329.66-1.136 1.463-1.789 1.79l-.28.14c-.594.297-1.565.543-2.294.589l-.233.008c-.736 0-1.603-.54-1.93-1.193l-.14-.281c-.264-.527-.217-1.244.077-1.776l.02-.035.044-.024a1.332 1.332 0 011.536.25l-.548-.549a1.33 1.33 0 001.882 0l-.548.548c.52-.52 1.48-1.21 2.133-1.537l.281-.14c.622-.311.605-.567-.023-.594l-.117-.003c-.737 0-1.873-.27-2.527-.596l-.28-.14c-.66-.33-1.61-1.014-2.141-1.545l-.771-.771c-.524-.523-1.218-1.487-1.544-2.14l-.14-.281c-.33-.66-.597-1.784-.597-2.525v-2.67c0-.735.355-1.805.8-2.398l2.4-3.2c.442-.59.942-.496 1.122.224zM29.265 7.09l1.468.49c.7.232.85.838.318 1.369l-.771.771c-.483.483-1.386.882-2.105.94l-.176.008c-.736 0-1.75-.417-2.281-.948l-.771-.771c-.524-.524-.375-1.139.318-1.37l1.468-.49c.7-.232 1.84-.23 2.532 0z" fill="#E6BE53" mask="url(#b)"/><path d="M25.333 23.999c0 .737.203.778.483.09 0 0 .85-2.756 2.184-2.756 1.333 0 2.184 2.757 2.184 2.757.267.687.483.652.483-.09v-1.333c0-2.21-1.194-4-2.667-4-1.473 0-2.667 1.79-2.667 4v1.332z" fill="#215F90" mask="url(#b)"/></g></svg>