<svg width="56" height="56" xmlns="http://www.w3.org/2000/svg" xmlns:xlink="http://www.w3.org/1999/xlink"><defs><linearGradient x1="50%" y1="0%" x2="50%" y2="100%" id="c"><stop stop-color="#F8D246" offset="0%"/><stop stop-color="#F9CE2F" offset="100%"/></linearGradient><rect id="a" x="0" y="0" width="56" height="40" rx="4"/></defs><g transform="translate(0 8)" fill="none" fill-rule="evenodd"><mask id="b" fill="#fff"><use xlink:href="#a"/></mask><use fill="#FFF" xlink:href="#a"/><path fill="#146BBC" mask="url(#b)" d="M18.667 0h18.667v40H18.667z"/><path fill="#E43642" mask="url(#b)" d="M0 0h18.667v40H0zM37.333 0H56v40H37.333z"/><path d="M13.333 24v8h-2.666v-8h2.666zM8 24v8H5.333v-8H8zm2.667 5.333L9.333 32 8 29.333h2.667zm-1.334-2.666a1.333 1.333 0 110 2.666 1.333 1.333 0 010-2.666zM10.667 24l-1.334 2.667L8 24h2.667zm-1.334-2.667a1.333 1.333 0 110 2.667 1.333 1.333 0 010-2.667zm0-1.333l1.334 1.333H8L9.333 20z" fill="url(#c)" mask="url(#b)"/></g></svg>