<svg width="56" height="56" xmlns="http://www.w3.org/2000/svg" xmlns:xlink="http://www.w3.org/1999/xlink"><defs><rect id="a" x="0" y="0" width="56" height="40" rx="4"/></defs><g transform="translate(0 8)" fill="none" fill-rule="evenodd"><mask id="b" fill="#fff"><use xlink:href="#a"/></mask><use fill="#FFF" xlink:href="#a"/><path fill="#108B4D" mask="url(#b)" d="M0 0h56v40H0z"/><path d="M39.627 15.467c.097.615.148 1.245.148 1.887 0 6.628-5.373 12-12 12-6.628 0-12-5.372-12-12 0-.642.05-1.272.147-1.887.906 5.73 5.868 10.112 11.853 10.112 5.985 0 10.947-4.382 11.852-10.112zM28 17.128l-3.296 2.35 1.216-3.861-3.253-2.409 4.047-.036L28 9.333l1.286 3.839 4.047.036-3.253 2.409 1.216 3.86L28 17.129z" fill="#FFC941" mask="url(#b)"/></g></svg>