<svg width="56" height="56" xmlns="http://www.w3.org/2000/svg" xmlns:xlink="http://www.w3.org/1999/xlink"><defs><rect id="a" x="0" y="0" width="56" height="40" rx="4"/></defs><g transform="translate(0 8)" fill="none" fill-rule="evenodd"><mask id="b" fill="#fff"><use xlink:href="#a"/></mask><use fill="#FFF" xlink:href="#a"/><path d="M56 37.333V40H0v-2.667h56zM56 32v2.667H0V32h56zm0-5.333v2.666H0v-2.666h56zm0-5.334V24H0v-2.667h56zM56 16v2.667H26.667V16H56zm0-5.333v2.666H26.667v-2.666H56zm0-5.334V8H26.667V5.333H56zM56 0v2.667H26.667V0H56z" fill="#E1244A" mask="url(#b)"/><path fill="#0C3F8E" mask="url(#b)" d="M0 0h32v21.333H0z"/><path d="M13.333 2.667c1.89 0 3.628.655 4.997 1.752a6.667 6.667 0 100 12.496 8 8 0 11-4.997-14.248zm8 2.666l.95 3.364 3.22-1.356-2.038 2.84 3.068 1.672-3.49.177.604 3.442-2.314-2.619-2.314 2.619.605-3.442-3.49-.177L19.2 10.18l-2.037-2.839 3.22 1.356.95-3.364z" fill="#FFD34F" mask="url(#b)"/></g></svg>