<svg width="56" height="56" xmlns="http://www.w3.org/2000/svg" xmlns:xlink="http://www.w3.org/1999/xlink"><defs><rect id="a" x="0" y="0" width="56" height="40" rx="4"/></defs><g transform="translate(0 8)" fill="none" fill-rule="evenodd"><mask id="b" fill="#fff"><use xlink:href="#a"/></mask><use fill="#FFF" xlink:href="#a"/><path fill="#0C4799" mask="url(#b)" d="M0 26.667L56 0H0z"/><path fill="#FFD243" mask="url(#b)" d="M9.333 12l-2.04 2.26.155-3.041-3.042.155 2.26-2.04-2.26-2.042 3.042.156-.156-3.042 2.041 2.26 2.041-2.26-.155 3.042 3.042-.156L12 9.333l2.26 2.041-3.041-.155.155 3.042z"/><path fill="#1BAC55" mask="url(#b)" d="M0 40h56V13.333z"/><path fill="#FFF" mask="url(#b)" d="M6.165 45.333L60.34 11.48 49.835-5.333-4.34 28.52z"/><path fill="#E52347" mask="url(#b)" d="M-1.258 46.144l65.582-40.98-7.066-11.308-65.582 40.98z"/></g></svg>