<svg width="56" height="56" xmlns="http://www.w3.org/2000/svg" xmlns:xlink="http://www.w3.org/1999/xlink"><defs><rect id="a" x="0" y="0" width="56" height="40" rx="4"/><path d="M0 4a4 4 0 014.001-4c.736 0 1.835.335 2.434.734L35.109 19.85c1.228.82 1.032 1.483-.434 1.483H16l19.326 16.91c1.109.97.807 1.757-.663 1.757H3.995A4.001 4.001 0 010 36V4z" id="b"/></defs><g transform="translate(0 8)" fill="none" fill-rule="evenodd"><use fill="#FFF" xlink:href="#a"/><mask id="c" fill="#fff"><use xlink:href="#b"/></mask><use fill="#FFF" xlink:href="#b"/><path d="M4.001 1.333c.512 0 1.277.233 1.694.51h0L32.93 20H12.451l21.29 18.629-32.408.038V1.333z" stroke="#0543A8" stroke-width="2.667" fill="#EE1B44" mask="url(#c)"/><path d="M12.708 24.406l-.156 3.042 3.042-.156-2.26 2.041 2.26 2.041-3.042-.155.156 3.042L10.667 32l-2.041 2.26.155-3.041-3.042.155L8 29.334l-2.26-2.042 3.041.156-.155-3.042 2.04 2.26 2.042-2.26zm-.51-13.435l-.117 2.281 2.281-.116-1.695 1.53 1.035.936a9.39 9.39 0 002.102-.849 5.333 5.333 0 01-10.284 0c.628.351 1.339.64 2.11.85l1.037-.936-1.696-1.531 2.281.116-.116-2.28 1.53 1.695 1.531-1.696z" fill="#FFF" mask="url(#c)"/></g></svg>