<svg width="56" height="56" xmlns="http://www.w3.org/2000/svg" xmlns:xlink="http://www.w3.org/1999/xlink"><defs><rect id="a" x="0" y="0" width="56" height="40" rx="4"/></defs><g transform="translate(0 8)" fill="none" fill-rule="evenodd"><mask id="b" fill="#fff"><use xlink:href="#a"/></mask><use fill="#FFF" xlink:href="#a"/><g mask="url(#b)" fill-rule="nonzero"><path fill="#002B7F" d="M-8 0h80v40H-8z"/><path fill="#FFC61E" d="M-8 18.333h80v3.333H-8z"/><path fill="#FFF" d="M12 35l-.863-3.447-2.47 2.554.976-3.417-3.417.977 2.554-2.47-3.447-.864 3.447-.862L6.226 25l3.417.976-.976-3.416 2.47 2.554.863-3.447.863 3.447 2.47-2.554-.976 3.416L17.774 25l-2.554 2.47 3.447.863-3.447.863 2.554 2.47-3.417-.976.976 3.417-2.47-2.554z"/></g></g></svg>