<svg width="56" height="56" xmlns="http://www.w3.org/2000/svg" xmlns:xlink="http://www.w3.org/1999/xlink"><defs><rect id="a" x="0" y="0" width="56" height="40" rx="4"/></defs><g transform="translate(0 8)" fill="none" fill-rule="evenodd"><mask id="b" fill="#fff"><use xlink:href="#a"/></mask><use fill="#FFF" xlink:href="#a"/><path fill="#0A17A7" mask="url(#b)" d="M0 0h56v40H0z"/><path d="M24.667-1.203v1.87c0 .557-.379 1.28-.822 1.596h0l-8.512 6.08v2.017l9.114 7.812c-.519.746-1.095.978-1.599.994a1.853 1.853 0 01-1.111-.344h0l-8.617-6.155h-2.262L-.667 19.869V16.99l9.334-6.666V8.307L-1.803-.667h3.35L10.88 6h2.262l11.525-7.203z" stroke="#FFF" stroke-width="1.333" fill="#FF2E3B" mask="url(#b)"/><path d="M0 6.667V12h9.333v6.661c0 .74.591 1.339 1.332 1.339h2.67c.735 0 1.332-.601 1.332-1.339V12h9.337c.734 0 1.33-.591 1.33-1.332v-2.67c0-.735-.605-1.331-1.33-1.331h-9.337V0H9.333v6.667H0z" fill="#FFF" mask="url(#b)"/><path fill="#FF2E3B" mask="url(#b)" d="M0 8h10.667V0h2.666v8H24v2.667H13.333v8h-2.666v-8H0z"/><path fill="#CA1931" mask="url(#b)" d="M40 34.667l-1.886.552.553-1.886-.553-1.885L40 32l1.886-.552-.553 1.885.553 1.886zM40 9.333l-1.886.553L38.667 8l-.553-1.886L40 6.667l1.886-.553L41.333 8l.553 1.886zM48 17.333l-1.886.553.553-1.886-.553-1.886 1.886.553 1.886-.553L49.333 16l.553 1.886zM32 20l-1.886.552.553-1.885-.553-1.886 1.886.552 1.886-.552-.553 1.886.553 1.885z"/></g></svg>