<svg width="56" height="56" xmlns="http://www.w3.org/2000/svg" xmlns:xlink="http://www.w3.org/1999/xlink"><defs><rect id="a" x="0" y="0" width="56" height="40" rx="4"/></defs><g transform="translate(0 8)" fill="none" fill-rule="evenodd"><mask id="b" fill="#fff"><use xlink:href="#a"/></mask><use fill="#FFF" xlink:href="#a"/><path d="M56 0v40H16V0h40z" fill="#0A632F" mask="url(#b)"/><g mask="url(#b)" fill="#FFF"><path d="M47.34 21.501c-.256 2.501-1.323 4.905-3.207 6.79-4.492 4.49-11.932 4.333-16.618-.353-4.687-4.686-4.844-12.127-.353-16.618 1.885-1.885 4.288-2.95 6.79-3.208a11.106 11.106 0 00-2.215 1.719c-4.083 4.083-4.285 10.501-.451 14.336 3.834 3.834 10.253 3.632 14.336-.451.68-.681 1.254-1.427 1.718-2.215zm-5.155-5.292l-.637 3.797-1.778-3.414-3.808.568 2.698-2.747-1.717-3.446 3.446 1.717 2.746-2.697-.568 3.807 3.415 1.779-3.797.636z"/></g></g></svg>