<svg width="56" height="56" xmlns="http://www.w3.org/2000/svg" xmlns:xlink="http://www.w3.org/1999/xlink"><defs><rect id="a" x="0" y="0" width="56" height="40" rx="4"/></defs><g transform="translate(0 8)" fill="none" fill-rule="evenodd"><mask id="b" fill="#fff"><use xlink:href="#a"/></mask><use fill="#FFF" xlink:href="#a"/><path d="M56 0v18.667H26.667V0H56z" fill="#E52448" mask="url(#b)"/><path d="M26.667 40H0V18.667h26.667V40zM13.333 11.52l-3.135 2.128 1.056-3.639L8.26 7.685l3.787-.12L13.333 4l1.286 3.564 3.787.121-2.993 2.324 1.055 3.64z" fill="#1367AE" mask="url(#b)"/><path fill="#E52448" mask="url(#b)" d="M41.333 31.52l-3.135 2.128 1.056-3.639-2.993-2.324 3.787-.12L41.333 24l1.286 3.564 3.787.121-2.993 2.324 1.055 3.64z"/></g></svg>