<svg width="56" height="56" xmlns="http://www.w3.org/2000/svg" xmlns:xlink="http://www.w3.org/1999/xlink"><defs><rect id="a" x="0" y="0" width="56" height="40" rx="4"/></defs><g transform="translate(0 8)" fill="none" fill-rule="evenodd"><mask id="b" fill="#fff"><use xlink:href="#a"/></mask><use fill="#FFF" xlink:href="#a"/><path d="M26.667 20l-1.778-1.333H56V40H0l26.667-20z" fill="#DD1C34" mask="url(#b)"/><path d="M56 0v18.667l-31.113-.001L0 0h56z" fill="#0D4BC3" mask="url(#b)"/><path d="M4 32a1.333 1.333 0 110 2.667A1.333 1.333 0 014 32zm7.885-18.16l-.865 4.095c.139.113.266.24.379.378l4.094-.864-3.506 2.282a2.698 2.698 0 010 .537l3.506 2.283-4.094-.864c-.113.138-.24.265-.379.378l.865 4.094L9.6 22.653a2.698 2.698 0 01-.537 0L6.782 26.16l.865-4.094a2.683 2.683 0 01-.38-.378l-4.093.864 3.506-2.283a2.698 2.698 0 010-.537L3.174 17.45l4.094.864c.113-.138.24-.265.379-.378l-.865-4.094 2.282 3.506a2.698 2.698 0 01.537 0l2.284-3.506zM20 18.668a1.333 1.333 0 110 2.666 1.333 1.333 0 010-2.666zM4 5.333A1.333 1.333 0 114 8a1.333 1.333 0 010-2.667z" fill="#FDD64D" mask="url(#b)"/></g></svg>