<svg width="56" height="56" xmlns="http://www.w3.org/2000/svg" xmlns:xlink="http://www.w3.org/1999/xlink"><defs><rect id="a" x="0" y="0" width="56" height="40" rx="4"/></defs><g transform="translate(0 8)" fill="none" fill-rule="evenodd"><mask id="b" fill="#fff"><use xlink:href="#a"/></mask><use fill="#FFF" xlink:href="#a"/><path fill="#262626" mask="url(#b)" d="M0 0h56v40H0z"/><path fill="#E8283F" mask="url(#b)" d="M0 0h56v40z"/><path fill="#FFF" mask="url(#b)" d="M13.333 33.333l-1.885.553L12 32l-.552-1.886 1.885.553 1.886-.553L14.667 32l.552 1.886zM13.333 17.333l-1.885.553L12 16l-.552-1.886 1.885.553 1.886-.553L14.667 16l.552 1.886zM6.667 24l-1.886.552.552-1.885-.552-1.886 1.886.552 1.885-.552L8 22.667l.552 1.885zM18.667 22.667l-1.886.552.552-1.886-.552-1.885 1.886.552 1.885-.552L20 21.333l.552 1.886z"/><path d="M37.722 18.531c-.319-.191-.578-.643-.578-1.004V15.07c0-.363-.26-.57-.656-.438l-1.516.505a2.32 2.32 0 01-1.312 0l-1.516-.505c-.363-.121-.403-.371-.078-.566l3.558-2.135a.86.86 0 00.359-1.002l-.505-1.517c-.121-.362.042-.569.437-.437l1.516.505c.363.121.808-.034 1.003-.359l2.135-3.558c.191-.32.434-.317.565.078l.506 1.516c.12.363.131.917 0 1.312l-.506 1.517c-.12.362.078.656.439.656h2.457c.363 0 .809.253 1.004.578l2.135 3.558c.191.32.037.64-.31.709l-3.402.68c-.362.073-.718.441-.787.787l-.68 3.403c-.073.362-.385.504-.71.309l-3.558-2.135z" fill="#FFD84E" mask="url(#b)"/></g></svg>