<svg width="56" height="56" xmlns="http://www.w3.org/2000/svg" xmlns:xlink="http://www.w3.org/1999/xlink"><defs><rect id="a" x="0" y="0" width="56" height="40" rx="4"/></defs><g transform="translate(0 8)" fill="none" fill-rule="evenodd"><mask id="b" fill="#fff"><use xlink:href="#a"/></mask><use fill="#FFF" xlink:href="#a"/><path fill="#1461B6" mask="url(#b)" d="M0 0h56v8H0zM0 32h56v8H0z"/><path fill="#FFF" mask="url(#b)" d="M0 8h56v24H0z"/><path fill="#F53846" mask="url(#b)" d="M0 10.667h56v18.667H0z"/><path d="M20 13.333l-1.572 4.503-4.768.104 3.796 2.887-1.375 4.566L20 22.675l3.919 2.718-.124.089A6.667 6.667 0 1120 13.334zm0 0a6.667 6.667 0 013.972 12.021l-.053.04-1.375-4.567 3.796-2.887-4.768-.104z" fill="#FFF" mask="url(#b)"/></g></svg>