<svg width="56" height="56" xmlns="http://www.w3.org/2000/svg" xmlns:xlink="http://www.w3.org/1999/xlink"><defs><rect id="a" x="0" y="0" width="56" height="40" rx="4"/></defs><g transform="translate(0 8)" fill="none" fill-rule="evenodd"><mask id="b" fill="#fff"><use xlink:href="#a"/></mask><use fill="#FFF" xlink:href="#a"/><path fill="#FF2936" mask="url(#b)" d="M0 0h56v40H0z"/><path fill="#128415" mask="url(#b)" d="M0 0h21.333v40H0z"/><circle stroke="#FAF94F" stroke-width="2.667" mask="url(#b)" cx="21.333" cy="20" r="6.667"/><path d="M18.667 16.668c0-.369.302-.668.675-.668h3.983c.373 0 .675.304.675.668v4.668A2.667 2.667 0 0121.333 24a2.668 2.668 0 01-2.666-2.664v-4.668z" fill="#FFF" mask="url(#b)"/><path d="M21.333 21.333c.737 0 1.334-1.93 1.334-2.666a1.333 1.333 0 00-2.667 0c0 .736.597 2.666 1.333 2.666z" fill="#1D50B5" mask="url(#b)"/></g></svg>