<svg width="56" height="56" xmlns="http://www.w3.org/2000/svg" xmlns:xlink="http://www.w3.org/1999/xlink"><defs><filter x="-5.4%" y="-28.1%" width="110.7%" height="156.2%" filterUnits="objectBoundingBox" id="c"><feMorphology radius="1" operator="dilate" in="SourceAlpha" result="shadowSpreadOuter1"/><feOffset in="shadowSpreadOuter1" result="shadowOffsetOuter1"/><feColorMatrix values="0 0 0 0 0 0 0 0 0 0 0 0 0 0 0 0 0 0 0.06 0" in="shadowOffsetOuter1"/></filter><rect id="a" x="0" y="0" width="56" height="40" rx="4"/><path id="d" d="M0 29.333h56V40H0z"/></defs><g transform="translate(0 8)" fill="none" fill-rule="evenodd"><mask id="b" fill="#fff"><use xlink:href="#a"/></mask><use fill="#FFF" xlink:href="#a"/><g mask="url(#b)"><use fill="#000" filter="url(#c)" xlink:href="#d"/><use fill="#2D754D" xlink:href="#d"/></g><path fill="#25B1EB" mask="url(#b)" d="M0 0h56v18.667H0z"/><path fill="#FECB2F" mask="url(#b)" d="M0 18.667h56v10.667H0zM42.667 12l-2.041 2.26.155-3.041-3.042.155L40 9.334l-2.26-2.042 3.041.156-.155-3.042 2.04 2.26 2.042-2.26-.156 3.042 3.042-.156-2.26 2.041 2.26 2.041-3.042-.155.156 3.042z"/></g></svg>