<svg width="56" height="56" xmlns="http://www.w3.org/2000/svg" xmlns:xlink="http://www.w3.org/1999/xlink"><defs><rect id="a" x="0" y="0" width="56" height="40" rx="4"/></defs><g transform="translate(0 8)" fill="none" fill-rule="evenodd"><mask id="b" fill="#fff"><use xlink:href="#a"/></mask><use fill="#FFF" xlink:href="#a"/><path fill="#128C4B" mask="url(#b)" d="M0 0h56v40H0z"/><path d="M13.333 24h21.334v-2.668c0-.736.54-1.062 1.193-.736l1.473.737V24h4.002c.735 0 1.332.591 1.332 1.332v1.335a2.668 2.668 0 01-2.664 2.666h-3.997c-.74 0-1.34-.591-1.34-1.333v-1.333H17.343c-.741 0-1.759-.417-2.29-.948L13.333 24zM13.333 16.673c0-.372.209-.881.467-1.14l.4-.4a.66.66 0 000-.933l-.4-.4c-.258-.258-.467-.773-.467-1.14v-1.32c0-.372.306-.673.673-.673h1.321c.372 0 .673.306.673.673v1.32c0 .372.133.408.296.082l.741-1.484c.164-.326.597-.591.957-.591h2.679c.365 0 .66.296.66.666a.673.673 0 01-.673.667h-1.32a.668.668 0 00-.673.667c0 .368.306.666.673.666h1.32c.372 0 .673.302.673.676v3.982a.677.677 0 01-.673.676h-1.32a.676.676 0 01-.673-.673v-1.321c0-.372.296-.673.666-.673a.665.665 0 00.667-.667.673.673 0 00-.673-.666h-1.32a.67.67 0 00-.674.66v2.68c0 .364-.296.66-.666.66a.673.673 0 01-.667-.673v-1.321a.668.668 0 00-.667-.673.673.673 0 00-.666.673v1.32a.668.668 0 01-.667.674.673.673 0 01-.667-.673v-1.321zM34.667 16.673c0-.372.208-.881.466-1.14l.4-.4a.66.66 0 000-.933l-.4-.4c-.258-.258-.466-.773-.466-1.14v-1.32c0-.372.306-.673.673-.673h1.32c.372 0 .673.306.673.673v1.32c0 .372.133.408.296.082l.742-1.484c.163-.326.596-.591.956-.591h2.68c.364 0 .66.296.66.666a.673.673 0 01-.673.667h-1.321a.668.668 0 00-.673.667c0 .368.306.666.673.666h1.32c.372 0 .674.302.674.676v3.982a.677.677 0 01-.673.676h-1.321a.676.676 0 01-.673-.673v-1.321c0-.372.296-.673.667-.673a.665.665 0 00.666-.667.673.673 0 00-.673-.666h-1.32a.67.67 0 00-.673.66v2.68c0 .364-.296.66-.667.66a.673.673 0 01-.667-.673v-1.321a.668.668 0 00-.666-.673.673.673 0 00-.667.673v1.32a.668.668 0 01-.667.674.673.673 0 01-.666-.673v-1.321zM32 12.66c0 .372-.208.882-.481 1.155l-.371.37a.674.674 0 000 .963l.37.37c.266.266.482.767.482 1.155v1.32a.663.663 0 01-.673.674h-1.32a.663.663 0 01-.674-.673v-1.321c0-.372-.123-.427-.309-.055l-.715 1.43c-.17.342-.623.619-.97.619h-2.678A.67.67 0 0124 18a.66.66 0 01.673-.667h1.32c.372 0 .674-.309.674-.666a.66.66 0 00-.673-.667h-1.321a.66.66 0 01-.673-.654v-4.025c0-.362.285-.654.673-.654h1.32c.372 0 .674.285.674.673v1.32c0 .372-.31.673-.667.673a.674.674 0 00-.667.667.66.66 0 00.673.667h1.321a.679.679 0 00.673-.66v-2.68c0-.365.31-.66.667-.66a.66.66 0 01.666.673v1.32c0 .372.31.673.667.673a.66.66 0 00.667-.673v-1.32c0-.372.309-.673.666-.673a.66.66 0 01.667.673v1.32z" fill="#FFF" mask="url(#b)"/></g></svg>