<svg width="56" height="56" xmlns="http://www.w3.org/2000/svg" xmlns:xlink="http://www.w3.org/1999/xlink"><defs><rect id="a" x="0" y="0" width="56" height="40" rx="4"/></defs><g transform="translate(0 8)" fill="none" fill-rule="evenodd"><mask id="b" fill="#fff"><use xlink:href="#a"/></mask><use fill="#FFF" xlink:href="#a"/><path fill="#E12237" mask="url(#b)" d="M0 0h56v21.333H0z"/><path d="M13.333 2.667c1.89 0 3.628.655 4.997 1.752a6.667 6.667 0 100 12.496 8 8 0 11-4.997-14.248zm4 10.666a1.333 1.333 0 110 2.667 1.333 1.333 0 010-2.667zm5.334 0a1.333 1.333 0 110 2.667 1.333 1.333 0 010-2.667zm-8-5.333a1.333 1.333 0 110 2.667 1.333 1.333 0 010-2.667zm10.666 0a1.333 1.333 0 110 2.667 1.333 1.333 0 010-2.667zM20 4a1.333 1.333 0 110 2.667A1.333 1.333 0 0120 4z" fill="#FFF" mask="url(#b)"/></g></svg>