<svg width="56" height="56" xmlns="http://www.w3.org/2000/svg" xmlns:xlink="http://www.w3.org/1999/xlink"><defs><linearGradient x1="50%" y1="0%" x2="50%" y2="100%" id="b"><stop stop-color="#1DBE4F" offset="0%"/><stop stop-color="#159B3F" offset="100%"/></linearGradient><linearGradient x1="50%" y1="0%" x2="50%" y2="100%" id="f"><stop stop-color="#0660D4" offset="0%"/><stop stop-color="#0051BB" offset="100%"/></linearGradient><filter x="-5.4%" y="-7.5%" width="118.3%" height="119.7%" filterUnits="objectBoundingBox" id="d"><feMorphology radius="1" operator="dilate" in="SourceAlpha" result="shadowSpreadOuter1"/><feOffset in="shadowSpreadOuter1" result="shadowOffsetOuter1"/><feColorMatrix values="0 0 0 0 0 0 0 0 0 0 0 0 0 0 0 0 0 0 0.06 0" in="shadowOffsetOuter1"/></filter><rect id="a" x="0" y="0" width="56" height="40" rx="4"/><path id="e" d="M0 0h56L0 40z"/></defs><g transform="translate(0 8)" fill="none" fill-rule="evenodd"><mask id="c" fill="#fff"><use xlink:href="#a"/></mask><use fill="#FFF" xlink:href="#a"/><path fill="url(#b)" mask="url(#c)" d="M0 0h56v40H0z"/><g mask="url(#c)"><use fill="#000" filter="url(#d)" xlink:href="#e"/><use fill="url(#f)" xlink:href="#e"/></g><path fill="#2C7442" mask="url(#c)" transform="matrix(-1 0 0 1 56 0)" d="M0 0l56 40H0z"/><path fill="#FFD646" mask="url(#c)" d="M-10.667 17.333h77.333v5.333h-77.333z"/><path d="M19.333 10.667l.98 1.985 2.19.318-1.585 1.545.375 2.182-1.96-1.03-1.959 1.03.374-2.182-1.585-1.545 2.19-.318.98-1.985zM6 10.667l.98 1.985 2.19.318-1.585 1.545.374 2.182L6 15.667l-1.96 1.03.375-2.182L2.83 12.97l2.19-.318.98-1.985zm6.667-4l.98 1.985 2.19.318-1.585 1.545.374 2.182-1.96-1.03-1.959 1.03.375-2.182L9.496 8.97l2.191-.318.98-1.985zM6 2.667l.98 1.985 2.19.318-1.585 1.545.374 2.182L6 7.667l-1.96 1.03.375-2.182L2.83 4.97l2.19-.318L6 2.667zm13.333 0l.98 1.985 2.19.318-1.585 1.545.375 2.182-1.96-1.03-1.959 1.03.374-2.182-1.585-1.545 2.19-.318.98-1.985z" fill="#FFF" mask="url(#c)"/></g></svg>