<svg width="56" height="56" xmlns="http://www.w3.org/2000/svg" xmlns:xlink="http://www.w3.org/1999/xlink"><defs><rect id="a" x="0" y="0" width="56" height="40" rx="4"/><path d="M.333 6.667c0-1.797 1-5.388 1-5.388C1.519.572 2.269 0 3.007 0h5.322c.74 0 1.492.571 1.675 1.283 0 0 .997 3.544.997 5.384 0 1.72-1.004 5.385-1.004 5.385-.182.708-.715 1.746-1.216 2.274 0 0-1.113 1.674-3.113 1.674s-3.114-1.674-3.114-1.674c-.49-.548-1.04-1.572-1.223-2.292 0 0-.997-3.605-.997-5.367z" id="c"/></defs><g transform="translate(0 8)" fill="none" fill-rule="evenodd"><mask id="b" fill="#fff"><use xlink:href="#a"/></mask><use fill="#FFF" xlink:href="#a"/><path fill="#17508F" mask="url(#b)" d="M0 13.333h56v13.333H0z"/><path fill="#E1444D" mask="url(#b)" d="M0 0h56v13.333H0z"/><g mask="url(#b)"><g transform="translate(11.667 13.333)"><mask id="d" fill="#fff"><use xlink:href="#c"/></mask><use fill="#FFF" xlink:href="#c"/><path stroke="#E1444D" stroke-width="2.667" stroke-linecap="square" mask="url(#d)" d="M11 1.333L.333 14.667"/><path stroke="#E1444D" stroke-width="2.667" stroke-linecap="square" mask="url(#d)" transform="matrix(-1 0 0 1 11.333 0)" d="M11 1.333L.333 14.667"/></g></g></g></svg>