<svg width="56" height="56" xmlns="http://www.w3.org/2000/svg" xmlns:xlink="http://www.w3.org/1999/xlink"><defs><rect id="a" x="0" y="0" width="56" height="40" rx="4"/></defs><g transform="translate(0 8)" fill="none" fill-rule="evenodd"><mask id="b" fill="#fff"><use xlink:href="#a"/></mask><use fill="#06A86E" xlink:href="#a"/><g fill-rule="nonzero" mask="url(#b)"><path fill="#003893" d="M-6 0h68v40H-6z"/><path fill="#FFF" d="M-6 20h68v10H-6z"/><path fill="#CF2027" d="M-6 23.333h68v3.333H-6z"/><g fill="#F7D116"><path d="M19.648 13l-.704 2.038 1.083.331"/><path d="M19.928 13l.866 2.038-1.333.331"/><path d="M21.627 14.438l-2.156-.04.02 1.133"/><path d="M21.713 14.704l-1.67 1.454-.727-1.165"/><path d="M20.87 16.764l-.628-2.062-1.07.369"/><path d="M20.644 16.93l-1.898-1.14.883-1.052"/><g><path d="M18.424 16.764l1.768-1.235-.682-.904"/><path d="M18.198 16.6l.497-2.158 1.273.515"/></g><g><path d="M17.669 14.438l1.72 1.299.65-.928"/><path d="M17.755 14.171l2.206-.193-.097 1.37"/></g><g><path d="M19.648 33l-.704 2.038 1.083.331"/><path d="M19.928 33l.866 2.038-1.333.331"/><path d="M21.627 34.438l-2.156-.04.02 1.133"/><path d="M21.713 34.704l-1.67 1.454-.727-1.165"/><path d="M20.87 36.764l-.628-2.062-1.07.369"/><path d="M20.644 36.93l-1.898-1.14.883-1.052"/><g><path d="M18.424 36.764l1.768-1.235-.682-.904"/><path d="M18.198 36.6l.497-2.158 1.273.515"/></g><g><path d="M17.669 34.438l1.72 1.299.65-.928"/><path d="M17.755 34.171l2.206-.193-.097 1.37"/></g></g><g><path d="M30.958 21.432l-2.155-.04.02 1.133"/><path d="M31.045 21.699l-1.67 1.453-.727-1.165"/><path d="M30.202 23.759l-.628-2.063-1.07.369"/><path d="M29.976 23.923l-1.899-1.14.884-1.05"/><path d="M27.756 23.759l1.767-1.235-.681-.905"/><path d="M27.53 23.594l.497-2.158 1.272.516"/><g><path d="M27 21.432l1.72 1.3.65-.928"/><path d="M27.087 21.166l2.205-.194-.096 1.37"/></g><g><path d="M28.98 19.994l-.704 2.038 1.082.331"/><path d="M29.26 19.994l.865 2.038-1.332.331"/></g><g><path d="M11.937 27.613l-2.155-.04.02 1.132"/><path d="M12.024 27.879l-1.67 1.453-.728-1.165"/><path d="M11.181 29.94l-.628-2.063-1.071.368"/><path d="M10.955 30.104l-1.899-1.14.883-1.051"/><path d="M8.735 29.94l1.767-1.236-.681-.904"/><path d="M8.508 29.774l.498-2.157 1.272.515"/><g><path d="M7.979 27.613l1.72 1.298.65-.927"/><path d="M8.066 27.346l2.205-.194-.097 1.37"/></g><g><path d="M9.958 26.175l-.704 2.038 1.083.33"/><path d="M10.238 26.175l.866 2.038-1.332.33"/></g></g></g><g><path d="M26.434 34.795l-.629-2.062-1.07.368"/><path d="M26.207 34.96l-1.898-1.14.883-1.051"/><path d="M23.988 34.795l1.767-1.235-.682-.904"/><path d="M23.761 34.63l.497-2.157 1.273.515"/><path d="M23.232 32.468l1.72 1.3.65-.928"/><path d="M23.318 32.202l2.206-.194-.097 1.37"/><g><path d="M25.21 31.03l-.703 2.038 1.083.332"/><path d="M25.491 31.03l.866 2.038-1.333.332"/></g><g><path d="M27.19 32.468l-2.156-.039.02 1.132"/><path d="M27.277 32.735l-1.671 1.453-.727-1.165"/></g><g><path d="M14.678 18.615l-.628-2.063-1.07.369"/><path d="M14.452 18.78l-1.899-1.14.884-1.052"/><path d="M12.232 18.615l1.767-1.236-.681-.904"/><path d="M12.005 18.45l.498-2.158 1.272.516"/><path d="M11.476 16.288l1.72 1.299.65-.927"/><path d="M11.563 16.022l2.205-.194-.096 1.37"/><g><path d="M13.455 14.85l-.703 2.038 1.082.331"/><path d="M13.735 14.85l.866 2.038-1.332.331"/></g><g><path d="M15.434 16.288l-2.155-.04.02 1.133"/><path d="M15.52 16.555l-1.67 1.453-.726-1.165"/></g></g></g><g><path d="M12.327 34.621l1.767-1.235-.681-.904"/><path d="M12.1 34.457l.498-2.158 1.272.515"/><path d="M11.571 32.295l1.721 1.299.65-.928"/><path d="M11.658 32.028l2.206-.193-.097 1.37"/><path d="M13.55 30.857l-.703 2.038 1.082.331"/><path d="M13.83 30.857l.866 2.038-1.332.331"/><g><path d="M15.53 32.295l-2.156-.04.02 1.132"/><path d="M15.616 32.561l-1.67 1.454-.727-1.165"/></g><g><path d="M14.773 34.621l-.628-2.062-1.07.369"/><path d="M14.547 34.786l-1.899-1.14.884-1.05"/></g><g><path d="M24.083 18.441l1.767-1.235-.681-.904"/><path d="M23.856 18.276l.497-2.157 1.273.515"/><path d="M23.327 16.115l1.72 1.298.65-.927"/><path d="M23.413 15.848l2.206-.194-.097 1.37"/><path d="M25.306 14.677l-.704 2.038 1.083.33"/><path d="M25.586 14.677l.866 2.038-1.332.33"/><g><path d="M27.285 16.115l-2.156-.04.02 1.132"/><path d="M27.372 16.381l-1.67 1.453-.728-1.165"/></g><g><path d="M26.53 18.441l-.63-2.062-1.07.368"/><path d="M26.302 18.606l-1.898-1.14.883-1.051"/></g></g></g><g><path d="M8.133 21.151l1.72 1.3.65-.928"/><path d="M8.22 20.885l2.205-.194-.097 1.37"/><path d="M10.112 19.713l-.704 2.038 1.083.332"/><path d="M10.392 19.713l.866 2.038-1.332.332"/><path d="M12.091 21.151l-2.156-.039.02 1.132"/><path d="M12.178 21.418l-1.67 1.453-.728-1.165"/><g><path d="M11.335 23.478l-.629-2.062-1.07.368"/><path d="M11.108 23.643l-1.898-1.14.883-1.051"/></g><g><path d="M8.889 23.478l1.767-1.235-.681-.904"/><path d="M8.662 23.313l.498-2.157 1.272.515"/></g><g><path d="M27.154 27.332l1.72 1.299.65-.928"/><path d="M27.24 27.065l2.206-.194-.096 1.37"/><path d="M29.133 25.894l-.703 2.038 1.082.33"/><path d="M29.413 25.894l.866 2.038-1.332.33"/><path d="M31.112 27.332l-2.155-.04.02 1.132"/><path d="M31.199 27.598l-1.67 1.454-.727-1.165"/><g><path d="M30.356 29.658l-.628-2.062-1.07.369"/><path d="M30.13 29.823l-1.899-1.14.884-1.05"/></g><g><path d="M27.91 29.658l1.767-1.235-.681-.904"/><path d="M27.683 29.494l.498-2.158 1.272.515"/></g></g></g></g></g></g></svg>