<svg width="56" height="56" xmlns="http://www.w3.org/2000/svg" xmlns:xlink="http://www.w3.org/1999/xlink"><defs><rect id="a" x="0" y="0" width="56" height="40" rx="4"/></defs><g transform="translate(0 8)" fill="none" fill-rule="evenodd"><mask id="b" fill="#fff"><use xlink:href="#a"/></mask><use fill="#FFF" xlink:href="#a"/><path fill="#2ACB41" mask="url(#b)" d="M0 26.667h56V40H0zM0 0h56v13.333H0z"/><path fill="#FDD043" mask="url(#b)" d="M0 13.333h56v13.333H0z"/><path fill="#E71E43" mask="url(#b)" d="M0 0l21.333 20L0 40z"/><path fill="#262626" mask="url(#b)" d="M29.333 22.187l-3.135 2.128 1.056-3.64-2.993-2.323 3.787-.121 1.285-3.564 1.286 3.564 3.787.12-2.993 2.325 1.055 3.639zM42.667 22.187l-3.135 2.128 1.055-3.64-2.993-2.323 3.787-.121 1.286-3.564 1.285 3.564 3.787.12-2.993 2.325 1.056 3.639z"/></g></svg>