<svg width="56" height="56" xmlns="http://www.w3.org/2000/svg" xmlns:xlink="http://www.w3.org/1999/xlink"><defs><rect id="a" x="0" y="0" width="56" height="40" rx="4"/><path d="M.897 2.67A2.795 2.795 0 013.67 0h11.993a2.795 2.795 0 012.773 2.67l.461 11.993c.057 1.475-.809 3.452-1.922 4.406l-4.278 3.667c-1.674 1.434-4.387 1.434-6.06 0l-4.278-3.667C1.24 18.111.379 16.142.436 14.663L.897 2.67z" id="c"/></defs><g transform="translate(0 8)" fill="none" fill-rule="evenodd"><mask id="b" fill="#fff"><use xlink:href="#a"/></mask><use fill="#FFF" xlink:href="#a"/><path fill="#0C47B7" mask="url(#b)" d="M0 13.333h56v13.333H0z"/><path fill="#E53B35" mask="url(#b)" d="M0 26.667h56V40H0z"/><g mask="url(#b)"><g transform="translate(10.333 8)"><mask id="d" fill="#fff"><use xlink:href="#c"/></mask><path stroke="#FFF" stroke-width="2.667" d="M15.663-1.333A4.1 4.1 0 0118.507-.18a4.102 4.102 0 011.261 2.798h0l.462 11.993c.07 1.83-1.005 4.285-2.387 5.47h0l-4.278 3.666c-1.077.923-2.484 1.397-3.898 1.397-1.414 0-2.822-.474-3.898-1.397h0L1.49 20.082c-1.389-1.19-2.458-3.634-2.387-5.47h0l.46-11.993A4.104 4.104 0 01.828-.179 4.098 4.098 0 013.67-1.333h0z"/><path d="M8.333 14.009c0-.373-.3-.676-.66-.676h-2.68a.67.67 0 01-.66-.673v-1.32c0-.372.301-.673.66-.673h2.68a.67.67 0 00.66-.673V8.673A.676.676 0 007.66 8H6.34a.676.676 0 01-.673-.673v-1.32c0-.372.306-.674.673-.674h1.32a.676.676 0 00.673-.673V3.34c0-.372.306-.673.673-.673h1.321c.372 0 .673.306.673.673v1.32c0 .372.306.673.673.673h1.32c.372 0 .674.306.674.673v1.321a.676.676 0 01-.673.673h-1.321a.676.676 0 00-.673.673v1.32c0 .372.3.674.66.674h2.68a.67.67 0 01.66.673v1.32a.67.67 0 01-.66.673h-2.68a.668.668 0 00-.66.676v3.982a.677.677 0 01-.673.676h-1.32a.674.674 0 01-.674-.676V14.01z" fill="#FFF" mask="url(#d)"/><path d="M9.667 17.333c1.061 0 1.978.62 2.407 1.518 3.242.51 5.593 2.026 5.593 3.816 0 2.209-3.582 4-8 4-4.419 0-8-1.791-8-4 0-1.79 2.35-3.305 5.593-3.816a2.667 2.667 0 012.407-1.518z" fill="#1251A1" mask="url(#d)"/></g></g></g></svg>