<svg width="56" height="56" xmlns="http://www.w3.org/2000/svg" xmlns:xlink="http://www.w3.org/1999/xlink"><defs><rect id="a" x="0" y="0" width="56" height="40" rx="4"/></defs><g transform="translate(0 8)" fill="none" fill-rule="evenodd"><mask id="b" fill="#fff"><use xlink:href="#a"/></mask><use fill="#FFF" xlink:href="#a"/><path fill="#D9101C" mask="url(#b)" d="M0 0h56v13.333H0z"/><path fill="#0F7811" mask="url(#b)" d="M0 26.667h56V40H0z"/><path d="M28 18.667c.736 0 1.333.597 1.333 1.333 0 .241-.064.753-.176 1.333h1.504c.696 0 1.268.525 1.333 1.204l.006.13c0 .736-.601 1.333-1.339 1.333h-5.322a1.333 1.333 0 110-2.667h1.504c-.112-.58-.176-1.092-.176-1.333 0-.736.597-1.333 1.333-1.333zm8 0a1.333 1.333 0 110 2.666 1.333 1.333 0 010-2.666zm-16 0a1.333 1.333 0 110 2.666 1.333 1.333 0 010-2.666zM25.333 16a1.333 1.333 0 110 2.667 1.333 1.333 0 010-2.667zm5.334 0a1.333 1.333 0 110 2.667 1.333 1.333 0 010-2.667z" fill="#FAD14E" mask="url(#b)"/></g></svg>