<svg width="56" height="56" xmlns="http://www.w3.org/2000/svg" xmlns:xlink="http://www.w3.org/1999/xlink"><defs><ellipse id="c" cx="4" cy="2.667" rx="4" ry="2.667"/><ellipse id="e" cx="4" cy="2.667" rx="4" ry="2.667"/><ellipse id="g" cx="4" cy="2.667" rx="4" ry="2.667"/><ellipse id="i" cx="4" cy="1.333" rx="4" ry="1.333"/><ellipse id="j" cx="4" cy="2.667" rx="4" ry="2.667"/><rect id="a" x="0" y="0" width="56" height="40" rx="4"/></defs><g transform="translate(0 8)" fill="none" fill-rule="evenodd"><mask id="b" fill="#fff"><use xlink:href="#a"/></mask><use fill="#FFF" xlink:href="#a"/><path fill="#30C375" mask="url(#b)" d="M0 0h56v40H0z"/><path fill="#DE414F" mask="url(#b)" d="M8 0h8v40H8z"/><g mask="url(#b)"><g transform="translate(8 2.667)"><mask id="d" fill="#fff"><use xlink:href="#c"/></mask><use fill="#FFF" xlink:href="#c"/><circle fill="#DD404F" mask="url(#d)" cx="4" cy="2.667" r="1.333"/><path fill="#FBAF29" mask="url(#d)" d="M0 0h4v2.667H0zM4 2.667h4v2.667H4z"/></g></g><g mask="url(#b)"><g transform="translate(8 32)"><mask id="f" fill="#fff"><use xlink:href="#e"/></mask><use fill="#FFF" xlink:href="#e"/><circle fill="#DD404F" mask="url(#f)" cx="4" cy="2.667" r="1.333"/><path fill="#FBAF29" mask="url(#f)" d="M0 0h4v2.667H0zM4 2.667h4v2.667H4z"/></g></g><g mask="url(#b)"><g transform="translate(8 18.667)"><mask id="h" fill="#fff"><use xlink:href="#g"/></mask><use fill="#28AE67" xlink:href="#g"/><ellipse fill="#DD404F" mask="url(#h)" cx="4" cy="2.667" rx="2.667" ry="1.333"/></g></g><g mask="url(#b)"><use fill="#28AE67" xlink:href="#i" transform="translate(8 26.667)"/></g><g mask="url(#b)"><g transform="translate(8 10.667)"><mask id="k" fill="#fff"><use xlink:href="#j"/></mask><use fill="#FBAF29" xlink:href="#j"/><circle fill="#DD404F" mask="url(#k)" cx="4" cy="2.667" r="1.333"/><path fill="#28AE67" mask="url(#k)" d="M0 0h2.667v5.333H0zM5.333 0H8v5.333H5.333z"/></g></g><path d="M29.645 8.476a1.333 1.333 0 102.043 1.714 1.333 1.333 0 00-2.043-1.714zm-3.455 5.17a1.333 1.333 0 10-1.714 2.042 1.333 1.333 0 001.714-2.043zm-2.666-2.667a1.333 1.333 0 10-1.714 2.042 1.333 1.333 0 001.714-2.042zm5.333-5.334a1.333 1.333 0 10-1.714 2.043 1.333 1.333 0 001.714-2.043zm-1.333 4a1.333 1.333 0 10-1.714 2.043 1.333 1.333 0 001.714-2.043z" fill="#FFF" mask="url(#b)"/><path d="M34.952 18.901a8.133 8.133 0 01-12.335-.975 8.135 8.135 0 0011.36-11.36 8.133 8.133 0 01.975 12.335z" fill="#FFF" mask="url(#b)"/></g></svg>