<svg width="56" height="56" xmlns="http://www.w3.org/2000/svg" xmlns:xlink="http://www.w3.org/1999/xlink"><defs><linearGradient x1="50%" y1="0%" x2="50%" y2="100%" id="c"><stop stop-color="#DF101B" offset="0%"/><stop stop-color="#C00711" offset="100%"/></linearGradient><rect id="a" x="0" y="0" width="56" height="40" rx="4"/></defs><g transform="translate(0 8)" fill="none" fill-rule="evenodd"><mask id="b" fill="#fff"><use xlink:href="#a"/></mask><use fill="#FFF" xlink:href="#a"/><path d="M32 21.333V0h24v40H0V21.333h32z" fill="#E20F1B" mask="url(#b)"/><path d="M17.991 2.667c.373 0 .676.305.676.667L18.666 8h4.667c.368 0 .667.302.667.675v3.983a.676.676 0 01-.667.675h-4.667V18a.671.671 0 01-.675.667H14.01a.676.676 0 01-.676-.667v-4.667H8.667A.671.671 0 018 12.658V8.675C8 8.302 8.305 8 8.667 8h4.666V3.334c0-.369.302-.667.676-.667h3.982z" fill="url(#c)" mask="url(#b)"/></g></svg>