<svg width="56" height="56" xmlns="http://www.w3.org/2000/svg" xmlns:xlink="http://www.w3.org/1999/xlink"><defs><rect id="a" x="0" y="0" width="56" height="40" rx="4"/></defs><g transform="translate(0 8)" fill="none" fill-rule="evenodd"><mask id="b" fill="#fff"><use xlink:href="#a"/></mask><use fill="#FFF" xlink:href="#a"/><path fill="#E92434" mask="url(#b)" d="M0 0h56v40H0z"/><path d="M28 8c6.627 0 12 5.373 12 12s-5.373 12-12 12-12-5.373-12-12S21.373 8 28 8zm0 2.667a9.333 9.333 0 103.621 17.938 8.669 8.669 0 010-17.21A9.3 9.3 0 0028 10.668zm2.79 4.512l-.236 3.843-3.71 1.03 3.582 1.412-.167 3.846 2.45-2.97 3.606 1.347-2.068-3.247 2.396-3.014-3.728.963-2.125-3.21z" fill="#FFF" mask="url(#b)"/></g></svg>