<svg width="56" height="56" xmlns="http://www.w3.org/2000/svg" xmlns:xlink="http://www.w3.org/1999/xlink"><defs><rect id="a" x="0" y="0" width="56" height="40" rx="4"/></defs><g transform="translate(0 8)" fill="none" fill-rule="evenodd"><mask id="b" fill="#fff"><use xlink:href="#a"/></mask><use fill="#FFF" xlink:href="#a"/><path fill="#E92434" mask="url(#b)" d="M0 0h56v40H0z"/><path fill="#FFF" mask="url(#b)" d="M37.372 21.625l-3.135 2.235 1.156-3.672-3.094-2.291 3.85-.035 1.223-3.65 1.222 3.65 3.85.035-3.094 2.29 1.156 3.673-3.134-2.235z"/><path d="M25.333 8a11.98 11.98 0 019.474 4.633c-1.695-1.232-3.826-1.966-6.14-1.966-5.523 0-10 4.178-10 9.333s4.477 9.333 10 9.333c2.314 0 4.445-.734 6.14-1.966A11.981 11.981 0 0125.333 32c-6.627 0-12-5.373-12-12s5.373-12 12-12z" fill="#FFF" mask="url(#b)"/></g></svg>