<svg width="56" height="56" xmlns="http://www.w3.org/2000/svg" xmlns:xlink="http://www.w3.org/1999/xlink"><defs><rect id="a" x="0" y="8" width="56" height="40" rx="4"/><path d="M0 0v10h46.667v10H40L0 0zm0 20v3.333h20V0h20L0 20z" id="c"/></defs><g fill="none" fill-rule="evenodd"><mask id="b" fill="#fff"><use xlink:href="#a"/></mask><use fill="#FFF" xlink:href="#a"/><g mask="url(#b)"><path fill="#00247D" fill-rule="nonzero" d="M-11 8h80v40h-80z"/><path d="M-11 8l40 20m0-20l-40 20" stroke="#FFF" stroke-width="4" fill="#000" fill-rule="nonzero"/><g transform="translate(-11 8)"><mask id="d" fill="#fff"><use xlink:href="#c"/></mask><path d="M0 0l40 20m0-20L0 20" stroke="#CF142B" stroke-width="2.667" fill="#000" fill-rule="nonzero" mask="url(#d)"/></g><path d="M-11 18.017h46.667M9.017 8v23.333" stroke="#FFF" stroke-width="6.667" fill="#000" fill-rule="nonzero"/><path d="M-11 18.017h46.667M9.017 8v23.333" stroke="#CF142B" stroke-width="4" fill="#000" fill-rule="nonzero"/><path fill="#0096C8" fill-rule="nonzero" d="M-11 28h40V8h40v40h-80z"/><g fill="#FFCE00" fill-rule="nonzero"><path d="M32.023 40.728l1.962 6.04-5.138-3.733h6.351l-5.138 3.732zM43.497 38.933l-1.962 6.04-1.962-6.04 5.137 3.733h-6.35zM43.497 30.801l-1.962 6.04-1.962-6.04 5.137 3.733h-6.35zM51.898 36.878l-1.963 6.04-1.962-6.04 5.138 3.733H46.76zM51.898 19.184l-1.963 6.04-1.962-6.04 5.138 3.732H46.76zM55.43 30.664l1.962 6.04-5.138-3.733h6.35l-5.137 3.733zM58.958 16.77l-1.963 6.04-1.962-6.04 5.138 3.734H53.82z"/></g></g></g></svg>