<svg width="56" height="56" xmlns="http://www.w3.org/2000/svg" xmlns:xlink="http://www.w3.org/1999/xlink"><defs><rect id="a" x="0" y="0" width="56" height="40" rx="4"/></defs><g transform="translate(0 8)" fill="none" fill-rule="evenodd"><mask id="b" fill="#fff"><use xlink:href="#a"/></mask><use fill="#FFF" xlink:href="#a"/><path fill="#262626" mask="url(#b)" d="M0 0h56v5.333H0zM0 21.333h56v5.333H0z"/><path fill="#ED1623" mask="url(#b)" d="M0 13.333h56v8H0z"/><path fill="#FEE044" mask="url(#b)" d="M0 5.333h56v8H0z"/><path fill="#ED1623" mask="url(#b)" d="M0 34.667h56V40H0z"/><path fill="#FEE044" mask="url(#b)" d="M0 26.667h56v8H0z"/><circle fill="#FFF" mask="url(#b)" cx="28" cy="20" r="9.333"/><path d="M25.8 15.133a.66.66 0 010-.933l.4-.4c.258-.258.65-.698.9-.966l.328-.258c.316.05.804-.081 1.165-.023l.328.257c.228.289.28.789.116 1.115l-.741 1.483A3.326 3.326 0 0028 16.667c0 .368.265.8.592.962l1.483.742c.327.163.8.505 1.056.76l1.738 1.738c.256.256.332.73.168 1.056l-.741 1.483c-.164.327-.504.384-.762.126l-.401-.401a.66.66 0 00-.933 0l-.4.4c-.258.258-.467.763-.467 1.134 0 .368.209.875.467 1.133l.4.4c.258.258.166.467-.194.467h-2.679c-.365 0-.452-.209-.194-.467l.4-.4c.258-.258.467-.763.467-1.133a.665.665 0 00-.667-.667c-.368 0-.875.208-1.133.466l-.4.401a.66.66 0 01-.933 0l-.4-.4a.66.66 0 010-.933l.4-.401c.258-.258.772-.466 1.14-.466h1.32c.372 0 .458-.215.198-.475l-3.05-3.05a.665.665 0 01-.01-.94l1.737-1.738a.658.658 0 00-.002-.93l-.4-.401z" fill="#262626" mask="url(#b)"/></g></svg>