<svg width="56" height="56" xmlns="http://www.w3.org/2000/svg" xmlns:xlink="http://www.w3.org/1999/xlink"><defs><rect id="a" x="0" y="0" width="56" height="40" rx="4"/></defs><g transform="translate(0 8)" fill="none" fill-rule="evenodd"><mask id="b" fill="#fff"><use xlink:href="#a"/></mask><use fill="#FFF" xlink:href="#a"/><path d="M56 37.333V40H0v-2.667h56zm0-10.666V32H0v-5.333h56zM26.667 16H56v5.333H26.667V16zm0-10.667H56v5.334H26.667V5.333z" fill="#0E4DC5" mask="url(#b)"/><path d="M15.114 5.701l.45 3.167 2.757-1.622-.967 3.048 3.187-.265-2.194 2.327 2.986 1.144-2.986 1.145 2.194 2.327-3.187-.265.967 3.048-2.757-1.622-.45 3.167-1.78-2.657-1.78 2.657-.452-3.167-2.757 1.622.968-3.048-3.187.265 2.194-2.327L5.333 13.5l2.987-1.144-2.194-2.327 3.187.265-.968-3.048 2.757 1.622.451-3.167 1.78 2.657 1.78-2.657zm-1.78 2.709a5.09 5.09 0 100 10.181 5.09 5.09 0 000-10.181zm0 .923a4 4 0 110 8 4 4 0 010-8z" fill="#FED443" mask="url(#b)"/></g></svg>