<svg width="56" height="56" xmlns="http://www.w3.org/2000/svg" xmlns:xlink="http://www.w3.org/1999/xlink"><defs><linearGradient x1="50%" y1="0%" x2="50%" y2="100%" id="e"><stop stop-color="#FFF" offset="0%"/><stop stop-color="#F0F0F0" offset="100%"/></linearGradient><filter x="-5.4%" y="-7.5%" width="110.7%" height="130%" filterUnits="objectBoundingBox" id="c"><feOffset dy="2" in="SourceAlpha" result="shadowOffsetOuter1"/><feColorMatrix values="0 0 0 0 0 0 0 0 0 0 0 0 0 0 0 0 0 0 0.06 0" in="shadowOffsetOuter1"/></filter><rect id="a" x="0" y="0" width="56" height="40" rx="4"/><path d="M20 13.333A1.333 1.333 0 1120 16a1.333 1.333 0 010-2.667zm-5.333 0a1.333 1.333 0 110 2.667 1.333 1.333 0 010-2.667zm-5.334 0a1.333 1.333 0 110 2.667 1.333 1.333 0 010-2.667zm-5.333 0A1.333 1.333 0 114 16a1.333 1.333 0 010-2.667zm2.667-2.666a1.333 1.333 0 110 2.666 1.333 1.333 0 010-2.666zm5.333 0a1.333 1.333 0 110 2.666 1.333 1.333 0 010-2.666zm5.333 0a1.333 1.333 0 110 2.666 1.333 1.333 0 010-2.666zM20 8a1.333 1.333 0 110 2.667A1.333 1.333 0 0120 8zm-5.333 0a1.333 1.333 0 110 2.667 1.333 1.333 0 010-2.667zM9.333 8a1.333 1.333 0 110 2.667 1.333 1.333 0 010-2.667zM4 8a1.333 1.333 0 110 2.667A1.333 1.333 0 014 8zm2.667-2.667a1.333 1.333 0 110 2.667 1.333 1.333 0 010-2.667zm5.333 0A1.333 1.333 0 1112 8a1.333 1.333 0 010-2.667zm5.333 0a1.333 1.333 0 110 2.667 1.333 1.333 0 010-2.667zM4 2.667a1.333 1.333 0 110 2.666 1.333 1.333 0 010-2.666zm5.333 0a1.333 1.333 0 110 2.666 1.333 1.333 0 010-2.666zm5.334 0a1.333 1.333 0 110 2.666 1.333 1.333 0 010-2.666zm5.333 0a1.333 1.333 0 110 2.666 1.333 1.333 0 010-2.666z" id="d"/></defs><g transform="translate(0 8)" fill="none" fill-rule="evenodd"><mask id="b" fill="#fff"><use xlink:href="#a"/></mask><use fill="#FFF" xlink:href="#a"/><path d="M56 37.333V40H0v-2.667h56zM56 32v2.667H0V32h56zm0-5.333v2.666H0v-2.666h56zm0-5.334V24H0v-2.667h56zM56 16v2.667H0V16h56zm0-5.333v2.666H0v-2.666h56zm0-5.334V8H0V5.333h56zM56 0v2.667H0V0h56z" fill="#D02F44" mask="url(#b)"/><path fill="#46467F" mask="url(#b)" d="M0 0h24v18.667H0z"/><g mask="url(#b)"><use fill="#000" filter="url(#c)" xlink:href="#d"/><use fill="url(#e)" xlink:href="#d"/></g></g></svg>