<svg width="56" height="56" xmlns="http://www.w3.org/2000/svg" xmlns:xlink="http://www.w3.org/1999/xlink"><defs><rect id="a" x="0" y="0" width="56" height="40" rx="4"/></defs><g transform="translate(0 8)" fill="none" fill-rule="evenodd"><mask id="b" fill="#fff"><use xlink:href="#a"/></mask><use fill="#FFF" xlink:href="#a"/><path fill="#04AAC8" mask="url(#b)" d="M0 0h56v13.333H0z"/><path fill="#23C840" mask="url(#b)" d="M0 26.667h56V40H0z"/><path d="M9.333 2.667c.823 0 1.588.248 2.224.674a3.333 3.333 0 100 6.651 4 4 0 11-2.224-7.326zM14.667 8a1.333 1.333 0 110 2.667 1.333 1.333 0 010-2.667zm10.666 0a1.333 1.333 0 110 2.667 1.333 1.333 0 010-2.667zM20 8a1.333 1.333 0 110 2.667A1.333 1.333 0 0120 8zm0-5.333a1.333 1.333 0 110 2.666 1.333 1.333 0 010-2.666zm5.333 0a1.333 1.333 0 110 2.666 1.333 1.333 0 010-2.666z" fill="#FFF" mask="url(#b)"/></g></svg>