<svg width="56" height="56" xmlns="http://www.w3.org/2000/svg" xmlns:xlink="http://www.w3.org/1999/xlink"><defs><rect id="a" x="0" y="8" width="56" height="40" rx="4"/></defs><g fill="none" fill-rule="evenodd"><mask id="b" fill="#fff"><use xlink:href="#a"/></mask><rect stroke="#F5F5F5" x=".5" y="8.5" width="55" height="39" rx="4"/><g mask="url(#b)"><g transform="translate(0 8)" fill-rule="nonzero"><path d="M55.034.03H28v40h27.034c.534 0 .966-.471.966-1.052V1.083C56 .5 55.568.03 55.034.03z" fill="#F5F5F5"/><path d="M.966 40.03H28v-40H.966C.432.03 0 .501 0 1.083v37.895c0 .58.432 1.052.966 1.052z" fill="#FFE15A"/><g fill="#EBEBEB"><path d="M44.654 11.489l-.064.128c.207.106.326.227.326.355l-.033-.637a.278.278 0 01-.229.153zM39.642 11.617l-.065-.129a.28.28 0 01-.229-.153l-.032.637c0-.128.118-.25.326-.355zM39.596 10.932a.28.28 0 01.28.28c0 .056-.02.105-.05.15l.075.147c.21-.075.471-.138.768-.187l-.031-.126a.277.277 0 01-.202-.264.28.28 0 11.474.2l.038.15c.156-.02.32-.035.489-.046a.7.7 0 111.358 0c.17.011.333.027.49.046l.036-.15a.278.278 0 01.195-.48.28.28 0 01.28.28c0 .127-.086.23-.202.264l-.031.126c.296.049.557.112.768.187l.074-.148a.273.273 0 01-.05-.149.275.275 0 01.514-.144l-.02-.427c-.277-.314-1.394-.549-2.733-.549-1.339 0-2.457.235-2.733.55l-.021.426a.275.275 0 01.234-.136z"/></g><path d="M42.553 7.638a.555.555 0 00-.297-.886v-.343a.276.276 0 00-.14-.517.276.276 0 00-.14.517v.343a.555.555 0 00-.297.886c.142-.039.287-.066.437-.066.15 0 .294.027.437.066z" fill="#E6B432"/><path d="M40.943 9.056l-.025-.1a.277.277 0 01-.202-.264.28.28 0 11.474.2l.032.127c.274-.03.576-.047.894-.047a.42.42 0 110-.84.42.42 0 010 .84c.318 0 .62.017.894.047l.032-.126a.278.278 0 01.194-.48.28.28 0 01.28.28c0 .126-.086.23-.202.263l-.025.1c.143.022.275.047.394.076l.206-.412c-.357-.554-.818-.94-1.336-1.082a1.653 1.653 0 00-.437-.066c-.15 0-.295.027-.437.066-.518.142-.98.528-1.336 1.082l.206.412c.119-.029.251-.054.394-.076z" fill="#EBEBEB"/><g fill="#E6B432"><path d="M41.836 31.984v-.612c0-.065.009-.128.023-.19l-.023-.012a.555.555 0 00-.28-.078.554.554 0 00-.28.078.558.558 0 00-.123.87.83.83 0 01.403-.108c.099 0 .192.02.28.052zM42.396 29.77a.558.558 0 00-.123.87.83.83 0 01.403-.108c.147 0 .283.041.403.108a.557.557 0 00-.123-.87.555.555 0 00-.28-.078.555.555 0 00-.28.078z"/></g><path d="M42.273 30.64a.837.837 0 00-.437.732v.612a.832.832 0 00-.28-.052.83.83 0 00-.403.108.836.836 0 00-.437.732v1.12h1.68v-1.12a.832.832 0 00-.051-.28h1.17v-1.12a.836.836 0 00-.436-.732.83.83 0 00-.403-.108.83.83 0 00-.403.108z" fill="#FF4B57"/><g fill="#E6B432"><path d="M42.396 19.38l.478.478.164-.164a.273.273 0 01.137-.07l2.368-2.368 1.517 1.516.99-.99-.396-.395-.198.198-.396-.396.198-.198-.198-.198.396-.396.198.198.198-.198.396.396-.198.198.396.396.99-.99-1.518-1.517 1.039-1.039a.42.42 0 01-.138-.091l-.56-.56a.418.418 0 01-.093-.142l-5.833 5.835a.274.274 0 01.063.17v.326zM41.754 21.046l-.792-.792-2.462 2.462a.56.56 0 00.792.792l1.924-1.924.538-.538z"/></g><g fill="#D2D2D2"><path d="M34.11 23.952a.42.42 0 10-.254.254c.08-.09.164-.174.254-.254zM33.856 27.898a.42.42 0 10.254.254 2.835 2.835 0 01-.254-.254zM38.056 24.207a.42.42 0 10-.254-.254c.09.079.175.163.254.254zM37.776 28.292a.42.42 0 00.74.269 6.355 6.355 0 01-.735-.318c-.002.016-.005.032-.005.05z"/></g><path d="M37.191 27.887a.278.278 0 01-.108-.171.696.696 0 01-.829-.529.418.418 0 01-.597 0 .7.7 0 11-.836-.836.418.418 0 010-.597.7.7 0 11.836-.837.418.418 0 01.597 0 .7.7 0 11.837.837.418.418 0 010 .597.7.7 0 01.42 1.079l.008.004c.182.13.39.253.622.364a2.778 2.778 0 00.57-1.262c.028-.157.045-.318.045-.484a2.786 2.786 0 00-.955-2.1 2.786 2.786 0 00-3.945.255 2.786 2.786 0 00.254 3.946 2.786 2.786 0 003.62.064 4.522 4.522 0 01-.539-.33zm.93-2.401c.047.181.075.37.075.566 0 .196-.028.385-.076.567-.079-.226-.219-.42-.402-.567.183-.146.323-.34.402-.566zm-1.599-1.598c-.225.079-.42.219-.566.402a1.257 1.257 0 00-.566-.402c.18-.048.37-.076.566-.076.196 0 .385.028.566.076zm-2.73 1.598c.078.225.219.42.402.566-.183.147-.324.341-.403.567a2.225 2.225 0 01-.075-.567c0-.196.028-.385.075-.566zm1.597 2.73c.226-.078.42-.218.567-.402.146.184.34.324.566.403-.181.047-.37.075-.566.075a2.23 2.23 0 01-.567-.075z" fill="#E6B432"/><g fill="#F0C814"><path d="M35.536 26.052a.42.42 0 10-.84 0 .42.42 0 00.84 0zM36.376 26.052a.42.42 0 10.84 0 .42.42 0 00-.84 0zM35.956 25.632a.42.42 0 100-.84.42.42 0 000 .84zM35.956 26.472a.42.42 0 100 .84.42.42 0 000-.84z"/></g><g fill="#D2D2D2"><path d="M48.819 13.75a.416.416 0 00.297.122.414.414 0 00.339-.654l.154-.62c.022.006.043.014.067.014a.28.28 0 10-.28-.28c0 .024.008.045.013.067l-.619.154a.414.414 0 00-.624.494c.02.052.051.1.093.142l.56.56zM41.836 20.336v-1.284c0-.065.026-.122.063-.17l-5.833-5.835a.42.42 0 01-.093.142l-.56.56a.416.416 0 01-.138.092l1.038 1.038-1.517 1.517.99.99.396-.396-.198-.198.396-.396.198.198.198-.198.396.396-.198.198.198.198-.396.396-.198-.198-.396.396.99.99 1.516-1.517 2.369 2.369c.05.011.098.031.137.07l.642.642zM42.478 21.046l.538.537 1.924 1.925a.558.558 0 00.792 0 .56.56 0 000-.792l-2.462-2.462-.792.792zM42.396 20.172v.164l.478-.478-.478-.479zM50.376 24.207a.42.42 0 10-.254-.254c.09.079.175.163.254.254zM50.516 27.872c-.05 0-.096.01-.14.026-.08.09-.164.175-.254.254a.42.42 0 10.394-.28z"/><path d="M46.43 23.952a.42.42 0 10-.254.254c.08-.09.164-.174.254-.254zM46.036 28.712a.42.42 0 00.42-.42c0-.017-.003-.033-.005-.049a6.326 6.326 0 01-.736.318.417.417 0 00.32.151z"/></g><path d="M50.376 27.898a2.786 2.786 0 00-.254-3.946 2.786 2.786 0 00-3.946.255 2.786 2.786 0 00-.086 3.591c.232-.111.44-.233.622-.364.002-.002.006-.002.009-.004a.695.695 0 01.42-1.08.418.418 0 010-.596.7.7 0 11.836-.837.418.418 0 01.597 0 .7.7 0 011.382.155.7.7 0 01-.545.682.418.418 0 010 .597.7.7 0 01-.155 1.381.7.7 0 01-.682-.545.418.418 0 01-.597 0 .7.7 0 01-.829.529.277.277 0 01-.108.171 4.477 4.477 0 01-.538.33 2.787 2.787 0 003.874-.32zm-4.265-1.28a2.225 2.225 0 01-.075-.566c0-.196.028-.385.075-.566.08.226.22.42.403.566-.183.147-.324.341-.403.567zm2.165-2.328a1.257 1.257 0 00-.567-.402c.182-.048.37-.076.567-.076.196 0 .385.028.566.076-.225.079-.42.219-.566.402zm2.164 1.196c.048.181.076.37.076.566 0 .196-.028.385-.076.567-.079-.226-.219-.42-.402-.567.183-.146.323-.34.402-.566zm-2.73 2.73c.225-.078.42-.218.566-.402.146.184.34.324.566.403-.181.047-.37.075-.566.075a2.23 2.23 0 01-.567-.075z" fill="#E6B432"/><g fill="#F0C814"><path d="M48.696 26.052a.42.42 0 10.84 0 .42.42 0 00-.84 0zM47.856 26.052a.42.42 0 10-.84 0 .42.42 0 00.84 0zM48.276 25.632a.42.42 0 100-.84.42.42 0 000 .84zM48.276 26.472a.42.42 0 100 .84.42.42 0 000-.84z"/></g><path d="M35.973 13.19a.42.42 0 000-.594.414.414 0 00-.531-.043l-.62-.154c.006-.022.014-.043.014-.067a.28.28 0 10-.28.28c.023 0 .044-.008.066-.013l.155.619a.414.414 0 00.498.623.42.42 0 00.138-.092l.56-.56z" fill="#F7B518"/><path d="M47.04 27.887a.277.277 0 00.108-.171.277.277 0 00-.427-.287l-.01.005c-.18.13-.389.252-.62.364-.822.395-1.933.658-3.135.743v-3.933c1.222 1.67 2.412 2.566 2.942 2.916a2.778 2.778 0 01-.377-.985c-.678-.56-1.636-1.503-2.565-2.923v-1.902l.06-.13-.538-.538.792-.792.164-.164a.28.28 0 000-.396.275.275 0 00-.26-.07.273.273 0 00-.136.07l-.164.164-.478.478v-1.284a.274.274 0 00-.063-.17.275.275 0 00-.217-.11.275.275 0 00-.217.11.274.274 0 00-.063.17v1.284l-.642-.642a.273.273 0 00-.137-.07.276.276 0 00-.26.466l.164.164.792.792-.537.537.06.13v1.901c-.929 1.417-1.887 2.36-2.565 2.922-.063.357-.193.69-.378.987.53-.349 1.72-1.246 2.943-2.915v3.933c-1.203-.085-2.314-.348-3.135-.743a4.072 4.072 0 01-.622-.365l-.008-.004a.276.276 0 00-.428.286.278.278 0 00.108.172 4.481 4.481 0 00.59.356c.226.116.472.222.735.317.795.288 1.743.476 2.76.544v2.066a.555.555 0 01.28-.078c.102 0 .197.03.28.078v-2.042c.093.002.186.004.28.004.093 0 .186-.002.28-.004v.642a.555.555 0 01.28-.078c.102 0 .197.03.28.078v-.666c1.016-.068 1.964-.256 2.759-.544a6.326 6.326 0 00.787-.344c.195-.102.376-.212.538-.329zm-4.924.685c-.094 0-.187-.002-.28-.004V23.79c.094-.147.187-.3.28-.457.093.157.186.31.28.457v4.78c-.093.001-.186.003-.28.003z" fill="#FF4B55"/><g fill="#E6B432"><path d="M42.116 12.55c1.546 0 2.8.265 2.8.591v-1.169c0-.128-.119-.25-.326-.355l.064-.128a.28.28 0 00.23-.154.268.268 0 00.032-.123.271.271 0 00-.046-.144.276.276 0 10-.465.293l-.074.148a4.634 4.634 0 00-.768-.187l.031-.126a.277.277 0 00.202-.264.28.28 0 10-.474.2l-.038.15a8.711 8.711 0 00-.49-.046.7.7 0 10-1.358 0c-.169.011-.332.027-.488.046l-.038-.15a.278.278 0 00-.194-.48.28.28 0 00-.28.28c0 .127.086.23.202.264l.031.126a4.614 4.614 0 00-.768.187l-.074-.148a.273.273 0 00.049-.149.275.275 0 00-.514-.144.272.272 0 00-.046.144c0 .045.013.085.032.123a.279.279 0 00.23.154l.064.128c-.207.106-.326.227-.326.355v1.17c0-.327 1.253-.592 2.8-.592z"/><path d="M39.316 13.172l.003-.001-.003-.03v.031zM44.916 13.172v-.031c0 .008-.003.02-.004.03l.004.001z"/></g><path d="M39.876 13.732c0 .056-.02.105-.05.15l.107.211c.185-.091.438-.17.74-.23l-.035-.147a.277.277 0 01-.202-.264.28.28 0 11.474.2l.04.162c.27-.04.57-.067.886-.077v-.254a.417.417 0 01.28-.73.42.42 0 01.28.73v.254c.316.01.615.037.885.077l.04-.161a.278.278 0 01.195-.48.28.28 0 01.28.28c0 .126-.086.23-.202.263l-.036.146c.302.06.556.14.74.231l.107-.212a.273.273 0 01-.05-.149.28.28 0 01.28-.28c.068 0 .127.027.175.066.062-.153.095-.274.102-.347.001-.01.004-.022.004-.03 0-.326-1.254-.59-2.8-.59-1.547 0-2.8.264-2.8.59l.003.03c.007.073.04.194.103.347a.275.275 0 01.174-.066.28.28 0 01.28.28z" fill="#EBEBEB"/><path d="M39.316 13.732c0 .148.116.267.261.277l.121.241c-.065.064-.102.132-.102.202 0 .08.048.158.134.23l.426.73c0-.31.877-.56 1.96-.56 1.082 0 1.96.25 1.96.56l.425-.73c.086-.072.135-.149.135-.23 0-.07-.037-.138-.103-.202l.121-.242a.278.278 0 00.262-.276.275.275 0 00-.106-.214.275.275 0 00-.174-.066.28.28 0 00-.28.28c0 .056.02.105.049.15l-.106.211a3.076 3.076 0 00-.741-.23l.036-.147a.277.277 0 00.202-.264.28.28 0 10-.475.2l-.04.162a7.661 7.661 0 00-.885-.077v-.254a.417.417 0 00-.28-.73.42.42 0 00-.28.73v.254c-.317.01-.615.037-.886.077l-.04-.161a.278.278 0 00-.194-.48.28.28 0 00-.28.28c0 .126.086.23.201.263l.037.146c-.303.06-.556.14-.741.231l-.106-.212a.273.273 0 00.049-.149.28.28 0 00-.28-.28.275.275 0 00-.174.066.275.275 0 00-.106.214z" fill="#E6B432"/><ellipse fill="#EBEBEB" cx="42.116" cy="15.413" rx="1.96" ry="1"/><g transform="translate(39.375 8.125)" fill="#E6B432"><path d="M5.474 2.516L4.98 1.407c0-.07-.054-.137-.148-.198l.398-.796a.28.28 0 10-.5-.25l-.217.432-.206.412a4.671 4.671 0 00-.394-.076l.025-.1a.277.277 0 00.202-.264.28.28 0 10-.475.2l-.031.127A8.287 8.287 0 002.74.847c-.318 0-.62.017-.894.047L1.815.768a.278.278 0 00-.194-.48.28.28 0 00-.28.28c0 .126.086.23.202.263l.024.1a4.674 4.674 0 00-.393.076L.968.595.75.162a.28.28 0 00-.5.25l.397.797c-.093.061-.147.128-.147.198l-.493 1.11c.276-.315 1.394-.55 2.733-.55 1.339 0 2.456.235 2.733.55z"/><circle cx="2.741" cy=".428" r="1"/></g></g></g></g></svg>