<svg width="56" height="56" xmlns="http://www.w3.org/2000/svg" xmlns:xlink="http://www.w3.org/1999/xlink"><defs><rect id="a" x="0" y="0" width="56" height="40" rx="4"/></defs><g transform="translate(0 8)" fill="none" fill-rule="evenodd"><mask id="b" fill="#fff"><use xlink:href="#a"/></mask><use fill="#FFF" xlink:href="#a"/><path fill="#063191" mask="url(#b)" d="M0 13.333h56v13.333H0z"/><path fill="#E2213B" mask="url(#b)" d="M0 26.667h56V40H0z"/><path d="M20 21.333A1.333 1.333 0 1120 24a1.333 1.333 0 010-2.667zm16 0A1.333 1.333 0 1136 24a1.333 1.333 0 010-2.667zm-13.333-4a1.333 1.333 0 110 2.667 1.333 1.333 0 010-2.667zm10.666 0a1.333 1.333 0 110 2.667 1.333 1.333 0 010-2.667zM28 16a1.333 1.333 0 110 2.667A1.333 1.333 0 0128 16z" fill="#FFF" mask="url(#b)"/><path fill="#FFD044" mask="url(#b)" d="M0 0h56v13.333H0z"/></g></svg>