<svg width="56" height="56" xmlns="http://www.w3.org/2000/svg" xmlns:xlink="http://www.w3.org/1999/xlink"><defs><rect id="a" x="0" y="0" width="56" height="40" rx="4"/></defs><g transform="translate(0 8)" fill="none" fill-rule="evenodd"><mask id="b" fill="#fff"><use xlink:href="#a"/></mask><use fill="#FFF" xlink:href="#a"/><path fill="#E31F37" mask="url(#b)" d="M0 0h56v40H0z"/><path fill="#083B9A" mask="url(#b)" d="M-2.667-2.667h32v24h-32z"/><path d="M15.219 15.448l-.552 1.885.552 1.886-1.886-.552-1.885.552.552-1.886-.552-1.885 1.885.552 1.886-.552zm1.448-2.115a.667.667 0 110 1.334.667.667 0 010-1.334zM9.886 8.781l-.553 1.886.553 1.885L8 12l-1.886.552.553-1.885-.553-1.886L8 9.333l1.886-.552zm12-1.333l-.553 1.885.553 1.886L20 10.667l-1.886.552.553-1.886-.553-1.885L20 8l1.886-.552zm-6.667-5.334L14.667 4l.552 1.886-1.886-.553-1.885.553L12 4l-.552-1.886 1.885.553 1.886-.553z" fill="#FFF" mask="url(#b)"/></g></svg>