<svg width="56" height="56" xmlns="http://www.w3.org/2000/svg" xmlns:xlink="http://www.w3.org/1999/xlink"><defs><linearGradient x1="50%" y1="0%" x2="50%" y2="100%" id="c"><stop stop-color="#F12F1F" offset="0%"/><stop stop-color="#DE2010" offset="100%"/></linearGradient><rect id="a" x="0" y="0" width="56" height="40" rx="4"/></defs><g transform="translate(0 8)" fill="none" fill-rule="evenodd"><mask id="b" fill="#fff"><use xlink:href="#a"/></mask><use fill="#FFF" xlink:href="#a"/><path fill="#369D0C" mask="url(#b)" d="M0 0h56v5.333H0zM0 34.667h56V40H0zM0 10.667h56V16H0zM0 24h56v5.333H0z"/><path fill="#262626" mask="url(#b)" d="M0 16h56v8H0z"/><path fill="#FFD40E" mask="url(#b)" d="M0 5.333h56v5.333H0zM0 29.333h56v5.333H0z"/><path d="M-.444 1.333L24.444 20-.444 38.667h-.89V1.333h.89z" stroke="#262626" stroke-width="2.667" fill="#FFF" mask="url(#b)"/><path fill="url(#c)" mask="url(#b)" d="M8 22.6l-3.919 2.793 1.446-4.59L1.66 17.94l4.812-.043L8 13.333l1.528 4.564 4.812.043-3.867 2.863 1.446 4.59z"/></g></svg>