<?xml version="1.0" encoding="UTF-8"?>
<svg width="110px" height="45px" viewBox="0 0 110 45" version="1.1" xmlns="http://www.w3.org/2000/svg" xmlns:xlink="http://www.w3.org/1999/xlink">
    <!-- Generator: sketchtool 54.1 (76490) - https://sketchapp.com -->
    <title>89DB735A-0CCD-4E37-AA14-642B4605650D</title>
    <desc>Created with sketchtool.</desc>
    <defs>
        <path d="M0.0142241379,21.8304659 C0.242562507,18.0909004 3.19623791,15.2226724 7.1537931,15.2226724 C9.93366379,15.2226724 11.7221121,16.3890517 12.9273707,18.0414224 L10.089181,20.2381034 C9.31159483,19.2855603 8.41737069,18.6440517 7.11491379,18.6440517 C5.20982759,18.6440517 3.86849138,20.2769828 3.86849138,22.2598276 L3.86849138,22.2987069 C3.86849138,24.3398707 5.20982759,25.9339224 7.11491379,25.9339224 C8.53400862,25.9339224 9.36991379,25.2729741 10.1863793,24.2815517 L13.024569,26.3032759 C11.7415517,28.0722845 10.0114224,29.3747414 7.01771552,29.3747414 C3.28186368,29.3747414 0.246007498,26.6286046 0.0142241379,22.8092447 L0.0142241379,21.8304659 Z M19.4453448,29.1025862 L25.2189224,15.3976293 L28.8541379,15.3976293 L34.6471552,29.1025862 L30.6037069,29.1025862 L29.6317241,26.6531897 L24.3635776,26.6531897 L23.3915948,29.1025862 L19.4453448,29.1025862 Z M25.4716379,23.7178017 L28.5236638,23.7178017 L27.0073707,19.86875 L25.4716379,23.7178017 Z M41.9906034,29.1025862 L41.9906034,15.4948276 L48.4251293,15.4948276 C50.5051724,15.4948276 51.9437069,16.0391379 52.8573707,16.9528017 C53.6543966,17.7498276 54.0626293,18.7801293 54.0626293,20.1214655 L54.0626293,20.1603448 C54.0626293,22.2598276 52.954569,23.6400431 51.263319,24.3593103 L54.5097414,29.1025862 L50.1746983,29.1025862 L47.4337069,24.9813793 L45.7618966,24.9813793 L45.7618966,29.1025862 L41.9906034,29.1025862 Z M45.7618966,22.0265517 L48.2696121,22.0265517 C49.5331897,22.0265517 50.2913362,21.4044828 50.2913362,20.4130603 L50.2913362,20.374181 C50.2913362,19.2855603 49.4943103,18.74125 48.2501724,18.74125 L45.7618966,18.74125 L45.7618966,22.0265517 Z M65.3134483,29.1025862 L65.3134483,18.799569 L61.2505603,18.799569 L61.2505603,15.4948276 L73.167069,15.4948276 L73.167069,18.799569 L69.0847414,18.799569 L69.0847414,29.1025862 L65.3134483,29.1025862 Z M87.7155172,29.3965517 C83.7875216,29.3965517 80.6034483,26.2124784 80.6034483,22.2844828 C80.6034483,18.3564871 83.7875216,15.1724138 87.7155172,15.1724138 C91.6435129,15.1724138 94.8275862,18.3564871 94.8275862,22.2844828 C94.8275862,26.2124784 91.6435129,29.3965517 87.7155172,29.3965517 Z M67.77375,32.2413793 L69.9201724,32.2413793 C73.4103017,38.4658621 80.0717026,42.6724138 87.7155172,42.6724138 C98.9753448,42.6724138 108.103448,33.5443103 108.103448,22.2844828 C108.103448,11.0246552 98.9753448,1.89655172 87.7155172,1.89655172 C80.0717026,1.89655172 73.4103017,6.10310345 69.9201724,12.3275862 L67.77375,12.3275862 C71.4303017,5.01851293 78.986875,0 87.7155172,0 C100.022953,0 110,9.97704741 110,22.2844828 C110,34.5919181 100.022953,44.5689655 87.7155172,44.5689655 C78.986875,44.5689655 71.4303017,39.5504526 67.77375,32.2413793 Z" id="path-1"></path>
    </defs>
    <g id="visual" stroke="none" stroke-width="1" fill="none" fill-rule="evenodd">
        <g id="HE-map---about---partners" transform="translate(-693.000000, -1000.000000)">
            <g id="logo_CARTO_solid-(11)" transform="translate(693.000000, 1000.000000)">
                <mask id="mask-2" fill="white">
                    <use xlink:href="#path-1"></use>
                </mask>
                <g id="Clip-2"></g>
                <polygon id="Fill-1" fill="#7B878D" mask="url(#mask-2)" points="0 44.5784483 110.009483 44.5784483 110.009483 0 0 0"></polygon>
            </g>
        </g>
    </g>
</svg>