<?xml version="1.0" encoding="UTF-8" standalone="no"?>
<!-- Created with Inkscape (http://www.inkscape.org/) -->

<svg version="1.1" id="svg2" width="1049.0667" height="345.86667" viewBox="0 0 1049.0667 345.86667"
  sodipodiDocname="eowilson_logo_v3.eps" xmlnsInkscape="http://www.inkscape.org/namespaces/inkscape"
  xmlnsSodipodi="http://sodipodi.sourceforge.net/DTD/sodipodi-0.dtd" xmlns="http://www.w3.org/2000/svg"
  xmlnsSvg="http://www.w3.org/2000/svg">
  <defs id="defs6">
    <clipPath clipPathUnits="userSpaceOnUse" id="clipPath82">
      <path
        d="M 1297,2557 C 602,2557 36,1991 36,1296 36,601 602,36 1297,36 c 695,0 1261,566 1261,1261 0,695 -565,1260 -1261,1260 z M 1297,0 C 582,0 0,582 0,1297 0,2012 582,2594 1297,2594 2012,2594 2594,2012 2594,1297 2594,582 2012,0 1297,0 Z"
        id="path80" />
    </clipPath>
    <linearGradient x1="0" y1="0" x2="1" y2="0" gradientUnits="userSpaceOnUse"
      gradientTransform="matrix(2594,0,0,2594,0,1297)" spreadMethod="pad" id="linearGradient88">
      <stop style="stop-opacity:1;stop-color:#3d90b7" offset="0" id="stop84" />
      <stop style="stop-opacity:1;stop-color:#fbc807" offset="1" id="stop86" />
    </linearGradient>
  </defs>
  <sodipodiNamedview id="namedview4" pagecolor="#ffffff" bordercolor="#000000" borderopacity="0.25"
    inkscapeShowpageshadow="2" inkscapePageopacity="0.0" inkscapePagecheckerboard="0" inkscapeDeskcolor="#d1d1d1" />
  <g id="g8" inkscapeGroupmode="layer" inkscapeLabel="ink_ext_XXXXXX"
    transform="matrix(1.3333333,0,0,-1.3333333,0,345.86667)">
    <g id="g10" transform="scale(0.1)">
      <path
        d="m 304,1360 c 0,15 -7,41 -39,41 -29,0 -41,-24 -43,-41 z m -82,-43 c 2,-26 31,-38 63,-38 24,0 43,3 62,8 l 9,-42 c -23,-8 -51,-12 -81,-12 -76,0 -120,40 -120,103 0,51 35,108 113,108 72,0 100,-51 100,-101 0,-11 -1,-20 -2,-25 H 222 v -1"
        style="fill:#ffffff;fill-opacity:1;fill-rule:nonzero;stroke:none" id="path12" />
      <path d="m 429,1269 c 0,22 17,38 41,38 24,0 41,-16 41,-38 0,-22 -17,-38 -41,-38 -24,0 -41,16 -41,38"
        style="fill:#ffffff;fill-opacity:1;fill-rule:nonzero;stroke:none" id="path14" />
      <path
        d="m 643,1337 c 0,-35 16,-61 46,-61 27,0 44,24 44,61 0,30 -13,61 -44,61 -33,-1 -46,-31 -46,-61 z m 163,2 c 0,-74 -58,-108 -118,-108 -66,0 -116,39 -116,104 0,65 48,107 120,107 68,0 114,-42 114,-103"
        style="fill:#ffffff;fill-opacity:1;fill-rule:nonzero;stroke:none" id="path16" />
      <path d="m 859,1269 c 0,22 17,38 41,38 24,0 41,-16 41,-38 0,-22 -17,-38 -41,-38 -24,0 -41,16 -41,38"
        style="fill:#ffffff;fill-opacity:1;fill-rule:nonzero;stroke:none" id="path18" />
      <path
        d="m 1063,1437 18,-82 c 5,-21 9,-43 13,-66 h 1 c 5,23 11,46 16,66 l 24,83 h 55 l 22,-80 c 6,-23 12,-45 16,-69 h 1 c 3,23 8,46 13,69 l 19,80 h 68 l -69,-202 h -65 l -21,71 c -6,20 -10,38 -14,63 h -1 c -4,-25 -9,-44 -15,-63 l -22,-71 h -66 l -65,202 h 72 v -1 0"
        style="fill:#ffffff;fill-opacity:1;fill-rule:nonzero;stroke:none" id="path20" />
      <path
        d="m 1394,1236 v 202 h 70 v -202 z m 72,258 c 0,-17 -15,-31 -38,-31 -22,0 -37,14 -36,31 -1,18 14,32 37,32 23,0 36,-14 37,-32"
        style="fill:#ffffff;fill-opacity:1;fill-rule:nonzero;stroke:none" id="path22" />
      <path d="m 1550,1529 h 70 v -293 h -70 v 293" style="fill:#ffffff;fill-opacity:1;fill-rule:nonzero;stroke:none"
        id="path24" />
      <path
        d="m 1707,1291 c 13,-7 39,-15 60,-15 21,0 30,7 30,17 0,10 -7,15 -33,23 -46,14 -64,37 -64,61 0,38 36,66 91,66 26,0 49,-5 63,-11 l -12,-43 c -10,5 -29,11 -49,11 -17,0 -27,-6 -27,-16 0,-9 9,-14 36,-23 43,-13 61,-33 61,-62 0,-38 -33,-65 -97,-65 -29,0 -56,6 -72,14 l 13,43"
        style="fill:#ffffff;fill-opacity:1;fill-rule:nonzero;stroke:none" id="path26" />
      <path
        d="m 1997,1337 c 0,-35 16,-61 46,-61 27,0 44,24 44,61 0,30 -13,61 -44,61 -34,-1 -46,-31 -46,-61 z m 162,2 c 0,-74 -58,-108 -118,-108 -66,0 -116,39 -116,104 0,65 48,107 120,107 68,0 114,-42 114,-103"
        style="fill:#ffffff;fill-opacity:1;fill-rule:nonzero;stroke:none" id="path28" />
      <path
        d="m 2233,1373 c 0,25 -1,47 -2,64 h 61 l 3,-28 h 1 c 9,13 32,32 69,32 46,0 80,-27 80,-87 v -120 h -70 v 112 c 0,26 -10,44 -35,44 -19,0 -31,-12 -35,-24 -2,-4 -3,-10 -3,-16 v -114 h -70 l 1,137 v 0"
        style="fill:#ffffff;fill-opacity:1;fill-rule:nonzero;stroke:none" id="path30" />
      <path
        d="m 2861,1296 c 0,16 -13,26 -39,26 h -52 v -52 h 55 c 23,0 36,9 36,26 z m -10,79 c 0,15 -12,24 -33,24 h -48 v -50 h 45 c 22,1 36,9 36,26 z m 33,6 c 0,-23 -13,-35 -27,-42 22,-8 37,-20 37,-46 0,-34 -28,-52 -70,-52 h -87 v 188 h 85 c 38,0 62,-19 62,-48"
        style="fill:#ffffff;fill-opacity:1;fill-rule:nonzero;stroke:none" id="path32" />
      <path d="m 3021,1429 v -188 h -33 v 188 h 33" style="fill:#ffffff;fill-opacity:1;fill-rule:nonzero;stroke:none"
        id="path34" />
      <path
        d="m 3215,1402 c -37,0 -64,-30 -64,-67 0,-37 27,-67 64,-67 37,0 64,30 64,67 0,37 -27,67 -64,67 z m 0,-165 c -58,0 -98,44 -98,97 0,53 41,98 99,98 58,0 98,-44 98,-97 0,-53 -41,-98 -99,-98"
        style="fill:#ffffff;fill-opacity:1;fill-rule:nonzero;stroke:none" id="path36" />
      <path
        d="m 3478,1399 h -37 v -128 h 37 c 40,0 65,27 65,64 0,37 -26,64 -65,64 z m 0,-159 h -70 v 188 h 70 c 59,0 100,-41 100,-94 0,-53 -41,-94 -100,-94"
        style="fill:#ffffff;fill-opacity:1;fill-rule:nonzero;stroke:none" id="path38" />
      <path d="m 3707,1429 v -188 h -33 v 188 h 33" style="fill:#ffffff;fill-opacity:1;fill-rule:nonzero;stroke:none"
        id="path40" />
      <path d="m 3945,1429 h 36 l -78,-190 h -29 l -78,190 h 37 l 57,-145 55,145"
        style="fill:#ffffff;fill-opacity:1;fill-rule:nonzero;stroke:none" id="path42" />
      <path d="m 4207,1399 h -107 v -49 h 95 v -30 h -95 v -51 h 108 v -30 h -141 v 188 h 140 v -28 0"
        style="fill:#ffffff;fill-opacity:1;fill-rule:nonzero;stroke:none" id="path44" />
      <path
        d="m 4382,1399 h -48 v -63 h 48 c 24,0 39,12 39,32 0,20 -14,31 -39,31 z m 40,-159 -46,66 h -41 v -66 h -33 v 188 h 84 c 43,0 70,-23 70,-60 0,-31 -19,-50 -45,-57 l 51,-71 h -40"
        style="fill:#ffffff;fill-opacity:1;fill-rule:nonzero;stroke:none" id="path46" />
      <path
        d="m 4622,1350 c 40,-10 61,-24 61,-55 0,-36 -28,-56 -67,-56 -29,0 -56,10 -79,30 l 20,24 c 18,-16 36,-24 60,-24 20,0 33,9 33,24 0,14 -8,21 -42,29 -40,10 -63,21 -63,56 0,33 27,55 64,55 28,0 49,-8 68,-24 l -18,-25 c -17,13 -34,19 -51,19 -19,0 -31,-10 -31,-23 1,-15 9,-22 45,-30"
        style="fill:#ffffff;fill-opacity:1;fill-rule:nonzero;stroke:none" id="path48" />
      <path d="m 4811,1429 v -188 h -33 v 188 h 33" style="fill:#ffffff;fill-opacity:1;fill-rule:nonzero;stroke:none"
        id="path50" />
      <path d="m 4995,1240 h -33 v 158 h -60 v 31 h 153 v -31 h -60 v -158"
        style="fill:#ffffff;fill-opacity:1;fill-rule:nonzero;stroke:none" id="path52" />
      <path d="m 5232,1240 h -33 v 74 l -75,114 h 39 l 53,-83 53,83 h 38 l -75,-113 v -75 0"
        style="fill:#ffffff;fill-opacity:1;fill-rule:nonzero;stroke:none" id="path54" />
      <path d="m 5665,1399 h -107 v -51 h 95 v -30 h -95 v -77 h -33 v 188 h 140 v -30"
        style="fill:#ffffff;fill-opacity:1;fill-rule:nonzero;stroke:none" id="path56" />
      <path
        d="m 5843,1402 c -37,0 -63,-30 -63,-67 0,-37 27,-67 64,-67 37,0 63,30 63,67 0,37 -27,67 -64,67 z m 0,-165 c -58,0 -98,44 -98,97 0,53 41,98 99,98 58,0 98,-44 98,-97 0,-53 -41,-98 -99,-98"
        style="fill:#ffffff;fill-opacity:1;fill-rule:nonzero;stroke:none" id="path58" />
      <path
        d="m 6194,1322 c 0,-56 -32,-84 -81,-84 -49,0 -80,28 -80,83 v 109 h 33 v -107 c 0,-35 18,-54 48,-54 29,0 47,18 47,52 v 109 h 33 v -108"
        style="fill:#ffffff;fill-opacity:1;fill-rule:nonzero;stroke:none" id="path60" />
      <path d="m 6425,1429 h 33 v -188 h -28 l -104,134 v -134 h -33 v 188 h 31 l 101,-130 v 130 0"
        style="fill:#ffffff;fill-opacity:1;fill-rule:nonzero;stroke:none" id="path62" />
      <path
        d="m 6630,1399 h -37 v -128 h 37 c 40,0 65,27 65,64 1,37 -25,64 -65,64 z m 0,-159 h -70 v 188 h 70 c 59,0 100,-41 100,-94 0,-53 -40,-94 -100,-94"
        style="fill:#ffffff;fill-opacity:1;fill-rule:nonzero;stroke:none" id="path64" />
      <path d="m 6893,1391 -32,-75 h 65 z m 99,-151 h -35 l -19,46 h -89 l -19,-46 h -35 l 83,190 h 31 l 83,-190"
        style="fill:#ffffff;fill-opacity:1;fill-rule:nonzero;stroke:none" id="path66" />
      <path d="m 7133,1240 h -33 v 158 h -60 v 31 h 153 v -31 h -60 v -158 0"
        style="fill:#ffffff;fill-opacity:1;fill-rule:nonzero;stroke:none" id="path68" />
      <path d="m 7317,1429 v -188 h -33 v 188 h 33" style="fill:#ffffff;fill-opacity:1;fill-rule:nonzero;stroke:none"
        id="path70" />
      <path
        d="m 7511,1402 c -37,0 -63,-30 -63,-67 0,-37 27,-67 64,-67 37,0 63,30 63,67 0,36 -27,67 -64,67 z m 0,-165 c -58,0 -98,44 -98,97 0,53 41,98 99,98 58,0 98,-44 98,-97 0,-53 -41,-98 -99,-98"
        style="fill:#ffffff;fill-opacity:1;fill-rule:nonzero;stroke:none" id="path72" />
      <path d="m 7835,1429 h 33 v -188 h -28 l -104,134 v -134 h -33 v 188 h 31 l 101,-130 v 130 0"
        style="fill:#ffffff;fill-opacity:1;fill-rule:nonzero;stroke:none" id="path74" />
      <g id="g76">
        <g id="g78" clip-path="url(#clipPath82)">
          <path
            d="M 1297,2557 C 602,2557 36,1991 36,1296 36,601 602,36 1297,36 c 695,0 1261,566 1261,1261 0,695 -565,1260 -1261,1260 z M 1297,0 C 582,0 0,582 0,1297 0,2012 582,2594 1297,2594 2012,2594 2594,2012 2594,1297 2594,582 2012,0 1297,0"
            style="fill:url(#linearGradient88);fill-opacity:1;fill-rule:nonzero;stroke:none" id="path90" />
        </g>
      </g>
    </g>
  </g>
</svg>