<?xml version="1.0" encoding="UTF-8"?>
<svg id="a" data-name="Layer 1" xmlns="http://www.w3.org/2000/svg" viewBox="0 0 87.5 87.84">
  <path class="b" d="M71.05,19.05c1.06,1.32,2.85,1.43,4.45,1.42,1.74,0,2.72.86,3.55,2.31,1.6,2.82.45,5.13-1.86,7.24-1.4,1.28-3.59,1.42-4.93,2.55-.89.75-1.42,1.9-1.92,2.97-.5,1.05-.93,1.84-1.72,2.7-.66.72-1.23,1.73-1.98,2.32-.85.66-2.01,1.12-2.91,1.75,1.22,1.33,1.77,2.09,3.6,2.26.92.09,1.65.05,2.53.26.82.19,1.63.65,2.4.8,1.8.36,3.34-.39,4.93-.71,1.82-.37,2.87.79,1.05,1.99-1.4.92-3.18,1.15-4.78,1.81.99.68,2.33,1.91,3.46,2.04-.07,1.08,2.88.84,2.05,2.48-.34.66-2.53,1.03-3.21.92-.97-2.32-2.39-2.71-4.41-4.01-.9-.58-1.68-1.23-2.71-1.6-1.16-.42-1.87.03-3-.06.53.85,1.21,1.62,1.74,2.43.47.72,2.02,1.76,1.52,2.79-.45.91-2.34.94-3.01.35-.53-.46-.31-.97-.54-1.54-.19-.48-.6-.88-.97-1.31-.83-.96-1.74-1.45-2.82-2.01-3.26.61-6.18,2.93-9.24,3.94.27,2.23,1.19,5.08,2.05,7.25.48,1.2.65,2.35.96,3.53.29,1.11,1.02,2.21,1.18,3.32.33,2.38,3.48-.59,4.18-1.22,1.35-1.21,4.63-.58,3.11,1.53-.55.76-1.87,1.36-2.72,1.71.86.13,1.87.46,2.64.83.75.36,1.53,1.19,2.36,1.29.91.12,1.92-.44,2.81-.58,1.07-.17,1.69.08,2.64.23.82.13,1.82-.29,2.19.68.32.83-.56,1.58-1.35,1.78-.97.25-1.76-.34-2.65-.45-.94-.12-1.97.16-2.88.25-1.14.11-2.11-.09-3.25-.24-.95-.13-1.87-.66-2.76-.71,1.6,1.16,1.28,3.09,3.24,4.01.62.29,1.91.64,1.8,1.57-.08.68-1.82,1.36-2.52,1.4-1.33.06-1.04-.67-1.81-1.49-.67-.71-1.55-1.38-2.28-2.02-1.64-1.45-3.52-2.28-5.29-3.47-1.82-1.22-4.98-2.58-5.53-4.86-.6-2.49-1.07-4.71-1.2-7.3-.12-2.3-1.02-4.19,0-6.35-.81.86-2.91,1.1-4.11,1.43-1.3.35-2.66.46-4,.65-2.92.42-5.82.62-8.6-.54-1.42-.59-2.93-1.06-4.2-1.89,0,2.47-.55,6.3-3.49,7,1.31.3,3.3,1.99,1.68,2.97-1.49.89-3.13-.13-4.33-.95-.02,1.85,1.24,3.07,1.91,4.7.79,1.93-2.09,2.79-2.63,1.11,0,1.73.95,6.08-2.34,5.11-2.19-.65-.52-4.36-.54-5.94-.01-1.35-.44-2.43-.72-3.68-.16.81-.99,1.03-1.45,1.48-.46.44-.55,1.02-.89,1.43-.72.85-2.56,1.02-3.1-.27-.63-1.5,1.41-2.18,2.26-2.92,1.04-.9,1.26-2.33,1.4-3.64.22-1.98-1.57-2.26-2.19-3.91-1.31-3.46-3.11-6.78-3.46-10.32-.32-3.25-2.18-7.22,1.6-9.14.97-.49,1.51-.59,2.46-.09.69.36,1.12,1.26,1.78,1.38.15-.43.43-.44.86-.45-.03-2.02,1.56-3.07,3.49-2.37,1.31-.97,2.82-1.65,4.03-2.79,1.56-1.47,3.71-2.71,5.65-3.67,3.68-1.81,7.22-4.28,11.36-4.47,1.69-.08,4.05-.33,5.66.13,1.64.46,2.95-.85,4.44-1.42,1.28-.5,2.66-.74,3.97-1.12,2.37-.7,4.77-1.45,7.09-2.08,1.3-.35,1.41-2.06,2.64-2.73.9-.49,1.94-.68,2.95-.59,1.42.13,3.76,1.76,4.63,2.85"/>
</svg>
