<?xml version="1.0" encoding="UTF-8"?>
<svg id="a" data-name="Layer 1" xmlns="http://www.w3.org/2000/svg" viewBox="0 0 87.5 87.84">
  <defs>
    <style>
      .b {
        fill: #2b2c2a;
      }
    </style>
  </defs>
  <path class="b" d="M74.9,75.54c-1.13-.13-2.51-1.26-3.22-2.13-.92-1.13-1.16-3.39-1.89-4.84-.73-1.44-1.87-2.24-2.62-3.53-.7-1.19-1.81-3.43-2.1-4.73-.14-.61,0-1.56-.82-1.81-.02,1.44.41,2.84.94,4.16l.89,1.89c-.5-.6-1.13-1.19-1.46-1.91s-.89-4.15-1.27-4.38c-2.54-.08-5.28.43-7.29-1.53-.47-.46-.67-.96-1.04-1.44-.77-1-1.11-.65-.99-2.28.06-.87.93-3.51.77-4.04-.03-.12-.15-.19-.23-.27-.22-.05-.13.09-.17.22-.22.6-.47,1.21-.67,1.81-.22.67-.48,2.16-.84,2.62-.15.19-.41.23-.5.49-.27.81.42,1.66-.2,2.58-.15.23-.48.38-.54.65-.13.67.06,2.09.35,2.71s.92.95.53,1.79c-.79-.25-1.55-4-1.83-4.06-.93.74-1.37,1.52-2.75,1.26-.44-.08-.59-.56-.96-.22-.22.2-.38,1.68-.41,2.07-.09,1.58.11,3.28,0,4.86-.1,1.48-.52,2.96-.6,4.46-.11,2.2-.17,4.85-.1,7.04,0,.3.1.55.1.84-1.06.02-1.15-1.81-1.19-2.62-.14-2.59.88-6.42.36-8.68-.08-.35-.35-.65-.36-.93,0-.69.49-1.68.59-2.39.05-.42.1-1.13.11-1.57.01-.39.05-2.32-.2-2.49-1.22.03-2.04-.46-2.73-1.43-.85.89-1.64,1.98-2.53,2.82-1.65,1.57-4.25,3.44-6.39,4.21-.56.2-2.54.56-2.71,1.16-.06.2,0,.44-.04.65-.26,1.02-1.24,1.98-1.71,2.94-.5,1.02-.72,2.27-1.32,3.24-.75,1.22-2.78,3.06-4.23,3.2-.52.05-1.03-.1-1.53,0,.46-.86,1.39-.49,2.18-.74,2.62-.82,3.67-5,4.48-7.21.26-.72.71-1.39.87-2.15-.1-.07-1.47.07-1.72.11-1.01.16-1.61.81-2.07-.63-.37-1.14-.28-4.59-.03-5.83.41-1.97,2.92-5.05,4.46-6.33,1.12-.93,2.47-1.8,3.81-2.38l-1.14-1.09c-1.54-1.12-2.22.19-3.27.99-1.71,1.3-3.88,2.14-5.69,3.33-.74.49-1.62,1.41-2.4,1.66-.35.11-.87.02-1.11.37-.44.63-2.1,1.2-2.93,1.74-1.32.86-1.96,2.07-3.08,2.97-1.01.81-1.73.62-2.88.89-1.08.26-1.86.85-3.08.6-.69-.14-1.41-.77-2.17-.75,1-.92,2.61-.35,3.81-.29,1.33.07,2.55.02,3.62-.85,1.24-1,2.46-2.4,3.66-3.47,1.77-1.57,4.17-3.16,6.19-4.41,1.84-1.13,7.36-4.29,9.32-4.27,1.71.02,2.92,1.37,4.55,1.19.5-.06,1.09-.38,1.6-.39.88-.01,1.81.99,2.37,1.59.74.78,1.5,1.65,2.03,2.58.15.02.18-.26.19-.35.1-.73.06-1.49.26-2.22.05-.2.21-.83.49-.79.41.07.92,2.28,1.23,2.74.09.13.11.27.31.23.37-.69.5-1.45.4-2.23-.07-.58-.67-1.19-.77-1.7-.26-1.28.6-2.17,1.46-2.95.24-.22,1.37-.99,1.44-1.14.14-.28-.07-.9.14-1.05.59-.04,1.08.14,1.7.01.9-.19,2.65-1.33,3.73-1.71,1.33-.47,3.52-.88,4.92-.71.42.05.69.27,1.03.36.79.2,1.57.29,2.3.72-.17-1.76-1.14-3.17.15-4.76.89-1.1,2.27-1.5,3.41-2.24-.16-.7-.67-1.18-.84-1.91-.27-1.16.02-2.18-.04-3.33-.06-1.26-.83-3.55.89-4.01.25.81-.25,1.56-.38,2.34-.2,1.18-.34,3.83.14,4.89.3.68,1.26.91,1.8,1.37l.92-.38c-1.76-2.06-1.64-5.11-1.59-7.68.1-4.64.61-9.26,1.19-13.86.2-1.57.5-3.21,1.44-4.51.23-.04.13.1.15.25.1,1.1-.51,2.01-.73,3.04-.24,1.13-.15,2.28-.26,3.4-.61,5.77-2.21,12.14-.22,17.76.28.8.73,1.28,1.45,1.72,1.04.65,1.26.55,2.39.68,1.24.14,1.66.75,2.66,1.3,1.77.98,3.56,1.33,4.23,3.59-1.13,1.01-2.59,1.41-3.86,2.19-1.4.86-2.22,1.67-3.85,2.29-1.01.39-3.97,1.41-4.93,1.51-1.38.14-2.22-1.11-3.74-.77-.52.12-1.48,1.32-1.45,1.82,0,.07.5.8.59,1.08.41,1.18.67,2.65,1.06,3.9s1.27,2.69,1.02,4.08c1.56.53,1.94,2.55,2.62,3.87.86,1.66,2.42,3.68,2.86,5.46.07.29.13,1.31.18,1.36.02.02.35.05.54.21.79.66,1.18,4.14,1.71,5.22.44.89,2.34,2.47,3.35,2.5.79.02,1.63-.51,1.72.8-.65-.05-1.4.07-2.03,0Z"/>
</svg>