<?xml version="1.0" encoding="UTF-8"?>
<svg id="a" data-name="Layer 1" xmlns="http://www.w3.org/2000/svg" viewBox="0 0 138.72 138.72">
  <path d="M86.81,30.44l-14.06-17.65c-.2-.25-.48-.4-.71-.6-.86-1.35-2.3-2.29-4.02-2.29h-1.03c-1.72,0-3.16.94-4.02,2.29-.24.2-.51.35-.71.6l-14.06,17.65c-1.67,2.1-1.33,5.16.78,6.84l.81.64c2.1,1.67,5.16,1.33,6.84-.78l5.51-6.92v95.9c0,2.69,2.18,4.87,4.87,4.87h1.03c2.69,0,4.87-2.18,4.87-4.87V30.23l5.51,6.92c1.67,2.1,4.73,2.45,6.84.78l.81-.64c2.1-1.67,2.45-4.73.78-6.84Z"/>
</svg>
