<?xml version="1.0" encoding="UTF-8"?>
<svg id="a" data-name="Layer 1" xmlns="http://www.w3.org/2000/svg" viewBox="0 0 87.5 87.84">
  <defs>
    <style>
      .b {
        fill: #2b2c2a;
      }
    </style>
  </defs>
  <path class="b" d="M70.24,11.92c-.95-1-1.75-1.97-3.13-2.23-1.34-.25-3.84-.25-5.21,0-3.91.72-7.67,6.79-8.59,10.4-.47,1.86-.48,4.13-1.13,5.82-1.89,1.43-4.12,2.37-6.03,3.84-1.6,1.23-3.33,3.08-4.34,4.83-2.26,3.89-5.71,7.07-8.86,10.35-1.51,1.58-2.54,4.47-4.33,5.62-1.24.79-2.92,2.08-4.14,2.94-1.52,1.08-2.96,2.19-4.56,3.15-3.41,2.06-7.08,4.12-10.3,6.47-.92.67-2.28,1.48-2.82,2.41,1.37-.01,2.43-.34,3.64-.87-.31.51-.84.81-1.13,1.36,1.38-.25,2.69-1.36,4.12-1.09-.05.2,0,.37-.09.57.53-.02,1.05-.24,1.6-.2-.06.16-.03.42-.09.58,1.62.07,3.93-2.07,5.3-2.88,1.53-.9,2.84-2.13,4.71-2.06-.24.97-1,3.55.99,2.52,1.06-.55,2.6-2.38,3.39-3.39.01.21.1.38.14.6,1.58.64,2.4-.29,3.67-1.11,1.37-.88,2.94-1.34,4.33-2.1,1.8-.97,5.21.53,6.71,2.1,1.21,1.27,2.21,3.59,3.32,4.71.16,1.29,1.44,2.27,2.07,3.39.81,1.47,1.81,2.94,2.57,4.4.54,1.04-1.22.94-1.76,1.8-.54.86.19,1.79.63,2.41,2.07-3.63,4.01,1.04,2.63,1.86.7-.12,2.17.8,2.02-.85.12-.03.23.01.34-.04-.06-.28.1-.67.04-.95,3.3-.17-1.68-4.03-2.28-4.72.18-1.72-2.44-4.09-3.34-5.51-1.3-2.07-1.92-3.09-1.92-5.63,2.17.07,3.6-.52,5.39-1.48,1.36.82,3.07,1.06,4.58,1.61,1.6.58,2.19,1.05,2.95,2.6.96-.29,2.24-.71,3.02.18,1,1.12.1,2.04-1.02,2.17.11.57,1.1.51,1.62.5,1-.01.93.08,1.26-.69.27-.63.05-1.02.48-1.57.4-.53,1.11-.71,1.16-1.46.07-1.02-1.76-2.37-2.64-2.48-1.26-.14-2.52.29-3.95-.06-1.76-.42-4.47-.76-5.83-1.92,1.81-.16,3.23-1.54,4.56-2.6,1.36-1.09,2.74-2.12,4.15-3.16,3.12-2.29,5.58-5.04,7.58-8.26,1.37-2.19,2.67-4.27,3.89-6.52.69-1.27.86-2.12,1.13-3.96.25-1.67.1-3.51-.12-5.38-.19-1.57-.53-2.85-.83-4.47-.28-1.54-.56-1.84-.93-3.64,1.14,0,2.33.53,3.49.47.36-.04.46.01.16-.35-1.43-1.19-4.28-.81-5.7-2.12-1.51-1.39-1.09-3.96-.08-5.61.8-1.3,2.03-2.34,2.75-3.64-.22-.03-.51-.07-.74-.02-1.03.19-1.8.83-2.64,1.45-.67.5-1.15,1.44-1.88,1.89"/>
</svg>