<?xml version="1.0" encoding="UTF-8"?>
<svg id="a" data-name="Layer 1" xmlns="http://www.w3.org/2000/svg" viewBox="0 0 200 200">
  <defs>
    <style>
      .b {
        fill: #5c5c5c;
      }
    </style>
  </defs>
  <path class="b" d="M56.21,52.72c3.82-4,9.69-5.51,15.25-5.83,2.74-.16,5.73,0,7.9,1.61.26.19.61.17.84-.06,3.33-3.54,8.32-5.59,13.17-5.3,4.98.31,9.53,2.82,13.73,5.52,7.05,4.53,13.63,9.74,20.19,14.95.17.13.39.17.59.09,13.24-4.89,27.68-6.89,41.7-5.32,4.25.48,11.65,1.34,15.13,3.74.44.3.24,1.42-.27,1.56-2.86.8-5.68,1.02-8.6,1.56-6.08,1.1-15.49,2.85-21.53,4.17s-10.87,3.8-15.61,6.34c-.36.19.07.67.4.9,5.57,3.95,8.71,9.54,11.88,15.62,3.63,6.95,6.55,14.28,8.69,21.83,2.41,8.53-1.87,18.1-6.26,25.8-2.43,4.28-5.6,8.23-9.73,10.92-5.94,3.88-13.71,4.79-20.39,2.4-2.35-.84-4.66-2.17-5.89-4.33-1.61-2.82-1.1-6.55-2.37-9.43-.22-.51-.96-.46-1.14.06-.43,1.28-1.45,2.37-2.73,2.83-1.59.57-3.54.26-4.82,1.36-.45.38-.75.89-1.06,1.39-.62,1.03-1.24,2.06-1.86,3.1-.64,1.06-1.29,2.15-1.55,3.37-.14.67-.14,1.42.27,1.97.31.42.8.65,1.28.87,1.11.51,2.21,1.03,3.32,1.54,1.16.54,2.35,1.1,3.26,2.01s1.48,2.26,1.13,3.49c-.54-.32-.86-.74-1.24-1.24s-.82-.99-1.42-1.18-1.37.06-1.54.66c-.04.15-.05.32-.13.45s-.29.21-.4.1l-.06-1.52c0-.2-.11-.38-.27-.49-1.19-.81-2.52-1.42-3.91-1.77-.25-.06-.52-.13-.71-.29-.15-.13-.25-.31-.34-.49-.5-.95-1.01-1.89-1.51-2.84.05.55-.31,1.29-.81,1.52-.21.1-.48.18-.56.4-.05.15,0,.31.07.46.27.69.55,1.39.82,2.08.32.81.6,1.83.14,2.52-.1.15-.16.32-.11.49.29,1.16.6,2.32,1.2,3.35.55.95,1.32,1.75,1.82,2.73.48.94.69,2.02,1.3,2.88.42.58,1,1.03,1.47,1.57s.83,1.26.66,1.96c-.93-.74-1.87-1.48-2.8-2.22-.15-.12-.32-.25-.52-.23-.19.02-.33.17-.45.32-.52.62-1.05,1.24-1.57,1.86.89-1.17.47-2.84-.05-4.22-.53-1.38-1.12-2.74-1.77-4.07-.2-.4-.77-.47-1.03-.11-.16.22-.35.4-.59.5.13-1.62.26-3.25.39-4.87l-.47.09c-.35-1.78-.34-3.64.04-5.41-.25-.09-.45.2-.6.41s-.56.34-.62.08c-.01-.05,0-.11,0-.16l1.09-5.38c.06-.3-.1-.6-.39-.7-.69-.24-1.4-.64-1.39-1.29,0-.35.21-.67.37-.99.63-1.26.58-2.73.56-4.13-.08-5.35.39-10.7,1.39-15.96.26-1.38.58-2.79,1.35-3.95.1-.15.14-.33.1-.5-.66-2.55-2.95-4.18-5.25-5.53-.54-.32-1.42-.53-1.64.06-.14.39.18.78.42,1.12,1.24,1.79.26,4.22-.73,6.16-1.21,2.36-2.42,4.72-3.63,7.08-.65,1.27-1.33,2.58-2.41,3.52-.86.75-2.05,1.22-3.16,1.08-.4-.05-.72.33-.66.73.14.95.25,1.91.41,2.85-.27.17-.68.05-.82-.23.38,1.71.77,3.43,1.15,5.14.06.29-.02.68-.18.87s-.23.43-.14.66l2,5.12c.18.46.21,1.2-.28,1.25.71.77,1.07,1.86.95,2.91.22-.65-.43-1.28-1.08-1.53-1.23-.48-3.02.03-3.11,1.35-.02.31.06.63-.01.94s-.39.6-.68.47c.67-3.57.6-7.28-.19-10.82l-.65,1.15c-.2-1.63-.17-3.29.08-4.92l-.7,1.03c-.03-1.56.33-3.13,1.03-4.52l-.96.47c.47-1.45.68-2.98.63-4.51-.12-3.63,1.35-9.22,3.07-12.42l3.77-7.01c.07-.12.09-.26.06-.4-.57-3.12-1.06-6.45.42-9.2.12-.23.12-.51-.06-.7-1.14-1.17-3.19-1.36-4.7-2.05-2.1-.96-3.7-2.72-5.24-4.44-1.86-2.07-3.77-4.2-4.78-6.8-1.45-3.72-1-8.2-3.26-11.43-.15-.22-.43-.31-.69-.23-3.71,1.09-7.23,2.49-10.34,4.81-1.65,1.23-3.18,2.62-4.71,4-1.88,1.7-3.77,3.4-5.65,5.11-1.12,1.01-2.28,2.08-2.84,3.48-.21.54-.36,1.14-.56,1.69s-.96.55-1.17,0c-.18-.47-.51-.89-.95-1.13-.9-.5-2.15-.25-2.78.57-.29-1.18,1.21-1.89,2.22-2.57,2.16-1.48,2.7-4.55,4.77-6.16.51-.4,1.13-.73,1.38-1.32.2-.46.12-1,.25-1.48.16-.64.64-1.14,1.11-1.62l3.53-3.6c.38-.39.11-1.02-.42-1.05s-1.1-.15-1.58-.47c-.7-.46-1.11-1.27-1.28-2.09-.09-.46-.12-.93-.15-1.4-.12-1.99-.17-4.22,1.15-5.71.36-.4.8-.73,1.09-1.18.6-.93.44-2.16.85-3.18.56-1.39.35-2.89.54-4.37.05-.38-.26-.71-.64-.69-1.26.06-2.54.66-3.41,1.54-1.05,1.06-1.94,2.32-3.23,3.07-.97.56-2.08.8-3.13,1.19-2.33.87-4.35,2.52-6.78,3.08-1.44.33-2.82.89-4.11,1.61-3.69,2.08-7.36,4.26-11.27,5.84-.67.27-1.19-.64-.61-1.07.02-.02.04-.03.06-.05,3.16-2.36,6.55-4.38,10.16-5.99,3.05-1.36,6.03-2.96,9.23-4,2.53-.82,6.3-2.84,8.3-4.59,1.8-1.57,4.05-2.66,6.36-3.29.26-.07.46-.3.45-.57,0-.33.03-.65.13-.96.12-.41-.2-.82-.62-.79-9.61.48-18.83,3.35-28,6.31-.15.05-.31.1-.46.07-.36-.07-.5-.55-.36-.89s.41-.66.76-.77c2.23-.7,4.63-2.16,7.19-2.78,2.79-.67,5.5-1.49,8.29-2.15,4.2-1,8.55-1.26,12.86-1.43,1.14-.05,2.21-.56,3-1.39Z"/>
</svg>