<?xml version="1.0" encoding="UTF-8"?>
<svg id="a" data-name="Layer 1" xmlns="http://www.w3.org/2000/svg" viewBox="0 0 87.5 87.84">
  <defs>
    <style>
      .b {
        fill: #2b2c2a;
      }
    </style>
  </defs>
  <path class="b" d="M41.4,38.96c.42-.56.79-1.01,1.11-1.5.11-.17.14-.44.1-.64-1.04-4.3-3.12-7.95-6.7-10.65-.42-.31-.92-.51-1.35-.81-.25-.17-.45-.41-.75-.7.75-.15,1.4.25,3.38,2.13.97.93,1.96,1.88,2.74,2.96.76,1.06,1.33,2.28,1.85,3.48.54,1.23.92,2.52,1.37,3.8h1.48c1.08-5.39,4.13-9.58,8.82-12.56.08.06.17.11.25.17-.15.22-.26.5-.46.66-1.02.78-2.13,1.46-3.09,2.3-2.91,2.57-4.32,6-5.19,9.54.39.61.73,1.16,1.09,1.74.08-.09.31-.28.42-.52,1.28-2.95,3.54-5.12,5.82-7.25,3.59-3.34,7.59-6.07,12.24-7.73,3.14-1.12,6.37-1.72,9.7-1.48,1.57.11,3.14.4,4.55,1.2,1.45.83,1.88,1.72,1.36,3.29-.41,1.24-.82,2.55-1.53,3.62-1.62,2.43-2.5,5.08-3.09,7.89-.24,1.15-.64,2.29-1.11,3.37-1.34,3.05-3.54,4.23-6.81,3.71-1.52-.24-3.04-.53-4.71-.64.42.39.77.94,1.27,1.14,3.67,1.47,4.85,4.78,6.08,8.06.11.28.09.63.06.94-.14,1.31-.3,2.61-.47,3.91-.03.2-.08.43-.2.59-.69.98-1.23,2.01-1.37,3.23-.04.3-.28.67-.54.84-.7.46-.96,1.09-1.08,1.88-.14.92-.66,1.66-1.4,2.23-1.22.93-2.35,2.02-3.68,2.75-1.56.85-3.25,1.44-4.57,2.69-.12.12-.34.17-.51.19-1.21.09-2.42.26-3.63.2-1.22-.06-2.06-.88-2.66-1.91-1.2-2.05-1.68-4.35-2.28-6.62-.6-2.26-1.27-4.5-1.95-6.74-.1-.34-.36-.63-.54-.94-.08.01-.15.02-.23.03,0,.69.01,1.37,0,2.06-.04,2.05-.04,4.11-.18,6.15-.06.84-.42,1.67-.7,2.49-.07.19-.36.4-.56.43-.15.02-.43-.23-.48-.42-.28-.87-.59-1.75-.72-2.65-.12-.87-.03-1.78-.03-2.67,0-1.76,0-3.52,0-5.29-.14-.03-.28-.07-.42-.1-.35.73-.8,1.42-1.02,2.19-.64,2.25-1.14,4.54-1.77,6.8-.44,1.54-.94,3.07-1.55,4.55-.73,1.78-2.11,2.71-4.08,2.92-1.78.19-3.43.19-4.78-1.2-.17-.18-.44-.32-.69-.37-2.64-.58-4.39-2.56-6.35-4.17-.61-.5-.74-1.57-1.11-2.37-.13-.29-.26-.62-.49-.81-.62-.51-1-1.09-1.14-1.91-.11-.63-.39-1.26-.74-1.79-.53-.8-.8-1.63-.83-2.59-.03-.97-.37-1.95-.26-2.9.36-3.29,1.53-6.24,4.07-8.49.54-.48,1.3-.7,1.91-1.11.5-.33.94-.77,1.4-1.16-.05-.08-.1-.16-.15-.24-1.11.23-2.21.53-3.33.67-1.2.15-2.43.28-3.63.17-2.24-.2-3.63-1.68-4.38-3.65-.73-1.91-1.27-3.9-1.75-5.89-.35-1.46-1-2.76-1.69-4.07-.86-1.62-1.68-3.28-2.33-5-.57-1.51-.1-2.43,1.3-3.23,1.53-.87,3.22-1.18,4.93-1.25,5.42-.23,10.35,1.41,14.94,4.16,3.31,1.98,6.32,4.37,8.91,7.22,1.16,1.28,2.01,2.83,3,4.26.35.5.67,1.03.92,1.41Z"/>
</svg>