<?xml version="1.0" encoding="UTF-8"?>
<svg id="b" data-name="—ÎÓÈ_1" xmlns="http://www.w3.org/2000/svg" viewBox="0 0 622.34 622.34">
  <path d="M521.71,316.92c-1.25,3.4-4.32,2.77-6.82,3.29-9.07,1.9-13.98,11.12-10.16,19.72,1.31,2.96,3.76,5.23-1.78,6.29-11.73,2.25-16,9.05-13.06,20.46,1.17,4.54-1.41,5.2-4.23,3.58-6.17-3.54-10.81-.71-14.31,3.5-10.19,12.23-25.92,13.23-38.76,19.99-11.94,6.29-24.57,5.05-37.1,3.42-6.9-.9-10.6.61-7.31,7.71,8.01,17.3,3.14,35.86,2.55,53.02-.9,26.09-19.81,43.69-23.69,67.56-1.35,8.31-27.19,26.11-34.04,30.56-15.49,10.06-33.47,12.32-48.58.64-5.28-4.08-9.12-9.94-16.23-11.64-3.06-.73-3.13-3.9-3.54-6.67-.49-3.31-.71-7.23-2.6-9.68-8.5-11-14.46-23.12-18.37-36.4-1.4-4.76-6.21-5.91-9.93-8.12-3.8-2.25-7.17-5.04-3.59-9.63,9.16-11.74,1.59-22.5-2.32-32.98-1.59-4.27-3.32-7.57-1.89-12.18,3.06-9.85.77-20.23,2.5-30.25.23-1.31-.27-2.76.03-4.04,1.28-5.52,9.03-11.38-.54-16.28-5.29-2.72-9.28-8.19-16.14-7.79-1.2.07-3.08-.36-3.59-1.2-9.75-16.08-24.49-28.89-31.42-46.73-2.81-7.22-8.91-12.72-9.77-20.95-.43-4.09-4.15-4.95-7.92-4.07-13.9,3.26-27.51-1.86-41.14-1.5-14.02.37-24.02-7.7-34.82-13.49-6.91-3.71-11.41-2.8-16.54.87-2.94-2.86-.67-5.81-1.42-8.16-1.88-5.88-2.67-13.52-12.39-10.19-5.73,1.96-6.8-1.81-5.97-5.94,2.91-14.49,2.81-31.68,10.06-45.25,9.24-17.28,36.24-20.21,51.82-9.01,6.85,4.92,14.35,8.83,22.96,9.83,2.99.35,4.03,2.29,4.29,4.79.96,9.48,8.71,14.99,13.23,22.36,3.11,5.08,6.5,3.85,7.95-2.01,2.44-9.85,5.29-19.52,10.4-28.45,2.99-5.24-2.12-6.47-5.11-7.87-9.8-4.57-19.79-8.76-29.74-13.01-7.58-3.23-12.44-9.17-16.29-16.11-2.2-3.97-3.66-7.97-.44-12.3,3.1-4.17,1.65-9.17,1.89-13.82.36-7.12,3.67-12.14,10.89-12.12,6.16.02,10.29-2.37,13.98-6.64,5.26-6.09,11.17-7.1,17.89-2.32,1.09.77,2.38,1.54,3.66,1.72,25.51,3.63,27.84,22.52,28.75,42.79.28,6.17-3.85,15.64,8.14,15.97,7.96.21,12.79-6.49,12.71-17.2-.05-6.09.65-12.43-.78-18.21-5.64-22.72,9.32-39,20.06-54.49,20.36-29.37,87.57-33.27,90.14,11.8.39,6.87,7.39,8.62,9.66,13.1,2.4,4.73-8.9,5.38-7.27,12.48,2.21,9.61-5.04,19.16-.51,28.93.84,1.8-.07,3.39-1.84,4.11-9.56,3.9-11.69,14.76-19.09,20.43-6.32,4.85.88,13.22-4.11,15.98-4.07,2.26-10.12-3.32-16.08.81-5.43,3.77-12.17,5.8-18.52,8.08-8.81,3.16-10.17,6.6-3.37,13.13,4.44,4.26,6.85,7.07,6.53,14.5-.45,10.43,3.96,21.1,6.54,31.61.34,1.39,1.97,3.12,3.33,3.49,8.83,2.35,9.43,5.64,1.59,10.44-2.88,1.77-3.81,4.63-3.79,7.85.07,11.5.25,22.99.24,34.48,0,5.42,2.34,5.26,6.42,3.53,7.4-3.14,14.61-6.18,23.09-6.8,16.66-1.2,29.95,6.47,43.78,13.5,4.27,2.17,9.59,8.08,13.42,3.98,3.88-4.15,5.93-11.23,4.24-17.86-1.87-7.37-4.19-13.99,6.88-16.87,4.38-1.14,5.37-7.86,3.6-12.51-1.53-4.02-5.08-6.28-9.91-4.11-1.17.53-2.58.52-3.88.75-2.28-13.62-21.32-10.44-24-24.29-1.53-7.92-6.63-12.37-15.68-8.23-4.99,2.28-7.07-.01-5.94-5.2.64-2.96.97-6.17,2.39-8.73,3.7-6.66,3.55-11.33-4.79-13.8-3.1-.92-5.7-3.36-3.04-6.92,9.88-13.17,8.47-31.84,16.53-46.06,12.7-22.42,33.73-6.34,53.26-4.45,2.17.21,3.28,1.56,2.82,3.32-2.01,7.6,3.75,11.73,7.17,16.94,10.83,16.5,13.27,35.14,14.01,54.27.15,3.84-1.76,10.68,1.98,10.9,6.83.4,14-3.02,19.21-7.65,4.66-4.14-.78-7.88-3.12-11.19-5.27-7.46-10.85-14.7-16.3-22.03-11.77-15.8-10.79-25.74,3.74-38.66.99-.88,1.87-1.95,2.62-3.06,9.77-14.45,9.84-14.62,26.09-6.65,4.49,2.2,7.76.49,11.4-1.33,9.01-4.51,19.38-.61,22.45,9.03,1.39,4.36,2.64,8.21,6.78,10.71,9.28,5.59,9.85,13.97,6.59,23.06-4.48,12.48-10.71,24.14-18.51,34.86-4.72,6.48-3.89,10.49,4.24,12.06,2.68.52,5.21.66,6.9,3.41,5.56,9.07,9.23,3.99,13.19-1.7,8.28-11.91,16.37-23.71,33.32-24.59,10.67-.55,20.68,2.4,31.01,3.47,4.83.5,5.04,6.83,8.54,9.54,1.85,1.43,3.3,3.39,4.83,5.19,4.95,5.83,3.08,12.45,3.7,19.16,1.46,15.68-11.73,17.25-19.49,24.05-2.76,2.42-6.31,3.86-7.26,8.02-.76,3.29-3.13,3.24-5.45,1.62-8.95-6.23-19.15-2.13-28.68-3.54-2.01-.3-4.42-.06-5.14,2.24-.93,2.97,1.51,3.97,3.68,5.11,2.85,1.5,6.81,1.19,8.4,4.88Z"/>
</svg>