<?xml version="1.0" encoding="UTF-8"?>
<svg id="a" data-name="—ÎÓÈ_1" xmlns="http://www.w3.org/2000/svg" viewBox="0 0 1096.45 1096.45">
  <path d="M451.93,490.47c-3.66-1.19-5.47-1.78-8.27-2.7-5.05,12.18-16.55,10.63-27.2,11.43-3.83,7.84-9.37,12.99-18.66,12.8-7.25-.15-5.37,7.57-11.01,12.93-.93-1.93-1.85-3.85-2.76-5.74-4.11,5.59-8.39,11.41-13.57,18.47-3.92-8.48.75-13.36,3.45-20.81-2.69,1.98-4.33,3.96-5.12,3.66-9.09-3.4-12.05,4.44-16.94,8.82-3.3,2.95-6.85,5.62-11.73,9.6-.98-11.44,1.96-22.03-8.43-27.93-4.41,2.38-8.84,4.79-13.28,7.19l-2.03-1.84c1.27-3.36,2.54-6.72,3.92-10.39-3.21-5.35-7.93-5.37-15.77.34,7.02-15.07,2.46-25.62-4.73-37.43,10.13-1.5,19.22-2.92,28.01-1.57,11.8,1.81,20.9-1.39,29.97-8.91,8.62-7.15,18.21-13.66,28.36-18.26,8.81-3.99,18.97-5.17,28.62-7.13,19.89-4.05,39.73-8.41,57.14-19.39,10.98-6.92,15.63-19.19,21.98-29.83.97-1.62-.17-6.59-1.23-6.9-2.43-.7-6.09-.36-8.05,1.14-6.08,4.66-11.59,10.06-16.69,14.61-4.21-3.68-7.92-9.36-10.89-8.99-5.16.64-9.98,4.83-14.69,7.9-1.84,1.2-3.01,3.41-5.08,5.86-5.3-4.75-11.53-8.07-6.68-19.08-10.03,9.16-17.69,16.15-25.37,23.16-5.08-6.98-5.2-7.66-4.03-20.47-4.11,9.87-14.14,10.85-22.04,14.16-7.68,3.22-11.78,14.01-23.39,11.46,2-5.59,3.65-10.18,5.69-15.85-4.05.63-7.32,1.14-10.93,1.71-.27-1.41-.85-2.54-.62-3.48,1.76-6.97,5.18-12.82,11.13-17.22,3.74-2.77,7.33-5.89,10.45-9.34,14.98-16.55,33.64-25.49,55.52-29.38,11.01-1.95,21.77-6.05,32.17-10.31,5.92-2.42,11.69-6.37,16.14-10.97,11.56-11.95,24.74-22.79,30.88-39.07.98-2.61,1.78-5.29,2.66-7.93-.68-.35-1.36-.7-2.05-1.05-2.16,2.8-4.32,5.61-6.45,8.37-10.18,2.37-9.07-8.08-13.03-11.95-5.57,4.1-10.71,7.88-17.05,12.55-3.91-5.7-7-10.19-10.49-15.27-10.26-.16-17.05,9.53-26.73,13.64-5.16-5.04-5.44-9.46.06-13.89,1.21-.98,2.21-2.24,3.5-3.1,11.95-7.95,23.85-15.99,35.94-23.72,16.1-10.28,29.16-23.17,37.62-40.6,9.53-19.64,19.93-38.86,29.22-58.6,3.77-8,6.02-16.81,8.22-25.44,4.23-16.54,7.93-33.21,11.71-49.23,11.45-1.97,12.91-1.42,16.09,7.62,5.68,16.16,11.36,32.34,16.42,48.7,9.31,30.1,24.99,57.02,41.23,83.62,11,18.02,27.27,30.87,45.16,41.59,7.88,4.73,13.95,10.96,19.93,19.47-5.11,3.91-9.74,7.86-14.86,11.04-1.18.74-4.01-1.18-5.89-1.81-1.09,4.37-2.19,8.79-3.63,14.61-9.42-7.11-17.19-12.98-25.9-19.55-.36,4.4-.62,7.6-.92,11.26-14.21.21-17.65-15.29-28.91-17.95-3.27,2.74-6.56,5.49-11.11,9.29,11.59,12.77,22.83,27.8,36.73,39.72,13.45,11.53,29.56,20.13,46.67,25.78,4.54,1.5,9.95.16,14.92.59,13.58,1.16,27.17,2.39,40.7,4.01,2.85.34,6.14,1.84,8.11,3.89,10.27,10.67,20.27,21.6,30.14,32.64,2.46,2.75,4.8,6.1,2.38,11.2-6.06-3.39-11.69-6.53-17.51-9.78-1.8,7.52-2.74,13.69-4.88,19.41-1.03,2.76-4.18,4.26-7.81,2.02-2.51-1.56-5.56-2.26-9.62-3.82-2,5.46-4.63,10.24-5.38,15.3-.97,6.55-4.99,8.9-10.88,11.2-.65-3.61-1.19-6.58-2.05-11.35-3.48,4.66-6.27,8.39-9.14,12.23-1.73-.32-3.79-.7-5.86-1.09-.27.71-.53,1.42-.8,2.13,13.79,7.03,27.45,14.32,41.4,21,9.45,4.52,20.66,6.44,28.68,12.63,13.67,10.55,30.72,18.58,35.52,37.73-4.49,15.5-17.05,24.54-29.72,33.4-.49.34-2.47-1.43-3.36-1.98-1.77,3.27-3.55,6.57-5.44,10.07-4.24-2.48-7.55-5.66-11.21-6.13-2.64-.34-5.73,2.95-8.68,4.65,1.81,4.43,3.63,8.86,6.07,14.81q-11.21-5.2-15.92-15.07c-1.94.34-4.04.71-6.96,1.22-1.63-4.67-2.23-10.19-5.18-13.75-2.73-3.29-7.99-4.49-12.28-6.69.51,5.21,1.1,11.15,1.74,17.62-8.86-.42-7.15-8.9-11.56-12.52-.56,3.04-1.08,5.83-1.63,8.79,5.35,4.06,10.58,8.1,15.89,12.03,9.81,7.27,21.83,8.32,33.1,10.12,21.77,3.48,42.32,10.41,62.36,19,12.32,5.29,21.83,14.18,27.3,26.8.6,1.39,1.74,3.47,1.2,4.29-7.35,11.18,1.66,21.05,2.42,31.54.4,5.54,2.01,10.99,1.03,17.44-1.58-1.34-3.16-2.69-4.86-4.13-.15,3.29-.3,6.56-.44,9.83-.7.28-1.41.56-2.11.84-2.07-3.62-4.15-7.24-7.47-13.04v18.65c-8.55-4.82-5.92-13.36-10.48-20.17v13.05c-9.92-5.63-5.06-16.28-11.34-25.02.53,6.11.72,9.73,1.18,13.32.44,3.49,1.14,6.94.39,10.75-7.3-7.02-4.91-17.86-11.5-27.51-1.79,13.94,6.6,24.57,4.69,39.2-3.81-4.08-5.65-6.04-7.4-7.92-.64.99-1.6,2.45-2.77,4.25-10.45-5.89-9.35-17.35-14.78-26.16v32.94c-2.99-3.61-4.73-5.73-6.48-7.84-.33.16-.65.31-.98.47,2.09,6.39,4.18,12.78,6.86,20.96-6.54-1.45-10.48-1.45-11.72-7.79-.83-4.25-4.3-7.99-8.19-11.31.34,1.7.71,3.39,1.01,5.1.24,1.39.39,2.81.64,4.64-6.67.99-5.69-6.22-10.42-7.42.45,3.49.91,7.05,1.38,10.61-.89.64-1.78,1.29-2.67,1.93-2.06-3.73-4.11-7.45-5.98-10.83-4.22,2.21-6.59,3.45-9.53,4.99-7.36-5.42-14.85-10.93-22.34-16.45-.46.64-.93,1.27-1.39,1.91,13.7,15.35,28.52,30.05,47.65,38,18.9,7.86,34.81,19.15,48.56,33.62,8.73,9.2,15.91,19.87,24.24,30.45-6.59,5.5-4.49,10.65-2.02,16.22,3.27,7.38,6.79,14.9,4.4,24.35-11.05-3.48-13.84-12.55-17.95-21.39.71,5.16,1.29,10.34,2.18,15.47.46,2.67,1.84,5.21,2.11,7.88.42,4.14,1.41,9.25-4.3,10.5-4.99,1.1-6.53-3.13-7.77-6.97-1.54-4.79-3.02-9.61-4.51-14.36q-6.6.63-12.34-8.73v12.02c-.84.32-1.67.64-2.51.96-2.27-3.62-4.54-7.25-6.87-10.96.28,4.48.57,9.26.91,14.87-8.1-2.5-11.61-7.05-13.42-14.04-2.75-10.65-6.43-21.07-10.98-31.55-4.74,12.72-1.82,27.05-8.79,38.91-8.3-.74-12.37-4.71-13.63-11.63-1.8-9.97-3.46-19.97-5.19-29.95-6.11,1.46-7.29,6.87-9.63,11.72-2.27,4.71-5.68,8.87-9.55,14.73-9.74-12.58-10.5-26.87-15.24-41.64-4.18,4.46-7.42,7.92-10.19,10.88,7.52,13.87,14.93,27,21.82,40.4,5.49,10.69,10.56,21.61,15.39,32.62,2,4.55,2.34,9.85,4.42,14.35,3.09,6.72-4.65,10.58-3.61,16.53-1.82-.17-3.65-.34-5.96-.55-1.75,4.24,5.31,9.37.73,15.48-6.51-8.44-16.52-13.81-15.64-25.98.03-.38.03-.96-.2-1.13-12.87-9.74-8-25.09-11.93-37.65-.8-2.55-1.47-5.14-2.99-7.66-.52,16.29,4.54,32.55.33,49.83-1.88-.8-3.32-1.41-5.12-2.18-.43,1.82-1.04,4.34-1.77,7.43-1.71-1.03-3.17-1.39-3.48-2.19-1.64-4.33-3.23-8.7-4.4-13.17-2.14-8.22-4.35-16.28-10.15-22.94-2.47-2.83-4.08-6.41-6.03-9.58-3.07,5.99,4.03,13.09-2.12,20.48-10.06-17.29-8.73-36.92-17.21-53.56,2.49,13.52,4.98,27.04,7.66,41.58-7.93-1.73-5.75-8.83-10.28-12.75,0,6.71.19,12.41-.07,18.09-.16,3.44-1.85,5.19-5.36,2.76-.67,3.46-1.36,6.97-2.57,13.22-7.91-8.73-7.71-17.87-10.16-25.87-2.47-8.06-2.7-16.47-6.64-24.51-3.68-7.52-3.44-16.96-6.85-25.73-.25,5.11-.54,10.21-.75,15.32-.43,10.45-5.42,15.49-16.84,15.51-5.15-17.4-10.43-35.2-16-54.01-.75,2.34-1.71,4.12-1.86,5.97-3.13,37.27-6.33,74.53-9.18,111.82-2.03,26.51-1.11,53.01,1.97,79.4,2.72,23.28,4.82,46.55,3,70.02-.36,4.66-1.05,9.6.06,14,3.22,12.79-3.23,23.36-6.83,34.62-2.01,6.3-6.36,9.28-13,9.8-7.69.6-15.32,2.09-23.01,2.73-3.82.32-7.73-.55-11.61-.62-6.17-.12-12.38-.44-18.51.09-8.3.71-15.78-6.67-14.38-15.22,5.53-33.79,11.01-67.59,16.86-101.33,6.6-38.07,10.85-76.36,12.28-114.99.43-11.67,2.57-23.28,3.07-34.95.82-18.98.93-37.99,1.38-56.98.06-2.64.31-5.27.49-8.22-4.85,12.16-8.44,24.4-14.44,35.32-5.69,10.36-7.61,23.84-21.36,28.74-1.79-1.56-4.3-3.75-7.99-6.96-.87,5.29-1.71,9.39-2.18,13.52-.71,6.19-1.58,12.41-1.6,18.62-.01,6.03-3.04,9.52-6.92,13.81-6.13,6.79-15.1,12.5-13.13,24.37.62,3.75-2.2,8.07-3.34,11.82-7.52,3.11-8.42-3.47-11.33-7.9-7.29,9.8.99,23.53-9.22,31.41-12.95-6.47-9.07-19.66-11.37-30.26-.82.07-1.64.13-2.46.2-1.63,3.72-3.25,7.44-4.88,11.16-3.47-.15-6.93-.31-11.03-.49v-10.29c-10.26.88-5.5,13.49-13.99,16.09-5.65-9.72-.18-20.72-4.68-33.56-5.24,15.07-8.06,28.64-18.14,38.97-6.41-5.14,1.06-11.85-2.33-17.68-9.52.3-5.24,13.47-14.05,15.01-7.43-5.24-4.67-12.48-2.71-19.38,1.89-6.67,4.2-13.23,5.53-20.32-9.07,7.74-15.04,17.7-20.55,28-5.19,9.72-5.15,9.74-16.31,11.91,1.06-11.97,9.88-20.04,14.02-30.78-7.81.53-14.15,1.17-20.05,8.2-6.16,7.33-15.54,11.96-24.65,18.6v-12.88c-2.07-1.08-4.07-2.11-6.34-3.29.4-1.64.49-3.26,1.16-4.57,7.56-14.61,19.85-24.79,32.43-34.78,15.63-12.42,33.34-21.31,50.32-31.52,23.24-13.98,47.71-26.48,67.85-45.34,12.05-11.29,19.98-22.1,28.22-41.41-8.78,8.99-17.73,12-28.32,7.35-8.3,14.58-21.42,22.14-36.95,29.01.66-3.09,1.01-4.73,1.71-8.03-7.78,8.92-14.59,16.75-21.41,24.57-.76-.54-1.52-1.09-2.28-1.63,1.7-3.36,3.41-6.71,5.11-10.07-.3-.24-.6-.48-.89-.72-3.44,3.08-6.89,6.16-10.33,9.24-.59-.44-1.19-.87-1.78-1.31.83-2.34,1.66-4.69,2.78-7.83-6.26,3.71-11.38,6.8-16.56,9.79-5.06,2.92-6.7,10.55-15.53,9.21,3.86-4.91,7.72-9.82,11.58-14.73-.22-.33-.44-.66-.65-.98-1.73,1.5-3.55,2.93-5.19,4.53q-6.53,6.36-16.1,1.74c-4.08,5.51-8.21,11.08-12.51,16.89-3.6-.41-6.89-.78-10.75-1.21.65-2.05,1.21-3.8,1.89-5.92-1.89-1.03-3.83-2.09-6.19-3.38-2.87,3.6-5.96,7.05-8.55,10.83-3.55,5.19-7.56,4.33-12.96.89,2.24-4.4,4.55-8.94,6.86-13.47-.44-.3-.89-.61-1.33-.91-5.98,7.03-11.96,14.07-17.93,21.1-2.77-10.25,5.83-14.89,8.24-23.19-12.06.33-11.93,16.15-24.06,17.83-2.02-11.93,11.91-17.8,8.65-29.86-2.36-.93-6.47-2.54-11.21-4.39,1.73-2.92,3.42-5.75,5-8.42-2.16-1.23-4.05-2.3-6.84-3.88,3.3-3.56,5.86-6.35,8.45-9.11,1.87-1.99,4.85-3.65,5.49-5.96,4.65-16.77,19.77-22.36,32.48-29.85,9.23-5.44,20.08-8.14,30.24-12,1.82-.69,3.9-.77,5.61-1.61,14.81-7.29,30.85-9.94,46.86-12.75,1.91-.33,4.01-.68,5.56-1.71,19.73-13.06,39.76-25.76,54.55-44.86,4.03-5.21,8.34-10.21,11.79-17.02-2.11.61-4.94.55-6.22,1.93-6.3,6.77-6.23,6.71-18.24,11.59-2,.81-2.64,4.49-4.51,6.16-3.74,3.33-5.25.79-6.08-3.51-5.35,4.64-10.46,9.09-15.59,13.52-.88.76-2.23,2.3-2.64,2.09-8.39-4.33-10.53,5.59-16.94,7.68-1.57-3.13-3.02-6-4.9-9.76-5.15,2.89-10.15,5.77-15.21,8.53-3.93,2.14-8.09,3.91-11.88,6.28-2.42,1.51-4.75,3.52-6.41,5.81-2.36,3.26-4.07,6.99-5.82,10.11-5.91-1.4,2.91-11.06-6.69-7.8.46-7.49.88-14.34,1.29-21.2-6.51,7.7-16.05,2.98-23.33,6.86-5.05,2.69-3.36-3.88-4.83-8.28-4.06,2.78-7.75,5.17-11.3,7.76-5.01,3.66-9.72,4.66-14.67-1.64,3.4-3.74,6.87-7.57,10.91-12.02-4.83.48-8.56.91-12.29,1.15-.61.04-1.27-.8-2.57-1.68.92-1.84,1.53-4.06,2.9-5.62,9.46-10.8,19.62-21.09,33.83-25.12,17.84-5.06,32.77-15.77,49.06-23.8,15.37-7.58,30.73-15.28,45.59-23.8,12.1-6.94,23.47-15.15,35.12-22.85,5.19-3.42,10.35-6.88,15.4-10.5,2.44-1.75,4.6-3.9,8.14-6.95ZM696.84,497.73c-7.18-2.52-11.95-4.2-16.93-5.94-2.45,5.78-.82,9.55,3.59,12.46,8.23,5.43,16.47,10.86,24.7,16.3.37-.34.75-.69,1.12-1.03-4.53-7.9-9.05-15.8-12.48-21.79Z"/>
</svg>