<?xml version="1.0" encoding="UTF-8"?>
<svg id="a" data-name="Layer 1" xmlns="http://www.w3.org/2000/svg" viewBox="0 0 407.2 361.82">
  <path class="b" d="M394.21,241.76c-.97,0-1.96.06-2.93.03-1.71-.05-3.21-.91-4.85-1.38-4.41-1.27-8.26-3.54-12.52-5.12-1.63-.6-3.33-1.33-4.8-2.25-1.15-.72-2.16-1.72-3.34-2.43-2.79-1.68-5.14-3.69-7.49-5.88-1.45-1.34-2.95-3.28-3.68-5.15-.67-1.71-1.02-3.16-1.43-4.92-.35-1.51-.28-3.01-.27-4.56.01-1.79-.42-2.95-1.07-4.61-1.25-3.19-2.74-6.37-3.82-9.61-.49-1.46-.64-2.95-.94-4.49-.4-2.05-.37-4.07-.72-6.09-.49-2.77-1.14-5.49-1.44-8.3-.24-2.25-.05-4.61-.05-6.87s-.01-4.48,0-6.72c0-1.3-.01-2.49-.27-3.76s-.12-2.42-.39-3.61c-.31-1.37-1.2-2.65-1.88-3.88-.57-1.02-2.61-3.09-2.29-4.29s-.69-1.72-1.07-2.63c-.61-1.43-1.04-2.92-1.74-4.35-1.17-2.37-2.53-4.41-3.49-6.86-1.23-3.15-3.74-5.7-5.2-8.72-1.36-2.82-2.78-5.62-3.83-8.56-.88-2.45-2.49-3.99-4.1-5.88-3.3-3.88-2.87-9.4-3.77-14.06-.58-3.03-1.36-6.01-2.16-9.05-.66-2.51-1.06-4.3-4.09-3.66.04,1.14.49,2.21.48,3.42,0,.98,0,1.96,0,2.95,0,.86.14,1.85.01,2.69-.18,1.19-.52.98-1.5,1.55-.46-2.54-1.38-5.16-2-7.67-.36-1.46-.51-3.06-.92-4.5s-1.15-2.65-1.64-3.98c-.51-1.41-.78-2.62-1.46-3.97-.58-1.14-1.15-2.29-1.74-3.43-.86-1.67-3.85-2.61-5.71-2.05-.65,1.94,1.71,3.73,2.04,5.55.35,1.93.05,4.2.05,6.17.32-2.21-1.61-3.99-2.68-5.68-1.13-1.79-2.4-3.34-3.64-5.05s-2.8-3.4-4.16-5.14c-.66-.85-.8-1.95-1.46-2.8-.37-.48-.92-.85-1.33-1.3-.97-1.07-1.95-2.02-3.25-2.71-.75-.4-3.37-2.58-3.38-.66,0,1.23,1.73,2.8,2.18,4.01.61,1.69,2.16,3.75,1.57,5.75-1.66.87-2.73-2-3.3-3.07-.69-1.3-1.39-1.75-2.54-2.62-.83-.62-1.24-1.53-1.85-2.32-1.02-1.33-2.35-2.03-3.57-3.11-.97-.86-1.87-1.66-2.91-2.41-.93-.67-1.84-.96-2.83-1.46s-1.96-1.51-2.92-1.92c-.56-.24-2.59-.93-3.14-.68-1.35.62.29,1.82.57,2.72-4.45-.4-4.86-6.36-8.85-7.46-.75-.21-1.64-.49-2.41-.61-.46-.07-.88.09-1.34-.01-.38-.08-.97-.66-1.38-.56-1.66.42,1.5,2.26,1.01,3.23-.58-.14-1.19-1.11-1.78-1.56-.75-.57-1.57-1.02-2.41-1.45s-1.7-.94-2.58-1.37c-.97-.47-2.02-.6-3.06-.99-2.11-.8-4.9-1.09-7.27-1.75-1.89-.53-2.95-1.86-4.5-3.03-1.05-.79-2.25-1.89-3.5-2.16-.43-.09-.89.08-1.33-.02-.3-.07-.32-.37-.62-.44-1.22-.28-2.53-.36-3.77-.72-2.79-.82-5.12-3.66-7.51-5.16l.32.47c-2.89-.02-5.46-1.26-8.32-2.11-3.35-.99-5.98-3.33-9.1-4.33-1.04-.34-2.16-.46-3.2-.78-1.99-.62-3.92-1.57-5.96-2.04-3.52-.83-7.14-1.77-10.74-2.02-3.13-.22-6.25-.73-9.37-1.05-4.01-.41-7.85-1.62-11.96-1.61-1.57,0-3.13-.02-4.7,0-1.9.02-3.64-.56-5.56-.54-1.48.01-3.17-.23-4.62.05-1.82.35-3.48,1.31-5.24,1.86s-3.48.47-5.2.82c-1.36.28-2.4,1.01-3.49,1.83-2.16,1.64-4.93,3.49-5.9,6.17-.39,1.07-.7,2.49-1.19,3.53-1.75,3.76-3.52,8.31-4.13,12.46-.33,2.3-1.16,4.42-1.66,6.71-.37,1.68-.61,3.29-1.02,4.92-1.03,4.04-1.36,8.49-2.73,12.46-.43,1.24-.36,2.32-.52,3.56s-.63,2.32-.84,3.51c-.5,2.93-1.13,5.81-1.6,8.75-.91,5.72-.93,11.52-1.71,17.28-.84,6.18-3.2,12.3-3.38,18.54-.09,3.29-.55,6.47-.54,9.8s-.07,6.4-.8,9.55c-.42,1.77-.5,3.63-.92,5.37-.52,2.14-.42,4.28-.42,6.56,0,4-.25,8.1-.01,12.1.14,2.46,1.71,4.06,3.23,6.01-1.03-.02-1.75.08-2.68-.38-1.17-.57-1.68-1.57-2.68-2.33-2.24-1.72-4.78-3.49-6.72-5.6-2.2-2.39-3.99-5.11-6.16-7.5-.99-1.1-1.61-2.4-2.63-3.49-.83-.89-1.76-1.72-2.62-2.58-1.93-1.93-3.71-3.88-5.48-5.91-1.17-1.34-2.52-2.56-3.76-3.88s-2.31-2.73-3.53-3.96c-1.07-1.07-2.37-1.91-3.45-3.01-1.01-1.03-1.89-1.79-3.07-2.54l-1.96-1.85c-1.56-1.42-3.16-2.8-4.8-4.13-1.09-.89-1.67-1.61-2.51-2.64-.57-.7-1.26-1.29-1.98-1.84-1.55-1.18-3.22-1.92-4.98-2.7-1.04-.46-2.17-.67-3.24-1.07-.71-.27-1.91-.92-2.67-.96-1.27-.07-1.08.55-1.06,1.65.02.98,0,1.95,0,2.93,0,2.24.54,4.08.54,6.3,0,4.51-1.23,8.71-2.71,12.97-.95,2.73-.5,5.94-.51,8.83-.01,3.45,1.17,6.32,2.03,9.65.69,2.7,1.98,5.5,2.29,8.29s.07,6.01-.01,8.86c-.03,1.09-.24,1.99-.43,3.06-.22,1.23,0,2.44-.24,3.68-.33,1.75-.71,3.39-1.49,5-.69,1.41-1.45,2.89-1.64,4.48-.1.84.05,1.66-.08,2.51-.19,1.27-.67,2.53-.85,3.82-.39,2.82-1.28,5.39-2.02,8.15-.99,3.72-1.16,7.39-2.26,11.09-1.64,5.5-3.9,10.75-4.85,16.42-.31,1.86-.11,3.88-.11,5.76.96.83,2.24,2.08,3.44,2.44,1.32.39,1.71.13,2.88-.44.67-.33,1.39-.47,2.16-.73,2.78-.95,5.85-2.46,8.43-3.87,1.53-.84,2.97-1.9,4.53-2.76,2.27-1.25,4.66-2.31,6.89-3.61,1.77-1.03,3.21-2.42,5.05-3.38,1.96-1.02,4.07-1.77,6.1-2.66,2.9-1.26,5.68-2.88,8.45-4.39s5.63-4.01,8.7-5,6.07-1.76,8.83-3.1c.94-.45,1.62-.91,2.67-.95.59-.02.93,0,1.49-.11.46-.09.43-.65,1.19-.42-1.56.03-3.35,2.17-4.42,3.31-1.51,1.61-2.62,3.73-3.9,5.55-2.43,3.44-4.41,7.06-5.63,11.12-.88,2.94-2.11,5.73-3.17,8.61s-2.02,5.98-3.31,8.89c-.49,1.09-.52,2.21-1.12,3.27-.92,1.6-1.56,2.87-2.07,4.72-.99,3.63-2.45,7.16-3.38,10.79-1.78,6.94-2.91,14.02-4.45,21.02-1.16,5.29-1.89,10.51-.8,15.91.71,3.54,1.82,6.52,4.06,9.3,1.52,1.88,3.18,2.16,5.16,3.21,1.17.62,2.05,1.6,3.21,2.16.99.48,1.44.65,2.12,1.6,1.01,1.41,3.36,1.42,4.81,2.4s2.72,1.28,4.31,1.89,3.14.92,4.71,1.49c2.2.8,4.64,1.26,6.95,1.62,1.96.3,4.04.11,6.03.11.8,0,1.6,0,2.4,0,2.94,0,6.42.6,9.28-.05,1.97-.44,3.94-.57,5.92-1.03,1.52-.36,2.93-1.12,4.41-1.5,4.21-1.1,8.14-.14,12.44-.09s8.53-.4,12.95-1.2c3.94-.72,8.29-2.08,11.92-3.77,3.26-1.52,6.95-2.62,9.91-4.69,1.77-1.24,3.5-3.35,5.32-4.69,2.16-1.59,4.86-2.78,6.9-4.56,2.95-2.58,6.47-4.09,10.34-4.7,1.12-.18,1.96-.71,3.04-.96,1.15-.26,2.3-.01,3.47-.23,2.11-.39,4.07-.42,6.21-.42h8.7c-.49.09-.6.42-.99.74-.81.67-2.04,1.24-2.75,1.99-.52.55-.43.96-.86,1.5-.37.46-.82.75-1.24,1.19-.99,1.01-1.76,2.2-2.79,3.21-1.62,1.6-3.21,3.22-4.83,4.81-1.06,1.04-1.79,2.24-2.76,3.34-1.07,1.21-2.37,2.04-3.59,3.07-1.97,1.67-3.62,3.71-5.49,5.48-2.13,2.01-5.36,3.91-8.11,4.85-2.2.75-4.39.85-6.58,1.51-1.3.39-2.35,1.22-3.76,1.46-1.01.17-1.93.31-2.92.53-1.8.4-3.5.66-5.36.65,2.48,0,5.12-.28,7.58.05,1.39.18,2.61.5,4.03.49,2.71-.03,5.41,0,8.12,0,2.85,0,5.27-.48,7.94-1.29,1.44-.44,3.03-.56,4.51-.92,1.25-.3,2.53-.77,3.77-1.14,3.94-1.19,8.05-2.79,12.06-3.58,3.43-.67,7.9,1.04,11-.58.22,1.38-1.28,3.64-1.76,4.95-.78,2.12-1.39,4.27-2.38,6.33-.51,1.06-1.16,1.78-1.24,3s-.37,2.24-.55,3.45c-.24,1.62-.4,3.21-.91,4.8-.55,1.73-1.38,3.02-2.29,4.57-1.34,2.27-2.86,2.85-5.33,3.75-2.63.97-5.26.5-7.82,1.34-1.47.48-2.7,1.15-4,2.15,2.23,0,4.46-.02,6.68.01,4.01.05,7.79-1.46,11.6-2.57,1.89-.55,3.79-1.15,5.71-1.6,1.17-.27,2.32-.44,3.49-.78s1.98-1.04,3.07-1.39c4.77-1.51,9.3-3.23,13.38-6.12,1.92-1.36,4.04-1.95,5.97-3.12,2.08-1.26,3.89-2.71,5.77-4.29.99-.83,1.81-1.99,2.84-2.75.75-.55,1.51-.81,2.14-1.55,1.4-1.64,2.6-3.49,3.73-5.34,1.42-2.32,3.02-4.86,4.03-7.39s2.41-4.41,3.5-6.72c.88-1.88,1.55-3.83,2.49-5.68,1.04-2.04,2.18-4.32,2.75-6.53s.77-4.46,1.71-6.43c2.23,0,4.46,0,6.69,0,.72,0,1.72.18,2.42.04,1.24-.25,2.45-1.24,3.51-1.92,4.88-3.14,9.49-6.79,14.72-9.4,3.82-1.9,7.56-3.71,11.16-6.02,1.45-.93,2.86-1.89,4.42-2.68.93-.48.68-.63,1.18-1.36.3-.44.97-1.08,1.49-1.19,1.36-.31,2.42.11,3.71-.47,3.48-1.56,6.89-3.3,10.33-4.95,2.53-1.21,5.08-1.62,7.63-2.63s5.64-2.21,8.43-2.82c2.35-.51,4.81-1.31,7.2-1.49,1.12-.09,1.86-.12,2.92-.4.89-.23,1.74.04,2.63-.08,1.09-.14,2.03-.8,3.11-1.02s2.24-.11,3.34-.1c2.89.03,6.35-.56,9.17-.02,1.09.21,1.76.58,2.92.56,1.36-.01,2.71,0,4.07,0,.88,0,1.77.01,2.65,0,.59,0,.94,0,1.49.12.46.1.43.65,1.19.42,1.4-.43,2.47-.53,3.73-1.07.73-.32,1.49-.54,2.2-.94.17-.1,1.44-.7,1.49-.76,1.27-1.73-1.67-2.25-2.59-2.72-1.33-.68-2.64-1.1-3.87-1.88-.73-.46-3.3-1.66-1.53-2.74.89-.54,3.29-.08,4.33-.08.77,0,3.68.45,4.21-.08.74-.74-1.19-4.59-1.53-5.28Z"/>
</svg>
