<?xml version="1.0" encoding="UTF-8"?>
<svg id="a" data-name="Layer 1" xmlns="http://www.w3.org/2000/svg" viewBox="0 0 138.72 138.72">
  <path d="M89.72,116.53c.87,1.68,1.3,3.57,1.3,5.65,0,1.78-.37,3.03-1.11,3.74s-2.18,1.07-4.32,1.07h-36.67c-.87-2.14-1.3-4.15-1.3-6.04,0-1.58.36-2.71,1.07-3.4s1.86-1.03,3.44-1.03h6.26c.25-6.52.38-13.47.38-20.86,0-11.26-.09-18.73-.27-22.42s-.57-6.39-1.18-8.1-1.55-2.78-2.83-3.21-3.13-.65-5.58-.65c-.87-1.43-1.3-3.08-1.3-4.97,0-2.85,1.17-4.61,3.51-5.27s7.1-.99,14.29-.99c5.4,0,9.08.2,11.04.61s3.08,1.21,3.36,2.41.42,2.86.42,5v37.59c.05,7.38.2,14.34.46,20.86h9.01ZM56.79,30.98c-2.04-1.76-3.06-4.24-3.06-7.45s1.3-6.12,3.9-8.29,6.29-3.25,11.08-3.25,8.35.93,10.39,2.79,3.06,4.29,3.06,7.3c0,3.31-1.22,6.06-3.67,8.25s-6.37,3.28-11.76,3.28c-4.58,0-7.89-.88-9.93-2.64Z"/>
</svg>
