<?xml version="1.0" encoding="UTF-8"?>
<svg id="a" data-name="Layer 1" xmlns="http://www.w3.org/2000/svg" viewBox="0 0 105.68 96.5">
  <defs>
    <style>
      .b {
        fill: #fff;
        stroke: #fff;
        stroke-miterlimit: 10;
        stroke-width: .25px;
      }
    </style>
  </defs>
  <path class="b" d="M94.32,12.53c-.35.05-.66.26-.96.43-.29.17-.57.35-.83.56-.28.23-.37.59-.59.87-.2.26-.4.47-.72.42-.08-.01-.14-.07-.23-.07-.1,0-.22.04-.31.05-.23.03-.29.13-.46.28-.16.14-.31.28-.45.43-.2.21-.42.4-.6.62-.16.2-.27.44-.39.66-.06.1-.08.2-.17.26-.08.05-.2.09-.29.08-.03-.21-.41.02-.51.07-.22.1-.38.21-.54.38-.26.28-.4.6-.53.95-.07.2-.16.41-.22.62-.04.17,0,.32.02.49-.05.02-.1.09-.13.14-.07.12-.08.13-.2.2-.24.12-.49.25-.73.37-.22.11-.38.39-.45.63-.09.31-.01.66-.12.98-.03.08-.05.19-.11.24-.11.09-.29.09-.41.15-.28.13-.57.34-.67.63-.13.36-.2.76-.24,1.15-.02.2.05.39.05.59,0,.13-.15.22-.11.36-.06,0-.19.08-.25.11-.08.03-.18.09-.25.15-.2.19-.23.44-.29.69-.07.32-.11.62-.13.94,0,.11-.03.21-.04.31,0,.1.05.26.02.35-.09.22-.4.07-.52.26-.1.16-.14.36-.2.54-.05.17-.16.31-.24.47-.12.22-.19.47-.27.71-.01.04-.01.11-.05.14-.05.05-.15.06-.21.1-.1.07-.15.16-.22.26-.05.07-.1.21-.17.25-.29.15-.46-.51-.49-.67-.05.1-.32.12-.42.19-.2.13-.38.32-.57.47-.45.36-.92.72-1.13,1.27-.03.08-.06.16-.11.24-.05.07-.04.07-.11.08-.04,0-.14,0-.2,0-.07.01-.15.02-.22.04-.18.03-.33.1-.51.14-.17.03-.34,0-.51.03-1.39.2-1.76-1.73-2.66-2.37-.16-.11-.34-.21-.49-.33-.09-.08-.15-.23-.24-.28-.05-.03-.12-.01-.18-.02-.12-.01-.24-.08-.37-.09-.13,0-.26.04-.39.06-.09-.12-.15-.19-.31-.24-.13-.04-.35,0-.48.04-.14.05-.3.18-.39.29-.14.17-.31.28-.47.44-.1.1-.19.19-.3.27-.44.31-.92.56-1.35.9-.33.26-.64.55-.97.8-.37.28-.77.51-1.14.79-.5.38-.91.98-1.28,1.49-.15.02-.24.03-.39-.03-.15-.06-.22-.09-.4-.12-.39-.05-.77-.1-1.13-.25-.11-.05-.22-.12-.34-.15-.18-.05-.4-.05-.58-.07-.38-.02-.79-.03-1.17.03-.7.11-1.35.39-2.05.5-.48.08-1.03.12-1.49.29-.05.02-.13.12-.16.17-.13.18-.2.49-.28.68-.12.29-.19.58-.36.85-.16.25-.3.54-.48.78-.09.12-.31.24-.44.1-.11-.12-.06-.38-.06-.54,0-.25.01-.51.02-.76,0-.28,0-.59.07-.85.05-.17.05-.33.1-.49.1-.32.18-.66.32-.96.14-.3.31-.6.38-.92.09-.39.1-.78.18-1.17.12-.62.19-1.25.2-1.89,0-.43-.02-.87-.04-1.3-.02-.41-.03-.87-.1-1.27,0-.23.1-.46.1-.69,0-.26-.07-.55-.16-.79-.04-.1-.18-.3-.13-.43.04-.11.34-.2.45-.23.4-.12.77-.38,1.16-.53.23-.08.59-.1.76-.27.12-.12.17-.24.32-.33,0-.28-.37-.3-.41-.52-.02-.08.05-.16.09-.21.07-.12.13-.24.22-.35.16-.21.27-.43.46-.62.17-.17.34-.33.51-.51.06-.07.09-.07.05-.17-.03-.07-.09-.14-.14-.2-.15-.17-.48-.27-.56-.5-.06-.18-.08-.49-.33-.52-.23-.03-.08.32-.06.43.02.14.05.15.12.25.03.04.07.09.05.15,0,.04-.07.09-.09.13-.06.11-.11.23-.16.35-.15.28-.3.61-.54.82-.07.06-.19.17-.3.17-.11,0-.19-.12-.27-.19-.12-.11-.22-.21-.31-.35-.05-.08-.11-.24-.2-.28-.22-.11-.41.22-.5.38-.06.12-.15.23-.19.36-.05.12-.07.23-.13.34-.15.3-.35.58-.52.87-.09.16-.21.3-.32.46-.03.04-.05.11-.09.15-.08.08-.24.08-.34.15-.11.07-.2.18-.31.25-.09.06-.17.11-.25.19-.05.05-.15.08-.19.14-.09.14.01.41.04.56.03,0,.05-.01.08-.02-.07.08-.05.19-.1.28-.05.09-.09.16-.12.25-.03.11-.04.22-.05.33-.02.17-.09.34-.12.5-.04.19-.05.36-.05.55,0,.14.04.28.03.42,0,.15-.04.3-.04.46,0,.08,0,.18,0,.26-.02.2-.13.39-.17.59-.04.17-.07.35-.16.5-.27.44-.23,1.07-.22,1.58,0,.3.05.58.1.88.02.12.02.26.07.37.01.03.02.05.04.07-.14-.15-.36-.25-.5-.35-.22-.16-.48-.19-.73-.29-.17-.06-.38-.19-.57-.18-.13,0-.32-.06-.45-.09-.17-.03-.34-.09-.5-.13-.34-.09-.64-.28-.98-.39-.41-.13-.82-.21-1.24-.28-.83-.16-1.66-.22-2.5-.29-.29-.03-.58-.08-.87-.1-.32-.02-.62-.07-.94-.12-.47-.09-.97-.04-1.45-.04-.52,0-1.06-.09-1.57-.18-.52-.09-1-.15-1.52-.09-.22.03-.44.01-.66.05-.21.04-.41.17-.62.16-.02,0-.03,0-.05,0-.03-.06-.01-.12-.04-.17-.08-.14-.24-.3-.35-.41-.2-.2-.36-.43-.53-.66-.14-.19-.32-.35-.5-.52-.26-.25-.52-.51-.79-.74-.27-.23-.59-.43-.88-.64-.24-.17-.47-.36-.74-.48-.24-.11-.44-.24-.66-.38-.09-.06-.18-.08-.26-.14-.1-.09-.07-.11-.2-.13-.32-.06-.72.08-1.04.13-.28-.15-.51-.15-.82-.15-.24,0-.43-.03-.67.01-.2.03-.38.06-.57.14-.34.14-.74.17-1.07.36-.17.09-.32.24-.49.33-.41.23-.85.4-1.2.71-.14.12-.3.26-.43.4-.14.15-.24.35-.37.51-.2.26-.42.52-.66.76-.23.23-.48.51-.75.69-.28.19-.58.32-.85.53-.2.16-.29.4-.49.55-.1.08-.17.13-.29.15-.16.02-.32.05-.48.08,0,.01,0,.02,0,.04-.18-.26-.41-.51-.62-.76-.23-.29-.4-.58-.54-.92-.14.03-.48.37-.59.26-.04-.04-.08-.15-.11-.2-.07-.1-.12-.2-.19-.29-.16-.22-.28-.47-.47-.67-.19-.2-.37-.36-.52-.58-.13-.19-.33-.31-.39-.53-.2-.03-.35.15-.51.23-.19.09-.31.05-.47-.06-.28-.19-.57-.38-.87-.54-.28-.15-.47-.43-.76-.54-.17-.07-.45-.07-.63-.07-.07,0-.13,0-.2.04-.13.06-.15.18-.23.3-.09.14-.18.3-.28.43-.08.1-.15.15-.19.28-.03.1,0,.21-.05.3.23-.08.45-.24.69-.29.2-.04.35-.04.55.02.15.05.3.13.45.19.18.07.35.12.53.16.23.06.39.07.37.34-.13.03-.23.18-.31.27-.14.16-.25.3-.42.42-.06.04-.21.13-.21.22,0,.15.44.16.54.18.34.08.69.15,1.02.27.22.09.43.23.66.28.22.05.43.08.64.15.15.05.36.14.51.08,0,.12-.15.11-.23.16-.14.07-.27.2-.4.28.02.11.18.22.26.32.06.08.12.15.19.22.17.18.29.33.33.57-.31.04-.49.2-.78.29-.19.06-.4.03-.59.1-.15.06-.27.16-.43.22-.39.16-.77.26-1.16.46-.29.15-.57.33-.85.48-.31.16-.69.36-1.02.48-.81.3-1.49.8-2.26,1.2-1.36.72-2.54,1.66-3.6,2.79-.79.84-1.29,1.96-1.8,2.99-.49.98-.76,1.96-1.1,2.99-.28.83-.31,1.84-.41,2.71-.08.7-.02,1.43.1,2.14.1.62.2,1.24.3,1.86.14.82.29,1.4.67,2.18.32.65.47,1.09.64,1.77.11.42.24.86.47,1.22.37.57.67,1.15,1.08,1.68.4.51.86.87,1.31,1.33.21.21.34.49.59.66.37.27.8.47,1.18.74.96.67,1.94,1.22,3.05,1.58.46.15.96.15,1.41.31.4.14.77.38,1.17.53,1,.37,1.94.71,2.99.87.62.09,1.26.24,1.88.38,1.05.23,2.29.39,3.37.31.71-.06,1.52.1,2.24.15,1.83.13,3.64-.77,5.47-.74.83.01,1.63-.12,2.47-.12.96,0,1.86-.14,2.8-.3,0-.01.15,0,.15,0,.05-.03.16-.04.21-.04.08,0,.08.01.09.1.04.29.09.56.04.85-.03.21-.1.3-.24.45-.1.11-.22.24-.26.38-.03.11,0,.23-.02.34-.01.08-.05.16-.06.25,0,.05,0,.11-.02.17-.04.2-.15.39-.23.59-.07.16-.12.34-.2.5-.06.12-.18.19-.29.25-.26.16-.62.19-.93.23-.49.06-.97-.08-1.45-.11-.16-.01-.31-.03-.47-.03-.15,0-.3.04-.44.07-.23.04-.46.07-.68.11-.06-.06-.18,0-.25,0-.15.03-.3.05-.45.06-.31.02-.61.04-.92.1-.31.05-.65.08-.97.07-.12,0-.23,0-.34-.03-.48-.12-.98-.18-1.47-.24-.39-.05-.76-.03-1.15.04-.35.06-.77.06-1.08.25-.2.13-.35.27-.45.49-.11.24-.15.48-.11.74-.18,0-.34.25-.43.37-.09.13-.19.24-.31.35-.17.16-.31.37-.44.57-.14.22-.31.41-.43.64-.17.31-.31.65-.17,1,.06.15.19.32.34.37.11.04.22.04.33.07-.01.06-.1.15-.15.19-.09.08-.18.17-.28.25-.23.2-.5.36-.73.57-.24.22-.43.49-.66.72-.13.13-.63.53-.45.77.06.07.19.14.27.2.05.03.12.07.18.08.14.02.26-.05.23.15-.02.16-.18.29-.29.4-.12.12-.22.25-.36.35-.14.1-.24.19-.34.33-.12.17-.26.34-.42.48-.1.08-.4.23-.35.4.04.13.2.28.3.37.16.14.5.43.71.27.09-.07.12-.2.16-.3.04-.1.12-.18.17-.27.12-.23.29-.4.44-.61.09-.13.17-.27.25-.41.1-.16.19-.32.29-.48.05-.05.08-.12.1-.18.06.02.15.03.2.05.14.04.28.08.42.12.05.01.11.02.16.03.07,0,.15-.09.19-.14.07-.08.12-.19.18-.27.19-.25.32-.51.4-.82.08-.29.08-.59.14-.89.04-.2.1-.38.07-.59,0-.05-.07-.23-.05-.28.03-.04.16-.05.21-.07.42-.16.53-.57.73-.93.24-.41.4-.81.44-1.28.01-.16.07-.32.05-.48,0-.06-.05-.12,0-.17.07-.06.41-.13.49-.14,0,.02.01.03.02.05.12.03.32-.04.43-.07.25-.08.49-.12.76-.17.33-.05.66-.14.99-.12.2,0,.49.04.66.14.13.07.21.16.35.21.18.06.37.12.55.16.6.13,1.17-.01,1.76-.11.12-.03.24-.01.36-.02.19,0,.38-.05.57-.08.39-.06.79-.13,1.18-.19.22-.04.4-.06.61-.15.29-.13.59-.19.88-.31.33-.15.66-.31,1-.44.55-.22,1.12-.54,1.59-.9.18-.14.32-.33.5-.48.08-.06.16-.11.24-.16.08-.07.16-.15.23-.24.09-.09.18-.17.29-.25.15-.15.28-.32.39-.5.23-.31.45-.6.65-.92.24-.38.39-.8.53-1.22.16-.48.57-1,.4-1.54l1.4-.23c.37-.06.74-.12,1.11-.21.28-.07.56-.13.83-.23.32-.13.6-.26.93-.35,1.12-.3,2.22-.63,3.24-1.21.5-.28.97-.64,1.44-.97.3-.21.71-.34,1.06-.44.05.28.07.56.17.82.08.2.08.44.12.65.03.19.06.38.1.58.02.12.02.22.02.34,0,.2.06.41.09.6.04.24.04.49.07.74.03.23.03.48.03.71,0,.23.07.47.1.7-.01,0-.03,0-.05,0-.07.03-.1.09-.15.14-.16.2-.3.39-.38.63-.07.19-.11.38-.19.57-.09.2-.18.4-.27.6-.17.37-.39.72-.56,1.09-.08.17-.13.34-.17.52-.05.23-.16.44-.25.65-.14.31-.3.61-.45.92-.12.25-.24.48-.4.7-.08.11-.19.2-.26.31-.07.13-.02.25,0,.38.02.12.07.19.14.29.09.14.17.29.26.43.2.3.1.72.03,1.04-.05.26-.16.48-.12.75.04.24.12.49.28.68.1.11.16.19.3.19.08,0,.27,0,.34.07.06.05.04.05.06.14.03.17,0,.33,0,.5,0,.19.02.38,0,.57-.02.28.06.56.1.84.04.26.1.5.18.75.07.2.07.49.18.66.08.13.21.19.31.28.1.09.17.18.31.18.08,0,.17-.03.25-.04.15-.02.27-.02.42,0,.03,0,.13,0,.15,0,.05.02.06.09.08.13.05.11.11.21.17.32.09.17.23.32.37.45.09.09.19.14.26.24.07.1.16.22.29.23.02,0,.07-.02.09-.02.11-.02.19-.03.28-.08.25-.14.25-.4.16-.65-.07-.19-.18-.38-.35-.5-.15-.11-.37-.16-.49-.32-.23-.31.03-.54.26-.74.13-.11.19-.19.16-.36-.02-.12-.09-.26-.15-.36-.07-.13-.22-.24-.33-.34-.14-.13-.3-.23-.43-.37-.13-.14-.25-.28-.37-.42-.2-.24-.49-.4-.7-.64-.04-.05-.08-.11-.12-.15-.1-.1-.31-.16-.37-.28-.03-.06-.05-.2-.05-.27,0-.1.09-.14.13-.23.04-.09,0-.24-.03-.35-.04-.17-.14-.32-.18-.49-.09-.38-.24-.79-.22-1.18,0-.14.31-.18.41-.21.26-.09.37-.3.25-.56-.06-.13-.22-.16-.29-.28-.05-.09-.04-.2,0-.29.08-.21.18-.43.3-.62.13-.22.2-.45.34-.67.15-.23.21-.51.3-.76.07-.21.17-.41.24-.62.07-.21.13-.43.23-.63.25-.5.42-1.02.68-1.52.21-.4.4-.91.32-1.36.02-.08.11-.18.14-.27.05-.13.12-.23.21-.33.08-.1.15-.25.19-.37.03-.08.06-.14.1-.22.22-.39.32-.85.41-1.28.14-.63-.03-1.31-.14-1.94l-.36-2.2c-.03-.21-.09-.4-.03-.61.03-.1.06-.15.11-.24.14-.22.17-.57.2-.83.03-.28-.05-.58-.1-.86-.05-.25-.12-.5-.18-.75-.05-.2-.12-.38-.21-.56-.03-.07-.1-.2-.07-.28.03-.11.23-.12.32-.13.13,0,.21.05.3.14.14.14.25.29.38.43.1.1.22.19.3.32.08.12.12.26.19.39.09.18.21.34.3.52.06.12.1.27.2.36.17.16.58.02.77-.07.29-.12.61-.25.92-.32.21-.04.43-.08.63-.03.26.05.51.14.77.21.25.06.5.15.76.18.25.02.47,0,.72-.03.1-.02.21-.02.31-.05.17-.05.32-.16.46-.26.13-.1.25-.24.4-.32.15-.08.31-.14.47-.2.08-.03.2-.04.29-.04,0,.06.04.1.07.15.04.07.05.15.09.21.22.37.54.75.92.96.2.11.39.25.58.38.33.22.67.43.99.65.52.36,1.11.59,1.64.93.44.28.94.84,1.51.69.15-.04.33-.06.46-.15.11-.08.23-.21.3-.32.09-.15.13-.32.14-.49.02-.33.02-.64-.02-.97-.06-.51-.17-1-.27-1.5-.08-.4-.08-.8-.15-1.2.08.08.18.13.27.2.17.11.34.22.5.34.24.17.62.41.92.24.13-.08.18-.25.24-.38.05-.11.11-.22.19-.31.06-.07.12-.12.21-.07.05.03.09.07.14.09.13.07.23.15.31.27.04.07.08.14.14.2.04.04.08.08.11.12.04.06.03.14.04.2.02.1.03.35.2.3.04-.01.05-.05.08-.08.06-.08.15-.14.19-.23.02-.07.04-.15.06-.22.03-.07.07-.14.11-.2.04-.08.07-.14.07-.22,0-.1-.05-.15-.13-.21-.13-.11-.26-.22-.39-.32-.18-.14-.33-.22-.55-.29-.08-.02-.08-.07-.08-.15,0-.11.07-.21.11-.31.05-.11.11-.22.14-.33.04-.1.06-.24-.03-.32-.07-.07-.17-.12-.27-.14-.28-.08-.55-.16-.83-.25-.11-.04-.21-.07-.33-.09-.06,0-.11-.01-.16-.03-.03-.06.03-.11.06-.16.12-.15.29-.24.44-.34.16-.11.25-.26.35-.42.03-.05.09-.07.13-.11.11-.12.19-.28.26-.43.06-.12.14-.23.18-.35.06-.18.07-.37.11-.55.06-.26.14-.53.24-.78.04-.1.12-.2.19-.28.04-.05.08-.14.14-.18.05-.04.15-.04.21-.05.09-.01.15-.03.24,0,.11.03.18.08.24.19.05.08.07.17.1.25.08.24.23.45.35.67.07.12.13.25.22.36.08.09.19.16.28.23.02.12.04.24.06.36.04.2.11.4.16.6.03.1.04.21.12.29.09.1.2.19.31.28.07.06.09.07.1.17.02.14.05.26.12.39.07.13.17.24.25.36.13.18.23.36.33.56.06.12.11.23.15.36.06.18.08.35.16.53.06.16.13.33.21.48.08.15.18.27.28.4.11.15.22.29.32.46.06.11.13.23.2.33.06.08.13.15.22.17.07.02.1,0,.14.06.07.09.07.26.1.36.07.21.11.41.14.62.02.09.02.19.05.28.05.16.11.31.16.48.08.31.19.57.37.82.14.19.33.33.49.51.1.12.36.42.52.34.07.41.13.81.2,1.22.06.38.15.83.41,1.13.08.09.21.18.32.23.15.07.31.06.46.13.19.08.2.39.23.57s.06.37.09.56c.04.3.16.58.3.85.05.11.11.22.16.33.05.12.07.25.13.36.06.11.14.2.23.28.12.1.25.21.41.24.08.01.15-.01.22-.03.02.1.04.19.05.29.03.19,0,.37,0,.57,0,.15.03.27.08.41.07.22.13.48.24.68.09.15.2.42.37.49.2.08.51.03.64.26.1.19.01.42.07.62.07.21.14.38.28.56.21.28.46.55.72.78.19.16.41.27.65.32.09.02.18,0,.27.02.04,0,.04-.03.07.02.01.02,0,.08,0,.1,0,.19.1.36.18.53.15.33.38.8.66,1.06.18.17.37.33.56.5.17.15.35.3.52.46.13.12.26.06.42.04-.05.06-.01.15,0,.21.01.09.02.18.06.26.08.18.27.3.41.43.18.15.38.28.57.41.22.14.47.25.67.41.17.14.38.23.58.32.11.05.21.09.33.11.07.01.15,0,.22,0,.1.03.14.17.15.28.03.18.05.29.15.44.04.06.05.09.1.13.12.09.28.12.42.17.12.04.22.11.33.16.16.07.34.12.5.18.27.09.55.15.82.23.15.05.29.11.44.17.2.08.37.18.55.28.11.06.22.09.35.1.05,0,.25,0,.29-.04.06-.06-.03-.21-.06-.27-.07-.22-.23-.42-.41-.57-.35-.3-.7-.61-1.04-.91-.32-.28-.62-.59-1.04-.68-.22-.04-.45-.09-.68-.11-.09,0-.21.01-.29-.03-.07-.04-.08-.12-.13-.19-.07-.11-.15-.22-.23-.33-.26-.35-.6-.67-.93-.95-.31-.27-.64-.47-1.03-.6-.21-.07-.58-.26-.8-.19-.05-.34-.11-.73-.32-1.01-.05-.07-.06-.1-.1-.17-.05-.08-.14-.12-.21-.19-.18-.21-.44-.29-.67-.45-.17-.12-.37-.2-.56-.28-.05-.02-.12-.04-.17-.06-.06-.04-.06-.03-.07-.11-.07-.35-.12-.65-.33-.95-.33-.47-.65-.96-1.12-1.3-.18-.13-.38-.21-.48-.4-.05-.1-.07-.12-.03-.25.02-.07.07-.14.08-.21,0-.1-.05-.25-.08-.34-.1-.33-.25-.54-.47-.8-.12-.14-.23-.3-.35-.44-.1-.13-.22-.24-.33-.35-.1-.1-.17-.27-.29-.35-.04-.03-.04-.1-.09-.07-.01-.16.1-.31.1-.46,0-.14-.03-.31-.11-.43-.14-.21-.3-.41-.44-.63-.15-.21-.29-.38-.51-.53-.23-.16-.4-.3-.52-.55-.06-.12-.1-.24-.06-.37.06-.2.14-.32.1-.54-.02-.11-.04-.23-.05-.35-.02-.13-.07-.21-.14-.32-.17-.24-.4-.43-.59-.66-.19-.23-.39-.46-.56-.71-.11-.17-.18-.23-.15-.44.01-.07,0-.13,0-.19,0-.1.04-.2.02-.3-.01-.14-.07-.21-.16-.31-.17-.19-.37-.35-.55-.53-.13-.13-.27-.25-.4-.38-.18-.18-.31-.42-.46-.62-.1-.13-.19-.24-.22-.4-.03-.15,0-.43-.02-.58.09-.13.21-.28.19-.44-.01-.12-.03-.27-.07-.39-.06-.16-.19-.32-.3-.46-.17-.21-.32-.43-.48-.65-.14-.18-.3-.32-.47-.48-.1-.09-.2-.18-.29-.28-.07-.08-.12-.17-.19-.24-.12-.13-.23-.24-.33-.39-.14-.2-.29-.39-.41-.6-.03-.06-.06-.09-.03-.15.05-.1.14-.16.15-.29.01-.12-.03-.27-.06-.39-.06-.21-.3-.33-.45-.47-.1-.09-.22-.15-.3-.26-.09-.12-.09-.29-.11-.43.07-.07.09-.11.12-.21.02-.09.08-.14.11-.23.06-.16.05-.34.04-.51,0-.17-.03-.34-.06-.51-.03-.19-.04-.39-.13-.57-.08-.16-.25-.25-.33-.41-.03-.05-.08-.14-.1-.2-.03-.08,0-.07.05-.12.11-.11.22-.23.32-.35.1-.13.19-.27.3-.4.1-.12.23-.22.29-.36.08-.17.13-.34.16-.53.03-.21,0-.42.01-.63,0-.2.04-.41.02-.61-.03-.25-.1-.5-.16-.75-.07-.33-.08-.63-.31-.89-.06-.07-.1-.14-.15-.21-.06-.09-.08-.17-.12-.26-.03-.07-.05-.07-.03-.15.02-.06.04-.11.06-.16.05-.17.08-.31.08-.48-.01-.4-.04-.9-.1-1.3.13-.04.29-.14.4-.22.17-.14.21-.27.25-.48.05-.29.14-.58.25-.85.19-.45.58-.71.89-1.07.14-.16.32-.3.48-.45.1-.1.31-.19.36-.31.04-.1.02-.09-.03-.18-.07-.13-.17-.25-.21-.39-.04-.15-.03-.27-.03-.42,0-.11-.02-.17.02-.26.05-.12.17-.22.26-.31.15-.14.3-.28.43-.43.14-.16.25-.34.39-.49.21-.22.36-.57.42-.86.05-.24-.03-.47-.06-.71.11-.03.23-.17.3-.25.19-.22.38-.33.61-.51.18-.14.32-.33.46-.5.11-.13.15-.11.1-.27-.09-.29-.16-.51-.06-.81.08-.24.26-.43.43-.61.24-.24.37-.49.52-.79.12-.24.3-.4.22-.69-.04-.13-.1-.23-.12-.36-.02-.11-.05-.21-.05-.32,0-.1.21-.19.27-.27.05-.07.08-.15.13-.22.14-.2.34-.37.45-.58.1-.21.17-.41.31-.61.07-.1.23-.24.24-.36.02-.22-.29-.45-.19-.67.07-.15.29-.26.39-.4.1-.13.19-.24.32-.35.2-.17.34-.35.48-.57.09-.14.18-.28.26-.43.05-.09.13-.19.16-.29.07-.17,0-.49-.03-.67.13-.1.26-.19.42-.28.29-.15.48-.39.71-.61.18-.16.39-.29.56-.46.17-.16.36-.33.45-.55.08-.2-.1-.29-.03-.48.08-.2.24-.26.41-.36.26-.15.49-.35.74-.51.23-.16.47-.3.72-.44.11-.06.27-.12.36-.21.19-.19.07-.33.09-.54.04-.36.5-.47.77-.57.29-.11.6-.15.88-.31.12-.07.24-.13.36-.21.31-.18.64-.35.9-.59.23-.21.42-.51.69-.67.16-.1.73-.36.34-.54-.38-.17-.88-.01-1.26.04ZM33.89,29.61c-.14,0-.25,0-.39.03-.56.1-1.16.07-1.72.03-.39-.02-.77.07-1.15.09-.34.02-.69.07-1.02.11-.41.05-.82-.08-1.2-.16.13,0,.26-.1.35-.18.21-.17.45-.3.66-.48.18-.15.38-.3.53-.48.16-.19.32-.36.51-.52.39-.33.74-.83,1.25-.97.21-.06.27.05.43.16.12.07.25.14.37.2.19.11.31.27.46.42.18.17.35.35.53.53.21.2.34.45.51.68.09.13.16.19.22.34.03.08.09.14.07.23-.13,0-.27-.02-.4-.03ZM55.98,62.86s.06-.05.1-.05c-.03.05-.06.05-.1.05ZM69.9,50.11c.05.12.11.13.14.15.05.04.07.11.09.18.09.3.13.6.18.91.06.37.24.7.34,1.06.02.09.05.17.1.25.05.09.13.16.17.25.06.12.07.27.1.4,0,.04.03.09.01.12-.2-.18-.38-.39-.56-.58-.26-.29-.56-.54-.83-.83-.09-.1-.2-.21-.27-.32-.06-.09-.17-.3-.14-.41.02-.05.08-.1.11-.15.07-.15.06-.32.07-.48,0-.15.05-.36.17-.46.09-.07.22-.06.32-.08ZM74.46,33.55c.15.25.27.5.46.73.13.16.24.26.44.33.1.03.26.1.37.07.22-.06.45-.29.62-.43.12-.1.22-.26.38-.28.24-.03.49-.06.72-.14.15-.05.28-.11.42-.18.29-.14.6-.3.77-.59.06-.1.08-.17.19-.19.22-.04.44-.07.66-.11,0,.06.11.03.12.08.01.09.02.08-.04.14-.14.13-.21.26-.31.41-.39.61-.79,1.23-1.17,1.85-.09.14-.16.28-.22.43-.06.16-.11.33-.18.49-.09.18-.23.35-.33.52-.1.16-.16.33-.24.5-.11.23-.27.59-.52.71-.18.09-.34.02-.5-.07-.13-.07-.27-.13-.39-.2-.11-.06-.19-.15-.29-.22-.29-.2-.58-.39-.86-.61-.26-.2-.49-.44-.75-.64-.13-.1-.29-.14-.42-.25-.13-.12-.26-.24-.39-.36-.19-.17-.42-.16-.65-.26-.2-.09-.43-.09-.64-.14-.2-.04-.4-.1-.61-.09-.3.01-.59.11-.87.2-.27.09-.54.21-.81.3-.13.04-.27.08-.4.12-.03.02-.06.03-.09.03-.04-.08-.11-.05-.09-.16,0-.05.04-.11.06-.16.05-.13.09-.27.15-.4.09-.19.25-.32.41-.46.16-.14.32-.27.47-.41.27-.26.54-.53.82-.78.14-.12.26-.21.38-.36.19-.23.36-.46.52-.71.13-.2.23-.4.38-.59.09-.11.17-.23.26-.34.06-.07.13-.12.2-.18.1-.09.19-.25.31-.3.08-.03.18-.04.26-.04.05,0,.11.09.14.13.11.12.17.29.24.43.15.33.27.69.43,1.02.09.18.18.36.27.54.1.21.24.4.36.61Z"/>
</svg>