<?xml version="1.0" encoding="UTF-8"?>
<svg id="a" data-name="Layer 1" xmlns="http://www.w3.org/2000/svg" viewBox="0 0 87.5 87.84">
  <path class="b" d="M61.24,17.68c0,.08,0,.17,0,.26,0,.1.05.16.07.26.01.08,0,.16.01.24,0,.02.05.05.05.07.01.05,0,.14,0,.2,0,.18,0,.34-.05.51-.03.09-.06.17-.08.26-.01.03,0,.08,0,.12-.04.15-.15.32-.2.46-.21.55-.45,1.08-.65,1.63s-.61.98-.93,1.47c-.26.4-.64.73-.93,1.11-.22.29-.44.55-.69.82-.31.33-.6.67-.91,1-.1.11-.21.23-.33.33-.4.34-.91.43-1.36.68-.35.19-.68.42-1.05.57s-.72.38-1.14.43c-.15.02-.29.05-.43.06-.1,0-.16.05-.26.07-.14.03-.3-.02-.45.01-.32.06-.64.07-.97.05-.25-.01-.48-.06-.73-.07-.22,0-.43-.09-.65-.12-.09-.01-.18,0-.27,0-.17-.02-.31-.09-.47-.13-.36-.1-.76-.06-1.13-.06-.39,0-.79,0-1.18,0-.12,0-.7-.05-.62.19h-1.25c-.39,0-.78,0-1.17,0-.13,0-.27-.01-.4.01-.34.06-.63.12-.98.12-.41,0-.82.01-1.23,0-.22,0-.43-.06-.65-.07-.12,0-.24.01-.36,0-.18-.03-.35-.11-.54-.12-.23-.01-.46,0-.69,0-.35,0-.67-.03-1.01-.07s-.71-.11-1.06-.12c-.27,0-.53-.07-.8-.07-.13,0-.27,0-.4,0-.21,0-.4-.09-.6-.12-.18-.03-.37-.01-.55-.01-.42,0-.83-.06-1.24-.07-.76,0-1.51-.06-2.28-.06-.17,0-.35,0-.52,0-.13,0-.2.05-.31.07-.08.01-.16-.02-.25,0v.05c-.47,0-1.04-.01-1.48.08-.38.08-.78.11-1.16.18-.35.06-.69.2-1.03.28s-.69.17-1.03.25c-.75.15-1.46.48-2.21.69-.74.2-1.4.56-2.06.94-.37.21-.75.44-1.1.68-.2.14-.37.28-.59.4-.17.09-.34.19-.5.29-.63.39-1.35.62-1.97,1.02-.18.12-.37.29-.54.44-.5.44-.99.87-1.46,1.33-.18.17-.34.33-.47.54-.09.13-.23.29-.27.45-.43.4-.69.85-1.01,1.33-.25.39-.41.82-.6,1.24-.15.33-.32.62-.43.96-.09.29-.16.58-.19.88-.06.5-.23.98-.26,1.48-.04.6,0,1.21,0,1.81v2.12c0,.24-.04.52,0,.76.03.18.05.37.12.54.08.19.04.32.06.51.02.15.06.33.1.48s.07.29.13.44c.2.44.46.96.79,1.32h.05c.01.14.31.62.45.39.08-.13,0-.49,0-.64,0-.23.07-.41.06-.64,0-.41-.02-.8-.06-1.21-.01-.15.01-.3-.02-.44,0-.02-.04-.07-.05-.11-.01-.05,0-.11,0-.16,0-.34,0-.67,0-1.01,0-.15,0-.31,0-.46s.04-.25.07-.38c.02-.1,0-.19.03-.29.02-.07.02-.24.07-.29-.14-.12.08-.49.1-.63h.05c0,.3,0,.55.03.87.06.5.19.99.32,1.47.16.55.39,1.08.61,1.61.19.47.34.96.51,1.43.12.34.06.75.06,1.11,0,.19,0,.39,0,.58,0,.18.06.34.07.52.01.27,0,.54,0,.81,0,.3-.06.64-.17.92-.08.19-.18.36-.22.56h-.05c-.18.19-.31.47-.45.68-.12.18-.25.37-.36.54-.06.1-.15.2-.22.32-.12.19-.2.42-.29.63-.29.65-.57,1.3-.92,1.93-.25.45-.52.88-.8,1.31-.26.38-.4.74-.56,1.17-.05.14-.14.31-.17.44-.06.28-.08.57-.15.86-.07.3-.05.61-.05.92,0,.42-.02.83.06,1.25.05.28.09.56.21.82.05.13.14.23.18.36.06.19.09.36.19.54.27.52.54,1.02.72,1.59.05.16.13.34.19.52.02.06.03.11.04.17.02.07.09.14.07.22-.09.33.21.65.29.96.04.14.02.29.03.45,0,.11.06.2.07.31.03.3.03.61.08.91.03.2.02.41.05.61.06.32.1.66.12.99.01.18.06.32.06.5,0,.11.05.19.06.29.02.12,0,.23.02.35.03.13.1.23.12.37.01.11,0,.2.03.31.06.21.16.42.16.63,0,.18-.02.37,0,.56.01.15.06.29.07.44s-.02.3,0,.44c.01.1.06.19.07.3.01.14,0,.28,0,.42,0,.13-.02.27,0,.39.02.16.07.29.07.46,0,.2.04.36.07.55s0,.44,0,.64c0,.34,0,.66-.06.99-.04.21-.07.41-.07.62,0,.27-.02.55,0,.82,0,.1.05.16.07.26.02.1-.03.21,0,.31h.05c.26.06.6.09.84.19.15.06.3.06.44.13.33.14.71.2,1.06.27.24.05.53,0,.78,0,.06,0,.15.01.21,0s.1-.04.14-.05c.05-.01.1,0,.14-.01.08-.01.15-.06.22-.07,0-.21.03-.43-.06-.63-.06-.13-.11-.26-.18-.39-.1-.21-.18-.42-.24-.64-.16-.56-.36-1.12-.53-1.68-.1-.33-.15-.66-.22-1-.08-.37-.18-.75-.26-1.12-.07-.33-.08-.68-.16-1-.03-.13,0-.26-.01-.39,0-.17-.06-.33-.07-.5,0-.15.01-.3,0-.45,0-.2-.07-.37-.07-.57s0-.39,0-.58c0-.13,0-.25,0-.38,0-.16-.05-.3-.07-.45-.01-.08.01-.17,0-.25-.01-.12-.06-.23-.07-.34-.02-.19-.04-.38-.06-.57-.01-.13-.06-.23-.07-.36,0-.15.02-.3,0-.45s-.06-.28-.06-.43.01-.31,0-.47c0-.15-.06-.28-.07-.42,0-.16,0-.31,0-.47,0-.14.02-.28,0-.41-.02-.12-.06-.23-.06-.35-.01-.31.02-.63,0-.95-.02-.27-.07-.51-.07-.78,0-.24,0-.49,0-.73,0-.35.07-.69.07-1.03,0-.22-.01-.44,0-.65,0-.18.06-.35.07-.53.01-.27.05-.53.06-.8,0-.09.03-.13.05-.21.02-.09,0-.18.01-.26,0-.06.05-.11.07-.17.02-.07.03-.14.05-.21.03-.12.04-.3.14-.38-.04-.28.25-.49.37-.7.11-.2.25-.38.35-.58.3-.55.83-.94,1.3-1.32.12-.1.19-.14.34-.22.44-.24.85-.56,1.29-.79.15-.08.22-.18.35-.28.14-.12.3-.23.45-.34.29-.21.53-.51.76-.77.1-.11.14-.25.26-.34.06-.06.14-.07.16-.16,0,.17.02.35,0,.51-.01.11-.06.21-.07.32,0,.09,0,.17-.01.25-.04.15-.08.3-.12.46-.06.26-.19.5-.27.76-.04.15-.07.31-.12.46-.05.14-.12.26-.15.41-.03.15-.04.31-.08.47-.05.2-.09.39-.16.58-.09.24-.2.47-.29.7-.08.21-.13.44-.22.64-.05.11-.13.19-.17.29-.03.07-.06.16-.09.24-.06.17-.11.39-.11.56,0,.39-.02.7.21,1.02.15.22.26.46.42.67.15.21.17.44.28.67.04.09.07.19.11.28.07.15.18.29.27.43.1.17.19.34.3.5.18.28.39.56.59.83.1.13.22.25.33.38.11.14.19.3.35.37s.27.09.41.21c.08.07.17.12.25.2.18.17.34.36.45.57.07,0,.16.14.22.18.1.08.16.16.22.27.1.18.16.35.27.52.17.29.31.57.44.88.08.18.16.34.24.52.21.48.54.92.79,1.39.12.24.24.48.36.71.11.2.28.37.39.57.16.29.29.62.5.88.17.21.3.47.39.72.16.46.36.92.59,1.34.4.73.73,1.47.84,2.27.05.38.22.74.31,1.12.04.17.12.34.13.51,0,.16.05.3.13.45.19,0,.37-.02.56,0,.13.02.26.06.4.06.16,0,.36-.04.52,0,.14.03.24.07.38.07.14,0,.28,0,.41,0,.25,0,.48.07.73.06.13,0,.26,0,.39,0,.29,0,.67.06.96,0,0-.08-.07-.14-.12-.18,0-.27,0-.48-.12-.73-.08-.17-.19-.33-.27-.5-.05-.11-.15-.2-.21-.31-.05-.09-.09-.2-.14-.29-.32-.52-.77-.99-1.06-1.53-.12-.23-.28-.41-.38-.66s-.24-.51-.36-.75c-.14-.27-.31-.53-.48-.78-.2-.31-.35-.63-.5-.97-.18-.41-.38-.81-.57-1.22-.21-.46-.52-.86-.67-1.35-.05-.18-.09-.37-.16-.55-.06-.15-.14-.29-.18-.45-.04-.15-.16-.3-.14-.46.02-.12-.12-.27-.18-.36-.09-.16-.13-.34-.21-.5-.1-.21-.19-.42-.29-.63-.08-.18-.11-.38-.19-.56s-.17-.37-.24-.56c-.15-.42-.31-.83-.44-1.25-.06-.21-.11-.43-.18-.64-.16-.41-.3-.82-.45-1.24-.17-.5-.36-.99-.48-1.51-.04-.16-.06-.32-.09-.48-.03-.13-.11-.22-.13-.35-.06-.34-.1-.67,0-1.02.05-.18.08-.36.15-.53.06-.15.12-.23.11-.4,0-.35.35-.8.51-1.09.15-.26.34-.45.5-.7.06-.09.07-.2.12-.29.09-.21.17-.43.26-.64.11-.24.23-.45.38-.67.12-.16.18-.35.3-.51.25-.34.44-.72.71-1.05.18-.23.39-.4.57-.63.14-.18.32-.31.44-.51.07-.12.15-.21.24-.33.07-.1.28-.32.31-.41-.04-.01-.06,0-.05.06.26,0,.53-.03.79.01s.47.17.7.25c.11.04.24.06.35.1.47.18.88.49,1.35.66.36.13.69.29,1.06.41.52.17,1.05.16,1.6.16.22,0,.41.06.63.07.12,0,.25-.02.36.01.32.08.61.12.95.11.26,0,.51.07.77.07.17,0,.28.05.44.07.18.02.54.05.71-.01v-.05c.39,0,.83.12,1.2.02.15-.04.27-.11.43-.14.17-.03.33-.03.49-.06s.33-.02.5-.06c.13-.03.25-.07.37-.1.73-.18,1.54-.08,2.24-.37.26-.11.51-.19.79-.27.17-.05.32-.05.51-.05.23,0,.43-.05.64-.07.17-.01.34,0,.51,0-.01.58.24,1.24.45,1.77.2.49.53.92.73,1.41.11.26.25.51.35.78.06.17.07.33.12.5.06.22.14.43.19.65.14.57.22,1.14.34,1.71.09.42.28.81.37,1.23.06.29.2.54.27.82.11.44.18.89.31,1.32.17.57.29,1.15.48,1.71.07.19.15.38.21.57.04.15.13.28.16.44h.05c-.03.23.06.53.13.74.08.26.15.51.24.76.08.21.13.42.22.62.1.23.15.46.25.68.07.16.18.3.25.47.09.23.13.47.22.7.2.58.51,1.08.78,1.63.1.2.15.4.21.61.08.24.15.48.22.73.05.18.11.37.19.54s.11.31.17.48c.16.5.02,1,0,1.51,0,.36-.09.74-.15,1.1-.04.27-.07.55-.13.81-.1.52-.18,1.06-.29,1.58-.03.15,0,.31-.01.46s-.05.3-.07.45c-.02.14.03.29,0,.43h-.05c.29.01.54,0,.8.11.14.06.26.09.41.1.11,0,.18.04.28.06.11.02.23,0,.34,0s.18.05.28.07c.21.04.49-.07.69,0,.17.05.17.21.19.35.04.19.13.43.2.62s.15.38.17.57c.02.17.05.37.13.51.7,0,1.43.06,2.09-.2.19-.07.38-.09.57-.12.1-.02.18-.06.29-.07s.21,0,.32,0c0-.11-.25-.36-.32-.45-.08-.1-.13-.2-.2-.31-.24-.37-.4-.79-.63-1.16-.25-.4-.53-.77-.7-1.2-.21-.53-.34-1.13-.48-1.68-.07-.3-.13-.6-.27-.87-.15-.29-.17-.6-.25-.92-.13-.52-.27-1.06-.34-1.59-.05-.38-.07-.73-.07-1.12v-.74c0-.55.04-1.09.13-1.63.03-.22.07-.38.07-.61,0-.21-.02-.42.01-.62.11-.6-.04-1.22.05-1.82.02-.15.07-.27.07-.43,0-.29.06-.57.07-.85.01-.45.13-.88.19-1.32.04-.25.07-.53.06-.79,0-.27.05-.54.06-.81.01-.2.06-.38.06-.59,0-.15,0-.3,0-.45,0-.22.05-.43.07-.64,0-.15,0-.3,0-.45,0-.3,0-.6,0-.9,0-.64.1-1.26.18-1.89.07-.56.09-1.16.22-1.72.04-.16.12-.3.18-.45.09-.22.11-.47.19-.7.17-.51.3-1.03.48-1.54.13-.35.19-.73.31-1.09.1-.29.15-.6.3-.88.05-.1.12-.22.19-.3.06-.06.14-.09.14-.19h.05c-.01-.46-.06-.83.09-1.25.05-.13.06-.24.13-.36.07-.11.13-.23.19-.35.19-.4.41-.78.63-1.18.17-.31.36-.69.43-1.04.1-.51.29-.97.54-1.43.17-.32.3-.58.3-.96,0-.26.05-.49.07-.75.01-.19,0-.36.04-.55.05-.22.11-.44.18-.66.04-.12.11-.25.1-.38-.08-.65.38-1.38.58-1.99.09-.27.16-.56.29-.8.11-.2.26-.39.36-.59.21-.39.48-.76.68-1.16.16-.32.34-.62.48-.95.14-.31.34-.6.46-.92.19-.48.4-.96.66-1.41.22-.39.43-.77.63-1.17.22-.46.26-1.01.47-1.48.11-.23.23-.48.36-.7.09-.16.16-.27.14-.46-.04-.39.14-.71.29-1.06.08-.2.11-.4.21-.59.08-.17.13-.35.21-.52.11-.25.27-.49.37-.75.17-.42.25-.86.34-1.3.1-.51.4-.74.83-1.03.34-.23.71-.5,1.11-.59.82-.17,1.8-.29,2.62-.06.19.05.34.1.54.1s.38.06.58.06c.18,0,.33.08.51.06s.3-.13.46-.19c.44-.18.82-.57.82-1.07,0-.12,0-.23.03-.34.02-.07.06-.17.04-.26-.02-.08-.07-.1-.07-.19,0-.11.08-.14.08-.24.11-.01.21,0,.24-.14.08-.36.25-.78.26-1.15,0-.28-.08-.54-.16-.8-.06-.21-.19-.41-.29-.61-.07-.13-.14-.25-.21-.37-.04-.07-.06-.13-.11-.19-.11-.15-.15-.25-.21-.42-.06-.16-.19-.3-.28-.45-.07-.12-.12-.27-.21-.38-.06-.07-.13-.09-.2-.15-.11-.09-.18-.23-.28-.33s-.22-.2-.32-.31c-.15-.19-.28-.37-.45-.54s-.31-.39-.49-.56c-.17-.16-.33-.29-.47-.46-.19-.24-.33-.51-.52-.75-.17-.21-.2-.52-.3-.76-.21-.49-.51-.79-.9-1.18-.2-.2-.41-.48-.64-.64-.05-.04-.1-.07-.15-.11-.09-.09-.17-.18-.26-.28v.04c-.01-.42-.01-.84-.01-1.26,0-.09,0-.17,0-.26,0-.09.04-.15.06-.24.05-.21.07-.44.07-.66,0-.23,0-.46,0-.69,0-.2-.06-.41-.11-.61-.07-.29-.25-.55-.4-.8-.17-.29-.34-.55-.58-.8-.09-.09-.27-.3-.42-.25s-.11.33-.08.45c.05.21.05.41.05.64,0,.26.05.59-.01.85-.04.16-.09.35-.15.5-.06.14-.17.25-.25.38-.18.29-.2.66-.29.99-.09.37-.27.72-.33,1.09-.01.08.04.13-.06.17-.1.04-.12-.05-.17-.1-.11-.1-.22-.16-.35-.22s-.23-.06-.38-.06c-.14,0-.36-.04-.49.01.07.13.26.16.3.31.06.21-.02.26-.2.26-.16,0-.34-.02-.49.01-.22.06-.35.04-.58-.03s-.4-.14-.6-.24c-.12-.07-.22-.11-.36-.15-.15-.04-.3-.05-.44-.11-.16-.06-.31-.14-.48-.18-.24-.05-.93-.2-.75.27.07.18.36.19.52.23.19.06.29.19.44.31.1.08.22.12.32.19.09.07.16.18.25.25s.13.11.21.19c.09.1.18.17.05.27-.07.05-.19.05-.27.07-.13.04-.25.13-.38.19-.24.11-.52.12-.78.12-.21,0-.42,0-.62,0s-.21-.13-.38-.19c.03-.23-.1-.36-.24-.51s-.27-.33-.4-.5-.25-.32-.38-.47c-.27-.31-.6-.54-.9-.82-.2-.19-.37-.41-.58-.57-.25-.19-.58-.32-.88-.4s-.6-.17-.91-.24c-.39-.08-.76-.17-1.13-.32-.24-.1-.48-.16-.73-.22-.34-.08-.63-.1-.98-.1-.2,0-.38,0-.56.1-.37.19-.01.58.1.84.1.24.17.48.3.7.24.4.47.8.77,1.16.38.45.68.95,1.04,1.41.45.57.88,1.19,1.49,1.6.13.09.26.16.37.27.11.1.2.23.3.32.16.14.37.26.56.36.29.16.51.39.76.6.09.08.18.15.28.21.08.05.45.11.45.21Z"/>
</svg>
