<?xml version="1.0" encoding="UTF-8"?>
<svg id="a" data-name="Layer 1" xmlns="http://www.w3.org/2000/svg" viewBox="0 0 105.68 96.5">
  <path class="b" d="M90.05,31.94s-.05-.06-.08-.09c-.17-.17-.34-.34-.52-.5-.1-.08-.19-.17-.28-.26-.09-.09-.17-.2-.26-.28-.09-.08-.2-.13-.29-.21-.1-.09-.2-.18-.3-.27-.21-.17-.46-.29-.66-.48-.2-.19-.42-.37-.64-.54-.15-.12-.28-.25-.44-.36-.06-.04-.11-.08-.17-.12-.07-.05-.2-.06-.23-.15-.03-.08-.12-.13-.19-.18-.08-.06-.16-.14-.23-.21-.08-.07-.16-.13-.24-.2-.11-.09-.22-.2-.35-.26-.15-.08-.29-.21-.42-.32-.14-.12-.29-.22-.44-.32-.05-.04-.11-.06-.16-.09-.06-.03-.11-.08-.16-.11-.15-.1-.27-.23-.42-.33-.28-.19-.56-.37-.83-.58-.17-.13-.38-.2-.56-.34-.09-.07-.19-.13-.29-.18-.1-.06-.18-.14-.28-.21-.16-.12-.32-.24-.48-.36-.17-.13-.37-.23-.54-.36-.19-.15-.41-.27-.61-.4-.12-.08-.23-.17-.34-.26-.06-.05-.16-.11-.24-.11-.07-.1-.26-.16-.36-.23-.14-.11-.3-.18-.45-.27-.2-.12-.39-.28-.6-.38-.12-.05-.2-.14-.32-.19-.15-.06-.27-.16-.41-.24-.14-.08-.26-.17-.39-.26-.05-.03-.1-.07-.16-.1-.07-.04-.11-.1-.17-.14-.17-.13-.4-.18-.58-.28-.15-.08-.3-.16-.44-.25-.18-.12-.35-.26-.53-.38-.11-.08-.23-.14-.34-.22-.11-.08-.22-.15-.33-.23-.08-.06-.21-.15-.33-.16-.08,0-.17-.08-.24-.12-.1-.05-.2-.1-.31-.14-.13-.05-.25-.13-.37-.19-.11-.06-.22-.1-.33-.14-.08-.03-.16-.07-.25-.1-.13-.06-.24-.14-.38-.19-.14-.05-.27-.09-.41-.15-.12-.05-.23-.12-.35-.17-.25-.11-.5-.24-.77-.3-.16-.04-.29-.12-.43-.18-.15-.07-.31-.13-.46-.21-.17-.08-.35-.17-.52-.26-.15-.08-.31-.12-.46-.19-.09-.05-.18-.11-.27-.16-.12-.07-.25-.12-.38-.17-.2-.08-.49-.17-.71-.15.07-.06.16-.13.24-.17.1-.05.22-.06.32-.1.17-.07.33-.16.49-.24.05-.02.1-.04.14-.06.05-.03.08-.07.12-.1.09-.06.19-.07.28-.13.07-.05.14-.11.22-.15.19-.12.39-.22.58-.34.18-.11.33-.26.47-.41.11-.11.21-.29.19-.45.03.02.05.03.08.04.06-.08.16-.09.24-.13.08-.05.15-.12.21-.19.09-.1.18-.17.26-.29.08-.13.19-.24.28-.36.18-.24.45-.53.46-.85,0-.07-.02-.14.02-.2.06-.1.28-.14.31-.26-.01-.12-.07-.23-.1-.34-.04-.15-.06-.32-.09-.47-.02-.1-.08-.19-.13-.28-.08-.16-.18-.29-.29-.43-.06-.08-.19-.27-.28-.3-.09.13-.06.3-.06.45,0,.18,0,.37,0,.55,0,.18-.03.33-.08.51-.04.12-.08.27-.16.37-.07.1-.19.19-.29.27-.14.12-.25.24-.36.38-.13.16-.27.33-.35.52-.03.07-.05.12-.1.18-.06.07-.14.1-.15.2-.12,0-.27-.03-.38,0-.08.02-.17.07-.23.11-.01.03-.03.05-.05.07-.03,0-.05,0-.07.02-.06.04-.08.08-.13.13-.08.08-.16.13-.24.2-.07.06-.12.17-.19.23-.07.06-.17.11-.25.16-.16.11-.3.2-.44.32-.15.14-.35.25-.53.36-.18.1-.36.2-.54.3-.22.11-.53.36-.76.24-.12-.07-.23-.14-.36-.2-.17-.07-.35-.12-.53-.19-.11-.04-.21-.11-.31-.18-.1-.06-.21-.07-.32-.11-.13-.05-.24-.1-.36-.16-.14-.06-.28-.11-.42-.16-.09-.03-.17-.1-.26-.14s-.19-.07-.29-.11c-.19-.07-.37-.16-.55-.25-.35-.17-.71-.34-1.07-.48-.65-.25-1.33-.57-2.03-.57,0,0,0,.02,0,.03-.05-.05-.18-.05-.24-.08-.11-.04-.22-.09-.34-.13-.31-.12-.64-.15-.97-.21-.24-.05-.46-.18-.7-.23-.17-.04-.32-.13-.49-.18-.16-.06-.34-.09-.5-.13-.16-.04-.31-.05-.46-.08-.14-.03-.27-.11-.41-.15-.15-.04-.34-.07-.5-.08-.15-.01-.28-.08-.43-.09-.18-.02-.35-.06-.52-.09-.07-.01-.14,0-.21,0-.07,0-.12-.04-.19-.05-.12-.02-.26,0-.38,0-.43,0-.86-.05-1.29-.05-.02-.14-.15-.34-.2-.48-.02-.06-.06-.11-.09-.16-.03-.06-.05-.12-.08-.17-.12-.16-.31-.26-.46-.38-.11-.09-.23-.16-.36-.24-.13-.08-.21-.12-.29-.26-.06-.1-.1-.25-.18-.34-.12-.14-.27-.23-.4-.36-.14-.14-.28-.31-.44-.43-.2-.14-.41-.25-.61-.37-.16-.09-.33-.06-.51-.06-.44,0-.87,0-1.17.38-.1.13-.21.26-.27.42-.06.16-.15.32-.22.48-.12.27-.33.4-.61.46-.21.05-.34.11-.51.24-.11.08-.21.15-.3.25-.08.09-.14.17-.22.25-.22.22-.36.51-.54.75-.19.26-.42.6-.48.92-.01.07-.11.11-.17.14-.08.05-.15.07-.24.1-.19.06-.39.1-.57.17-.08.03-.16.08-.24.12-.1.04-.2.09-.29.13-.11.05-.22.06-.32.12-.1.06-.2.11-.3.17-.11.07-.18.09-.3.09-.12,0-.25.05-.37.08-.25.07-.48.21-.73.29-.14.04-.29.04-.42.09-.12.05-.22.11-.34.15-.33.1-.7.14-1,.35.03-.13-.14-.16-.21-.22-.07-.06-.14-.14-.2-.21-.08-.09-.15-.18-.23-.26-.11-.12-.17-.27-.3-.38-.12-.11-.26-.18-.4-.26-.12-.07-.2-.15-.33-.14-.16,0-.32-.02-.48.01-.17.03-.35.09-.52.08,0,.01.02.03.03.04-.2-.12-.39-.36-.54-.53-.24-.27-.44-.58-.68-.85-.27-.32-.44-.72-.72-1.03-.09-.1-.17-.17-.24-.29-.04-.07-.09-.14-.15-.2-.15-.17-.23-.26-.47-.25-.2-.4-.47-.79-.68-1.2-.15-.29-.43-.47-.66-.69-.1-.1-.15-.21-.28-.27-.1-.05-.23-.03-.34-.03-.06-.15-.2-.28-.29-.4-.09-.13-.18-.25-.26-.38-.08-.13-.23-.22-.36-.3-.13-.08-.23-.2-.38-.2,0-.14-.07-.23-.13-.35-.08-.16-.21-.23-.32-.37-.19-.22-.36-.45-.58-.65-.13-.13-.3-.23-.45-.33-.15-.1-.3-.14-.46-.21-.38-.17-1.14.35-.71.7.13.1.25.18.39.26.11.05.19.14.29.21.19.14.36.31.51.48.13.16.27.31.42.45.09.08.2.17.33.19-.07.06-.11.06-.09.16,0,.03.05.1.07.13.06.09.17.15.24.24.08.09.09.21.16.3.07.1.15.18.21.28.08.12.21.24.32.32.08.06.21.2.32.19-.03.04-.09.05-.14.06-.05.18.08.24.21.33.15.11.31.2.46.31.11.08.18.2.28.29.11.11.23.21.34.32.14.15.25.3.4.43.11.1.25.38.4.37-.1.07-.05.32-.05.43,0,.13.06.18.13.29.06.1.18.2.26.29.14.16.28.33.44.48.15.15.27.33.43.47.15.13.31.31.44.46.06.07.06.08.14.13.06.04.11.07.17.12.09.07.18.08.27.14.1.06.2.18.33.19-.03.04-.05.12-.06.16-.03.1-.07.17-.13.26-.16.26-.23.61-.29.9-.06.28-.02.59-.02.87,0,.13.02.22.05.35.04.17.24.45.2.63-.01.07-.12.11-.17.16-.06.05-.11.12-.18.16-.2.12-.39.26-.58.4-.22.16-.48.31-.68.5-.1.09-.18.19-.29.27-.09.07-.17.15-.26.21-.09.07-.2.11-.29.18-.1.07-.16.18-.26.25-.12.09-.25.15-.37.25-.14.11-.26.2-.41.29-.11.07-.21.13-.33.18-.18.07-.33.21-.5.31-.28.18-.54.38-.8.59-.08.01-.14.07-.22.11-.08.04-.16.06-.24.1-.14.07-.25.14-.37.24-.16.14-.36.24-.53.37-.18.14-.37.25-.52.42-.13.14-.25.3-.39.44-.11.11-.24.19-.36.3-.18.17-.42.25-.59.43-.24.24-.43.53-.7.74-.16.13-.35.29-.53.39-.14.08-.26.14-.37.26-.3.1-.48.47-.68.67-.09.09-.2.14-.28.25-.09.12-.19.24-.29.35-.15.15-.28.32-.43.47-.07.07-.14.13-.21.2-.07.07-.11.14-.17.22-.06.07-.13.09-.2.14-.1.08-.19.2-.28.3-.14.14-.28.27-.42.42-.15.15-.26.33-.41.48-.63.63-1.04,1.43-1.6,2.11-.13.16-.27.36-.37.54-.07.13-.17.21-.26.33-.1.13-.17.28-.27.41-.12.15-.24.3-.35.47-.11.16-.26.31-.36.47-.09.14-.16.22-.32.29,0,.01-.09.05-.1.06-.16.33-.39.65-.62.94-.2.27-.45.5-.59.8-.25.55-.6,1.02-.94,1.54-.2.3-.47.55-.7.83-.24.29-.44.6-.67.88-.11.13-.26.24-.39.35-.15.12-.22.24-.35.37-.04.04-.15.15-.18.17-.08.05-.16-.02-.23,0-.13.06-.16.28-.16.42.21-.02.45-.21.63-.31.28-.14.57-.33.82-.51.32-.23.56-.51.82-.8.15-.17.25-.36.39-.54.14-.17.28-.29.39-.48.22-.37.45-.68.75-1,.17-.18.28-.4.45-.59.36-.42.69-.86,1.03-1.28.22-.27.48-.5.69-.78.12-.16.2-.36.34-.5.18-.2.33-.46.49-.67.27-.35.51-.71.78-1.07.43-.58.94-1.07,1.39-1.63.33-.41.61-.88.98-1.26.22-.22.46-.38.67-.61.15-.18.32-.34.47-.53.35-.44.79-.81,1.25-1.15.42-.31.89-.62,1.21-1.02.22-.27.44-.51.73-.71.36-.23.7-.49,1.07-.71.19-.11.39-.19.57-.32.2-.14.38-.32.58-.46.21-.15.4-.31.63-.43.2-.1.37-.17.53-.32.37-.35.82-.57,1.21-.89.3-.24.61-.49.95-.66.36-.18.66-.46.93-.76.17-.19.28-.39.48-.55.27-.22.58-.64.97-.58.21.55.63.88,1.09,1.22.61.45,1.27,1.05,2.05,1.05-.25.04-.74.52-.88.73-.16.23-.18.52-.33.76-.19.31-.3.41-.39.78-.12.46-.46.76-.49,1.22-.03.52.01,1.05,0,1.57-.02.98-.49,1.96-.66,2.92-.18,1-.29,2.1-.69,3.05-.91,2.17-1.78,4.27-2.1,6.63-.06.46-.15.89-.25,1.34-.13.53-.46.96-.64,1.46-.16.45-.41.88-.54,1.35-.23.85-.62,1.9-.52,2.77.04.36-.1.6-.16.94-.04.24,0,.49-.05.74-.12.67-.41,1.33-.49,1.98-.03.23-.11.39-.16.61-.05.23.01.46,0,.69-.06.68-.37,1.4-.58,2.06-.34,1.08-.49,2.17-.78,3.25-.21.77-.27,1.56-.43,2.33-.11.53-.27,1.09-.32,1.63-.12,1.34-.61,2.68-.85,4.02-.11.62-.03,1.24-.17,1.87-.11.51-.2,1.02-.33,1.5-.16.59-.17,1.21-.2,1.82-.05.88-.39,1.79-.58,2.65-.3,1.35-.31,2.66-.31,4.03,0,1.02-.14,2.2.04,3.21.13.76.32,1.53.31,2.31,0,.73.05,1.46,0,2.19-.01.21.14.76.19.96.05.21.11.39.15.6.15.68.32,1.47.7,2.07.36.57.62,1.06.88,1.68.14.34.43,1.18.78,1.32.41.16.91,0,1.24-.17.4-.2.84-.29,1.24-.51.34-.19.68-.45.97-.7.18-.16.33-.43.55-.51.21-.08.51-.06.74-.14.25-.08.49-.2.75-.23.3-.03.58.05.88-.03.2-.05.3-.13.51-.14.46-.02.8-.16,1.25-.3.92-.28,1.79-.53,2.66-.93.46-.21.85-.46,1.32-.63.44-.16.76-.49,1.15-.75.37-.24.81-.49,1.2-.7.19-.1.39-.11.57-.21.17-.09.26-.24.47-.29.41-.11.81-.19,1.22-.34.48-.17.68-.48,1.01-.86.59-.69,1.16-1.36,1.38-2.28.88.01,1.47-1.54,1.56-2.26.37-.01.66-.31.92-.54.4-.35,1.56-1.32,1.49-1.93.07-.02.25.03.31.06.2.12.4.2.62.28.32.11.65.22.86.49.27.36.68.57,1.05.83.34.25.71.48,1.02.76.65.57,1.14,1.38,1.98,1.68.08.03.15.1.22.16.16.14.33.26.46.43.18.23.37.45.59.64.43.37.94.56,1.47.75.27.1.52.25.8.36.27.1.5.22.75.36.24.13.46.17.71.26.26.09.5.19.77.25.68.16,1.36.42,2,.69.63.27,1.36.41,2.04.44.65.03,1.29.12,1.94.13.45.22.9.48,1.38.62.57.16,1.15.28,1.73.4.29.06.57.17.87.22.31.05.65.01.97.01.84,0,1.8-.01,2.6.3.48.18.97.4,1.48.43.34.02.64-.02.97-.12.36-.11.62-.31.91-.55.29-.24.57-.47.87-.7.48-.37.89-.89,1.24-1.38.26-.37.38-.68.39-1.13.03-.93-.14-1.87-.14-2.8,0-.47-.07-.91-.07-1.38,0-.6,0-1.2,0-1.81,0-.32.01-.64,0-.95-.03-.41-.14-.8-.19-1.21-.1-.87-.22-1.77-.39-2.63-.03-.17-.1-.33-.12-.5-.03-.19-.02-.35-.07-.55-.12-.44-.25-.88-.34-1.32-.03-.16-.04-.33-.08-.49-.05-.22-.13-.42-.17-.64-.06-.34-.2-.66-.26-1-.13-.71-.36-1.41-.55-2.1-.1-.36-.23-.7-.38-1.04-.14-.32-.4-.73-.33-1.1.11,0,.17.12.26.17.08.04.19.06.27.09.15.07.28.18.44.25.37.16.68.47.99.72.17.13.39.21.55.36.18.16.35.32.53.48.34.29.6.64.96.92.44.35.81.79,1.28,1.12.31.21.58.49.92.66.31.15.67.16.97.34.22.13.33.28.6.28.15,0,.49-.04.59-.17.06-.08.07-.4.03-.5-.06-.14-.29-.25-.4-.34-.09-.07-.18-.17-.27-.24-.13-.09-.28-.17-.41-.24-.12-.07-.2-.16-.31-.24-.48-.34-.99-.66-1.47-1-.18-.13-.34-.28-.52-.42-.14-.1-.28-.17-.43-.26-.19-.13-.33-.3-.49-.45-.17-.15-.34-.27-.5-.44-.19-.19-.41-.35-.58-.55-.18-.22-.35-.44-.53-.66-.14-.17-.24-.36-.39-.53-.14-.17-.32-.34-.47-.5-.33-.35-.69-.69-1.1-.95-.23-.15-.47-.28-.71-.42-.11-.07-.61-.73-.78-.65,0,.05,0,.1,0,.15-.01-.12-.06-.24-.09-.36-.09-.35-.23-.67-.37-1.01-.11-.26-.16-.56-.27-.82-.24-.58-.58-1.14-.88-1.69-.4-.74-.74-1.54-1.03-2.33-.18-.51-.34-1.1-.59-1.58-.29-.56-.87-1.18-.95-1.8.25.25.46.65.75.84.22.14.4.25.59.44.16.16.26.35.41.52.19.21.43.37.67.51.31.19.62.44.91.67.27.21.56.39.83.59.34.24.49.41.93.4.28,0,.46.01.36-.32-.07-.22-.33-.61-.51-.76-.23-.18-.41-.35-.65-.52-.29-.22-.49-.51-.77-.75-.47-.4-.85-.91-1.28-1.35-.27-.27-.57-.51-.82-.8-.58-.67-1.01-1.56-1.85-1.96-.36-.17-.48-.35-.66-.69-.25-.45-.86-.98-.73-1.54-.03,0-.06-.01-.09-.02-.37-1.02-.74-2.04-1.14-3.05-.41-1.05-.97-2.08-1.47-3.1-.54-1.1-1.02-2.22-1.56-3.32-.14-.29-.22-.61-.36-.9-.11-.22-.28-.39-.38-.62-.24-.55-.43-1.13-.66-1.69-.26-.66-.69-1.27-1.01-1.91-.18-.35-.39-.76-.52-1.13-.05-.14-.08-.34-.1-.48-.07-.4-.16-.78-.24-1.18-.15-.73-.11-1.5-.32-2.21-.11-.37-.18-.75-.3-1.12-.13-.44-.3-.71-.56-1.07-.1-.13-.19-.26-.28-.39-.17-.22-.73-.63-.85-.87-.06-.12-.16-.28-.26-.38-.07-.07-.19-.16-.18-.27,0-.1.07-.18.13-.27.08-.11.17-.21.25-.32.06-.08.12-.2.17-.29.05-.1.08-.21.14-.31.09-.13.13-.24.2-.38.08-.18.17-.34.22-.53.06-.19.09-.37.09-.57,0-.11-.02-.17.09-.23.24-.14.53-.09.8-.13.26-.05.52-.03.78-.06.15-.02.3,0,.45-.01.11-.01.22-.04.33-.06.17-.04.34-.08.5-.14.09-.04.13-.02.16-.11.03-.08,0-.16.06-.23.06-.08.25-.13.34-.12.12,0,.24.06.35.1.16.04.32.1.47.16.1.03.2.05.29.1.09.05.2.05.3.09.09.04.18.09.26.14.16.1.35.16.52.24.27.13.53.25.82.34.23.07.45.14.67.24.19.09.37.18.56.28.16.08.33.13.49.21.22.1.45.2.68.29.23.1.46.22.7.3.15.05.28.13.41.22.14.1.26.21.44.22.07,0,.14.08.2.12.09.05.17.1.26.15.08.05.16.11.25.16.05.03.08.06.13.09.06.03.13.06.19.09.15.08.29.16.43.24.12.07.25.09.36.16.24.14.44.32.68.46.05.03.1.06.15.09.05.03.07.07.12.11.04.03.08.04.12.06.06.04.11.09.17.13.12.09.25.15.37.25.12.1.22.14.37.2.11.04.21.08.29.17.1.11.22.18.33.27.14.11.31.18.46.28.08.05.17.12.27.1,0,0-.01-.01-.02-.02.13.08.23.2.33.3.12.12.25.21.4.3.14.09.29.15.43.24.14.09.27.18.42.26.07.04.12.08.19.12.09.05.15.11.23.17.12.08.25.14.37.21.08.05.15.11.23.16.15.08.29.16.43.25.11.07.22.12.33.18.08.04.14.1.21.15.09.06.18.13.27.19.1.07.18.18.28.24.07.04.14.07.21.11.12.07.2.19.32.27.11.07.23.15.34.23.04.04.08.08.13.12.09.06.19.13.29.18.09.04.19.12.28.18.18.13.33.29.51.43.07.05.15.09.22.15.05.04.2.11.23.18.01.04.07.08.11.11.06.06.13.1.2.13.12.06.23.12.34.2.12.08.21.19.33.28.2.15.38.32.58.47.25.19.49.39.73.6.05.04.1.06.16.1.06.04.1.1.14.14.11.1.22.2.34.29.16.12.31.26.46.4.16.14.35.22.51.34.09.07.17.19.29.21.14.02.19-.13.32-.15-.05,0-.04-.05-.06-.09ZM43.18,16.88s-.07.05-.09.07c-.03.03-.04.06-.07.08-.07.08-.15.15-.23.22-.11.11-.2.24-.31.36-.09.1-.18.18-.28.27-.11.09-.21.2-.32.3-.09.07-.18.15-.24.24-.05.07-.09.14-.14.2-.05.08-.1.16-.16.23-.02.02-.02.03-.05.02-.04-.01-.07-.15-.09-.18-.09-.16-.21-.29-.31-.45-.09-.13-.19-.26-.28-.39-.07-.1-.16-.17-.24-.27-.1-.12-.18-.26-.29-.38-.09-.09-.17-.18-.27-.26-.09-.07-.19-.16-.26-.25-.03-.04-.06-.08-.1-.12-.02-.02-.07-.05-.08-.11.34.03.59-.24.88-.36.11-.05.24-.08.36-.11.25-.07.5-.16.75-.23.42-.12.82-.29,1.23-.45.02,0,.08-.05.1-.04.02,0,.01.05.01.07,0,.1,0,.2.02.29.04.12.09.23.13.35.05.12.1.25.16.37.02.04.04.07.06.11.02.04.03.09.05.13.02.07.06.13.07.21,0,.03,0,.04-.02.07ZM64.81,17.55c-.06.02-.13,0-.19,0-.14.01-.29.05-.43.06-.06,0-.12,0-.18,0-.08,0-.16.04-.24.05-.13.02-.26.04-.39.04-.43,0-.88.04-1.3-.02-.17-.03-.33-.07-.5-.07-.17,0-.34,0-.51,0-.12,0-.24,0-.36,0-.1-.01-.2-.04-.3-.05-.12-.01-.23,0-.35,0-.12,0-.24-.03-.36-.03-.13,0-.26.01-.39,0-.15-.02-.3-.07-.45-.11-.3-.07-.6-.11-.91-.15-.23-.03-.47-.04-.7-.07-.16-.02-.34-.04-.5-.08-.18-.05-.36-.02-.54-.03-.23-.02-.46-.02-.69-.09-.03-.01-.06-.04-.09-.05-.07-.03-.15-.04-.22-.07-.19-.06-.4-.1-.58-.18-.18-.08-.38-.17-.49-.34-.04-.07-.03-.15-.03-.23,0-.15,0-.3,0-.44,0-.08-.03-.16-.03-.25,0-.07,0-.13-.02-.2-.04-.14-.11-.29-.19-.41-.06-.09-.12-.17-.18-.26-.07-.11-.14-.21-.22-.31-.03-.02-.05-.05-.05-.08,0,0-.01,0-.02,0,0,0,.01-.02.02-.02,0,.01,0,.02,0,.03.03,0,.06.02.09.03.05.01.11,0,.17,0,.04,0,.06.02.1.03.13.04.27.04.4.06.58.07,1.19.11,1.76.27.26.07.53.12.79.18.1.02.19.05.29.07.12.02.23.08.36.11.45.1.91.16,1.36.3.3.1.6.19.9.32.19.08.39.14.58.22.13.06.25.13.39.18.24.1.5.18.75.24.21.06.46.09.65.2.4.24.86.3,1.29.46.24.09.48.19.73.29.14.06.27.13.41.18.18.07.41.16.61.17,0,0-.21.08-.22.09Z"/>
</svg>