<?xml version="1.0" encoding="UTF-8"?>
<svg id="a" data-name="Layer 1" xmlns="http://www.w3.org/2000/svg" xmlns:xlink="http://www.w3.org/1999/xlink" viewBox="0 0 203.72 179.72">
  <defs>
    <style>
      .c {
        fill: url(#b);
      }

      .d {
        fill: none;
        stroke: #fff;
        stroke-miterlimit: 10;
        stroke-width: 3px;
      }
    </style>
    <linearGradient id="b" x1="101.22" y1="36.99" x2="101.22" y2="150.13" gradientUnits="userSpaceOnUse">
      <stop offset=".17" stop-color="#fff" stop-opacity="0"/>
      <stop offset=".24" stop-color="#fff" stop-opacity=".05"/>
      <stop offset=".39" stop-color="#fff" stop-opacity=".2"/>
      <stop offset=".58" stop-color="#fff" stop-opacity=".42"/>
      <stop offset=".82" stop-color="#fff" stop-opacity=".74"/>
      <stop offset="1" stop-color="#fff"/>
    </linearGradient>
  </defs>
  <path class="d" d="M160.59,94.45l-.91-1.29L101.22,5l-58.75,88.17-.62,1.29c-2.81,6.17-4.41,12.86-4.41,19.88,0,30.19,28.55,54.67,63.78,54.67s63.78-24.48,63.78-54.67c0-7.02-1.6-13.71-4.41-19.88Z"/>
  <path class="c" d="M142.18,98.7l-.62-.89-40.33-60.83-40.53,60.83-.43.89c-1.94,4.25-3.05,8.87-3.05,13.71,0,20.83,19.7,37.72,44,37.72s44-16.89,44-37.72c0-4.84-1.1-9.46-3.05-13.71Z"/>
</svg>