<?xml version="1.0" encoding="UTF-8"?>
<svg id="a" data-name="Layer 1" xmlns="http://www.w3.org/2000/svg" viewBox="0 0 569.24 569.24">
  <path d="M191.64,332.4c-.13.79-.2,1.36-.2,1.58,0,.68.14-.02.2-1.58Z"/>
  <path d="M143.39,202.82c-5.75,6.49-7.61,18.55-7.61,18.55,0,0,5.94-9.09,12.99-14.1,7.05-5.01,22.45-8.53,22.45-8.53,0,0-8.35,3.71-15.77,10.2-7.42,6.49-10.76,15.59-10.76,15.59,0,0,4.82-5.01,7.24-6.87,2.41-1.86,2.78-2.04,2.78-2.04,0,0-2.71,4.72-3.36,8.65-.66,3.94-.39,6.17-.39,6.17,0,0,2.1-8.4,11.02-15.48,8.92-7.09,11.15-7.48,11.15-7.48,0,0-2.76,1.71-4.86,6.56-2.1,4.85-3.67,12.99-3.67,12.99,0,0,5.38-12.07,7.87-14.96,2.49-2.89,8.53-5.77,8.53-5.77,0,0-3.15,2.36-4.72,4.99-1.57,2.63-3.41,8.27-3.41,8.27,0,0,6.43-7.48,10.49-10.63,4.07-3.15,9.18-4.59,9.18-4.59,0,0-9.45,10.76-13.38,14.69-3.94,3.94-11.55,10.76-11.55,10.76,0,0,16.01-11.54,21.51-15.74,5.51-4.2,8.92-7.09,8.92-7.09,0,0-2.89,7-5.31,9.97-2.41,2.97-3.15,3.9-3.15,3.9,0,0,9.09-7.05,11.5-10.02,2.41-2.97,2.6-2.97,2.6-2.97l-2.23,6.86,5.94-5.38-2.04,3.71,8.91-3.15-3.71,3.15,7.24-1.3-1.67,1.67h4.27s-41.19,13.92-52.88,20.41c-11.69,6.49-20.97,20.6-24.86,30.8-3.9,10.2-5.38,20.96-4.45,28.39.93,7.42,4.49,13.15,4.49,13.15,0,0-.59-10.37-.41-16.67.19-6.31,2.04-14.84,2.04-14.84,0,0,.56,12.06.93,18.93.37,6.87.18,9.28.18,9.28,0,0,5.01-10.76,6.12-17.44,1.11-6.68,2.41-15.59,2.41-15.59,0,0,1.85,8.16,1.3,11.13-.56,2.97-1.48,6.87-1.48,6.87,0,0,3.9-8.35,6.87-16.14,2.97-7.79,9.46-18.92,9.46-18.92,0,0-7.05,15.58-7.98,25.79-.93,10.2,1.11,19.11,1.11,19.11,0,0,3.71-16.14,4.64-18.93.93-2.78,10.95-23.75,10.95-23.75,0,0-.56,8.72-1.48,13.91-.93,5.2-4.64,23.38-4.64,23.38,0,0,6.86-16.88,10.58-27.64,3.71-10.76,5.94-17.07,5.94-17.07,0,0,.74,13.92-1.3,21.52-2.04,7.61-6.68,20.78-6.68,20.78,0,0,10.02-13.91,13.17-21.52,3.15-7.61,10.95-24.49,10.95-24.49,0,0-.37,6.87-.93,11.87-.56,5.01-1.3,12.62-1.3,12.62,0,0,5.94-14.1,8.35-16.51,2.41-2.41,6.68-11.69,6.68-11.69l-.56,8.35s5.01-4.45,6.12-6.68c1.11-2.23,1.86-3.71,1.86-3.71,0,0,0,3.52-.19,5.01-.19,1.48-3.15,7.98-12.25,18.18-9.09,10.2-19.85,22.08-27.46,33.95-7.61,11.87-11.13,15.03-11.13,26.53s4.82,28.76,4.82,28.76c0,0,.37-8.72,1.3-13.91.93-5.2,2.6-8.72,2.6-8.72,0,0,.93,2.78,1.11,9.65.19,6.86.93,15.77.93,15.77,0,0,2.04-14.1,3.53-21.89,1.48-7.79,1.3-13.17,1.3-13.17,0,0,1.3,6.12,1.48,10.21.07,1.6.06,2.97.02,3.98.5-3.15,1.8-9.96,2.39-13.82.74-4.82,1.3-7.61,1.3-7.61l2.97,11.32s2.41-7.24,2.97-12.06c.56-4.82,2.23-9.83,2.23-9.83l2.78,12.25s2.41-7.98,2.6-11.69c.19-3.71,1.11-9.28,1.11-9.28l2.23,6.86,4.08-8.53-4.08,12.43,3.9-4.45s-2.41,11.87-3.34,17.44c-.93,5.56-.93,8.91-2.23,11.5-1.3,2.6-1.3,2.78-1.3,2.78,0,0,3.75-3.52,4.8-5.22,1.05-1.7,1.44-2.62,1.44-2.62,0,0,.26,5.64,0,12.46-.26,6.82.39,14.3.52,12.99.13-1.31.92-5.51,1.71-8.13.79-2.62,2.1-3.54,2.1-3.54,0,0-1.11,7.42-.37,13.73.74,6.31,1.67,11.5,1.67,11.5,0,0,1.3-10.2,2.23-12.62.93-2.41,1.3,5.75,2.6,11.13,1.3,5.38,2.97,9.28,2.97,9.28,0,0,.19-11.32.56-14.84.37-3.53,1.86-8.35,1.86-8.35,0,0,2.6,5.2,2.78,7.61.18,2.41.18,4.08.18,4.08,0,0,1.86-7.79,1.86-12.06s-.74-9.46-.74-9.46l4.82,7.61s-1.67-6.68-2.23-11.87c-.56-5.19-1.11-7.61-1.11-7.61,0,0,2.78.74,4.45,4.27,1.67,3.52,1.86,5.94,2.04,5.19.19-.74-1.67-9.65-3.52-15.4-1.86-5.75-5.01-11.32-5.01-11.32,0,0,5.94,4.45,10.39,10.76,4.45,6.31,7.79,12.25,7.79,12.25,0,0-4.64-15.95-7.24-21.89-2.6-5.94-7.79-11.13-7.79-11.13,0,0,8.53,3.53,12.43,2.97,3.9-.56,6.68-1.11,6.68-1.11,0,0-8.9-3.34-11.5-8.9-2.6-5.57-2.97-8.72-2.97-8.72,0,0,5.75,5.94,9.28,7.79,3.52,1.86,5.01,2.41,5.01,2.41,0,0-5.56-6.49-7.24-10.39-1.67-3.9-2.6-6.49-2.6-6.49,0,0,6.12,7.98,8.91,8.9,2.78.93,2.97.56,2.97.56,0,0-5.94-7.79-6.68-10.21l-.74-2.41s13.17,5.56,12.43,7.79c-.74,2.23-3.15,3.71-3.15,3.71,0,0,7.24,1.11,4.64,2.23-2.6,1.11-6.31.74-6.31.74,0,0,7.98,2.23,7.05,4.08-.93,1.86-6.49,2.23-6.49,2.23,0,0,6.87.37,5.75,2.78-1.11,2.41-8.72,5.38-8.72,5.38,0,0,10.95-.37,7.79,1.11-3.15,1.48-7.05,3.52-7.05,3.52,0,0,9.3-.19,8.51,2.43-.79,2.62-3.15,4.72-3.15,4.72,0,0,2.89-.26,3.41,3.15s.13,9.73-.98,27.55c-1.11,17.81-3.71,69.39-4.45,93.14-.71,22.85.97,87.58-1.21,94.78l22.02-1.96c-.88-7.6-7.28-64.41-7.77-116.68-.52-56.15,4.99-116.76,4.99-116.76l-.03,13.16,6.31-3.9s-5.94,7.98-6.31,9.83c-.37,1.86-.74,4.83-.74,4.83,0,0,9.46-10.95,9.28-9.09-.19,1.86-6.68,10.02-7.61,12.8-.93,2.78-2.04,6.49-2.04,6.49,0,0,9.28-9.28,10.02-9.83.74-.56-4.64,8.53-7.05,12.25-2.41,3.71-3.71,8.72-3.71,8.72l11.32-12.06s-2.04,5.2-3.52,7.24c-1.48,2.04-3.71,5.57-3.71,5.57l8.35-6.31s-2.6,5.01-5.75,8.16c-3.15,3.15-5.94,8.35-5.94,8.35,0,0,5.01-3.15,7.42-5.19,2.41-2.04,5.75-5.57,5.75-5.57,0,0-1.11,4.83-4.08,8.16-2.97,3.34-4.27,5.2-4.27,5.2l7.24-4.64-2.78,7.05s6.31-4.27,8.16-7.24c1.86-2.97,2.97-4.27,2.97-4.27,0,0-1.86,7.61-4.27,12.43-2.41,4.83-7.24,11.69-7.24,11.69,0,0,8.35-5.75,11.87-11.13,3.52-5.38,4.45-6.49,4.45-6.49,0,0,.37,6.68-1.11,10.95-1.49,4.27-2.41,5.94-2.41,5.94,0,0,6.87-5.38,10.58-13.54,3.71-8.16,2.78-11.13,2.78-11.13,0,0,3.52,5.38,4.27,9.83l.74,4.45s.37-10.76-.56-16.14c-.71-4.13-.88-4.87-.92-4.99.12.18,1.92,2.82,4.07,4.43,2.23,1.67,3.15,1.86,3.15,1.86,0,0-3.71-4.82-4.64-9.09-.93-4.27-1.11-9.65-1.11-9.65,0,0,.74,1.48,2.41,3.52,1.67,2.04,3.9,3.15,3.9,3.15,0,0-4.08-11.13-4.64-14.66-.56-3.52-.74-5.2-.74-5.2,0,0,1.48.74,3.9,0,2.41-.74,3.34-1.3,3.34-1.3,0,0-6.12-1.48-7.42-4.64-1.09-2.65-1.66-5.56-1.81-6.42.12.27.55.67,2,.67,2.23,0,3.15-.18,3.15-.18,0,0-5.01-2.41-5.2-5.01-.18-2.6-.18-3.71-.18-3.71,0,0,1.48,1.67,3.52,1.67s4.27-1.48,4.27-1.48c0,0-6.31-.74-6.86-3.52-.56-2.78-.93-6.49-.93-6.49,0,0,3.15-.56,5.19.56,2.04,1.11,3.71,1.86,3.71,1.86,0,0-4.45-2.97-7.98-7.79-3.53-4.82-5.01-5.56-5.01-5.56,0,0,5.19,2.41,5.94,2.6.74.18-7.24-6.68-8.35-8.16-1.11-1.48,3.89-1.48,3.89-1.48,0,0-6.31-3.15-6.68-4.64-.37-1.48,3.34-6.87,7.79-3.71,4.45,3.15,2.03,5.93,2.03,5.93,0,0,8.79-1.84,8.92.79.13,2.62-6.43,4.07-6.43,4.07,0,0,3.41.39,7.09.79,3.67.39,6.03-.52,5.25,1.05-.79,1.57-6.82,5.51-6.82,5.51,0,0,5.12,0,7.48-.52,2.36-.52,6.95,1.18,5.25,4.07-1.71,2.89-3.94,11.94-3.94,11.94,0,0,5.9-5.77,7.61-7.87,1.71-2.1,4.99-5.25,4.86-1.97-.13,3.28-2.63,17.19-2.63,17.19,0,0,6.17-12.99,9.18-11.55,3.02,1.44.39,16.01.39,16.01,0,0,5.77-11.28,5.64-7.87-.13,3.41-5.51,17.19-5.25,20.21.26,3.02,1.18,4.2,1.18,4.2l6.03-14.56s.66,2.23,0,11.28c-.66,9.05-1.31,14.96-1.31,14.96,0,0,4.46-8.4,5.12-14.69.66-6.3,1.31-11.55,2.1-7.22.79,4.33-2.1,23.75-2.1,23.75,0,0,3.02-6.3,4.33-12.6,1.31-6.3,1.84-7.48,1.84-7.48,0,0,.92,12.72,2.1,19.81,1.18,7.08,2.49,8.4,2.49,8.4,0,0-1.57-29.78.26-26.76,1.84,3.02,2.36,20.33,3.41,22.56,1.05,2.23,2.23,5.12,2.1,4.46-.13-.66-.39-13.25.13-15.09.52-1.84,1.44,13.78,3.8,16.4,2.36,2.62,3.02,3.8,3.02,3.8,0,0,4.23-14.2-.78-35.54-5.01-21.34-17.63-38.78-23.01-45.27-5.38-6.49-3.34-13.91-3.34-13.91,0,0,4.82,4.08,5.75,7.24.93,3.15.93,2.04.93,2.04l-.37-9.28s1.86,3.52,2.97,9.65c1.11,6.12,2.23,10.02,2.23,9.28s-.56-19.29-.56-19.29c0,0,3.53,6.68,3.9,10.95.37,4.27,2.23,16.51,2.23,16.51,0,0,.18-10.76,0-13.73-.19-2.97.93-12.06.93-12.06,0,0,.93,13.92,2.41,19.67,1.48,5.75,3.71,14.84,3.71,14.84,0,0,.19-9.09-.55-15.03-.74-5.94,1.3-18.55,1.3-18.55,0,0,1.3,16.14,2.41,20.97,1.11,4.82,1.48,17.44,1.48,17.44,0,0,2.6-14.47,2.41-17.81-.19-3.34,1.3-18,1.3-18,0,0,2.6,6.31,2.97,12.06.37,5.75.19,20.78.19,20.78,0,0,2.23-7.05,2.04-11.69-.18-4.64,1.86-18.92,1.86-18.92,0,0,1.49,9.28,2.04,16.14.56,6.86,1.48,17.44,1.48,17.44,0,0,2.04-9.09,1.86-18-.19-8.91,0-13.91,0-13.91,0,0,3.34,7.61,4.08,16.51.74,8.91,1.85,13.73,1.85,13.73,0,0-.18-19.48.56-22.45.74-2.97,1.11-3.71,1.11-3.71,0,0,.74,5.19,2.41,12.8,1.67,7.61,2.23,13.54,2.23,13.54,0,0-.37-15.96-.19-18.93.19-2.97.93-5.94.93-5.94,0,0,0,3.71,1.86,14.1,1.86,10.39,3.34,15.21,3.34,15.21,0,0-1.11-11.5-.37-16.51.74-5.01,1.48-7.24,1.48-7.24,0,0,1.48,5.01,2.41,10.95.93,5.94,1.11,15.59,1.3,14.47.18-1.11,2.04-12.99,1.67-16.7-.37-3.71,0-4.82,0-4.82,0,0,3.71,8.72,3.53,16.88-.19,8.16-2.23,17.63-2.23,17.63,0,0,5.94-9.83,6.68-19.85.74-10.02.18-14.1.18-14.1,0,0,3.71,6.12,4.45,11.87.74,5.75,1.3,9.28,1.3,9.28,0,0,2.04-10.21,1.86-13.91-.18-3.71,0-5.01,0-5.01,0,0,2.97,2.78,3.71,8.91.74,6.12.74,9.28.74,9.28,0,0,4.83-11.69.19-22.64-4.64-10.94-23.93-30.43-56.22-41.19-32.28-10.76-49.54-15.65-52.69-18.8-3.15-3.15-5.77-6.03-5.77-6.03l10.23,6.03-4.83-8.1s7.79,2.41,9.28,5.94c1.48,3.53,2.41,5.2,2.41,5.2,0,0-.37-8.72-1.67-11.13-1.3-2.41-1.67-3.53-1.67-3.53,0,0,7.05.19,10.02,6.68,2.97,6.49,4.27,7.61,4.27,7.61,0,0-2.41-12.06-3.71-14.1-1.3-2.04-.74-1.48-.74-1.48,0,0,7.24,4.45,9.65,9.65,2.41,5.19,4.64,10.02,4.64,10.02,0,0-1.48-14.47-3.71-18.18l-2.23-3.71s7.24,2.78,10.02,11.13c2.78,8.35,8.72,15.77,8.72,15.77,0,0-4.08-12.43-4.64-16.33-.56-3.9-.18-10.02-.18-10.02,0,0,4.27,10.57,5.94,15.77,1.67,5.2,5.01,9.83,5.01,9.83,0,0-1.67-13.73-1.48-17.07.18-3.34,1.11-6.49,1.11-6.49,0,0,2.23,9.28,4.08,15.21,1.86,5.94,2.78,7.05,2.78,7.05,0,0-1.11-12.8-.93-15.4.19-2.6,1.11-4.08,1.11-4.08,0,0,1.67,4.45,2.6,9.46.93,5.01,2.41,9.65,2.41,9.65l-.37-18s1.67,5.38,2.97,9.65c1.3,4.27,2.78,9.83,2.78,9.83,0,0-1.11-14.1-1.11-16.14s1.11-3.15,1.11-3.15c0,0,2.41,7.79,2.78,13.36.37,5.57.93,10.95.93,10.95,0,0,2.04-7.61,2.04-12.06s.74-8.16.74-8.16c0,0,2.97,6.68,3.9,11.13.93,4.45,1.48,7.79,1.48,7.79,0,0,.56-9.09.18-12.8-.37-3.71-.18-4.83-.18-4.83,0,0,3.53,7.05,4.27,10.58.74,3.52.74,4.45.74,4.45,0,0,1.3-9.46.56-11.5l-.74-2.04s3.89,5.2,5.01,8.53c1.11,3.34,1.3,5.01,1.3,5.01,0,0,.93-5.01,0-8.16-.93-3.15-.18-2.6-.18-2.6,0,0,3.15.74,4.82,4.82,1.67,4.08,2.23,5.75,2.23,5.75,0,0,2.78-9.28-9.46-18-12.25-8.72-37.33-17.37-51.5-19.73-14.17-2.36-20.47-4.72-20.47-4.72,0,0,16.79-2.1,25.71-2.1s19.42-2.36,19.42-2.36c0,0-9.9.34-14.53-.22-4.64-.56-6.68-1.11-6.68-1.11,0,0,13.36-2.97,21.89-3.71,8.54-.74,18-3.71,18-3.71,0,0-15.03.37-18.74.56-3.71.19-11.13,1.11-11.13,1.11,0,0,6.68-4.45,12.43-5.57,5.75-1.11,8.72-2.41,8.72-2.41,0,0-6.68-.74-9.46-.56-2.78.18-3.34.18-3.34.18,0,0,4.08-3.9,13.73-3.9h11.13s-5.38-1.67-11.87-2.04c-6.49-.37-8.54-.37-8.54-.37,0,0,5.94-3.15,14.1-3.15s15.03.56,15.03.56c0,0-5.38-4.27-12.62-4.64-7.24-.37-17.44,2.41-17.44,2.41,0,0,4.82-3.9,7.05-4.83,2.23-.93,8.16-1.48,8.16-1.48,0,0-2.6-3.15-12.62-2.23-10.02.93-31.54,15.21-40.45,21.71-8.9,6.49-26.9,28.94-30.06,26.34-3.15-2.6-2.97-7.98-.37-9.28,2.6-1.3,7.05-1.86,7.05-1.86,0,0-6.12-2.41-4.08-3.9,2.04-1.48,12.8-1.86,12.8-1.86,0,0-15.21-5.94-11.69-7.24,3.52-1.3,19.29.37,19.29.37,0,0-12.62-5.2-12.25-7.24.37-2.04,18.93.18,18.93.18,0,0-18.74-6.12-15.59-7.98,3.15-1.86,22.45,1.86,22.45,1.86,0,0-15.96-6.68-15.4-7.98.56-1.3,27.09-.18,27.09-.18,0,0-22.82-3.34-22.08-5.57.74-2.23,20.41-3.34,22.26-4.45,1.86-1.11,2.78-2.04,2.78-2.04,0,0-8.72,1.3-15.21.55-6.49-.74-7.24-2.97-2.23-3.71,5.01-.74,14.84-1.3,14.84-1.3,0,0-15.4-1.48-12.06-2.78,3.34-1.3,7.42-3.71,13.36-3.15,5.94.56,9.28,3.15,9.28,3.15,0,0-9.65-13.17-24.49-8.72-14.84,4.45-53.44,39.15-55.29,39.15s-.56-2.78,6.49-9.83c7.05-7.05,19.3-16.7,19.3-16.7,0,0-12.43,5.75-17.63,9.65-5.2,3.9-11.32,7.79-11.32,7.79,0,0,6.68-9.83,12.62-15.21,5.94-5.38,18.92-16.7,18.92-16.7,0,0-15.21,7.42-19.48,10.58-4.27,3.15-12.25,6.31-12.25,6.31,0,0,11.32-8.16,17.07-13.55,5.75-5.38,7.61-10.76,7.61-10.76,0,0-10.39,8.16-15.77,11.5-5.38,3.34-8.9,4.82-8.9,4.82,0,0,12.25-10.95,17.44-16.7,5.2-5.75,6.87-14.66,6.87-14.66,0,0-1.86,3.53-7.79,6.49-5.94,2.97-10.57,4.82-8.53,1.48,2.04-3.34,14.29-16.51,15.21-18.18.93-1.67,1.3-3.34,1.3-3.34,0,0-9.83,7.98-13.36,10.76-3.53,2.78-14.66,16.51-14.66,16.51,0,0,.37-9.28,5.38-14.47s16.33-22.08,16.33-22.08c0,0-7.98,5.56-9.65,7.24-1.67,1.67-5.57,5.94-5.57,5.94,0,0,6.68-10.39,9.65-17.81,2.97-7.42,2.97-10.76,2.97-10.76,0,0-8.16,9.83-11.13,14.84-2.97,5.01-5.75,10.76-5.75,10.76,0,0,4.27-15.59,5.19-25.05.93-9.46.93-14.1.93-14.1,0,0-5.01,8.35-7.05,13.55l-2.04,5.19-.93-12.8s-2.6,7.24-2.97,12.43c-.37,5.19-.74,10.39-.74,10.39l-1.86-23.75s-2.41,10.76-2.97,13.55c-.56,2.78-.93,3.34-.93,3.34l-3.15-6.86s1.11,6.31,1.86,11.32c.74,5.01,2.23,9.28,2.23,9.28,0,0-4.45-8.53-7.05-12.06-2.6-3.52-5.75-5.19-5.75-5.19,0,0,2.78,10.58,5.94,16.33,3.15,5.75,4.83,11.69,4.83,11.69l-14.47-18s3.34,9.83,5.94,15.03c2.6,5.19,4.83,12.06,4.83,12.06,0,0-7.61-5.19-12.8-9.09-5.2-3.9-13.17-4.27-13.17-4.27,0,0,9.83,5.38,15.21,11.5,5.38,6.12,6.86,13.17,6.86,13.17,0,0-8.9-8.35-13.73-10.76-4.82-2.41-11.87-1.86-11.87-1.86,0,0,8.35,2.78,13.36,7.79,5.01,5.01,11.13,15.58,11.13,15.58,0,0-9.65-7.61-15.4-11.5-5.75-3.9-9.09-4.08-9.09-4.08,0,0,2.6,3.52,9.09,9.83,6.49,6.31,14.1,14.66,14.1,14.66l-20.04-13.91s6.12,7.98,10.39,12.62c4.27,4.64,9.09,8.72,9.09,8.72l-20.78-12.8s9.09,10.57,11.87,13.17c2.78,2.6,6.86,8.35,6.86,8.35l-18.74-13.91s12.8,15.59,14.47,18.37c1.67,2.78,2.04,6.86,2.04,6.86,0,0-6.86-9.65-11.13-12.43l-4.27-2.78s6.68,9.46,7.98,12.99c1.3,3.53,2.04,7.42,2.04,7.42l-5.87-7.3,1.57,6.82s-6.03-9.45-7.35-18.1c-1.31-8.66-.26-12.07-1.57-20.47-1.31-8.4-2.89-12.6-2.89-12.6,0,0,.15,3.03.15,9.9v16.51s-1.67-18.93-2.78-24.49l-1.11-5.56-.19,12.25-3.15-20.22-1.11,15.22-3.9-19.48-.37,14.29-4.64-15.77-.93,10.58-3.52-17.07-.56,13.17-3.34-16.14v11.5l-2.97-14.66-.37,10.39-4.64-10.76.56,6.12s-5.05-4.53-10.99-7.43l4.31,6.13s-3.83-1.17-7.97-.75l6.4,3.66c-3.94.51-5.61-.31-11.14,2.03,14.4-.15,20.89,11.74,28.11,24.01,0,0-10.58-10.39-15.21-15.4-4.64-5.01-4.64-4.45-4.64-4.45,0,0,10.2,14.28,14.47,20.78,4.27,6.49,10.76,17.63,10.76,17.63,0,0-8.9-12.06-14.66-18.74-5.75-6.68-11.69-9.09-11.69-9.09,0,0,10.76,11.5,17.25,21.15,6.49,9.65,9.65,13.54,14.1,18.74,4.45,5.19,9.65,15.21,9.65,15.21,0,0-19.5-23.89-37.6-38.58-18.1-14.69-30.7-16.95-39.62-18.79-8.92-1.84-20.2,3.94-20.2,3.94,0,0,9.67-4.09,17.46-1.3,7.79,2.78,15.59,7.79,15.59,7.79,0,0-6.86-.93-11.87-1.11-5.01-.18-12.8,2.23-12.8,2.23,0,0,10.21-1.3,14.66,0,4.45,1.3,9.83,4.08,9.83,4.08,0,0-5.01.56-11.13.37-6.12-.18-8.54.56-8.54.56,0,0,7.98,1.67,10.58,3.15,2.6,1.48,9.83,1.67,9.83,1.67,0,0-3.9,2.23-7.24,2.6-3.34.37-9.46,2.41-9.46,2.41,0,0,7.98.37,11.5.56,3.52.19,12.43,0,12.43,0,0,0-6.49,2.23-9.83,3.34-3.34,1.11-7.42,3.71-7.42,3.71,0,0,15.21-2.78,18.18-3.71l2.97-.93-16.33,9.65s5.57-1.11,8.72-2.41c3.15-1.3,10.02-3.34,10.02-3.34,0,0-5.57,2.97-9.65,6.12-4.08,3.15-7.79,7.98-7.79,7.98,0,0,9.28-6.68,13.17-8.53,3.89-1.86,6.68-2.97,6.68-2.97,0,0-6.12,5.57-9.28,8.91-3.15,3.34-5.38,8.9-5.38,8.9,0,0,8.9-8.53,12.62-11.13,3.71-2.6,9.65-5.2,9.65-5.2,0,0-5.75,6.31-9.09,9.65-3.34,3.34-6.49,7.42-6.49,7.42,0,0,11.69-8.35,13.54-9.83,1.86-1.48,6.86-3.34,6.86-3.34,0,0-4.27,4.82-7.61,7.42-3.34,2.6-9.46,9.83-9.46,9.83,0,0,9.28-3.9,14.1-5.94,4.83-2.04,12.06-2.6,12.06-2.6,0,0-7.79,4.45-10.39,5.57-2.6,1.11-8.72,5.94-8.72,5.94,0,0,2.6-.37,7.42-2.41,4.82-2.04,12.43-4.64,12.43-4.64,0,0-4.82,5.19-6.68,6.31-1.86,1.11-5.2,3.52-5.2,3.52,0,0,7.42-1.11,10.76-3.34,3.34-2.23,5.38-3.15,5.38-3.15,0,0-9.28,7.98-11.13,10.02-1.86,2.04-2.41,2.97-2.41,2.97,0,0,8.91-4.83,12.06-6.31,3.15-1.48,5.57-1.86,5.57-1.86,0,0-5.38,6.68-7.98,8.53-2.6,1.86-5.01,4.27-5.01,4.27,0,0,10.02-3.15,12.62-4.82,2.6-1.67,3.15-1.86,3.15-1.86,0,0-4.83,6.68-7.24,7.98-2.41,1.3-3.15,2.23-3.15,2.23,0,0,5.01.55,7.79-.74,2.78-1.3,3.71-1.67,3.71-1.67,0,0-4.27,6.86-6.49,6.86s-12.62-8.53-32.1-18.37c-19.48-9.83-42.67-12.62-42.67-12.62l13.54,5.38s-11.32.74-18.74,3.9c-7.42,3.15-20.41,14.1-20.41,14.1,0,0,10.95-5.57,16.51-6.86,5.57-1.3,7.98-1.48,7.98-1.48,0,0-7.05,2.6-11.13,5.2-4.08,2.6-7.42,6.31-7.42,6.31,0,0,8.53-5.01,18.18-6.49,9.65-1.48,19.67.37,19.67.37,0,0-7.24.19-10.95,1.86-3.71,1.67-5.56,2.78-5.56,2.78,0,0,7.61-2.23,12.25-2.04,4.64.18,9.09.93,9.09.93,0,0-.56,0-4.64,1.67-4.08,1.67-5.01,2.04-5.01,2.04,0,0,8.16-.93,11.32-1.3,3.15-.37,5.94.93,5.94.93l-7.98,2.41s4.64.56,7.98.56,6.49.56,6.49.56l-6.87,2.23,10.39-.19-3.15,2.97,5.94-.93-2.41,1.67,5.38.93-3.71,2.04,4.08,1.11s-15.03-3.9-30.61-3.9-28.76,8.91-34.51,15.4Z"/>
</svg>