<?xml version="1.0" encoding="UTF-8"?>
<svg id="a" data-name="Layer 1" xmlns="http://www.w3.org/2000/svg" viewBox="0 0 87.5 87.84">
  <path class="b" d="M66.91,44.91c-.61.3-1.58.67-2.27.68-.95,0-1.9-.17-2.83-.22-.62-.03-1.24.03-1.86-.05-.54-.08-1.17-.45-1.66-.21-.48.24-1.49-.11-2.02-.2-1.02-.17-2.07-.44-3.11-.5-1.73-.09-3.44-.44-5.18-.44-.28-.19-.68-.18-1.01-.23-.48-.07-.87-.2-1.32-.37-1.27-.48-2.54-.68-3.86-.94-1.74-.35-3.49-1.33-5.27-1.33.84-.05,1.73-.35,2.57-.49.65-.11,1.25-.36,1.89-.51.73-.17,1.48-.29,2.22-.46,1.61-.38,3.22-.53,4.87-.71,1.28-.14,2.53-.35,3.79-.52,1.22-.17,2.43-.18,3.67-.13.75.03,1.46.27,2.19.31.74.03,1.48-.05,2.21.04,1.16.15,2.36.32,3.43.82,1.18.55,2.21,1.32,3.22,2.12.59.46,1.41,1.18,1.41,1.98,0,.49-.67,1.16-1.08,1.37M83.32,59.98c-.15-.19-.26-.41-.43-.58-.17-.18-.45-.42-.67-.51-.3-.11-.62-.15-.92-.27-.22-.09-.51-.17-.75-.18-.82-.05-1.66-.16-2.44-.48.52,0,.97-.18,1.5-.17.48.02.74.15,1.04.48,0,.04,0,.07.02.11.27-.41-.18-1.19-.52-1.45-.41-.32-.91-.27-1.41-.26-.48.01-.89.26-1.34.31-.34.04-.57-.06-.87-.17-.72-.26-1.24-.78-1.87-1.23-.61-.44-1.39-.84-1.84-1.46-.34-.46-.88-.77-1.35-1.1-.3-.21-.77-.58-.87-.95.57-.68,1.26-1.28,1.83-1.96.33-.38.67-.72,1.01-1.09.16-.18.26-.44.41-.6-.06-.35.42-.77.55-1.1.15-.37.36-.73.48-1.12.13-.46.09-.95.11-1.42.02-.36.09-.78-.07-1.13h-.03c-.09-.43-.24-.9-.35-1.34-.35-1.39-1.3-2.42-2.44-3.22-.9-.64-1.84-1.16-2.85-1.61-.49-.22-1.01-.39-1.5-.61-.43-.2-.83-.55-1.32-.52-.46.03-.97-.18-1.43-.25-.76-.12-1.52-.16-2.27-.35-1.33-.34-2.67-.62-4.05-.62-1.32,0-2.75-.17-4.05.05-1.59.27-3.33.04-4.84.56-1.01.35-2.31.52-3.4.78-2.51.6-4.91,1.54-7.4,2.22-2,.55-4.04,1.13-6.12,1.13l.05.09c-1.16-.5-2.1-1.36-3.16-2-1.05-.64-2.6-1.16-2.6-2.52,0-.65.44-1.54.19-2.11-.26-.58-1.13-1-1.62-1.43-.61-.53-1.13-1.15-1.73-1.71-.58-.54-1.23-.97-1.88-1.46-.59-.45-1.49-1.15-2.27-1.06-.92-2.62-4.32-2.32-6.63-2.32-.73-.86-2.97-.27-3.96-.18-.68.06-.81.09-1.35.5-.34.26-.71.56-1.07.78l.05.14c-.24,1.07-.88,2.07-1,3.15-.12,1.04.37,1.47.62,2.35.19.68.1,1.47.11,2.21,0,.9.4,1.44.57,2.29.16.83-.21,1.58-.11,2.43.17,1.42.54.73,1.53,1.1,1.01.37,1.86,1.82,2.64,2.53,1.39,1.25,2.67,1.53,4.31,2.32.82.4,1.11,1.8,1.66,2.52.74.97,1.29,1.57,1.62,2.71-.09.29-.78,1.45-1.07,1.64-.87.58-.34-.84-1.38-.55-.09.47,0,.98.26,1.34-.89,0-1.74.27-2.55-.12-.48-.23-.93-.45-1.39-.71-.28-.16-.75-.44-1.08-.28-.22.1-.62.61-.7.84-.32.03-.93.73-1.01,1.04-.06.23-.12.88.03,1.06-.02-.26.34-.74.5-.94.21-.27.46-.37.79-.39.5-.02.8.12,1.04.55-.26.12-.27.76-.28,1.02-.01.44.11.63.28.97,0-.47.18-1.06.68-1.13.6-.09.96.35,1.53.39.24.46.54.71,1.02.91.4.17.92.47,1.36.28-.22-.04-.53-.41-.71-.54-.17-.12-.35-.3-.43-.48.58,0,1.11.11,1.69.08.53-.02.97-.27,1.44-.5.34-.17.74-.28,1.08-.43.36-.16.77-.22,1.13-.4.48-.24.88-.61,1.32-.91,1,.89,2.46,1.31,3.61,2.04,1,.64,2.19.94,3.18,1.59.6.4,1.13.47,1.83.47.5.6.43,1.56.22,2.28-.32,1.08-.29,2.31-.07,3.41.09.47.17.97-.11,1.39-.22.35-.36.16-.65.07-.37-.12-.73.02-1.05.23-.63.42-1.15.77-1.33,1.51-.11.45-.11.88-.11,1.35.03-.65.95-.78,1.46-.82.54-.04.93.32,1.42.36,0,.36,0,.63.11.96.1-.21.29-.51.5-.64.37-.22.58-.07.94,0,.58.12,1.26.05,1.8-.11.45.36.87.36,1.43.39.07,0,.32,0,.37.03.11.09.01.17.07.27.11.17.26.29.36.45,0-.3-.07-.82.03-1.1.11-.29.56-.36.83-.5.36-.18.64-.39,1.02-.15.27.17.39.36.71.47.04-.52-.48-1.06-.78-1.49-.18-.26-.44-.51-.71-.67-.27-.17-.64-.05-.88-.18-.28-.15-.06-.64,0-.89.18-.72.05-1.43-.1-2.17-.08-.37-.09-.74-.22-1.09-.13-.35-.4-.77-.35-1.15.11,0,.24-.02.35,0,.47.06.95.07,1.41.14.67.11,1.27.15,1.99.07,1.79-.21,3.58-.18,5.36-.46.78-.12,1.59-.02,2.38-.11,1-.11,2.02-.38,3.03-.5.69-.08,1.42-.17,2.09-.34.3-.07.69-.27,1-.23.92.12,1.93-.31,2.84-.5.77-.16,1.5-.39,2.19-.76.41-.22.85-.56,1.31-.66.87-.18,1.62-.67,2.52-.68.78,0,1.57.21,2.36.14.82-.08,1.26-.33,1.79-.89.12.38.69.59,1.01.8.38.25.76.51,1.15.73.69.38,1.36.92,1.94,1.46.28.27.6.68.98.81-.05.47-.25,1.04-.12,1.53.27-.09.45-1.29.96-.78-.03.39-.21,1.37.24,1.59.14-.27.14-.6.25-.87.18-.42.42-.17.66.03.25.2.48.22.77.13.25-.07.56-.24.8-.06.5.36,1.1.6,1.76.52.35-.04.62-.42.94-.48.26-.04.54.24.68.43.15.2.21.49.43.64,0-.37.03-.96-.27-1.24.54,0,.97.17,1.51.19.69.03,1.38-.03,2.06,0,0,.02,0,.04,0,.07.32-.03.55.21.78.38.18.14.47.27.59.45,0-.35-.06-.56-.28-.83"/>
</svg>
