<?xml version="1.0" encoding="UTF-8"?>
<svg id="a" data-name="Layer 1" xmlns="http://www.w3.org/2000/svg" viewBox="0 0 87.5 87.84">
  <path class="b" d="M10.35,45.38c.39-2.02.49-2.15,1.47-2.08.3.57.58,1.09.85,1.6.04-.03.07-.06.11-.09-.09-1.03-.18-2.06-.27-3.17-.68.25-1.45.47-2.14.84-.28.15-.48.62-.54.97-.31,1.73-1.25,2.36-2.92,1.85-.45-.14-.9-.32-1.28-.6-.25-.18-.52-.56-.51-.84.03-.74.2-1.47.32-2.21,0-.02.01-.06.03-.07,1.08-.35,1.03-1.65,1.87-2.21.08-.05.17-.09.31-.17.21.37.41.73.74,1.31.51-.67.98-1.22,1.34-1.83.09-.15-.11-.54-.27-.74-.17-.2-.47-.28-.68-.45-.97-.73-.95-1.64-.02-2.4.75-.61,1.43-1.32,2.19-1.92.74-.59,1.54-1.09,2.22-1.57-.2-.45-.39-.81-.52-1.19-.04-.12.03-.39.13-.44.92-.44.9-1.22.79-2.04-.02-.16.02-.34.04-.59.58.11,1.11.26,1.64.3.23.02.64-.12.69-.28.6-1.86,1.27-3.68,2.9-4.92-.1-.12-.13-.17-.16-.18-.36-.12-.71-.24-1.07-.36.18-.34.33-.71.56-1,.46-.59.96-1.15,1.47-1.7.52-.56,1-1.23,1.93-1.04.06.01.17-.02.2-.07.63-.85,1.42-.46,2.19-.3.5.1,1,.22,1.62.35-.23-.68-.82-1.15-.31-1.76q1.35.54,1.93-1.25c1.11.13,2.26.27,3.45.41v-1.15h.93s.06.06.07.11c.08.45.06,1.25.23,1.3.89.23,1.83.26,2.8.37v-1.85h-.83v-.93c.06-.04.12-.08.18-.12.47.69.94,1.38,1.41,2.07.08-1.04.59-1.7,1.31-2.22.26-.19.78-.45.89-.35.35.32.89.63.62,1.28-.13.31-.24.63-.38,1.01,1.45-.09,2.09-1.75,3.61-1.61-.08.48-.14.91-.21,1.35,1.39,0,1.66-.41,1.24-1.97.23.29.41.5.67.82.23-.48.4-.85.64-1.35.43.41.95.73,1.22,1.19.67,1.13,1.7,1.69,2.93,2.08.06-.38.13-.79.21-1.26.25.13.47.25.77.41.14-.44.41-.85.36-1.23-.12-1,.49-1.48,1.15-1.98.3-.22.58-.47.84-.69,1.06.67,2.1,1.33,3.19,2.02-.23.28-.51.63-.8.98,0,.08,0,.16-.01.24,1.7-.84,2.72.32,3.94,1.13-.43.31-.83.6-1.39,1,2.84-.54,4.68-2.01,5.61-4.54,1.07.3,1.16.42.85,1.37-.16.49-.44.94-.65,1.42-.35.81-.68,1.62-.9,2.49,1.18-.86,2.6-1.44,2.98-3.08.67.96,1.57.06,2.34.47-.32.38-.63.75-1.05,1.25.94.17,1.29.7,1.02,1.68-1.36.1-2.38.94-3.2,1.81.63.28,1.27.57,1.99.9.41-.64,1.1-1,2.08-.89,0,.38-.03.75,0,1.12.07.71.36,1.32,1.02,1.64.65.32,1.21,0,1.72-.4.37-.3.73-.6,1.14-.94.92,1.03,1.88,2.01,2.71,3.08.57.74.33,1.51-.39,2.08-.17.13-.28.47-.25.69.06.45.23.89.42,1.56-1.38-.81-2.59-.59-3.69-.05-.15.82-.24,1.61-.45,2.37-.18.66-.62,1.11-1.36,1.23-.88.14-1.17.91-1.63,1.6.4.22.76.42,1.17.64-.38.66-.75,1.29-1.15,1.98.74.11,1.32.09,1.54-.67.4-1.38,1.49-2.01,2.71-2.46,1.31-.48,1.42-.53,1.4-1.9-.01-.84.33-1.34,1.12-1.52,1.03-.23,2.07-.42,3.31-.67-.44,1.69.62,2.21,1.72,2.7-.13.41-.31.75-.35,1.11-.05.47-.1.99.03,1.43.3,1.04.04,2.34-.84,2.97-.31.23-.87.36-1.22.25-.89-.3-1.73-.75-2.59-1.16-.5-.24-.9-.24-1.14.3.54.29,1.31.46,1.52.9.17.36-.3,1.04-.51,1.6.99.75,2.08.79,3.21.04.74-.5,1.51-.97,2.39-1.37-.36.81-.81,1.58-1.04,2.42-.22.83-.21,1.72-.31,2.64-1.35.07-2.48-.43-3.27-1.26-.65.27-1.15.6-1.69.66-.36.04-.78-.29-1.15-.49-.3-.16-.57-.37-.86-.54-.15-.09-.42-.1-.46-.21-.31-.87-.98-.52-1.59-.58-1.8-.19-3.59-.5-5.39-.77-.31-.05-.61-.15-.92-.23-.05.07-.1.14-.15.22.37.3.71.68,1.13.87.72.32,1.5.52,2.26.77,1.83.59,2.93,1.94,3.61,3.64.18.46,0,1.06,0,1.6,0,.43-.07.91.08,1.29.3.75.73,1.45,1.12,2.22.9-.74,1.06-2.21,2.44-2.79.16.8.33,1.54.45,2.29.06.4.16.63.62.77.33.11.54.59.77.87-.14.18-.16.24-.2.26q-1.26.8-.8,2.26c.11.37.18.75.29,1.18.97.3,1.03.65.36,3.23.88.33,1.76.72,2.68.98.76.21,1.12.6,1.21,1.39.07.56.25,1.13.51,1.63.32.62.16.99-.31,1.43-.45.41-.85.91-1.16,1.43-.63,1.09-1.54,1.6-2.8,1.41-.42-.06-.82-.19-1.15-.27-.1-.71,0-1.48-.32-1.95-.45-.67-1.23-1.11-1.87-1.65l-.19.13c.39,1.59.77,3.19,1.16,4.78-.05.02-.09.04-.14.06-.41-.56-.86-1.1-1.22-1.68-.38-.62-.88-.98-1.61-1.02-.19-.01-.37-.08-.67-.15.92-.98.51-2.02.33-3.03-.03-.15-.3-.37-.43-.36-.18.02-.43.21-.49.38-.4,1.18-.73,1.38-1.93,1.09q-2.09-.51-2.22-2.44c-.59-.68-.97-1.2-1.42-1.63-.52-.5-1.11-.93-1.75-1.47-.34.85-.27,1.66-1.15,1.95-.79.27-1.35-.05-1.89-.5q-1.04.61-.7,1.68c.27.85.15,1.2-.54,1.56-.86.45-1.88.4-2.26-.19-.35-.56-.59-1.19-.92-1.88.63-.26,1.17-.48,1.71-.7,0-.04-.02-.08-.02-.12-.64.09-1.28.15-1.91.27-.51.09-.85-.04-1.12-.49-.29-.46-.64-.88-1.12-1.25.18.67.37,1.34.55,2.02.18.67.35,1.33.56,2.13-.7-.19-1.28-.35-1.97-.54-.05,1.12-.08,2.18.73,2.93.62.58.64,1.09.31,1.76-.1.19-.15.41-.26.69-1.39-.93-2.34-2.11-2.83-3.72.39-.03.73-.05,1.09-.07-.19-2.04.14-4.17-1.6-5.85-.9,1.3-1.81,2.46-2.53,3.73-.35.61-.62,1.5-.44,2.12.65,2.32.02,4.49-.42,6.71-.34,1.74,0,3.36,1.01,4.76.4.55,1.17.88,1.84,1.16.61.26,1.31.27,1.96.46.39.11.75.35,1.12.53-.02.11-.03.21-.05.32-.96.19-1.92.4-2.88.56-3.96.64-7.91.28-11.85-.18-.15-.02-.3-.05-.44-.08-.7-.15-.82-.49-.34-1.04.31-.35.66-.7,1.06-.94,1.24-.76,1.88-1.85,2.08-3.28.26-1.85.59-3.69.87-5.54.04-.26,0-.55-.09-.81-.4-1.26-.77-2.53-1.26-3.75-.18-.46-.6-.85-.98-1.19-.78-.71-.85-.91-.38-1.97.37.06.75.12,1.13.18.54-2.55-.48-3.85-2.91-3.65.17.72.35,1.43.53,2.18-1.28.09-2.47.15-3.48-.81-1.08-1.02-1.96-.91-3.08.3.58.42,1.18.81,1.73,1.26.95.77,1.3,1.51.95,2.07-.54.87-1.43.72-2.23.59-.58-.09-1.15-.33-1.7-.55-.54-.21-.93-.16-1.31.33-.59.77-.93.74-1.64-.02-.04-.04-.13-.06-.19-.06-.1.01-.19.05-.31.09.27,1.26-.66,1.8-1.46,2.47-.29-.23-.53-.46-.8-.62-.59-.36-.75-.75-.37-1.4.14-.25.06-.75-.11-1.02-.32-.53-.84-.93-1.15-1.47-.42-.72-.75-1.5-1.05-2.27-.42-1.06.47-1.57,1.04-2.23.3.23.61.46.96.72.25-.78-.26-1.74.97-2.26-.47-.09-.72-.14-.96-.19-.51-.09-1.04-.15-1.54-.28-1.55-.42-2.06-1.31-1.7-2.86.39-1.68.72-1.88,2.23-1.1,1.23.64,2.46,1.01,3.79.53.64-.23,1.22-.64,1.79-1.04.55-.38,1.05-.52,1.74-.34.61.16,1.3.03,1.95.03.05-.08.11-.16.16-.24-.77-1.09-1.54-2.19-2.35-3.33-.38.34-.67.59-.96.85-1.74-1.49-6.74-1.8-7.46-.46-.83-.18-.72-.96-.95-1.46-.9,1.02-1.8,2.04-2.81,3.18.51.18.91.36,1.33.47.59.15.79.46.53,1.12-.45-.04-.93-.09-1.41-.14,0,.07-.03.14-.01.15.36.26.91.45,1.02.79.11.34-.28.82-.33,1.26-.06.56.02,1.14-.01,1.7-.01.18-.21.51-.32.51-.28,0-.7-.07-.81-.26-.38-.68-.65-1.42-.95-2.14-.12-.3-.23-.6-.37-.96-.33.13-.65.26-.97.39.14-.58.51-1.24.33-1.67-.16-.38-.94-.49-1.53-.77ZM40.99,29.98c.69.45,1.87,1.48,2.38,2.16.04.06.1.11.14.18.04.06.1.18.08.19-.49.46.08.6.27.78.85.86.86,1.31-.17,1.99-.56.37-1.24.57-1.89.86.2.44.41.9.62,1.36-1.81.82-2.21,1.54-1.52,2.84.71-1.05,1.78-1.26,2.93-1.39-.78,1.53-2.91,1.74-3.3,3.66.29.09.57.17.91.27.08-.48.15-.87.23-1.32.41.1.79.2,1.17.29,1.12.27,1.39.14,2.07-.8,1.15-1.59,1.74-3.41,2.23-5.27.07-.26.13-.55.09-.81-.19-1.4-.42-2.8-.64-4.24-.68.14-1.52.32-2.04.43-.69-.61-1.21-1.03-1.68-1.5-.8-.81-1.25.18-1.86.32ZM49.04,36.3c-.67,1.78-1.26,3.48-1.95,5.13-.69,1.66-1.49,3.26-2.22,4.9-.6,1.34-1.2,2.68-1.74,4.05-.43,1.1-.66,2.26-.37,3.44.14.58.36,1.12,1.09,1.14,1.47.05,2.82-1.94,2.32-3.3-.3-.83-.54-1.72-.61-2.59-.04-.48.21-1.16.57-1.44.68-.53.82-1.1.73-1.88-.2-1.58.3-2.98,1.38-4.11.75-.78,1.02-1.64.81-2.66-.16-.77.02-1.43.52-2.02.1-.12.16-.28.28-.51-.33-.06-.59-.11-.81-.15ZM37.8,47.38c.69-1.07.92-2.25.38-2.82-1.27-1.36-2.62-2.63-3.95-3.94-.91,1-1.07,1.71-.64,2.36.68,1.02.36,1.9-.84,2.19-.55.13-1.13.15-1.87.25.46.82.88,1.59,1.33,2.39,1.25-1.1,3.49-1.23,5.58-.42ZM27.37,40.68c2.19-.07,2.63-.66,2.11-2.73,0-.02,0-.05-.01-.07-.23-.85-.83-1.36-1.71-1.42-.57-.03-1.15,0-1.72-.03-.32-.01-.69.01-.95-.13-.26-.15-.51-.47-.58-.76-.04-.15.28-.49.51-.59.47-.19.65-.51.66-.97.01-.29.03-.58.04-.87.59-.03,1.1-.05,1.65-.07-.2-1.5-1.61-.65-2.2-1.53-.12.67-.2,1.1-.28,1.54-.28,1.44-.39,1.54-1.77,1.7-.04,0-.08.06-.24.18.18.33.32.74.59,1.01.53.52,1.09,1.05,1.72,1.43,1.16.7,2.02,1.56,2.06,3.01,0,.09.05.19.09.32ZM34.35,32.32c.58-.27,1.11-.38,1.43-.71.63-.62,1.36-.67,2.13-.59.7.07.89-.26.83-.87-.03-.27-.04-.56-.14-.8-.36-.87-.76-1.72-1.16-2.6-.48.56-1.11,1.06-1.4,1.71-.28.63-.22,1.42-.31,2.12-.36-.09-.73-.17-1.18-.28-.07.68-.13,1.27-.2,2.02ZM46.14,27.51c0-.36.03-.84-.02-1.3-.02-.18-.18-.44-.33-.49-.97-.34-1.4-1.1-1.61-2.01-.15-.65-.53-.9-1.12-.95-.08,1.86-.15,3.68-.23,5.45,1.03-.22,2.09-.44,3.3-.7ZM36.45,37.55c-.99-.29-1.85-.55-2.74-.81-.32.48-.23,1.01.16,1.4.94.95,1.9,1.89,2.93,2.75.49.4,1.15.6,1.79.91.15-.93-.18-1.51-.88-1.75-1.05-.36-1.35-1.07-1.23-2.07.02-.17-.02-.34-.02-.43ZM50.7,43.01c.51-.76,1-1.46,1.48-2.18.08-.12.18-.28.16-.4-.16-1.09-.35-2.17-.54-3.25-2.2.82-2.32,3.44-1.1,5.83ZM33.06,48.49q-.08.78.42.92c1.5.42,1.71.96.86,2.22-.12.18-.22.36-.36.6.22.06.36.12.5.13.5.04,1,.08,1.49.09.81.01,1.53-.84,1.38-1.64-.02-.1-.12-.22-.22-.27-1.33-.68-2.66-1.34-4.07-2.05ZM60.31,26.75c-.06.72-.1,1.3-.15,1.93,1.08.11,2.08.21,2.99.3.24-.73.45-1.38.66-2.03-.72-.36-1.21-.04-1.53.68-.65-.29-1.26-.56-1.98-.88ZM68.35,49.35c-.99.82-1.12,1.69-.49,3.04.33.72.9.92,2.12.71-.55-1.26-1.09-2.49-1.63-3.75ZM55.87,30.66c1.24.54,2.44,1.07,3.7,1.62.18-.61.32-1.08.5-1.67-.74-.18-1.42-.49-2.1-.49-.66,0-1.32.32-2.1.54ZM49.61,29.49c.41-.46.97-.81.95-1.12-.04-.64-.32-1.29-.62-1.87-.28-.54-.96-.63-1.61-.33.4,1.03.8,2.06,1.28,3.32ZM31.4,31.49c-.09.03-.18.06-.27.09.25.84.5,1.68.75,2.51.52-.37.85-.67,1.23-.87.85-.44,1.02-1.14.39-2-.23.18-.47.36-.7.54-.23.18-.46.36-.71.55-.25-.3-.47-.56-.69-.82ZM48.47,16.56c1.06.88,1.04.88,1.04,2.27,0,.53.13,1.06.2,1.64.77-1.07,1.42-1.97,2.06-2.86-.05-.04-.1-.08-.15-.12-.39.23-.78.46-1.19.7-.38-1.38-.67-1.62-1.96-1.62ZM11.68,39.79c-1.24-.11-2.22.1-2.36,1.65h2.82c-.16-.56-.3-1.08-.46-1.65ZM40.79,28.63c.16-1.56-.42-2.32-1.85-2.39.07.47.13.93.22,1.39.31,1.5-.02,1.19,1.45,1.08.05,0,.09-.04.18-.08ZM67.91,57.69c.11-.22.3-.44.32-.68.05-.48.02-.96.02-1.59-.43-.14-1.02-.34-1.62-.54-.31,1.58-.07,2.11,1.28,2.81ZM59.18,37.59c.07.06.23.34.38.33.43-.02.9-.07,1.28-.27.2-.1.39-.59.31-.79-.22-.54-.59-1.01-.85-1.44-.32.61-.68,1.31-1.12,2.15ZM63.29,58.23c.47-.29.86-.51,1.21-.78.19-.14.31-.38.46-.58-.28-.21-.56-.61-.83-.6-.49.01-.96.27-1.49.44.24.54.43.97.66,1.51ZM31.23,49.21c-.27-1.27-1.21-1.64-2.25-1.93-.1,1.3.85,2.12,2.25,1.93ZM20.67,35c-1.03,1.18-.61,2.45.98,3.02-.34-1.05-.64-1.98-.98-3.02ZM30.52,36.91c-.34.66.03,1.84.82,2.64.49-1.14.38-1.49-.82-2.64ZM53.7,45.9c.25-.37.49-.72.72-1.07-.45-.3-.91-.6-1.41-.93-.35.92-.02,1.46.69,1.99ZM55.51,37.54c0,.12-.02.23-.03.35.82.09,1.63.2,2.45.27.07,0,.23-.18.23-.29,0-.11-.13-.32-.2-.32-.82-.02-1.64-.01-2.45-.01ZM19.24,35.41c-1.11-.17-1.47-.08-1.96.5.34.19.68.38,1.04.59.31-.36.57-.68.91-1.08ZM21.16,21.31c-.84.15-1.54.18-2.03.94.78-.1,1.48-.09,2.03-.94ZM14.39,37.72c-.8.48-.86.77-.35,1.59.11-.48.21-.96.35-1.59Z"/>
  <path class="b" d="M57.61,13.92c-.57-.48-1.1-.88-1.58-1.34-.87-.85-.86-1.23-.05-2.21,2.06.99,2.48,1.84,1.63,3.55Z"/>
  <path class="b" d="M51.08,68.15c-.41.46-.83.92-1.31,1.45-.61-.67-1.14-1.25-1.67-1.83,1.07-.94,1.83-.86,2.98.38Z"/>
  <path class="b" d="M55.27,62.57c.7-.3,1.34-.57,2.05-.88.14.59.3,1.14.36,1.69.02.15-.25.46-.42.49-.99.19-1.48-.49-1.99-1.3Z"/>
  <path class="b" d="M18.03,52.32c-.48.46-.9,1.03-1.47,1.33-.2.11-.75-.45-1.14-.71.02-.07.05-.15.07-.22.79-.22,1.57-.44,2.36-.66.06.09.12.17.18.26Z"/>
  <path class="b" d="M79.18,30.22v-1.49c.38.04.73.07,1.21.12-.43.49-.76.86-1.21,1.37Z"/>
  <path class="b" d="M79.01,25.23c-.1.52-.18.92-.26,1.35-.72-.4-.68-.68.26-1.35Z"/>
</svg>
